<svg xmlns="http://www.w3.org/2000/svg" width="506" height="312.019" viewBox="0 0 506 312.019">
  <g id="Grupo_1118335" data-name="Grupo 1118335" transform="translate(-284.5 -687.078)">
    <path id="Trazado_903347" data-name="Trazado 903347" d="M-111.347.473h-1.422V-8.953l-2.851,1.044V-9.193l4.052-1.522h.221Zm4.319-.741a.886.886,0,0,1,.218-.612.835.835,0,0,1,.653-.244.855.855,0,0,1,.662.244.867.867,0,0,1,.225.612.82.82,0,0,1-.225.589.87.87,0,0,1-.662.237.844.844,0,0,1-.653-.237.835.835,0,0,1-.218-.589Zm10.695-7.483a2.584,2.584,0,0,1-.439,1.483,2.99,2.99,0,0,1-1.189,1.017,3.19,3.19,0,0,1,1.38,1.093,2.751,2.751,0,0,1,.508,1.628,2.909,2.909,0,0,1-.975,2.3,3.745,3.745,0,0,1-2.564.856,3.728,3.728,0,0,1-2.573-.86,2.922,2.922,0,0,1-.968-2.3,2.833,2.833,0,0,1,.493-1.628,3.068,3.068,0,0,1,1.364-1.1,2.922,2.922,0,0,1-1.17-1.017,2.622,2.622,0,0,1-.428-1.476,2.878,2.878,0,0,1,.9-2.233,3.384,3.384,0,0,1,2.378-.826,3.387,3.387,0,0,1,2.373.826,2.871,2.871,0,0,1,.908,2.237Zm-1.154,5.19a2.051,2.051,0,0,0-.593-1.522,2.1,2.1,0,0,0-1.548-.589,2.064,2.064,0,0,0-1.533.581,2.075,2.075,0,0,0-.577,1.529,1.976,1.976,0,0,0,.562,1.49,2.156,2.156,0,0,0,1.566.543,2.15,2.15,0,0,0,1.559-.547,1.971,1.971,0,0,0,.565-1.487Zm-2.125-7.087a1.824,1.824,0,0,0-1.35.516,1.9,1.9,0,0,0-.516,1.4,1.886,1.886,0,0,0,.508,1.372,1.8,1.8,0,0,0,1.357.522,1.8,1.8,0,0,0,1.357-.522,1.886,1.886,0,0,0,.5-1.372,1.887,1.887,0,0,0-.522-1.384,1.8,1.8,0,0,0-1.339-.538Zm12.3,5.374a6.471,6.471,0,0,1-.849,3.693A3.017,3.017,0,0,1-90.814.625a3.039,3.039,0,0,1-2.637-1.18,6.139,6.139,0,0,1-.887-3.528V-5.971a6.324,6.324,0,0,1,.849-3.647,3.041,3.041,0,0,1,2.66-1.193,3.069,3.069,0,0,1,2.645,1.148,6.1,6.1,0,0,1,.872,3.549Zm-1.413-1.933a5.182,5.182,0,0,0-.5-2.619,1.737,1.737,0,0,0-1.6-.826,1.714,1.714,0,0,0-1.582.818,5.06,5.06,0,0,0-.512,2.515v2.263A5.266,5.266,0,0,0-92.4-1.391a1.734,1.734,0,0,0,1.586.86,1.71,1.71,0,0,0,1.555-.81,5.075,5.075,0,0,0,.531-2.553Zm10.205,1.934A6.471,6.471,0,0,1-79.371-.58,3.017,3.017,0,0,1-82.023.625,3.039,3.039,0,0,1-84.66-.555a6.139,6.139,0,0,1-.887-3.528V-5.971A6.324,6.324,0,0,1-84.7-9.618a3.041,3.041,0,0,1,2.66-1.193,3.069,3.069,0,0,1,2.645,1.148,6.1,6.1,0,0,1,.872,3.549Zm-1.414-1.934a5.182,5.182,0,0,0-.5-2.619,1.737,1.737,0,0,0-1.6-.826,1.714,1.714,0,0,0-1.582.818,5.06,5.06,0,0,0-.512,2.515v2.263a5.265,5.265,0,0,0,.522,2.664,1.734,1.734,0,0,0,1.586.86,1.71,1.71,0,0,0,1.555-.81,5.075,5.075,0,0,0,.531-2.553Zm3.4,5.939a.886.886,0,0,1,.218-.612.835.835,0,0,1,.653-.244A.855.855,0,0,1-75-.884a.867.867,0,0,1,.225.612A.82.82,0,0,1-75,.317a.87.87,0,0,1-.662.237.844.844,0,0,1-.653-.237.835.835,0,0,1-.22-.584ZM-65.61-4.274a6.471,6.471,0,0,1-.849,3.693A3.017,3.017,0,0,1-69.112.625a3.039,3.039,0,0,1-2.636-1.18,6.139,6.139,0,0,1-.887-3.528V-5.971a6.324,6.324,0,0,1,.849-3.647,3.041,3.041,0,0,1,2.66-1.193,3.069,3.069,0,0,1,2.645,1.148,6.1,6.1,0,0,1,.872,3.549Zm-1.414-1.933a5.182,5.182,0,0,0-.5-2.619,1.737,1.737,0,0,0-1.6-.826,1.714,1.714,0,0,0-1.582.818,5.06,5.06,0,0,0-.512,2.515v2.263A5.266,5.266,0,0,0-70.7-1.391a1.734,1.734,0,0,0,1.586.86,1.71,1.71,0,0,0,1.555-.81,5.074,5.074,0,0,0,.531-2.553Zm10.205,1.934a6.471,6.471,0,0,1-.854,3.691A3.017,3.017,0,0,1-60.321.625a3.039,3.039,0,0,1-2.637-1.18,6.139,6.139,0,0,1-.887-3.528V-5.971A6.324,6.324,0,0,1-63-9.618a3.041,3.041,0,0,1,2.66-1.193A3.069,3.069,0,0,1-57.69-9.662a6.1,6.1,0,0,1,.872,3.549Zm-1.414-1.934a5.182,5.182,0,0,0-.5-2.619,1.737,1.737,0,0,0-1.6-.826,1.714,1.714,0,0,0-1.582.818,5.06,5.06,0,0,0-.512,2.515v2.263a5.265,5.265,0,0,0,.522,2.664,1.734,1.734,0,0,0,1.586.86,1.71,1.71,0,0,0,1.555-.81,5.075,5.075,0,0,0,.531-2.553Zm10.205,1.934A6.471,6.471,0,0,1-48.876-.58,3.017,3.017,0,0,1-51.529.625a3.039,3.039,0,0,1-2.637-1.18,6.139,6.139,0,0,1-.887-3.528V-5.971a6.324,6.324,0,0,1,.849-3.647,3.041,3.041,0,0,1,2.66-1.193A3.069,3.069,0,0,1-48.9-9.662a6.1,6.1,0,0,1,.872,3.549Zm-1.414-1.934a5.182,5.182,0,0,0-.507-2.62,1.737,1.737,0,0,0-1.6-.825,1.714,1.714,0,0,0-1.582.818,5.06,5.06,0,0,0-.512,2.515v2.263a5.266,5.266,0,0,0,.522,2.664,1.734,1.734,0,0,0,1.586.86,1.71,1.71,0,0,0,1.555-.81,5.075,5.075,0,0,0,.531-2.553Zm3.4,5.939a.886.886,0,0,1,.218-.612.835.835,0,0,1,.653-.244.855.855,0,0,1,.662.244.867.867,0,0,1,.225.612.82.82,0,0,1-.225.589.87.87,0,0,1-.662.237.844.844,0,0,1-.653-.237.835.835,0,0,1-.218-.589Zm10.924-4.006a6.471,6.471,0,0,1-.846,3.692A3.017,3.017,0,0,1-38.617.625a3.039,3.039,0,0,1-2.637-1.18,6.139,6.139,0,0,1-.887-3.528V-5.971a6.324,6.324,0,0,1,.849-3.647,3.041,3.041,0,0,1,2.66-1.193,3.069,3.069,0,0,1,2.645,1.148,6.1,6.1,0,0,1,.872,3.549Zm-1.414-1.933a5.182,5.182,0,0,0-.5-2.619,1.737,1.737,0,0,0-1.6-.826,1.714,1.714,0,0,0-1.582.818,5.06,5.06,0,0,0-.512,2.515v2.263a5.266,5.266,0,0,0,.522,2.664,1.734,1.734,0,0,0,1.586.86,1.71,1.71,0,0,0,1.555-.81,5.075,5.075,0,0,0,.531-2.553Zm10.205,1.934A6.471,6.471,0,0,1-27.174-.58,3.017,3.017,0,0,1-29.826.625a3.039,3.039,0,0,1-2.637-1.18,6.139,6.139,0,0,1-.887-3.528V-5.971A6.324,6.324,0,0,1-32.5-9.618a3.041,3.041,0,0,1,2.66-1.193A3.069,3.069,0,0,1-27.2-9.662a6.1,6.1,0,0,1,.872,3.549ZM-27.74-6.207a5.182,5.182,0,0,0-.5-2.62,1.737,1.737,0,0,0-1.6-.825,1.714,1.714,0,0,0-1.582.818,5.06,5.06,0,0,0-.512,2.515v2.263a5.266,5.266,0,0,0,.522,2.664,1.734,1.734,0,0,0,1.586.86,1.71,1.71,0,0,0,1.555-.81,5.075,5.075,0,0,0,.531-2.553Zm10.205,1.934A6.471,6.471,0,0,1-18.383-.58,3.017,3.017,0,0,1-21.038.625a3.039,3.039,0,0,1-2.634-1.18,6.139,6.139,0,0,1-.887-3.528V-5.971a6.324,6.324,0,0,1,.849-3.647,3.041,3.041,0,0,1,2.66-1.193,3.069,3.069,0,0,1,2.645,1.148,6.1,6.1,0,0,1,.872,3.549Zm-1.416-1.934a5.182,5.182,0,0,0-.5-2.619,1.737,1.737,0,0,0-1.6-.826,1.714,1.714,0,0,0-1.582.818,5.06,5.06,0,0,0-.512,2.515v2.263a5.266,5.266,0,0,0,.522,2.664,1.734,1.734,0,0,0,1.585.863,1.71,1.71,0,0,0,1.555-.81,5.075,5.075,0,0,0,.532-2.554Zm3.4,5.939a.886.886,0,0,1,.218-.616.835.835,0,0,1,.653-.244.855.855,0,0,1,.662.244.867.867,0,0,1,.225.612.82.82,0,0,1-.225.589.87.87,0,0,1-.658.241.844.844,0,0,1-.653-.237.835.835,0,0,1-.222-.589ZM-4.622-4.274A6.471,6.471,0,0,1-5.471-.581,3.017,3.017,0,0,1-8.124.625a3.039,3.039,0,0,1-2.637-1.18,6.139,6.139,0,0,1-.883-3.528V-5.971A6.324,6.324,0,0,1-10.8-9.618a3.041,3.041,0,0,1,2.66-1.193A3.069,3.069,0,0,1-5.491-9.662a6.1,6.1,0,0,1,.872,3.549ZM-6.037-6.207a5.182,5.182,0,0,0-.5-2.619,1.737,1.737,0,0,0-1.6-.826,1.714,1.714,0,0,0-1.582.818,5.06,5.06,0,0,0-.512,2.515v2.263a5.266,5.266,0,0,0,.522,2.664,1.734,1.734,0,0,0,1.586.86,1.71,1.71,0,0,0,1.555-.81A5.075,5.075,0,0,0-6.04-3.894Zm10.2,1.933A6.471,6.471,0,0,1,3.319-.581,3.017,3.017,0,0,1,.671.625,3.039,3.039,0,0,1-1.97-.555a6.139,6.139,0,0,1-.887-3.528V-5.971a6.324,6.324,0,0,1,.849-3.647,3.041,3.041,0,0,1,2.66-1.193A3.069,3.069,0,0,1,3.3-9.662a6.1,6.1,0,0,1,.872,3.549ZM2.759-6.207a5.182,5.182,0,0,0-.509-2.62,1.737,1.737,0,0,0-1.6-.825,1.714,1.714,0,0,0-1.582.818,5.06,5.06,0,0,0-.512,2.522v2.263A5.266,5.266,0,0,0-.921-1.385,1.734,1.734,0,0,0,.671-.528a1.71,1.71,0,0,0,1.555-.81,5.075,5.075,0,0,0,.532-2.554ZM-111.347,24.479h-1.422V15.053L-115.62,16.1V14.813l4.052-1.522h.221Zm4.319-.741a.886.886,0,0,1,.218-.612.835.835,0,0,1,.653-.244.855.855,0,0,1,.662.244.867.867,0,0,1,.225.612.82.82,0,0,1-.225.589.87.87,0,0,1-.662.237.844.844,0,0,1-.653-.237A.835.835,0,0,1-107.028,23.738Zm9.5-10.4v1.2h-.26a3.724,3.724,0,0,0-2.63.979,4.07,4.07,0,0,0-1.131,2.668,3.018,3.018,0,0,1,2.4-1.009,2.886,2.886,0,0,1,2.32,1.024,3.951,3.951,0,0,1,.867,2.645A3.939,3.939,0,0,1-96.9,23.6a3.224,3.224,0,0,1-2.511,1.032,3.177,3.177,0,0,1-2.592-1.227A4.863,4.863,0,0,1-103,20.243V19.7a7.327,7.327,0,0,1,1.311-4.7,4.815,4.815,0,0,1,3.9-1.663Zm-1.858,5.01a2.257,2.257,0,0,0-1.338.435,2.27,2.27,0,0,0-.849,1.093V20.4a3.653,3.653,0,0,0,.619,2.217,1.856,1.856,0,0,0,1.544.841,1.8,1.8,0,0,0,1.5-.7,2.922,2.922,0,0,0,.547-1.842,2.922,2.922,0,0,0-.554-1.854,1.774,1.774,0,0,0-1.474-.7Zm12.074,1.381a6.471,6.471,0,0,1-.849,3.693,3.017,3.017,0,0,1-2.653,1.208,3.039,3.039,0,0,1-2.637-1.181,6.139,6.139,0,0,1-.887-3.528V18.035a6.324,6.324,0,0,1,.849-3.647,3.041,3.041,0,0,1,2.66-1.193,3.069,3.069,0,0,1,2.645,1.148,6.1,6.1,0,0,1,.872,3.549ZM-88.728,17.8a5.182,5.182,0,0,0-.5-2.619,1.737,1.737,0,0,0-1.6-.821,1.714,1.714,0,0,0-1.582.818,5.06,5.06,0,0,0-.512,2.515v2.263a5.266,5.266,0,0,0,.522,2.664,1.734,1.734,0,0,0,1.586.86,1.71,1.71,0,0,0,1.555-.81,5.075,5.075,0,0,0,.531-2.553Zm10.205,1.934a6.471,6.471,0,0,1-.849,3.693,3.017,3.017,0,0,1-2.653,1.208,3.039,3.039,0,0,1-2.637-1.181,6.139,6.139,0,0,1-.887-3.528V18.035a6.324,6.324,0,0,1,.849-3.647,3.041,3.041,0,0,1,2.66-1.193,3.069,3.069,0,0,1,2.645,1.148,6.1,6.1,0,0,1,.872,3.549ZM-79.936,17.8a5.182,5.182,0,0,0-.5-2.619,1.737,1.737,0,0,0-1.6-.821,1.714,1.714,0,0,0-1.582.818,5.06,5.06,0,0,0-.512,2.515v2.263a5.266,5.266,0,0,0,.522,2.664,1.734,1.734,0,0,0,1.586.86,1.71,1.71,0,0,0,1.555-.81,5.075,5.075,0,0,0,.531-2.553Zm3.4,5.94a.886.886,0,0,1,.218-.612.835.835,0,0,1,.653-.244.855.855,0,0,1,.662.244.867.867,0,0,1,.225.612.82.82,0,0,1-.225.589.87.87,0,0,1-.662.237.844.844,0,0,1-.653-.237.835.835,0,0,1-.217-.59Zm10.924-4.006a6.471,6.471,0,0,1-.849,3.693,3.017,3.017,0,0,1-2.653,1.208,3.039,3.039,0,0,1-2.637-1.181,6.139,6.139,0,0,1-.887-3.528V18.035a6.324,6.324,0,0,1,.849-3.647,3.041,3.041,0,0,1,2.66-1.193,3.069,3.069,0,0,1,2.645,1.148,6.1,6.1,0,0,1,.872,3.549ZM-67.024,17.8a5.182,5.182,0,0,0-.5-2.619,1.737,1.737,0,0,0-1.6-.821,1.714,1.714,0,0,0-1.582.818,5.06,5.06,0,0,0-.512,2.515v2.263a5.266,5.266,0,0,0,.522,2.664,1.734,1.734,0,0,0,1.586.86,1.71,1.71,0,0,0,1.555-.81,5.074,5.074,0,0,0,.531-2.553Zm10.205,1.934a6.471,6.471,0,0,1-.849,3.693,3.017,3.017,0,0,1-2.653,1.208,3.039,3.039,0,0,1-2.637-1.181,6.139,6.139,0,0,1-.887-3.528V18.035A6.324,6.324,0,0,1-63,14.388a3.041,3.041,0,0,1,2.66-1.193,3.069,3.069,0,0,1,2.645,1.148,6.1,6.1,0,0,1,.872,3.549ZM-58.233,17.8a5.182,5.182,0,0,0-.5-2.619,1.737,1.737,0,0,0-1.6-.821,1.714,1.714,0,0,0-1.582.818,5.06,5.06,0,0,0-.512,2.515v2.263a5.265,5.265,0,0,0,.522,2.664,1.734,1.734,0,0,0,1.586.86,1.71,1.71,0,0,0,1.555-.81,5.075,5.075,0,0,0,.531-2.553Zm10.205,1.934a6.471,6.471,0,0,1-.849,3.693,3.017,3.017,0,0,1-2.653,1.208,3.039,3.039,0,0,1-2.637-1.181,6.139,6.139,0,0,1-.887-3.528V18.035a6.324,6.324,0,0,1,.849-3.647,3.041,3.041,0,0,1,2.66-1.193A3.069,3.069,0,0,1-48.9,14.343a6.1,6.1,0,0,1,.872,3.549ZM-49.442,17.8a5.182,5.182,0,0,0-.507-2.62,1.737,1.737,0,0,0-1.6-.821,1.714,1.714,0,0,0-1.582.818,5.06,5.06,0,0,0-.512,2.515v2.263a5.266,5.266,0,0,0,.522,2.664,1.734,1.734,0,0,0,1.586.86,1.71,1.71,0,0,0,1.555-.81,5.075,5.075,0,0,0,.531-2.553Zm3.4,5.94a.886.886,0,0,1,.218-.612.835.835,0,0,1,.653-.244.855.855,0,0,1,.662.244.867.867,0,0,1,.225.612.82.82,0,0,1-.225.589.87.87,0,0,1-.662.237.844.844,0,0,1-.653-.237.835.835,0,0,1-.218-.59Zm10.924-4.006a6.471,6.471,0,0,1-.849,3.693,3.017,3.017,0,0,1-2.653,1.208,3.039,3.039,0,0,1-2.637-1.181,6.139,6.139,0,0,1-.887-3.528V18.035a6.324,6.324,0,0,1,.849-3.647,3.041,3.041,0,0,1,2.66-1.193,3.069,3.069,0,0,1,2.645,1.148,6.1,6.1,0,0,1,.872,3.549ZM-36.531,17.8a5.182,5.182,0,0,0-.5-2.619,1.737,1.737,0,0,0-1.6-.821,1.714,1.714,0,0,0-1.582.818,5.06,5.06,0,0,0-.512,2.515v2.263a5.266,5.266,0,0,0,.522,2.664,1.734,1.734,0,0,0,1.586.86,1.71,1.71,0,0,0,1.555-.81,5.075,5.075,0,0,0,.531-2.553Zm10.205,1.934a6.471,6.471,0,0,1-.849,3.693,3.017,3.017,0,0,1-2.653,1.208,3.039,3.039,0,0,1-2.637-1.181,6.139,6.139,0,0,1-.887-3.528V18.035a6.324,6.324,0,0,1,.849-3.647,3.041,3.041,0,0,1,2.66-1.193A3.069,3.069,0,0,1-27.2,14.343a6.1,6.1,0,0,1,.871,3.549ZM-27.74,17.8a5.182,5.182,0,0,0-.5-2.62,1.737,1.737,0,0,0-1.6-.821,1.714,1.714,0,0,0-1.582.818,5.06,5.06,0,0,0-.512,2.515v2.263a5.266,5.266,0,0,0,.522,2.664,1.734,1.734,0,0,0,1.586.86,1.71,1.71,0,0,0,1.555-.81,5.075,5.075,0,0,0,.531-2.553Zm10.205,1.934a6.471,6.471,0,0,1-.849,3.693,3.017,3.017,0,0,1-2.655,1.205,3.039,3.039,0,0,1-2.637-1.181,6.139,6.139,0,0,1-.887-3.528V18.035a6.324,6.324,0,0,1,.849-3.647,3.041,3.041,0,0,1,2.66-1.193,3.069,3.069,0,0,1,2.645,1.148,6.1,6.1,0,0,1,.872,3.549ZM-18.951,17.8a5.182,5.182,0,0,0-.5-2.619,1.737,1.737,0,0,0-1.6-.821,1.714,1.714,0,0,0-1.582.818,5.06,5.06,0,0,0-.512,2.515v2.263a5.266,5.266,0,0,0,.522,2.664,1.734,1.734,0,0,0,1.586.86,1.71,1.71,0,0,0,1.555-.81,5.075,5.075,0,0,0,.533-2.555Zm3.4,5.94a.886.886,0,0,1,.218-.612.835.835,0,0,1,.653-.244.855.855,0,0,1,.662.244.867.867,0,0,1,.225.612.82.82,0,0,1-.225.589.87.87,0,0,1-.662.237.844.844,0,0,1-.653-.237.835.835,0,0,1-.216-.59Zm10.924-4.006a6.471,6.471,0,0,1-.849,3.693,3.017,3.017,0,0,1-2.653,1.208,3.039,3.039,0,0,1-2.637-1.181,6.139,6.139,0,0,1-.887-3.528V18.035a6.324,6.324,0,0,1,.849-3.647,3.041,3.041,0,0,1,2.66-1.193A3.069,3.069,0,0,1-5.5,14.343a6.1,6.1,0,0,1,.872,3.549ZM-6.037,17.8a5.182,5.182,0,0,0-.5-2.619,1.737,1.737,0,0,0-1.6-.821,1.714,1.714,0,0,0-1.582.818,5.06,5.06,0,0,0-.512,2.515v2.263a5.266,5.266,0,0,0,.522,2.664,1.734,1.734,0,0,0,1.586.86,1.71,1.71,0,0,0,1.555-.81,5.075,5.075,0,0,0,.531-2.553Zm10.2,1.933a6.471,6.471,0,0,1-.849,3.693A3.017,3.017,0,0,1,.671,24.631,3.039,3.039,0,0,1-1.966,23.45a6.139,6.139,0,0,1-.887-3.528V18.035A6.324,6.324,0,0,1-2,14.388a3.041,3.041,0,0,1,2.66-1.193A3.069,3.069,0,0,1,3.3,14.343a6.1,6.1,0,0,1,.872,3.549ZM2.759,17.8a5.182,5.182,0,0,0-.5-2.619,1.737,1.737,0,0,0-1.6-.826,1.714,1.714,0,0,0-1.582.818,5.06,5.06,0,0,0-.512,2.515v2.263a5.266,5.266,0,0,0,.522,2.664,1.734,1.734,0,0,0,1.586.86,1.71,1.71,0,0,0,1.555-.81,5.075,5.075,0,0,0,.539-2.551ZM-111.347,48.484h-1.422V39.058L-115.62,40.1V38.818l4.052-1.522h.221Zm4.319-.741a.886.886,0,0,1,.218-.612.835.835,0,0,1,.653-.244.855.855,0,0,1,.662.244.867.867,0,0,1,.225.612.82.82,0,0,1-.225.589.87.87,0,0,1-.662.237.844.844,0,0,1-.653-.237.835.835,0,0,1-.218-.589Zm9.915-3h1.544V45.9h-1.544v2.583h-1.422V45.9H-103.6v-.835l4.984-7.713h1.506Zm-4.885,0h3.463V39.288l-.168.306Zm14.685-1.009a6.471,6.471,0,0,1-.849,3.693,3.017,3.017,0,0,1-2.653,1.208,3.039,3.039,0,0,1-2.637-1.181,6.139,6.139,0,0,1-.887-3.528V42.04a6.324,6.324,0,0,1,.849-3.647A3.041,3.041,0,0,1-90.83,37.2a3.069,3.069,0,0,1,2.645,1.148,6.1,6.1,0,0,1,.872,3.549ZM-88.728,41.8a5.182,5.182,0,0,0-.5-2.619,1.737,1.737,0,0,0-1.6-.821,1.714,1.714,0,0,0-1.582.818,5.06,5.06,0,0,0-.512,2.515v2.263a5.266,5.266,0,0,0,.522,2.664,1.734,1.734,0,0,0,1.586.86,1.71,1.71,0,0,0,1.555-.81,5.075,5.075,0,0,0,.531-2.553Zm10.205,1.934a6.471,6.471,0,0,1-.849,3.693,3.017,3.017,0,0,1-2.653,1.208,3.039,3.039,0,0,1-2.637-1.181,6.139,6.139,0,0,1-.887-3.528V42.04a6.324,6.324,0,0,1,.849-3.647,3.041,3.041,0,0,1,2.66-1.193,3.069,3.069,0,0,1,2.645,1.148,6.1,6.1,0,0,1,.872,3.549ZM-79.936,41.8a5.182,5.182,0,0,0-.5-2.619,1.737,1.737,0,0,0-1.6-.821,1.714,1.714,0,0,0-1.582.818,5.06,5.06,0,0,0-.512,2.515v2.263a5.265,5.265,0,0,0,.522,2.664,1.734,1.734,0,0,0,1.586.86,1.71,1.71,0,0,0,1.555-.81,5.075,5.075,0,0,0,.531-2.553Zm3.4,5.94a.886.886,0,0,1,.218-.612.835.835,0,0,1,.653-.244.855.855,0,0,1,.662.244.867.867,0,0,1,.225.612.82.82,0,0,1-.225.589.87.87,0,0,1-.662.237.844.844,0,0,1-.653-.237.835.835,0,0,1-.217-.59Zm10.924-4.006a6.471,6.471,0,0,1-.849,3.693,3.017,3.017,0,0,1-2.653,1.208,3.039,3.039,0,0,1-2.637-1.181,6.139,6.139,0,0,1-.887-3.528V42.04a6.324,6.324,0,0,1,.849-3.647,3.041,3.041,0,0,1,2.66-1.193,3.069,3.069,0,0,1,2.645,1.148,6.1,6.1,0,0,1,.872,3.549ZM-67.024,41.8a5.182,5.182,0,0,0-.5-2.619,1.737,1.737,0,0,0-1.6-.821,1.714,1.714,0,0,0-1.582.818,5.06,5.06,0,0,0-.512,2.515v2.263a5.266,5.266,0,0,0,.522,2.664,1.734,1.734,0,0,0,1.586.86,1.71,1.71,0,0,0,1.555-.81,5.075,5.075,0,0,0,.531-2.553Zm10.205,1.934a6.471,6.471,0,0,1-.849,3.693,3.017,3.017,0,0,1-2.653,1.208,3.039,3.039,0,0,1-2.637-1.181,6.139,6.139,0,0,1-.887-3.528V42.04A6.324,6.324,0,0,1-63,38.394a3.041,3.041,0,0,1,2.66-1.193,3.069,3.069,0,0,1,2.645,1.148A6.1,6.1,0,0,1-56.82,41.9ZM-58.233,41.8a5.182,5.182,0,0,0-.5-2.619,1.737,1.737,0,0,0-1.6-.821,1.714,1.714,0,0,0-1.582.818A5.06,5.06,0,0,0-62.43,41.7v2.263a5.266,5.266,0,0,0,.522,2.664,1.734,1.734,0,0,0,1.586.86,1.71,1.71,0,0,0,1.555-.81,5.075,5.075,0,0,0,.531-2.553Zm10.205,1.934a6.471,6.471,0,0,1-.849,3.693,3.017,3.017,0,0,1-2.653,1.208,3.039,3.039,0,0,1-2.637-1.181,6.139,6.139,0,0,1-.887-3.528V42.04a6.324,6.324,0,0,1,.849-3.647,3.041,3.041,0,0,1,2.66-1.193A3.069,3.069,0,0,1-48.9,38.349a6.1,6.1,0,0,1,.872,3.549ZM-49.442,41.8a5.182,5.182,0,0,0-.507-2.62,1.737,1.737,0,0,0-1.6-.821,1.714,1.714,0,0,0-1.582.818,5.06,5.06,0,0,0-.512,2.515V43.96a5.265,5.265,0,0,0,.522,2.664,1.734,1.734,0,0,0,1.586.86,1.71,1.71,0,0,0,1.555-.81,5.075,5.075,0,0,0,.531-2.553Zm3.4,5.94a.886.886,0,0,1,.218-.612.835.835,0,0,1,.653-.244.855.855,0,0,1,.662.244.867.867,0,0,1,.225.612.82.82,0,0,1-.225.589.87.87,0,0,1-.662.237.844.844,0,0,1-.653-.237.835.835,0,0,1-.218-.59Zm10.924-4.006a6.471,6.471,0,0,1-.849,3.693,3.017,3.017,0,0,1-2.653,1.208,3.039,3.039,0,0,1-2.637-1.181,6.139,6.139,0,0,1-.887-3.528V42.04a6.324,6.324,0,0,1,.849-3.647,3.041,3.041,0,0,1,2.66-1.193,3.069,3.069,0,0,1,2.645,1.148,6.1,6.1,0,0,1,.872,3.549ZM-36.531,41.8a5.182,5.182,0,0,0-.5-2.619,1.737,1.737,0,0,0-1.6-.821,1.714,1.714,0,0,0-1.582.818,5.06,5.06,0,0,0-.512,2.515v2.263a5.266,5.266,0,0,0,.522,2.664,1.734,1.734,0,0,0,1.586.86,1.71,1.71,0,0,0,1.555-.81,5.075,5.075,0,0,0,.531-2.553Zm10.205,1.934a6.471,6.471,0,0,1-.849,3.693,3.017,3.017,0,0,1-2.653,1.208,3.039,3.039,0,0,1-2.637-1.181,6.139,6.139,0,0,1-.887-3.528V42.04a6.324,6.324,0,0,1,.849-3.647,3.041,3.041,0,0,1,2.66-1.193A3.069,3.069,0,0,1-27.2,38.349a6.1,6.1,0,0,1,.872,3.549ZM-27.74,41.8a5.182,5.182,0,0,0-.5-2.62,1.737,1.737,0,0,0-1.6-.821,1.714,1.714,0,0,0-1.582.818,5.06,5.06,0,0,0-.512,2.515V43.96a5.266,5.266,0,0,0,.522,2.664,1.734,1.734,0,0,0,1.586.86,1.71,1.71,0,0,0,1.555-.81,5.075,5.075,0,0,0,.531-2.553Zm10.205,1.934a6.471,6.471,0,0,1-.849,3.693,3.017,3.017,0,0,1-2.655,1.206,3.039,3.039,0,0,1-2.637-1.181,6.139,6.139,0,0,1-.887-3.528V42.04a6.324,6.324,0,0,1,.849-3.647,3.041,3.041,0,0,1,2.66-1.193,3.069,3.069,0,0,1,2.645,1.148,6.1,6.1,0,0,1,.872,3.549ZM-18.951,41.8a5.182,5.182,0,0,0-.5-2.619,1.737,1.737,0,0,0-1.6-.821,1.714,1.714,0,0,0-1.582.818,5.06,5.06,0,0,0-.512,2.515v2.263a5.266,5.266,0,0,0,.522,2.664,1.734,1.734,0,0,0,1.586.86,1.71,1.71,0,0,0,1.555-.81,5.075,5.075,0,0,0,.533-2.555Zm3.4,5.94a.886.886,0,0,1,.218-.612.835.835,0,0,1,.653-.244.855.855,0,0,1,.662.244.867.867,0,0,1,.225.612.82.82,0,0,1-.225.589.87.87,0,0,1-.662.237.844.844,0,0,1-.653-.237.835.835,0,0,1-.216-.59Zm10.924-4.006a6.471,6.471,0,0,1-.849,3.693,3.017,3.017,0,0,1-2.653,1.208,3.039,3.039,0,0,1-2.637-1.181,6.139,6.139,0,0,1-.887-3.528V42.04a6.324,6.324,0,0,1,.849-3.647A3.041,3.041,0,0,1-8.143,37.2,3.069,3.069,0,0,1-5.5,38.349,6.1,6.1,0,0,1-4.627,41.9ZM-6.037,41.8a5.182,5.182,0,0,0-.5-2.619,1.737,1.737,0,0,0-1.6-.821,1.714,1.714,0,0,0-1.582.818,5.06,5.06,0,0,0-.512,2.515v2.263a5.266,5.266,0,0,0,.522,2.664,1.734,1.734,0,0,0,1.586.86,1.71,1.71,0,0,0,1.555-.81,5.075,5.075,0,0,0,.531-2.553Zm10.2,1.933a6.471,6.471,0,0,1-.849,3.693A3.017,3.017,0,0,1,.671,48.637a3.039,3.039,0,0,1-2.637-1.181,6.139,6.139,0,0,1-.887-3.528V42.04A6.324,6.324,0,0,1-2,38.394,3.041,3.041,0,0,1,.656,37.2,3.069,3.069,0,0,1,3.3,38.349,6.1,6.1,0,0,1,4.172,41.9ZM2.759,41.8a5.182,5.182,0,0,0-.5-2.619,1.737,1.737,0,0,0-1.6-.826,1.714,1.714,0,0,0-1.582.818,5.06,5.06,0,0,0-.512,2.515v2.263A5.266,5.266,0,0,0-.921,46.62a1.734,1.734,0,0,0,1.586.86,1.71,1.71,0,0,0,1.555-.81,5.075,5.075,0,0,0,.539-2.551ZM-111.347,72.49h-1.422V63.064l-2.851,1.044V62.824l4.052-1.522h.221Zm4.319-.741a.886.886,0,0,1,.218-.612.835.835,0,0,1,.653-.244.855.855,0,0,1,.662.244.867.867,0,0,1,.225.612.82.82,0,0,1-.225.589.87.87,0,0,1-.662.237.844.844,0,0,1-.653-.237A.835.835,0,0,1-107.028,71.749Zm11.238.741h-7.292V71.473l3.852-4.279a9.153,9.153,0,0,0,1.181-1.578,2.634,2.634,0,0,0,.325-1.252,2,2,0,0,0-.527-1.43,1.844,1.844,0,0,0-1.407-.558,2.185,2.185,0,0,0-1.64.6,2.3,2.3,0,0,0-.584,1.67H-103.3a3.282,3.282,0,0,1,.989-2.484,3.67,3.67,0,0,1,2.649-.948,3.527,3.527,0,0,1,2.454.814,2.777,2.777,0,0,1,.9,2.167q0,1.644-2.095,3.914l-2.981,3.236h5.588Zm8.478-4.747a6.471,6.471,0,0,1-.849,3.693,3.017,3.017,0,0,1-2.653,1.208,3.039,3.039,0,0,1-2.637-1.182,6.139,6.139,0,0,1-.887-3.528V66.046A6.324,6.324,0,0,1-93.49,62.4a3.041,3.041,0,0,1,2.66-1.193,3.069,3.069,0,0,1,2.645,1.148,6.1,6.1,0,0,1,.872,3.549Zm-1.415-1.933a5.182,5.182,0,0,0-.5-2.619,1.737,1.737,0,0,0-1.6-.821,1.714,1.714,0,0,0-1.582.818,5.06,5.06,0,0,0-.512,2.515v2.263A5.266,5.266,0,0,0-92.4,70.63a1.734,1.734,0,0,0,1.586.86,1.71,1.71,0,0,0,1.555-.81,5.075,5.075,0,0,0,.531-2.553Zm10.205,1.934a6.471,6.471,0,0,1-.849,3.693,3.017,3.017,0,0,1-2.653,1.208,3.039,3.039,0,0,1-2.637-1.182,6.139,6.139,0,0,1-.887-3.528V66.046A6.324,6.324,0,0,1-84.7,62.4a3.041,3.041,0,0,1,2.66-1.193,3.069,3.069,0,0,1,2.645,1.148,6.1,6.1,0,0,1,.872,3.549Zm-1.414-1.934a5.182,5.182,0,0,0-.5-2.619,1.737,1.737,0,0,0-1.6-.821,1.714,1.714,0,0,0-1.582.818,5.06,5.06,0,0,0-.512,2.515v2.263a5.265,5.265,0,0,0,.522,2.664,1.734,1.734,0,0,0,1.586.86,1.71,1.71,0,0,0,1.555-.81,5.075,5.075,0,0,0,.531-2.553Zm3.4,5.94a.886.886,0,0,1,.218-.612.835.835,0,0,1,.653-.244.855.855,0,0,1,.662.244.867.867,0,0,1,.225.612.82.82,0,0,1-.225.589.871.871,0,0,1-.662.237.844.844,0,0,1-.653-.237.835.835,0,0,1-.217-.59Zm10.924-4.006a6.471,6.471,0,0,1-.849,3.693,3.017,3.017,0,0,1-2.653,1.208,3.039,3.039,0,0,1-2.637-1.182,6.139,6.139,0,0,1-.887-3.528V66.046a6.324,6.324,0,0,1,.849-3.647,3.041,3.041,0,0,1,2.66-1.193,3.069,3.069,0,0,1,2.645,1.148,6.1,6.1,0,0,1,.872,3.549Zm-1.413-1.934a5.182,5.182,0,0,0-.5-2.619,1.737,1.737,0,0,0-1.6-.821,1.714,1.714,0,0,0-1.582.818,5.06,5.06,0,0,0-.512,2.515v2.263A5.266,5.266,0,0,0-70.7,70.63a1.734,1.734,0,0,0,1.586.86,1.71,1.71,0,0,0,1.555-.81,5.075,5.075,0,0,0,.531-2.553Zm10.205,1.934a6.471,6.471,0,0,1-.849,3.693,3.017,3.017,0,0,1-2.653,1.208,3.039,3.039,0,0,1-2.637-1.181,6.139,6.139,0,0,1-.887-3.528V66.046A6.324,6.324,0,0,1-63,62.4a3.041,3.041,0,0,1,2.66-1.193,3.069,3.069,0,0,1,2.645,1.148A6.1,6.1,0,0,1-56.82,65.9Zm-1.414-1.934a5.182,5.182,0,0,0-.5-2.619,1.737,1.737,0,0,0-1.6-.821,1.714,1.714,0,0,0-1.582.818A5.06,5.06,0,0,0-62.43,65.7v2.263a5.266,5.266,0,0,0,.522,2.664,1.734,1.734,0,0,0,1.586.86,1.71,1.71,0,0,0,1.555-.81,5.075,5.075,0,0,0,.531-2.553Zm10.205,1.934a6.471,6.471,0,0,1-.849,3.693,3.017,3.017,0,0,1-2.653,1.208,3.039,3.039,0,0,1-2.637-1.182,6.139,6.139,0,0,1-.887-3.528V66.046a6.324,6.324,0,0,1,.849-3.647,3.041,3.041,0,0,1,2.66-1.193A3.069,3.069,0,0,1-48.9,62.354a6.1,6.1,0,0,1,.872,3.549Zm-1.414-1.934a5.182,5.182,0,0,0-.507-2.62,1.737,1.737,0,0,0-1.6-.821,1.714,1.714,0,0,0-1.582.818,5.06,5.06,0,0,0-.512,2.515v2.263a5.265,5.265,0,0,0,.522,2.664,1.734,1.734,0,0,0,1.586.86,1.71,1.71,0,0,0,1.555-.81,5.074,5.074,0,0,0,.531-2.553Zm3.4,5.94a.886.886,0,0,1,.218-.612.835.835,0,0,1,.653-.244.855.855,0,0,1,.662.244.867.867,0,0,1,.225.612.82.82,0,0,1-.225.589.87.87,0,0,1-.662.237.844.844,0,0,1-.653-.237.835.835,0,0,1-.218-.59Zm10.924-4.006a6.471,6.471,0,0,1-.849,3.693,3.017,3.017,0,0,1-2.653,1.208,3.039,3.039,0,0,1-2.637-1.181,6.139,6.139,0,0,1-.887-3.528V66.046a6.324,6.324,0,0,1,.849-3.647,3.041,3.041,0,0,1,2.66-1.193,3.069,3.069,0,0,1,2.645,1.148,6.1,6.1,0,0,1,.872,3.549Zm-1.414-1.934a5.182,5.182,0,0,0-.5-2.619,1.737,1.737,0,0,0-1.6-.821,1.714,1.714,0,0,0-1.582.818,5.06,5.06,0,0,0-.512,2.515v2.263a5.266,5.266,0,0,0,.522,2.664,1.734,1.734,0,0,0,1.586.86,1.71,1.71,0,0,0,1.555-.81,5.075,5.075,0,0,0,.531-2.553Zm10.205,1.934a6.471,6.471,0,0,1-.849,3.693,3.017,3.017,0,0,1-2.653,1.208,3.039,3.039,0,0,1-2.637-1.181,6.139,6.139,0,0,1-.887-3.528V66.046A6.324,6.324,0,0,1-32.5,62.4a3.041,3.041,0,0,1,2.66-1.193A3.069,3.069,0,0,1-27.2,62.354a6.1,6.1,0,0,1,.872,3.549ZM-27.74,65.81a5.182,5.182,0,0,0-.5-2.62,1.737,1.737,0,0,0-1.6-.821,1.714,1.714,0,0,0-1.582.818,5.06,5.06,0,0,0-.512,2.515v2.263a5.266,5.266,0,0,0,.522,2.664,1.734,1.734,0,0,0,1.586.86,1.71,1.71,0,0,0,1.555-.81,5.075,5.075,0,0,0,.531-2.553Zm10.205,1.934a6.471,6.471,0,0,1-.849,3.693,3.017,3.017,0,0,1-2.655,1.206,3.039,3.039,0,0,1-2.637-1.181,6.139,6.139,0,0,1-.887-3.528V66.046a6.324,6.324,0,0,1,.849-3.647,3.041,3.041,0,0,1,2.66-1.193,3.069,3.069,0,0,1,2.645,1.148,6.1,6.1,0,0,1,.872,3.549Zm-1.416-1.934a5.182,5.182,0,0,0-.5-2.619,1.737,1.737,0,0,0-1.6-.821,1.714,1.714,0,0,0-1.582.818,5.06,5.06,0,0,0-.512,2.515v2.263a5.266,5.266,0,0,0,.522,2.664,1.734,1.734,0,0,0,1.586.86,1.71,1.71,0,0,0,1.555-.81,5.075,5.075,0,0,0,.533-2.555Zm3.4,5.94a.886.886,0,0,1,.218-.612.835.835,0,0,1,.653-.244.855.855,0,0,1,.662.244.867.867,0,0,1,.225.612.82.82,0,0,1-.225.589.87.87,0,0,1-.662.237.844.844,0,0,1-.653-.237.835.835,0,0,1-.216-.59Zm10.924-4.006a6.471,6.471,0,0,1-.849,3.693,3.017,3.017,0,0,1-2.653,1.208,3.039,3.039,0,0,1-2.637-1.181,6.139,6.139,0,0,1-.887-3.528V66.046A6.324,6.324,0,0,1-10.8,62.4a3.041,3.041,0,0,1,2.66-1.193A3.069,3.069,0,0,1-5.5,62.354,6.1,6.1,0,0,1-4.627,65.9ZM-6.037,65.81a5.182,5.182,0,0,0-.5-2.619,1.737,1.737,0,0,0-1.6-.821,1.714,1.714,0,0,0-1.582.818,5.06,5.06,0,0,0-.512,2.515v2.263a5.266,5.266,0,0,0,.522,2.664,1.734,1.734,0,0,0,1.586.86,1.71,1.71,0,0,0,1.555-.81,5.075,5.075,0,0,0,.531-2.553Zm10.2,1.933a6.471,6.471,0,0,1-.849,3.693A3.017,3.017,0,0,1,.671,72.642a3.039,3.039,0,0,1-2.637-1.181,6.139,6.139,0,0,1-.887-3.528V66.046A6.324,6.324,0,0,1-2,62.4a3.041,3.041,0,0,1,2.66-1.193A3.069,3.069,0,0,1,3.3,62.354,6.1,6.1,0,0,1,4.172,65.9ZM2.759,65.81a5.182,5.182,0,0,0-.5-2.619,1.737,1.737,0,0,0-1.6-.826,1.714,1.714,0,0,0-1.582.818A5.06,5.06,0,0,0-1.443,65.7v2.263a5.266,5.266,0,0,0,.522,2.664,1.734,1.734,0,0,0,1.586.86,1.71,1.71,0,0,0,1.555-.81,5.075,5.075,0,0,0,.539-2.551ZM-111.347,96.5h-1.422V87.069l-2.851,1.044V86.829l4.052-1.522h.221Zm4.319-.741a.886.886,0,0,1,.218-.612.835.835,0,0,1,.653-.244.855.855,0,0,1,.662.244.867.867,0,0,1,.225.612.82.82,0,0,1-.225.589.871.871,0,0,1-.662.237.844.844,0,0,1-.653-.237A.835.835,0,0,1-107.028,95.754ZM-96.1,91.748a6.471,6.471,0,0,1-.849,3.693,3.017,3.017,0,0,1-2.653,1.208,3.039,3.039,0,0,1-2.637-1.181,6.139,6.139,0,0,1-.887-3.528V90.051a6.324,6.324,0,0,1,.849-3.647,3.041,3.041,0,0,1,2.66-1.193,3.069,3.069,0,0,1,2.645,1.148,6.1,6.1,0,0,1,.872,3.549Zm-1.413-1.933a5.182,5.182,0,0,0-.5-2.619,1.737,1.737,0,0,0-1.6-.821,1.714,1.714,0,0,0-1.582.818,5.06,5.06,0,0,0-.512,2.515v2.263a5.266,5.266,0,0,0,.522,2.664,1.734,1.734,0,0,0,1.586.86,1.71,1.71,0,0,0,1.555-.81,5.075,5.075,0,0,0,.531-2.553Zm10.205,1.934a6.471,6.471,0,0,1-.849,3.693,3.017,3.017,0,0,1-2.653,1.208,3.039,3.039,0,0,1-2.637-1.182,6.139,6.139,0,0,1-.887-3.528V90.051A6.324,6.324,0,0,1-93.49,86.4a3.041,3.041,0,0,1,2.66-1.193,3.069,3.069,0,0,1,2.645,1.148,6.1,6.1,0,0,1,.872,3.549Zm-1.415-1.934a5.182,5.182,0,0,0-.5-2.619,1.737,1.737,0,0,0-1.6-.821,1.714,1.714,0,0,0-1.582.818,5.06,5.06,0,0,0-.512,2.515v2.263a5.266,5.266,0,0,0,.522,2.664,1.734,1.734,0,0,0,1.586.86,1.71,1.71,0,0,0,1.555-.81,5.075,5.075,0,0,0,.531-2.553Zm10.205,1.934a6.471,6.471,0,0,1-.849,3.693,3.017,3.017,0,0,1-2.653,1.208,3.039,3.039,0,0,1-2.637-1.182,6.139,6.139,0,0,1-.887-3.528V90.051A6.324,6.324,0,0,1-84.7,86.4a3.041,3.041,0,0,1,2.66-1.193,3.069,3.069,0,0,1,2.645,1.148,6.1,6.1,0,0,1,.871,3.549Zm-1.414-1.934a5.182,5.182,0,0,0-.5-2.619,1.737,1.737,0,0,0-1.6-.821,1.714,1.714,0,0,0-1.582.818,5.06,5.06,0,0,0-.512,2.515v2.263a5.265,5.265,0,0,0,.522,2.664,1.734,1.734,0,0,0,1.586.86,1.71,1.71,0,0,0,1.555-.81,5.075,5.075,0,0,0,.531-2.553Zm3.4,5.94a.886.886,0,0,1,.218-.612.835.835,0,0,1,.653-.244.855.855,0,0,1,.662.244.867.867,0,0,1,.225.612.82.82,0,0,1-.225.589.871.871,0,0,1-.662.237.844.844,0,0,1-.653-.237.835.835,0,0,1-.217-.59Zm10.924-4.006a6.471,6.471,0,0,1-.849,3.693,3.017,3.017,0,0,1-2.653,1.208,3.039,3.039,0,0,1-2.637-1.181,6.139,6.139,0,0,1-.887-3.528V90.051a6.324,6.324,0,0,1,.849-3.647,3.041,3.041,0,0,1,2.66-1.193,3.069,3.069,0,0,1,2.645,1.148,6.1,6.1,0,0,1,.872,3.549Zm-1.413-1.934a5.182,5.182,0,0,0-.5-2.619,1.737,1.737,0,0,0-1.6-.821,1.714,1.714,0,0,0-1.582.818,5.06,5.06,0,0,0-.512,2.515v2.263a5.266,5.266,0,0,0,.522,2.664,1.734,1.734,0,0,0,1.586.86,1.71,1.71,0,0,0,1.555-.81,5.074,5.074,0,0,0,.531-2.553Zm10.205,1.934a6.471,6.471,0,0,1-.849,3.693,3.017,3.017,0,0,1-2.653,1.208,3.039,3.039,0,0,1-2.637-1.181,6.139,6.139,0,0,1-.887-3.528V90.051A6.324,6.324,0,0,1-63,86.4a3.041,3.041,0,0,1,2.66-1.193,3.069,3.069,0,0,1,2.645,1.148,6.1,6.1,0,0,1,.872,3.549Zm-1.414-1.934a5.182,5.182,0,0,0-.5-2.619,1.737,1.737,0,0,0-1.6-.821,1.714,1.714,0,0,0-1.582.818,5.06,5.06,0,0,0-.512,2.515v2.263a5.266,5.266,0,0,0,.522,2.664,1.734,1.734,0,0,0,1.586.86,1.71,1.71,0,0,0,1.555-.81,5.075,5.075,0,0,0,.531-2.553Zm10.205,1.934a6.471,6.471,0,0,1-.849,3.693,3.017,3.017,0,0,1-2.653,1.208,3.039,3.039,0,0,1-2.637-1.182,6.139,6.139,0,0,1-.887-3.528V90.051a6.324,6.324,0,0,1,.849-3.647,3.041,3.041,0,0,1,2.66-1.193A3.069,3.069,0,0,1-48.9,86.36a6.1,6.1,0,0,1,.872,3.549Zm-1.414-1.934a5.182,5.182,0,0,0-.507-2.62,1.737,1.737,0,0,0-1.6-.821,1.714,1.714,0,0,0-1.582.818,5.06,5.06,0,0,0-.512,2.515v2.263a5.265,5.265,0,0,0,.522,2.664,1.734,1.734,0,0,0,1.586.86,1.71,1.71,0,0,0,1.555-.81,5.075,5.075,0,0,0,.531-2.553Zm3.4,5.94a.886.886,0,0,1,.218-.612.835.835,0,0,1,.653-.244.855.855,0,0,1,.662.244.867.867,0,0,1,.225.612.82.82,0,0,1-.225.589.87.87,0,0,1-.662.237.844.844,0,0,1-.653-.237.835.835,0,0,1-.218-.59Zm10.924-4.006a6.471,6.471,0,0,1-.849,3.693,3.017,3.017,0,0,1-2.653,1.208,3.039,3.039,0,0,1-2.637-1.181,6.139,6.139,0,0,1-.887-3.528V90.051a6.324,6.324,0,0,1,.849-3.647,3.041,3.041,0,0,1,2.66-1.193,3.069,3.069,0,0,1,2.645,1.148,6.1,6.1,0,0,1,.872,3.549Zm-1.414-1.934a5.182,5.182,0,0,0-.5-2.619,1.737,1.737,0,0,0-1.6-.821,1.714,1.714,0,0,0-1.582.818,5.06,5.06,0,0,0-.512,2.515v2.263a5.266,5.266,0,0,0,.522,2.664,1.734,1.734,0,0,0,1.586.86,1.71,1.71,0,0,0,1.555-.81,5.075,5.075,0,0,0,.531-2.553Zm10.205,1.934a6.471,6.471,0,0,1-.849,3.693,3.017,3.017,0,0,1-2.653,1.208,3.039,3.039,0,0,1-2.637-1.181,6.139,6.139,0,0,1-.887-3.528V90.051A6.324,6.324,0,0,1-32.5,86.4a3.041,3.041,0,0,1,2.66-1.193A3.069,3.069,0,0,1-27.2,86.36a6.1,6.1,0,0,1,.872,3.549Zm-1.414-1.934a5.182,5.182,0,0,0-.5-2.62,1.737,1.737,0,0,0-1.6-.821,1.714,1.714,0,0,0-1.582.818,5.06,5.06,0,0,0-.512,2.515v2.263a5.266,5.266,0,0,0,.522,2.664,1.734,1.734,0,0,0,1.586.86,1.71,1.71,0,0,0,1.555-.81,5.075,5.075,0,0,0,.531-2.553Zm10.205,1.934a6.471,6.471,0,0,1-.849,3.693,3.017,3.017,0,0,1-2.655,1.205,3.039,3.039,0,0,1-2.637-1.181,6.139,6.139,0,0,1-.887-3.528V90.051a6.324,6.324,0,0,1,.849-3.647,3.041,3.041,0,0,1,2.66-1.193,3.069,3.069,0,0,1,2.645,1.148,6.1,6.1,0,0,1,.872,3.549Zm-1.416-1.934a5.182,5.182,0,0,0-.5-2.619,1.737,1.737,0,0,0-1.6-.821,1.714,1.714,0,0,0-1.582.818,5.06,5.06,0,0,0-.512,2.515v2.263a5.266,5.266,0,0,0,.522,2.664,1.734,1.734,0,0,0,1.586.86,1.71,1.71,0,0,0,1.555-.81,5.075,5.075,0,0,0,.533-2.555Zm3.4,5.94a.886.886,0,0,1,.218-.612.835.835,0,0,1,.653-.244.855.855,0,0,1,.662.244.867.867,0,0,1,.225.612.82.82,0,0,1-.225.589.87.87,0,0,1-.662.237.844.844,0,0,1-.653-.237.835.835,0,0,1-.216-.59ZM-4.626,91.75a6.471,6.471,0,0,1-.849,3.693A3.017,3.017,0,0,1-8.127,96.65a3.039,3.039,0,0,1-2.637-1.181,6.139,6.139,0,0,1-.887-3.528V90.051A6.324,6.324,0,0,1-10.8,86.4a3.041,3.041,0,0,1,2.66-1.193A3.069,3.069,0,0,1-5.5,86.36a6.1,6.1,0,0,1,.872,3.549Zm-1.411-1.934a5.182,5.182,0,0,0-.5-2.619,1.737,1.737,0,0,0-1.6-.821,1.714,1.714,0,0,0-1.582.818,5.06,5.06,0,0,0-.512,2.515v2.263a5.266,5.266,0,0,0,.522,2.664,1.734,1.734,0,0,0,1.586.86,1.71,1.71,0,0,0,1.555-.81,5.075,5.075,0,0,0,.531-2.553Zm10.2,1.933a6.471,6.471,0,0,1-.849,3.693A3.017,3.017,0,0,1,.671,96.648a3.039,3.039,0,0,1-2.637-1.181,6.139,6.139,0,0,1-.887-3.528V90.051A6.324,6.324,0,0,1-2,86.4a3.041,3.041,0,0,1,2.66-1.193A3.069,3.069,0,0,1,3.3,86.36a6.1,6.1,0,0,1,.872,3.549ZM2.759,89.816a5.182,5.182,0,0,0-.5-2.619,1.737,1.737,0,0,0-1.6-.826,1.714,1.714,0,0,0-1.582.818A5.06,5.06,0,0,0-1.443,89.7v2.263a5.266,5.266,0,0,0,.522,2.664,1.734,1.734,0,0,0,1.586.86,1.71,1.71,0,0,0,1.555-.81,5.075,5.075,0,0,0,.539-2.551Zm-99.088,22.462a2.584,2.584,0,0,1-.439,1.483,2.99,2.99,0,0,1-1.189,1.017,3.19,3.19,0,0,1,1.38,1.093,2.751,2.751,0,0,1,.508,1.628,2.909,2.909,0,0,1-.975,2.3,3.745,3.745,0,0,1-2.564.856,3.728,3.728,0,0,1-2.573-.86,2.922,2.922,0,0,1-.968-2.3,2.833,2.833,0,0,1,.493-1.628,3.069,3.069,0,0,1,1.364-1.1,2.922,2.922,0,0,1-1.17-1.017,2.622,2.622,0,0,1-.428-1.476,2.878,2.878,0,0,1,.9-2.233,3.384,3.384,0,0,1,2.378-.826,3.387,3.387,0,0,1,2.373.826,2.871,2.871,0,0,1,.9,2.236Zm-1.154,5.19a2.051,2.051,0,0,0-.593-1.522,2.1,2.1,0,0,0-1.548-.589,2.064,2.064,0,0,0-1.533.581,2.075,2.075,0,0,0-.577,1.529,1.976,1.976,0,0,0,.562,1.49,2.156,2.156,0,0,0,1.566.543,2.15,2.15,0,0,0,1.559-.547,1.971,1.971,0,0,0,.56-1.488Zm-2.125-7.087a1.824,1.824,0,0,0-1.35.516,1.9,1.9,0,0,0-.516,1.4,1.886,1.886,0,0,0,.508,1.372,1.8,1.8,0,0,0,1.357.522,1.8,1.8,0,0,0,1.357-.522,1.886,1.886,0,0,0,.508-1.372,1.887,1.887,0,0,0-.53-1.385,1.8,1.8,0,0,0-1.339-.538Zm12.3,5.374a6.471,6.471,0,0,1-.849,3.693,3.017,3.017,0,0,1-2.653,1.208,3.039,3.039,0,0,1-2.637-1.181,6.139,6.139,0,0,1-.887-3.528v-1.888a6.324,6.324,0,0,1,.849-3.647,3.041,3.041,0,0,1,2.66-1.193,3.069,3.069,0,0,1,2.645,1.148,6.1,6.1,0,0,1,.872,3.549Zm-1.414-1.934a5.182,5.182,0,0,0-.5-2.619,1.737,1.737,0,0,0-1.6-.821,1.714,1.714,0,0,0-1.582.818,5.06,5.06,0,0,0-.512,2.515v2.263a5.266,5.266,0,0,0,.522,2.664,1.734,1.734,0,0,0,1.586.86,1.71,1.71,0,0,0,1.555-.81,5.074,5.074,0,0,0,.531-2.553Zm10.205,1.934a6.471,6.471,0,0,1-.849,3.693,3.017,3.017,0,0,1-2.653,1.208,3.039,3.039,0,0,1-2.637-1.181,6.139,6.139,0,0,1-.887-3.528v-1.888a6.324,6.324,0,0,1,.849-3.647,3.041,3.041,0,0,1,2.66-1.193,3.069,3.069,0,0,1,2.645,1.148,6.1,6.1,0,0,1,.872,3.549Zm-1.414-1.934a5.182,5.182,0,0,0-.5-2.619,1.737,1.737,0,0,0-1.6-.821,1.714,1.714,0,0,0-1.582.818,5.06,5.06,0,0,0-.512,2.515v2.263a5.266,5.266,0,0,0,.522,2.664,1.734,1.734,0,0,0,1.586.86,1.71,1.71,0,0,0,1.555-.81,5.075,5.075,0,0,0,.531-2.553Zm3.4,5.94a.886.886,0,0,1,.218-.612.835.835,0,0,1,.653-.244.855.855,0,0,1,.662.244.867.867,0,0,1,.225.612.82.82,0,0,1-.225.589.87.87,0,0,1-.662.237.844.844,0,0,1-.653-.237.835.835,0,0,1-.222-.59Zm10.924-4.006a6.471,6.471,0,0,1-.849,3.693,3.017,3.017,0,0,1-2.653,1.208,3.039,3.039,0,0,1-2.637-1.181,6.139,6.139,0,0,1-.887-3.528v-1.888a6.324,6.324,0,0,1,.849-3.647,3.041,3.041,0,0,1,2.66-1.193,3.069,3.069,0,0,1,2.645,1.148,6.1,6.1,0,0,1,.872,3.549Zm-1.418-1.934a5.182,5.182,0,0,0-.5-2.619,1.737,1.737,0,0,0-1.6-.821,1.714,1.714,0,0,0-1.582.818,5.06,5.06,0,0,0-.512,2.515v2.263a5.266,5.266,0,0,0,.522,2.664,1.734,1.734,0,0,0,1.586.86,1.71,1.71,0,0,0,1.555-.81,5.075,5.075,0,0,0,.531-2.553Zm10.205,1.934a6.471,6.471,0,0,1-.849,3.693,3.017,3.017,0,0,1-2.653,1.208,3.039,3.039,0,0,1-2.637-1.182,6.139,6.139,0,0,1-.887-3.528v-1.888A6.324,6.324,0,0,1-63,110.411a3.041,3.041,0,0,1,2.66-1.193,3.069,3.069,0,0,1,2.645,1.148,6.1,6.1,0,0,1,.872,3.549Zm-1.414-1.934a5.182,5.182,0,0,0-.5-2.619,1.737,1.737,0,0,0-1.6-.821,1.714,1.714,0,0,0-1.582.818,5.06,5.06,0,0,0-.512,2.515v2.263a5.266,5.266,0,0,0,.522,2.664,1.734,1.734,0,0,0,1.586.86,1.71,1.71,0,0,0,1.555-.81,5.075,5.075,0,0,0,.531-2.553Zm10.205,1.934a6.471,6.471,0,0,1-.849,3.693,3.017,3.017,0,0,1-2.653,1.208,3.039,3.039,0,0,1-2.637-1.182,6.139,6.139,0,0,1-.887-3.528v-1.888a6.324,6.324,0,0,1,.849-3.647,3.041,3.041,0,0,1,2.66-1.193,3.069,3.069,0,0,1,2.645,1.148,6.1,6.1,0,0,1,.872,3.549Zm-1.414-1.934a5.182,5.182,0,0,0-.5-2.619,1.737,1.737,0,0,0-1.6-.821,1.714,1.714,0,0,0-1.582.818,5.06,5.06,0,0,0-.512,2.515v2.263a5.266,5.266,0,0,0,.522,2.664,1.734,1.734,0,0,0,1.586.86,1.71,1.71,0,0,0,1.555-.81,5.075,5.075,0,0,0,.531-2.553Zm3.4,5.94a.886.886,0,0,1,.218-.612.835.835,0,0,1,.653-.244.855.855,0,0,1,.662.244.867.867,0,0,1,.225.612.82.82,0,0,1-.225.589.87.87,0,0,1-.662.237.844.844,0,0,1-.653-.237.835.835,0,0,1-.218-.59Zm10.924-4.006a6.471,6.471,0,0,1-.849,3.693,3.017,3.017,0,0,1-2.653,1.208,3.039,3.039,0,0,1-2.637-1.181,6.139,6.139,0,0,1-.887-3.528v-1.888a6.324,6.324,0,0,1,.849-3.647,3.041,3.041,0,0,1,2.66-1.193,3.069,3.069,0,0,1,2.645,1.148,6.1,6.1,0,0,1,.872,3.549Zm-1.414-1.934a5.182,5.182,0,0,0-.5-2.619,1.737,1.737,0,0,0-1.6-.821,1.714,1.714,0,0,0-1.582.818,5.06,5.06,0,0,0-.512,2.515v2.263a5.266,5.266,0,0,0,.522,2.664,1.734,1.734,0,0,0,1.586.86,1.71,1.71,0,0,0,1.555-.81,5.075,5.075,0,0,0,.531-2.553Zm10.205,1.934a6.471,6.471,0,0,1-.849,3.693,3.017,3.017,0,0,1-2.653,1.208,3.039,3.039,0,0,1-2.637-1.181,6.139,6.139,0,0,1-.887-3.528v-1.888a6.324,6.324,0,0,1,.849-3.647,3.041,3.041,0,0,1,2.66-1.193,3.069,3.069,0,0,1,2.645,1.148,6.1,6.1,0,0,1,.872,3.549Zm-1.414-1.934a5.182,5.182,0,0,0-.5-2.619,1.737,1.737,0,0,0-1.6-.821,1.714,1.714,0,0,0-1.582.818,5.06,5.06,0,0,0-.512,2.515v2.263a5.266,5.266,0,0,0,.522,2.664,1.734,1.734,0,0,0,1.586.86,1.71,1.71,0,0,0,1.555-.81,5.075,5.075,0,0,0,.531-2.553Zm10.205,1.934a6.471,6.471,0,0,1-.849,3.693,3.017,3.017,0,0,1-2.655,1.205,3.039,3.039,0,0,1-2.637-1.181,6.139,6.139,0,0,1-.887-3.528v-1.888a6.324,6.324,0,0,1,.849-3.647,3.041,3.041,0,0,1,2.66-1.193,3.069,3.069,0,0,1,2.645,1.148,6.1,6.1,0,0,1,.872,3.549Zm-1.416-1.934a5.182,5.182,0,0,0-.5-2.619,1.737,1.737,0,0,0-1.6-.821,1.714,1.714,0,0,0-1.582.818,5.06,5.06,0,0,0-.512,2.515v2.263a5.266,5.266,0,0,0,.522,2.664,1.734,1.734,0,0,0,1.586.86,1.71,1.71,0,0,0,1.555-.81,5.075,5.075,0,0,0,.533-2.555Zm3.4,5.94a.886.886,0,0,1,.218-.612.835.835,0,0,1,.653-.244.855.855,0,0,1,.662.244.867.867,0,0,1,.225.612.82.82,0,0,1-.225.589.87.87,0,0,1-.662.237.844.844,0,0,1-.653-.237.835.835,0,0,1-.216-.59Zm10.924-4.006a6.471,6.471,0,0,1-.849,3.693,3.017,3.017,0,0,1-2.653,1.208,3.039,3.039,0,0,1-2.637-1.181,6.139,6.139,0,0,1-.887-3.528v-1.888a6.324,6.324,0,0,1,.849-3.647,3.041,3.041,0,0,1,2.66-1.193A3.069,3.069,0,0,1-5.5,110.366a6.1,6.1,0,0,1,.872,3.549Zm-1.414-1.934a5.182,5.182,0,0,0-.5-2.619,1.737,1.737,0,0,0-1.6-.821,1.714,1.714,0,0,0-1.582.818,5.06,5.06,0,0,0-.512,2.515v2.263a5.266,5.266,0,0,0,.522,2.664,1.734,1.734,0,0,0,1.586.86,1.71,1.71,0,0,0,1.555-.81,5.075,5.075,0,0,0,.531-2.553Zm10.205,1.934a6.471,6.471,0,0,1-.849,3.693,3.017,3.017,0,0,1-2.646,1.205,3.039,3.039,0,0,1-2.637-1.181,6.139,6.139,0,0,1-.887-3.528v-1.888A6.324,6.324,0,0,1-2,110.409a3.041,3.041,0,0,1,2.66-1.193A3.069,3.069,0,0,1,3.3,110.364a6.1,6.1,0,0,1,.872,3.549Zm-1.407-1.934a5.182,5.182,0,0,0-.5-2.619,1.737,1.737,0,0,0-1.6-.821,1.714,1.714,0,0,0-1.582.818,5.06,5.06,0,0,0-.512,2.515v2.263a5.266,5.266,0,0,0,.522,2.664,1.734,1.734,0,0,0,1.586.86,1.71,1.71,0,0,0,1.555-.81,5.075,5.075,0,0,0,.531-2.553ZM-97.528,133.37v1.2h-.26a3.724,3.724,0,0,0-2.63.979,4.07,4.07,0,0,0-1.131,2.668,3.018,3.018,0,0,1,2.4-1.009,2.886,2.886,0,0,1,2.32,1.024,3.952,3.952,0,0,1,.867,2.645,3.939,3.939,0,0,1-.939,2.752,3.224,3.224,0,0,1-2.511,1.032A3.177,3.177,0,0,1-102,143.434a4.863,4.863,0,0,1-.994-3.161v-.543a7.327,7.327,0,0,1,1.311-4.7,4.815,4.815,0,0,1,3.9-1.663Zm-1.858,5.01a2.257,2.257,0,0,0-1.338.435,2.27,2.27,0,0,0-.849,1.093v.522a3.653,3.653,0,0,0,.619,2.217,1.856,1.856,0,0,0,1.544.841,1.8,1.8,0,0,0,1.5-.7,2.922,2.922,0,0,0,.547-1.842,2.923,2.923,0,0,0-.554-1.854,1.774,1.774,0,0,0-1.476-.706Zm12.078,1.376a6.471,6.471,0,0,1-.849,3.693,3.017,3.017,0,0,1-2.653,1.208,3.039,3.039,0,0,1-2.637-1.181,6.139,6.139,0,0,1-.887-3.528v-1.888a6.324,6.324,0,0,1,.849-3.647,3.041,3.041,0,0,1,2.66-1.193,3.069,3.069,0,0,1,2.645,1.148,6.1,6.1,0,0,1,.872,3.549Zm-1.414-1.934a5.182,5.182,0,0,0-.5-2.619,1.737,1.737,0,0,0-1.6-.821,1.714,1.714,0,0,0-1.582.818,5.06,5.06,0,0,0-.512,2.515v2.263a5.266,5.266,0,0,0,.522,2.664,1.734,1.734,0,0,0,1.586.86,1.71,1.71,0,0,0,1.555-.81,5.075,5.075,0,0,0,.531-2.553Zm10.205,1.934a6.471,6.471,0,0,1-.849,3.693,3.017,3.017,0,0,1-2.653,1.208,3.039,3.039,0,0,1-2.637-1.182,6.139,6.139,0,0,1-.887-3.528v-1.888a6.324,6.324,0,0,1,.849-3.647,3.041,3.041,0,0,1,2.66-1.193,3.069,3.069,0,0,1,2.645,1.148,6.1,6.1,0,0,1,.872,3.549Zm-1.414-1.934a5.182,5.182,0,0,0-.5-2.619,1.737,1.737,0,0,0-1.6-.821,1.714,1.714,0,0,0-1.582.818,5.06,5.06,0,0,0-.512,2.515v2.263a5.265,5.265,0,0,0,.522,2.664,1.734,1.734,0,0,0,1.586.86,1.71,1.71,0,0,0,1.555-.81,5.075,5.075,0,0,0,.531-2.553Zm3.4,5.94a.886.886,0,0,1,.218-.612.835.835,0,0,1,.653-.244.855.855,0,0,1,.662.244.867.867,0,0,1,.225.612.82.82,0,0,1-.225.589.871.871,0,0,1-.662.237.844.844,0,0,1-.653-.237.835.835,0,0,1-.222-.584Zm10.924-4.006a6.471,6.471,0,0,1-.849,3.693,3.017,3.017,0,0,1-2.653,1.208,3.039,3.039,0,0,1-2.637-1.181,6.139,6.139,0,0,1-.887-3.528v-1.888a6.324,6.324,0,0,1,.849-3.647,3.041,3.041,0,0,1,2.66-1.193,3.069,3.069,0,0,1,2.645,1.148,6.1,6.1,0,0,1,.872,3.549Zm-1.418-1.929a5.182,5.182,0,0,0-.5-2.619,1.737,1.737,0,0,0-1.6-.821,1.714,1.714,0,0,0-1.582.818,5.06,5.06,0,0,0-.512,2.515v2.263a5.266,5.266,0,0,0,.522,2.664,1.734,1.734,0,0,0,1.586.86,1.71,1.71,0,0,0,1.555-.81,5.075,5.075,0,0,0,.531-2.553Zm10.205,1.934a6.471,6.471,0,0,1-.849,3.693,3.017,3.017,0,0,1-2.653,1.208,3.039,3.039,0,0,1-2.637-1.181,6.139,6.139,0,0,1-.887-3.528v-1.888A6.324,6.324,0,0,1-63,134.417a3.041,3.041,0,0,1,2.66-1.193,3.069,3.069,0,0,1,2.645,1.148,6.1,6.1,0,0,1,.872,3.549Zm-1.414-1.934a5.182,5.182,0,0,0-.5-2.619,1.737,1.737,0,0,0-1.6-.821,1.714,1.714,0,0,0-1.582.818,5.06,5.06,0,0,0-.512,2.515v2.263a5.266,5.266,0,0,0,.522,2.664,1.734,1.734,0,0,0,1.586.86,1.71,1.71,0,0,0,1.555-.81,5.075,5.075,0,0,0,.531-2.553Zm10.205,1.934a6.471,6.471,0,0,1-.849,3.693,3.017,3.017,0,0,1-2.653,1.208,3.039,3.039,0,0,1-2.637-1.181,6.139,6.139,0,0,1-.887-3.528v-1.888a6.324,6.324,0,0,1,.849-3.647,3.041,3.041,0,0,1,2.66-1.193,3.069,3.069,0,0,1,2.645,1.148,6.1,6.1,0,0,1,.872,3.549Zm-1.414-1.934a5.182,5.182,0,0,0-.5-2.619,1.737,1.737,0,0,0-1.6-.821,1.714,1.714,0,0,0-1.582.818,5.06,5.06,0,0,0-.512,2.515v2.263a5.266,5.266,0,0,0,.522,2.664,1.734,1.734,0,0,0,1.586.86,1.71,1.71,0,0,0,1.555-.81,5.075,5.075,0,0,0,.531-2.553Zm3.4,5.94a.886.886,0,0,1,.218-.612.835.835,0,0,1,.653-.244.855.855,0,0,1,.662.244.867.867,0,0,1,.225.612.82.82,0,0,1-.225.589.87.87,0,0,1-.662.237.844.844,0,0,1-.653-.237.835.835,0,0,1-.218-.59Zm10.924-4.006a6.471,6.471,0,0,1-.849,3.693,3.017,3.017,0,0,1-2.653,1.208,3.039,3.039,0,0,1-2.637-1.181,6.139,6.139,0,0,1-.887-3.528v-1.888a6.324,6.324,0,0,1,.849-3.647,3.041,3.041,0,0,1,2.66-1.193,3.069,3.069,0,0,1,2.645,1.148,6.1,6.1,0,0,1,.872,3.549Zm-1.414-1.934a5.182,5.182,0,0,0-.5-2.619,1.737,1.737,0,0,0-1.6-.821,1.714,1.714,0,0,0-1.582.818,5.06,5.06,0,0,0-.512,2.515v2.263a5.266,5.266,0,0,0,.522,2.664,1.734,1.734,0,0,0,1.586.86,1.71,1.71,0,0,0,1.555-.81,5.075,5.075,0,0,0,.531-2.553Zm10.205,1.934a6.471,6.471,0,0,1-.849,3.693,3.017,3.017,0,0,1-2.653,1.208,3.039,3.039,0,0,1-2.637-1.181,6.139,6.139,0,0,1-.887-3.528v-1.888a6.324,6.324,0,0,1,.849-3.647,3.041,3.041,0,0,1,2.66-1.193,3.069,3.069,0,0,1,2.645,1.148,6.1,6.1,0,0,1,.872,3.549Zm-1.414-1.934a5.182,5.182,0,0,0-.5-2.619,1.737,1.737,0,0,0-1.6-.821,1.714,1.714,0,0,0-1.582.818,5.06,5.06,0,0,0-.512,2.515v2.263a5.266,5.266,0,0,0,.522,2.664,1.734,1.734,0,0,0,1.586.86,1.71,1.71,0,0,0,1.555-.81,5.075,5.075,0,0,0,.531-2.553Zm10.205,1.934a6.471,6.471,0,0,1-.849,3.693,3.017,3.017,0,0,1-2.655,1.206,3.039,3.039,0,0,1-2.637-1.182,6.139,6.139,0,0,1-.887-3.528v-1.888a6.324,6.324,0,0,1,.849-3.647,3.041,3.041,0,0,1,2.66-1.193,3.069,3.069,0,0,1,2.645,1.148,6.1,6.1,0,0,1,.872,3.549Zm-1.416-1.934a5.182,5.182,0,0,0-.5-2.619,1.737,1.737,0,0,0-1.6-.821,1.714,1.714,0,0,0-1.582.818,5.06,5.06,0,0,0-.512,2.515v2.263a5.266,5.266,0,0,0,.522,2.664,1.734,1.734,0,0,0,1.586.86,1.71,1.71,0,0,0,1.555-.81,5.075,5.075,0,0,0,.533-2.555Zm3.4,5.94a.886.886,0,0,1,.218-.612.835.835,0,0,1,.653-.244.855.855,0,0,1,.662.244.867.867,0,0,1,.225.612.82.82,0,0,1-.225.589.87.87,0,0,1-.662.237.844.844,0,0,1-.653-.237.835.835,0,0,1-.216-.59Zm10.924-4.006a6.471,6.471,0,0,1-.849,3.693,3.017,3.017,0,0,1-2.653,1.208,3.039,3.039,0,0,1-2.637-1.181,6.139,6.139,0,0,1-.887-3.528v-1.888a6.324,6.324,0,0,1,.849-3.647,3.041,3.041,0,0,1,2.66-1.193A3.069,3.069,0,0,1-5.5,134.372a6.1,6.1,0,0,1,.872,3.549Zm-1.414-1.934a5.182,5.182,0,0,0-.5-2.619,1.737,1.737,0,0,0-1.6-.821,1.714,1.714,0,0,0-1.582.818,5.06,5.06,0,0,0-.512,2.515v2.263a5.266,5.266,0,0,0,.522,2.664,1.734,1.734,0,0,0,1.586.86,1.71,1.71,0,0,0,1.555-.81,5.075,5.075,0,0,0,.531-2.553Zm10.205,1.934a6.471,6.471,0,0,1-.849,3.693,3.017,3.017,0,0,1-2.646,1.206,3.039,3.039,0,0,1-2.637-1.182,6.139,6.139,0,0,1-.887-3.528v-1.888A6.324,6.324,0,0,1-2,134.415a3.041,3.041,0,0,1,2.66-1.193A3.069,3.069,0,0,1,3.3,134.37a6.1,6.1,0,0,1,.872,3.549Zm-1.407-1.934a5.182,5.182,0,0,0-.5-2.619,1.737,1.737,0,0,0-1.6-.821,1.714,1.714,0,0,0-1.582.818,5.06,5.06,0,0,0-.512,2.515v2.263a5.266,5.266,0,0,0,.522,2.664,1.734,1.734,0,0,0,1.586.86,1.71,1.71,0,0,0,1.555-.81,5.075,5.075,0,0,0,.531-2.553Zm-99.867,26.949h1.544v1.154h-1.544v2.582h-1.426v-2.584H-103.6v-.835l4.984-7.713h1.506Zm-4.885,0h3.463v-5.458l-.168.306Zm14.685-1.009a6.471,6.471,0,0,1-.849,3.693,3.017,3.017,0,0,1-2.653,1.208,3.039,3.039,0,0,1-2.637-1.181,6.14,6.14,0,0,1-.887-3.528v-1.888a6.324,6.324,0,0,1,.849-3.647,3.041,3.041,0,0,1,2.66-1.193,3.068,3.068,0,0,1,2.645,1.148,6.1,6.1,0,0,1,.872,3.549Zm-1.414-1.934a5.182,5.182,0,0,0-.5-2.619,1.737,1.737,0,0,0-1.6-.821,1.714,1.714,0,0,0-1.582.818,5.06,5.06,0,0,0-.512,2.515v2.263a5.266,5.266,0,0,0,.522,2.664,1.734,1.734,0,0,0,1.586.86,1.71,1.71,0,0,0,1.555-.81,5.075,5.075,0,0,0,.531-2.553Zm10.205,1.934a6.471,6.471,0,0,1-.849,3.693,3.017,3.017,0,0,1-2.653,1.208,3.039,3.039,0,0,1-2.637-1.181,6.139,6.139,0,0,1-.887-3.528v-1.888a6.324,6.324,0,0,1,.849-3.647,3.041,3.041,0,0,1,2.66-1.193,3.069,3.069,0,0,1,2.645,1.148,6.1,6.1,0,0,1,.872,3.549Zm-1.414-1.934a5.182,5.182,0,0,0-.5-2.619,1.737,1.737,0,0,0-1.6-.821,1.714,1.714,0,0,0-1.582.818,5.06,5.06,0,0,0-.512,2.515v2.263a5.265,5.265,0,0,0,.522,2.664,1.734,1.734,0,0,0,1.586.86,1.71,1.71,0,0,0,1.555-.81,5.075,5.075,0,0,0,.531-2.553Zm3.4,5.94a.886.886,0,0,1,.218-.612.835.835,0,0,1,.653-.244.855.855,0,0,1,.662.244.867.867,0,0,1,.225.612.82.82,0,0,1-.225.589.87.87,0,0,1-.662.237.844.844,0,0,1-.653-.237.835.835,0,0,1-.222-.59Zm10.924-4.006a6.471,6.471,0,0,1-.849,3.693,3.017,3.017,0,0,1-2.653,1.208,3.039,3.039,0,0,1-2.637-1.181,6.139,6.139,0,0,1-.887-3.528v-1.888a6.324,6.324,0,0,1,.849-3.647,3.041,3.041,0,0,1,2.66-1.193,3.069,3.069,0,0,1,2.645,1.148,6.1,6.1,0,0,1,.872,3.549Zm-1.418-1.934a5.182,5.182,0,0,0-.5-2.619,1.737,1.737,0,0,0-1.6-.821,1.714,1.714,0,0,0-1.582.818,5.06,5.06,0,0,0-.512,2.515v2.263a5.266,5.266,0,0,0,.522,2.664,1.734,1.734,0,0,0,1.586.86,1.71,1.71,0,0,0,1.555-.81,5.075,5.075,0,0,0,.531-2.553Zm10.205,1.934a6.471,6.471,0,0,1-.849,3.693,3.017,3.017,0,0,1-2.653,1.208,3.039,3.039,0,0,1-2.637-1.181,6.139,6.139,0,0,1-.887-3.528v-1.888A6.324,6.324,0,0,1-63,158.422a3.041,3.041,0,0,1,2.66-1.193,3.069,3.069,0,0,1,2.645,1.148,6.1,6.1,0,0,1,.871,3.549Zm-1.414-1.934a5.182,5.182,0,0,0-.5-2.619,1.737,1.737,0,0,0-1.6-.821,1.714,1.714,0,0,0-1.582.818,5.06,5.06,0,0,0-.512,2.515v2.263a5.265,5.265,0,0,0,.522,2.664,1.734,1.734,0,0,0,1.586.86,1.71,1.71,0,0,0,1.555-.81,5.075,5.075,0,0,0,.531-2.553Zm10.205,1.934a6.471,6.471,0,0,1-.849,3.693,3.017,3.017,0,0,1-2.653,1.208,3.039,3.039,0,0,1-2.637-1.181,6.139,6.139,0,0,1-.887-3.528v-1.888a6.324,6.324,0,0,1,.849-3.647,3.041,3.041,0,0,1,2.66-1.193,3.069,3.069,0,0,1,2.645,1.148,6.1,6.1,0,0,1,.872,3.549Zm-1.414-1.934a5.182,5.182,0,0,0-.5-2.619,1.737,1.737,0,0,0-1.6-.821,1.714,1.714,0,0,0-1.582.818,5.06,5.06,0,0,0-.512,2.515v2.263a5.266,5.266,0,0,0,.522,2.664,1.734,1.734,0,0,0,1.586.86,1.71,1.71,0,0,0,1.555-.81,5.075,5.075,0,0,0,.531-2.553Zm3.4,5.94a.886.886,0,0,1,.218-.612.835.835,0,0,1,.653-.244.855.855,0,0,1,.662.244.867.867,0,0,1,.225.612.82.82,0,0,1-.225.589.87.87,0,0,1-.662.237.844.844,0,0,1-.653-.237.835.835,0,0,1-.218-.59Zm10.924-4.006a6.471,6.471,0,0,1-.849,3.693,3.017,3.017,0,0,1-2.653,1.208,3.039,3.039,0,0,1-2.637-1.181,6.139,6.139,0,0,1-.887-3.528v-1.888a6.324,6.324,0,0,1,.849-3.647,3.041,3.041,0,0,1,2.66-1.193,3.069,3.069,0,0,1,2.645,1.148,6.1,6.1,0,0,1,.872,3.549Zm-1.414-1.934a5.182,5.182,0,0,0-.5-2.619,1.737,1.737,0,0,0-1.6-.821,1.714,1.714,0,0,0-1.582.818,5.06,5.06,0,0,0-.512,2.515v2.263a5.265,5.265,0,0,0,.522,2.664,1.734,1.734,0,0,0,1.586.86,1.71,1.71,0,0,0,1.555-.81,5.075,5.075,0,0,0,.531-2.553Zm10.205,1.934a6.471,6.471,0,0,1-.849,3.693,3.017,3.017,0,0,1-2.653,1.208,3.039,3.039,0,0,1-2.637-1.181,6.139,6.139,0,0,1-.887-3.528v-1.888a6.324,6.324,0,0,1,.849-3.647,3.041,3.041,0,0,1,2.66-1.193,3.069,3.069,0,0,1,2.645,1.148,6.1,6.1,0,0,1,.872,3.549Zm-1.414-1.934a5.182,5.182,0,0,0-.5-2.619,1.737,1.737,0,0,0-1.6-.821,1.714,1.714,0,0,0-1.582.818,5.06,5.06,0,0,0-.512,2.515v2.263a5.266,5.266,0,0,0,.522,2.664,1.734,1.734,0,0,0,1.586.86,1.71,1.71,0,0,0,1.555-.81,5.075,5.075,0,0,0,.531-2.553Zm10.205,1.934a6.471,6.471,0,0,1-.849,3.693,3.017,3.017,0,0,1-2.655,1.206,3.039,3.039,0,0,1-2.637-1.182,6.139,6.139,0,0,1-.887-3.528v-1.888a6.324,6.324,0,0,1,.849-3.647,3.041,3.041,0,0,1,2.66-1.193,3.069,3.069,0,0,1,2.645,1.148,6.1,6.1,0,0,1,.872,3.549Zm-1.416-1.934a5.182,5.182,0,0,0-.5-2.619,1.737,1.737,0,0,0-1.6-.821,1.714,1.714,0,0,0-1.582.818,5.06,5.06,0,0,0-.512,2.515v2.263a5.266,5.266,0,0,0,.522,2.664,1.734,1.734,0,0,0,1.586.86,1.71,1.71,0,0,0,1.555-.81,5.075,5.075,0,0,0,.533-2.555Zm3.4,5.94a.886.886,0,0,1,.218-.612.835.835,0,0,1,.653-.244.855.855,0,0,1,.662.244.867.867,0,0,1,.225.612.82.82,0,0,1-.225.589.87.87,0,0,1-.662.237.844.844,0,0,1-.653-.237.835.835,0,0,1-.216-.59Zm10.924-4.006a6.471,6.471,0,0,1-.849,3.693,3.017,3.017,0,0,1-2.653,1.208,3.039,3.039,0,0,1-2.637-1.181,6.139,6.139,0,0,1-.887-3.528v-1.888a6.324,6.324,0,0,1,.849-3.647,3.041,3.041,0,0,1,2.66-1.193A3.069,3.069,0,0,1-5.5,158.377a6.1,6.1,0,0,1,.872,3.549Zm-1.414-1.934a5.182,5.182,0,0,0-.5-2.619,1.737,1.737,0,0,0-1.6-.821,1.714,1.714,0,0,0-1.582.818,5.06,5.06,0,0,0-.512,2.515v2.263a5.266,5.266,0,0,0,.522,2.664,1.734,1.734,0,0,0,1.586.86,1.71,1.71,0,0,0,1.555-.81,5.075,5.075,0,0,0,.531-2.553Zm10.205,1.934a6.471,6.471,0,0,1-.849,3.693,3.017,3.017,0,0,1-2.646,1.205,3.039,3.039,0,0,1-2.637-1.181,6.139,6.139,0,0,1-.887-3.528v-1.888A6.324,6.324,0,0,1-2,158.42a3.041,3.041,0,0,1,2.66-1.193A3.069,3.069,0,0,1,3.3,158.375a6.1,6.1,0,0,1,.872,3.549Zm-1.407-1.934a5.182,5.182,0,0,0-.5-2.619,1.737,1.737,0,0,0-1.6-.821,1.714,1.714,0,0,0-1.582.818,5.06,5.06,0,0,0-.512,2.515v2.263a5.266,5.266,0,0,0,.522,2.664,1.734,1.734,0,0,0,1.586.86,1.71,1.71,0,0,0,1.555-.81,5.075,5.075,0,0,0,.531-2.553ZM-95.79,192.518h-7.292V191.5l3.852-4.279a9.153,9.153,0,0,0,1.181-1.578,2.634,2.634,0,0,0,.325-1.252,2,2,0,0,0-.527-1.43,1.844,1.844,0,0,0-1.407-.558,2.185,2.185,0,0,0-1.64.6,2.3,2.3,0,0,0-.584,1.67H-103.3a3.283,3.283,0,0,1,.989-2.484,3.67,3.67,0,0,1,2.649-.948,3.527,3.527,0,0,1,2.454.814,2.777,2.777,0,0,1,.9,2.167q0,1.644-2.095,3.914l-2.981,3.236h5.588Zm8.478-4.747a6.471,6.471,0,0,1-.849,3.693,3.017,3.017,0,0,1-2.653,1.208,3.039,3.039,0,0,1-2.637-1.182,6.139,6.139,0,0,1-.887-3.528v-1.888a6.324,6.324,0,0,1,.849-3.647,3.041,3.041,0,0,1,2.66-1.193,3.069,3.069,0,0,1,2.645,1.148,6.1,6.1,0,0,1,.872,3.549Zm-1.414-1.934a5.182,5.182,0,0,0-.5-2.619,1.737,1.737,0,0,0-1.6-.821,1.714,1.714,0,0,0-1.582.818,5.06,5.06,0,0,0-.512,2.515v2.263a5.265,5.265,0,0,0,.522,2.664,1.734,1.734,0,0,0,1.586.86,1.71,1.71,0,0,0,1.555-.81,5.075,5.075,0,0,0,.531-2.553Zm10.205,1.934a6.471,6.471,0,0,1-.849,3.693,3.017,3.017,0,0,1-2.653,1.208,3.039,3.039,0,0,1-2.637-1.182,6.139,6.139,0,0,1-.887-3.528v-1.888a6.324,6.324,0,0,1,.849-3.647,3.041,3.041,0,0,1,2.66-1.193,3.069,3.069,0,0,1,2.645,1.148,6.1,6.1,0,0,1,.872,3.549Zm-1.414-1.934a5.182,5.182,0,0,0-.5-2.619,1.737,1.737,0,0,0-1.6-.821,1.714,1.714,0,0,0-1.582.818,5.06,5.06,0,0,0-.512,2.515v2.263a5.266,5.266,0,0,0,.522,2.664,1.734,1.734,0,0,0,1.586.86,1.71,1.71,0,0,0,1.555-.81,5.075,5.075,0,0,0,.531-2.553Zm3.4,5.94a.886.886,0,0,1,.218-.612.835.835,0,0,1,.653-.244.855.855,0,0,1,.662.244.867.867,0,0,1,.225.612.82.82,0,0,1-.225.589.87.87,0,0,1-.662.237.844.844,0,0,1-.653-.237A.835.835,0,0,1-76.534,191.777Zm10.924-4.006a6.471,6.471,0,0,1-.849,3.693,3.017,3.017,0,0,1-2.653,1.208,3.039,3.039,0,0,1-2.637-1.182,6.139,6.139,0,0,1-.887-3.528v-1.888a6.324,6.324,0,0,1,.849-3.647,3.041,3.041,0,0,1,2.66-1.193,3.069,3.069,0,0,1,2.645,1.148,6.1,6.1,0,0,1,.872,3.549Zm-1.414-1.933a5.182,5.182,0,0,0-.5-2.619,1.737,1.737,0,0,0-1.6-.821,1.714,1.714,0,0,0-1.582.818,5.06,5.06,0,0,0-.512,2.515v2.263a5.266,5.266,0,0,0,.522,2.664,1.734,1.734,0,0,0,1.586.86,1.71,1.71,0,0,0,1.555-.81,5.075,5.075,0,0,0,.531-2.553Zm10.205,1.934a6.471,6.471,0,0,1-.849,3.693,3.017,3.017,0,0,1-2.653,1.208,3.039,3.039,0,0,1-2.637-1.182,6.139,6.139,0,0,1-.887-3.528v-1.888A6.324,6.324,0,0,1-63,182.428a3.041,3.041,0,0,1,2.66-1.193,3.069,3.069,0,0,1,2.645,1.148,6.1,6.1,0,0,1,.872,3.549Zm-1.414-1.934a5.182,5.182,0,0,0-.5-2.619,1.737,1.737,0,0,0-1.6-.821,1.714,1.714,0,0,0-1.582.818,5.06,5.06,0,0,0-.512,2.515v2.263a5.266,5.266,0,0,0,.522,2.664,1.734,1.734,0,0,0,1.586.86,1.71,1.71,0,0,0,1.555-.81,5.075,5.075,0,0,0,.531-2.553Zm10.205,1.934a6.471,6.471,0,0,1-.849,3.693,3.017,3.017,0,0,1-2.653,1.208,3.039,3.039,0,0,1-2.637-1.182,6.139,6.139,0,0,1-.887-3.528v-1.888a6.324,6.324,0,0,1,.849-3.647,3.041,3.041,0,0,1,2.66-1.193,3.069,3.069,0,0,1,2.645,1.148,6.1,6.1,0,0,1,.872,3.549Zm-1.414-1.934a5.182,5.182,0,0,0-.5-2.619,1.737,1.737,0,0,0-1.6-.821,1.714,1.714,0,0,0-1.582.818,5.06,5.06,0,0,0-.512,2.515v2.263a5.266,5.266,0,0,0,.522,2.664,1.734,1.734,0,0,0,1.586.86,1.71,1.71,0,0,0,1.555-.81,5.075,5.075,0,0,0,.531-2.553Zm3.4,5.94a.886.886,0,0,1,.218-.612.835.835,0,0,1,.653-.244.855.855,0,0,1,.662.244.867.867,0,0,1,.225.612.82.82,0,0,1-.225.589.87.87,0,0,1-.662.237.844.844,0,0,1-.653-.237.835.835,0,0,1-.218-.59Zm10.924-4.006a6.471,6.471,0,0,1-.849,3.693,3.017,3.017,0,0,1-2.653,1.208,3.039,3.039,0,0,1-2.637-1.182,6.139,6.139,0,0,1-.887-3.528v-1.888a6.324,6.324,0,0,1,.849-3.647,3.041,3.041,0,0,1,2.66-1.193,3.069,3.069,0,0,1,2.645,1.148,6.1,6.1,0,0,1,.872,3.549Zm-1.414-1.934a5.182,5.182,0,0,0-.5-2.619,1.737,1.737,0,0,0-1.6-.821,1.714,1.714,0,0,0-1.582.818,5.06,5.06,0,0,0-.512,2.515v2.263a5.266,5.266,0,0,0,.522,2.664,1.734,1.734,0,0,0,1.586.86,1.71,1.71,0,0,0,1.555-.81,5.075,5.075,0,0,0,.531-2.553Zm10.205,1.934a6.471,6.471,0,0,1-.849,3.693,3.017,3.017,0,0,1-2.653,1.208,3.039,3.039,0,0,1-2.637-1.182,6.139,6.139,0,0,1-.887-3.528v-1.888a6.324,6.324,0,0,1,.849-3.647,3.041,3.041,0,0,1,2.66-1.193,3.069,3.069,0,0,1,2.645,1.148,6.1,6.1,0,0,1,.872,3.549Zm-1.414-1.934a5.182,5.182,0,0,0-.5-2.619,1.737,1.737,0,0,0-1.6-.821,1.714,1.714,0,0,0-1.582.818,5.06,5.06,0,0,0-.512,2.515v2.263a5.266,5.266,0,0,0,.522,2.664,1.734,1.734,0,0,0,1.586.86,1.71,1.71,0,0,0,1.555-.81,5.075,5.075,0,0,0,.531-2.553Zm10.205,1.934a6.471,6.471,0,0,1-.849,3.693,3.017,3.017,0,0,1-2.655,1.205,3.039,3.039,0,0,1-2.637-1.182,6.139,6.139,0,0,1-.887-3.528v-1.888a6.324,6.324,0,0,1,.849-3.647,3.041,3.041,0,0,1,2.66-1.193,3.069,3.069,0,0,1,2.645,1.148,6.1,6.1,0,0,1,.872,3.549Zm-1.416-1.934a5.182,5.182,0,0,0-.5-2.619,1.737,1.737,0,0,0-1.6-.821,1.714,1.714,0,0,0-1.582.818,5.06,5.06,0,0,0-.512,2.515v2.263a5.266,5.266,0,0,0,.522,2.664,1.734,1.734,0,0,0,1.586.86,1.71,1.71,0,0,0,1.555-.81,5.075,5.075,0,0,0,.533-2.555Zm3.4,5.94a.886.886,0,0,1,.218-.612.835.835,0,0,1,.653-.244.855.855,0,0,1,.662.244.867.867,0,0,1,.225.612.82.82,0,0,1-.225.589.87.87,0,0,1-.662.237.844.844,0,0,1-.653-.237.835.835,0,0,1-.216-.59Zm10.924-4.006a6.471,6.471,0,0,1-.849,3.693,3.017,3.017,0,0,1-2.653,1.208,3.039,3.039,0,0,1-2.637-1.182,6.139,6.139,0,0,1-.887-3.528v-1.888a6.324,6.324,0,0,1,.849-3.647,3.041,3.041,0,0,1,2.66-1.193A3.069,3.069,0,0,1-5.5,182.383a6.1,6.1,0,0,1,.872,3.549Zm-1.414-1.934a5.182,5.182,0,0,0-.5-2.619,1.737,1.737,0,0,0-1.6-.821,1.714,1.714,0,0,0-1.582.818,5.06,5.06,0,0,0-.512,2.515v2.263a5.266,5.266,0,0,0,.522,2.664,1.734,1.734,0,0,0,1.586.86,1.71,1.71,0,0,0,1.555-.81,5.075,5.075,0,0,0,.531-2.553Zm10.205,1.934a6.471,6.471,0,0,1-.849,3.693A3.017,3.017,0,0,1,.671,192.67a3.039,3.039,0,0,1-2.637-1.182,6.139,6.139,0,0,1-.887-3.528v-1.888A6.324,6.324,0,0,1-2,182.426a3.041,3.041,0,0,1,2.66-1.193A3.069,3.069,0,0,1,3.3,182.381a6.1,6.1,0,0,1,.872,3.549Zm-1.407-1.934a5.182,5.182,0,0,0-.5-2.619,1.737,1.737,0,0,0-1.6-.821,1.714,1.714,0,0,0-1.582.818,5.06,5.06,0,0,0-.512,2.515v2.263a5.266,5.266,0,0,0,.522,2.664,1.734,1.734,0,0,0,1.586.86,1.71,1.71,0,0,0,1.555-.81,5.075,5.075,0,0,0,.531-2.553Zm-20.288,25.94a6.471,6.471,0,0,1-.849,3.693,3.017,3.017,0,0,1-2.66,1.206,3.039,3.039,0,0,1-2.637-1.182,6.139,6.139,0,0,1-.887-3.528v-1.888a6.324,6.324,0,0,1,.849-3.647,3.041,3.041,0,0,1,2.66-1.193,3.069,3.069,0,0,1,2.645,1.148,6.1,6.1,0,0,1,.872,3.549Zm-1.422-1.934a5.182,5.182,0,0,0-.5-2.619,1.737,1.737,0,0,0-1.6-.821,1.714,1.714,0,0,0-1.582.818,5.06,5.06,0,0,0-.512,2.515V212a5.266,5.266,0,0,0,.522,2.664,1.734,1.734,0,0,0,1.586.86,1.709,1.709,0,0,0,1.555-.81,5.075,5.075,0,0,0,.533-2.555Zm3.4,5.94a.886.886,0,0,1,.218-.612.835.835,0,0,1,.653-.244.855.855,0,0,1,.662.244.867.867,0,0,1,.225.612.82.82,0,0,1-.225.589.87.87,0,0,1-.662.237.844.844,0,0,1-.653-.237.835.835,0,0,1-.216-.59Zm10.924-4.006a6.471,6.471,0,0,1-.849,3.693,3.017,3.017,0,0,1-2.653,1.208,3.039,3.039,0,0,1-2.637-1.181,6.139,6.139,0,0,1-.887-3.528V210.08a6.324,6.324,0,0,1,.849-3.647,3.041,3.041,0,0,1,2.66-1.193A3.068,3.068,0,0,1-5.5,206.389a6.1,6.1,0,0,1,.871,3.549Zm-1.414-1.934a5.182,5.182,0,0,0-.5-2.619,1.737,1.737,0,0,0-1.6-.821,1.714,1.714,0,0,0-1.582.818,5.06,5.06,0,0,0-.512,2.515V212a5.266,5.266,0,0,0,.522,2.664,1.734,1.734,0,0,0,1.586.86,1.709,1.709,0,0,0,1.555-.81,5.075,5.075,0,0,0,.531-2.553Zm10.205,1.934a6.471,6.471,0,0,1-.849,3.693,3.017,3.017,0,0,1-2.646,1.206,3.039,3.039,0,0,1-2.637-1.182,6.139,6.139,0,0,1-.887-3.528v-1.888A6.324,6.324,0,0,1-2,206.431a3.041,3.041,0,0,1,2.66-1.193A3.069,3.069,0,0,1,3.3,206.387a6.1,6.1,0,0,1,.872,3.549Zm-1.407-1.934a5.182,5.182,0,0,0-.5-2.619,1.737,1.737,0,0,0-1.6-.821,1.714,1.714,0,0,0-1.582.818,5.06,5.06,0,0,0-.512,2.515V212a5.266,5.266,0,0,0,.522,2.664,1.734,1.734,0,0,0,1.586.86,1.709,1.709,0,0,0,1.555-.81,5.075,5.075,0,0,0,.531-2.553Z" transform="translate(416.534 733.53)" fill="#12263f"/>
    <path id="Trazado_903348" data-name="Trazado 903348" d="M523.739,745.021H198.694V524.141h1v219.88H523.739Z" transform="translate(247.61 205.078)" fill="#12263f"/>
    <path id="Trazado_903349" data-name="Trazado 903349" d="M324.545.5H0v-1H324.545Z" transform="translate(446.804 730.463)" fill="#12263f"/>
    <path id="Trazado_903350" data-name="Trazado 903350" d="M324.545.5H0v-1H324.545Z" transform="translate(446.804 754.185)" fill="#12263f"/>
    <path id="Trazado_903351" data-name="Trazado 903351" d="M324.545.5H0v-1H324.545Z" transform="translate(446.804 777.905)" fill="#12263f"/>
    <path id="Trazado_903352" data-name="Trazado 903352" d="M324.545.5H0v-1H324.545Z" transform="translate(446.804 802.989)" fill="#12263f"/>
    <path id="Trazado_903353" data-name="Trazado 903353" d="M324.545.5H0v-1H324.545Z" transform="translate(446.804 826.711)" fill="#12263f"/>
    <path id="Trazado_903354" data-name="Trazado 903354" d="M324.545.5H0v-1H324.545Z" transform="translate(446.804 850.432)" fill="#12263f"/>
    <path id="Trazado_903355" data-name="Trazado 903355" d="M324.545.5H0v-1H324.545Z" transform="translate(446.804 874.153)" fill="#12263f"/>
    <path id="Trazado_903356" data-name="Trazado 903356" d="M324.545.5H0v-1H324.545Z" transform="translate(446.804 899.237)" fill="#12263f"/>
    <path id="Trazado_903357" data-name="Trazado 903357" d="M324.545.5H0v-1H324.545Z" transform="translate(446.804 922.958)" fill="#12263f"/>
    <path id="Trazado_903358" data-name="Trazado 903358" d="M0,0H27.83V202.482H0Z" transform="translate(473.491 747.123)" fill="#6595bf"/>
    <path id="Trazado_903359" data-name="Trazado 903359" d="M0,0H27.83V110.19H0Z" transform="translate(554.269 839.41)" fill="#6595bf"/>
    <path id="Trazado_903360" data-name="Trazado 903360" d="M0,0H27.83V92.542H0Z" transform="translate(634.184 857.059)" fill="#6595bf"/>
    <path id="Trazado_903361" data-name="Trazado 903361" d="M0,0H27.83V6.2H0Z" transform="translate(709.079 943.4)" fill="#6595bf"/>
    <path id="Trazado_903362" data-name="Trazado 903362" d="M2.809.466H1.34v-11.13H2.809Zm3.8-8.271.046,1.044a3.014,3.014,0,0,1,2.473-1.2q2.622,0,2.645,2.958V.466h-1.41V-5.007a1.9,1.9,0,0,0-.409-1.322A1.639,1.639,0,0,0,8.7-6.757a2.042,2.042,0,0,0-1.208.367,2.491,2.491,0,0,0-.81.963V.466H5.264V-7.805Zm6.964,4.071a4.862,4.862,0,0,1,.894-3.077,2.861,2.861,0,0,1,2.37-1.143A2.845,2.845,0,0,1,19.2-6.888l.069-.917h1.292V.268a3.365,3.365,0,0,1-.952,2.53,3.512,3.512,0,0,1-2.557.925,4.254,4.254,0,0,1-1.75-.382A3.013,3.013,0,0,1,13.993,2.3l.731-.849a2.766,2.766,0,0,0,2.23,1.12,2.167,2.167,0,0,0,1.609-.581A2.221,2.221,0,0,0,19.136.351V-.359A2.907,2.907,0,0,1,16.82.62,2.825,2.825,0,0,1,14.47-.55a5.114,5.114,0,0,1-.9-3.188Zm1.422.161a3.708,3.708,0,0,0,.573,2.2,1.863,1.863,0,0,0,1.606.8,2.072,2.072,0,0,0,1.964-1.216V-5.573a2.1,2.1,0,0,0-1.95-1.185,1.879,1.879,0,0,0-1.613.8,4.039,4.039,0,0,0-.581,2.377Zm11.7-2.962a4.238,4.238,0,0,0-.7-.053A1.864,1.864,0,0,0,24.1-5.4V.466h-1.41V-7.805H24.07l.023.956a2.2,2.2,0,0,1,1.973-1.108,1.444,1.444,0,0,1,.626.1ZM31.421.619a3.614,3.614,0,0,1-2.737-1.1A4.1,4.1,0,0,1,27.629-3.44V-3.7a4.964,4.964,0,0,1,.47-2.2,3.668,3.668,0,0,1,1.315-1.513,3.305,3.305,0,0,1,1.831-.547A3.1,3.1,0,0,1,33.75-6.9a4.6,4.6,0,0,1,.894,3.042v.589h-5.6a2.94,2.94,0,0,0,.715,1.976A2.247,2.247,0,0,0,31.5-.537a2.463,2.463,0,0,0,1.269-.306,3.189,3.189,0,0,0,.91-.81l.864.673a3.474,3.474,0,0,1-3.12,1.6Zm-.175-7.41a1.886,1.886,0,0,0-1.437.626,3.027,3.027,0,0,0-.718,1.747h4.146v-.1a2.694,2.694,0,0,0-.581-1.67,1.774,1.774,0,0,0-1.409-.6ZM41.1-1.726a1.044,1.044,0,0,0-.432-.89,4.157,4.157,0,0,0-1.506-.547,7.12,7.12,0,0,1-1.7-.55,2.426,2.426,0,0,1-.933-.764,1.829,1.829,0,0,1-.3-1.055,2.146,2.146,0,0,1,.86-1.725,3.359,3.359,0,0,1,2.2-.7,3.456,3.456,0,0,1,2.282.731,2.307,2.307,0,0,1,.876,1.858H41.015a1.276,1.276,0,0,0-.493-1,1.847,1.847,0,0,0-1.242-.417,1.933,1.933,0,0,0-1.208.336,1.058,1.058,0,0,0-.435.879.858.858,0,0,0,.4.772,4.985,4.985,0,0,0,1.461.5,7.627,7.627,0,0,1,1.716.566,2.5,2.5,0,0,1,.975.791,1.945,1.945,0,0,1,.313,1.127A2.117,2.117,0,0,1,41.62-.048a3.72,3.72,0,0,1-2.3.669A4.165,4.165,0,0,1,37.568.268a2.86,2.86,0,0,1-1.2-.983,2.367,2.367,0,0,1-.432-1.364h1.414a1.461,1.461,0,0,0,.57,1.127,2.21,2.21,0,0,0,1.4.417A2.281,2.281,0,0,0,40.61-.859,1,1,0,0,0,41.1-1.726Zm2.882-2.019a4.886,4.886,0,0,1,.478-2.187,3.564,3.564,0,0,1,1.33-1.5,3.621,3.621,0,0,1,1.945-.527,3.488,3.488,0,0,1,2.732,1.17,4.5,4.5,0,0,1,1.044,3.111v.1a4.928,4.928,0,0,1-.462,2.158,3.512,3.512,0,0,1-1.321,1.5A3.662,3.662,0,0,1,47.751.62,3.48,3.48,0,0,1,45.025-.55a4.478,4.478,0,0,1-1.044-3.1Zm1.422.168a3.538,3.538,0,0,0,.639,2.21,2.043,2.043,0,0,0,1.709.835,2.03,2.03,0,0,0,1.713-.844A3.869,3.869,0,0,0,50.1-3.742a3.532,3.532,0,0,0-.646-2.205,2.054,2.054,0,0,0-1.716-.844,2.031,2.031,0,0,0-1.69.835A3.841,3.841,0,0,0,45.4-3.578ZM58.1-1.726a1.044,1.044,0,0,0-.432-.89,4.157,4.157,0,0,0-1.506-.547,7.12,7.12,0,0,1-1.7-.55,2.426,2.426,0,0,1-.933-.764,1.829,1.829,0,0,1-.3-1.058,2.146,2.146,0,0,1,.86-1.722,3.359,3.359,0,0,1,2.2-.7,3.456,3.456,0,0,1,2.282.731,2.307,2.307,0,0,1,.87,1.852H58.016a1.276,1.276,0,0,0-.493-1A1.847,1.847,0,0,0,56.281-6.8a1.933,1.933,0,0,0-1.208.336,1.058,1.058,0,0,0-.435.879.858.858,0,0,0,.4.772,4.985,4.985,0,0,0,1.461.5,7.628,7.628,0,0,1,1.716.566,2.5,2.5,0,0,1,.975.791,1.945,1.945,0,0,1,.313,1.127,2.117,2.117,0,0,1-.887,1.774,3.72,3.72,0,0,1-2.3.669A4.165,4.165,0,0,1,54.569.268a2.86,2.86,0,0,1-1.2-.982,2.367,2.367,0,0,1-.432-1.364h1.414a1.461,1.461,0,0,0,.57,1.127,2.21,2.21,0,0,0,1.4.417,2.281,2.281,0,0,0,1.288-.325,1,1,0,0,0,.485-.867Z" transform="translate(455.036 972.658)" fill="#12263f"/>
    <path id="Trazado_903363" data-name="Trazado 903363" d="M9.471-.988A3.39,3.39,0,0,1,7.894.225a6.376,6.376,0,0,1-2.359.4A4.574,4.574,0,0,1,3.119-.012,4.252,4.252,0,0,1,1.486-1.823,6.271,6.271,0,0,1,.894-4.557v-.971a5.853,5.853,0,0,1,1.173-3.9,4.088,4.088,0,0,1,3.3-1.384,4.223,4.223,0,0,1,2.806.89,3.88,3.88,0,0,1,1.3,2.527H8a2.425,2.425,0,0,0-.856-1.651A2.425,2.425,0,0,0,5.373-9.6,2.6,2.6,0,0,0,3.137-8.568a5.054,5.054,0,0,0-.768,3v.91a4.737,4.737,0,0,0,.856,2.978A2.776,2.776,0,0,0,5.542-.571,5.1,5.1,0,0,0,6.987-.754a2.234,2.234,0,0,0,1.024-.619v-2.5H5.435V-5.069H9.471ZM16.8.473A2.971,2.971,0,0,1,16.6-.4,3.155,3.155,0,0,1,14.249.625a2.922,2.922,0,0,1-2.007-.692,2.239,2.239,0,0,1-.783-1.757,2.338,2.338,0,0,1,.982-2.007A4.631,4.631,0,0,1,15.2-4.537h1.376v-.65a1.589,1.589,0,0,0-.436-1.186,1.782,1.782,0,0,0-1.307-.439,2.062,2.062,0,0,0-1.269.382,1.126,1.126,0,0,0-.512.925H11.627a1.952,1.952,0,0,1,.441-1.2,3,3,0,0,1,1.193-.913,4.012,4.012,0,0,1,1.655-.336,3.27,3.27,0,0,1,2.24.715,2.578,2.578,0,0,1,.838,1.968v3.806a4.654,4.654,0,0,0,.29,1.812V.473ZM14.456-.605A2.485,2.485,0,0,0,15.716-.95a2.081,2.081,0,0,0,.864-.894v-1.7H15.472q-2.6,0-2.6,1.522a1.288,1.288,0,0,0,.444,1.044,1.7,1.7,0,0,0,1.139.369ZM25.027-1.719a1.044,1.044,0,0,0-.432-.89,4.157,4.157,0,0,0-1.506-.547,7.12,7.12,0,0,1-1.7-.55,2.426,2.426,0,0,1-.933-.764,1.829,1.829,0,0,1-.3-1.055,2.146,2.146,0,0,1,.86-1.725,3.359,3.359,0,0,1,2.2-.7,3.456,3.456,0,0,1,2.282.731,2.307,2.307,0,0,1,.878,1.852H24.944a1.276,1.276,0,0,0-.493-1,1.847,1.847,0,0,0-1.242-.417A1.933,1.933,0,0,0,22-6.454a1.058,1.058,0,0,0-.435.879.858.858,0,0,0,.4.772,4.985,4.985,0,0,0,1.461.5,7.627,7.627,0,0,1,1.716.566,2.5,2.5,0,0,1,.975.791,1.945,1.945,0,0,1,.313,1.127,2.117,2.117,0,0,1-.887,1.774,3.72,3.72,0,0,1-2.3.669A4.165,4.165,0,0,1,21.5.275a2.86,2.86,0,0,1-1.2-.982,2.367,2.367,0,0,1-.432-1.364h1.414a1.461,1.461,0,0,0,.57,1.127,2.21,2.21,0,0,0,1.4.417,2.281,2.281,0,0,0,1.288-.325,1,1,0,0,0,.485-.867ZM30.2-9.8v2h1.544V-6.7H30.2v5.13a1.148,1.148,0,0,0,.209.745.869.869,0,0,0,.7.248,3.424,3.424,0,0,0,.673-.092V.473A4.1,4.1,0,0,1,30.7.625,1.761,1.761,0,0,1,29.27.055a2.463,2.463,0,0,1-.481-1.628V-6.7H27.283V-7.8h1.506v-2ZM32.87-3.737a4.886,4.886,0,0,1,.478-2.187,3.564,3.564,0,0,1,1.33-1.5,3.621,3.621,0,0,1,1.945-.527,3.488,3.488,0,0,1,2.732,1.17A4.5,4.5,0,0,1,40.4-3.669v.1a4.928,4.928,0,0,1-.463,2.158,3.512,3.512,0,0,1-1.32,1.5A3.662,3.662,0,0,1,36.64.626a3.48,3.48,0,0,1-2.725-1.17,4.478,4.478,0,0,1-1.044-3.1Zm1.422.168a3.538,3.538,0,0,0,.635,2.207,2.043,2.043,0,0,0,1.709.835,2.03,2.03,0,0,0,1.713-.844,3.869,3.869,0,0,0,.635-2.366,3.532,3.532,0,0,0-.646-2.205,2.054,2.054,0,0,0-1.716-.844,2.031,2.031,0,0,0-1.69.835,3.841,3.841,0,0,0-.638,2.381Zm12.7,1.851a1.044,1.044,0,0,0-.432-.89,4.157,4.157,0,0,0-1.508-.549,7.12,7.12,0,0,1-1.7-.55,2.426,2.426,0,0,1-.933-.764,1.829,1.829,0,0,1-.3-1.055,2.146,2.146,0,0,1,.862-1.723,3.359,3.359,0,0,1,2.2-.7,3.456,3.456,0,0,1,2.282.731,2.307,2.307,0,0,1,.875,1.852H46.906a1.276,1.276,0,0,0-.493-1,1.847,1.847,0,0,0-1.242-.417,1.933,1.933,0,0,0-1.208.336,1.058,1.058,0,0,0-.435.879.858.858,0,0,0,.4.772,4.985,4.985,0,0,0,1.461.5,7.627,7.627,0,0,1,1.716.566,2.5,2.5,0,0,1,.975.791A1.945,1.945,0,0,1,48.4-1.822a2.117,2.117,0,0,1-.887,1.774,3.72,3.72,0,0,1-2.3.669A4.166,4.166,0,0,1,43.458.275a2.86,2.86,0,0,1-1.2-.982,2.367,2.367,0,0,1-.432-1.364h1.414a1.461,1.461,0,0,0,.57,1.127,2.21,2.21,0,0,0,1.4.417,2.281,2.281,0,0,0,1.288-.325A1,1,0,0,0,46.99-1.719Z" transform="translate(543.799 972.651)" fill="#12263f"/>
    <path id="Trazado_903364" data-name="Trazado 903364" d="M9.441-3.059a4.1,4.1,0,0,1-1.3,2.725A4.272,4.272,0,0,1,5.222.625,3.922,3.922,0,0,1,2.06-.788,5.689,5.689,0,0,1,.872-4.573v-1.07a6.342,6.342,0,0,1,.551-2.729A4.139,4.139,0,0,1,2.994-10.18a4.374,4.374,0,0,1,2.355-.626,4.021,4.021,0,0,1,2.844.989A4.145,4.145,0,0,1,9.441-7.08H7.965a3.183,3.183,0,0,0-.83-1.927,2.514,2.514,0,0,0-1.785-.6A2.627,2.627,0,0,0,3.146-8.559a4.77,4.77,0,0,0-.8,2.958v1.074A4.905,4.905,0,0,0,3.1-1.645,2.446,2.446,0,0,0,5.222-.571,2.824,2.824,0,0,0,7.1-1.125a3.076,3.076,0,0,0,.867-1.93Zm1.407-.681a4.886,4.886,0,0,1,.478-2.187,3.564,3.564,0,0,1,1.33-1.5A3.621,3.621,0,0,1,14.6-7.952a3.488,3.488,0,0,1,2.732,1.17,4.5,4.5,0,0,1,1.044,3.111v.1a4.928,4.928,0,0,1-.463,2.161,3.512,3.512,0,0,1-1.321,1.5,3.662,3.662,0,0,1-1.976.535,3.48,3.48,0,0,1-2.726-1.17,4.478,4.478,0,0,1-1.044-3.1Zm1.422.168a3.538,3.538,0,0,0,.635,2.21,2.043,2.043,0,0,0,1.709.835,2.03,2.03,0,0,0,1.713-.844,3.869,3.869,0,0,0,.635-2.366,3.532,3.532,0,0,0-.646-2.205A2.054,2.054,0,0,0,14.6-6.787a2.031,2.031,0,0,0-1.69.835,3.841,3.841,0,0,0-.639,2.381Zm12.7,1.853a1.044,1.044,0,0,0-.432-.89,4.157,4.157,0,0,0-1.507-.549,7.12,7.12,0,0,1-1.7-.55,2.426,2.426,0,0,1-.933-.764,1.829,1.829,0,0,1-.3-1.055,2.146,2.146,0,0,1,.861-1.723,3.359,3.359,0,0,1,2.2-.7,3.456,3.456,0,0,1,2.282.731,2.307,2.307,0,0,1,.876,1.858H24.883a1.276,1.276,0,0,0-.493-1,1.847,1.847,0,0,0-1.242-.417,1.933,1.933,0,0,0-1.208.336,1.058,1.058,0,0,0-.435.879.858.858,0,0,0,.4.772,4.985,4.985,0,0,0,1.461.5,7.627,7.627,0,0,1,1.716.566,2.5,2.5,0,0,1,.975.791,1.945,1.945,0,0,1,.313,1.127,2.117,2.117,0,0,1-.887,1.774,3.72,3.72,0,0,1-2.3.669A4.165,4.165,0,0,1,21.436.274a2.86,2.86,0,0,1-1.2-.982,2.367,2.367,0,0,1-.432-1.364h1.414a1.461,1.461,0,0,0,.57,1.127,2.21,2.21,0,0,0,1.4.417,2.281,2.281,0,0,0,1.288-.325,1,1,0,0,0,.485-.867ZM30.142-9.8v2h1.549V-6.7H30.142v5.13a1.148,1.148,0,0,0,.209.745.869.869,0,0,0,.7.248,3.424,3.424,0,0,0,.673-.092V.473a4.1,4.1,0,0,1-1.085.152,1.761,1.761,0,0,1-1.433-.57,2.463,2.463,0,0,1-.481-1.628V-6.705H27.222V-7.8h1.506v-2ZM32.81-3.738a4.886,4.886,0,0,1,.478-2.188,3.564,3.564,0,0,1,1.326-1.5,3.621,3.621,0,0,1,1.945-.527,3.488,3.488,0,0,1,2.732,1.17A4.5,4.5,0,0,1,40.335-3.67v.1a4.929,4.929,0,0,1-.458,2.159,3.512,3.512,0,0,1-1.322,1.5,3.662,3.662,0,0,1-1.976.535,3.48,3.48,0,0,1-2.725-1.17,4.478,4.478,0,0,1-1.044-3.1Zm1.422.168a3.538,3.538,0,0,0,.639,2.21,2.043,2.043,0,0,0,1.709.835,2.03,2.03,0,0,0,1.713-.844,3.869,3.869,0,0,0,.635-2.366,3.532,3.532,0,0,0-.646-2.205,2.054,2.054,0,0,0-1.716-.844,2.031,2.031,0,0,0-1.69.835,3.841,3.841,0,0,0-.643,2.379Zm12.7,1.851a1.044,1.044,0,0,0-.432-.89,4.157,4.157,0,0,0-1.506-.547,7.12,7.12,0,0,1-1.7-.55,2.426,2.426,0,0,1-.933-.764,1.829,1.829,0,0,1-.3-1.055,2.146,2.146,0,0,1,.86-1.725,3.359,3.359,0,0,1,2.2-.7,3.456,3.456,0,0,1,2.282.731,2.307,2.307,0,0,1,.876,1.858H46.845a1.276,1.276,0,0,0-.493-1,1.847,1.847,0,0,0-1.242-.417,1.933,1.933,0,0,0-1.208.336,1.058,1.058,0,0,0-.435.879.858.858,0,0,0,.4.772,4.985,4.985,0,0,0,1.461.5,7.628,7.628,0,0,1,1.716.566,2.5,2.5,0,0,1,.975.791,1.946,1.946,0,0,1,.313,1.127A2.117,2.117,0,0,1,47.45-.042a3.72,3.72,0,0,1-2.3.669A4.165,4.165,0,0,1,43.4.274a2.86,2.86,0,0,1-1.2-.982,2.367,2.367,0,0,1-.432-1.364h1.414a1.461,1.461,0,0,0,.57,1.127,2.21,2.21,0,0,0,1.4.417,2.281,2.281,0,0,0,1.288-.325A1,1,0,0,0,46.93-1.719Z" transform="translate(622.152 972.651)" fill="#12263f"/>
    <path id="Trazado_903365" data-name="Trazado 903365" d="M9.083-10.638V-3.07A3.549,3.549,0,0,1,8.1-.494,3.989,3.989,0,0,1,5.429.63L5.039.644A4.167,4.167,0,0,1,2.126-.343a3.527,3.527,0,0,1-1.1-2.714V-10.64H2.478V-3.1a2.546,2.546,0,0,0,.665,1.879,2.556,2.556,0,0,0,1.9.672,2.573,2.573,0,0,0,1.909-.669A2.541,2.541,0,0,0,7.61-3.093v-7.545Zm4.013.856v2H14.64v1.093H13.1v5.13a1.148,1.148,0,0,0,.209.745.869.869,0,0,0,.7.248,3.424,3.424,0,0,0,.673-.092V.492A4.1,4.1,0,0,1,13.6.644a1.761,1.761,0,0,1-1.429-.57,2.463,2.463,0,0,1-.481-1.628V-6.686h-1.51V-7.78h1.506v-2ZM17.828.492H16.414V-7.78h1.414ZM16.3-9.974a.844.844,0,0,1,.209-.581.789.789,0,0,1,.626-.237.8.8,0,0,1,.626.237.835.835,0,0,1,.214.581.808.808,0,0,1-.214.573.816.816,0,0,1-.626.23.8.8,0,0,1-.626-.23A.816.816,0,0,1,16.3-9.974ZM21.627.492H20.213V-11.25h1.414Zm3.795,0h-1.41V-7.78h1.41ZM23.9-9.974a.844.844,0,0,1,.209-.581.789.789,0,0,1,.626-.237.8.8,0,0,1,.626.237.835.835,0,0,1,.214.581.808.808,0,0,1-.214.573.816.816,0,0,1-.626.23.8.8,0,0,1-.626-.23.816.816,0,0,1-.209-.573Zm3.444,6.262a4.845,4.845,0,0,1,.9-3.061,2.852,2.852,0,0,1,2.362-1.159,2.868,2.868,0,0,1,2.3.994V-11.25h1.424V.492h-1.3L32.957-.4A2.88,2.88,0,0,1,30.595.648a2.825,2.825,0,0,1-2.343-1.18A4.905,4.905,0,0,1,27.346-3.6Zm1.414.161a3.669,3.669,0,0,0,.581,2.2,1.879,1.879,0,0,0,1.608.8A2.063,2.063,0,0,0,32.91-1.759v-3.8a2.079,2.079,0,0,0-1.95-1.17,1.887,1.887,0,0,0-1.621.8,4.039,4.039,0,0,0-.577,2.377ZM41.625.492a2.97,2.97,0,0,1-.2-.872A3.155,3.155,0,0,1,39.072.644a2.922,2.922,0,0,1-2.007-.692A2.239,2.239,0,0,1,36.277-1.8a2.338,2.338,0,0,1,.982-2.007,4.631,4.631,0,0,1,2.769-.707H41.4v-.65A1.589,1.589,0,0,0,40.96-6.35a1.782,1.782,0,0,0-1.307-.439,2.062,2.062,0,0,0-1.269.382,1.126,1.126,0,0,0-.512.925H36.45a1.952,1.952,0,0,1,.439-1.2,3,3,0,0,1,1.193-.913,4.012,4.012,0,0,1,1.655-.336,3.27,3.27,0,0,1,2.24.715,2.578,2.578,0,0,1,.84,1.964v3.806A4.654,4.654,0,0,0,43.108.37V.492ZM39.279-.586a2.485,2.485,0,0,0,1.261-.344,2.081,2.081,0,0,0,.864-.894v-1.7H40.3q-2.6,0-2.6,1.522A1.288,1.288,0,0,0,38.14-.956a1.7,1.7,0,0,0,1.139.369Zm5.413-3.131a4.845,4.845,0,0,1,.9-3.061,2.852,2.852,0,0,1,2.362-1.159,2.868,2.868,0,0,1,2.3.994V-11.25h1.414V.492h-1.3L50.3-.4A2.88,2.88,0,0,1,47.936.648,2.825,2.825,0,0,1,45.6-.532,4.905,4.905,0,0,1,44.69-3.6Zm1.414.161a3.669,3.669,0,0,0,.581,2.2,1.879,1.879,0,0,0,1.6.8,2.063,2.063,0,0,0,1.964-1.208v-3.8a2.079,2.079,0,0,0-1.95-1.17,1.887,1.887,0,0,0-1.621.8,4.039,4.039,0,0,0-.58,2.377Z" transform="translate(694.726 972.632)" fill="#12263f"/>
    <path id="Trazado_903368" data-name="Trazado 903368" d="M-.5-.5h506V311.519H-.5Zm505,1H.5V310.519h504Z" transform="translate(285 687.578)" fill="#12263f"/>
  </g>
</svg>
