<svg xmlns="http://www.w3.org/2000/svg" xmlns:xlink="http://www.w3.org/1999/xlink" width="113" height="113" viewBox="0 0 113 113">
  <defs>
    <filter id="Trazado_896985" x="0" y="0" width="113" height="113" filterUnits="userSpaceOnUse">
      <feOffset dy="3" input="SourceAlpha"/>
      <feGaussianBlur stdDeviation="3" result="blur"/>
      <feFlood flood-opacity="0.161"/>
      <feComposite operator="in" in2="blur"/>
      <feComposite in="SourceGraphic"/>
    </filter>
  </defs>
  <g id="Grupo_1117973" data-name="Grupo 1117973" transform="translate(-1011.051 -5525)">
    <g id="Grupo_1117971" data-name="Grupo 1117971" transform="translate(515 3362)">
      <g id="Grupo_1113419" data-name="Grupo 1113419" transform="translate(170.16 -1683)">
        <g id="Grupo_1111318" data-name="Grupo 1111318" transform="translate(-5.891)">
          <g id="Grupo_1109826" data-name="Grupo 1109826" transform="translate(340.781 3852)">
            <g id="Grupo_1098742" data-name="Grupo 1098742">
              <g transform="matrix(1, 0, 0, 1, -9, -6)" filter="url(#Trazado_896985)">
                <g id="Trazado_896985-2" data-name="Trazado 896985" transform="translate(9 6)" fill="#e2dacc" opacity="0.859">
                  <path d="M 47.49993515014648 93.5 C 41.28932189941406 93.5 35.26528167724609 92.28397369384766 29.59514808654785 89.88571929931641 C 24.1176815032959 87.56894683837891 19.1981086730957 84.25197601318359 14.97306823730469 80.02693176269531 C 10.74802875518799 75.80189514160156 7.431055068969727 70.88231658935547 5.11428165435791 65.40485382080078 C 2.716028451919556 59.73471832275391 1.500001788139343 53.71067810058594 1.500001788139343 47.50006484985352 C 1.500001788139343 41.28932189941406 2.716028451919556 35.26528167724609 5.11428165435791 29.59514617919922 C 7.431055068969727 24.11767959594727 10.74802875518799 19.19810676574707 14.97306823730469 14.97306632995605 C 19.1981086730957 10.74802684783936 24.1176815032959 7.431053161621094 29.59514808654785 5.114280223846436 C 35.26528167724609 2.716026782989502 41.28932189941406 1.5 47.49993515014648 1.5 C 53.71054840087891 1.5 59.73458862304688 2.716026782989502 65.40472412109375 5.114280223846436 C 70.88218688964844 7.431053161621094 75.80176544189453 10.74802684783936 80.02680206298828 14.97306632995605 C 84.25183868408203 19.19810676574707 87.56881713867188 24.11767959594727 89.88558959960938 29.59514617919922 C 92.28384399414062 35.26528167724609 93.49987030029297 41.28932189941406 93.49987030029297 47.49993515014648 C 93.49987030029297 53.71067810058594 92.28384399414062 59.73471832275391 89.88558959960938 65.40485382080078 C 87.56881713867188 70.88231658935547 84.25183868408203 75.80189514160156 80.02680206298828 80.02693176269531 C 75.80176544189453 84.25197601318359 70.88218688964844 87.56894683837891 65.40472412109375 89.88571929931641 C 59.73458862304688 92.28397369384766 53.71054840087891 93.5 47.49993515014648 93.5 Z" stroke="none"/>
                  <path d="M 47.49993515014648 3 C 41.49116516113281 3 35.66371917724609 4.176155090332031 30.17947387695312 6.495796203613281 C 24.88081359863281 8.7369384765625 20.12149047851562 11.94596862792969 16.03372192382812 16.03372192382812 C 11.94596862792969 20.12149047851562 8.7369384765625 24.88081359863281 6.495796203613281 30.17947387695312 C 4.1761474609375 35.66372299194336 3 41.49116897583008 3 47.50006103515625 C 3 53.50883102416992 4.1761474609375 59.33627700805664 6.495796203613281 64.82052612304688 C 8.7369384765625 70.11918640136719 11.94596862792969 74.87850952148438 16.03372192382812 78.96627807617188 C 20.12149047851562 83.05403137207031 24.88081359863281 86.2630615234375 30.17947387695312 88.50419616699219 C 35.66371917724609 90.82384490966797 41.49116516113281 92 47.49993515014648 92 C 53.50870513916016 92 59.33615112304688 90.82384490966797 64.82039642333984 88.50419616699219 C 70.11905670166016 86.2630615234375 74.87837982177734 83.05403137207031 78.96614837646484 78.96627807617188 C 83.05390167236328 74.87850952148438 86.26293182373047 70.11918640136719 88.50407409667969 64.82052612304688 C 90.82372283935547 59.33627700805664 91.99987030029297 53.50883102416992 91.99987030029297 47.49993896484375 C 91.99987030029297 41.49116897583008 90.82372283935547 35.66372299194336 88.50407409667969 30.17947387695312 C 86.26293182373047 24.88081359863281 83.05390167236328 20.12149047851562 78.96614837646484 16.03372192382812 C 74.87837982177734 11.94596862792969 70.11905670166016 8.7369384765625 64.82039642333984 6.495796203613281 C 59.33615112304688 4.176155090332031 53.50870513916016 3 47.49993515014648 3 M 47.49993515014648 0 C 73.73342895507812 0 94.99987030029297 21.26644897460938 94.99987030029297 47.49993896484375 L 94.99987030029297 47.50006103515625 C 94.99987030029297 73.73355102539062 73.73342895507812 95 47.49993515014648 95 C 21.26644134521484 95 0 73.73355102539062 0 47.50006103515625 L 0 47.49993896484375 C 0 21.26644897460938 21.26644134521484 0 47.49993515014648 0 Z" stroke="none" fill="#fff"/>
                </g>
              </g>
              <g id="Rectángulo_400907" data-name="Rectángulo 400907" transform="translate(0 0)" fill="none" stroke="#fff" stroke-width="3">
                <rect width="95" height="95" rx="47.5" stroke="none"/>
                <rect x="1.5" y="1.5" width="92" height="92" rx="46" fill="none"/>
              </g>
            </g>
          </g>
        </g>
      </g>
    </g>
    <g id="ina1" transform="translate(1039.051 5550)">
      <path id="Trazado_910452" data-name="Trazado 910452" d="M94.6,40H64V91.635h42.073V51.474H94.6Zm0,0" transform="translate(-56.35 -35.219)" fill="#dcf4ca"/>
      <path id="Trazado_910453" data-name="Trazado 910453" d="M136,274.774h33.467V248C169.467,261.742,152.384,274.774,136,274.774Zm0,0" transform="translate(-119.745 -218.358)" fill="#c9eeae"/>
      <path id="Trazado_910454" data-name="Trazado 910454" d="M9.912,8H30.949a1.913,1.913,0,0,1,1.912,1.912V36.686A1.913,1.913,0,0,1,30.949,38.6H9.912A1.913,1.913,0,0,1,8,36.686V9.912A1.913,1.913,0,0,1,9.912,8Zm0,0" transform="translate(-7.044 -7.044)" fill="#d1e7f8"/>
      <path id="Trazado_910455" data-name="Trazado 910455" d="M320,51.474h11.474L320,40Zm0,0" transform="translate(-281.752 -35.219)" fill="#006df0"/>
      <path id="Trazado_910456" data-name="Trazado 910456" d="M32,32H51.124v4.781H32Zm0,0" transform="translate(-28.175 -28.175)" fill="#88f236"/>
      <g id="Grupo_1117972" data-name="Grupo 1117972" transform="translate(4.781 11.474)">
        <path id="Trazado_910457" data-name="Trazado 910457" d="M40.956,96h1.912a.956.956,0,0,1,.956.956v1.912a.956.956,0,0,1-.956.956H40.956A.956.956,0,0,1,40,98.869V96.956A.956.956,0,0,1,40.956,96Zm0,0" transform="translate(-40 -96)" fill="#006df0"/>
        <path id="Trazado_910458" data-name="Trazado 910458" d="M96.956,96h1.912a.956.956,0,0,1,.956.956v1.912a.956.956,0,0,1-.956.956H96.956A.956.956,0,0,1,96,98.869V96.956A.956.956,0,0,1,96.956,96Zm0,0" transform="translate(-89.307 -96)" fill="#006df0"/>
        <path id="Trazado_910459" data-name="Trazado 910459" d="M152.956,96h1.912a.956.956,0,0,1,.956.956v1.912a.956.956,0,0,1-.956.956h-1.912a.956.956,0,0,1-.956-.956V96.956A.956.956,0,0,1,152.956,96Zm0,0" transform="translate(-138.613 -96)" fill="#006df0"/>
        <path id="Trazado_910460" data-name="Trazado 910460" d="M40.956,152h1.912a.956.956,0,0,1,.956.956v1.912a.956.956,0,0,1-.956.956H40.956a.956.956,0,0,1-.956-.956v-1.912A.956.956,0,0,1,40.956,152Zm0,0" transform="translate(-40 -145.307)" fill="#006df0"/>
        <path id="Trazado_910461" data-name="Trazado 910461" d="M96.956,152h1.912a.956.956,0,0,1,.956.956v1.912a.956.956,0,0,1-.956.956H96.956a.956.956,0,0,1-.956-.956v-1.912A.956.956,0,0,1,96.956,152Zm0,0" transform="translate(-89.307 -145.307)" fill="#006df0"/>
        <path id="Trazado_910462" data-name="Trazado 910462" d="M152.956,152h1.912a.956.956,0,0,1,.956.956v1.912a.956.956,0,0,1-.956.956h-1.912a.956.956,0,0,1-.956-.956v-1.912A.956.956,0,0,1,152.956,152Zm0,0" transform="translate(-138.613 -145.307)" fill="#006df0"/>
        <path id="Trazado_910463" data-name="Trazado 910463" d="M40.956,208h1.912a.956.956,0,0,1,.956.956v1.912a.956.956,0,0,1-.956.956H40.956a.956.956,0,0,1-.956-.956v-1.912A.956.956,0,0,1,40.956,208Zm0,0" transform="translate(-40 -194.613)" fill="#006df0"/>
        <path id="Trazado_910464" data-name="Trazado 910464" d="M96.956,208h1.912a.956.956,0,0,1,.956.956v1.912a.956.956,0,0,1-.956.956H96.956a.956.956,0,0,1-.956-.956v-1.912A.956.956,0,0,1,96.956,208Zm0,0" transform="translate(-89.307 -194.613)" fill="#006df0"/>
      </g>
      <path id="Trazado_910465" data-name="Trazado 910465" d="M437.194,259.5a1.913,1.913,0,0,0-2.7-2.7l-1.352,1.352,2.705,2.705Zm0,0" transform="translate(-381.366 -225.608)" fill="#d1d3d4"/>
      <path id="Trazado_910466" data-name="Trazado 910466" d="M290.308,302.155,288,307.169l5.014-2.308,13.018-13.019-2.7-2.7Zm0,0" transform="translate(-253.577 -254.577)" fill="#ed1c24"/>
      <path id="Trazado_910467" data-name="Trazado 910467" d="M416.234,274.262l2.02-2.019,2.7,2.7-2.02,2.02Zm0,0" transform="translate(-366.484 -239.702)" fill="#f7941d"/>
      <path id="Trazado_910468" data-name="Trazado 910468" d="M129.212,304.606A8.606,8.606,0,1,1,120.606,296,8.606,8.606,0,0,1,129.212,304.606Zm0,0" transform="translate(-98.613 -260.62)" fill="#ff9811"/>
      <path id="Trazado_910469" data-name="Trazado 910469" d="M40,137.212H59.124a1.919,1.919,0,0,0,1.912-1.912V120C61.037,129.514,51.628,137.212,40,137.212Zm0,0" transform="translate(-35.219 -105.657)" fill="#c2dff6"/>
      <path id="Trazado_910470" data-name="Trazado 910470" d="M152.956,208h1.912a.956.956,0,0,1,.956.956v1.912a.956.956,0,0,1-.956.956h-1.912a.956.956,0,0,1-.956-.956v-1.912A.956.956,0,0,1,152.956,208Zm0,0" transform="translate(-133.832 -183.139)" fill="#006df0"/>
      <path id="Trazado_910471" data-name="Trazado 910471" d="M113.562,288a9.562,9.562,0,1,0,9.562,9.562A9.562,9.562,0,0,0,113.562,288Zm0,17.212a7.65,7.65,0,1,1,7.65-7.65A7.649,7.649,0,0,1,113.562,305.212Zm0,0" transform="translate(-91.569 -253.577)"/>
      <path id="Trazado_910472" data-name="Trazado 910472" d="M155.825,322.869c1.168,0,1.912.566,1.912.956h1.912c0-1.359-1.2-2.459-2.869-2.773V320h-1.912v1.052c-1.665.311-2.869,1.412-2.869,2.773,0,1.609,1.68,2.869,3.825,2.869,1.168,0,1.912.566,1.912.956s-.745.956-1.912.956-1.912-.566-1.912-.956H152c0,1.359,1.2,2.459,2.869,2.773v1.052h1.912v-1.052c1.665-.311,2.869-1.412,2.869-2.773,0-1.609-1.68-2.869-3.825-2.869-1.168,0-1.912-.566-1.912-.956S154.657,322.869,155.825,322.869Zm0,0" transform="translate(-133.832 -281.752)"/>
      <path id="Trazado_910473" data-name="Trazado 910473" d="M48.766,55.46H8.606V32.511h15.3a2.869,2.869,0,0,0,2.869-2.869V5.737H37.292V17.212H48.766V30.6h1.912V15.86L38.644,3.825H26.774V2.869A2.869,2.869,0,0,0,23.905,0H2.869A2.869,2.869,0,0,0,0,2.869V29.642a2.869,2.869,0,0,0,2.869,2.869H6.693V57.372H50.679V43.985H48.766ZM39.2,7.089l8.21,8.21H39.2ZM1.912,29.642V2.869a.956.956,0,0,1,.956-.956H23.905a.956.956,0,0,1,.956.956V29.642a.956.956,0,0,1-.956.956H2.869A.956.956,0,0,1,1.912,29.642Zm0,0"/>
      <path id="Trazado_910474" data-name="Trazado 910474" d="M256,200h1.912v1.912H256Zm0,0" transform="translate(-225.401 -176.095)"/>
      <path id="Trazado_910475" data-name="Trazado 910475" d="M288,200h11.474v1.912H288Zm0,0" transform="translate(-253.577 -176.095)"/>
      <path id="Trazado_910476" data-name="Trazado 910476" d="M256,168h1.912v1.912H256Zm0,0" transform="translate(-225.401 -147.92)"/>
      <path id="Trazado_910477" data-name="Trazado 910477" d="M288,168h11.474v1.912H288Zm0,0" transform="translate(-253.577 -147.92)"/>
      <path id="Trazado_910478" data-name="Trazado 910478" d="M256,232h1.912v1.912H256Zm0,0" transform="translate(-225.401 -204.27)"/>
      <path id="Trazado_910479" data-name="Trazado 910479" d="M288,232h11.474v1.912H288Zm0,0" transform="translate(-253.577 -204.27)"/>
      <path id="Trazado_910480" data-name="Trazado 910480" d="M256,264h1.912v1.912H256Zm0,0" transform="translate(-225.401 -232.445)"/>
      <path id="Trazado_910481" data-name="Trazado 910481" d="M288,264h11.474v1.912H288Zm0,0" transform="translate(-253.577 -232.445)"/>
      <path id="Trazado_910482" data-name="Trazado 910482" d="M45.037,24H24v6.693H45.037Zm-1.912,4.781H25.912V25.912H43.124Zm0,0" transform="translate(-21.131 -21.131)"/>
      <path id="Trazado_910483" data-name="Trazado 910483" d="M35.825,88H33.912A1.913,1.913,0,0,0,32,89.912v1.912a1.913,1.913,0,0,0,1.912,1.912h1.912a1.913,1.913,0,0,0,1.912-1.912V89.912A1.913,1.913,0,0,0,35.825,88Zm-1.912,3.825V89.912h1.912v1.912Zm0,0" transform="translate(-28.175 -77.482)"/>
      <path id="Trazado_910484" data-name="Trazado 910484" d="M91.825,88H89.912A1.913,1.913,0,0,0,88,89.912v1.912a1.913,1.913,0,0,0,1.912,1.912h1.912a1.912,1.912,0,0,0,1.912-1.912V89.912A1.913,1.913,0,0,0,91.825,88Zm-1.912,3.825V89.912h1.912v1.912Zm0,0" transform="translate(-77.482 -77.482)"/>
      <path id="Trazado_910485" data-name="Trazado 910485" d="M147.825,88h-1.912A1.913,1.913,0,0,0,144,89.912v1.912a1.912,1.912,0,0,0,1.912,1.912h1.912a1.913,1.913,0,0,0,1.912-1.912V89.912A1.913,1.913,0,0,0,147.825,88Zm-1.912,3.825V89.912h1.912v1.912Zm0,0" transform="translate(-126.788 -77.482)"/>
      <path id="Trazado_910486" data-name="Trazado 910486" d="M35.825,144H33.912A1.912,1.912,0,0,0,32,145.912v1.912a1.913,1.913,0,0,0,1.912,1.912h1.912a1.913,1.913,0,0,0,1.912-1.912v-1.912A1.912,1.912,0,0,0,35.825,144Zm-1.912,3.825v-1.912h1.912v1.912Zm0,0" transform="translate(-28.175 -126.788)"/>
      <path id="Trazado_910487" data-name="Trazado 910487" d="M91.825,144H89.912A1.913,1.913,0,0,0,88,145.912v1.912a1.913,1.913,0,0,0,1.912,1.912h1.912a1.913,1.913,0,0,0,1.912-1.912v-1.912A1.912,1.912,0,0,0,91.825,144Zm-1.912,3.825v-1.912h1.912v1.912Zm0,0" transform="translate(-77.482 -126.788)"/>
      <path id="Trazado_910488" data-name="Trazado 910488" d="M147.825,144h-1.912A1.912,1.912,0,0,0,144,145.912v1.912a1.913,1.913,0,0,0,1.912,1.912h1.912a1.913,1.913,0,0,0,1.912-1.912v-1.912A1.913,1.913,0,0,0,147.825,144Zm-1.912,3.825v-1.912h1.912v1.912Zm0,0" transform="translate(-126.788 -126.788)"/>
      <path id="Trazado_910489" data-name="Trazado 910489" d="M35.825,200H33.912A1.913,1.913,0,0,0,32,201.912v1.912a1.913,1.913,0,0,0,1.912,1.912h1.912a1.913,1.913,0,0,0,1.912-1.912v-1.912A1.913,1.913,0,0,0,35.825,200Zm-1.912,3.825v-1.912h1.912v1.912Zm0,0" transform="translate(-28.175 -176.095)"/>
      <path id="Trazado_910490" data-name="Trazado 910490" d="M91.825,200H89.912A1.913,1.913,0,0,0,88,201.912v1.912a1.913,1.913,0,0,0,1.912,1.912h1.912a1.913,1.913,0,0,0,1.912-1.912v-1.912A1.913,1.913,0,0,0,91.825,200Zm-1.912,3.825v-1.912h1.912v1.912Zm0,0" transform="translate(-77.482 -176.095)"/>
      <path id="Trazado_910491" data-name="Trazado 910491" d="M147.825,200h-1.912A1.913,1.913,0,0,0,144,201.912v1.912a1.912,1.912,0,0,0,1.912,1.912h1.912a1.913,1.913,0,0,0,1.912-1.912v-1.912A1.913,1.913,0,0,0,147.825,200Zm-1.912,3.825v-1.912h1.912v1.912Zm0,0" transform="translate(-126.788 -176.095)"/>
      <path id="Trazado_910492" data-name="Trazado 910492" d="M303.049,249.279a2.936,2.936,0,0,0-4.056,0L282.6,265.67a.968.968,0,0,0-.191.276l-2.308,5.013a.957.957,0,0,0,1.268,1.268l5.013-2.308a.958.958,0,0,0,.276-.191l16.391-16.392A2.868,2.868,0,0,0,303.049,249.279Zm-17.624,18.975-2.505,1.154,1.154-2.505L296.3,254.679l1.352,1.352ZM299,254.675l-1.352-1.352.67-.67,1.352,1.352Zm2.7-2.7-.676.676-1.352-1.352.677-.676a.978.978,0,0,1,1.351,0A.957.957,0,0,1,301.7,251.979Zm0,0" transform="translate(-246.545 -218.768)"/>
    </g>
  </g>
</svg>
