<svg xmlns="http://www.w3.org/2000/svg" xmlns:xlink="http://www.w3.org/1999/xlink" width="113" height="113" viewBox="0 0 113 113">
  <defs>
    <filter id="Trazado_896985" x="0" y="0" width="113" height="113" filterUnits="userSpaceOnUse">
      <feOffset dy="3" input="SourceAlpha"/>
      <feGaussianBlur stdDeviation="3" result="blur"/>
      <feFlood flood-opacity="0.161"/>
      <feComposite operator="in" in2="blur"/>
      <feComposite in="SourceGraphic"/>
    </filter>
    <clipPath id="clip-path">
      <path id="path1448" d="M0-682.665H58.344v58.344H0Z" transform="translate(0 682.665)"/>
    </clipPath>
  </defs>
  <g id="Grupo_1117993" data-name="Grupo 1117993" transform="translate(5631 5696)">
    <g id="Grupo_1117992" data-name="Grupo 1117992" transform="translate(0 387)">
      <g id="Grupo_1117974" data-name="Grupo 1117974" transform="translate(-6642.051 -11608)">
        <g id="Grupo_1117971" data-name="Grupo 1117971" transform="translate(515 3362)">
          <g id="Grupo_1113419" data-name="Grupo 1113419" transform="translate(170.16 -1683)">
            <g id="Grupo_1111318" data-name="Grupo 1111318" transform="translate(-5.891)">
              <g id="Grupo_1109826" data-name="Grupo 1109826" transform="translate(340.781 3852)">
                <g id="Grupo_1098742" data-name="Grupo 1098742">
                  <g transform="matrix(1, 0, 0, 1, -9, -6)" filter="url(#Trazado_896985)">
                    <g id="Trazado_896985-2" data-name="Trazado 896985" transform="translate(9 6)" fill="#e2dacc" opacity="0.859">
                      <path d="M 47.49993515014648 93.5 C 41.28932189941406 93.5 35.26528167724609 92.28397369384766 29.59514808654785 89.88571929931641 C 24.1176815032959 87.56894683837891 19.1981086730957 84.25197601318359 14.97306823730469 80.02693176269531 C 10.74802875518799 75.80189514160156 7.431055068969727 70.88231658935547 5.11428165435791 65.40485382080078 C 2.716028451919556 59.73471832275391 1.500001788139343 53.71067810058594 1.500001788139343 47.50006484985352 C 1.500001788139343 41.28932189941406 2.716028451919556 35.26528167724609 5.11428165435791 29.59514617919922 C 7.431055068969727 24.11767959594727 10.74802875518799 19.19810676574707 14.97306823730469 14.97306632995605 C 19.1981086730957 10.74802684783936 24.1176815032959 7.431053161621094 29.59514808654785 5.114280223846436 C 35.26528167724609 2.716026782989502 41.28932189941406 1.5 47.49993515014648 1.5 C 53.71054840087891 1.5 59.73458862304688 2.716026782989502 65.40472412109375 5.114280223846436 C 70.88218688964844 7.431053161621094 75.80176544189453 10.74802684783936 80.02680206298828 14.97306632995605 C 84.25183868408203 19.19810676574707 87.56881713867188 24.11767959594727 89.88558959960938 29.59514617919922 C 92.28384399414062 35.26528167724609 93.49987030029297 41.28932189941406 93.49987030029297 47.49993515014648 C 93.49987030029297 53.71067810058594 92.28384399414062 59.73471832275391 89.88558959960938 65.40485382080078 C 87.56881713867188 70.88231658935547 84.25183868408203 75.80189514160156 80.02680206298828 80.02693176269531 C 75.80176544189453 84.25197601318359 70.88218688964844 87.56894683837891 65.40472412109375 89.88571929931641 C 59.73458862304688 92.28397369384766 53.71054840087891 93.5 47.49993515014648 93.5 Z" stroke="none"/>
                      <path d="M 47.49993515014648 3 C 41.49116516113281 3 35.66371917724609 4.176155090332031 30.17947387695312 6.495796203613281 C 24.88081359863281 8.7369384765625 20.12149047851562 11.94596862792969 16.03372192382812 16.03372192382812 C 11.94596862792969 20.12149047851562 8.7369384765625 24.88081359863281 6.495796203613281 30.17947387695312 C 4.1761474609375 35.66372299194336 3 41.49116897583008 3 47.50006103515625 C 3 53.50883102416992 4.1761474609375 59.33627700805664 6.495796203613281 64.82052612304688 C 8.7369384765625 70.11918640136719 11.94596862792969 74.87850952148438 16.03372192382812 78.96627807617188 C 20.12149047851562 83.05403137207031 24.88081359863281 86.2630615234375 30.17947387695312 88.50419616699219 C 35.66371917724609 90.82384490966797 41.49116516113281 92 47.49993515014648 92 C 53.50870513916016 92 59.33615112304688 90.82384490966797 64.82039642333984 88.50419616699219 C 70.11905670166016 86.2630615234375 74.87837982177734 83.05403137207031 78.96614837646484 78.96627807617188 C 83.05390167236328 74.87850952148438 86.26293182373047 70.11918640136719 88.50407409667969 64.82052612304688 C 90.82372283935547 59.33627700805664 91.99987030029297 53.50883102416992 91.99987030029297 47.49993896484375 C 91.99987030029297 41.49116897583008 90.82372283935547 35.66372299194336 88.50407409667969 30.17947387695312 C 86.26293182373047 24.88081359863281 83.05390167236328 20.12149047851562 78.96614837646484 16.03372192382812 C 74.87837982177734 11.94596862792969 70.11905670166016 8.7369384765625 64.82039642333984 6.495796203613281 C 59.33615112304688 4.176155090332031 53.50870513916016 3 47.49993515014648 3 M 47.49993515014648 0 C 73.73342895507812 0 94.99987030029297 21.26644897460938 94.99987030029297 47.49993896484375 L 94.99987030029297 47.50006103515625 C 94.99987030029297 73.73355102539062 73.73342895507812 95 47.49993515014648 95 C 21.26644134521484 95 0 73.73355102539062 0 47.50006103515625 L 0 47.49993896484375 C 0 21.26644897460938 21.26644134521484 0 47.49993515014648 0 Z" stroke="none" fill="#fff"/>
                    </g>
                  </g>
                  <g id="Rectángulo_400907" data-name="Rectángulo 400907" transform="translate(0 0)" fill="none" stroke="#fff" stroke-width="3">
                    <rect width="95" height="95" rx="47.5" stroke="none"/>
                    <rect x="1.5" y="1.5" width="92" height="92" rx="46" fill="none"/>
                  </g>
                </g>
              </g>
            </g>
          </g>
        </g>
      </g>
    </g>
    <g id="g1434" transform="translate(-5604 -4989.335)">
      <g id="g1436" transform="translate(36.693 -654.607)">
        <path id="path1438" d="M-109.744-138.741v-12.966h-6.837v12.966H-120l6.837,11.4,6.837-11.4Z" transform="translate(120 151.706)" fill="#9ed0ff"/>
      </g>
      <g id="g1440" transform="translate(7.977 -676.739)">
        <path id="path1442" d="M-73.163,0-80,11.4h3.419V24.361h6.837V11.4h3.419Z" transform="translate(80)" fill="#9ed0ff"/>
      </g>
      <g id="g1444" transform="translate(0 -682.665)">
        <g id="g1446" transform="translate(0 0)" clip-path="url(#clip-path)">
          <g id="g1452" transform="translate(29.856 1.14)">
            <path id="path1454" d="M-146.325,0A13.675,13.675,0,0,0-160,13.674a13.675,13.675,0,0,0,13.674,13.674,13.675,13.675,0,0,0,13.674-13.674A13.675,13.675,0,0,0-146.325,0" transform="translate(160)" fill="#ffdf8e"/>
          </g>
          <g id="g1456" transform="translate(1.14 29.856)">
            <path id="path1458" d="M-146.325,0A13.675,13.675,0,0,0-160,13.674a13.675,13.675,0,0,0,13.674,13.674,13.675,13.675,0,0,0,13.674-13.674A13.675,13.675,0,0,0-146.325,0" transform="translate(160)" fill="#ffdf8e"/>
          </g>
          <g id="g1460" transform="translate(35.554 26.918)">
            <path id="path1462" d="M-125.356,13.307a1.14,1.14,0,0,1-.977-.553l-6.837-11.4A1.14,1.14,0,0,1-133.185.21a1.14,1.14,0,0,1,.992-.578h2.279V-12.194a1.14,1.14,0,0,1,1.14-1.14,1.14,1.14,0,0,1,1.14,1.14V.772a1.14,1.14,0,0,1-1.14,1.14h-1.406l4.825,8.041,4.825-8.041h-1.406a1.14,1.14,0,0,1-1.14-1.14V-12.194a1.14,1.14,0,0,1,1.14-1.14,1.14,1.14,0,0,1,1.14,1.14V-.368h2.279a1.14,1.14,0,0,1,.992.578,1.14,1.14,0,0,1-.014,1.148l-6.837,11.4A1.14,1.14,0,0,1-125.356,13.307Z" transform="translate(133.333 13.333)"/>
          </g>
          <g id="g1464" transform="translate(6.837 4.786)">
            <path id="path1466" d="M-41.938-271.732a1.14,1.14,0,0,1-1.14-1.14v-12.966a1.14,1.14,0,0,1,1.14-1.14h1.406l-4.825-8.041-4.825,8.041h1.406a1.14,1.14,0,0,1,1.14,1.14v12.966a1.14,1.14,0,0,1-1.14,1.14,1.14,1.14,0,0,1-1.14-1.14V-284.7h-2.279a1.14,1.14,0,0,1-.992-.578,1.14,1.14,0,0,1,.014-1.148l6.837-11.4a1.14,1.14,0,0,1,.977-.553,1.14,1.14,0,0,1,.977.553l6.837,11.4a1.14,1.14,0,0,1,.014,1.148,1.14,1.14,0,0,1-.992.578H-40.8v11.826A1.14,1.14,0,0,1-41.938-271.732Z" transform="translate(53.333 298.373)"/>
          </g>
          <g id="g1468" transform="translate(11.509 37.924)">
            <path id="path1470" d="M-13.488-95.271a3.427,3.427,0,0,1-2.961-1.71,1.14,1.14,0,0,1,.418-1.557,1.14,1.14,0,0,1,1.557.418,1.142,1.142,0,0,0,.987.569,1.141,1.141,0,0,0,1.14-1.14,1.141,1.141,0,0,0-1.14-1.14,3.422,3.422,0,0,1-3.419-3.419,3.422,3.422,0,0,1,3.419-3.419,3.427,3.427,0,0,1,2.961,1.71,1.14,1.14,0,0,1-.418,1.557,1.14,1.14,0,0,1-1.557-.418,1.142,1.142,0,0,0-.987-.569,1.141,1.141,0,0,0-1.14,1.14,1.141,1.141,0,0,0,1.14,1.14,3.422,3.422,0,0,1,3.419,3.419A3.422,3.422,0,0,1-13.488-95.271Z" transform="translate(16.907 106.666)"/>
          </g>
          <g id="g1472" transform="translate(13.788 35.69)">
            <path id="path1474" d="M-12.194-8.821a1.14,1.14,0,0,1-1.14-1.14v-2.233a1.14,1.14,0,0,1,1.14-1.14,1.14,1.14,0,0,1,1.14,1.14V-9.96A1.14,1.14,0,0,1-12.194-8.821Z" transform="translate(13.333 13.333)"/>
          </g>
          <g id="g1476" transform="translate(13.788 47.04)">
            <path id="path1478" d="M-12.194-8.866a1.14,1.14,0,0,1-1.14-1.14v-2.188a1.14,1.14,0,0,1,1.14-1.14,1.14,1.14,0,0,1,1.14,1.14v2.188A1.14,1.14,0,0,1-12.194-8.866Z" transform="translate(13.333 13.333)"/>
          </g>
          <g id="g1480" transform="translate(40.226 9.207)">
            <path id="path1482" d="M-13.488-95.271a3.427,3.427,0,0,1-2.961-1.71,1.14,1.14,0,0,1,.418-1.557,1.14,1.14,0,0,1,1.557.418,1.142,1.142,0,0,0,.987.569,1.141,1.141,0,0,0,1.14-1.14,1.141,1.141,0,0,0-1.14-1.14,3.422,3.422,0,0,1-3.419-3.419,3.422,3.422,0,0,1,3.419-3.419,3.428,3.428,0,0,1,2.961,1.709,1.14,1.14,0,0,1-.417,1.557,1.14,1.14,0,0,1-1.557-.417,1.142,1.142,0,0,0-.987-.57,1.141,1.141,0,0,0-1.14,1.14,1.141,1.141,0,0,0,1.14,1.14,3.422,3.422,0,0,1,3.419,3.419A3.422,3.422,0,0,1-13.488-95.271Z" transform="translate(16.907 106.666)"/>
          </g>
          <g id="g1484" transform="translate(42.505 6.974)">
            <path id="path1486" d="M-12.194-8.821a1.14,1.14,0,0,1-1.14-1.14v-2.233a1.14,1.14,0,0,1,1.14-1.14,1.14,1.14,0,0,1,1.14,1.14V-9.96A1.14,1.14,0,0,1-12.194-8.821Z" transform="translate(13.333 13.333)"/>
          </g>
          <g id="g1488" transform="translate(42.505 18.324)">
            <path id="path1490" d="M-12.194-8.866a1.14,1.14,0,0,1-1.14-1.14v-2.188a1.14,1.14,0,0,1,1.14-1.14,1.14,1.14,0,0,1,1.14,1.14v2.188A1.14,1.14,0,0,1-12.194-8.866Z" transform="translate(13.333 13.333)"/>
          </g>
          <g id="g1492" transform="translate(13.674 56.065)">
            <path id="path1494" d="M-24.388-12.194a1.14,1.14,0,0,1-1.14,1.14,1.14,1.14,0,0,1-1.14-1.14,1.14,1.14,0,0,1,1.14-1.14,1.14,1.14,0,0,1,1.14,1.14" transform="translate(26.667 13.333)"/>
          </g>
          <g id="g1496" transform="translate(42.391 0)">
            <path id="path1498" d="M-24.388-12.194a1.14,1.14,0,0,1-1.14,1.14,1.14,1.14,0,0,1-1.14-1.14,1.14,1.14,0,0,1,1.14-1.14,1.14,1.14,0,0,1,1.14,1.14" transform="translate(26.667 13.333)"/>
          </g>
          <g id="g1500" transform="translate(28.716 0.958)">
            <path id="path1502" d="M-217.468,15.333a14.855,14.855,0,0,1-3.7-.467A14.806,14.806,0,0,1-232.282.519a14.742,14.742,0,0,1,9.356-13.776,1.14,1.14,0,0,1,1.479.639,1.14,1.14,0,0,1-.639,1.479A12.475,12.475,0,0,0-230,.519a12.527,12.527,0,0,0,9.4,12.14,12.575,12.575,0,0,0,3.135.395,12.574,12.574,0,0,0,3.134-.395,12.527,12.527,0,0,0,9.4-12.14,12.474,12.474,0,0,0-7.917-11.657,1.14,1.14,0,0,1-.639-1.479,1.14,1.14,0,0,1,1.479-.639A14.742,14.742,0,0,1-202.654.519a14.806,14.806,0,0,1-11.111,14.347A14.855,14.855,0,0,1-217.468,15.333Z" transform="translate(232.282 13.337)"/>
          </g>
          <g id="g1504" transform="translate(0 28.716)">
            <path id="path1506" d="M-104.608-293.452a1.137,1.137,0,0,1-.42-.081,14.742,14.742,0,0,1-9.356-13.776,14.806,14.806,0,0,1,11.111-14.347,14.855,14.855,0,0,1,3.7-.467,14.852,14.852,0,0,1,3.7.467,14.806,14.806,0,0,1,11.111,14.347,14.742,14.742,0,0,1-9.356,13.776,1.14,1.14,0,0,1-1.479-.639,1.14,1.14,0,0,1,.639-1.479,12.474,12.474,0,0,0,7.917-11.657,12.527,12.527,0,0,0-9.4-12.14,12.573,12.573,0,0,0-3.135-.395,12.573,12.573,0,0,0-3.134.395,12.527,12.527,0,0,0-9.4,12.14,12.474,12.474,0,0,0,7.917,11.657,1.14,1.14,0,0,1,.639,1.479A1.14,1.14,0,0,1-104.608-293.452Z" transform="translate(114.384 322.122)"/>
          </g>
        </g>
      </g>
    </g>
  </g>
</svg>
