<svg xmlns="http://www.w3.org/2000/svg" width="456.395" height="415.348" viewBox="0 0 456.395 415.348">
  <g id="caract" transform="translate(-31.911 -60.009)">
    <g id="Grupo_1112606" data-name="Grupo 1112606" transform="translate(31.911 98.933)">
      <rect id="Rectángulo_405197" data-name="Rectángulo 405197" width="211.626" height="80.199" fill="#fafafa"/>
      <g id="Grupo_1112588" data-name="Grupo 1112588" transform="translate(33.131 18.711)">
        <path id="Trazado_902772" data-name="Trazado 902772" d="M225.922,118.312c0,.143-35.964.259-80.318.259-44.37,0-80.326-.116-80.326-.259s35.957-.258,80.326-.258C189.957,118.054,225.922,118.17,225.922,118.312Z" transform="translate(-65.277 -118.054)" fill="#ebebeb"/>
      </g>
      <g id="Grupo_1112589" data-name="Grupo 1112589" transform="translate(33.131 28.201)">
        <path id="Trazado_902773" data-name="Trazado 902773" d="M225.922,127.869c0,.143-35.964.259-80.318.259-44.37,0-80.326-.116-80.326-.259s35.957-.258,80.326-.258C189.957,127.611,225.922,127.726,225.922,127.869Z" transform="translate(-65.277 -127.611)" fill="#ebebeb"/>
      </g>
      <g id="Grupo_1112590" data-name="Grupo 1112590" transform="translate(33.131 37.69)">
        <path id="Trazado_902774" data-name="Trazado 902774" d="M225.922,137.426c0,.143-35.964.259-80.318.259-44.37,0-80.326-.116-80.326-.259s35.957-.258,80.326-.258C189.957,137.168,225.922,137.284,225.922,137.426Z" transform="translate(-65.277 -137.168)" fill="#ebebeb"/>
      </g>
      <g id="Grupo_1112591" data-name="Grupo 1112591" transform="translate(33.131 47.18)">
        <path id="Trazado_902775" data-name="Trazado 902775" d="M225.922,146.983c0,.143-35.964.259-80.318.259-44.37,0-80.326-.116-80.326-.259s35.957-.258,80.326-.258C189.957,146.725,225.922,146.84,225.922,146.983Z" transform="translate(-65.277 -146.725)" fill="#ebebeb"/>
      </g>
      <g id="Grupo_1112592" data-name="Grupo 1112592" transform="translate(33.131 56.67)">
        <path id="Trazado_902776" data-name="Trazado 902776" d="M225.922,156.54c0,.143-35.964.259-80.318.259-44.37,0-80.326-.116-80.326-.259s35.957-.258,80.326-.258C189.957,156.282,225.922,156.4,225.922,156.54Z" transform="translate(-65.277 -156.282)" fill="#ebebeb"/>
      </g>
      <g id="Grupo_1112593" data-name="Grupo 1112593" transform="translate(31.838 27.292)">
        <path id="Trazado_902777" data-name="Trazado 902777" d="M211.924,145.279s-.11.147-.35.418a4.2,4.2,0,0,1-1.35.857,6.381,6.381,0,0,1-5.863-1.077A10.752,10.752,0,0,1,201.6,142c-.771-1.439-1.38-3.1-2.1-4.838a15.231,15.231,0,0,0-3.144-5.048,7,7,0,0,0-2.729-1.665,7.234,7.234,0,0,0-3.359-.186,12.845,12.845,0,0,0-6.409,3.4c-1.913,1.727-3.6,3.855-5.654,5.782a12.957,12.957,0,0,1-7.759,3.815A7.126,7.126,0,0,1,166,142.071a10.6,10.6,0,0,1-3.094-3.567c-1.6-2.756-2.406-5.964-4.482-8.48a7.284,7.284,0,0,0-3.89-2.691,5.4,5.4,0,0,0-4.568,1.1,10.318,10.318,0,0,0-3,4,25.224,25.224,0,0,0-1.422,5,30.99,30.99,0,0,1-1.409,5.187,12.4,12.4,0,0,1-1.3,2.425,11.183,11.183,0,0,1-1.9,2.02,11.986,11.986,0,0,1-4.9,2.447,11.65,11.65,0,0,1-5.406.078,12.184,12.184,0,0,1-4.774-2.356c-1.41-1.05-2.688-2.216-4.026-3.261a11.981,11.981,0,0,0-4.34-2.363,6.279,6.279,0,0,0-4.648.6,10.97,10.97,0,0,0-3.467,3.227,30.749,30.749,0,0,0-2.343,4.109,32.04,32.04,0,0,1-2.321,4.072,10.89,10.89,0,0,1-3.332,3.163,6.786,6.786,0,0,1-4.35,1.018,6.254,6.254,0,0,1-3.776-2.108,10.642,10.642,0,0,1-2.084-3.621,27.184,27.184,0,0,1-.95-3.882c-.465-2.546-.917-5.022-2.234-6.992a7.831,7.831,0,0,0-5.163-3.84,5.747,5.747,0,0,0-2.974.369,7.919,7.919,0,0,0-2.388,1.573c-2.712,2.6-4.016,5.734-6.028,7.55-1.9,1.887-3.961,2.756-5.391,2.711a4.491,4.491,0,0,1-1.572-.279c-.333-.141-.5-.225-.5-.225a5.5,5.5,0,0,0,2.066.4,8.083,8.083,0,0,0,5.252-2.749c1.96-1.8,3.22-4.934,5.972-7.619a8.2,8.2,0,0,1,2.468-1.647,6.053,6.053,0,0,1,3.14-.409A8.166,8.166,0,0,1,88.289,141a12.336,12.336,0,0,1,1.5,3.372c.344,1.209.573,2.468.818,3.741a26.7,26.7,0,0,0,.949,3.82,10.224,10.224,0,0,0,2.01,3.469,5.823,5.823,0,0,0,3.518,1.959,6.347,6.347,0,0,0,4.059-.971,10.433,10.433,0,0,0,3.184-3.04,31.785,31.785,0,0,0,2.276-4.017,31.047,31.047,0,0,1,2.374-4.178,11.426,11.426,0,0,1,3.625-3.376,6.776,6.776,0,0,1,5-.656,12.455,12.455,0,0,1,4.532,2.45c1.359,1.059,2.637,2.223,4.021,3.251a11.68,11.68,0,0,0,4.581,2.265,11.157,11.157,0,0,0,5.17-.078,11.489,11.489,0,0,0,4.692-2.343,10.585,10.585,0,0,0,1.807-1.922,11.889,11.889,0,0,0,1.239-2.317,30.741,30.741,0,0,0,1.385-5.1,25.625,25.625,0,0,1,1.458-5.1,10.819,10.819,0,0,1,3.162-4.19,5.908,5.908,0,0,1,4.988-1.183,7.762,7.762,0,0,1,4.161,2.87c2.152,2.63,2.96,5.878,4.512,8.553a10.169,10.169,0,0,0,2.942,3.418,6.67,6.67,0,0,0,4.154,1.116,12.537,12.537,0,0,0,7.494-3.676c2.033-1.889,3.728-4.015,5.679-5.764a13.205,13.205,0,0,1,6.618-3.462,7.583,7.583,0,0,1,3.523.215,7.333,7.333,0,0,1,2.853,1.761,15.488,15.488,0,0,1,3.181,5.173c.715,1.755,1.307,3.408,2.053,4.834a10.6,10.6,0,0,0,2.664,3.435,6.3,6.3,0,0,0,5.7,1.14,4.4,4.4,0,0,0,1.748-1.191Z" transform="translate(-63.975 -126.695)" fill="#e0e0e0"/>
      </g>
      <g id="Grupo_1112594" data-name="Grupo 1112594" transform="translate(30.526 19.965)">
        <path id="Trazado_902778" data-name="Trazado 902778" d="M222.077,143.013s-.187.022-.557.039c-.185-.007-.411-.056-.683-.093a5.956,5.956,0,0,1-.9-.324,15.176,15.176,0,0,1-4.782-4.029q-.67-.774-1.369-1.671A19.01,19.01,0,0,0,212.3,135.1a7.874,7.874,0,0,0-4.728-2.154,6.649,6.649,0,0,0-2.885.363,7.422,7.422,0,0,0-2.572,1.735,60.706,60.706,0,0,0-4.23,5.471,12.542,12.542,0,0,1-2.708,2.631,8.366,8.366,0,0,1-3.7,1.386,16.58,16.58,0,0,1-8.154-1.526c-2.665-1.107-5.213-2.633-8.081-3.609a14.963,14.963,0,0,0-4.459-.9,9.71,9.71,0,0,0-4.5.984c-2.871,1.374-5.114,3.881-7.816,5.927a15.973,15.973,0,0,1-4.524,2.479,16.989,16.989,0,0,1-5.184.9,19.112,19.112,0,0,1-10.291-2.853,24.966,24.966,0,0,1-7.809-7.777c-2.094-3.135-3.241-6.694-4.752-9.942a20.262,20.262,0,0,0-2.763-4.523,12.021,12.021,0,0,0-4.071-3.145,7.273,7.273,0,0,0-4.907-.518,8.191,8.191,0,0,0-4.076,2.679,13.764,13.764,0,0,0-2.44,4.231,33.706,33.706,0,0,0-1.26,4.68c-.336,1.57-.636,3.137-1.066,4.659a20.4,20.4,0,0,1-1.748,4.34,19.677,19.677,0,0,1-5.9,6.656,17.313,17.313,0,0,1-7.692,3.113,16.173,16.173,0,0,1-7.606-.881,14.97,14.97,0,0,1-9.17-9c-.634-1.846-.953-3.623-1.411-5.207a12,12,0,0,0-1.83-4.068,6.509,6.509,0,0,0-5.3-2.72,4.113,4.113,0,0,0-2.013.731,3.384,3.384,0,0,1,2-.835,6.589,6.589,0,0,1,5.471,2.7,12.142,12.142,0,0,1,1.908,4.124c.475,1.594.809,3.369,1.447,5.179a14.675,14.675,0,0,0,9.022,8.749,15.816,15.816,0,0,0,7.427.829,16.935,16.935,0,0,0,7.5-3.066,19.281,19.281,0,0,0,5.746-6.525c1.488-2.64,2.111-5.729,2.747-8.881a34.056,34.056,0,0,1,1.272-4.748,14.229,14.229,0,0,1,2.521-4.387,8.679,8.679,0,0,1,4.323-2.84,7.773,7.773,0,0,1,5.241.54,12.525,12.525,0,0,1,4.253,3.276,20.72,20.72,0,0,1,2.84,4.636c1.535,3.3,2.665,6.808,4.72,9.88a24.473,24.473,0,0,0,7.643,7.619,18.615,18.615,0,0,0,10.014,2.784,16.462,16.462,0,0,0,5.029-.865,15.444,15.444,0,0,0,4.39-2.4c2.658-2,4.919-4.532,7.908-5.963a10.173,10.173,0,0,1,4.719-1.02,15.426,15.426,0,0,1,4.6.93c2.915,1,5.481,2.55,8.1,3.644a16.229,16.229,0,0,0,7.941,1.526,7.986,7.986,0,0,0,3.539-1.308,12.2,12.2,0,0,0,2.637-2.543,59.588,59.588,0,0,1,4.285-5.477,7.725,7.725,0,0,1,2.7-1.79,6.945,6.945,0,0,1,3.02-.361,8.119,8.119,0,0,1,4.874,2.267,18.678,18.678,0,0,1,1.488,1.87q.687.9,1.344,1.676a15.433,15.433,0,0,0,4.673,4.066A4.126,4.126,0,0,0,222.077,143.013Z" transform="translate(-62.654 -119.316)" fill="#e0e0e0"/>
      </g>
      <g id="Grupo_1112595" data-name="Grupo 1112595" transform="translate(17.854 19.183)">
        <path id="Trazado_902779" data-name="Trazado 902779" d="M54.141,118.787a4.582,4.582,0,0,1-2.125.259,4.579,4.579,0,0,1-2.124-.259,4.587,4.587,0,0,1,2.124-.258,4.59,4.59,0,0,1,2.125.258Z" transform="translate(-49.892 -118.529)" fill="#e0e0e0"/>
      </g>
      <g id="Grupo_1112596" data-name="Grupo 1112596" transform="translate(17.854 28.201)">
        <path id="Trazado_902780" data-name="Trazado 902780" d="M54.141,127.869a4.581,4.581,0,0,1-2.125.259,4.579,4.579,0,0,1-2.124-.259,4.587,4.587,0,0,1,2.124-.258,4.59,4.59,0,0,1,2.125.258Z" transform="translate(-49.892 -127.611)" fill="#e0e0e0"/>
      </g>
      <g id="Grupo_1112597" data-name="Grupo 1112597" transform="translate(17.854 37.219)">
        <path id="Trazado_902781" data-name="Trazado 902781" d="M54.141,136.951a4.582,4.582,0,0,1-2.125.259,4.58,4.58,0,0,1-2.124-.259,4.6,4.6,0,0,1,2.124-.258,4.6,4.6,0,0,1,2.125.258Z" transform="translate(-49.892 -136.693)" fill="#e0e0e0"/>
      </g>
      <g id="Grupo_1112598" data-name="Grupo 1112598" transform="translate(17.854 46.237)">
        <path id="Trazado_902782" data-name="Trazado 902782" d="M54.141,146.033a4.583,4.583,0,0,1-2.125.259,4.58,4.58,0,0,1-2.124-.259,4.6,4.6,0,0,1,2.124-.258,4.6,4.6,0,0,1,2.125.258Z" transform="translate(-49.892 -145.775)" fill="#e0e0e0"/>
      </g>
      <g id="Grupo_1112599" data-name="Grupo 1112599" transform="translate(17.854 55.255)">
        <path id="Trazado_902783" data-name="Trazado 902783" d="M54.141,155.116a4.6,4.6,0,0,1-2.125.258,4.6,4.6,0,0,1-2.124-.258,4.58,4.58,0,0,1,2.124-.259,4.583,4.583,0,0,1,2.125.259Z" transform="translate(-49.892 -154.857)" fill="#e0e0e0"/>
      </g>
      <g id="Grupo_1112600" data-name="Grupo 1112600" transform="translate(33.131 66.846)">
        <path id="Trazado_902784" data-name="Trazado 902784" d="M73.775,166.789a17.652,17.652,0,0,1-4.249.259,17.655,17.655,0,0,1-4.249-.259,17.679,17.679,0,0,1,4.249-.258A17.679,17.679,0,0,1,73.775,166.789Z" transform="translate(-65.277 -166.531)" fill="#e0e0e0"/>
      </g>
      <g id="Grupo_1112601" data-name="Grupo 1112601" transform="translate(70.588 66.846)">
        <path id="Trazado_902785" data-name="Trazado 902785" d="M111.5,166.789a17.655,17.655,0,0,1-4.249.259,17.654,17.654,0,0,1-4.249-.259,17.679,17.679,0,0,1,4.249-.258,17.679,17.679,0,0,1,4.249.258Z" transform="translate(-103 -166.531)" fill="#e0e0e0"/>
      </g>
      <g id="Grupo_1112603" data-name="Grupo 1112603" transform="translate(108.045 66.846)">
        <g id="Grupo_1112602" data-name="Grupo 1112602">
          <path id="Trazado_902786" data-name="Trazado 902786" d="M149.22,166.789a17.642,17.642,0,0,1-4.248.259,17.653,17.653,0,0,1-4.249-.259,17.679,17.679,0,0,1,4.249-.258A17.667,17.667,0,0,1,149.22,166.789Z" transform="translate(-140.723 -166.531)" fill="#e0e0e0"/>
        </g>
      </g>
      <g id="Grupo_1112604" data-name="Grupo 1112604" transform="translate(145.502 66.846)">
        <path id="Trazado_902787" data-name="Trazado 902787" d="M186.943,166.789a17.641,17.641,0,0,1-4.248.259,17.645,17.645,0,0,1-4.249-.259,17.67,17.67,0,0,1,4.249-.258A17.666,17.666,0,0,1,186.943,166.789Z" transform="translate(-178.446 -166.531)" fill="#e0e0e0"/>
      </g>
      <g id="Grupo_1112605" data-name="Grupo 1112605" transform="translate(182.959 66.846)">
        <path id="Trazado_902788" data-name="Trazado 902788" d="M224.666,166.789a34.953,34.953,0,0,1-8.5,0A35.082,35.082,0,0,1,224.666,166.789Z" transform="translate(-216.169 -166.531)" fill="#e0e0e0"/>
      </g>
    </g>
    <g id="Grupo_1112676" data-name="Grupo 1112676" transform="translate(257.867 60.007)">
      <g id="Grupo_1112607" data-name="Grupo 1112607" transform="translate(193.694 1.441)">
        <path id="Trazado_902789" data-name="Trazado 902789" d="M476.019,61.459s15.183.214,8.686,30.272-5.659,35.743-5.659,47.635a20.737,20.737,0,0,0,11.228,18.923h-20.59L454.541,88.126V61.459Z" transform="translate(-454.541 -61.459)" fill="#e0e0e0"/>
      </g>
      <g id="Grupo_1112608" data-name="Grupo 1112608" transform="translate(11.727 24.453)">
        <path id="Trazado_902790" data-name="Trazado 902790" d="M479.191,298.276H271.282l1.852-203.408L468.961,84.634Z" transform="translate(-271.282 -84.634)" fill="#e0e0e0"/>
      </g>
      <g id="Grupo_1112609" data-name="Grupo 1112609" transform="translate(4.59 25.495)">
        <path id="Trazado_902791" data-name="Trazado 902791" d="M472,293.033H264.1l1.852-203.408,201.872-3.941Z" transform="translate(-264.095 -85.683)" fill="#ebebeb"/>
      </g>
      <g id="Grupo_1112611" data-name="Grupo 1112611" transform="translate(0.441 23.055)">
        <g id="Grupo_1112610" data-name="Grupo 1112610" transform="translate(0.259 0.224)">
          <path id="Trazado_902792" data-name="Trazado 902792" d="M467.665,287.344H260.177V83.936l207.614-.485Z" transform="translate(-260.177 -83.451)" fill="#fafafa"/>
        </g>
        <path id="Trazado_902793" data-name="Trazado 902793" d="M467.663,287.343c0-1.9-.039-81.6-.1-203.894l.223.223-207.286.52h-.326l.258-.258c-.013,74.409-.025,144.184-.035,203.407l-.223-.223,207.488.224-207.488.224h-.224v-.225c-.01-59.223-.022-129-.035-203.407v-.258h.584l207.289-.449h.224v.223C467.8,205.747,467.666,285.445,467.663,287.343Z" transform="translate(-259.916 -83.226)" fill="#263238"/>
      </g>
      <g id="Grupo_1112612" data-name="Grupo 1112612" transform="translate(0 0.705)">
        <path id="Trazado_902794" data-name="Trazado 902794" d="M467.786,82.743c-10.718-12.48,1.719-21.719,5.912-21.913l-197.567-.112A16.64,16.64,0,0,0,259.722,80.2a22.9,22.9,0,0,0,.8,3.093" transform="translate(-259.472 -60.717)" fill="#f5f5f5"/>
      </g>
      <g id="Grupo_1112613" data-name="Grupo 1112613" transform="translate(203.935 1.241)">
        <path id="Trazado_902795" data-name="Trazado 902795" d="M474.475,158.287a1.3,1.3,0,0,1,.271-.022l.8-.022,3.1-.041,11.7-.073-.047.308a12.531,12.531,0,0,1-4.773-2.734,15.544,15.544,0,0,1-3.563-5.077,33.95,33.95,0,0,1-2.13-6.5c-.27-1.158-.507-2.345-.729-3.559-.107-.607-.232-1.213-.287-1.85a15.3,15.3,0,0,1-.143-1.908,70.742,70.742,0,0,1,.266-7.906c.2-2.7.5-5.472.827-8.3.677-5.653,1.528-11.539,2.53-17.572.411-2.579.933-5.123,1.359-7.616.408-2.5.743-4.989,1.057-7.429q.441-3.667.865-7.2c.126-1.18.289-2.34.316-3.479a20.942,20.942,0,0,0-.19-3.388,20.333,20.333,0,0,0-1.873-6.236,12.442,12.442,0,0,0-3.793-4.731,7.463,7.463,0,0,0-5.4-1.206,9.914,9.914,0,0,0-4.809,2,11.856,11.856,0,0,0-3,3.716,15.983,15.983,0,0,0-1.458,4.045,10.561,10.561,0,0,0,.789,6.726,22.386,22.386,0,0,0,2.187,3.8l.667.931a2.3,2.3,0,0,1,.218.325,2.093,2.093,0,0,1-.26-.293c-.168-.2-.4-.5-.71-.9a20.815,20.815,0,0,1-2.287-3.779,10.72,10.72,0,0,1-.889-6.868,16.179,16.179,0,0,1,1.45-4.138,12.145,12.145,0,0,1,3.065-3.85,10.275,10.275,0,0,1,4.982-2.107,7.865,7.865,0,0,1,5.7,1.249,12.838,12.838,0,0,1,3.957,4.882,20.741,20.741,0,0,1,1.937,6.372,21.527,21.527,0,0,1,.2,3.465c-.026,1.18-.188,2.346-.311,3.522q-.393,3.534-.853,7.206c-.312,2.446-.644,4.932-1.052,7.449-.43,2.522-.946,5.036-1.357,7.618-1,6.025-1.856,11.9-2.541,17.546-.332,2.822-.638,5.584-.843,8.278a70.819,70.819,0,0,0-.288,7.85,14.633,14.633,0,0,0,.133,1.868c.049.613.172,1.224.276,1.829.215,1.208.448,2.391.71,3.541a33.709,33.709,0,0,0,2.069,6.426,15.237,15.237,0,0,0,3.446,4.981,12.251,12.251,0,0,0,4.621,2.7l.972.314-1.018-.006-11.7-.073-3.1-.041-.8-.022a1.21,1.21,0,0,1-.266-.021Z" transform="translate(-464.855 -61.257)" fill="#263238"/>
      </g>
      <g id="Grupo_1112614" data-name="Grupo 1112614" transform="translate(83.039 7.033)">
        <path id="Trazado_902796" data-name="Trazado 902796" d="M345.649,67.092c.081.057-.51.847-1.1,2.29A13.016,13.016,0,0,0,343.8,72a13.451,13.451,0,0,0,.5,6.582,13.014,13.014,0,0,0,1.137,2.474c.8,1.335,1.506,2.027,1.435,2.094-.025.026-.214-.13-.539-.439a8.457,8.457,0,0,1-1.2-1.46,11.593,11.593,0,0,1-1.278-2.513,12.766,12.766,0,0,1-.523-6.827,11.6,11.6,0,0,1,.879-2.677,8.456,8.456,0,0,1,.968-1.627C345.457,67.254,345.621,67.071,345.649,67.092Z" transform="translate(-343.1 -67.09)" fill="#263238"/>
      </g>
      <g id="Grupo_1112615" data-name="Grupo 1112615" transform="translate(75.439)">
        <path id="Trazado_902797" data-name="Trazado 902797" d="M340.662,60.009a21.211,21.211,0,0,0-2.624,3.206,13.127,13.127,0,0,0,3.308,17.735,21.275,21.275,0,0,0,3.6,2.043,3.924,3.924,0,0,1-1.09-.3,11.9,11.9,0,0,1-2.729-1.45,13.11,13.11,0,0,1-3.4-18.228,11.852,11.852,0,0,1,2.022-2.336,3.893,3.893,0,0,1,.913-.67Z" transform="translate(-335.446 -60.007)" fill="#263238"/>
      </g>
      <g id="Grupo_1112616" data-name="Grupo 1112616" transform="translate(27.862 71.305)">
        <path id="Trazado_902798" data-name="Trazado 902798" d="M451.993,219.3s-.22.018-.65.027l-1.906.026-7.334.049-26.97.082-88.98.075-38.373-.013h-.247V219.3c.038-25.421.07-47.286.092-62.814.031-7.742.055-13.9.071-18.149.017-2.1.031-3.725.04-4.844.009-.537.016-.951.021-1.249.007-.28.022-.423.022-.423s.014.143.021.423c0,.3.012.712.021,1.249.01,1.119.023,2.743.041,4.844.016,4.245.041,10.407.071,18.149.023,15.528.055,37.392.092,62.814l-.246-.245,38.373-.013,88.98.075,26.97.082,7.334.049,1.906.026C451.772,219.28,451.993,219.3,451.993,219.3Z" transform="translate(-287.531 -131.819)" fill="#263238"/>
      </g>
      <g id="Grupo_1112617" data-name="Grupo 1112617" transform="translate(41.455 137.172)">
        <rect id="Rectángulo_405198" data-name="Rectángulo 405198" width="16.588" height="16.588" fill="#aed3f2"/>
      </g>
      <g id="Grupo_1112618" data-name="Grupo 1112618" transform="translate(65.773 125.314)">
        <rect id="Rectángulo_405199" data-name="Rectángulo 405199" width="16.588" height="28.447" fill="#344154"/>
      </g>
      <g id="Grupo_1112619" data-name="Grupo 1112619" transform="translate(90.189 111.843)">
        <rect id="Rectángulo_405200" data-name="Rectángulo 405200" width="16.588" height="41.918" fill="#aed3f2"/>
      </g>
      <g id="Grupo_1112620" data-name="Grupo 1112620" transform="translate(113.858 96.847)">
        <rect id="Rectángulo_405201" data-name="Rectángulo 405201" width="16.588" height="56.913" fill="#344154"/>
      </g>
      <g id="Grupo_1112621" data-name="Grupo 1112621" transform="translate(138.078 77.647)">
        <rect id="Rectángulo_405202" data-name="Rectángulo 405202" width="16.588" height="76.113" fill="#d9a171"/>
      </g>
      <g id="Grupo_1112622" data-name="Grupo 1112622" transform="translate(162.117 63.004)">
        <rect id="Rectángulo_405203" data-name="Rectángulo 405203" width="16.588" height="89.969" fill="#344154"/>
      </g>
      <g id="Grupo_1112623" data-name="Grupo 1112623" transform="translate(41.455 45.684)">
        <path id="Trazado_902799" data-name="Trazado 902799" d="M301.221,180.5a1.247,1.247,0,0,1,.211-.164l.646-.445,2.527-1.691,9.505-6.267,32.918-21.514.38-.249v.457c0,2.349,0,4.863.006,7.424l-.394-.211,12.972-8.7,45.776-30.583,13.9-9.219,3.8-2.484.994-.635a2.209,2.209,0,0,1,.349-.2,2.372,2.372,0,0,1-.319.245l-.966.678-3.74,2.565-13.813,9.356L360.282,149.57,347.3,158.259l-.394.265v-.476c0-2.561,0-5.075.007-7.424l.381.207L314.28,172.19l-9.584,6.146-2.572,1.623-.669.41A1.234,1.234,0,0,1,301.221,180.5Z" transform="translate(-301.221 -106.016)" fill="#263238"/>
      </g>
      <g id="Grupo_1112624" data-name="Grupo 1112624" transform="translate(156.719 45.388)">
        <path id="Trazado_902800" data-name="Trazado 902800" d="M425.631,113.035a8.573,8.573,0,0,1-.176-2.045c-.046-1.27-.076-3.034-.081-5.013l.257.257H425c-2.125,0-4.048-.029-5.44-.075a9.823,9.823,0,0,1-2.253-.183,9.827,9.827,0,0,1,2.253-.183c1.392-.047,3.315-.075,5.44-.075h.892v.257c-.006,1.979-.037,3.743-.082,5.013A8.564,8.564,0,0,1,425.631,113.035Z" transform="translate(-417.304 -105.718)" fill="#263238"/>
      </g>
      <g id="Grupo_1112652" data-name="Grupo 1112652" transform="translate(14.838 171.904)">
        <g id="Grupo_1112625" data-name="Grupo 1112625" transform="translate(39.65)">
          <path id="Trazado_902801" data-name="Trazado 902801" d="M337.249,233.391c0,.142-5.128.258-11.451.258s-11.452-.116-11.452-.258,5.127-.259,11.452-.259S337.249,233.248,337.249,233.391Z" transform="translate(-314.347 -233.132)" fill="#263238"/>
        </g>
        <g id="Grupo_1112626" data-name="Grupo 1112626" transform="translate(50.533 2.735)">
          <path id="Trazado_902802" data-name="Trazado 902802" d="M325.566,241.251a14.012,14.012,0,0,1,0-5.365,14.066,14.066,0,0,1,0,5.365Z" transform="translate(-325.307 -235.886)" fill="#263238"/>
        </g>
        <g id="Grupo_1112627" data-name="Grupo 1112627" transform="translate(17.368 10.523)">
          <path id="Trazado_902803" data-name="Trazado 902803" d="M353.39,243.988c0,.143-13.765.258-30.741.258s-30.744-.115-30.744-.258,13.762-.258,30.744-.258S353.39,243.845,353.39,243.988Z" transform="translate(-291.906 -243.73)" fill="#263238"/>
        </g>
        <g id="Grupo_1112628" data-name="Grupo 1112628" transform="translate(17.522 10.988)">
          <path id="Trazado_902804" data-name="Trazado 902804" d="M292.32,251.625a26.746,26.746,0,0,1,0-7.427A26.838,26.838,0,0,1,292.32,251.625Z" transform="translate(-292.061 -244.198)" fill="#263238"/>
        </g>
        <g id="Grupo_1112629" data-name="Grupo 1112629" transform="translate(39.392 11.194)">
          <path id="Trazado_902805" data-name="Trazado 902805" d="M314.345,250.8a19.921,19.921,0,0,1,0-6.4,19.868,19.868,0,0,1,0,6.4Z" transform="translate(-314.087 -244.406)" fill="#263238"/>
        </g>
        <g id="Grupo_1112630" data-name="Grupo 1112630" transform="translate(61.881 10.988)">
          <path id="Trazado_902806" data-name="Trazado 902806" d="M336.994,251.213a23.947,23.947,0,0,1,0-7.015A23.873,23.873,0,0,1,336.994,251.213Z" transform="translate(-336.736 -244.198)" fill="#263238"/>
        </g>
        <g id="Grupo_1112631" data-name="Grupo 1112631" transform="translate(79.006 10.781)">
          <path id="Trazado_902807" data-name="Trazado 902807" d="M354.241,251.212a25.3,25.3,0,0,1,0-7.222,25.387,25.387,0,0,1,0,7.222Z" transform="translate(-353.982 -243.99)" fill="#263238"/>
        </g>
        <g id="Grupo_1112632" data-name="Grupo 1112632" transform="translate(10.559 20.22)">
          <path id="Trazado_902808" data-name="Trazado 902808" d="M299.9,253.754a53.59,53.59,0,0,1-7.427.258,53.588,53.588,0,0,1-7.428-.258,53.567,53.567,0,0,1,7.428-.258A53.571,53.571,0,0,1,299.9,253.754Z" transform="translate(-285.049 -253.496)" fill="#263238"/>
        </g>
        <g id="Grupo_1112633" data-name="Grupo 1112633" transform="translate(33.048 20.22)">
          <path id="Trazado_902809" data-name="Trazado 902809" d="M319.045,253.754a62.477,62.477,0,0,1-11.347,0,62.473,62.473,0,0,1,11.347,0Z" transform="translate(-307.698 -253.496)" fill="#263238"/>
        </g>
        <g id="Grupo_1112634" data-name="Grupo 1112634" transform="translate(56.363 20.839)">
          <path id="Trazado_902810" data-name="Trazado 902810" d="M343.351,254.377a71.627,71.627,0,0,1-12.173,0A71.877,71.877,0,0,1,343.351,254.377Z" transform="translate(-331.178 -254.119)" fill="#263238"/>
        </g>
        <g id="Grupo_1112635" data-name="Grupo 1112635" transform="translate(75.138 19.807)">
          <path id="Trazado_902811" data-name="Trazado 902811" d="M363.086,253.338a81.63,81.63,0,0,1-13,0,81.931,81.931,0,0,1,13,0Z" transform="translate(-350.087 -253.08)" fill="#263238"/>
        </g>
        <g id="Grupo_1112640" data-name="Grupo 1112640" transform="translate(5.028 23.367)">
          <g id="Grupo_1112636" data-name="Grupo 1112636" transform="translate(12.7)">
            <path id="Trazado_902812" data-name="Trazado 902812" d="M292.527,261a9.222,9.222,0,0,1,0-4.333A9.189,9.189,0,0,1,292.527,261Z" transform="translate(-292.269 -256.665)" fill="#263238"/>
          </g>
          <g id="Grupo_1112637" data-name="Grupo 1112637" transform="translate(0.258 4.074)">
            <path id="Trazado_902813" data-name="Trazado 902813" d="M306.561,261.027c0,.142-6.005.258-13.411.258s-13.412-.116-13.412-.258,6-.259,13.412-.259S306.561,260.884,306.561,261.027Z" transform="translate(-279.739 -260.768)" fill="#263238"/>
          </g>
          <g id="Grupo_1112638" data-name="Grupo 1112638" transform="translate(26.821 4.333)">
            <path id="Trazado_902814" data-name="Trazado 902814" d="M306.75,267.218a18.6,18.6,0,0,1,0-6.189,18.686,18.686,0,0,1,0,6.189Z" transform="translate(-306.491 -261.029)" fill="#263238"/>
          </g>
          <g id="Grupo_1112639" data-name="Grupo 1112639" transform="translate(0 4.333)">
            <path id="Trazado_902815" data-name="Trazado 902815" d="M279.737,267.631a21.236,21.236,0,0,1,0-6.6,21.245,21.245,0,0,1,0,6.6Z" transform="translate(-279.479 -261.029)" fill="#263238"/>
          </g>
        </g>
        <g id="Grupo_1112646" data-name="Grupo 1112646" transform="translate(49.731 23.367)">
          <g id="Grupo_1112641" data-name="Grupo 1112641" transform="translate(12.7)">
            <path id="Trazado_902816" data-name="Trazado 902816" d="M337.548,261a9.189,9.189,0,0,1,0-4.333A9.218,9.218,0,0,1,337.548,261Z" transform="translate(-337.289 -256.665)" fill="#263238"/>
          </g>
          <g id="Grupo_1112642" data-name="Grupo 1112642" transform="translate(0.258 4.074)">
            <path id="Trazado_902817" data-name="Trazado 902817" d="M370.064,261.027c0,.142-10.143.258-22.651.258s-22.654-.116-22.654-.258,10.141-.259,22.654-.259S370.064,260.884,370.064,261.027Z" transform="translate(-324.759 -260.768)" fill="#263238"/>
          </g>
          <g id="Grupo_1112643" data-name="Grupo 1112643" transform="translate(26.821 4.333)">
            <path id="Trazado_902818" data-name="Trazado 902818" d="M351.77,267.218a18.608,18.608,0,0,1,0-6.189A18.669,18.669,0,0,1,351.77,267.218Z" transform="translate(-351.511 -261.029)" fill="#263238"/>
          </g>
          <g id="Grupo_1112644" data-name="Grupo 1112644" transform="translate(46.231 4.333)">
            <path id="Trazado_902819" data-name="Trazado 902819" d="M371.316,267.218a18.683,18.683,0,0,1,0-6.189,18.669,18.669,0,0,1,0,6.189Z" transform="translate(-371.058 -261.029)" fill="#263238"/>
          </g>
          <g id="Grupo_1112645" data-name="Grupo 1112645" transform="translate(0 4.333)">
            <path id="Trazado_902820" data-name="Trazado 902820" d="M324.757,267.631a21.236,21.236,0,0,1,0-6.6,21.153,21.153,0,0,1,0,6.6Z" transform="translate(-324.499 -261.029)" fill="#263238"/>
          </g>
        </g>
        <g id="Grupo_1112647" data-name="Grupo 1112647" transform="translate(0 37.848)">
          <path id="Trazado_902821" data-name="Trazado 902821" d="M284.988,271.507a54.257,54.257,0,0,1-10.573,0A54.257,54.257,0,0,1,284.988,271.507Z" transform="translate(-274.415 -271.249)" fill="#263238"/>
        </g>
        <g id="Grupo_1112648" data-name="Grupo 1112648" transform="translate(25.414 37.091)">
          <path id="Trazado_902822" data-name="Trazado 902822" d="M311.435,270.745a63.335,63.335,0,0,1-11.425,0A63.1,63.1,0,0,1,311.435,270.745Z" transform="translate(-300.01 -270.486)" fill="#263238"/>
        </g>
        <g id="Grupo_1112649" data-name="Grupo 1112649" transform="translate(45.761 37.091)">
          <path id="Trazado_902823" data-name="Trazado 902823" d="M330.563,270.745a49.146,49.146,0,0,1-10.061,0A48.971,48.971,0,0,1,330.563,270.745Z" transform="translate(-320.501 -270.486)" fill="#263238"/>
        </g>
        <g id="Grupo_1112650" data-name="Grupo 1112650" transform="translate(70.493 37.091)">
          <path id="Trazado_902824" data-name="Trazado 902824" d="M356.323,270.745a57.8,57.8,0,0,1-10.913,0,57.592,57.592,0,0,1,10.913,0Z" transform="translate(-345.409 -270.486)" fill="#263238"/>
        </g>
        <g id="Grupo_1112651" data-name="Grupo 1112651" transform="translate(90.786 36.408)">
          <path id="Trazado_902825" data-name="Trazado 902825" d="M376.93,270.057a59.39,59.39,0,0,1-11.084,0A59.626,59.626,0,0,1,376.93,270.057Z" transform="translate(-365.846 -269.799)" fill="#263238"/>
        </g>
      </g>
      <g id="Grupo_1112658" data-name="Grupo 1112658" transform="translate(122.126 169.222)">
        <path id="Trazado_902826" data-name="Trazado 902826" d="M452.513,273.8H382.465V230.431h70.048Zm-70-.05h69.948V230.481H382.516Z" transform="translate(-382.465 -230.431)" fill="#263238"/>
        <g id="Grupo_1112653" data-name="Grupo 1112653" transform="translate(7.466 12.777)">
          <path id="Trazado_902827" data-name="Trazado 902827" d="M435.643,261.87c-4.854-1.84-10.437,3.249-15.2,1.174-2.768-1.207-4.024-4.339-5.381-7.038s-3.694-5.546-6.7-5.233c-3.03.317-5.48,3.825-8.407,2.979-1.845-.532-2.766-2.579-3.229-4.442s-.783-3.924-2.189-5.231-4.338-.957-4.559.95V268h54.738S437.322,262.508,435.643,261.87Z" transform="translate(-389.984 -243.299)" fill="#aed3f2"/>
        </g>
        <g id="Grupo_1112654" data-name="Grupo 1112654" transform="translate(4.402 37.384)">
          <path id="Trazado_902828" data-name="Trazado 902828" d="M446.162,268.17c0,.049-13.268.088-29.631.088s-29.633-.04-29.633-.088,13.265-.089,29.633-.089S446.162,268.121,446.162,268.17Z" transform="translate(-386.898 -268.081)" fill="#e0e0e0"/>
        </g>
        <g id="Grupo_1112655" data-name="Grupo 1112655" transform="translate(4.402 27.353)">
          <path id="Trazado_902829" data-name="Trazado 902829" d="M446.162,258.067c0,.05-13.268.089-29.631.089s-29.633-.04-29.633-.089,13.265-.089,29.633-.089S446.162,258.019,446.162,258.067Z" transform="translate(-386.898 -257.978)" fill="#263238"/>
        </g>
        <g id="Grupo_1112656" data-name="Grupo 1112656" transform="translate(4.402 17.322)">
          <path id="Trazado_902830" data-name="Trazado 902830" d="M446.162,247.964c0,.05-13.268.089-29.631.089s-29.633-.04-29.633-.089,13.265-.088,29.633-.088S446.162,247.916,446.162,247.964Z" transform="translate(-386.898 -247.876)" fill="#263238"/>
        </g>
        <g id="Grupo_1112657" data-name="Grupo 1112657" transform="translate(4.402 7.788)">
          <path id="Trazado_902831" data-name="Trazado 902831" d="M446.162,238.363c0,.049-13.268.089-29.631.089s-29.633-.041-29.633-.089,13.265-.089,29.633-.089S446.162,238.314,446.162,238.363Z" transform="translate(-386.898 -238.274)" fill="#263238"/>
        </g>
      </g>
      <g id="Grupo_1112664" data-name="Grupo 1112664" transform="translate(21.994 37.995)">
        <path id="Trazado_902832" data-name="Trazado 902832" d="M287.745,98.285a.4.4,0,0,1,.1-.006h.284a6.382,6.382,0,0,1,1.09.1,5.98,5.98,0,0,1,1.649.564,5.456,5.456,0,0,1,1.758,1.51,6.31,6.31,0,0,1,1.158,2.579,6.109,6.109,0,0,1-.407,3.233,9.571,9.571,0,0,1-.8,1.592,16.959,16.959,0,0,0-.906,1.6,14.047,14.047,0,0,0-1.212,3.683l-.015.086h-.084l-2.594-.063-2.721-.068h-.1V113a7.771,7.771,0,0,0-1.116-3.639c-.294-.551-.618-1.068-.921-1.592a15.261,15.261,0,0,1-.861-1.542,5.067,5.067,0,0,1-.283-3.214,6.83,6.83,0,0,1,1.118-2.576,5.074,5.074,0,0,1,1.771-1.47,6.429,6.429,0,0,1,1.637-.558,6.925,6.925,0,0,1,1.079-.131h.282a.412.412,0,0,1,.1.01.4.4,0,0,1-.1.009l-.28.018a7.9,7.9,0,0,0-1.066.165,6.478,6.478,0,0,0-1.6.58,4.987,4.987,0,0,0-1.714,1.457,6.741,6.741,0,0,0-1.071,2.528,4.921,4.921,0,0,0,.291,3.112,15.055,15.055,0,0,0,.86,1.521c.3.515.629,1.039.927,1.594a7.921,7.921,0,0,1,1.14,3.728l-.1-.1,2.721.066,2.6.064-.1.085a14.144,14.144,0,0,1,1.237-3.739,17.305,17.305,0,0,1,.92-1.617,9.48,9.48,0,0,0,.8-1.56,5.975,5.975,0,0,0,.416-3.143,6.227,6.227,0,0,0-1.109-2.526,5.41,5.41,0,0,0-1.7-1.5,6.076,6.076,0,0,0-1.614-.584,7.443,7.443,0,0,0-1.078-.132l-.282-.019a.326.326,0,0,1-.1-.01Z" transform="translate(-281.621 -98.273)" fill="#263238"/>
        <g id="Grupo_1112659" data-name="Grupo 1112659" transform="translate(2.705 4.906)">
          <path id="Trazado_902833" data-name="Trazado 902833" d="M288.522,112.958s-.006-.028-.013-.082l-.03-.245c-.025-.219-.061-.536-.105-.943-.085-.819-.213-2.006-.271-3.479-.013-.368-.023-.755-.022-1.158a12.553,12.553,0,0,1,.044-1.255,3.518,3.518,0,0,1,.349-1.3,2,2,0,0,1,1.043-.962,1.344,1.344,0,0,1,1.418.33,1,1,0,0,1,.277.732,1.274,1.274,0,0,1-.3.741,1.706,1.706,0,0,1-.652.485,3.294,3.294,0,0,1-.79.227,9.427,9.427,0,0,1-1.664.127,9.822,9.822,0,0,1-1.664-.148,3.147,3.147,0,0,1-.781-.26,2.065,2.065,0,0,1-.642-.5,1.527,1.527,0,0,1-.352-.718,1.184,1.184,0,0,1,.125-.774,1.059,1.059,0,0,1,.57-.512.949.949,0,0,1,.746.065,1.428,1.428,0,0,1,.539.5,1.968,1.968,0,0,1,.252.665,7.92,7.92,0,0,1,.078,1.344c.01.867.02,1.673.029,2.41.015,1.471.027,2.662.035,3.489,0,.409.005.728.006.948v.247l-.008-.246c-.005-.22-.012-.539-.021-.949-.014-.827-.035-2.018-.061-3.488-.012-.737-.025-1.544-.039-2.409a7.878,7.878,0,0,0-.081-1.332,1.866,1.866,0,0,0-.244-.639,1.328,1.328,0,0,0-.51-.47.871.871,0,0,0-.686-.06.977.977,0,0,0-.527.477,1.11,1.11,0,0,0-.116.723,1.459,1.459,0,0,0,.336.68,2.373,2.373,0,0,0,1.379.729,9.6,9.6,0,0,0,1.648.146,9.353,9.353,0,0,0,1.65-.124,3.252,3.252,0,0,0,.771-.221,1.636,1.636,0,0,0,.624-.462,1.2,1.2,0,0,0,.282-.694.924.924,0,0,0-.255-.674,1.266,1.266,0,0,0-1.336-.312,1.922,1.922,0,0,0-1,.924,3.452,3.452,0,0,0-.345,1.275c-.042.429-.043.847-.048,1.249s0,.786.016,1.155c.051,1.471.17,2.658.244,3.478.04.407.069.725.09.944l.022.246A.463.463,0,0,0,288.522,112.958Z" transform="translate(-284.346 -103.214)" fill="#263238"/>
        </g>
        <g id="Grupo_1112660" data-name="Grupo 1112660" transform="translate(3.297 14.616)">
          <path id="Trazado_902834" data-name="Trazado 902834" d="M285.064,113.026c.013.013.022.328.033.876q.012.952.026,2.279l-.019-.056c.5.63,1.071,1.34,1.685,2.108l-.089-.043,2.047-.033-.087.04,1.067-1.2.535-.6-.03.078c.02-1.2.04-2.333.058-3.368l.107.11-3.819-.112-1.1-.046a2.945,2.945,0,0,1-.411-.032,1.944,1.944,0,0,1,.365-.02l1.079-.013h4v.111c-.011,1.035-.023,2.17-.035,3.369v.045l-.031.034q-.264.3-.534.6l-1.07,1.2-.036.04h-.053l-2.047.017h-.057l-.034-.044-1.65-2.135-.02-.027v-.03l.072-2.333A7.11,7.11,0,0,1,285.064,113.026Z" transform="translate(-284.942 -112.993)" fill="#263238"/>
        </g>
        <g id="Grupo_1112661" data-name="Grupo 1112661" transform="translate(3.468 17.061)">
          <path id="Trazado_902835" data-name="Trazado 902835" d="M290.221,116.214a1.234,1.234,0,0,1-.191-.09c-.121-.061-.3-.144-.522-.231a5.169,5.169,0,0,0-3.675-.036,5.656,5.656,0,0,0-.526.221,1.153,1.153,0,0,1-.193.085,1.016,1.016,0,0,1,.178-.114,4.31,4.31,0,0,1,.52-.246,4.911,4.911,0,0,1,3.717.036,4.364,4.364,0,0,1,.515.257.894.894,0,0,1,.177.118Z" transform="translate(-285.114 -115.455)" fill="#263238"/>
        </g>
        <g id="Grupo_1112662" data-name="Grupo 1112662" transform="translate(3.501 16.244)">
          <path id="Trazado_902836" data-name="Trazado 902836" d="M290.253,115.39a1.125,1.125,0,0,1-.191-.089c-.12-.061-.3-.144-.521-.231a5.179,5.179,0,0,0-3.676-.037c-.225.083-.4.163-.526.221a1.222,1.222,0,0,1-.192.086.841.841,0,0,1,.178-.114,4.132,4.132,0,0,1,.52-.247,4.914,4.914,0,0,1,3.717.037,4.146,4.146,0,0,1,.515.257.948.948,0,0,1,.176.117Z" transform="translate(-285.147 -114.632)" fill="#263238"/>
        </g>
        <g id="Grupo_1112663" data-name="Grupo 1112663" transform="translate(3.484 15.464)">
          <path id="Trazado_902837" data-name="Trazado 902837" d="M290.236,114.6a1.123,1.123,0,0,1-.191-.089c-.12-.061-.3-.144-.521-.231a5.172,5.172,0,0,0-3.676-.036c-.225.082-.4.162-.526.22a1.208,1.208,0,0,1-.192.086.9.9,0,0,1,.178-.114,4.278,4.278,0,0,1,.52-.247,4.914,4.914,0,0,1,3.717.037,4.3,4.3,0,0,1,.515.257.941.941,0,0,1,.176.117Z" transform="translate(-285.13 -113.847)" fill="#263238"/>
        </g>
      </g>
      <g id="Grupo_1112670" data-name="Grupo 1112670" transform="translate(48.803 75.011)">
        <g id="Grupo_1112665" data-name="Grupo 1112665" transform="translate(0 0.589)">
          <path id="Trazado_902838" data-name="Trazado 902838" d="M309.364,136.144s-2,18.316.572,28.345l24.473-1.07s-5.245-18.068-2.025-26.072Z" transform="translate(-308.621 -136.144)" fill="#ebebeb"/>
        </g>
        <g id="Grupo_1112669" data-name="Grupo 1112669" transform="translate(0.84)">
          <path id="Trazado_902839" data-name="Trazado 902839" d="M309.467,135.551s.168,19.775,1.173,25.808l24.8-1.173s-2.179-19.44-1.341-24.635Z" transform="translate(-309.467 -135.551)" fill="#d9a171"/>
          <g id="Grupo_1112666" data-name="Grupo 1112666" transform="translate(4.253 8.279)">
            <path id="Trazado_902840" data-name="Trazado 902840" d="M330.394,143.916c.006.091-3.717.389-8.311.666s-8.327.426-8.333.335,3.716-.389,8.312-.665S330.388,143.824,330.394,143.916Z" transform="translate(-313.75 -143.889)" fill="#fff"/>
          </g>
          <g id="Grupo_1112667" data-name="Grupo 1112667" transform="translate(4.26 12.468)">
            <path id="Trazado_902841" data-name="Trazado 902841" d="M330.4,148.134c0,.091-3.717.389-8.312.666s-8.327.427-8.332.336,3.716-.389,8.312-.666S330.395,148.043,330.4,148.134Z" transform="translate(-313.757 -148.108)" fill="#fff"/>
          </g>
          <g id="Grupo_1112668" data-name="Grupo 1112668" transform="translate(7.205 16.563)">
            <path id="Trazado_902842" data-name="Trazado 902842" d="M326.206,152.276a5.846,5.846,0,0,1-1.382.2c-.856.081-2.04.172-3.349.25s-2.5.131-3.355.153a5.877,5.877,0,0,1-1.4-.033,5.841,5.841,0,0,1,1.381-.2c.857-.081,2.04-.172,3.35-.25s2.5-.132,3.355-.153a5.882,5.882,0,0,1,1.4.033Z" transform="translate(-316.723 -152.232)" fill="#fff"/>
          </g>
        </g>
      </g>
      <g id="Grupo_1112671" data-name="Grupo 1112671" transform="translate(41.397 42.643)">
        <path id="Trazado_902843" data-name="Trazado 902843" d="M365.963,103.212c0,.143-14.507.258-32.4.258s-32.4-.115-32.4-.258,14.5-.259,32.4-.259S365.963,103.069,365.963,103.212Z" transform="translate(-301.163 -102.953)" fill="#263238"/>
      </g>
      <g id="Grupo_1112672" data-name="Grupo 1112672" transform="translate(40.891 48.549)">
        <path id="Trazado_902844" data-name="Trazado 902844" d="M324.953,109.16c0,.143-5.44.258-12.15.258s-12.151-.115-12.151-.258,5.439-.259,12.151-.259S324.953,109.017,324.953,109.16Z" transform="translate(-300.653 -108.901)" fill="#263238"/>
      </g>
      <g id="Grupo_1112673" data-name="Grupo 1112673" transform="translate(68.734 48.549)">
        <path id="Trazado_902845" data-name="Trazado 902845" d="M338.06,109.16a42.61,42.61,0,0,1-9.366,0A42.445,42.445,0,0,1,338.06,109.16Z" transform="translate(-328.694 -108.901)" fill="#263238"/>
      </g>
      <g id="Grupo_1112674" data-name="Grupo 1112674" transform="translate(208.302 23.278)">
        <path id="Trazado_902846" data-name="Trazado 902846" d="M474.507,171.274a.748.748,0,0,1-.041-.224c-.018-.181-.039-.4-.065-.664q-.073-.943-.2-2.556c-.155-2.269-.374-5.47-.643-9.4-.5-7.986-1.177-18.941-1.928-31.043-.693-12.11-1.321-23.07-1.777-31.058-.2-3.94-.364-7.144-.48-9.415q-.065-1.616-.1-2.562c-.006-.266-.01-.485-.014-.666a.73.73,0,0,1,.013-.228.775.775,0,0,1,.04.225l.066.664q.073.943.2,2.555c.155,2.269.374,5.47.643,9.4.5,7.987,1.177,18.942,1.929,31.048.692,12.1,1.32,23.063,1.776,31.052.2,3.94.364,7.144.48,9.416q.065,1.615.1,2.562c.006.266.011.486.014.666A.792.792,0,0,1,474.507,171.274Z" transform="translate(-469.253 -83.451)" fill="#263238"/>
      </g>
      <g id="Grupo_1112675" data-name="Grupo 1112675" transform="translate(0.355 0.214)">
        <path id="Trazado_902847" data-name="Trazado 902847" d="M467.789,60.822s-.2.018-.576.026l-1.689.022-6.494.034-23.884.03-78.8-.1-81.575-.262h.042a19.629,19.629,0,0,0-10.371,6.465,19.141,19.141,0,0,0-4.031,8.319,19.966,19.966,0,0,0-.384,5.844c.06.668.123,1.176.181,1.514a4.877,4.877,0,0,1,.067.515,13.746,13.746,0,0,1-.346-2.02,19.587,19.587,0,0,1,4.3-14.35,19.88,19.88,0,0,1,10.5-6.63h.043l81.575.1,78.8.248,23.883.135,6.494.063,1.689.029A5.279,5.279,0,0,1,467.789,60.822Z" transform="translate(-259.829 -60.223)" fill="#263238"/>
      </g>
    </g>
    <g id="Grupo_1112753" data-name="Grupo 1112753" transform="translate(147.647 116.529)">
      <g id="Grupo_1112752" data-name="Grupo 1112752">
        <g id="Grupo_1112682" data-name="Grupo 1112682" transform="translate(5.349 291.724)">
          <g id="Grupo_1112677" data-name="Grupo 1112677" transform="translate(3.85)">
            <path id="Trazado_902848" data-name="Trazado 902848" d="M160.6,410.727l-2.867,53.136,19.247,4.65,3.833-51.908Z" transform="translate(-157.733 -410.727)" fill="#ffbf9d"/>
          </g>
          <g id="Grupo_1112681" data-name="Grupo 1112681" transform="translate(0 52.685)">
            <path id="Trazado_902849" data-name="Trazado 902849" d="M157.133,463.785,153.856,478.2h22.149l.948-9.387Z" transform="translate(-153.856 -463.785)" fill="#d9a171"/>
            <g id="Grupo_1112678" data-name="Grupo 1112678" transform="translate(0.601 11.599)">
              <path id="Trazado_902850" data-name="Trazado 902850" d="M176.462,476.193a15.587,15.587,0,0,1-3.227.185c-1.994.022-4.747-.032-7.784-.143l-7.772-.331a18.071,18.071,0,0,1-3.218-.259,15.7,15.7,0,0,1,3.227-.175c1.994-.017,4.747.039,7.785.151l7.77.323a18.348,18.348,0,0,1,3.219.249Z" transform="translate(-154.461 -475.467)" fill="#263238"/>
            </g>
            <g id="Grupo_1112679" data-name="Grupo 1112679" transform="translate(12.467 2.811)">
              <path id="Trazado_902851" data-name="Trazado 902851" d="M167.163,466.616c.169.011.166,2.1-.007,4.669s-.451,4.639-.62,4.628-.167-2.1.007-4.67S166.993,466.6,167.163,466.616Z" transform="translate(-166.411 -466.616)" fill="#263238"/>
            </g>
            <g id="Grupo_1112680" data-name="Grupo 1112680" transform="translate(0 11.777)" opacity="0.6">
              <path id="Trazado_902852" data-name="Trazado 902852" d="M153.856,478.288h22.149l.211-2.094-21.961-.548-.4,2.392" transform="translate(-153.856 -475.646)" fill="#fff"/>
            </g>
          </g>
        </g>
        <g id="Grupo_1112693" data-name="Grupo 1112693" transform="translate(85.147 317.559)">
          <path id="Trazado_902853" data-name="Trazado 902853" d="M234.221,436.745l4.672,35.207,17.037-1.185-3.582-32.278Z" transform="translate(-234.221 -436.745)" fill="#ffbf9d"/>
          <g id="Grupo_1112692" data-name="Grupo 1112692" transform="translate(4.413 24.311)">
            <g id="Grupo_1112689" data-name="Grupo 1112689" transform="translate(0 5.537)">
              <g id="Grupo_1112683" data-name="Grupo 1112683" transform="translate(0 0.353)">
                <path id="Trazado_902854" data-name="Trazado 902854" d="M256.139,467.16h0s19.14,6.468,19.457,9.958L239,478.185l-.328-9.57,1.354.269a27.2,27.2,0,0,0,16.117-1.724Z" transform="translate(-238.665 -467.16)" fill="#d9a171"/>
              </g>
              <g id="Grupo_1112684" data-name="Grupo 1112684" transform="translate(3.26 3.406)" opacity="0.6">
                <path id="Trazado_902855" data-name="Trazado 902855" d="M242.972,470.306a1.5,1.5,0,0,0-.983,1.736,1.438,1.438,0,0,0,1.712.991,1.579,1.579,0,0,0,1.033-1.844,1.492,1.492,0,0,0-1.9-.833" transform="translate(-241.948 -470.235)" fill="#fff"/>
              </g>
              <g id="Grupo_1112685" data-name="Grupo 1112685" transform="translate(0.328 8.41)" opacity="0.6">
                <path id="Trazado_902856" data-name="Trazado 902856" d="M239,478.243l.015-2.969,35.088.086s1.65.661,1.5,1.815Z" transform="translate(-238.995 -475.274)" fill="#fff"/>
              </g>
              <g id="Grupo_1112686" data-name="Grupo 1112686" transform="translate(14.783)">
                <path id="Trazado_902857" data-name="Trazado 902857" d="M256.832,466.954c0,.18-.893.286-1.756.887-.878.578-1.309,1.365-1.476,1.3-.165-.031.07-1.107,1.127-1.815S256.865,466.789,256.832,466.954Z" transform="translate(-253.553 -466.805)" fill="#263238"/>
              </g>
              <g id="Grupo_1112687" data-name="Grupo 1112687" transform="translate(19.589 1.559)">
                <path id="Trazado_902858" data-name="Trazado 902858" d="M260.751,468.441c.046.172-.72.5-1.3,1.272-.608.757-.737,1.578-.915,1.576-.167.033-.321-1.011.425-1.958S260.742,468.271,260.751,468.441Z" transform="translate(-258.393 -468.374)" fill="#263238"/>
              </g>
              <g id="Grupo_1112688" data-name="Grupo 1112688" transform="translate(24.025 3.034)">
                <path id="Trazado_902859" data-name="Trazado 902859" d="M263.1,472.983c-.162.043-.437-.843-.006-1.835s1.255-1.406,1.334-1.259c.105.143-.422.684-.762,1.5C263.3,472.2,263.274,472.96,263.1,472.983Z" transform="translate(-262.861 -469.86)" fill="#263238"/>
              </g>
            </g>
            <g id="Grupo_1112690" data-name="Grupo 1112690" transform="translate(12.032 2.779)">
              <path id="Trazado_902860" data-name="Trazado 902860" d="M256.411,466.843a3.441,3.441,0,0,1-1.833.044,8.212,8.212,0,0,1-1.935-.533,8.664,8.664,0,0,1-1.069-.527,2.3,2.3,0,0,1-.566-.415.779.779,0,0,1-.109-.948.981.981,0,0,1,.771-.432,2.383,2.383,0,0,1,.691.076,6.473,6.473,0,0,1,2.874,1.417c.872.763,1.182,1.422,1.121,1.458-.079.062-.508-.486-1.392-1.11A7.288,7.288,0,0,0,253.3,465a6.711,6.711,0,0,0-1.062-.294c-.39-.091-.72-.084-.814.092-.035.066-.039.093.046.2a1.864,1.864,0,0,0,.416.3,9.717,9.717,0,0,0,.985.525,10.175,10.175,0,0,0,1.791.628,12.462,12.462,0,0,1,1.749.392Z" transform="translate(-250.782 -464.027)" fill="#263238"/>
            </g>
            <g id="Grupo_1112691" data-name="Grupo 1112691" transform="translate(16.882)">
              <path id="Trazado_902861" data-name="Trazado 902861" d="M256.22,467.086a2.931,2.931,0,0,1-.535-1.757,5.93,5.93,0,0,1,.627-3.141,1.511,1.511,0,0,1,1.142-.959.854.854,0,0,1,.78.489,2.513,2.513,0,0,1,.209.666,4.089,4.089,0,0,1,.037,1.234,4.211,4.211,0,0,1-.728,1.917c-.687.969-1.427,1.2-1.444,1.144-.063-.087.551-.451,1.071-1.378a4.227,4.227,0,0,0,.529-1.74,3.74,3.74,0,0,0-.065-1.059c-.068-.387-.223-.7-.368-.652-.182,0-.483.3-.624.619a6.178,6.178,0,0,0-.425,1.007,6.646,6.646,0,0,0-.3,1.84C256.106,466.392,256.316,467.057,256.22,467.086Z" transform="translate(-255.667 -461.228)" fill="#263238"/>
            </g>
          </g>
        </g>
        <g id="Grupo_1112701" data-name="Grupo 1112701" transform="translate(9.462 139.34)">
          <path id="Trazado_902862" data-name="Trazado 902862" d="M174.836,257.26s-13.508,22.57-13.508,36.071L158,457.769l21.348,5.088,16.286-160.7s39.442,161.112,40.708,161.112,20.687-3.482,20.687-3.482L227.574,257.984Z" transform="translate(-157.998 -257.26)" fill="#344154"/>
          <g id="Grupo_1112694" data-name="Grupo 1112694" transform="translate(8.835 40.484)">
            <path id="Trazado_902863" data-name="Trazado 902863" d="M183.307,298.032a2.2,2.2,0,0,1-.041.415c-.044.3-.1.7-.177,1.208-.174,1.094-.42,2.649-.735,4.636-.66,4.022-1.577,9.849-2.662,17.055-2.17,14.374-4.877,34.338-7.152,56.487-2.259,22.129-3.654,42.221-4.443,56.774-.4,7.276-.681,13.167-.85,17.24-.093,2.009-.168,3.582-.219,4.689-.03.511-.054.914-.072,1.218a2.243,2.243,0,0,1-.045.415,2.162,2.162,0,0,1-.016-.417c0-.3.008-.708.014-1.22.026-1.108.063-2.682.109-4.693.1-4.076.318-9.971.663-17.252.683-14.564,2.014-34.672,4.274-56.812s5.044-42.091,7.326-56.491c1.138-7.2,2.117-13.019,2.847-17.03.362-1.979.645-3.528.845-4.618.1-.5.176-.9.233-1.2A2.2,2.2,0,0,1,183.307,298.032Z" transform="translate(-166.896 -298.032)" fill="#455a64"/>
          </g>
          <g id="Grupo_1112695" data-name="Grupo 1112695" transform="translate(59.034 43.205)">
            <path id="Trazado_902864" data-name="Trazado 902864" d="M217.454,300.772c.16-.028,6.673,36.06,14.544,80.6s14.127,80.677,13.967,80.706-6.671-36.053-14.546-80.6S217.294,300.8,217.454,300.772Z" transform="translate(-217.451 -300.772)" fill="#455a64"/>
          </g>
          <g id="Grupo_1112696" data-name="Grupo 1112696" transform="translate(32.86 0.37)">
            <path id="Trazado_902865" data-name="Trazado 902865" d="M195.107,301.886a1.616,1.616,0,0,1-.222-.409c-.129-.276-.319-.683-.545-1.216a43.041,43.041,0,0,1-1.584-4.639,47.131,47.131,0,0,1-1.525-16.052c.106-1.581.322-3.112.566-4.585.269-1.478.644-2.867,1.019-4.182.75-2.632,1.532-4.965,2.2-6.918s1.255-3.52,1.669-4.6l.493-1.235a1.567,1.567,0,0,1,.208-.418,1.617,1.617,0,0,1-.109.453l-.4,1.267c-.382,1.177-.893,2.744-1.512,4.646-.627,1.964-1.371,4.3-2.092,6.93-.359,1.312-.723,2.7-.978,4.143-.234,1.456-.445,2.974-.55,4.537a49.793,49.793,0,0,0,1.363,15.92c.5,2,1.051,3.569,1.419,4.661A12.312,12.312,0,0,1,195.107,301.886Z" transform="translate(-191.091 -257.633)" fill="#455a64"/>
          </g>
          <g id="Grupo_1112697" data-name="Grupo 1112697" transform="translate(42.9 16.776)">
            <path id="Trazado_902866" data-name="Trazado 902866" d="M201.226,274.384a1.9,1.9,0,0,1,.032.316c.013.238.029.524.048.87.035.808.081,1.894.139,3.247.1,2.821.237,6.747.4,11.44l-.137-.2,8.217,3.348-.226.017,6.673-4.062.434-.263-.123.2c.5-5.428.976-10.527,1.384-14.93l.225.247-12.286-.115-3.5-.06-.94-.027a1.847,1.847,0,0,1-.34-.026,10.092,10.092,0,0,1,1.184-.052l3.45-.06,12.434-.115h.248l-.022.25c-.389,4.4-.841,9.505-1.321,14.936l-.012.129-.111.068-.434.263-6.681,4.049-.109.067-.117-.049-8.194-3.4-.135-.057v-.143c-.074-4.754-.134-8.731-.178-11.589q-.015-2-.023-3.2a8.838,8.838,0,0,1,.021-1.1Z" transform="translate(-201.203 -274.155)" fill="#455a64"/>
          </g>
          <g id="Grupo_1112698" data-name="Grupo 1112698" transform="translate(9.248 12.661)">
            <path id="Trazado_902867" data-name="Trazado 902867" d="M170.086,270.014a10.857,10.857,0,0,1-.141,1.106c-.115.755-.27,1.76-.461,3.008-.424,2.614-1.01,6.24-1.711,10.573l-.086-.215,6.207,4.6-.216-.041,7.545-2.1.385-.106-.18.177c1.444-4.919,2.8-9.54,3.97-13.529l.168.284-11.148-2.659-3.175-.783c-.74-.188-1.143-.3-1.157-.317a8.951,8.951,0,0,1,1.085.195l3.15.657,11.345,2.465.235.052-.068.233c-1.152,3.995-2.487,8.622-3.909,13.547l-.04.139-.139.039-.385.106-7.549,2.083-.119.033-.1-.073-6.173-4.648-.11-.082.024-.133c.8-4.376,1.477-8.037,1.962-10.677q.353-1.829.566-2.937A7.994,7.994,0,0,1,170.086,270.014Z" transform="translate(-167.312 -270.011)" fill="#455a64"/>
          </g>
          <g id="Grupo_1112699" data-name="Grupo 1112699" transform="translate(36.867 41.416)">
            <path id="Trazado_902868" data-name="Trazado 902868" d="M213.4,298.986a84.693,84.693,0,0,1-9.082,2.237,84.9,84.9,0,0,1-9.194,1.732,84.727,84.727,0,0,1,9.083-2.237,85.165,85.165,0,0,1,9.193-1.732Z" transform="translate(-195.127 -298.97)" fill="#455a64"/>
          </g>
          <g id="Grupo_1112700" data-name="Grupo 1112700" transform="translate(13.247 38.603)">
            <path id="Trazado_902869" data-name="Trazado 902869" d="M186.693,299.68a8.222,8.222,0,0,1-2.33,0,38.482,38.482,0,0,1-5.552-.871,37.551,37.551,0,0,1-5.376-1.641,8.364,8.364,0,0,1-2.1-1.019,13.775,13.775,0,0,1,2.219.675c1.356.439,3.246,1,5.368,1.481s4.062.815,5.475,1.012a14.208,14.208,0,0,1,2.3.363Z" transform="translate(-171.339 -296.138)" fill="#455a64"/>
          </g>
        </g>
        <g id="Grupo_1112713" data-name="Grupo 1112713" transform="translate(9.077)">
          <g id="Grupo_1112702" data-name="Grupo 1112702" transform="translate(0 10.184)">
            <path id="Trazado_902870" data-name="Trazado 902870" d="M184.227,127.186c.737,2.126-1.782,3.937-3.976,4.439s-4.851.818-5.855,2.832c-.871,1.746.012,3.964-.78,5.746-1.509,3.393-7.6,2.684-8.8,6.2-.82,2.412,1.446,4.9,1.162,7.432-.244,2.182-2.242,3.666-3.995,4.987s-3.6,3.143-3.319,5.32c.32,2.515,3.389,4.256,3.108,6.776-.277,2.479-3.621,3.636-4.1,6.084-.571,2.9,3.066,4.772,4.235,7.492.893,2.078.342,4.754,1.85,6.439,1.546,1.727,4.289,1.388,6.555.908l22.6-4.792c-1.528-3.573-.09-7.754,2.087-10.972s5.08-5.935,6.951-9.34,2.485-7.962.036-10.978" transform="translate(-157.61 -127.186)" fill="#263238"/>
          </g>
          <g id="Grupo_1112703" data-name="Grupo 1112703" transform="translate(61.744 22.504)">
            <path id="Trazado_902871" data-name="Trazado 902871" d="M224.416,145.348a23.237,23.237,0,0,0-.74-3.57,3.592,3.592,0,0,0-.9-1.467c-.446-.424-1.027-.156-1.4.455a11.036,11.036,0,0,0,0,9.163c.368.61.949.878,1.4.454a3.591,3.591,0,0,0,.9-1.467,23.27,23.27,0,0,0,.74-3.569,2.721,2.721,0,0,1,.077,1,9.559,9.559,0,0,1-.425,2.708,3.869,3.869,0,0,1-.985,1.7,1.215,1.215,0,0,1-1.2.281,1.978,1.978,0,0,1-.955-.809,11.079,11.079,0,0,1,0-9.766,1.983,1.983,0,0,1,.955-.809,1.215,1.215,0,0,1,1.2.281,3.869,3.869,0,0,1,.985,1.7,9.554,9.554,0,0,1,.425,2.708,2.734,2.734,0,0,1-.077,1.007Z" transform="translate(-219.793 -139.594)" fill="#263238"/>
          </g>
          <g id="Grupo_1112708" data-name="Grupo 1112708" transform="translate(22.667)">
            <g id="Grupo_1112704" data-name="Grupo 1112704" transform="translate(0 3.753)">
              <path id="Trazado_902872" data-name="Trazado 902872" d="M187.263,166.031c-4.089-6.91-5.261-16.114-6.294-24.076-.487-3.747-1.343-9.082,1.294-11.427,2.823-2.511,3.094-6.383,6.338-8.32s7.644-2.1,10.7.119" transform="translate(-180.438 -120.71)" fill="#263238"/>
            </g>
            <g id="Grupo_1112707" data-name="Grupo 1112707" transform="translate(4.266)">
              <g id="Grupo_1112705" data-name="Grupo 1112705" transform="translate(4.721 7.577)">
                <path id="Trazado_902873" data-name="Trazado 902873" d="M198.656,190.533h0a11.088,11.088,0,0,0,11.958-10.6c.25-6.034.47-12.135.47-12.135s9.148-.83,9.838-9.88.448-29.945.448-29.945h0a31.539,31.539,0,0,0-31.881,1.956l.472,31.857-.051,17.138C189.954,184.676,192.926,190.077,198.656,190.533Z" transform="translate(-189.489 -124.561)" fill="#ffbf9d"/>
              </g>
              <path id="Trazado_902874" data-name="Trazado 902874" d="M211.9,146.792c-1.555-1.939-4.092-2.717-6.18-1.368A5.262,5.262,0,0,0,203.946,152a6.932,6.932,0,0,0,4.431,3.37,3.476,3.476,0,0,1,2.711,3.75c-.267,2.271-4.049,3.114-5.76,4.989-2.661,2.917-8.488,4.139-12.411,4.59-3.857.445-3.391.484-5.624-2.692a12.156,12.156,0,0,1-2.18-7.355q-.177-10.01-.356-20.022a28.674,28.674,0,0,1,.477-7.182,9.645,9.645,0,0,1,3.806-5.93c2.206-1.442,5-1.558,7.506-2.361,3.138-1,5.806-3.076,8.743-4.568s6.536-2.378,9.476-.892c2.111,1.066,3.522,3.18,5.573,4.355,2.921,1.673,6.906,1.307,8.315,5.614a7.292,7.292,0,0,1-.063,4.6c-2,5.849-9.26,8.189-14.476,5.643-.106.992.864,3.2-.19,6.332-.337,1-.46,2.526-2.025,2.55" transform="translate(-184.735 -116.93)" fill="#263238"/>
              <g id="Grupo_1112706" data-name="Grupo 1112706" transform="translate(22.049 31.112)">
                <path id="Trazado_902875" data-name="Trazado 902875" d="M210.42,152.659c.037.014.036.171-.126.39a1.351,1.351,0,0,1-1.011.5,2.492,2.492,0,0,1-2.338-2.5,2.616,2.616,0,0,1,.67-1.912,2.708,2.708,0,0,1,1.42-.812c.932-.193,1.469.153,1.43.211-.023.1-.557-.044-1.3.228a2.271,2.271,0,0,0-1.569,2.256,2.11,2.11,0,0,0,1.7,2.077C210.046,153.14,210.354,152.6,210.42,152.659Z" transform="translate(-206.941 -148.263)" fill="#995037"/>
              </g>
            </g>
          </g>
          <g id="Grupo_1112709" data-name="Grupo 1112709" transform="translate(54.115 27.782)">
            <path id="Trazado_902876" data-name="Trazado 902876" d="M224.385,144.951a33.051,33.051,0,0,1-6.09,1.3,33.038,33.038,0,0,1-6.185.714,33.182,33.182,0,0,1,6.09-1.295,33.188,33.188,0,0,1,6.185-.719Z" transform="translate(-212.11 -144.91)" fill="#263238"/>
          </g>
          <g id="Grupo_1112710" data-name="Grupo 1112710" transform="translate(28.011 37.912)">
            <path id="Trazado_902877" data-name="Trazado 902877" d="M188.027,175.1a2.631,2.631,0,0,0,3.146,1.262,7.526,7.526,0,0,0,3.04-2.062,7.964,7.964,0,0,1,3.015-2.107c2.415-.734,5.37.878,7.4-.621,1.849-1.364,1.608-4.451,3.423-5.859.963-.748,2.308-.844,3.289-1.569,1.834-1.355,1.531-4.384-.01-6.066s-3.862-2.363-6.06-2.972l-19.45,8.29Z" transform="translate(-185.82 -155.111)" fill="#263238"/>
          </g>
          <g id="Grupo_1112711" data-name="Grupo 1112711" transform="translate(7.737 22.753)">
            <path id="Trazado_902878" data-name="Trazado 902878" d="M210.99,139.849a.616.616,0,0,1-.162.119,5,5,0,0,1-.514.287,10.342,10.342,0,0,1-2.13.77,24.6,24.6,0,0,1-3.533.561,35.668,35.668,0,0,0-4.642.641,8.742,8.742,0,0,0-4.8,2.623c-1.314,1.522-1.8,3.713-2.818,5.829a7.55,7.55,0,0,1-2.264,2.851,11.842,11.842,0,0,1-3.387,1.669c-2.39.8-5.02,1.282-7.011,2.97a5.026,5.026,0,0,0-1.8,3.181,22.011,22.011,0,0,0,0,3.778,6.185,6.185,0,0,1-3.348,6.261c-2.035,1.2-4.166,1.832-5.868,2.917a6.874,6.874,0,0,0-2.093,1.931,5.085,5.085,0,0,0-.794,2.477,17.377,17.377,0,0,0,.632,4.6,12.014,12.014,0,0,1,.325,3.574,5.066,5.066,0,0,1-.648,2.175,2.547,2.547,0,0,1-.492.621,5.393,5.393,0,0,0,.912-2.811,12.3,12.3,0,0,0-.417-3.484,17.172,17.172,0,0,1-.727-4.7,5.5,5.5,0,0,1,.827-2.7,7.308,7.308,0,0,1,2.214-2.1c1.767-1.146,3.906-1.8,5.848-2.969a5.653,5.653,0,0,0,3.053-5.782,22.114,22.114,0,0,1,0-3.88,5.614,5.614,0,0,1,1.992-3.541c2.157-1.817,4.881-2.287,7.21-3.069a11.343,11.343,0,0,0,3.232-1.572,7.015,7.015,0,0,0,2.117-2.642c1-2.02,1.506-4.27,2.932-5.9a9.13,9.13,0,0,1,5.082-2.713,34.212,34.212,0,0,1,4.7-.563,26.721,26.721,0,0,0,3.511-.457,15.832,15.832,0,0,0,2.861-.947Z" transform="translate(-165.403 -139.845)" fill="#455a64"/>
          </g>
          <g id="Grupo_1112712" data-name="Grupo 1112712" transform="translate(22.212 25.934)">
            <path id="Trazado_902879" data-name="Trazado 902879" d="M205.852,143.116c0,.064-.7,0-1.894.272a8.6,8.6,0,0,0-4.362,2.606,7.87,7.87,0,0,0-1.737,3.039,13.663,13.663,0,0,0-.355,4.062,10.617,10.617,0,0,1-.672,4.645,4.734,4.734,0,0,1-1.7,1.91,20.536,20.536,0,0,1-2.243,1.2,5.841,5.841,0,0,0-1.934,1.374,3.474,3.474,0,0,0-.76,2.083c-.106,1.509.223,3.192-.52,4.637a7.639,7.639,0,0,1-3.025,3c-1.142.679-2.249,1.18-3.188,1.747a7.875,7.875,0,0,0-2.243,1.858,5.1,5.1,0,0,0-.966,1.958,4.541,4.541,0,0,0,.034,1.876,1.139,1.139,0,0,1-.2-.465,3.4,3.4,0,0,1-.06-1.456,5.143,5.143,0,0,1,.928-2.112,7.993,7.993,0,0,1,2.288-2.014c.95-.6,2.057-1.132,3.15-1.807a7.234,7.234,0,0,0,2.793-2.819c.645-1.253.343-2.8.434-4.445a4.043,4.043,0,0,1,.885-2.414,6.356,6.356,0,0,1,2.118-1.526c1.528-.739,3.06-1.423,3.69-2.839a10.284,10.284,0,0,0,.648-4.391,13.814,13.814,0,0,1,.43-4.2,8.2,8.2,0,0,1,1.9-3.179,8.512,8.512,0,0,1,4.62-2.548,6.037,6.037,0,0,1,1.441-.108A1.586,1.586,0,0,1,205.852,143.116Z" transform="translate(-179.98 -143.048)" fill="#455a64"/>
          </g>
        </g>
        <g id="Grupo_1112714" data-name="Grupo 1112714" transform="translate(38.536 53.657)">
          <path id="Trazado_902880" data-name="Trazado 902880" d="M213.288,176.584l-2.354-4.844-20.447-.772-3.209,6.289h25.677" transform="translate(-187.278 -170.969)" fill="#d9a171"/>
        </g>
        <g id="Grupo_1112750" data-name="Grupo 1112750" transform="translate(0 31.819)">
          <g id="Grupo_1112729" data-name="Grupo 1112729" transform="translate(68.496 31.655)">
            <path id="Trazado_902881" data-name="Trazado 902881" d="M283.775,220.384c-.147-.735,5.41-29.6,6.941-37.533a1.678,1.678,0,0,0-1.648-2H248.129a1.677,1.677,0,0,0-1.633,1.292l-8.383,35.341-20.661,1.541.726,1.355Z" transform="translate(-217.451 -180.855)" fill="#455a64"/>
            <g id="Grupo_1112715" data-name="Grupo 1112715" transform="translate(22.041 1.941)">
              <path id="Trazado_902882" data-name="Trazado 902882" d="M282.139,217.837l6.624-35-40.243.243-8.839,34.808Z" transform="translate(-239.649 -182.81)" fill="#ebebeb"/>
              <path id="Trazado_902883" data-name="Trazado 902883" d="M239.649,217.911l.007-.031,8.844-34.826h.019l40.274-.244-.006.031-6.627,35.02h-.021Zm8.89-34.808-8.826,34.759,42.406-.051,6.615-34.951Z" transform="translate(-239.649 -182.81)" fill="#263238"/>
            </g>
            <g id="Grupo_1112716" data-name="Grupo 1112716" transform="translate(11.892 36.953)">
              <path id="Trazado_902884" data-name="Trazado 902884" d="M282.027,218.328c0,.143-11.776.258-26.3.258s-26.3-.115-26.3-.258,11.773-.258,26.3-.258S282.027,218.185,282.027,218.328Z" transform="translate(-229.427 -218.07)" fill="#263238"/>
            </g>
            <g id="Grupo_1112728" data-name="Grupo 1112728" transform="translate(29.639 5.759)">
              <g id="Grupo_1112725" data-name="Grupo 1112725" transform="translate(0 3.211)">
                <path id="Trazado_902885" data-name="Trazado 902885" d="M279.377,209.292a2.017,2.017,0,0,1-.526.053l-1.507.049-5.547.081c-4.684.048-11.153.076-18.3.076l-5.872-.007H247.3l.081-.314c1.425-5.511,2.669-10.327,3.581-13.854.452-1.667.819-3.027,1.1-4.042a9.789,9.789,0,0,1,.454-1.446,9.837,9.837,0,0,1-.285,1.488c-.238,1.026-.558,2.4-.95,4.079-.867,3.537-2.05,8.369-3.406,13.9l-.244-.313,5.872-.007c7.146,0,13.615.029,18.3.076l5.547.082,1.507.049a2.056,2.056,0,0,1,.52.05Z" transform="translate(-247.301 -189.889)" fill="#455a64"/>
                <g id="Grupo_1112717" data-name="Grupo 1112717" transform="translate(2.925 14.699)">
                  <path id="Trazado_902886" data-name="Trazado 902886" d="M250.247,208.068l.753-3.376h5.179l-.662,3.376Z" transform="translate(-250.247 -204.692)" fill="#d9a171"/>
                </g>
                <g id="Grupo_1112718" data-name="Grupo 1112718" transform="translate(9.968 11.43)">
                  <path id="Trazado_902887" data-name="Trazado 902887" d="M257.34,208.044l1.56-6.644h5.179l-1.473,6.644Z" transform="translate(-257.34 -201.4)" fill="#344154"/>
                </g>
                <g id="Grupo_1112719" data-name="Grupo 1112719" transform="translate(17.01 14.699)">
                  <path id="Trazado_902888" data-name="Trazado 902888" d="M264.432,208.068l.753-3.376h5.179l-.662,3.376Z" transform="translate(-264.432 -204.692)" fill="#344154"/>
                </g>
                <g id="Grupo_1112720" data-name="Grupo 1112720" transform="translate(24.053 5.165)">
                  <path id="Trazado_902889" data-name="Trazado 902889" d="M271.525,208l2.966-12.909h5.179L276.8,208Z" transform="translate(-271.525 -195.091)" fill="#aed3f2"/>
                </g>
                <g id="Grupo_1112721" data-name="Grupo 1112721" transform="translate(2.807 21.568)">
                  <path id="Trazado_902890" data-name="Trazado 902890" d="M254.308,211.89a8.59,8.59,0,0,1-4.18-.04,8.559,8.559,0,0,1,4.18.04Z" transform="translate(-250.128 -211.61)" fill="#455a64"/>
                </g>
                <g id="Grupo_1112722" data-name="Grupo 1112722" transform="translate(9.634 21.558)">
                  <path id="Trazado_902891" data-name="Trazado 902891" d="M261.184,211.879a8.6,8.6,0,0,1-4.181-.04,8.594,8.594,0,0,1,4.181.04Z" transform="translate(-257.003 -211.6)" fill="#455a64"/>
                </g>
                <g id="Grupo_1112723" data-name="Grupo 1112723" transform="translate(16.461 21.547)">
                  <path id="Trazado_902892" data-name="Trazado 902892" d="M268.06,211.868a8.6,8.6,0,0,1-4.181-.04,8.594,8.594,0,0,1,4.181.04Z" transform="translate(-263.879 -211.589)" fill="#455a64"/>
                </g>
                <g id="Grupo_1112724" data-name="Grupo 1112724" transform="translate(23.289 21.536)">
                  <path id="Trazado_902893" data-name="Trazado 902893" d="M274.935,211.857a8.591,8.591,0,0,1-4.18-.04A8.591,8.591,0,0,1,274.935,211.857Z" transform="translate(-270.755 -211.578)" fill="#455a64"/>
                </g>
              </g>
              <g id="Grupo_1112726" data-name="Grupo 1112726" transform="translate(5.839 1.434)">
                <path id="Trazado_902894" data-name="Trazado 902894" d="M264.773,188.357a32.65,32.65,0,0,1-5.8.259,32.634,32.634,0,0,1-5.8-.259,32.714,32.714,0,0,1,5.8-.258,32.727,32.727,0,0,1,5.8.258Z" transform="translate(-253.181 -188.099)" fill="#455a64"/>
              </g>
              <g id="Grupo_1112727" data-name="Grupo 1112727" transform="translate(6.197)">
                <path id="Trazado_902895" data-name="Trazado 902895" d="M258.681,186.913a12.866,12.866,0,0,1-5.139,0A12.915,12.915,0,0,1,258.681,186.913Z" transform="translate(-253.542 -186.655)" fill="#455a64"/>
              </g>
            </g>
          </g>
          <g id="Grupo_1112730" data-name="Grupo 1112730" transform="translate(89.972 69.241)">
            <path id="Trazado_902896" data-name="Trazado 902896" d="M247.476,241.937l23.692-17.149-.881-1.434a11.44,11.44,0,0,0-5.538-4.646l-3.7.665L239.08,222.72Z" transform="translate(-239.08 -218.708)" fill="#d9a171"/>
          </g>
          <g id="Grupo_1112731" data-name="Grupo 1112731" transform="translate(13.392 64.404)">
            <path id="Trazado_902897" data-name="Trazado 902897" d="M162.709,237.961l19.683-7.821L178,213.837l-16.042,5.453Z" transform="translate(-161.956 -213.837)" fill="#d9a171"/>
          </g>
          <g id="Grupo_1112734" data-name="Grupo 1112734" transform="translate(0 26.98)">
            <path id="Trazado_902898" data-name="Trazado 902898" d="M246.018,242.1c4.9-2.437,6.165-8.288,3.769-13.213l-20.4-43.587a7.869,7.869,0,0,0-2.051-2.813,23.063,23.063,0,0,0-16.87-5.777l-21.271-.558s-16.707,0-22.977,13.169c-.459.963-10.171,20.226-16.573,32.919a10.979,10.979,0,0,0,6.021,15.253h0a10.982,10.982,0,0,0,13.8-5.814l6.957-15.509,4.38,22.215-6.3,18.307,52.737.724-4.055-24.49-1.28-17.462,10.7,22.055a9.975,9.975,0,0,0,13.414,4.58Z" transform="translate(-148.469 -176.147)" fill="#d9a171"/>
            <g id="Grupo_1112732" data-name="Grupo 1112732" transform="translate(33.827 45.775)" opacity="0.2">
              <path id="Trazado_902899" data-name="Trazado 902899" d="M182.832,238.28c3.993,2.989,9.873,1.993,14.793,1.175a21.359,21.359,0,0,0,12.883-6.978,8.661,8.661,0,0,0,2.392-6.09c-.2-2.231-2.168-4.384-4.391-4.117-2.548.307-3.776,3.164-5,5.418a19.761,19.761,0,0,1-20.59,9.669S182.121,237.749,182.832,238.28Z" transform="translate(-182.536 -222.247)"/>
            </g>
            <g id="Grupo_1112733" data-name="Grupo 1112733" transform="translate(66.686 27.488)" opacity="0.2">
              <path id="Trazado_902900" data-name="Trazado 902900" d="M215.629,203.83c1.243,10.033.687,9.269,2.779,19.16,1.03,4.864,2.28,9.941,5.635,13.61l-1.661-20.945Z" transform="translate(-215.629 -203.83)"/>
            </g>
          </g>
          <g id="Grupo_1112735" data-name="Grupo 1112735" transform="translate(17.164)">
            <path id="Trazado_902901" data-name="Trazado 902901" d="M165.755,148.975" transform="translate(-165.755 -148.975)" fill="none" stroke="#839198" stroke-miterlimit="10" stroke-width="1"/>
          </g>
          <g id="Grupo_1112736" data-name="Grupo 1112736" transform="translate(24.526 96.512)">
            <path id="Trazado_902902" data-name="Trazado 902902" d="M174.68,257.182l-1.511-4.4,3.929-2.617,48.377-3.989,3.411,6.408-1.469,5.325Z" transform="translate(-173.169 -246.172)" fill="#d9a171"/>
          </g>
          <g id="Grupo_1112737" data-name="Grupo 1112737" transform="translate(29.433 18.938)">
            <path id="Trazado_902903" data-name="Trazado 902903" d="M184.7,173.628a7.216,7.216,0,0,0-3.361,10.771,3.512,3.512,0,0,1,.922,2c-.093,1.786-2.98,1.835-3.89,3.375a2.772,2.772,0,0,0,.774,3.232A22,22,0,0,0,182.121,195a3.631,3.631,0,0,1,1.827,2.908c1.01-.028,1.606-1.25,1.452-2.248a9.806,9.806,0,0,0-1.24-2.746,2.881,2.881,0,0,1-.125-2.879c.66-.939,2-.978,3.075-1.393a4.288,4.288,0,0,0,2.272-5.522c-.648-1.452-2.16-2.919-1.424-4.329.41-.785,1.352-1.087,2.128-1.516a5.538,5.538,0,0,0,.719-9.22" transform="translate(-178.111 -168.048)" fill="#263238"/>
          </g>
          <g id="Grupo_1112738" data-name="Grupo 1112738" transform="translate(18.472 69.124)">
            <path id="Trazado_902904" data-name="Trazado 902904" d="M176.434,218.591a12.978,12.978,0,0,1-1.072,2.476c-.734,1.494-1.807,3.532-3.1,5.72s-2.568,4.11-3.526,5.471a13.009,13.009,0,0,1-1.656,2.132,15.064,15.064,0,0,1,1.351-2.333c.878-1.41,2.1-3.354,3.386-5.533s2.409-4.179,3.223-5.628a15.063,15.063,0,0,1,1.394-2.305Z" transform="translate(-167.072 -218.59)" fill="#263238"/>
          </g>
          <g id="Grupo_1112739" data-name="Grupo 1112739" transform="translate(20.997 77.491)">
            <path id="Trazado_902905" data-name="Trazado 902905" d="M171.809,227.017a8.451,8.451,0,0,1-2.182,6.814c-.127-.088.765-1.445,1.355-3.322C171.592,228.637,171.655,227.015,171.809,227.017Z" transform="translate(-169.615 -227.017)" fill="#263238"/>
          </g>
          <g id="Grupo_1112740" data-name="Grupo 1112740" transform="translate(82.496 39.367)">
            <path id="Trazado_902906" data-name="Trazado 902906" d="M249.511,227.4c-.129.061-4.255-8.573-9.213-19.28s-8.875-19.441-8.745-19.5,4.254,8.572,9.214,19.283S249.641,227.343,249.511,227.4Z" transform="translate(-231.551 -188.622)" fill="#263238"/>
          </g>
          <g id="Grupo_1112741" data-name="Grupo 1112741" transform="translate(66.325 33.614)">
            <path id="Trazado_902907" data-name="Trazado 902907" d="M224.273,182.836c.031.081-.89.407-2.2,1.225a13.709,13.709,0,0,0-6.394,9.74c-.228,1.531-.161,2.5-.248,2.509a6.522,6.522,0,0,1-.114-2.553,12.786,12.786,0,0,1,6.571-10.011,6.482,6.482,0,0,1,2.385-.91Z" transform="translate(-215.265 -182.828)" fill="#263238"/>
          </g>
          <g id="Grupo_1112742" data-name="Grupo 1112742" transform="translate(22.182 44.181)">
            <path id="Trazado_902908" data-name="Trazado 902908" d="M180.906,238.72c-.14.032-2.512-10.073-5.3-22.568s-4.932-22.651-4.793-22.682,2.511,10.071,5.3,22.57S181.045,238.689,180.906,238.72Z" transform="translate(-170.809 -193.47)" fill="#263238"/>
          </g>
          <g id="Grupo_1112743" data-name="Grupo 1112743" transform="translate(118.866 71.185)">
            <path id="Trazado_902909" data-name="Trazado 902909" d="M271.374,224.8l9.616-4.137H268.18l2.8,3.626" transform="translate(-268.18 -220.665)" fill="#aa6550"/>
          </g>
          <g id="Grupo_1112744" data-name="Grupo 1112744" transform="translate(97.706 71.92)">
            <path id="Trazado_902910" data-name="Trazado 902910" d="M251.466,225.876a16.684,16.684,0,0,1-2.332-2.192,16.869,16.869,0,0,1-2.26-2.267,11.252,11.252,0,0,1,4.592,4.459Z" transform="translate(-246.869 -221.406)" fill="#263238"/>
          </g>
          <g id="Grupo_1112745" data-name="Grupo 1112745" transform="translate(66.497 53.828)">
            <path id="Trazado_902911" data-name="Trazado 902911" d="M233.517,238.516a9.112,9.112,0,0,1-.809-1.337c-.493-.876-1.181-2.157-2.015-3.747-1.67-3.181-3.889-7.621-6.319-12.531s-4.657-9.341-6.308-12.528c-.793-1.531-1.452-2.8-1.955-3.774a9.017,9.017,0,0,1-.669-1.413,9.115,9.115,0,0,1,.845,1.315c.517.862,1.235,2.127,2.1,3.7,1.736,3.147,4.017,7.557,6.449,12.47l6.181,12.6,1.868,3.82a9.1,9.1,0,0,1,.632,1.43Z" transform="translate(-215.438 -203.186)" fill="#263238"/>
          </g>
          <g id="Grupo_1112746" data-name="Grupo 1112746" transform="translate(38.597 75.671)">
            <path id="Trazado_902912" data-name="Trazado 902912" d="M214.309,225.184c.017,0,.012.121-.015.347a7.65,7.65,0,0,1-.166.978,12.762,12.762,0,0,1-1.314,3.406,19.294,19.294,0,0,1-8.9,7.9,38.82,38.82,0,0,1-11.626,2.9c-1.523.172-2.759.271-3.613.328a6.6,6.6,0,0,1-1.333.035,6.561,6.561,0,0,1,1.312-.234l3.588-.492a42.293,42.293,0,0,0,11.458-3.009,19.74,19.74,0,0,0,8.8-7.613,19.123,19.123,0,0,0,1.809-4.546Z" transform="translate(-187.34 -225.183)" fill="#263238"/>
          </g>
          <g id="Grupo_1112747" data-name="Grupo 1112747" transform="translate(25.7 101.221)">
            <path id="Trazado_902913" data-name="Trazado 902913" d="M203.609,250.947c.01.143-6.533.717-14.61,1.284s-14.638.91-14.648.767,6.531-.717,14.611-1.284S203.6,250.8,203.609,250.947Z" transform="translate(-174.351 -250.915)" fill="#263238"/>
          </g>
          <g id="Grupo_1112748" data-name="Grupo 1112748" transform="translate(63.362 97.33)">
            <path id="Trazado_902914" data-name="Trazado 902914" d="M212.312,247a23.912,23.912,0,0,1,1.055,10.015c-.15,0-.213-2.254-.508-5.009A49.365,49.365,0,0,1,212.312,247Z" transform="translate(-212.281 -246.997)" fill="#263238"/>
          </g>
          <g id="Grupo_1112749" data-name="Grupo 1112749" transform="translate(65.807 94.174)">
            <path id="Trazado_902915" data-name="Trazado 902915" d="M215.721,243.818a6.531,6.531,0,0,1,.439,2,25.319,25.319,0,0,1-.686,9.8,6.507,6.507,0,0,1-.713,1.917c-.156-.045.769-3.022,1.021-6.822C216.062,246.918,215.56,243.841,215.721,243.818Z" transform="translate(-214.743 -243.818)" fill="#263238"/>
          </g>
        </g>
        <g id="Grupo_1112751" data-name="Grupo 1112751" transform="translate(43.526 58.381)">
          <path id="Trazado_902916" data-name="Trazado 902916" d="M213.376,176.963c-.008.143-4.732-.006-10.55-.334s-10.53-.708-10.522-.85,4.731.007,10.551.334S213.384,176.821,213.376,176.963Z" transform="translate(-192.304 -175.725)" fill="#263238"/>
        </g>
      </g>
    </g>
    <g id="Grupo_1112764" data-name="Grupo 1112764" transform="translate(95.016 190.159)">
      <g id="Grupo_1112760" data-name="Grupo 1112760">
        <g id="Grupo_1112756" data-name="Grupo 1112756" transform="translate(3.754)">
          <g id="Grupo_1112754" data-name="Grupo 1112754" transform="translate(0.269 0.096)">
            <path id="Trazado_902917" data-name="Trazado 902917" d="M120.648,194.784a15.635,15.635,0,0,1,4.014,1.059l2.95-2.471,5.067,3.857-1.6,3.5a15.569,15.569,0,0,1,2.091,3.586l3.833.339.856,6.309-3.6,1.347a15.591,15.591,0,0,1-1.06,4.014l2.471,2.951-3.856,5.066-3.5-1.6a15.6,15.6,0,0,1-3.587,2.09l-.338,3.833-6.31.857-1.347-3.6a15.607,15.607,0,0,1-4.013-1.06l-2.95,2.472-5.067-3.857,1.6-3.5a15.648,15.648,0,0,1-2.091-3.586l-3.832-.338-.857-6.31,3.6-1.346a15.515,15.515,0,0,1,1.06-4.015l-2.472-2.95,3.856-5.067,3.5,1.6a15.625,15.625,0,0,1,3.587-2.091l.337-3.832,6.31-.856,1.347,3.6Zm-2.591,8.761a6.831,6.831,0,1,0,7.687,5.85,6.831,6.831,0,0,0-7.687-5.85Z" transform="translate(-99.516 -191.181)" fill="#aed3f2"/>
          </g>
          <g id="Grupo_1112755" data-name="Grupo 1112755" transform="translate(12.673 12.318)">
            <path id="Trazado_902918" data-name="Trazado 902918" d="M118.145,203.632a1.324,1.324,0,0,1,.43-.092,5.322,5.322,0,0,1,1.263-.027,6.8,6.8,0,0,1,4.188,1.925,7.06,7.06,0,1,1-11.069,1.5,6.8,6.8,0,0,1,3.523-2.97,5.31,5.31,0,0,1,1.224-.311,1.35,1.35,0,0,1,.44-.026c.011.059-.6.118-1.584.536a6.812,6.812,0,0,0-3.265,2.963,6.647,6.647,0,0,0-.053,6.32,6.583,6.583,0,0,0,12.241-1.66,6.646,6.646,0,0,0-1.735-6.078,6.814,6.814,0,0,0-3.936-1.987C118.753,203.586,118.15,203.692,118.145,203.632Z" transform="translate(-112.008 -203.489)" fill="#344154"/>
          </g>
          <path id="Trazado_902919" data-name="Trazado 902919" d="M120.646,194.784a1.015,1.015,0,0,1-.1-.214l-.275-.673-1.053-2.685.094.057-6.3.907.121-.126c-.1,1.164-.2,2.454-.316,3.835l-.008.1-.091.039a15.518,15.518,0,0,0-3.537,2.084l-.086.068-.1-.046-3.509-1.582.237-.061-3.839,5.079-.007-.27,2.48,2.943.089.1-.053.128a15.4,15.4,0,0,0-1.036,3.956l-.017.143-.136.051-3.6,1.354.158-.263c.272,1.982.566,4.119.867,6.308l-.231-.221,3.832.333.158.014.062.147a15.477,15.477,0,0,0,2.059,3.523l.1.127-.067.147-1.6,3.5-.081-.327,5.069,3.853-.342.009,2.949-2.473.128-.107.154.063a15.39,15.39,0,0,0,3.939,1.041h0l.225.178h0v.022l.011.028.021.057.043.114.084.226.169.454.339.9.67,1.8-.295-.176,6.311-.854-.235.246q.171-1.935.34-3.833l.015-.163.151-.062a15.381,15.381,0,0,0,3.527-2.053l.128-.1.146.067,3.5,1.6-.319.08,3.864-5.061.007.317L133,216.482l-.1-.115.058-.138a15.382,15.382,0,0,0,1.052-3.949l.019-.144.135-.05,3.606-1.339-.147.245c-.295-2.22-.573-4.316-.837-6.312l.19.182-3.831-.351-.12-.011-.046-.11a15.438,15.438,0,0,0-2.051-3.551l-.068-.088.046-.1,1.613-3.494.05.2-5.043-3.887h.155l-2.973,2.446-.042.035-.049-.021a16.5,16.5,0,0,0-2.972-.935l-.758-.15a1.078,1.078,0,0,1-.25-.057,1.431,1.431,0,0,1,.257.011c.17.018.427.048.768.106a14.874,14.874,0,0,1,3.022.861l-.09.014,2.927-2.5.074-.064.079.061,5.091,3.825.1.077-.054.12-1.58,3.509-.022-.186a15.768,15.768,0,0,1,2.131,3.621l-.165-.121,3.834.325.168.014.023.168c.276,1.995.566,4.089.874,6.307l.025.182-.172.065-3.6,1.355.153-.194a15.824,15.824,0,0,1-1.068,4.078l-.039-.252,2.476,2.945.131.155-.123.162-3.849,5.072-.127.168-.192-.087-3.5-1.593.275-.032a15.876,15.876,0,0,1-3.647,2.13l.166-.226q-.165,1.9-.335,3.833l-.019.217-.216.03-6.31.858-.217.03-.077-.206-.671-1.8-.339-.9-.169-.453-.085-.227-.042-.113-.022-.057-.01-.029-.006-.014v-.007h0l.223.177h0a15.9,15.9,0,0,1-4.08-1.078l.281-.044-2.951,2.471-.168.14-.174-.132-5.065-3.86-.172-.131.089-.2c.552-1.208,1.1-2.4,1.6-3.5l.032.274a15.954,15.954,0,0,1-2.122-3.649l.218.16-3.832-.343-.2-.019-.027-.2c-.294-2.191-.58-4.329-.846-6.312l-.026-.2.184-.068,3.606-1.338-.153.193a15.812,15.812,0,0,1,1.086-4.071l.036.233-2.464-2.957-.111-.134.105-.137,3.872-5.054.1-.126.142.065,3.5,1.611-.186.022a15.812,15.812,0,0,1,3.635-2.1l-.1.135c.13-1.379.25-2.669.359-3.83l.011-.112.11-.015,6.316-.8.071-.009.023.066.954,2.684c.1.289.177.519.239.7a1.426,1.426,0,0,1,.067.241Z" transform="translate(-99.245 -191.084)" fill="#344154"/>
        </g>
        <g id="Grupo_1112759" data-name="Grupo 1112759" transform="translate(0 43.955)">
          <g id="Grupo_1112757" data-name="Grupo 1112757" transform="translate(0.169 0.061)">
            <path id="Trazado_902920" data-name="Trazado 902920" d="M108.906,237.675a9.839,9.839,0,0,1,2.52.665l1.853-1.552,3.181,2.422-1,2.2a9.836,9.836,0,0,1,1.314,2.252l2.407.212.537,3.963-2.263.846a9.807,9.807,0,0,1-.666,2.521l1.553,1.853-2.422,3.181-2.2-1a9.811,9.811,0,0,1-2.253,1.314l-.211,2.407-3.964.538-.845-2.264a9.807,9.807,0,0,1-2.521-.665l-1.853,1.552L98.891,255.7l1-2.2a9.875,9.875,0,0,1-1.314-2.252l-2.406-.212-.538-3.963,2.263-.846a9.816,9.816,0,0,1,.666-2.521l-1.553-1.853,2.422-3.181,2.2,1a9.761,9.761,0,0,1,2.252-1.314l.212-2.407,3.962-.537.847,2.263Zm-1.627,5.5a4.29,4.29,0,1,0,4.828,3.675,4.29,4.29,0,0,0-4.828-3.675Z" transform="translate(-95.634 -235.412)" fill="none"/>
          </g>
          <g id="Grupo_1112758" data-name="Grupo 1112758" transform="translate(7.959 7.736)">
            <path id="Trazado_902921" data-name="Trazado 902921" d="M107.334,243.231a.835.835,0,0,1,.27-.058,3.309,3.309,0,0,1,.793-.017,4.27,4.27,0,0,1,2.63,1.208,4.434,4.434,0,1,1-6.952.943,4.269,4.269,0,0,1,2.213-1.866,3.278,3.278,0,0,1,.769-.2.823.823,0,0,1,.276-.017c.007.037-.375.074-1,.337a4.274,4.274,0,0,0-2.049,1.862,4.174,4.174,0,0,0-.034,3.969,4.135,4.135,0,0,0,7.689-1.043,4.174,4.174,0,0,0-1.09-3.816,4.276,4.276,0,0,0-2.471-1.248C107.716,243.2,107.337,243.269,107.334,243.231Z" transform="translate(-103.479 -243.142)" fill="#263238"/>
          </g>
          <path id="Trazado_902922" data-name="Trazado 902922" d="M108.9,237.674a.621.621,0,0,1-.065-.135l-.172-.422q-.237-.6-.662-1.687l.06.036-3.959.57.076-.079c-.061.731-.127,1.541-.2,2.408v.061l-.058.025a9.754,9.754,0,0,0-2.221,1.309l-.054.043-.064-.029-2.2-.994.149-.038c-.76,1-1.565,2.071-2.411,3.189v-.17c.482.573,1.013,1.2,1.558,1.849l.056.066-.034.081a9.667,9.667,0,0,0-.649,2.484l-.011.089-.085.032-2.261.851.1-.166c.172,1.244.355,2.587.545,3.962l-.146-.139,2.407.21.1.008.038.092a9.727,9.727,0,0,0,1.294,2.212l.063.08-.042.092-1,2.2L99,255.559l3.183,2.42h-.214l1.852-1.553.08-.068.1.041a9.657,9.657,0,0,0,2.473.653h0l.141.111h0v.014l.007.018.013.036.027.072.053.142.106.285.213.567c.141.377.282.755.421,1.129l-.185-.111,3.963-.536-.147.155.212-2.407.01-.1.094-.039a9.631,9.631,0,0,0,2.215-1.289l.08-.063.092.043,2.2,1-.2.05q1.244-1.627,2.427-3.178v.2l-1.549-1.856-.061-.072.036-.086a9.653,9.653,0,0,0,.661-2.48l.011-.09.085-.032,2.265-.84-.092.154c-.185-1.394-.359-2.711-.526-3.964l.12.114-2.406-.22-.075-.007-.029-.07a9.721,9.721,0,0,0-1.289-2.23l-.042-.055.028-.063c.368-.8.7-1.515,1.014-2.194l.031.124-3.167-2.442h.1l-1.867,1.535-.027.022-.031-.013a10.279,10.279,0,0,0-1.866-.587l-.476-.094a.623.623,0,0,1-.157-.036.9.9,0,0,1,.161.007c.107.011.268.03.483.067a9.369,9.369,0,0,1,1.9.54l-.057.009,1.838-1.569.048-.04.05.038,3.2,2.4.065.049-.034.076-.992,2.2-.014-.116a9.9,9.9,0,0,1,1.338,2.274l-.1-.075,2.407.2.105.009.015.1c.174,1.252.355,2.568.549,3.961l.015.114-.107.041-2.262.851.1-.121a9.9,9.9,0,0,1-.671,2.561l-.024-.159,1.556,1.85.081.1-.077.1-2.417,3.185-.079.1-.12-.055-2.2-1,.172-.02a9.978,9.978,0,0,1-2.29,1.337l.1-.142q-.1,1.192-.21,2.407l-.012.136-.136.019-3.963.539-.137.019-.049-.129-.422-1.129-.211-.567-.106-.285-.054-.143-.027-.07-.013-.036-.007-.018v-.009h0l.14.111h0a9.98,9.98,0,0,1-2.563-.677l.177-.028-1.854,1.552-.105.088-.109-.083-3.18-2.424-.108-.082.056-.123,1.006-2.2.02.172a9.963,9.963,0,0,1-1.333-2.292l.137.1-2.406-.215-.129-.012-.017-.127c-.185-1.376-.364-2.719-.531-3.964l-.016-.123.115-.043,2.265-.841-.1.122a9.965,9.965,0,0,1,.682-2.558l.023.147L96.9,241.936l-.07-.084.066-.086,2.432-3.173.061-.079.089.042,2.2,1.011-.117.014a9.9,9.9,0,0,1,2.284-1.317l-.063.084.225-2.4.007-.072.07-.009,3.967-.5.045-.006.014.041.6,1.686.15.44a.939.939,0,0,1,.04.146Z" transform="translate(-95.464 -235.351)" fill="#263238"/>
        </g>
      </g>
      <g id="Grupo_1112763" data-name="Grupo 1112763" transform="translate(169.589 117.276)">
        <path id="Trazado_902923" data-name="Trazado 902923" d="M310.1,348.583a4.841,4.841,0,0,1-.843.056l-2.417.053-8.89.087-29.328.082h-2.368v-.276c.034-10.955.063-20.778.085-27.932.037-3.508.065-6.358.086-8.392.021-.947.038-1.7.051-2.275a4.345,4.345,0,0,1,.055-.791,4.551,4.551,0,0,1,.054.791c.013.571.03,1.328.051,2.275.021,2.035.051,4.884.086,8.392.022,7.153.052,16.976.085,27.932l-.276-.276h2.09l29.328.082,8.89.088,2.417.052a4.849,4.849,0,0,1,.844.052Z" transform="translate(-266.258 -309.193)" fill="#263238"/>
        <g id="Grupo_1112761" data-name="Grupo 1112761" transform="translate(4.334 9.556)">
          <path id="Trazado_902924" data-name="Trazado 902924" d="M305.294,318.818a11.219,11.219,0,0,1-1.3,1.241l-3.679,3.229c-3.121,2.709-7.458,6.42-12.27,10.494l-.729.617-.188.158-.179-.166-5.457-5.072.341.008-8.015,6.611-2.326,1.86a5.149,5.149,0,0,1-.869.622,5.067,5.067,0,0,1,.761-.75l2.231-1.972,7.886-6.764.172-.147.169.155,5.483,5.043-.366-.008.729-.618c4.812-4.074,9.189-7.738,12.375-10.37l3.791-3.1A11.049,11.049,0,0,1,305.294,318.818Z" transform="translate(-270.623 -318.816)" fill="#263238"/>
        </g>
        <g id="Grupo_1112762" data-name="Grupo 1112762" transform="translate(28.721 9.067)">
          <path id="Trazado_902925" data-name="Trazado 902925" d="M305.467,327.942a13.731,13.731,0,0,1-.192-2.719c-.05-1.684-.081-4.019-.084-6.623l.276.277H305c-2.711,0-5.163-.031-6.94-.081a14.817,14.817,0,0,1-2.874-.2,14.929,14.929,0,0,1,2.874-.2c1.776-.05,4.229-.08,6.94-.08h.748v.276c0,2.6-.035,4.939-.085,6.623a13.693,13.693,0,0,1-.2,2.727Z" transform="translate(-295.183 -318.324)" fill="#263238"/>
        </g>
      </g>
    </g>
  </g>
</svg>
