<svg xmlns="http://www.w3.org/2000/svg" width="505" height="281" viewBox="0 0 505 281">
  <g id="Grupo_1118344" data-name="Grupo 1118344" transform="translate(-915 -1800)">
    <g id="Grupo_1116483" data-name="Grupo 1116483" transform="translate(915 1800)">
      <rect id="Rectángulo_405611" data-name="Rectángulo 405611" width="505" height="281" fill="#dcecf7"/>
    </g>
    <g id="identif" transform="translate(-66.596 300.399)">
      <g id="Grupo_1116501" data-name="Grupo 1116501" transform="translate(1053.507 1535.431)">
        <path id="Trazado_907438" data-name="Trazado 907438" d="M939.483,587.326h62.834a8.322,8.322,0,0,1,8.3,8.3v58.541a.926.926,0,0,1-1.581.655l-14.14-14.14h-55.41a8.323,8.323,0,0,1-8.3-8.3V595.623a8.323,8.323,0,0,1,8.3-8.3Z" transform="translate(-835.999 -584.125)" fill="#d3ebfa" fill-rule="evenodd"/>
        <path id="Trazado_907443" data-name="Trazado 907443" d="M1199.992,727.2Zm3.43-13.063a6.6,6.6,0,1,1-1.933,4.666A6.6,6.6,0,0,1,1203.423,714.134Zm1.426-6.541a11.644,11.644,0,0,0-4.854,2.813.4.4,0,0,1-.484.058l-3.067-1.769-.017-.01a.766.766,0,0,0-1.022.283l-.013.02-2.158,3.737a.767.767,0,0,0,.283,1.039l.021.013,3.042,1.756a.4.4,0,0,1,.191.447h0a11.448,11.448,0,0,0-.257,1.394,11.681,11.681,0,0,0,.257,4.242.407.407,0,0,1-.215.461l-3.04,1.756h0a.767.767,0,0,0-.283,1.039l2.171,3.758h0a.763.763,0,0,0,1.038.283l.024-.011,3.046-1.759a.409.409,0,0,1,.482.058,11.57,11.57,0,0,0,4.865,2.818.406.406,0,0,1,.294.39v3.535a.763.763,0,0,0,.759.759h4.341a.764.764,0,0,0,.758-.759v-3.535a.407.407,0,0,1,.313-.395,11.644,11.644,0,0,0,4.855-2.812.4.4,0,0,1,.5-.045l3.046,1.758a.765.765,0,0,0,1.038-.283l.013-.02,2.158-3.739h0a.768.768,0,0,0-.283-1.038l-3.064-1.769a.407.407,0,0,1-.192-.448h0a11.423,11.423,0,0,0,.256-1.393,11.862,11.862,0,0,0,0-2.844,11.521,11.521,0,0,0-.256-1.393.406.406,0,0,1,.215-.46l3.042-1.756a.769.769,0,0,0,.283-1.038l-.013-.023-2.158-3.737h0a.765.765,0,0,0-1.038-.283h0l-3.065,1.77a.406.406,0,0,1-.492-.067,11.749,11.749,0,0,0-4.865-2.8.405.405,0,0,1-.3-.39v-3.535a.762.762,0,0,0-.758-.758h-4.341a.762.762,0,0,0-.759.758V707.2a.406.406,0,0,1-.3.39Z" transform="translate(-869.697 -598.991)" fill="#d3ebfa" fill-rule="evenodd"/>
        <path id="Trazado_907444" data-name="Trazado 907444" d="M1223.45,653.446a9.816,9.816,0,1,1-2.131,3.19A9.816,9.816,0,0,1,1223.45,653.446Zm3.535-1.292a8.964,8.964,0,1,0,3.409-.673A8.963,8.963,0,0,0,1226.985,652.154Zm-1.086-7.226a16.057,16.057,0,0,0-6.679,3.874,1.024,1.024,0,0,1-1.227.148c-1.442-.833-2.958-1.657-4.371-2.524a.6.6,0,0,0-.212-.065.66.66,0,0,0-.242.018.635.635,0,0,0-.221.107.622.622,0,0,0-.158.181c-1.052,1.591-2.107,3.645-3.08,5.332a.594.594,0,0,0-.077.226.623.623,0,0,0,.02.249.607.607,0,0,0,.288.38c1.3.857,2.969,1.715,4.343,2.51a1.031,1.031,0,0,1,.5.707l.089.03-.1.4q-.117.478-.206.954t-.141.969c-.041.328-.071.655-.089.976s-.03.643-.03.99.01.673.03.99.048.649.089.977.09.66.141.969.129.636.206.954a1.022,1.022,0,0,1-.53,1.16l-3.845,2.221h0l-.455.263a.607.607,0,0,0-.283.38.619.619,0,0,0-.02.248.593.593,0,0,0,.076.226l2.848,4.934h0l.232.4a.6.6,0,0,0,.158.181.637.637,0,0,0,.221.108.662.662,0,0,0,.248.018.619.619,0,0,0,.225-.076c1.377-.867,2.931-1.7,4.354-2.513a1.025,1.025,0,0,1,1.223.141h0a16.2,16.2,0,0,0,6.728,3.883,1.028,1.028,0,0,1,.745.99v5.018a.589.589,0,0,0,.047.236.648.648,0,0,0,.339.339.617.617,0,0,0,.236.047h6.158a.623.623,0,0,0,.237-.047.611.611,0,0,0,.2-.141.652.652,0,0,0,.141-.2.614.614,0,0,0,.047-.236v-5.018a1.024,1.024,0,0,1,.223-.638,1.035,1.035,0,0,1,.566-.366,15.418,15.418,0,0,0,1.809-.643,15.7,15.7,0,0,0,1.738-.868,16.218,16.218,0,0,0,3.132-2.36,1.029,1.029,0,0,1,1.273-.117l4.3,2.48a.6.6,0,0,0,.227.076.652.652,0,0,0,.249-.018.638.638,0,0,0,.22-.107.615.615,0,0,0,.159-.181c1.021-1.78,2.057-3.552,3.08-5.332a.608.608,0,0,0,.075-.226.636.636,0,0,0-.018-.246.627.627,0,0,0-.106-.222.58.58,0,0,0-.178-.159l-4.347-2.51a1.009,1.009,0,0,1-.433-.486.863.863,0,0,1-.055-.164l-.115-.024.115-.461c.078-.318.141-.636.206-.954s.1-.632.141-.969.069-.656.089-.979.028-.643.028-.99-.008-.672-.028-.99-.048-.648-.089-.976-.092-.666-.141-.971-.129-.635-.206-.953a1.026,1.026,0,0,1,.527-1.161l4.3-2.484a.6.6,0,0,0,.181-.158.634.634,0,0,0,.106-.221.646.646,0,0,0,.018-.247.609.609,0,0,0-.075-.228c-1.051-1.555-2.105-3.651-3.08-5.332a.641.641,0,0,0-.628-.307.6.6,0,0,0-.226.078l-4.35,2.51a1.02,1.02,0,0,1-.652.13,1.037,1.037,0,0,1-.588-.29,16.048,16.048,0,0,0-3.121-2.349,15.837,15.837,0,0,0-3.59-1.524,1.031,1.031,0,0,1-.747-.99v-5.005a.615.615,0,0,0-.046-.235.632.632,0,0,0-.142-.2.618.618,0,0,0-.2-.141.626.626,0,0,0-.238-.047h-6.158a.625.625,0,0,0-.622.622v5.018a1.031,1.031,0,0,1-.793,1Zm-2.165-.189a16.991,16.991,0,0,0-5.146,3.418.128.128,0,0,1-.144.017q-2.193-1.273-4.384-2.534a1.489,1.489,0,0,0-.548-.171,1.528,1.528,0,0,0-1.5.755c-1.06,1.717-2.066,3.575-3.081,5.331a1.544,1.544,0,0,0,.115,1.7,1.5,1.5,0,0,0,.448.393c1.4.864,2.916,1.684,4.347,2.51a.127.127,0,0,1,.049.057.121.121,0,0,1,0,.076l-.1.406h0c-.044.2-.085.4-.123.6-.062.346-.116.689-.157,1.025s-.071.677-.092,1.029-.032.707-.032,1.041.01.684.032,1.039.052.7.092,1.031.095.677.158,1.025.141.682.216,1.008a.126.126,0,0,1,0,.079.129.129,0,0,1-.054.058c-1.6.848-3.218,1.857-4.8,2.769l.055.071-.048.059a1.538,1.538,0,0,0-.113,1.7l3.31,5.731.062-.037q.049.045.1.085a1.546,1.546,0,0,0,1.685.122c1.448-.769,2.937-1.7,4.365-2.521a.127.127,0,0,1,.075-.013.122.122,0,0,1,.071.033,16.918,16.918,0,0,0,7.1,4.1.122.122,0,0,1,.062.044.111.111,0,0,1,.024.073v5.018a1.543,1.543,0,0,0,.947,1.414,1.513,1.513,0,0,0,.584.117h6.158a1.517,1.517,0,0,0,.584-.117,1.589,1.589,0,0,0,.5-.332,1.557,1.557,0,0,0,.332-.5,1.529,1.529,0,0,0,.117-.585v-5.018a.127.127,0,0,1,.024-.076.121.121,0,0,1,.068-.042l.02-.007a16.889,16.889,0,0,0,5.5-2.75,16.855,16.855,0,0,0,1.578-1.348.122.122,0,0,1,.07-.034.128.128,0,0,1,.079.02l4.347,2.509a1.515,1.515,0,0,0,.566.191,1.576,1.576,0,0,0,.6-.04,1.537,1.537,0,0,0,.923-.7c1.141-1.838,2.222-3.848,3.31-5.734l-.058-.034a1.385,1.385,0,0,0,.024-.141,1.536,1.536,0,0,0-.75-1.526l-4.347-2.51a.121.121,0,0,1-.05-.055.142.142,0,0,1,0-.079l.113-.46h0c.038-.178.074-.361.109-.544q.095-.522.159-1.027c.039-.332.072-.677.093-1.031s.032-.707.032-1.039-.011-.684-.032-1.039-.052-.7-.093-1.034-.093-.674-.159-1.025-.141-.68-.216-1.005a.126.126,0,0,1,.007-.081.128.128,0,0,1,.055-.056l4.343-2.507a1.5,1.5,0,0,0,.447-.395,1.526,1.526,0,0,0,.3-1.131,1.484,1.484,0,0,0-.182-.553c-1.034-1.918-2.22-3.849-3.314-5.745l-.062.037c-.034-.03-.068-.058-.1-.085a1.528,1.528,0,0,0-.536-.265,1.574,1.574,0,0,0-.6-.039,1.5,1.5,0,0,0-.566.188l-.323.185h0l-4.031,2.326a.124.124,0,0,1-.078.014.109.109,0,0,1-.068-.034l-.011-.01a17.11,17.11,0,0,0-3.295-2.48,16.818,16.818,0,0,0-3.8-1.613.129.129,0,0,1-.062-.042.115.115,0,0,1-.024-.074v-5.013a1.535,1.535,0,0,0-.451-1.082,1.564,1.564,0,0,0-.5-.332,1.516,1.516,0,0,0-.584-.117h-6.158a1.509,1.509,0,0,0-.584.117,1.585,1.585,0,0,0-.5.332,1.527,1.527,0,0,0-.45,1.082v5.018a.132.132,0,0,1-.024.076.121.121,0,0,1-.068.041h-.02a17.027,17.027,0,0,0-1.95.7Z" transform="translate(-871.702 -590.563)" fill="#d3ebfa" fill-rule="evenodd"/>
        <g id="Grupo_1116488" data-name="Grupo 1116488" transform="translate(99.379 0)">
          <path id="Trazado_907445" data-name="Trazado 907445" d="M944.3,583.653h62.835a8.321,8.321,0,0,1,8.3,8.3v58.541a.926.926,0,0,1-1.581.656l-14.14-14.14H944.3a8.323,8.323,0,0,1-8.3-8.3V591.952a8.323,8.323,0,0,1,8.3-8.3Z" transform="translate(-936 -583.653)" fill="#8454ee" fill-rule="evenodd"/>
          <g id="Grupo_1116487" data-name="Grupo 1116487" transform="translate(12.217 6.794)">
            <path id="Trazado_907446" data-name="Trazado 907446" d="M952.726,628.1h32.595a2.708,2.708,0,0,0,2.7-2.7V600.655a2.708,2.708,0,0,0-2.7-2.7H984V596.7a.745.745,0,0,0-.744-.744H973.4a.745.745,0,0,0-.744.744v1.257H952.722a2.708,2.708,0,0,0-2.7,2.7V625.4a2.708,2.708,0,0,0,2.7,2.7Z" transform="translate(-950.021 -592.031)" fill="#a66d58" fill-rule="evenodd"/>
            <path id="Trazado_907447" data-name="Trazado 907447" d="M3.57,0H21.427A3.57,3.57,0,0,1,25,3.57V21.854a3.569,3.569,0,0,1-3.569,3.569H3.569A3.569,3.569,0,0,1,0,21.852V3.57A3.57,3.57,0,0,1,3.57,0Z" transform="translate(2.654 10.649)" fill="#fff"/>
            <path id="Trazado_907448" data-name="Trazado 907448" d="M956.593,628.562h30.1a4.755,4.755,0,0,0,3.9-2.7l9.487-21.3c.662-1.485-.013-2.7-1.5-2.7H997l.6-1.336c.242-.542,0-.99-.546-.99H986.065a1.738,1.738,0,0,0-1.425.99l-.6,1.336H968.49a4.756,4.756,0,0,0-3.9,2.7l-9.487,21.3C954.434,627.348,955.109,628.562,956.593,628.562Z" transform="translate(-950.639 -592.492)" fill="#d9a171" fill-rule="evenodd"/>
            <g id="Grupo_1116486" data-name="Grupo 1116486" transform="translate(18.15 12.639)">
              <path id="Trazado_907449" data-name="Trazado 907449" d="M973.92,609.026a10.485,10.485,0,1,1-3.071,7.414A10.485,10.485,0,0,1,973.92,609.026Zm7.414-1.57a8.982,8.982,0,1,0,6.352,2.63,8.981,8.981,0,0,0-6.352-2.63Z" transform="translate(-970.849 -605.955)" fill="#344154" fill-rule="evenodd"/>
              <path id="Trazado_907450" data-name="Trazado 907450" d="M990.131,626.3a.751.751,0,0,1,1.061-1.061l2.482,2.48a.751.751,0,1,1-1.062,1.062Z" transform="translate(-973.294 -608.4)" fill="#344154" fill-rule="evenodd"/>
              <path id="Trazado_907451" data-name="Trazado 907451" d="M993.054,630.284a1.5,1.5,0,0,1,2.121-2.121l8,8a1.5,1.5,0,0,1-2.121,2.121Z" transform="translate(-973.636 -608.741)" fill="#344154" fill-rule="evenodd"/>
              <path id="Trazado_907452" data-name="Trazado 907452" d="M986.834,611.918a.5.5,0,1,1,.707-.707,8.3,8.3,0,0,1,2.434,5.882h0a8.337,8.337,0,0,1-.324,2.3.5.5,0,0,1-.954-.273,7.3,7.3,0,0,0,.283-2.032h0a7.3,7.3,0,0,0-2.148-5.181Zm.99,9.14a.495.495,0,1,1,.833.535,8.141,8.141,0,0,1-.522.721,8.249,8.249,0,0,1-.6.666.5.5,0,0,1-.707-.707,7.334,7.334,0,0,0,.528-.584,7.209,7.209,0,0,0,.459-.638Zm-11.349,1.222a.5.5,0,0,1-.707.707,8.318,8.318,0,0,1-1.879-8.875.494.494,0,0,1,.922.354,7.315,7.315,0,0,0,1.658,7.82Zm-.768-9.463a.494.494,0,1,1-.8-.577c.133-.184.27-.361.414-.529l.024-.026c.15-.174.294-.331.431-.469a.5.5,0,1,1,.707.707q-.219.219-.383.409l-.023.027c-.14.149-.262.311-.373.453Z" transform="translate(-971.169 -606.616)" fill="#fff" fill-rule="evenodd"/>
            </g>
            <path id="Trazado_907453" data-name="Trazado 907453" d="M989.145,591.451h23.7a.552.552,0,0,1,.55.55h0a.551.551,0,0,1-.55.55h-23.7a.552.552,0,0,1-.55-.55h0A.552.552,0,0,1,989.145,591.451Z" transform="translate(-954.981 -591.451)" fill="#efeef8" fill-rule="evenodd"/>
            <path id="Trazado_907454" data-name="Trazado 907454" d="M989.145,595.41h23.7a.552.552,0,0,1,.55.549h0a.551.551,0,0,1-.55.55h-23.7a.552.552,0,0,1-.55-.55h0A.551.551,0,0,1,989.145,595.41Z" transform="translate(-954.981 -591.96)" fill="#efeef8" fill-rule="evenodd"/>
            <path id="Trazado_907455" data-name="Trazado 907455" d="M1011.206,599.77h4.474a.552.552,0,0,1,.55.55h0a.551.551,0,0,1-.55.55h-4.474a.551.551,0,0,1-.55-.55h0a.551.551,0,0,1,.55-.55Z" transform="translate(-957.82 -592.52)" fill="#efeef8" fill-rule="evenodd"/>
            <path id="Trazado_907456" data-name="Trazado 907456" d="M1011.206,604.245h4.474a.551.551,0,0,1,.55.55h0a.551.551,0,0,1-.55.55h-4.474a.551.551,0,0,1-.55-.55h0a.551.551,0,0,1,.55-.55Z" transform="translate(-957.82 -593.097)" fill="#efeef8" fill-rule="evenodd"/>
            <path id="Trazado_907457" data-name="Trazado 907457" d="M1011.206,608.72h4.474a.551.551,0,0,1,.55.55h0a.552.552,0,0,1-.55.55h-4.474a.552.552,0,0,1-.55-.55h0a.551.551,0,0,1,.55-.55Z" transform="translate(-957.82 -593.672)" fill="#efeef8" fill-rule="evenodd"/>
            <path id="Trazado_907458" data-name="Trazado 907458" d="M1011.206,613.2h4.474a.551.551,0,0,1,.55.55h0a.55.55,0,0,1-.55.549h-4.474a.55.55,0,0,1-.55-.549h0a.551.551,0,0,1,.55-.55Z" transform="translate(-957.82 -594.246)" fill="#efeef8" fill-rule="evenodd"/>
            <path id="Trazado_907459" data-name="Trazado 907459" d="M1011.206,617.671h4.474a.551.551,0,0,1,.55.55h0a.55.55,0,0,1-.55.549h-4.474a.55.55,0,0,1-.55-.549h0a.551.551,0,0,1,.55-.55Z" transform="translate(-957.82 -594.823)" fill="#efeef8" fill-rule="evenodd"/>
            <path id="Trazado_907460" data-name="Trazado 907460" d="M1011.206,622.146h4.474a.551.551,0,0,1,.55.55h0a.551.551,0,0,1-.55.55h-4.474a.552.552,0,0,1-.55-.55h0a.551.551,0,0,1,.55-.55Z" transform="translate(-957.82 -595.4)" fill="#efeef8" fill-rule="evenodd"/>
            <rect id="Rectángulo_405825" data-name="Rectángulo 405825" width="12.449" height="1.1" rx="0.389" transform="translate(45.961 30.646)" fill="#efeef8"/>
            <path id="Trazado_907461" data-name="Trazado 907461" d="M1004.607,622.146h3.35a.551.551,0,0,1,.552.55h0a.551.551,0,0,1-.552.55h-3.35a.551.551,0,0,1-.55-.55h0A.551.551,0,0,1,1004.607,622.146Z" transform="translate(-956.97 -595.4)" fill="#efeef8" fill-rule="evenodd"/>
            <path id="Trazado_907462" data-name="Trazado 907462" d="M1006.329,617.671h1.688a.551.551,0,0,1,.55.55h0a.55.55,0,0,1-.55.549h-1.688a.55.55,0,0,1-.55-.549h0a.551.551,0,0,1,.55-.55Z" transform="translate(-957.192 -594.823)" fill="#efeef8" fill-rule="evenodd"/>
            <path id="Trazado_907463" data-name="Trazado 907463" d="M1007.679,613.2h1.234a.553.553,0,0,1,.55.55h0a.551.551,0,0,1-.55.549h-1.234a.55.55,0,0,1-.55-.549h0a.551.551,0,0,1,.55-.55Z" transform="translate(-957.365 -594.246)" fill="#efeef8" fill-rule="evenodd"/>
          </g>
        </g>
        <g id="Grupo_1116489" data-name="Grupo 1116489" transform="translate(114.515 67.934)">
          <path id="Trazado_907464" data-name="Trazado 907464" d="M1.432,0H2.988a1.432,1.432,0,0,1,1.43,1.432V2.988a1.434,1.434,0,0,1-1.432,1.43H1.43A1.434,1.434,0,0,1,0,2.985V1.43A1.432,1.432,0,0,1,1.432,0Z" fill="#80bbe7"/>
          <path id="Trazado_907465" data-name="Trazado 907465" d="M1.432,0H2.988a1.432,1.432,0,0,1,1.43,1.432V2.988a1.434,1.434,0,0,1-1.434,1.43H1.428A1.432,1.432,0,0,1,0,2.985V1.43A1.432,1.432,0,0,1,1.432,0Z" transform="translate(9.057)" fill="#fff"/>
          <path id="Trazado_907466" data-name="Trazado 907466" d="M1.432,0H2.988a1.432,1.432,0,0,1,1.43,1.432V2.988a1.434,1.434,0,0,1-1.434,1.43H1.428A1.434,1.434,0,0,1,0,2.985V1.43A1.432,1.432,0,0,1,1.432,0Z" transform="translate(18.111)" fill="#80bbe7"/>
          <path id="Trazado_907467" data-name="Trazado 907467" d="M1.432,0H2.988a1.432,1.432,0,0,1,1.43,1.432V2.988a1.434,1.434,0,0,1-1.434,1.43H1.428A1.434,1.434,0,0,1,0,2.985V1.43A1.432,1.432,0,0,1,1.432,0Z" transform="translate(27.168)" fill="#80bbe7"/>
        </g>
        <path id="Trazado_907468" data-name="Trazado 907468" d="M872.9,616.625c-.335,0-.607-.387-.607-.865s.272-.865.607-.865h28.375c.335,0,.605.387.605.865s-.272.865-.605.865Zm-3.848-1.731c.335,0,.605.387.605.865s-.271.865-.605.865h-2.374c-.335,0-.605-.387-.605-.865s.271-.865.605-.865Z" transform="translate(-827.624 -587.671)" fill="#80bbe7" fill-rule="evenodd"/>
        <path id="Trazado_907469" data-name="Trazado 907469" d="M912.277,654.2a.366.366,0,1,1,.732,0v1.647a.366.366,0,1,1-.732,0Zm-2.494,1.336a.366.366,0,0,1,.518-.518l1.164,1.164a.367.367,0,0,1-.519.518l-1.164-1.164Zm-.819,2.709a.366.366,0,0,1,0-.732h1.647a.366.366,0,0,1,0,.732Zm1.336,2.494a.366.366,0,0,1-.518-.518l1.164-1.164a.366.366,0,1,1,.519.518l-1.164,1.164Zm2.709.819a.366.366,0,0,1-.733,0V659.91a.366.366,0,0,1,.732,0Zm2.494-1.336a.366.366,0,1,1-.518.518l-1.164-1.164a.366.366,0,0,1,.516-.518l1.164,1.164Zm.819-2.709a.366.366,0,0,1,0,.732h-1.642a.366.366,0,1,1,0-.732Zm-1.336-2.494a.366.366,0,0,1,.518.518L914.34,656.7a.366.366,0,0,1-.516-.517Z" transform="translate(-833.093 -592.68)" fill="#80bbe7" fill-rule="evenodd"/>
        <path id="Trazado_907470" data-name="Trazado 907470" d="M1159.607,603.771a.366.366,0,0,1,.733,0v1.646a.366.366,0,1,1-.732,0Zm-2.494,1.336a.366.366,0,1,1,.518-.518l1.164,1.164a.366.366,0,1,1-.519.518l-1.164-1.164Zm-.819,2.708a.366.366,0,1,1,0-.731h1.646a.366.366,0,1,1,0,.731Zm1.336,2.494a.366.366,0,0,1-.518-.516l1.164-1.165a.367.367,0,0,1,.519.519l-1.164,1.164Zm2.709.819a.366.366,0,0,1-.732,0v-1.65a.366.366,0,0,1,.733,0v1.647Zm2.494-1.336a.366.366,0,1,1-.519.516l-1.164-1.164a.367.367,0,0,1,.519-.519l1.164,1.165Zm.819-2.709a.366.366,0,1,1,0,.731h-1.646a.366.366,0,1,1,0-.731Zm-1.336-2.494a.366.366,0,1,1,.519.518l-1.164,1.164a.366.366,0,0,1-.519-.518Z" transform="translate(-864.915 -586.193)" fill="#80bbe7" fill-rule="evenodd"/>
        <path id="Trazado_907471" data-name="Trazado 907471" d="M1191.728,795.629a.366.366,0,1,1,.732,0v1.646a.366.366,0,0,1-.733,0Zm-2.494,1.336a.366.366,0,1,1,.517-.519l1.164,1.164a.366.366,0,0,1-.517.518l-1.165-1.164Zm-.819,2.708a.366.366,0,1,1,0-.732h1.646a.366.366,0,1,1,0,.732Zm1.336,2.494a.367.367,0,0,1-.518-.519l1.165-1.164a.366.366,0,0,1,.517.518l-1.164,1.164Zm2.709.819a.366.366,0,0,1-.733,0V801.34a.366.366,0,1,1,.732,0Zm2.494-1.336a.367.367,0,0,1-.518.519l-1.164-1.164a.366.366,0,0,1,.517-.517l1.164,1.164Zm.819-2.708a.366.366,0,1,1,0,.732h-1.646a.366.366,0,1,1,0-.732Zm-1.336-2.494a.366.366,0,0,1,.518.519l-1.164,1.164a.366.366,0,0,1-.517-.518Z" transform="translate(-869.042 -610.873)" fill="#80bbe7" fill-rule="evenodd"/>
        <path id="Trazado_907472" data-name="Trazado 907472" d="M830.948,728.926a.366.366,0,1,1,.732,0v1.646a.366.366,0,1,1-.732,0Zm-2.494,1.336a.366.366,0,1,1,.518-.519l1.164,1.164a.366.366,0,0,1-.518.517l-1.164-1.164Zm-.819,2.709a.366.366,0,1,1,0-.732h1.646a.366.366,0,1,1,0,.732Zm1.336,2.494a.366.366,0,0,1-.518-.518l1.164-1.164a.366.366,0,0,1,.518.516l-1.164,1.164Zm2.709.819a.366.366,0,0,1-.732,0v-1.647a.366.366,0,0,1,.732,0Zm2.494-1.336a.366.366,0,0,1-.516.518l-1.165-1.164a.366.366,0,1,1,.518-.516l1.164,1.164Zm.819-2.709a.366.366,0,0,1,0,.732h-1.646a.366.366,0,0,1,0-.732Zm-1.336-2.494a.366.366,0,0,1,.516.519l-1.164,1.164a.366.366,0,0,1-.518-.518Z" transform="translate(-822.631 -602.293)" fill="#80bbe7" fill-rule="evenodd"/>
        <path id="Trazado_907473" data-name="Trazado 907473" d="M1245.339,768.514a.366.366,0,1,1,.731,0v1.646a.366.366,0,1,1-.731,0Zm-2.494,1.336a.366.366,0,0,1,.516-.518l1.165,1.164a.366.366,0,1,1-.518.519l-1.164-1.164Zm-.819,2.708a.366.366,0,0,1,0-.732h1.646a.366.366,0,0,1,0,.733Zm1.336,2.494a.366.366,0,0,1-.516-.517l1.164-1.164a.366.366,0,0,1,.518.518Zm2.709.819a.366.366,0,1,1-.731,0v-1.645a.366.366,0,1,1,.731,0Zm2.494-1.336a.366.366,0,0,1-.516.518l-1.165-1.164a.366.366,0,0,1,.518-.518Zm.819-2.709a.366.366,0,0,1,0,.732h-1.646a.366.366,0,1,1,0-.732Zm-1.336-2.494a.366.366,0,0,1,.516.518l-1.164,1.164a.366.366,0,0,1-.517-.519Z" transform="translate(-875.938 -607.393)" fill="#80bbe7" fill-rule="evenodd"/>
        <g id="Grupo_1116490" data-name="Grupo 1116490" transform="translate(344.341 18.341)">
          <rect id="Rectángulo_405826" data-name="Rectángulo 405826" width="4.417" height="4.417" rx="1.013" fill="#80bbe7"/>
          <rect id="Rectángulo_405827" data-name="Rectángulo 405827" width="4.417" height="4.417" rx="1.013" transform="translate(9.055)" fill="#fff"/>
          <rect id="Rectángulo_405828" data-name="Rectángulo 405828" width="4.417" height="4.417" rx="1.013" transform="translate(18.112)" fill="#80bbe7"/>
          <rect id="Rectángulo_405829" data-name="Rectángulo 405829" width="4.417" height="4.417" rx="1.013" transform="translate(27.168)" fill="#80bbe7"/>
        </g>
        <path id="Trazado_907474" data-name="Trazado 907474" d="M828.808,646.792Zm3.432-13.064a6.6,6.6,0,1,1-1.933,4.666A6.6,6.6,0,0,1,832.24,633.727Zm1.425-6.541a11.635,11.635,0,0,0-4.857,2.808.406.406,0,0,1-.484.059l-3.066-1.772-.017-.01a.766.766,0,0,0-1.021.283l-.013.021-2.158,3.736a.766.766,0,0,0,.283,1.039l.021.013,3.042,1.756a.4.4,0,0,1,.191.447h0a11.469,11.469,0,0,0-.256,1.394,11.75,11.75,0,0,0,0,2.844,11.446,11.446,0,0,0,.256,1.393.406.406,0,0,1-.214.46l-3.042,1.756h0a.765.765,0,0,0-.283,1.039l2.169,3.758h0a.764.764,0,0,0,1.038.283l.023-.013,3.046-1.759a.406.406,0,0,1,.482.058,11.744,11.744,0,0,0,2.262,1.711,11.61,11.61,0,0,0,2.6,1.106.406.406,0,0,1,.294.39v3.535a.763.763,0,0,0,.759.759h4.34a.765.765,0,0,0,.759-.759v-3.535a.406.406,0,0,1,.311-.394,11.587,11.587,0,0,0,2.588-1.1,11.726,11.726,0,0,0,2.263-1.711.406.406,0,0,1,.5-.047l3.046,1.759a.764.764,0,0,0,1.038-.283l.013-.021,2.158-3.739h0a.765.765,0,0,0-.283-1.038l-3.064-1.77a.4.4,0,0,1-.192-.445h0a11.541,11.541,0,0,0,.256-1.394,11.763,11.763,0,0,0,0-2.844,11.472,11.472,0,0,0-.256-1.394.407.407,0,0,1,.214-.46l3.042-1.756a.766.766,0,0,0,.283-1.038l-.013-.023-2.135-3.722h0a.765.765,0,0,0-1.038-.283h0l-3.067,1.772a.406.406,0,0,1-.492-.068,11.743,11.743,0,0,0-2.263-1.7,11.579,11.579,0,0,0-2.6-1.106.406.406,0,0,1-.294-.39v-3.535a.763.763,0,0,0-.759-.759h-4.331a.761.761,0,0,0-.759.759v3.535a.4.4,0,0,1-.317.392Z" transform="translate(-821.95 -588.648)" fill="#d3ebfa" fill-rule="evenodd"/>
        <g id="Grupo_1116491" data-name="Grupo 1116491" transform="translate(189.126 0.072)">
          <path id="Trazado_907475" data-name="Trazado 907475" d="M1068.382,703.808c-3.853,3.511-4.456,3.928-4.456,3.928s-2.545,4.833-1.565,4.827a2.731,2.731,0,0,0,1.761-.888s.954,1.217,1.813.707a12.136,12.136,0,0,1,1.308-.7s.99.976,1.794.339,4.686-4.818,4.686-4.818l5.12-3.357-2.042-1.838Z" transform="translate(-1041.972 -598.951)" fill="#e98daf" fill-rule="evenodd"/>
          <path id="Trazado_907476" data-name="Trazado 907476" d="M1139.255,822.185c-.079.54-.707,3.259-.7,3.327.112.8.308,2.4.308,2.4a6.957,6.957,0,0,1-3.022,2.064c-1.454.262-8.06.557-8.139.2a18.179,18.179,0,0,1,1.649-3.208,7.6,7.6,0,0,0,2.121-5.209C1131.73,818.122,1139.255,822.185,1139.255,822.185Z" transform="translate(-1050.404 -614.159)" fill="#f3c6d4" fill-rule="evenodd"/>
          <path id="Trazado_907477" data-name="Trazado 907477" d="M1130.607,828.443l.809-.283a5.6,5.6,0,0,0,4.138.178,4.949,4.949,0,0,0,2.93-2.081.435.435,0,0,1,.361-.262h.543a1.165,1.165,0,0,1,1.065.684,12.991,12.991,0,0,1,.059,6.188c-.707,2-1.7,1.734-1.7,1.734a13.113,13.113,0,0,0-6.595-.225c-2.657.938-5.09,1.913-5.09,1.913S1127.253,830.992,1130.607,828.443Z" transform="translate(-1050.331 -614.895)" fill="#0e0226" fill-rule="evenodd"/>
          <path id="Trazado_907478" data-name="Trazado 907478" d="M1110.5,835.726l-.291-.86v-1.042c0-.392.163-1.567,1.3-1.567h4.354c1.01,0,6.468-2.774,10.662-6.186a.577.577,0,0,1,.737-.093c.44.253,1.777,1.322,1.913,1.434a.862.862,0,0,1,.072.733c-.081.158-3.96,7.846-3.96,7.846S1113.849,837.487,1110.5,835.726Z" transform="translate(-1048.154 -614.882)" fill="#1a0f44" fill-rule="evenodd"/>
          <path id="Trazado_907479" data-name="Trazado 907479" d="M1110.167,835.889a.719.719,0,0,0-.257.451v.837a1.641,1.641,0,0,0,1.632,1.066h12.083a10.323,10.323,0,0,0,4.313-.94,24.931,24.931,0,0,1,3.111-1.138s.283-.1.283.4v.96c0,.239-.141.892.839.892h5.878c.447,0,.96-.255.96-1.169V834.9c0-.566-.346-1.021-.719-1.021h-4.525a12.6,12.6,0,0,0-5.764,1.575,15.412,15.412,0,0,1-6.966,1.441h-6.76A7.67,7.67,0,0,1,1110.167,835.889Z" transform="translate(-1048.117 -615.911)" fill="#0e0226" fill-rule="evenodd"/>
          <path id="Trazado_907480" data-name="Trazado 907480" d="M1168.663,822.185c-.079.54-.707,3.259-.7,3.327.112.8.308,2.4.308,2.4a6.957,6.957,0,0,1-3.022,2.064c-1.455.262-8.06.557-8.139.2a18.1,18.1,0,0,1,1.65-3.211,7.606,7.606,0,0,0,2.121-5.209C1161.139,818.122,1168.663,822.185,1168.663,822.185Z" transform="translate(-1054.188 -614.159)" fill="#f3c6d4" fill-rule="evenodd"/>
          <path id="Trazado_907481" data-name="Trazado 907481" d="M1160.018,828.443l.809-.283a5.6,5.6,0,0,0,4.137.178,4.937,4.937,0,0,0,2.928-2.081.439.439,0,0,1,.361-.262h.544a1.165,1.165,0,0,1,1.065.684,12.978,12.978,0,0,1,.059,6.188c-.707,2-1.7,1.734-1.7,1.734a13.1,13.1,0,0,0-6.594-.225c-2.658.938-5.09,1.913-5.09,1.913S1156.661,830.992,1160.018,828.443Z" transform="translate(-1054.113 -614.895)" fill="#0e0226" fill-rule="evenodd"/>
          <path id="Trazado_907482" data-name="Trazado 907482" d="M1139.906,835.726l-.293-.86v-1.042c0-.392.164-1.567,1.3-1.567h4.354c1.008,0,6.466-2.774,10.66-6.186a.575.575,0,0,1,.735-.093c.441.253,1.777,1.322,1.913,1.434a.866.866,0,0,1,.072.732l-3.959,7.847S1143.258,837.487,1139.906,835.726Z" transform="translate(-1051.937 -614.882)" fill="#1a0f44" fill-rule="evenodd"/>
          <path id="Trazado_907483" data-name="Trazado 907483" d="M1139.575,835.889a.719.719,0,0,0-.256.451v.837a1.639,1.639,0,0,0,1.632,1.066h12.081a10.324,10.324,0,0,0,4.314-.94,24.973,24.973,0,0,1,3.111-1.138s.283-.1.283.4v.96c0,.239-.141.892.839.892h5.878c.447,0,.959-.255.959-1.169V834.9c0-.566-.345-1.021-.717-1.021h-4.525a12.607,12.607,0,0,0-5.762,1.575,15.413,15.413,0,0,1-6.964,1.441h-6.762a7.675,7.675,0,0,1-4.111-1.005Z" transform="translate(-1051.901 -615.911)" fill="#0e0226" fill-rule="evenodd"/>
          <path id="Trazado_907484" data-name="Trazado 907484" d="M1087.85,634.052s-2.723,4.57-1.015,14.962,13.5,50.831,5.492,71.934a1.907,1.907,0,0,0,.882,2.244c1.376.8,20.827,4.173,35.048-1.885S1117.5,637.135,1087.85,634.052Z" transform="translate(-1045.075 -590.207)" fill="#4c708f" fill-rule="evenodd"/>
          <path id="Trazado_907485" data-name="Trazado 907485" d="M1129.825,803.817a12.336,12.336,0,0,0,8.575.765,2.843,2.843,0,0,0,1.678-1.932c.305-1.424,10.375-86.178,11.595-101.224s-7.972-24.232-22.059-33.891-2.3-1.5-3.394-2.121a128.473,128.473,0,0,1-7.592,21.241l-.032,6.373a5.209,5.209,0,0,0,.321,1.261c4.292,17.057,4.8,30.669,5.443,47.828.027.5-.252-12.88.058,1.5s3.569,55.728,3.773,57.356S1129.112,803.664,1129.825,803.817Z" transform="translate(-1049.236 -593.903)" fill="#344154" fill-rule="evenodd"/>
          <path id="Trazado_907486" data-name="Trazado 907486" d="M1090.921,649.612l4.07,6.606s17.251,29.629,19.64,33.849,12.612,3.62,12.612,3.62l-21.835-63.466a95.206,95.206,0,0,0-10.584-1.144c-2.96.062-4.859,4.59-4.859,4.59Z" transform="translate(-1045.552 -589.566)" fill="#344154" fill-rule="evenodd"/>
          <path id="Trazado_907487" data-name="Trazado 907487" d="M1087.85,634.052s-2.723,4.57-1.015,14.962c1.321,8.03,8.662,34.01,8.233,55.147h0c3.756-38.462-3.166-62.793-5.583-69.853C1088.945,634.2,1088.4,634.109,1087.85,634.052Z" transform="translate(-1045.075 -590.207)" fill="#428fcd" fill-rule="evenodd"/>
          <path id="Trazado_907488" data-name="Trazado 907488" d="M1155.777,803.724s2.96,1.654,8.343.486a2.845,2.845,0,0,0,1.677-1.932c.305-1.425,4.336-29.836,5.554-44.887S1182.8,685.9,1155.8,667.385s-32.814,13.433-32.814,13.433,25.184,10.605,25.793,38.862,5.16,79.574,5.363,81.2S1155.064,803.571,1155.777,803.724Z" transform="translate(-1049.803 -593.752)" fill="#5d6776" fill-rule="evenodd"/>
          <path id="Trazado_907489" data-name="Trazado 907489" d="M1161.6,808.062a15.615,15.615,0,0,0,6.13-.208,2.843,2.843,0,0,0,1.677-1.93c.305-1.424,4.335-29.836,5.554-44.887.926-11.415,7.032-46.663-1.865-71.094-.122.085-14.017,9.823-22.015,23.484a44.2,44.2,0,0,1,1.311,9.9c.1,4.769.32,10.2.607,15.929,3.43-3.676,7.989-8.637,10.3-11.415,4-4.8,8.5-3.1,10.1-.8s-4.5,60.191-5.3,67.59C1167.544,799.832,1163.784,805.288,1161.6,808.062Z" transform="translate(-1053.413 -597.398)" fill="#858d98" fill-rule="evenodd"/>
          <path id="Trazado_907490" data-name="Trazado 907490" d="M1078.748,614.091c.042,0,.16.495.657,1.332L1076.953,618a21.768,21.768,0,0,0,1.523,1.7,5.3,5.3,0,0,0-2.687,1.943s-2.63,8.1-1.866,8.89l-.082.1c-4.738,5.594-7.646,3.742-8.237,3.24s-3.5-3.17-3.818-3.232-1.437,1.266-2.195.624a79.272,79.272,0,0,1-8.443-11.465c-4.006-6.325-1.745-13.609-1.745-13.609,9.765-7.928,17.879,7,18.862,4.5s3.784-2.737,5.337.044C1073.826,611.113,1078.691,613.68,1078.748,614.091Z" transform="translate(-1040.254 -586.321)" fill="#f3c6d4" fill-rule="evenodd"/>
          <path id="Trazado_907491" data-name="Trazado 907491" d="M1078.751,614.123c.042,0,.161.495.657,1.332l-2.451,2.579a21.745,21.745,0,0,0,1.523,1.7,6.081,6.081,0,0,0-.793.335,1.991,1.991,0,0,0-.249-.96c-.666-.768-1.992-2.415-1.992-2.415a1.475,1.475,0,0,1-2.206-1.185c-.351-2.049-1.924-4.05-3.575-3.724s-.707,2.472-.707,2.472l3.9,5.628-.649,6.7s-6.1,1.1-4.849-1.5-1.951-4.6-5.656-8.8-5.749-3.75-6.7-3.1c-.592.406-3.344,2.251-5.331,3.582a18.024,18.024,0,0,1-.8-7.735,48.293,48.293,0,0,1,8.36-4.949c5.983,1.315,10.322,8.422,11.029,6.632.981-2.506,3.784-2.737,5.338.044C1073.829,611.146,1078.695,613.708,1078.751,614.123Z" transform="translate(-1040.256 -586.353)" fill="#e98daf" fill-rule="evenodd"/>
          <path id="Trazado_907492" data-name="Trazado 907492" d="M1083.7,615.595s1.9.126,3.35.189,2.639,8.512,2.639,8.512l-2.468,3.751-.575.875-1.868,2.841-.177-.877s-1.956-1.516-3.187.189-4.314-2.862-4.314-2.862S1076.537,618.2,1083.7,615.595Z" transform="translate(-1043.896 -587.833)" fill="#f3c6d4" fill-rule="evenodd"/>
          <path id="Trazado_907493" data-name="Trazado 907493" d="M1084.069,615.595s1.9.126,3.35.189,2.639,8.512,2.639,8.512l-2.467,3.751-.576.875-1.868,2.841-.177-.877s-1.956-1.516-3.187.189a.905.905,0,0,1-1.187.274l.849-3.518s.666-6.481,0-7.248c-.406-.468-1.055-1.261-1.5-1.81a8.59,8.59,0,0,1,4.126-3.18Z" transform="translate(-1044.261 -587.833)" fill="#e98daf" fill-rule="evenodd"/>
          <path id="Trazado_907494" data-name="Trazado 907494" d="M1063.616,611.474s-4.463,2.178-7.991-4.518c0,0-4.57,4.843-7.547,6.053a1.9,1.9,0,0,1-.185.062l.185-.062a6.73,6.73,0,0,1-2.668-.566,9.524,9.524,0,0,1-5.44-4.781c-2.6-5.2.5-7.849,3.3-7.494,0,0,4.2-9.149,6.548-11.848s7.849-1.555,7.849-1.555-.8-2.35.15-2.9,6.1.468,8.1,6.434c0,0,4-.653,6.1,1.384s6.76,19.723,6.787,19.816c.1,1.131-.346,2.262-1.483,2.306a5.809,5.809,0,0,1-4.918-2.3s-1.479-5.278-4.079-4.481c0,0-2.212.021-1.177,3.736a11.544,11.544,0,0,0,2.121,2.687,21.153,21.153,0,0,1,6.928,8.767c2.336,5.46-2.6,8.908-3.959,10.509s-3.631,2.846-5.266,1.461-5.325-4.511-5.885-4.982-.689-.99-.553-1.147c0,0,2.38-2.525,4.187-4.26s3.218-2.862,3.218-4.846a7.018,7.018,0,0,0-1.868-5.58,8.669,8.669,0,0,0-2.456-1.9Z" transform="translate(-1038.994 -583.735)" fill="#344154" fill-rule="evenodd"/>
          <path id="Trazado_907495" data-name="Trazado 907495" d="M1055.626,606.957s-4.57,4.843-7.547,6.053a1.919,1.919,0,0,1-.185.062l.185-.062a6.73,6.73,0,0,1-2.668-.566,9.524,9.524,0,0,1-5.44-4.781c-2.6-5.2.5-7.849,3.3-7.494,0,0,4.2-9.149,6.548-11.848s7.849-1.555,7.849-1.555-.8-2.35.15-2.9,6.1.468,8.1,6.434C1065.916,590.3,1065.931,596.256,1055.626,606.957Z" transform="translate(-1038.994 -583.734)" fill="#27313f" fill-rule="evenodd"/>
          <path id="Trazado_907496" data-name="Trazado 907496" d="M1039.424,606.512c-1.509-4.338,1.3-6.52,3.852-6.2,0,0,16.2,3.818,18.4-15.413a8.948,8.948,0,0,1,.747.5C1062.627,593.356,1060.254,608.073,1039.424,606.512Z" transform="translate(-1038.993 -583.886)" fill="#344154" fill-rule="evenodd"/>
          <path id="Trazado_907497" data-name="Trazado 907497" d="M1060.154,625.7h0a1.038,1.038,0,0,1,1.459.122l.871,1.031a1.038,1.038,0,0,1-.122,1.459h0a1.038,1.038,0,0,1-1.458-.122l-.872-1.032a1.038,1.038,0,0,1,.122-1.458Z" transform="translate(-1041.669 -589.101)" fill="#344154" fill-rule="evenodd"/>
          <path id="Trazado_907498" data-name="Trazado 907498" d="M1063.747,628.764a1.53,1.53,0,1,1-.179,2.156A1.53,1.53,0,0,1,1063.747,628.764Z" transform="translate(-1042.109 -589.481)" fill="#ed7792" fill-rule="evenodd"/>
          <path id="Trazado_907499" data-name="Trazado 907499" d="M1060.021,623.321a.314.314,0,0,0-.141-.612,3.891,3.891,0,0,0-2.738,2.241.314.314,0,1,0,.591.215,3.253,3.253,0,0,1,2.288-1.844Z" transform="translate(-1041.328 -588.747)" fill="#344154" fill-rule="evenodd"/>
          <path id="Trazado_907500" data-name="Trazado 907500" d="M1093.337,699.386s-13.2,4.924-14.577,5.59-2.895-4.833-3.023-5.728.817-1.944,2.606-2.969,11.737-6.787,11.737-6.787Z" transform="translate(-1043.719 -597.337)" fill="#fff" fill-rule="evenodd"/>
          <path id="Trazado_907501" data-name="Trazado 907501" d="M1095.644,693.716c-4.827,1.813-13.193,4.972-14.382,5.546-1.687.813-3.535-5.9-3.694-6.994s1-2.374,3.184-3.626c1.236-.707,5.656-3.266,9.263-5.355a10.17,10.17,0,0,0,3.7-7.176c.484-4.938,2.183-27.591,2.183-27.591l13.221,5.881,2.346,3.457s-4.958,21.447-6.9,26.432S1099.923,692.1,1095.644,693.716Z" transform="translate(-1043.955 -592.069)" fill="#344154" fill-rule="evenodd"/>
          <path id="Trazado_907502" data-name="Trazado 907502" d="M1164.965,661.455s9.4,16.261,11.171,40.606a1.15,1.15,0,0,1-.787,1.225c-.942.4-8.811.022-18.059,11.374s-24.027,21.553-32.5,20.221c0,0-.916,0-1.029-1.489s-1.889-68.1-29.111-92.166a7.777,7.777,0,0,1-2.545-5.86C1092.2,631.678,1134.752,616.586,1164.965,661.455Z" transform="translate(-1045.826 -589.68)" fill="#6595bf" fill-rule="evenodd"/>
          <path id="Trazado_907503" data-name="Trazado 907503" d="M1161.917,680.191l-1.971,6.6s-4.2.205-15.089-21.644c0,0-4.334-8.418-16.844-10.99l5.571-7.93s23.78,4.2,23.657,6.229S1161.917,680.191,1161.917,680.191Z" transform="translate(-1050.446 -591.774)" fill="#4c708f" fill-rule="evenodd"/>
          <path id="Trazado_907504" data-name="Trazado 907504" d="M1102.987,664.436l7.848-5.271a2.074,2.074,0,0,1,2.606.332l13.716,15.157a1.464,1.464,0,0,1-.263,2.262l-7.848,5.27a2.074,2.074,0,0,1-2.606-.331L1102.724,666.7a1.462,1.462,0,0,1,.263-2.261Z" transform="translate(-1047.139 -593.395)" fill="#344154" fill-rule="evenodd"/>
          <path id="Trazado_907505" data-name="Trazado 907505" d="M1101.679,665.312l7.849-5.272a2.073,2.073,0,0,1,2.6.332l13.716,15.157a1.465,1.465,0,0,1-.263,2.263l-7.849,5.27a2.076,2.076,0,0,1-2.607-.331l-13.716-15.157a1.464,1.464,0,0,1,.266-2.262Z" transform="translate(-1046.973 -593.509)" fill="#1a212a" fill-rule="evenodd"/>
          <path id="Trazado_907506" data-name="Trazado 907506" d="M1103.044,668.133l1.264-.848a.334.334,0,0,1,.424.054l3.394,3.75a.236.236,0,0,1-.042.365l-1.264.848a.334.334,0,0,1-.424-.054L1103,668.5a.236.236,0,0,1,.042-.363Z" transform="translate(-1047.219 -594.476)" fill="#674f9b" fill-rule="evenodd"/>
          <path id="Trazado_907507" data-name="Trazado 907507" d="M1104.238,668.249a.833.833,0,0,1,1.075.151.632.632,0,0,1-.129.959.831.831,0,0,1-1.073-.151.631.631,0,0,1,.127-.959Z" transform="translate(-1047.35 -594.589)" fill="#d3ebfa" fill-rule="evenodd"/>
          <path id="Trazado_907508" data-name="Trazado 907508" d="M1105.729,669.917a.833.833,0,0,1,1.073.151.632.632,0,0,1-.128.958.833.833,0,0,1-1.073-.151.632.632,0,0,1,.129-.959Z" transform="translate(-1047.541 -594.804)" fill="#d3ebfa" fill-rule="evenodd"/>
          <path id="Trazado_907509" data-name="Trazado 907509" d="M1105.981,670.2a.474.474,0,0,1,.609.085.359.359,0,0,1-.073.544.472.472,0,0,1-.608-.085.359.359,0,0,1,.072-.544Z" transform="translate(-1047.59 -594.848)" fill="#fff" fill-rule="evenodd"/>
          <path id="Trazado_907510" data-name="Trazado 907510" d="M1104.471,668.509a.5.5,0,0,1,.648.091.382.382,0,0,1-.078.578.5.5,0,0,1-.646-.092.382.382,0,0,1,.076-.577Z" transform="translate(-1047.395 -594.63)" fill="#fff" fill-rule="evenodd"/>
          <path id="Trazado_907511" data-name="Trazado 907511" d="M1107.168,671.516a.5.5,0,0,1,.646.092.38.38,0,0,1-.077.577.5.5,0,0,1-.646-.092.38.38,0,0,1,.076-.577Z" transform="translate(-1047.741 -595.017)" fill="#d3ebfa" fill-rule="evenodd"/>
          <path id="Trazado_907512" data-name="Trazado 907512" d="M1092.049,609.16c-.16.092-3.419.938-3.968,1.184s-.723,1.414-.848,3.387-1.728,16.649-1.8,17.484a1.333,1.333,0,0,0,.946,1.586c.724.249,9.071,3.252,9.071,3.252Z" transform="translate(-1044.975 -587.006)" fill="#344154" fill-rule="evenodd"/>
          <path id="Trazado_907513" data-name="Trazado 907513" d="M1142.743,656.591s-12.613,8.358-14.064,9.137,2.371,5.568,3.068,6.246,2.206.519,4.228-.39,13.31-5.911,13.31-5.911Z" transform="translate(-1050.489 -593.107)" fill="#fff" fill-rule="evenodd"/>
          <path id="Trazado_907514" data-name="Trazado 907514" d="M1148.552,650.978s-16.495,10.932-18.392,11.951,3.1,7.282,4.013,8.167,2.885.677,5.527-.51,17.411-7.73,17.411-7.73Z" transform="translate(-1050.667 -592.385)" fill="#1a212a" fill-rule="evenodd"/>
          <path id="Trazado_907515" data-name="Trazado 907515" d="M1109.19,646.83a110.028,110.028,0,0,0,17.018,2.439c9.234.566,28.406,1.838,29.593,32.46,0,0,.141.163.638-.013s13.846-12.019,15.72-17.7-8.968-26.62-14.914-29.326-17.016-4.908-29.109-17.052-28.73-10.69-28.73-10.69l-3.62,13.4S1097.438,643.363,1109.19,646.83Z" transform="translate(-1046.301 -586.714)" fill="#84aacc" fill-rule="evenodd"/>
          <path id="Trazado_907516" data-name="Trazado 907516" d="M1155.263,666.314a47.128,47.128,0,0,1,3.367,16.893s.141.163.638-.013,13.846-12.019,15.72-17.705c.751-2.278-.537-7-2.733-12.019-.008,3.669-.492,7.733-2.325,9.757-2.572,2.839-10.073,3.167-14.666,3.08Zm5.8-29.564a6.181,6.181,0,0,0-.99-.585c-5.948-2.705-17.016-4.908-29.109-17.052q-.375-.377-.758-.735c.089.2,7.807,17.685-11.479,21.563,0,0-1.25.25-.9,1.3s35.46-9.441,43.235-4.49Z" transform="translate(-1049.129 -588.192)" fill="#6595bf" fill-rule="evenodd"/>
          <path id="Trazado_907517" data-name="Trazado 907517" d="M1100.307,606.911c-.448.016-.694.037-.694.037l-2.212,8.186,3.208,22.38,2.817,1.16a14.376,14.376,0,0,1-.218-3.36c.25-.225,6.15-3.125,6.9-3.525a1.068,1.068,0,0,0,.6-1.124C1110.133,629.465,1102.083,610.986,1100.307,606.911Z" transform="translate(-1046.508 -586.716)" fill="#1b7fc2" fill-rule="evenodd"/>
          <path id="Trazado_907518" data-name="Trazado 907518" d="M1092.984,606.165a1.838,1.838,0,0,0-.99,1.186c-.23.877.1,19.205.181,21.246s8.3,12.475,10.345,14.891a10.576,10.576,0,0,0,6.17,3.228.119.119,0,0,0,.107-.1c.011-.095-3.206-1.422-4.184-2.91s-2.678-7.852-2.876-8.781c0,0,5.656-2.723,6.629-3.275s1.131-1,.762-1.633-9.559-22.38-10.222-23.19S1095.836,605.83,1092.984,606.165Z" transform="translate(-1045.802 -586.601)" fill="#d3ebfa" fill-rule="evenodd"/>
          <path id="Trazado_907519" data-name="Trazado 907519" d="M1061.381,587.318a.283.283,0,1,1-.327.462,11.037,11.037,0,0,0-8.085-1.3.283.283,0,0,1-.1-.556,11.64,11.64,0,0,1,8.513,1.4Z" transform="translate(-1040.746 -583.996)" fill="#201049" fill-rule="evenodd"/>
          <path id="Trazado_907520" data-name="Trazado 907520" d="M1047.809,615.6a.283.283,0,0,1,.25.508c-.017.008-5.31,2.719-8.64-3.473a.283.283,0,1,1,.5-.269C1042.987,618.07,1047.8,615.607,1047.809,615.6Z" transform="translate(-1039.045 -587.398)" fill="#201049" fill-rule="evenodd"/>
          <path id="Trazado_907521" data-name="Trazado 907521" d="M1126.168,667.147c-.834-.3-2.569-1.243-3.029-1.472-.518-.259-4.847-1.229-4.847-1.229l2.326,2.585a75.623,75.623,0,0,0-8.659,4.33c-1.555,1.227-.581,1.808.776,1.808h1.356s-.259,2.326,1.486,2.391a9.328,9.328,0,0,0,1.872,0s.646,1.939,2.07,1.745a19.123,19.123,0,0,0,6.719-2.391,10.245,10.245,0,0,0,3.057-2.188C1128.361,671.67,1125.876,668.417,1126.168,667.147Z" transform="translate(-1048.279 -594.116)" fill="#f2bbc9" fill-rule="evenodd"/>
          <path id="Trazado_907522" data-name="Trazado 907522" d="M1126.168,667.49c-.236-.083-.543-.219-.872-.376-.141,2.559,1.838,4.6-1.324,6.284-3.478,1.859-5.759,1.38-9.719-2.4-.184-.126-.362-.243-.537-.358a13.41,13.41,0,0,0-1.758,1.063c-1.555,1.227-.581,1.809.776,1.809h1.356s-.259,2.326,1.486,2.391a9.335,9.335,0,0,0,1.872,0s.646,1.939,2.07,1.745a19.124,19.124,0,0,0,6.719-2.391,10.246,10.246,0,0,0,3.057-2.187C1128.361,672.014,1125.876,668.758,1126.168,667.49Z" transform="translate(-1048.279 -594.46)" fill="#e98daf" fill-rule="evenodd"/>
        </g>
        <g id="Grupo_1116500" data-name="Grupo 1116500" transform="translate(65.748 82.117)">
          <path id="Trazado_907524" data-name="Trazado 907524" d="M1014.614,677.892H939.377c-3.75,0-6.817,2.565-6.817,5.7v134.6h88.871V683.59C1021.431,680.457,1018.365,677.892,1014.614,677.892Z" transform="translate(-901.924 -677.892)" fill="#80bbe7" fill-rule="evenodd"/>
          <path id="Trazado_907525" data-name="Trazado 907525" d="M1015.4,681.922H940.163a1.393,1.393,0,0,0-1.495,1.25V818.709h78.227V683.165a1.391,1.391,0,0,0-1.495-1.243Z" transform="translate(-902.709 -678.411)" fill="#fff" fill-rule="evenodd"/>
          <path id="Trazado_907526" data-name="Trazado 907526" d="M971.529,681.923h20.513a1.62,1.62,0,0,1,1.741,1.454h0a1.62,1.62,0,0,1-1.741,1.455H971.529a1.622,1.622,0,0,1-1.741-1.455h0a1.622,1.622,0,0,1,1.741-1.454Z" transform="translate(-906.713 -678.411)" fill="#1a212a" fill-rule="evenodd"/>
          <path id="Trazado_907527" data-name="Trazado 907527" d="M940.163,681.922H1015.4a1.391,1.391,0,0,1,1.495,1.25v.205H938.668v-.212A1.393,1.393,0,0,1,940.163,681.922Z" transform="translate(-902.709 -678.411)" fill="#1a212a" fill-rule="evenodd"/>
          <path id="Trazado_907528" data-name="Trazado 907528" d="M971.529,800.848h20.513a1.621,1.621,0,0,1,1.741,1.455h0a1.622,1.622,0,0,1-1.741,1.455H971.529a1.622,1.622,0,0,1-1.741-1.455h0A1.622,1.622,0,0,1,971.529,800.848Z" transform="translate(-906.713 -693.71)" fill="#1a212a" fill-rule="evenodd"/>
          <path id="Trazado_907529" data-name="Trazado 907529" d="M940.163,800.847H1015.4a1.391,1.391,0,0,1,1.495,1.249v.208H938.668V802.1a1.393,1.393,0,0,1,1.495-1.248Z" transform="translate(-902.709 -693.709)" fill="#1a212a" fill-rule="evenodd"/>
          <g id="Grupo_1116492" data-name="Grupo 1116492" transform="translate(35.959 25.396)">
            <rect id="Rectángulo_405830" data-name="Rectángulo 405830" width="17.832" height="28.02" fill="#f9b532"/>
            <rect id="Rectángulo_405831" data-name="Rectángulo 405831" width="17.832" height="23.873" transform="translate(0 4.147)" fill="#f59f3a"/>
            <rect id="Rectángulo_405832" data-name="Rectángulo 405832" width="17.832" height="21.348" transform="translate(0 6.674)" fill="#fff"/>
            <rect id="Rectángulo_405833" data-name="Rectángulo 405833" width="17.832" height="21.348" transform="translate(0 6.674)" fill="#fff2d1"/>
            <path id="Trazado_907530" data-name="Trazado 907530" d="M956.5,712.63H943.3a5.256,5.256,0,0,0-4.635,3.375v19.772H956.5Z" transform="translate(-938.668 -707.756)" fill="#fcc749" fill-rule="evenodd"/>
          </g>
          <g id="Grupo_1116493" data-name="Grupo 1116493" transform="translate(41.595 25.396)">
            <rect id="Rectángulo_405834" data-name="Rectángulo 405834" width="12.197" height="24.771" fill="#f18d3d"/>
            <rect id="Rectángulo_405835" data-name="Rectángulo 405835" width="12.197" height="20.624" transform="translate(0 4.147)" fill="#ee7e40"/>
            <rect id="Rectángulo_405836" data-name="Rectángulo 405836" width="12.197" height="18.097" transform="translate(0 6.674)" fill="#f2bcc2"/>
            <rect id="Rectángulo_405837" data-name="Rectángulo 405837" width="12.197" height="18.097" transform="translate(0 6.674)" fill="#f2b2a5"/>
            <rect id="Rectángulo_405838" data-name="Rectángulo 405838" width="12.197" height="19.897" transform="translate(0 4.874)" fill="#f39a4c"/>
          </g>
          <g id="Grupo_1116494" data-name="Grupo 1116494" transform="translate(46.213 25.396)">
            <path id="Trazado_907531" data-name="Trazado 907531" d="M981.512,707.037H954.257a3.825,3.825,0,0,0-3.818,3.818v24.207h31.069Z" transform="translate(-950.439 -707.037)" fill="#f9b532" fill-rule="evenodd"/>
            <path id="Trazado_907532" data-name="Trazado 907532" d="M981.825,711.8H956.689a3.825,3.825,0,0,0-3.818,3.818v20.051H981.82Z" transform="translate(-950.751 -707.647)" fill="#f59f3a" fill-rule="evenodd"/>
            <path id="Trazado_907533" data-name="Trazado 907533" d="M954.738,736.044V717.8a3.111,3.111,0,0,1,3.111-3.111h24.218v21.352Z" transform="translate(-950.991 -708.023)" fill="#fff" fill-rule="evenodd"/>
            <path id="Trazado_907534" data-name="Trazado 907534" d="M956.914,736.042l4.852-19.333a4.9,4.9,0,0,1,1.085-2.013h19.5v21.352Z" transform="translate(-951.271 -708.022)" fill="#fff2d1" fill-rule="evenodd"/>
            <path id="Trazado_907535" data-name="Trazado 907535" d="M982.729,712.63h-13.2a5.232,5.232,0,0,0-4.771,3.818l-4.853,19.33h22.821Z" transform="translate(-951.656 -707.756)" fill="#fcc749" fill-rule="evenodd"/>
          </g>
          <g id="Grupo_1116495" data-name="Grupo 1116495" transform="translate(65.09 25.396)">
            <rect id="Rectángulo_405839" data-name="Rectángulo 405839" width="12.197" height="24.771" fill="#f18d3d"/>
            <rect id="Rectángulo_405840" data-name="Rectángulo 405840" width="12.197" height="20.624" transform="translate(0 4.147)" fill="#ee7e40"/>
            <rect id="Rectángulo_405841" data-name="Rectángulo 405841" width="12.197" height="18.097" transform="translate(0 6.674)" fill="#f2bcc2"/>
            <rect id="Rectángulo_405842" data-name="Rectángulo 405842" width="12.197" height="18.097" transform="translate(0 6.674)" fill="#f2b2a5"/>
            <rect id="Rectángulo_405843" data-name="Rectángulo 405843" width="12.197" height="19.897" transform="translate(0 4.874)" fill="#f39a4c"/>
          </g>
          <g id="Grupo_1116496" data-name="Grupo 1116496" transform="translate(69.704 25.396)">
            <path id="Trazado_907536" data-name="Trazado 907536" d="M1008.479,707.037H981.218a3.825,3.825,0,0,0-3.818,3.818v24.207h31.07Z" transform="translate(-977.4 -707.037)" fill="#f9b532" fill-rule="evenodd"/>
            <path id="Trazado_907537" data-name="Trazado 907537" d="M1008.79,711.8H983.653a3.826,3.826,0,0,0-3.818,3.818v20.051h28.951Z" transform="translate(-977.711 -707.647)" fill="#f59f3a" fill-rule="evenodd"/>
            <path id="Trazado_907538" data-name="Trazado 907538" d="M981.7,736.044V717.8a3.111,3.111,0,0,1,3.111-3.111h24.218v21.352Z" transform="translate(-977.951 -708.023)" fill="#fff" fill-rule="evenodd"/>
            <path id="Trazado_907539" data-name="Trazado 907539" d="M983.878,736.042l4.853-19.333a4.889,4.889,0,0,1,1.083-2.014h19.494v21.352Z" transform="translate(-978.23 -708.022)" fill="#fff2d1" fill-rule="evenodd"/>
            <path id="Trazado_907540" data-name="Trazado 907540" d="M1009.694,712.63H996.5a5.232,5.232,0,0,0-4.771,3.818l-4.853,19.33h22.821Z" transform="translate(-978.615 -707.756)" fill="#fcc749" fill-rule="evenodd"/>
          </g>
          <g id="Grupo_1116497" data-name="Grupo 1116497" transform="translate(88.586 25.396)">
            <rect id="Rectángulo_405844" data-name="Rectángulo 405844" width="12.197" height="24.771" fill="#f18d3d"/>
            <rect id="Rectángulo_405845" data-name="Rectángulo 405845" width="12.197" height="20.624" transform="translate(0 4.147)" fill="#ee7e40"/>
            <rect id="Rectángulo_405846" data-name="Rectángulo 405846" width="12.197" height="18.097" transform="translate(0 6.674)" fill="#f2bcc2"/>
            <rect id="Rectángulo_405847" data-name="Rectángulo 405847" width="12.197" height="18.097" transform="translate(0 6.674)" fill="#f2b2a5"/>
            <rect id="Rectángulo_405848" data-name="Rectángulo 405848" width="12.197" height="19.897" transform="translate(0 4.874)" fill="#f39a4c"/>
          </g>
          <g id="Grupo_1116498" data-name="Grupo 1116498" transform="translate(92.511 22.566)">
            <path id="Trazado_907541" data-name="Trazado 907541" d="M1007.384,749.215h46.056a3.826,3.826,0,0,0,3.818-3.818V710.435a3.818,3.818,0,0,0-3.818-3.818h-1.872v-1.776a1.052,1.052,0,0,0-1.049-1.051H1036.6a1.052,1.052,0,0,0-1.049,1.051v1.776h-28.169a3.826,3.826,0,0,0-3.818,3.818V745.4a3.826,3.826,0,0,0,3.815,3.813Z" transform="translate(-1003.569 -703.791)" fill="#f9b532" fill-rule="evenodd"/>
            <path id="Trazado_907542" data-name="Trazado 907542" d="M1007.7,749.825h46.056a3.826,3.826,0,0,0,3.818-3.818V711.778a3.781,3.781,0,0,0-1.7-.4H1054v-1.77a1.052,1.052,0,0,0-1.049-1.049h-13.915a1.052,1.052,0,0,0-1.049,1.049v1.775h-28.17A3.826,3.826,0,0,0,1006,715.2v34.232A3.775,3.775,0,0,0,1007.7,749.825Z" transform="translate(-1003.882 -704.401)" fill="#f59f3a" fill-rule="evenodd"/>
            <rect id="Rectángulo_405849" data-name="Rectángulo 405849" width="35.32" height="35.92" rx="3.567" transform="translate(3.744 9.504)" fill="#fff"/>
            <path id="Trazado_907543" data-name="Trazado 907543" d="M1040.078,750.618h-29.1a3.111,3.111,0,0,1-3.111-3.111V743.6l6.748-26.888a4.883,4.883,0,0,1,1.085-2.013h24.378a3.118,3.118,0,0,1,3.111,3.111v29.7a3.118,3.118,0,0,1-3.108,3.111Z" transform="translate(-1004.122 -705.193)" fill="#fff2d1" fill-rule="evenodd"/>
            <path id="Trazado_907544" data-name="Trazado 907544" d="M1012.789,749.869h42.524a5.239,5.239,0,0,0,4.772-3.818l7.552-30.092a2.884,2.884,0,0,0-2.858-3.818h-2.235l.475-1.889a1.054,1.054,0,0,0-1.044-1.393h-15.52a1.915,1.915,0,0,0-1.742,1.393l-.474,1.889h-21.985a5.24,5.24,0,0,0-4.772,3.818l-7.552,30.092a2.885,2.885,0,0,0,2.859,3.818Z" transform="translate(-1004.383 -704.445)" fill="#fcc749" fill-rule="evenodd"/>
            <path id="Trazado_907545" data-name="Trazado 907545" d="M1058.067,717.623l-6.035,24.05a5.242,5.242,0,0,1-4.772,3.818h-37.189l-.141.566a2.884,2.884,0,0,0,2.858,3.818h42.524a5.239,5.239,0,0,0,4.773-3.818l7.552-30.092a2.883,2.883,0,0,0-2.858-3.818h-2.236l.475-1.889a1.053,1.053,0,0,0-1.044-1.393h-2.852a3.138,3.138,0,0,1,.462,2.716Z" transform="translate(-1004.383 -704.443)" fill="#f9b532" fill-rule="evenodd"/>
          </g>
          <rect id="Rectángulo_405850" data-name="Rectángulo 405850" width="78.225" height="33.087" transform="translate(88.394 39.508)" fill="#bce0fc"/>
          <g id="Grupo_1116499" data-name="Grupo 1116499" transform="translate(35.959 72.585)">
            <path id="Trazado_907546" data-name="Trazado 907546" d="M971.529,761.2h20.513a1.622,1.622,0,0,1,1.741,1.455h0a1.621,1.621,0,0,1-1.741,1.455H971.529a1.621,1.621,0,0,1-1.741-1.455h0A1.622,1.622,0,0,1,971.529,761.2Z" transform="translate(-942.671 -761.196)" fill="#1a212a" fill-rule="evenodd"/>
            <path id="Trazado_907547" data-name="Trazado 907547" d="M940.163,761.2H1015.4a1.391,1.391,0,0,1,1.495,1.249v.208H938.668v-.208A1.393,1.393,0,0,1,940.163,761.2Z" transform="translate(-938.668 -761.196)" fill="#1a212a" fill-rule="evenodd"/>
          </g>
          <path id="Trazado_907548" data-name="Trazado 907548" d="M1000.337,721.563h75.239a1.392,1.392,0,0,1,1.493,1.249v.207h-27.115a1.623,1.623,0,0,1-1.74,1.455H1027.7a1.622,1.622,0,0,1-1.739-1.455H998.844v-.207A1.393,1.393,0,0,1,1000.337,721.563Z" transform="translate(-910.45 -683.51)" fill="#1a212a" fill-rule="evenodd"/>
          <path id="Trazado_907549" data-name="Trazado 907549" d="M991.1,756.319V723.231H938.668v34.337a1.393,1.393,0,0,1,1.495-1.249Z" transform="translate(-902.709 -683.725)" fill="#d3ebfa" fill-rule="evenodd"/>
        </g>
        <path id="Trazado_907550" data-name="Trazado 907550" d="M1073.968,700.378c-.479.354-.74.584-.74.584s-4.2-.382-5.474,1.082-4.074,5.028-5.283,5.6.126,1.592,2.672.707a24.349,24.349,0,0,0,5.41-3.056,7.039,7.039,0,0,0,4.709-.615,20.14,20.14,0,0,1-1.29-4.027,1.134,1.134,0,0,1-.006-.276Z" transform="translate(-852.83 -598.667)" fill="#f2bbc9" fill-rule="evenodd"/>
      </g>
      <g id="Grupo_1116528" data-name="Grupo 1116528" transform="translate(1029.596 1599.325)">
        <g id="Grupo_1116502" data-name="Grupo 1116502">
          <rect id="Rectángulo_405851" data-name="Rectángulo 405851" width="128.111" height="123.347" rx="8.41" fill="#e6dcfb"/>
        </g>
        <g id="Grupo_1116524" data-name="Grupo 1116524" transform="translate(8.954 13.03)">
          <g id="Grupo_1116503" data-name="Grupo 1116503" transform="translate(0 71.469)">
            <rect id="Rectángulo_405852" data-name="Rectángulo 405852" width="4.204" height="1.212" fill="#263238"/>
          </g>
          <g id="Grupo_1116504" data-name="Grupo 1116504" transform="translate(9.512 77.947)">
            <rect id="Rectángulo_405853" data-name="Rectángulo 405853" width="5.378" height="1.212" fill="#263238"/>
          </g>
          <g id="Grupo_1116505" data-name="Grupo 1116505" transform="translate(28.23 77.947)">
            <rect id="Rectángulo_405854" data-name="Rectángulo 405854" width="5.378" height="1.212" fill="#263238"/>
          </g>
          <g id="Grupo_1116506" data-name="Grupo 1116506" transform="translate(46.948 77.947)">
            <rect id="Rectángulo_405855" data-name="Rectángulo 405855" width="5.378" height="1.212" fill="#263238"/>
          </g>
          <g id="Grupo_1116507" data-name="Grupo 1116507" transform="translate(65.666 77.947)">
            <rect id="Rectángulo_405856" data-name="Rectángulo 405856" width="5.378" height="1.212" fill="#263238"/>
          </g>
          <g id="Grupo_1116508" data-name="Grupo 1116508" transform="translate(84.383 77.947)">
            <rect id="Rectángulo_405857" data-name="Rectángulo 405857" width="5.378" height="1.212" fill="#263238"/>
          </g>
          <g id="Grupo_1116509" data-name="Grupo 1116509" transform="translate(103.102 77.947)">
            <rect id="Rectángulo_405858" data-name="Rectángulo 405858" width="5.378" height="1.212" fill="#263238"/>
          </g>
          <g id="Grupo_1116510" data-name="Grupo 1116510" transform="translate(0 55.287)">
            <rect id="Rectángulo_405859" data-name="Rectángulo 405859" width="4.204" height="1.212" fill="#263238"/>
          </g>
          <g id="Grupo_1116511" data-name="Grupo 1116511" transform="translate(0 24.83)">
            <rect id="Rectángulo_405860" data-name="Rectángulo 405860" width="4.204" height="1.212" fill="#263238"/>
          </g>
          <g id="Grupo_1116512" data-name="Grupo 1116512" transform="translate(0 9.525)">
            <rect id="Rectángulo_405861" data-name="Rectángulo 405861" width="4.204" height="1.212" fill="#263238"/>
          </g>
          <g id="Grupo_1116513" data-name="Grupo 1116513" transform="translate(0.214 40.058)">
            <rect id="Rectángulo_405862" data-name="Rectángulo 405862" width="4.204" height="1.212" fill="#263238"/>
          </g>
          <g id="Grupo_1116514" data-name="Grupo 1116514" transform="translate(6.198 0)">
            <path id="Trazado_907551" data-name="Trazado 907551" d="M471.213,339.411s-.153.014-.451.021l-1.324.02-5.091.037-18.71.064-61.731.058H369.082v-.2c.027-20.645.051-38.807.068-51.828.025-6.493.045-11.7.059-15.305.014-1.782.025-3.166.034-4.12.007-.458.013-.812.017-1.068a3.6,3.6,0,0,1,.018-.362s.013.123.018.362.01.608.017,1.068c.007.954.02,2.339.034,4.12.014,3.6.034,8.812.059,15.305.017,13.022.041,31.186.068,51.828l-.2-.2h14.628l61.731.058,18.71.064,5.091.038,1.323.02C471.059,339.4,471.213,339.411,471.213,339.411Z" transform="translate(-369.082 -266.73)" fill="#263238"/>
          </g>
          <g id="Grupo_1116515" data-name="Grupo 1116515" transform="translate(10.462 40.465)">
            <path id="Trazado_907552" data-name="Trazado 907552" d="M473.7,319.8c0,.11-22.173.2-49.522.2s-49.526-.089-49.526-.2,22.169-.2,49.526-.2S473.7,319.692,473.7,319.8Z" transform="translate(-374.653 -319.603)" fill="#263238"/>
          </g>
          <g id="Grupo_1116516" data-name="Grupo 1116516" transform="translate(10.462 25.236)">
            <path id="Trazado_907553" data-name="Trazado 907553" d="M473.7,299.9c0,.11-22.173.2-49.522.2s-49.526-.089-49.526-.2,22.169-.2,49.526-.2S473.7,299.794,473.7,299.9Z" transform="translate(-374.653 -299.705)" fill="#263238"/>
          </g>
          <g id="Grupo_1116517" data-name="Grupo 1116517" transform="translate(10.462 9.931)">
            <path id="Trazado_907554" data-name="Trazado 907554" d="M473.7,279.906c0,.11-22.173.2-49.522.2s-49.526-.089-49.526-.2,22.169-.2,49.526-.2S473.7,279.8,473.7,279.906Z" transform="translate(-374.653 -279.707)" fill="#263238"/>
          </g>
          <g id="Grupo_1116518" data-name="Grupo 1116518" transform="translate(10.462 55.693)">
            <path id="Trazado_907555" data-name="Trazado 907555" d="M473.7,339.7c0,.109-22.173.2-49.522.2s-49.526-.089-49.526-.2,22.169-.2,49.526-.2S473.7,339.589,473.7,339.7Z" transform="translate(-374.653 -339.5)" fill="#263238"/>
          </g>
          <g id="Grupo_1116519" data-name="Grupo 1116519" transform="translate(11.486 1.114)">
            <path id="Trazado_907556" data-name="Trazado 907556" d="M375.989,336.48V322.969l8.421-13.074,5.714,4.383,11.729-18.218,6.917,4.871,9.624-16.807,7.82,6.363,11.736-22.3,12.632,24.919L460.8,280.647l12.031-3.442v59.273Z" transform="translate(-375.989 -268.191)" fill="#d9a171"/>
          </g>
          <g id="Grupo_1116520" data-name="Grupo 1116520" transform="translate(11.486 5.229)">
            <path id="Trazado_907557" data-name="Trazado 907557" d="M474.016,273.664a1.04,1.04,0,0,1-.212.016l-.626.016-2.442.028-9.231.052.088-.042-9.891,12.93-.048.061h-.078l-24.767.034.164-.092L416.56,304c-3.546,5.9-6.981,11.6-10.223,16.992l-.15.249-.17-.235L392.6,302.559l.267-.008-12.238,19.068-3.413,5.271-.9,1.376c-.206.31-.324.461-.324.461s.089-.17.283-.488l.865-1.4,3.339-5.318L392.6,302.377l.127-.2.141.192,13.463,18.413-.32.014,10.211-17,10.426-17.327.057-.093h.107l24.767.034-.124.061,9.966-12.868.034-.044h.054l9.231.052,2.442.028.626.014a1.215,1.215,0,0,1,.212.01Z" transform="translate(-375.989 -273.559)" fill="#263238"/>
          </g>
          <g id="Grupo_1116521" data-name="Grupo 1116521" transform="translate(30.389 37.546)">
            <path id="Trazado_907558" data-name="Trazado 907558" d="M402.589,316.7a.95.95,0,1,1-.95-.915.933.933,0,0,1,.95.915Z" transform="translate(-400.689 -315.79)" fill="#263238"/>
          </g>
          <g id="Grupo_1116522" data-name="Grupo 1116522" transform="translate(58.957 21.309)">
            <path id="Trazado_907559" data-name="Trazado 907559" d="M439.916,295.489a.95.95,0,1,1-.95-.915.933.933,0,0,1,.95.915Z" transform="translate(-438.016 -294.574)" fill="#263238"/>
          </g>
          <g id="Grupo_1116523" data-name="Grupo 1116523" transform="translate(81.166 17.319)">
            <path id="Trazado_907560" data-name="Trazado 907560" d="M468.934,290.276a.95.95,0,1,1-.95-.915.933.933,0,0,1,.95.915Z" transform="translate(-467.034 -289.361)" fill="#263238"/>
          </g>
        </g>
        <g id="Grupo_1116525" data-name="Grupo 1116525" transform="translate(18.464 101.251)">
          <ellipse id="Elipse_13458" data-name="Elipse 13458" cx="6.145" cy="5.916" rx="6.145" ry="5.916" transform="translate(0 0)" fill="#fff"/>
        </g>
        <g id="Grupo_1116526" data-name="Grupo 1116526" transform="translate(39.871 103.204)">
          <rect id="Rectángulo_405863" data-name="Rectángulo 405863" width="72.183" height="2.214" fill="#fff"/>
        </g>
        <g id="Grupo_1116527" data-name="Grupo 1116527" transform="translate(39.871 108.734)">
          <rect id="Rectángulo_405864" data-name="Rectángulo 405864" width="29.972" height="2.214" fill="#fff"/>
        </g>
      </g>
    </g>
  </g>
</svg>
