<svg xmlns="http://www.w3.org/2000/svg" xmlns:xlink="http://www.w3.org/1999/xlink" width="113" height="113" viewBox="0 0 113 113">
  <defs>
    <filter id="Trazado_896985" x="0" y="0" width="113" height="113" filterUnits="userSpaceOnUse">
      <feOffset dy="3" input="SourceAlpha"/>
      <feGaussianBlur stdDeviation="3" result="blur"/>
      <feFlood flood-opacity="0.161"/>
      <feComposite operator="in" in2="blur"/>
      <feComposite in="SourceGraphic"/>
    </filter>
  </defs>
  <g id="Grupo_1116533" data-name="Grupo 1116533" transform="translate(-239.5 -2163)">
    <g id="Grupo_1111318" data-name="Grupo 1111318" transform="translate(-92.281 -1683)">
      <g id="Grupo_1109826" data-name="Grupo 1109826" transform="translate(340.781 3852)">
        <g id="Grupo_1098742" data-name="Grupo 1098742">
          <g transform="matrix(1, 0, 0, 1, -9, -6)" filter="url(#Trazado_896985)">
            <g id="Trazado_896985-2" data-name="Trazado 896985" transform="translate(9 6)" fill="#e2dacc" opacity="0.859">
              <path d="M 47.49993515014648 93.5 C 41.28932189941406 93.5 35.26528167724609 92.28397369384766 29.59514808654785 89.88571929931641 C 24.1176815032959 87.56894683837891 19.1981086730957 84.25197601318359 14.97306823730469 80.02693176269531 C 10.74802875518799 75.80189514160156 7.431055068969727 70.88231658935547 5.11428165435791 65.40485382080078 C 2.716028451919556 59.73471832275391 1.500001788139343 53.71067810058594 1.500001788139343 47.50006484985352 C 1.500001788139343 41.28932189941406 2.716028451919556 35.26528167724609 5.11428165435791 29.59514617919922 C 7.431055068969727 24.11767959594727 10.74802875518799 19.19810676574707 14.97306823730469 14.97306632995605 C 19.1981086730957 10.74802684783936 24.1176815032959 7.431053161621094 29.59514808654785 5.114280223846436 C 35.26528167724609 2.716026782989502 41.28932189941406 1.5 47.49993515014648 1.5 C 53.71054840087891 1.5 59.73458862304688 2.716026782989502 65.40472412109375 5.114280223846436 C 70.88218688964844 7.431053161621094 75.80176544189453 10.74802684783936 80.02680206298828 14.97306632995605 C 84.25183868408203 19.19810676574707 87.56881713867188 24.11767959594727 89.88558959960938 29.59514617919922 C 92.28384399414062 35.26528167724609 93.49987030029297 41.28932189941406 93.49987030029297 47.49993515014648 C 93.49987030029297 53.71067810058594 92.28384399414062 59.73471832275391 89.88558959960938 65.40485382080078 C 87.56881713867188 70.88231658935547 84.25183868408203 75.80189514160156 80.02680206298828 80.02693176269531 C 75.80176544189453 84.25197601318359 70.88218688964844 87.56894683837891 65.40472412109375 89.88571929931641 C 59.73458862304688 92.28397369384766 53.71054840087891 93.5 47.49993515014648 93.5 Z" stroke="none"/>
              <path d="M 47.49993515014648 3 C 41.49116516113281 3 35.66371917724609 4.176155090332031 30.17947387695312 6.495796203613281 C 24.88081359863281 8.7369384765625 20.12149047851562 11.94596862792969 16.03372192382812 16.03372192382812 C 11.94596862792969 20.12149047851562 8.7369384765625 24.88081359863281 6.495796203613281 30.17947387695312 C 4.1761474609375 35.66372299194336 3 41.49116897583008 3 47.50006103515625 C 3 53.50883102416992 4.1761474609375 59.33627700805664 6.495796203613281 64.82052612304688 C 8.7369384765625 70.11918640136719 11.94596862792969 74.87850952148438 16.03372192382812 78.96627807617188 C 20.12149047851562 83.05403137207031 24.88081359863281 86.2630615234375 30.17947387695312 88.50419616699219 C 35.66371917724609 90.82384490966797 41.49116516113281 92 47.49993515014648 92 C 53.50870513916016 92 59.33615112304688 90.82384490966797 64.82039642333984 88.50419616699219 C 70.11905670166016 86.2630615234375 74.87837982177734 83.05403137207031 78.96614837646484 78.96627807617188 C 83.05390167236328 74.87850952148438 86.26293182373047 70.11918640136719 88.50407409667969 64.82052612304688 C 90.82372283935547 59.33627700805664 91.99987030029297 53.50883102416992 91.99987030029297 47.49993896484375 C 91.99987030029297 41.49116897583008 90.82372283935547 35.66372299194336 88.50407409667969 30.17947387695312 C 86.26293182373047 24.88081359863281 83.05390167236328 20.12149047851562 78.96614837646484 16.03372192382812 C 74.87837982177734 11.94596862792969 70.11905670166016 8.7369384765625 64.82039642333984 6.495796203613281 C 59.33615112304688 4.176155090332031 53.50870513916016 3 47.49993515014648 3 M 47.49993515014648 0 C 73.73342895507812 0 94.99987030029297 21.26644897460938 94.99987030029297 47.49993896484375 L 94.99987030029297 47.50006103515625 C 94.99987030029297 73.73355102539062 73.73342895507812 95 47.49993515014648 95 C 21.26644134521484 95 0 73.73355102539062 0 47.50006103515625 L 0 47.49993896484375 C 0 21.26644897460938 21.26644134521484 0 47.49993515014648 0 Z" stroke="none" fill="#fff"/>
            </g>
          </g>
          <g id="Rectángulo_400907" data-name="Rectángulo 400907" transform="translate(0 0)" fill="none" stroke="#fff" stroke-width="3">
            <rect width="95" height="95" rx="47.5" stroke="none"/>
            <rect x="1.5" y="1.5" width="92" height="92" rx="46" fill="none"/>
          </g>
        </g>
      </g>
    </g>
    <path id="Trazado_903719" data-name="Trazado 903719" d="M146.621,86.253H119.465a1.342,1.342,0,0,1-1.342-1.341V40.871a1.342,1.342,0,0,1,1.342-1.341h27.157a1.342,1.342,0,0,1,1.341,1.341v44.04A1.342,1.342,0,0,1,146.621,86.253Z" transform="translate(163.329 2152.442)" fill="#f4f8f9"/>
    <path id="Trazado_903720" data-name="Trazado 903720" d="M379.978,39.53h-2.429a1.341,1.341,0,0,1,1.341,1.341v44.04a1.341,1.341,0,0,1-1.341,1.341h2.429a1.341,1.341,0,0,0,1.341-1.341V40.871A1.341,1.341,0,0,0,379.978,39.53Z" transform="translate(-70.028 2152.442)" fill="#e7eef3"/>
    <path id="Trazado_903721" data-name="Trazado 903721" d="M139.875,80.261h-6.825a.754.754,0,1,1,0-1.507h6.825a.588.588,0,0,0,.588-.588V34.125a.588.588,0,0,0-.588-.588H112.718a.589.589,0,0,0-.588.588v44.04a.589.589,0,0,0,.588.588h17.417a.754.754,0,0,1,0,1.507H112.718a2.1,2.1,0,0,1-2.1-2.1V34.125a2.1,2.1,0,0,1,2.1-2.1h27.157a2.1,2.1,0,0,1,2.1,2.1v44.04A2.1,2.1,0,0,1,139.875,80.261Z" transform="translate(170.075 2159.188)"/>
    <path id="Trazado_903722" data-name="Trazado 903722" d="M223.541,82.989h-8.7a.948.948,0,0,1-.948-.948v-1.52a.948.948,0,0,1,.948-.948h8.7a.948.948,0,0,1,.948.948v1.52A.948.948,0,0,1,223.541,82.989Z" transform="translate(77.179 2116.423)" fill="#ff7bba"/>
    <path id="Trazado_903723" data-name="Trazado 903723" d="M292.436,79.572h-1.947a.948.948,0,0,1,.948.948v1.52a.948.948,0,0,1-.948.948h1.947a.948.948,0,0,0,.948-.948V80.52A.948.948,0,0,0,292.436,79.572Z" transform="translate(8.283 2116.424)" fill="#ff5cab"/>
    <path id="Trazado_903724" data-name="Trazado 903724" d="M216.794,77h-8.7a1.7,1.7,0,0,1-1.7-1.7v-1.52a1.7,1.7,0,0,1,1.7-1.7h8.7a1.7,1.7,0,0,1,1.7,1.7v1.52A1.7,1.7,0,0,1,216.794,77Zm-8.7-3.416a.2.2,0,0,0-.194.194v1.52a.2.2,0,0,0,.194.194h8.7a.2.2,0,0,0,.194-.194v-1.52a.2.2,0,0,0-.194-.194Z" transform="translate(83.925 2123.17)"/>
    <g id="Grupo_1113444" data-name="Grupo 1113444" transform="translate(288.085 2201.937)">
      <path id="Línea_315" data-name="Línea 315" d="M8.318-5.993H-6.746A.754.754,0,0,1-7.5-6.746.754.754,0,0,1-6.746-7.5H8.318a.754.754,0,0,1,.754.754A.754.754,0,0,1,8.318-5.993Z" transform="translate(7.5 7.5)"/>
      <path id="Línea_316" data-name="Línea 316" d="M8.318-5.993H-6.746A.754.754,0,0,1-7.5-6.746.754.754,0,0,1-6.746-7.5H8.318a.754.754,0,0,1,.754.754A.754.754,0,0,1,8.318-5.993Z" transform="translate(7.5 10.686)"/>
      <path id="Línea_317" data-name="Línea 317" d="M8.318-5.993H-6.746A.754.754,0,0,1-7.5-6.746.754.754,0,0,1-6.746-7.5H8.318a.754.754,0,0,1,.754.754A.754.754,0,0,1,8.318-5.993Z" transform="translate(7.5 13.872)"/>
      <path id="Línea_318" data-name="Línea 318" d="M8.318-5.993H-6.746A.754.754,0,0,1-7.5-6.746.754.754,0,0,1-6.746-7.5H8.318a.754.754,0,0,1,.754.754A.754.754,0,0,1,8.318-5.993Z" transform="translate(7.5 17.058)"/>
      <path id="Línea_319" data-name="Línea 319" d="M8.318-5.993H-6.746A.754.754,0,0,1-7.5-6.746.754.754,0,0,1-6.746-7.5H8.318a.754.754,0,0,1,.754.754A.754.754,0,0,1,8.318-5.993Z" transform="translate(7.5 20.244)"/>
      <path id="Línea_320" data-name="Línea 320" d="M8.318-5.993H-6.746A.754.754,0,0,1-7.5-6.746.754.754,0,0,1-6.746-7.5H8.318a.754.754,0,0,1,.754.754A.754.754,0,0,1,8.318-5.993Z" transform="translate(7.5 23.43)"/>
      <path id="Línea_321" data-name="Línea 321" d="M8.318-5.993H-6.746A.754.754,0,0,1-7.5-6.746.754.754,0,0,1-6.746-7.5H8.318a.754.754,0,0,1,.754.754A.754.754,0,0,1,8.318-5.993Z" transform="translate(7.5 26.617)"/>
    </g>
    <path id="Trazado_903725" data-name="Trazado 903725" d="M18.127,307.594l2.013-.175,5.033-1.557,2.5-1.84,1.069-3.554-.094-4.136-.676-2.815-2.815-1.8-2.038-1.3-4.5-1.118-5.488,1.362a6.29,6.29,0,0,0-1.72.711l-1.99,1.194A3.949,3.949,0,0,0,7.5,295.957v5.316a4.7,4.7,0,0,0,2.573,4.181,19.224,19.224,0,0,0,7.4,2.157Z" transform="translate(262.835 1927.768)" fill="#a2dbff"/>
    <path id="Trazado_903726" data-name="Trazado 903726" d="M116.676,292.569l-1.99-1.194a6.288,6.288,0,0,0-1.72-.711l-5.488-1.362-1.189.3,5.212,1.294,2.8,1.678a3.949,3.949,0,0,1,1.917,3.386v5.337a4.7,4.7,0,0,1-2.552,4.171,18.806,18.806,0,0,1-7.328,2.147,18.076,18.076,0,0,0,9.725-2.157,4.686,4.686,0,0,0,2.533-4.161v-5.337A3.949,3.949,0,0,0,116.676,292.569Z" transform="translate(173.974 1927.77)" fill="#64caff"/>
    <path id="Trazado_903727" data-name="Trazado 903727" d="M11.919,301.657a19.517,19.517,0,0,1-8.947-2.284A5.424,5.424,0,0,1,0,294.526V293.41a.754.754,0,1,1,1.507,0v1.116a3.923,3.923,0,0,0,2.151,3.5,18.007,18.007,0,0,0,8.26,2.139,17.641,17.641,0,0,0,8.178-2.126,3.925,3.925,0,0,0,2.135-3.5V289.21a3.212,3.212,0,0,0-1.552-2.74l-1.99-1.194a5.532,5.532,0,0,0-1.514-.626l-5.306-1.317L6.563,284.65a5.531,5.531,0,0,0-1.514.626l-1.99,1.194a3.211,3.211,0,0,0-1.552,2.74V290.5A.754.754,0,0,1,0,290.5V289.21a4.726,4.726,0,0,1,2.283-4.033l1.99-1.194a7.037,7.037,0,0,1,1.926-.8l5.488-1.362a.753.753,0,0,1,.363,0l5.488,1.362a7.038,7.038,0,0,1,1.926.8l1.99,1.194a4.727,4.727,0,0,1,2.283,4.033v5.337a5.427,5.427,0,0,1-2.95,4.835A19.163,19.163,0,0,1,11.919,301.657Z" transform="translate(269.582 1934.515)"/>
    <path id="Trazado_903728" data-name="Trazado 903728" d="M97.7,311.42l-1.234-15.914-.118-1.8H93.915l-.12,1.836-1.231,15.868A16.758,16.758,0,0,0,97.7,311.42Z" transform="translate(186.319 1923.811)" fill="#ff7bba"/>
    <path id="Trazado_903729" data-name="Trazado 903729" d="M88.433,305.619A17.71,17.71,0,0,1,85.7,305.4a.754.754,0,0,1-.635-.8L86.3,288.734l.119-1.827a.754.754,0,0,1,.752-.7H89.6a.754.754,0,0,1,.752.7l.118,1.8,1.233,15.9a.754.754,0,0,1-.638.8A17.625,17.625,0,0,1,88.433,305.619Zm-1.809-1.61a15.989,15.989,0,0,0,3.524.01l-1.178-15.2L88.9,287.71H87.874l-.074,1.131Z" transform="translate(193.066 1930.557)"/>
    <rect id="Rectángulo_405353" data-name="Rectángulo 405353" width="3.562" height="4.718" transform="translate(279.67 2212.353)" fill="#ffcfc0"/>
    <path id="Trazado_903730" data-name="Trazado 903730" d="M97.211,241.074H93.649a.754.754,0,0,1-.754-.754V235.6a.754.754,0,0,1,.754-.754h3.562a.754.754,0,0,1,.754.754v4.718A.754.754,0,0,1,97.211,241.074ZM94.4,239.566h2.055v-3.211H94.4Z" transform="translate(186.022 1976.751)"/>
    <path id="Trazado_903731" data-name="Trazado 903731" d="M47.36,98.021l.958-1.989-.275-2.339L47.1,91.622l-1.844-.775s-1.865-.042-1.928,0a13.792,13.792,0,0,1-.985-1.467l-1.928-2.158-2.053.189-2.975.8L34,89.173l-.505.571-.447.532h0c-.1.182-.2.369-.283.561l-.038.087a5.02,5.02,0,0,0,1.424,5.9l1.884,1.543,9.786.876,1.035-.742c.134-.1.261-.2.383-.3Z" transform="translate(240.522 2109.543)" fill="#5844a0"/>
    <path id="Trazado_903732" data-name="Trazado 903732" d="M55.428,86.2l-.384-1.4a2.116,2.116,0,0,0-2.576-1.486,2.116,2.116,0,0,1-2.534-1.354l-.122-.352a2.915,2.915,0,0,0-2.276-1.932,8.407,8.407,0,0,0-1.305-.1A7.455,7.455,0,0,0,39.7,83.4,7.453,7.453,0,0,1,45,81.211a8.407,8.407,0,0,1,1.305.1,2.915,2.915,0,0,1,2.276,1.932l.122.352a2.116,2.116,0,0,0,2.534,1.354,2.116,2.116,0,0,1,2.576,1.486l.384,1.4a5.026,5.026,0,0,1-.3,3.48A5.029,5.029,0,0,0,55.428,86.2Z" transform="translate(233.872 2116.423)" fill="#483887"/>
    <path id="Trazado_903733" data-name="Trazado 903733" d="M39.1,86.368q-.034,0-.067,0l-9.786-.876a.754.754,0,0,1-.41-.168l-1.884-1.543a5.79,5.79,0,0,1-1.637-6.785l.041-.092a8.2,8.2,0,0,1,7.468-4.829,9.328,9.328,0,0,1,1.458.114,3.661,3.661,0,0,1,2.868,2.429l.122.352a1.361,1.361,0,0,0,1.632.872A2.868,2.868,0,0,1,42.4,77.853l.384,1.4a5.8,5.8,0,0,1-2.208,6.235l-1.035.742A.754.754,0,0,1,39.1,86.368Zm-9.488-2.36,9.276.83.808-.579a4.292,4.292,0,0,0,1.632-4.61l-.384-1.4a1.36,1.36,0,0,0-1.658-.957,2.868,2.868,0,0,1-3.437-1.836l-.122-.352a2.156,2.156,0,0,0-1.684-1.435,7.692,7.692,0,0,0-1.188-.094,6.7,6.7,0,0,0-6.123,3.939,4.3,4.3,0,0,0,1.176,5.094Z" transform="translate(247.242 2123.171)"/>
    <path id="Trazado_903734" data-name="Trazado 903734" d="M74.317,162.722h0a4.893,4.893,0,0,1-4.893-4.893v-4.287a.606.606,0,0,1,.618-.606,8.388,8.388,0,0,0,5-1.2.6.6,0,0,1,.806.113,3.6,3.6,0,0,0,2.772,1.065.608.608,0,0,1,.589.606v4.314A4.893,4.893,0,0,1,74.317,162.722Z" transform="translate(207.134 2051.612)" fill="#ffe0cf"/>
    <path id="Trazado_903735" data-name="Trazado 903735" d="M78.621,152.907a3.6,3.6,0,0,1-2.772-1.065.6.6,0,0,0-.806-.113,8.389,8.389,0,0,1-5,1.2.606.606,0,0,0-.618.606v1.882a.606.606,0,0,1,.618-.606,8.388,8.388,0,0,0,5-1.2.6.6,0,0,1,.806.113,3.6,3.6,0,0,0,2.772,1.065.608.608,0,0,1,.589.606v-1.882A.608.608,0,0,0,78.621,152.907Z" transform="translate(207.134 2051.613)" fill="#ffcfc0"/>
    <path id="Trazado_903736" data-name="Trazado 903736" d="M67.571,156.729a5.653,5.653,0,0,1-5.647-5.647v-4.287a1.361,1.361,0,0,1,1.358-1.36l.335,0a7.452,7.452,0,0,0,4.253-1.076,1.354,1.354,0,0,1,1.811.253,2.887,2.887,0,0,0,2.219.794,1.357,1.357,0,0,1,1.316,1.359v4.314A5.653,5.653,0,0,1,67.571,156.729Zm-4.139-9.785v4.138a4.139,4.139,0,0,0,8.279,0v-4.173a4.305,4.305,0,0,1-3.115-1.247,8.676,8.676,0,0,1-4.977,1.284Z" transform="translate(213.88 2058.359)"/>
    <path id="Trazado_903737" data-name="Trazado 903737" d="M55.692,279.788l-1.434,1.777a1.723,1.723,0,0,1-2.016.5l-3.256-1.384a.44.44,0,0,1-.067-.775l1-.647a3.363,3.363,0,0,1,2.818-.388Z" transform="translate(225.76 1937.283)" fill="#e7eef3"/>
    <path id="Trazado_903738" data-name="Trazado 903738" d="M45,271.225a4.112,4.112,0,0,1,1.216.184l2.953.913a.754.754,0,0,1,.364,1.193L48.1,275.292a2.477,2.477,0,0,1-2.9.724l-3.256-1.384a1.194,1.194,0,0,1-.181-2.1l1-.647A4.108,4.108,0,0,1,45,271.225Zm2.662,2.208-1.891-.585a2.609,2.609,0,0,0-2.186.3l-.505.326,2.713,1.153a.969.969,0,0,0,1.134-.284Z" transform="translate(232.506 1944.029)"/>
    <path id="Trazado_903739" data-name="Trazado 903739" d="M118.118,279.788l1.434,1.777a1.723,1.723,0,0,0,2.016.5l3.256-1.384a.44.44,0,0,0,.067-.775l-1-.647a3.363,3.363,0,0,0-2.818-.388Z" transform="translate(163.333 1937.283)" fill="#e7eef3"/>
    <path id="Trazado_903740" data-name="Trazado 903740" d="M115.318,271.225h0a4.108,4.108,0,0,1,2.234.659l1,.647a1.194,1.194,0,0,1-.181,2.1l-3.256,1.384a2.477,2.477,0,0,1-2.9-.724l-1.434-1.777a.754.754,0,0,1,.364-1.193l2.953-.913A4.112,4.112,0,0,1,115.318,271.225Zm1.921,2.251-.505-.326a2.609,2.609,0,0,0-2.186-.3l-1.891.585.736.912a.969.969,0,0,0,1.134.283Z" transform="translate(170.08 1944.029)"/>
    <path id="Línea_322" data-name="Línea 322" d="M-4.442-5.993h-2.3A.754.754,0,0,1-7.5-6.746.754.754,0,0,1-6.746-7.5h2.3a.754.754,0,0,1,.754.754A.754.754,0,0,1-4.442-5.993Z" transform="translate(289.094 2231.859)"/>
    <path id="Trazado_903741" data-name="Trazado 903741" d="M358.574,8.021v2.856a.521.521,0,0,1-.26.451l-2.325,1.343a.521.521,0,0,0,0,.9l2.325,1.343a.521.521,0,0,1,.26.451v2.856a.521.521,0,0,0,.521.521h11.062a.521.521,0,0,0,.521-.521V8.021a.521.521,0,0,0-.521-.521H359.1A.521.521,0,0,0,358.574,8.021Z" transform="translate(-50.4 2181.254)" fill="#9ff497"/>
    <path id="Trazado_903742" data-name="Trazado 903742" d="M482.229,7.5H480.32a.521.521,0,0,1,.521.521v10.2a.521.521,0,0,1-.521.521h1.909a.521.521,0,0,0,.521-.521V8.021A.521.521,0,0,0,482.229,7.5Z" transform="translate(-162.473 2181.254)" fill="#6ce79a"/>
    <g id="Grupo_1113445" data-name="Grupo 1113445" transform="translate(310.773 2190.708)">
      <path id="Línea_323" data-name="Línea 323" d="M-1.348-5.993h-5.4A.754.754,0,0,1-7.5-6.746.754.754,0,0,1-6.746-7.5h5.4a.754.754,0,0,1,.754.754A.754.754,0,0,1-1.348-5.993Z" transform="translate(7.5 7.5)"/>
      <path id="Línea_324" data-name="Línea 324" d="M-1.348-5.993h-5.4A.754.754,0,0,1-7.5-6.746.754.754,0,0,1-6.746-7.5h5.4a.754.754,0,0,1,.754.754A.754.754,0,0,1-1.348-5.993Z" transform="translate(7.5 10.413)"/>
      <path id="Línea_325" data-name="Línea 325" d="M-1.348-5.993h-5.4A.754.754,0,0,1-7.5-6.746.754.754,0,0,1-6.746-7.5h5.4a.754.754,0,0,1,.754.754A.754.754,0,0,1-1.348-5.993Z" transform="translate(7.5 13.325)"/>
    </g>
    <path id="Trazado_903743" data-name="Trazado 903743" d="M363.411,12.749H352.349a1.276,1.276,0,0,1-1.274-1.274V8.753l-2.209-1.275a1.274,1.274,0,0,1,0-2.207L351.074,4V1.274A1.276,1.276,0,0,1,352.349,0h4.074a.754.754,0,1,1,0,1.507h-3.841V4.13a1.278,1.278,0,0,1-.637,1.1l-1.976,1.141,1.976,1.141a1.278,1.278,0,0,1,.637,1.1v2.623h10.6V1.507h-3.841a.754.754,0,0,1,0-1.507h4.074a1.276,1.276,0,0,1,1.274,1.274v10.2A1.276,1.276,0,0,1,363.411,12.749Z" transform="translate(-43.654 2188)"/>
    <path id="Trazado_903744" data-name="Trazado 903744" d="M420.062,236.335h-4.99V215.759a.574.574,0,0,1,.574-.574h3.841a.574.574,0,0,1,.574.574Z" transform="translate(-103.781 1994.438)" fill="#5844a0"/>
    <path id="Trazado_903745" data-name="Trazado 903745" d="M413.315,230.342h-4.99a.754.754,0,0,1-.754-.754V209.013a1.33,1.33,0,0,1,1.328-1.328h3.841a1.33,1.33,0,0,1,1.328,1.328v20.576a.754.754,0,0,1-.754.754Zm-4.236-1.507h3.482V209.192h-3.482Z" transform="translate(-97.034 2001.185)"/>
    <path id="Trazado_903746" data-name="Trazado 903746" d="M420.062,425.661h-4.99l1.7,2.938a.919.919,0,0,0,1.592,0Z" transform="translate(-103.781 1805.112)" fill="#887ac5"/>
    <path id="Trazado_903747" data-name="Trazado 903747" d="M408.326,418.161h4.99a.754.754,0,0,1,.652,1.131l-1.7,2.938a1.673,1.673,0,0,1-2.9,0l-1.7-2.938a.754.754,0,0,1,.652-1.131Zm3.683,1.507h-2.377l1.045,1.807a.166.166,0,0,0,.287,0Z" transform="translate(-97.034 1811.858)"/>
    <path id="Línea_326" data-name="Línea 326" d="M-6.746-4.434A.754.754,0,0,1-7.5-5.187V-6.746A.754.754,0,0,1-6.746-7.5a.754.754,0,0,1,.754.754v1.559A.754.754,0,0,1-6.746-4.434Z" transform="translate(320.532 2240.917)"/>
    <path id="Trazado_903748" data-name="Trazado 903748" d="M428.272,185.062h-2.924v-1.9a1.462,1.462,0,0,1,1.462-1.462h0a1.462,1.462,0,0,1,1.462,1.462Z" transform="translate(-113.024 2024.562)" fill="#887ac5"/>
    <path id="Trazado_903749" data-name="Trazado 903749" d="M421.526,179.069H418.6a.754.754,0,0,1-.754-.754v-1.9a2.216,2.216,0,1,1,4.432,0v1.9A.754.754,0,0,1,421.526,179.069Zm-2.171-1.507h1.417v-1.149a.709.709,0,1,0-1.417,0Z" transform="translate(-106.277 2031.308)"/>
    <path id="Trazado_903750" data-name="Trazado 903750" d="M460.3,233.812a.754.754,0,0,1-.754-.754V226.4a.259.259,0,0,0-.259-.259H457.98a.754.754,0,0,1,0-1.507h1.311a1.768,1.768,0,0,1,1.766,1.766v6.654A.754.754,0,0,1,460.3,233.812Z" transform="translate(-141.699 1985.936)"/>
    <g id="Grupo_1113446" data-name="Grupo 1113446" transform="translate(294.8 2226.627)">
      <path id="Trazado_903751" data-name="Trazado 903751" d="M265.574,391.76a1.832,1.832,0,0,1-1.294-.468c-.746-.692-.719-1.895-.692-3.058.035-1.562-.042-2.228-.609-2.312-1.97-.293-3.153,3.674-3.164,3.715a.754.754,0,0,1-1.451-.409c.061-.216,1.528-5.288,4.837-4.8,1.974.294,1.926,2.426,1.894,3.837-.016.712-.038,1.688.211,1.919a.617.617,0,0,0,.4.058c.446-.043.619-.207.535-1.673-.043-.753-.116-2.014,1.034-2.093a.627.627,0,0,0,.51-.214,1.485,1.485,0,0,0,.145-.968.754.754,0,0,1,1.479-.29,2.936,2.936,0,0,1-.429,2.176,2.037,2.037,0,0,1-1.256.755c0,.166.012.384.021.548.057.993.177,3.059-1.894,3.26Q265.709,391.76,265.574,391.76Z" transform="translate(-257.594 -384.398)"/>
      <path id="Línea_327" data-name="Línea 327" d="M-3.338-5.484a.759.759,0,0,1-.112-.008L-6.859-6a.754.754,0,0,1-.634-.857.754.754,0,0,1,.857-.634l3.408.509a.754.754,0,0,1,.634.857A.754.754,0,0,1-3.338-5.484Z" transform="translate(7.501 9.463)"/>
    </g>
  </g>
</svg>
