<svg xmlns="http://www.w3.org/2000/svg" xmlns:xlink="http://www.w3.org/1999/xlink" width="505" height="677" viewBox="0 0 505 677">
  <defs>
    <clipPath id="clip-path">
      <rect id="Rectángulo_406680" data-name="Rectángulo 406680" width="307.162" height="290.665" fill="none"/>
    </clipPath>
    <clipPath id="clip-path-2">
      <rect id="Rectángulo_406671" data-name="Rectángulo 406671" width="87.553" height="63.014" fill="none"/>
    </clipPath>
    <clipPath id="clip-path-3">
      <rect id="Rectángulo_406672" data-name="Rectángulo 406672" width="33.101" height="23.688" fill="none"/>
    </clipPath>
    <clipPath id="clip-path-4">
      <rect id="Rectángulo_406673" data-name="Rectángulo 406673" width="64.323" height="154.563" fill="none"/>
    </clipPath>
    <clipPath id="clip-path-5">
      <rect id="Rectángulo_406679" data-name="Rectángulo 406679" width="84.832" height="34.199" fill="none"/>
    </clipPath>
    <clipPath id="clip-path-6">
      <rect id="Rectángulo_406690" data-name="Rectángulo 406690" width="106.389" height="96.062" fill="#fed6a8"/>
    </clipPath>
    <clipPath id="clip-path-7">
      <rect id="Rectángulo_406691" data-name="Rectángulo 406691" width="99.575" height="57.85" fill="#fd9826"/>
    </clipPath>
    <clipPath id="clip-path-8">
      <rect id="Rectángulo_406692" data-name="Rectángulo 406692" width="81.529" height="72.886" fill="none"/>
    </clipPath>
    <clipPath id="clip-path-9">
      <rect id="Rectángulo_406693" data-name="Rectángulo 406693" width="79.468" height="70.75" fill="#fed401"/>
    </clipPath>
    <clipPath id="clip-path-10">
      <rect id="Rectángulo_406694" data-name="Rectángulo 406694" width="47.381" height="31.361" fill="none"/>
    </clipPath>
  </defs>
  <g id="Grupo_1118332" data-name="Grupo 1118332" transform="translate(-180 -1089)">
    <g id="Grupo_1117779" data-name="Grupo 1117779">
      <g id="Grupo_1117760" data-name="Grupo 1117760" transform="translate(180 1089)">
        <rect id="Rectángulo_405611" data-name="Rectángulo 405611" width="505" height="677" fill="#feead4"/>
      </g>
    </g>
    <g id="Grupo_1118331" data-name="Grupo 1118331">
      <g id="Grupo_1118254" data-name="Grupo 1118254" transform="translate(220 1157.916)">
        <g id="Grupo_1118253" data-name="Grupo 1118253" clip-path="url(#clip-path)">
          <path id="Trazado_910875" data-name="Trazado 910875" d="M239.772,218.492c27.621-.733,93.938-6.716,122.531-29.521-7.339-18.7-16.449-41.7-23.788-60.4-8.6,14.457-25.655,24.061-42.933,24.172a95.482,95.482,0,0,1-26.212-3.971c-8.614-2.407-23.56-7.691-32.671-.11l-15.468,33.965Z" transform="translate(-70.612 -41.038)" fill="#f5f5f5"/>
          <path id="Trazado_910876" data-name="Trazado 910876" d="M239.715,218.305s-.112-.2-.325-.6l-.944-1.8-3.655-7.01-13.712-26.4-.025-.047.022-.048,15.437-33.979.014-.031.025-.02a16.236,16.236,0,0,1,5.195-2.869,21.84,21.84,0,0,1,6.016-1.074,45.721,45.721,0,0,1,12.593,1.526c4.227,1.008,8.442,2.421,12.841,3.491a102.493,102.493,0,0,0,13.619,2.484c2.339.253,4.709.415,7.1.453.6,0,1.2.015,1.8,0l1.8-.074c1.206-.013,2.407-.184,3.616-.308.3-.035.605-.059.906-.1l.9-.157,1.806-.315c1.2-.24,2.39-.557,3.59-.844,1.174-.379,2.375-.7,3.54-1.127,1.157-.455,2.349-.836,3.477-1.382a52.891,52.891,0,0,0,12.884-7.991A48.768,48.768,0,0,0,338.306,128.3l.186-.308.131.334.524,1.331L362.4,188.724l.046.115-.1.077a71.363,71.363,0,0,1-11.579,7.374,121.993,121.993,0,0,1-12.031,5.38c-4.017,1.53-8,2.849-11.916,4.043-3.926,1.145-7.765,2.211-11.53,3.1-7.516,1.835-14.67,3.192-21.332,4.308s-12.844,1.945-18.458,2.6c-11.23,1.306-20.188,1.915-26.326,2.241-3.071.161-5.434.245-7.036.293l-1.818.042c-.406.008-.609.006-.609.006s.212-.015.62-.033l1.808-.071c1.594-.067,3.961-.169,7.028-.347,6.135-.36,15.088-1,26.308-2.336,5.609-.671,11.784-1.521,18.441-2.641s13.8-2.5,21.306-4.339c3.76-.893,7.592-1.964,11.511-3.111,3.9-1.2,7.883-2.518,11.89-4.049A121.745,121.745,0,0,0,350.621,196a71.042,71.042,0,0,0,11.52-7.348l-.051.191-23.273-59.061-.524-1.332.317.026a49.1,49.1,0,0,1-10.142,11.871,53.271,53.271,0,0,1-12.973,8.042c-1.136.549-2.336.932-3.5,1.39-1.173.434-2.382.754-3.563,1.134-1.208.289-2.406.607-3.615.849L303,152.08l-.907.157c-.3.045-.609.069-.913.1-1.217.123-2.426.3-3.642.308l-1.816.073c-.6.014-1.206,0-1.808,0-2.4-.039-4.785-.2-7.134-.459a102.91,102.91,0,0,1-13.661-2.5c-4.412-1.077-8.628-2.494-12.836-3.5a45.454,45.454,0,0,0-12.505-1.531,21.537,21.537,0,0,0-5.937,1.051,15.962,15.962,0,0,0-5.106,2.81l.039-.05-15.5,33.951,0-.095L234.863,208.8l3.614,7.051.928,1.823c.208.411.31.627.31.627" transform="translate(-70.555 -40.851)" fill="#263238"/>
          <path id="Trazado_910877" data-name="Trazado 910877" d="M343.326,183.107l-.026.009a1.146,1.146,0,0,1-1.435-.605l-2.671-6.162a1.162,1.162,0,0,1,2.133-.917l2.7,6.153a1.139,1.139,0,0,1-.7,1.522" transform="translate(-108.234 -55.78)" fill="#e0e0e0"/>
          <path id="Trazado_910878" data-name="Trazado 910878" d="M354.133,181.239l-.026.009a1.146,1.146,0,0,1-1.435-.606L350,174.48a1.138,1.138,0,0,1,.647-1.5,1.15,1.15,0,0,1,1.487.582l2.7,6.153a1.139,1.139,0,0,1-.7,1.522" transform="translate(-111.683 -55.184)" fill="#e0e0e0"/>
          <path id="Trazado_910879" data-name="Trazado 910879" d="M365.233,177.493l-.026.009a1.146,1.146,0,0,1-1.435-.605l-2.671-6.162a1.137,1.137,0,0,1,.647-1.5,1.149,1.149,0,0,1,1.487.581l2.7,6.153a1.139,1.139,0,0,1-.7,1.522" transform="translate(-115.226 -53.988)" fill="#e0e0e0"/>
          <path id="Trazado_910880" data-name="Trazado 910880" d="M375.624,173.468l-.026.009a1.146,1.146,0,0,1-1.435-.605l-2.671-6.162a1.162,1.162,0,0,1,2.133-.917l2.7,6.153a1.139,1.139,0,0,1-.7,1.522" transform="translate(-118.542 -52.704)" fill="#e0e0e0"/>
          <path id="Trazado_910881" data-name="Trazado 910881" d="M386.586,166.43l-.026.009a1.146,1.146,0,0,1-1.435-.605l-2.671-6.162a1.162,1.162,0,0,1,2.133-.917l2.7,6.153a1.139,1.139,0,0,1-.7,1.522" transform="translate(-122.041 -50.457)" fill="#e0e0e0"/>
          <path id="Trazado_910882" data-name="Trazado 910882" d="M358.583,224.739l-.042.014a1.389,1.389,0,0,1-1.762-.773l-8.119-20.743a1.414,1.414,0,0,1,2.633-1.025l8.16,20.728a1.385,1.385,0,0,1-.871,1.8" transform="translate(-111.255 -64.269)" fill="#e0e0e0"/>
          <path id="Trazado_910883" data-name="Trazado 910883" d="M329.663,183.107l-.026.009a1.146,1.146,0,0,1-1.435-.605l-2.671-6.162a1.162,1.162,0,0,1,2.133-.917l2.7,6.153a1.139,1.139,0,0,1-.7,1.522" transform="translate(-103.873 -55.78)" fill="#e0e0e0"/>
          <path id="Trazado_910884" data-name="Trazado 910884" d="M346.073,225.531l-.042.014a1.389,1.389,0,0,1-1.762-.773l-8.119-20.743A1.414,1.414,0,0,1,338.784,203l8.16,20.728a1.384,1.384,0,0,1-.871,1.8" transform="translate(-107.262 -64.522)" fill="#e0e0e0"/>
          <path id="Trazado_910885" data-name="Trazado 910885" d="M317.786,181.239l-.026.009a1.146,1.146,0,0,1-1.435-.606l-2.671-6.161a1.138,1.138,0,0,1,.647-1.5,1.15,1.15,0,0,1,1.487.582l2.7,6.153a1.139,1.139,0,0,1-.7,1.522" transform="translate(-100.082 -55.184)" fill="#e0e0e0"/>
          <path id="Trazado_910886" data-name="Trazado 910886" d="M333.043,224.639l-.042.014a1.389,1.389,0,0,1-1.762-.773l-8.119-20.743a1.414,1.414,0,0,1,2.633-1.025l8.16,20.728a1.385,1.385,0,0,1-.871,1.8" transform="translate(-103.103 -64.238)" fill="#e0e0e0"/>
          <path id="Trazado_910887" data-name="Trazado 910887" d="M305.531,179.663l-.026.009a1.146,1.146,0,0,1-1.435-.605L301.4,172.9a1.137,1.137,0,0,1,.647-1.5,1.149,1.149,0,0,1,1.487.581l2.7,6.153a1.139,1.139,0,0,1-.7,1.522" transform="translate(-96.17 -54.681)" fill="#e0e0e0"/>
          <path id="Trazado_910888" data-name="Trazado 910888" d="M319.947,223.425l-.042.014a1.389,1.389,0,0,1-1.762-.773l-8.119-20.743a1.414,1.414,0,0,1,2.633-1.025l8.16,20.728a1.385,1.385,0,0,1-.871,1.8" transform="translate(-98.923 -63.85)" fill="#e0e0e0"/>
          <path id="Trazado_910889" data-name="Trazado 910889" d="M292.43,179.93l-.026.009a1.146,1.146,0,0,1-1.435-.605l-2.671-6.162a1.162,1.162,0,0,1,2.133-.917l2.7,6.153a1.139,1.139,0,0,1-.7,1.522" transform="translate(-91.989 -54.766)" fill="#e0e0e0"/>
          <path id="Trazado_910890" data-name="Trazado 910890" d="M306.846,223.692l-.042.014a1.389,1.389,0,0,1-1.762-.773l-8.119-20.743a1.414,1.414,0,0,1,2.633-1.025l8.16,20.728a1.385,1.385,0,0,1-.871,1.8" transform="translate(-94.742 -63.935)" fill="#e0e0e0"/>
          <path id="Trazado_910891" data-name="Trazado 910891" d="M279.329,180.2l-.026.009a1.146,1.146,0,0,1-1.435-.605l-2.671-6.162a1.137,1.137,0,0,1,.647-1.5,1.149,1.149,0,0,1,1.487.581l2.7,6.153a1.139,1.139,0,0,1-.7,1.522" transform="translate(-87.807 -54.852)" fill="#e0e0e0"/>
          <path id="Trazado_910892" data-name="Trazado 910892" d="M293.745,223.959l-.042.014a1.389,1.389,0,0,1-1.762-.773l-8.119-20.743a1.414,1.414,0,0,1,2.634-1.025l8.16,20.728a1.385,1.385,0,0,1-.871,1.8" transform="translate(-90.56 -64.02)" fill="#e0e0e0"/>
          <path id="Trazado_910893" data-name="Trazado 910893" d="M266.228,180.464l-.026.009a1.146,1.146,0,0,1-1.435-.605l-2.671-6.162a1.162,1.162,0,0,1,2.133-.917l2.7,6.153a1.139,1.139,0,0,1-.7,1.522" transform="translate(-83.626 -54.937)" fill="#e0e0e0"/>
          <path id="Trazado_910894" data-name="Trazado 910894" d="M280.644,224.226l-.042.014a1.389,1.389,0,0,1-1.762-.773l-8.119-20.742a1.414,1.414,0,0,1,2.633-1.025l8.16,20.728a1.385,1.385,0,0,1-.871,1.8" transform="translate(-86.379 -64.106)" fill="#e0e0e0"/>
          <path id="Trazado_910895" data-name="Trazado 910895" d="M253.127,180.731l-.026.009a1.146,1.146,0,0,1-1.435-.605l-2.671-6.162a1.137,1.137,0,0,1,.647-1.5,1.149,1.149,0,0,1,1.487.581l2.7,6.153a1.139,1.139,0,0,1-.7,1.522" transform="translate(-79.444 -55.022)" fill="#e0e0e0"/>
          <path id="Trazado_910896" data-name="Trazado 910896" d="M267.543,224.493l-.042.014a1.389,1.389,0,0,1-1.762-.773l-8.119-20.742a1.414,1.414,0,0,1,2.633-1.025l8.16,20.728a1.385,1.385,0,0,1-.871,1.8" transform="translate(-82.197 -64.191)" fill="#e0e0e0"/>
          <path id="Trazado_910897" data-name="Trazado 910897" d="M368.974,223.425l-.042.014a1.389,1.389,0,0,1-1.762-.773l-8.119-20.743a1.414,1.414,0,0,1,2.633-1.025l8.16,20.728a1.385,1.385,0,0,1-.871,1.8" transform="translate(-114.572 -63.85)" fill="#e0e0e0"/>
          <path id="Trazado_910898" data-name="Trazado 910898" d="M379.936,218.117l-.042.014a1.389,1.389,0,0,1-1.762-.773l-8.119-20.743a1.414,1.414,0,0,1,2.634-1.025l8.16,20.728a1.385,1.385,0,0,1-.871,1.8" transform="translate(-118.071 -62.156)" fill="#e0e0e0"/>
          <path id="Trazado_910899" data-name="Trazado 910899" d="M391.8,212.441l-.042.014a1.389,1.389,0,0,1-1.762-.773l-8.119-20.742a1.414,1.414,0,0,1,2.633-1.025l8.16,20.728a1.385,1.385,0,0,1-.871,1.8" transform="translate(-121.857 -60.344)" fill="#e0e0e0"/>
          <path id="Trazado_910900" data-name="Trazado 910900" d="M403.425,205.549l-.042.014a1.389,1.389,0,0,1-1.762-.773L393.5,184.048a1.414,1.414,0,0,1,2.634-1.025l8.16,20.728a1.385,1.385,0,0,1-.871,1.8" transform="translate(-125.568 -58.144)" fill="#e0e0e0"/>
          <g id="Grupo_1118243" data-name="Grupo 1118243" transform="translate(160.738 106.74)" opacity="0.2">
            <g id="Grupo_1118242" data-name="Grupo 1118242">
              <g id="Grupo_1118241" data-name="Grupo 1118241" clip-path="url(#clip-path-2)">
                <path id="Trazado_910901" data-name="Trazado 910901" d="M242.628,156.78s-4.591,9.163,8.107,16.453c16.18,9.29,46.549,7.371,58.919,21.212s13.994,22.53,13.994,22.53l-12.97,2.819-62.056-29.86s-12.707-19.785-12.524-20.523,5.346-11.741,5.346-11.741Z" transform="translate(-236.094 -156.78)"/>
              </g>
            </g>
          </g>
          <path id="Trazado_910902" data-name="Trazado 910902" d="M161.512,75.092c-.782-11.129-4.519-17.041-14.855-19.713,0,0-9.113-.927-14.227,1.129L83.919,67.462c3.718,4.635,5.127,10.658,6.355,16.471,12.381,58.567,5.444,120.874-2.915,177.425l72.369,9.473c3.129-59.78,6.029-135.292,1.784-195.74" transform="translate(-26.785 -17.609)" fill="#e0e0e0"/>
          <path id="Trazado_910903" data-name="Trazado 910903" d="M309.953,234.08c-.071-14-9.721-31.43-23.648-39.578-6.246-3.654-13.849-7.88-20.623-10.423s-23.925-4.8-28.477-10.428-7.135-9.22-4.739-15.564l-24.5,52.178a57.81,57.81,0,0,0,34.943,33.5c8.459,2.853,17.6,3.728,25.619,7.646s14.971,12.365,13.107,21.1c0,0,15.277-3.722,20.865-15.489,5.091-9.181,9.141-13.7,7.452-22.936" transform="translate(-66.379 -50.457)" fill="#e0e0e0"/>
          <path id="Trazado_910904" data-name="Trazado 910904" d="M127.525,401.564s16.739-4.439,29.895-15.639c14.43-12.285,16.356-37.314,16.356-37.314s-44.986,31.217-46.251,52.952" transform="translate(-40.703 -111.269)" fill="#e0e0e0"/>
          <g id="Grupo_1118246" data-name="Grupo 1118246" transform="translate(88.193 264.661)" opacity="0.2">
            <g id="Grupo_1118245" data-name="Grupo 1118245">
              <g id="Grupo_1118244" data-name="Grupo 1118244" clip-path="url(#clip-path-3)">
                <path id="Trazado_910905" data-name="Trazado 910905" d="M162.639,388.737a69.14,69.14,0,0,1-33.1,23.689s7.106-10.82,18.023-16.558,15.078-7.131,15.078-7.131" transform="translate(-129.538 -388.737)"/>
              </g>
            </g>
          </g>
          <g id="Grupo_1118249" data-name="Grupo 1118249" transform="translate(64.469 56.15)" opacity="0.2">
            <g id="Grupo_1118248" data-name="Grupo 1118248">
              <g id="Grupo_1118247" data-name="Grupo 1118247" clip-path="url(#clip-path-4)">
                <path id="Trazado_910906" data-name="Trazado 910906" d="M94.693,237.036h56.3c4.432,0,8.025-2.849,8.025-6.363l-2-142.349a5.934,5.934,0,0,0-5.933-5.851H102.776Z" transform="translate(-94.693 -82.473)"/>
              </g>
            </g>
          </g>
          <path id="Trazado_910907" data-name="Trazado 910907" d="M71.286,54.9s-6.951-.043-13.8,5.837c-5.155,4.425-8.324,10.285-7.88,16.281l73.227-1.9c-.824-2.973-1.153-9.777,2.169-14.22,2.791-3.732,6.1-5.006,10.692-5.631-5.792-.72-39.367-.38-64.406-.365" transform="translate(-15.819 -17.492)" fill="#f5f5f5"/>
          <path id="Trazado_910908" data-name="Trazado 910908" d="M107.962,376.4c7.143-12.58,33.974-29.837,47.744-28.088,16.49,2.094,31.078,11.7,47.229,15.624q.857.208,1.717.393c33.354,7.192,64.162-20.127,61.9-54.172l-1.9-41.148c-.357,11.75-7.037,22.212-16.014,29.932-10.825,9.311-25.775,13.205-39.977,11.731-15.238-1.582-29.256-8.832-44.1-12.612-23.164-5.9-80.908-12.571-98.338,37.629Z" transform="translate(-21.135 -85.86)" fill="#f5f5f5"/>
          <path id="Trazado_910909" data-name="Trazado 910909" d="M107.9,376.392,66.08,335.759l-.052-.05.025-.064,1.678-4.363c.645-1.448,1.346-2.9,2.034-4.392.81-1.426,1.578-2.909,2.465-4.352l1.408-2.14.714-1.08.8-1.034,1.612-2.09c.566-.681,1.181-1.33,1.776-2,1.155-1.381,2.542-2.575,3.856-3.873a60.339,60.339,0,0,1,9.185-6.68,68.448,68.448,0,0,1,10.814-5.011,80.53,80.53,0,0,1,12.042-3.169,106.477,106.477,0,0,1,26.307-1.3,130.486,130.486,0,0,1,27.727,4.821c9.293,2.7,18.461,6.594,28.255,9.222,2.448.65,4.928,1.234,7.452,1.656a60.491,60.491,0,0,0,7.657.864,58.575,58.575,0,0,0,7.777-.167,60.2,60.2,0,0,0,7.753-1.249,58.828,58.828,0,0,0,7.556-2.373,54.971,54.971,0,0,0,7.158-3.537,50.816,50.816,0,0,0,6.516-4.714,54.151,54.151,0,0,0,5.731-5.737,48.9,48.9,0,0,0,4.059-5.433,44.417,44.417,0,0,0,3.156-5.909,39.74,39.74,0,0,0,2.053-6.246,36.871,36.871,0,0,0,.824-6.361l.353,0q.6,12.919,1.174,25.46.288,6.266.572,12.427.149,3.077.255,6.14c.012,1.021-.037,2.04-.052,3.057-.039,1.016-.155,2.025-.229,3.034a51.778,51.778,0,0,1-7.736,22.28,52.523,52.523,0,0,1-15.864,16.034,49.9,49.9,0,0,1-30.274,8.1c-1.691-.061-3.352-.3-5-.5-1.635-.3-3.26-.578-4.843-.978-3.168-.792-6.222-1.769-9.183-2.821s-5.814-2.217-8.608-3.356c-5.579-2.294-10.9-4.554-16.133-6.284-1.3-.46-2.61-.818-3.893-1.213-1.3-.342-2.574-.7-3.852-.975s-2.538-.554-3.8-.722a20.027,20.027,0,0,0-3.728-.372,27.448,27.448,0,0,0-7.088,1.045,51.441,51.441,0,0,0-6.384,2.19A87.07,87.07,0,0,0,120.922,362.8a63.154,63.154,0,0,0-10.2,9.613c-.516.613-.929,1.186-1.3,1.669-.344.5-.644.912-.866,1.26l-.658,1.049.632-1.07c.214-.347.513-.764.852-1.269.365-.486.774-1.064,1.287-1.681a62.293,62.293,0,0,1,10.169-9.674,86.813,86.813,0,0,1,19.182-11.336,51.562,51.562,0,0,1,6.4-2.211,27.616,27.616,0,0,1,7.14-1.064,20.179,20.179,0,0,1,3.762.368c1.268.167,2.531.453,3.815.719s2.564.632,3.866.972c1.287.394,2.6.752,3.905,1.21,5.244,1.727,10.577,3.983,16.157,6.269,2.793,1.135,5.65,2.281,8.6,3.342,2.955,1.046,6,2.018,9.158,2.8,1.577.4,3.194.669,4.82.968,1.639.2,3.292.438,4.973.5a49.62,49.62,0,0,0,30.086-8.074,52.236,52.236,0,0,0,15.757-15.945,51.46,51.46,0,0,0,7.676-22.14c.073-1,.188-2.005.226-3.015.015-1.01.064-2.022.052-3.037q-.1-3.042-.257-6.125-.285-6.16-.576-12.428-.58-12.534-1.178-25.462l.353,0a37.245,37.245,0,0,1-.831,6.429,40.1,40.1,0,0,1-2.073,6.307,44.647,44.647,0,0,1-3.182,5.959,49.054,49.054,0,0,1-4.088,5.473,54.592,54.592,0,0,1-5.767,5.775,51.231,51.231,0,0,1-6.567,4.749,55.3,55.3,0,0,1-7.209,3.561,59,59,0,0,1-7.608,2.387,60.376,60.376,0,0,1-7.8,1.256,58.957,58.957,0,0,1-7.825.166,60.819,60.819,0,0,1-7.7-.87c-2.536-.425-5.027-1.012-7.482-1.665-9.824-2.641-18.992-6.54-28.26-9.236a130.283,130.283,0,0,0-27.654-4.824,106.276,106.276,0,0,0-26.232,1.275,80.313,80.313,0,0,0-12,3.145,68.225,68.225,0,0,0-10.771,4.978,60.138,60.138,0,0,0-9.149,6.638c-1.309,1.291-2.691,2.477-3.843,3.85-.593.671-1.206,1.315-1.77,1.993l-1.607,2.079-.795,1.028-.712,1.075-1.405,2.129c-.885,1.435-1.653,2.912-2.462,4.331-.688,1.483-1.389,2.931-2.034,4.374l-1.679,4.347-.027-.114L107.9,376.392" transform="translate(-21.075 -85.856)" fill="#263238"/>
          <path id="Trazado_910910" data-name="Trazado 910910" d="M172.494,365.725l-.046.012a1.592,1.592,0,0,1-1.883-1.154l-7.689-25.933a1.609,1.609,0,0,1,.985-2.023,1.585,1.585,0,0,1,1.955,1.13l7.736,25.922a1.6,1.6,0,0,1-1.057,2.046" transform="translate(-51.962 -107.422)" fill="#e0e0e0"/>
          <path id="Trazado_910911" data-name="Trazado 910911" d="M160.419,325.947l-.035.007a1.536,1.536,0,0,1-1.785-1.092l-2.477-8.845a1.537,1.537,0,0,1,2.959-.835l2.512,8.839a1.537,1.537,0,0,1-1.173,1.927" transform="translate(-49.812 -100.242)" fill="#e0e0e0"/>
          <path id="Trazado_910912" data-name="Trazado 910912" d="M161.422,369.232l-.046.014a1.591,1.591,0,0,1-1.935-1.064l-8.891-25.547a1.608,1.608,0,0,1,.89-2.066,1.584,1.584,0,0,1,2.005,1.038l8.936,25.532a1.6,1.6,0,0,1-.96,2.094" transform="translate(-48.021 -108.673)" fill="#e0e0e0"/>
          <path id="Trazado_910913" data-name="Trazado 910913" d="M146.632,327.88l-.035.007a1.537,1.537,0,0,1-1.772-1.113L142.45,317.9a1.537,1.537,0,0,1,2.968-.8l2.409,8.866a1.537,1.537,0,0,1-1.2,1.913" transform="translate(-45.45 -100.849)" fill="#e0e0e0"/>
          <path id="Trazado_910914" data-name="Trazado 910914" d="M150.514,373.89l-.045.016a1.591,1.591,0,0,1-1.976-.987l-9.9-25.173a1.609,1.609,0,0,1,.807-2.1,1.584,1.584,0,0,1,2.045.957l9.941,25.158a1.6,1.6,0,0,1-.876,2.13" transform="translate(-44.197 -110.287)" fill="#e0e0e0"/>
          <path id="Trazado_910915" data-name="Trazado 910915" d="M133.236,330.392l-.035.008a1.511,1.511,0,0,1-1.809-.969l-2.7-8.371a1.5,1.5,0,0,1,1.05-1.873,1.516,1.516,0,0,1,1.88.944l2.73,8.363a1.5,1.5,0,0,1-1.121,1.9" transform="translate(-41.055 -101.856)" fill="#e0e0e0"/>
          <path id="Trazado_910916" data-name="Trazado 910916" d="M141.647,378.175l-.043.02a1.591,1.591,0,0,1-2.059-.8L127.352,353.25a1.609,1.609,0,0,1,.609-2.166,1.584,1.584,0,0,1,2.125.763l12.236,24.126a1.6,1.6,0,0,1-.675,2.2" transform="translate(-40.587 -112.005)" fill="#e0e0e0"/>
          <path id="Trazado_910917" data-name="Trazado 910917" d="M120.079,335.317l-.034.012a1.536,1.536,0,0,1-1.919-.833l-3.68-8.416a1.537,1.537,0,0,1,2.814-1.237l3.714,8.4a1.538,1.538,0,0,1-.895,2.071" transform="translate(-36.487 -103.389)" fill="#e0e0e0"/>
          <path id="Trazado_910918" data-name="Trazado 910918" d="M132.219,383.528l-.042.022a1.591,1.591,0,0,1-2.109-.656l-13.817-23.254a1.608,1.608,0,0,1,.459-2.2,1.584,1.584,0,0,1,2.172.616l13.86,23.231a1.6,1.6,0,0,1-.522,2.243" transform="translate(-37.026 -114.017)" fill="#e0e0e0"/>
          <path id="Trazado_910919" data-name="Trazado 910919" d="M109.348,342.249l-.033.015a1.537,1.537,0,0,1-1.987-.657l-4.424-8.051a1.537,1.537,0,0,1,2.691-1.486l4.456,8.036a1.536,1.536,0,0,1-.7,2.143" transform="translate(-32.784 -105.736)" fill="#e0e0e0"/>
          <path id="Trazado_910920" data-name="Trazado 910920" d="M123.685,389.248l-.039.027a1.592,1.592,0,0,1-2.158-.47L105.7,366.842a1.608,1.608,0,0,1,.266-2.234,1.584,1.584,0,0,1,2.217.424l15.83,21.935a1.6,1.6,0,0,1-.325,2.28" transform="translate(-33.631 -116.283)" fill="#e0e0e0"/>
          <path id="Trazado_910921" data-name="Trazado 910921" d="M131.448,73.378l0,.048a1.591,1.591,0,0,1-1.661,1.456l-27.047-.342A1.607,1.607,0,0,1,101.1,73a1.584,1.584,0,0,1,1.658-1.532l27.049.295a1.6,1.6,0,0,1,1.641,1.616" transform="translate(-32.268 -22.811)" fill="#e0e0e0"/>
          <path id="Trazado_910922" data-name="Trazado 910922" d="M137.1,63.149l0,.048a1.592,1.592,0,0,1-1.661,1.456l-27.047-.342a1.607,1.607,0,0,1-1.639-1.54,1.584,1.584,0,0,1,1.658-1.532l27.049.295a1.6,1.6,0,0,1,1.641,1.616" transform="translate(-34.071 -19.546)" fill="#e0e0e0"/>
          <path id="Trazado_910923" data-name="Trazado 910923" d="M97.554,352.777l-.031.018a1.537,1.537,0,0,1-2.035-.49l-5.079-7.653a1.537,1.537,0,0,1,2.558-1.7l5.11,7.635a1.537,1.537,0,0,1-.523,2.194" transform="translate(-28.774 -109.243)" fill="#e0e0e0"/>
          <path id="Trazado_910924" data-name="Trazado 910924" d="M115.592,398.211l-.038.028a1.591,1.591,0,0,1-2.178-.365L96.544,376.7a1.608,1.608,0,0,1,.157-2.244,1.584,1.584,0,0,1,2.235.317l16.871,21.146a1.6,1.6,0,0,1-.214,2.293" transform="translate(-30.693 -119.412)" fill="#e0e0e0"/>
          <path id="Trazado_910925" data-name="Trazado 910925" d="M87.129,366.37l-.029.021a1.538,1.538,0,0,1-2.08-.235l-5.982-6.97a1.537,1.537,0,0,1,2.328-2.006l6.012,6.949a1.537,1.537,0,0,1-.249,2.242" transform="translate(-25.109 -113.833)" fill="#e0e0e0"/>
          <path id="Trazado_910926" data-name="Trazado 910926" d="M183.805,364.051l-.047.009a1.546,1.546,0,0,1-1.785-1.189l-5.664-24.89a1.536,1.536,0,1,1,2.994-.688l5.711,24.881a1.549,1.549,0,0,1-1.208,1.876" transform="translate(-56.261 -107.269)" fill="#e0e0e0"/>
          <path id="Trazado_910927" data-name="Trazado 910927" d="M175.072,325.149l-.035,0a1.494,1.494,0,0,1-1.7-1.088l-1.865-8.3a1.467,1.467,0,0,1,1.227-1.716,1.5,1.5,0,0,1,1.777,1.071l1.9,8.294a1.473,1.473,0,0,1-1.3,1.734" transform="translate(-54.718 -100.228)" fill="#e0e0e0"/>
          <path id="Trazado_910928" data-name="Trazado 910928" d="M196.01,364.32l-.047.006a1.51,1.51,0,0,1-1.712-1.2l-4.208-23.842a1.537,1.537,0,0,1,3.026-.528l4.255,23.835a1.505,1.505,0,0,1-1.314,1.729" transform="translate(-60.65 -107.736)" fill="#e0e0e0"/>
          <path id="Trazado_910929" data-name="Trazado 910929" d="M188.948,326.718l-.031,0a1.353,1.353,0,0,1-1.435-1.157l-1.157-8.008a1.354,1.354,0,0,1,2.679-.392l1.189,8.005a1.354,1.354,0,0,1-1.244,1.55" transform="translate(-59.466 -100.862)" fill="#e0e0e0"/>
          <path id="Trazado_910930" data-name="Trazado 910930" d="M208.53,367.37l-.044.006a1.39,1.39,0,0,1-1.575-1.106l-3.871-21.935a1.414,1.414,0,0,1,2.784-.486l3.915,21.93a1.384,1.384,0,0,1-1.208,1.591" transform="translate(-64.799 -109.392)" fill="#e0e0e0"/>
          <path id="Trazado_910931" data-name="Trazado 910931" d="M202.94,330.387l-.033,0a1.415,1.415,0,0,1-1.517-1.187l-1.33-8.346a1.414,1.414,0,0,1,2.793-.451l1.363,8.343a1.414,1.414,0,0,1-1.276,1.637" transform="translate(-63.849 -101.887)" fill="#e0e0e0"/>
          <path id="Trazado_910932" data-name="Trazado 910932" d="M221.793,370.913l-.044.006a1.391,1.391,0,0,1-1.576-1.106l-3.87-21.935a1.414,1.414,0,0,1,2.783-.486L223,369.322a1.383,1.383,0,0,1-1.208,1.591" transform="translate(-69.032 -110.523)" fill="#e0e0e0"/>
          <path id="Trazado_910933" data-name="Trazado 910933" d="M214.876,334.533l-.033,0a1.414,1.414,0,0,1-1.517-1.187L212,325a1.414,1.414,0,0,1,2.793-.451l1.363,8.343a1.414,1.414,0,0,1-1.276,1.637" transform="translate(-67.658 -103.211)" fill="#e0e0e0"/>
          <path id="Trazado_910934" data-name="Trazado 910934" d="M233.921,374.455l-.044.006a1.39,1.39,0,0,1-1.575-1.106L228.43,351.42a1.382,1.382,0,0,1,1.14-1.578h0a1.393,1.393,0,0,1,1.643,1.092l3.915,21.93a1.384,1.384,0,0,1-1.208,1.591" transform="translate(-72.903 -111.653)" fill="#e0e0e0"/>
          <path id="Trazado_910935" data-name="Trazado 910935" d="M226.812,338.679l-.033,0a1.414,1.414,0,0,1-1.517-1.187l-1.33-8.346a1.414,1.414,0,0,1,2.792-.451l1.364,8.343a1.414,1.414,0,0,1-1.276,1.637" transform="translate(-71.468 -104.534)" fill="#e0e0e0"/>
          <path id="Trazado_910936" data-name="Trazado 910936" d="M245.08,380.692l-.044.006a1.39,1.39,0,0,1-1.575-1.106l-3.871-21.935a1.414,1.414,0,0,1,2.784-.486l3.915,21.93a1.384,1.384,0,0,1-1.208,1.591" transform="translate(-76.465 -113.644)" fill="#e0e0e0"/>
          <path id="Trazado_910937" data-name="Trazado 910937" d="M239.316,342.22l-.033,0a1.415,1.415,0,0,1-1.493-1.217l-1.164-8.371a1.414,1.414,0,0,1,2.8-.395l1.2,8.369a1.414,1.414,0,0,1-1.308,1.612" transform="translate(-75.521 -105.656)" fill="#e0e0e0"/>
          <path id="Trazado_910938" data-name="Trazado 910938" d="M258.06,384.593l-.044.007a1.391,1.391,0,0,1-1.575-1.106l-3.871-21.935a1.414,1.414,0,0,1,2.784-.487L259.268,383a1.384,1.384,0,0,1-1.208,1.591" transform="translate(-80.608 -114.889)" fill="#e0e0e0"/>
          <path id="Trazado_910939" data-name="Trazado 910939" d="M251.167,346.6l-.033,0a1.415,1.415,0,0,1-1.493-1.217l-1.164-8.371a1.414,1.414,0,0,1,2.8-.395l1.2,8.369a1.414,1.414,0,0,1-1.308,1.612" transform="translate(-79.304 -107.055)" fill="#e0e0e0"/>
          <path id="Trazado_910940" data-name="Trazado 910940" d="M269.89,387.632l-.044.006a1.39,1.39,0,0,1-1.575-1.106L264.4,364.6a1.414,1.414,0,0,1,2.785-.486l3.915,21.93a1.384,1.384,0,0,1-1.208,1.591" transform="translate(-84.384 -115.859)" fill="#e0e0e0"/>
          <path id="Trazado_910941" data-name="Trazado 910941" d="M263.063,350.344l-.033,0a1.415,1.415,0,0,1-1.493-1.217l-1.164-8.371a1.414,1.414,0,0,1,2.8-.395l1.2,8.369a1.414,1.414,0,0,1-1.308,1.612" transform="translate(-83.101 -108.248)" fill="#e0e0e0"/>
          <path id="Trazado_910942" data-name="Trazado 910942" d="M282.47,389.84l-.044.006a1.39,1.39,0,0,1-1.575-1.106L276.979,366.8a1.414,1.414,0,0,1,2.784-.486l3.915,21.93a1.384,1.384,0,0,1-1.208,1.591" transform="translate(-88.399 -116.564)" fill="#e0e0e0"/>
          <path id="Trazado_910943" data-name="Trazado 910943" d="M276.958,351.1l-.033,0A1.415,1.415,0,0,1,275.352,350l-1.747-8.269a1.414,1.414,0,0,1,2.766-.59l1.78,8.265a1.414,1.414,0,0,1-1.192,1.7" transform="translate(-87.318 -108.526)" fill="#e0e0e0"/>
          <path id="Trazado_910944" data-name="Trazado 910944" d="M295.049,389.021l-.044.006a1.39,1.39,0,0,1-1.575-1.106l-3.871-21.935a1.414,1.414,0,0,1,2.784-.486l3.915,21.93a1.384,1.384,0,0,1-1.208,1.591" transform="translate(-92.414 -116.302)" fill="#e0e0e0"/>
          <path id="Trazado_910945" data-name="Trazado 910945" d="M288.313,350.3l-.033,0a1.415,1.415,0,0,1-1.574-1.109l-1.747-8.269a1.414,1.414,0,0,1,2.766-.59l1.78,8.265a1.414,1.414,0,0,1-1.192,1.7" transform="translate(-90.942 -108.272)" fill="#e0e0e0"/>
          <path id="Trazado_910946" data-name="Trazado 910946" d="M306.068,386.088l-.044.006a1.372,1.372,0,0,1-1.569-1.063l-3.775-21.221a1.357,1.357,0,0,1,1.147-1.533,1.378,1.378,0,0,1,1.637,1.05l3.817,21.215a1.362,1.362,0,0,1-1.215,1.545" transform="translate(-95.964 -115.622)" fill="#e0e0e0"/>
          <path id="Trazado_910947" data-name="Trazado 910947" d="M299.422,348.476l-.033,0a1.4,1.4,0,0,1-1.569-1.068l-1.71-8a1.385,1.385,0,0,1,1.132-1.634,1.4,1.4,0,0,1,1.635,1.051l1.743,7.994a1.388,1.388,0,0,1-1.2,1.65" transform="translate(-94.502 -107.804)" fill="#e0e0e0"/>
          <path id="Trazado_910948" data-name="Trazado 910948" d="M315.892,378.779l-.044.006a1.37,1.37,0,0,1-1.569-1.063L310.505,356.5a1.357,1.357,0,0,1,1.147-1.533,1.378,1.378,0,0,1,1.637,1.05l3.817,21.215a1.361,1.361,0,0,1-1.215,1.545" transform="translate(-99.1 -113.289)" fill="#e0e0e0"/>
          <path id="Trazado_910949" data-name="Trazado 910949" d="M309.387,344.91l-.033,0a1.344,1.344,0,0,1-1.548-.921l-1.583-7.061a1.294,1.294,0,0,1,1.155-1.465,1.355,1.355,0,0,1,1.615.905l1.616,7.057a1.3,1.3,0,0,1-1.221,1.481" transform="translate(-97.731 -107.065)" fill="#e0e0e0"/>
          <path id="Trazado_910950" data-name="Trazado 910950" d="M325.768,372.635l-.042.005a1.307,1.307,0,0,1-1.5-1.013l-3.6-20.221a1.293,1.293,0,0,1,1.093-1.46,1.313,1.313,0,0,1,1.56,1l3.638,20.216a1.3,1.3,0,0,1-1.157,1.473" transform="translate(-102.333 -111.687)" fill="#e0e0e0"/>
          <path id="Trazado_910951" data-name="Trazado 910951" d="M319.5,339.8l-.031,0a1.33,1.33,0,0,1-1.494-1.016l-1.629-7.621a1.348,1.348,0,0,1,2.637-.556l1.661,7.617A1.322,1.322,0,0,1,319.5,339.8" transform="translate(-100.961 -105.197)" fill="#e0e0e0"/>
          <path id="Trazado_910952" data-name="Trazado 910952" d="M336.109,365.573l-.042.005a1.29,1.29,0,0,1-1.505-.931l-3.427-18.877a1.26,1.26,0,0,1,1.125-1.378,1.3,1.3,0,0,1,1.571.919l3.469,18.872a1.271,1.271,0,0,1-1.19,1.39" transform="translate(-105.685 -109.914)" fill="#e0e0e0"/>
          <path id="Trazado_910953" data-name="Trazado 910953" d="M330,334.093l-.032,0a1.35,1.35,0,0,1-1.518-1.032l-1.654-7.739a1.369,1.369,0,0,1,2.678-.564l1.686,7.735a1.342,1.342,0,0,1-1.159,1.6" transform="translate(-104.297 -103.324)" fill="#e0e0e0"/>
          <path id="Trazado_910954" data-name="Trazado 910954" d="M344.338,355.382l-.039.005a1.2,1.2,0,0,1-1.4-.869l-3.2-17.607a1.175,1.175,0,0,1,1.048-1.285,1.214,1.214,0,0,1,1.465.858l3.236,17.6a1.185,1.185,0,0,1-1.11,1.3" transform="translate(-108.418 -107.116)" fill="#e0e0e0"/>
          <path id="Trazado_910955" data-name="Trazado 910955" d="M338.643,326.02l-.029,0a1.26,1.26,0,0,1-1.415-.963l-1.543-7.219a1.277,1.277,0,0,1,2.5-.526l1.573,7.215a1.252,1.252,0,0,1-1.082,1.489" transform="translate(-107.124 -100.97)" fill="#e0e0e0"/>
          <path id="Trazado_910956" data-name="Trazado 910956" d="M350.8,345.543l-.035.005a1.1,1.1,0,0,1-1.278-.791l-2.908-16.02a1.069,1.069,0,0,1,.954-1.17,1.1,1.1,0,0,1,1.333.78l2.944,16.016a1.078,1.078,0,0,1-1.01,1.18" transform="translate(-110.615 -104.545)" fill="#e0e0e0"/>
          <path id="Trazado_910957" data-name="Trazado 910957" d="M345.619,318.828l-.027,0a1.146,1.146,0,0,1-1.287-.876l-1.4-6.568a1.162,1.162,0,0,1,2.273-.479l1.431,6.565a1.14,1.14,0,0,1-.984,1.355" transform="translate(-109.438 -98.953)" fill="#e0e0e0"/>
          <path id="Trazado_910958" data-name="Trazado 910958" d="M242.6,164.269c.008,0,0,.123,0,.364a8.75,8.75,0,0,0,.072,1.061,12.518,12.518,0,0,0,1.189,3.89,18.426,18.426,0,0,0,3.828,5.165,26.686,26.686,0,0,0,7.234,4.507,59.992,59.992,0,0,0,9.811,3.4c1.8.487,3.735.686,5.681,1.2.976.238,1.938.563,2.917.875l1.478.474,1.481.528a92.346,92.346,0,0,1,24.186,12.785,56.716,56.716,0,0,1,10.269,9.811,44.4,44.4,0,0,1,6.457,11.536,74.34,74.34,0,0,1,4.469,21.892c.442,6.366.345,11.53.31,15.092-.029,1.782-.061,3.165-.091,4.1-.016.458-.027.813-.036,1.067s-.025.364-.025.364-.01-.124-.012-.364,0-.609,0-1.067c.005-.953.014-2.333.025-4.1-.007-3.561.051-8.723-.422-15.073a74.736,74.736,0,0,0-4.523-21.79,44.227,44.227,0,0,0-6.425-11.44,56.622,56.622,0,0,0-10.21-9.743,92.676,92.676,0,0,0-24.082-12.76l-1.475-.53-1.472-.477c-.976-.313-1.933-.639-2.9-.877-1.915-.513-3.855-.72-5.675-1.217a59.746,59.746,0,0,1-9.843-3.46,26.705,26.705,0,0,1-7.268-4.593,18.376,18.376,0,0,1-3.815-5.248A12.176,12.176,0,0,1,242.6,165.7a7.462,7.462,0,0,1-.037-1.069,2.04,2.04,0,0,1,.038-.363" transform="translate(-77.418 -52.431)" fill="#263238"/>
          <path id="Trazado_910959" data-name="Trazado 910959" d="M340.262,288.173a1.688,1.688,0,0,1-.148.37l-.486,1.034c-.21.45-.479.995-.831,1.605s-.716,1.329-1.205,2.071c-.468.755-.987,1.578-1.605,2.421-.584.867-1.288,1.734-2.013,2.659a48.943,48.943,0,0,1-11.35,10.161c-1,.619-1.938,1.223-2.865,1.708-.906.522-1.781.948-2.583,1.329-.791.4-1.543.692-2.191.969s-1.217.491-1.688.65l-1.08.369a1.677,1.677,0,0,1-.385.106,1.722,1.722,0,0,1,.361-.174l1.055-.431c.462-.178,1.023-.4,1.659-.7s1.379-.6,2.159-1.012c.791-.394,1.654-.83,2.549-1.36.914-.494,1.842-1.1,2.83-1.726a50.98,50.98,0,0,0,11.276-10.1c.727-.913,1.436-1.767,2.027-2.622.625-.83,1.153-1.641,1.633-2.383.5-.73.882-1.433,1.244-2.035s.654-1.132.882-1.571l.545-1a1.694,1.694,0,0,1,.212-.34" transform="translate(-99.529 -91.978)" fill="#263238"/>
          <path id="Trazado_910960" data-name="Trazado 910960" d="M169.746,55.469a21.393,21.393,0,0,0-3.817.841,14.389,14.389,0,0,0-9.822,14.485,21.416,21.416,0,0,0,.631,3.857c-.012,0-.051-.082-.116-.249s-.168-.413-.256-.744a13.091,13.091,0,0,1-.509-2.849,14.252,14.252,0,0,1,9.993-14.736,13.136,13.136,0,0,1,2.836-.581,7.838,7.838,0,0,1,.786-.037.815.815,0,0,1,.274.016" transform="translate(-49.732 -17.699)" fill="#263238"/>
          <path id="Trazado_910961" data-name="Trazado 910961" d="M69.952,55.471c0,.035-.419.063-1.162.2a19.624,19.624,0,0,0-3.079.874,31.5,31.5,0,0,0-4.325,1.965A26.113,26.113,0,0,0,56.6,61.787a11.052,11.052,0,0,0-1.965,2.237c-.554.809-1.093,1.582-1.577,2.335a14.551,14.551,0,0,0-2.6,7.4,9.348,9.348,0,0,1-.106,1.176,1,1,0,0,1-.029-.306c0-.2-.022-.5,0-.879a13.916,13.916,0,0,1,.453-3.2,15.5,15.5,0,0,1,2.01-4.361c.482-.765,1.017-1.544,1.566-2.354a11.232,11.232,0,0,1,2.016-2.306,25.285,25.285,0,0,1,4.864-3.3,29.266,29.266,0,0,1,4.4-1.914,16.768,16.768,0,0,1,3.141-.773,6.468,6.468,0,0,1,.877-.073,1.006,1.006,0,0,1,.307.007" transform="translate(-16.058 -17.701)" fill="#263238"/>
          <path id="Trazado_910962" data-name="Trazado 910962" d="M82.643,73.029l0,.036a1.536,1.536,0,0,1-1.5,1.454l-9.184.181a1.537,1.537,0,0,1-.067-3.073l9.186-.216a1.537,1.537,0,0,1,1.571,1.618" transform="translate(-22.465 -22.792)" fill="#e0e0e0"/>
          <path id="Trazado_910963" data-name="Trazado 910963" d="M87.117,63.551l0,.036a1.537,1.537,0,0,1-1.5,1.454l-9.184.18a1.537,1.537,0,0,1-.067-3.073l9.186-.217a1.538,1.538,0,0,1,1.571,1.619" transform="translate(-23.893 -19.767)" fill="#e0e0e0"/>
          <path id="Trazado_910964" data-name="Trazado 910964" d="M166.265,386.981a2.531,2.531,0,0,1-.227.437l-.713,1.219a20.978,20.978,0,0,1-1.205,1.882c-.51.707-1.034,1.555-1.746,2.393l-1.08,1.345c-.371.471-.816.911-1.245,1.394-.848.977-1.858,1.919-2.9,2.928a58.8,58.8,0,0,1-7.483,5.755,80.547,80.547,0,0,1-15.388,7.508c-2.058.757-3.74,1.325-4.913,1.68l-1.351.409a2.582,2.582,0,0,1-.479.12,2.634,2.634,0,0,1,.457-.187l1.329-.473c1.159-.395,2.825-1,4.868-1.783a85.788,85.788,0,0,0,15.284-7.572,60.79,60.79,0,0,0,7.456-5.7c1.045-1,2.057-1.923,2.908-2.886.431-.476.878-.908,1.253-1.372l1.091-1.323c.721-.823,1.256-1.658,1.78-2.35s.925-1.325,1.251-1.843l.769-1.182a2.567,2.567,0,0,1,.289-.4" transform="translate(-40.705 -123.515)" fill="#263238"/>
          <path id="Trazado_910965" data-name="Trazado 910965" d="M125.6,231.146H40.166a7.8,7.8,0,0,1-7.794-7.795V90.746a7.794,7.794,0,0,1,7.794-7.794H125.6a7.794,7.794,0,0,1,7.794,7.794v132.6a7.794,7.794,0,0,1-7.794,7.795" transform="translate(-10.332 -26.476)" fill="#5ab4f9"/>
          <path id="Trazado_910966" data-name="Trazado 910966" d="M120.648,133.7H42.881a3.532,3.532,0,0,1-3.532-3.532V103.029A3.532,3.532,0,0,1,42.881,99.5h77.767a3.532,3.532,0,0,1,3.532,3.532v27.135a3.532,3.532,0,0,1-3.532,3.532" transform="translate(-12.559 -31.757)" fill="#fff"/>
          <path id="Trazado_910967" data-name="Trazado 910967" d="M62.036,173.612h-14.5a5.059,5.059,0,0,1-5.059-5.059v-2.806a5.059,5.059,0,0,1,5.059-5.059h14.5a5.06,5.06,0,0,1,5.06,5.059v2.806a5.06,5.06,0,0,1-5.06,5.059" transform="translate(-13.558 -51.287)" fill="#e0e0e0"/>
          <path id="Trazado_910968" data-name="Trazado 910968" d="M104.045,173.612h-14.5a5.059,5.059,0,0,1-5.059-5.059v-2.806a5.059,5.059,0,0,1,5.059-5.059h14.5a5.06,5.06,0,0,1,5.06,5.059v2.806a5.06,5.06,0,0,1-5.06,5.059" transform="translate(-26.966 -51.287)" fill="#e0e0e0"/>
          <path id="Trazado_910969" data-name="Trazado 910969" d="M146.055,173.612h-14.5a5.059,5.059,0,0,1-5.059-5.059v-2.806a5.059,5.059,0,0,1,5.059-5.059h14.5a5.06,5.06,0,0,1,5.06,5.059v2.806a5.06,5.06,0,0,1-5.06,5.059" transform="translate(-40.374 -51.287)" fill="#455a64"/>
          <path id="Trazado_910970" data-name="Trazado 910970" d="M62.036,199.418h-14.5a5.059,5.059,0,0,1-5.059-5.06v-2.806a5.059,5.059,0,0,1,5.059-5.059h14.5a5.06,5.06,0,0,1,5.06,5.059v2.806a5.06,5.06,0,0,1-5.06,5.06" transform="translate(-13.558 -59.524)" fill="#fff"/>
          <path id="Trazado_910971" data-name="Trazado 910971" d="M104.045,199.418h-14.5a5.059,5.059,0,0,1-5.059-5.06v-2.806a5.059,5.059,0,0,1,5.059-5.059h14.5a5.06,5.06,0,0,1,5.06,5.059v2.806a5.06,5.06,0,0,1-5.06,5.06" transform="translate(-26.966 -59.524)" fill="#fff"/>
          <path id="Trazado_910972" data-name="Trazado 910972" d="M146.055,199.418h-14.5a5.059,5.059,0,0,1-5.059-5.06v-2.806a5.059,5.059,0,0,1,5.059-5.059h14.5a5.06,5.06,0,0,1,5.06,5.059v2.806a5.06,5.06,0,0,1-5.06,5.06" transform="translate(-40.374 -59.524)" fill="#fff"/>
          <path id="Trazado_910973" data-name="Trazado 910973" d="M146.055,225.029h-14.5a5.059,5.059,0,0,1-5.059-5.06v-2.806a5.059,5.059,0,0,1,5.059-5.059h14.5a5.06,5.06,0,0,1,5.06,5.059v2.806a5.06,5.06,0,0,1-5.06,5.06" transform="translate(-40.374 -67.698)" fill="#fff"/>
          <path id="Trazado_910974" data-name="Trazado 910974" d="M62.036,225.225h-14.5a5.059,5.059,0,0,1-5.059-5.06v-2.806a5.059,5.059,0,0,1,5.059-5.059h14.5a5.06,5.06,0,0,1,5.06,5.059v2.806a5.06,5.06,0,0,1-5.06,5.06" transform="translate(-13.558 -67.761)" fill="#fff"/>
          <path id="Trazado_910975" data-name="Trazado 910975" d="M104.045,225.225h-14.5a5.059,5.059,0,0,1-5.059-5.06v-2.806a5.059,5.059,0,0,1,5.059-5.059h14.5a5.06,5.06,0,0,1,5.06,5.059v2.806a5.06,5.06,0,0,1-5.06,5.06" transform="translate(-26.966 -67.761)" fill="#fff"/>
          <path id="Trazado_910976" data-name="Trazado 910976" d="M62.036,276.838h-14.5a5.059,5.059,0,0,1-5.059-5.059v-2.806a5.059,5.059,0,0,1,5.059-5.059h14.5a5.06,5.06,0,0,1,5.06,5.059v2.806a5.06,5.06,0,0,1-5.06,5.059" transform="translate(-13.558 -84.235)" fill="#fff"/>
          <path id="Trazado_910977" data-name="Trazado 910977" d="M104.471,276.838h-14.5a5.059,5.059,0,0,1-5.059-5.059v-2.806a5.059,5.059,0,0,1,5.059-5.059h14.5a5.06,5.06,0,0,1,5.06,5.059v2.806a5.06,5.06,0,0,1-5.06,5.059" transform="translate(-27.102 -84.235)" fill="#fff"/>
          <path id="Trazado_910978" data-name="Trazado 910978" d="M62.036,251.032h-14.5a5.059,5.059,0,0,1-5.059-5.06v-2.806a5.059,5.059,0,0,1,5.059-5.059h14.5a5.06,5.06,0,0,1,5.06,5.059v2.806a5.06,5.06,0,0,1-5.06,5.06" transform="translate(-13.558 -75.998)" fill="#fff"/>
          <path id="Trazado_910979" data-name="Trazado 910979" d="M104.045,251.032h-14.5a5.059,5.059,0,0,1-5.059-5.06v-2.806a5.059,5.059,0,0,1,5.059-5.059h14.5a5.06,5.06,0,0,1,5.06,5.059v2.806a5.06,5.06,0,0,1-5.06,5.06" transform="translate(-26.966 -75.998)" fill="#fff"/>
          <path id="Trazado_910980" data-name="Trazado 910980" d="M146.046,268.377h-14.5a5.059,5.059,0,0,1-5.059-5.06V242.941a5.059,5.059,0,0,1,5.059-5.059h14.5a5.06,5.06,0,0,1,5.06,5.059v20.376a5.06,5.06,0,0,1-5.06,5.06" transform="translate(-40.372 -75.926)" fill="#455a64"/>
          <path id="Trazado_910981" data-name="Trazado 910981" d="M62.815,191.479v.649l-2.7,6.033H59.1l2.644-5.852H58.69V193.5h-.916v-2.024Z" transform="translate(-18.44 -61.115)" fill="#263238"/>
          <path id="Trazado_910982" data-name="Trazado 910982" d="M104.1,196.235c0,1.212-1.031,1.967-2.664,1.967s-2.644-.755-2.644-1.967a1.657,1.657,0,0,1,1.174-1.614,1.511,1.511,0,0,1-.935-1.441c0-1.117.964-1.814,2.405-1.814s2.425.7,2.425,1.814a1.52,1.52,0,0,1-.945,1.441,1.662,1.662,0,0,1,1.184,1.614m-.955-.029c0-.735-.65-1.193-1.71-1.193s-1.689.458-1.689,1.193c0,.754.63,1.222,1.689,1.222s1.71-.468,1.71-1.222m-3.17-2.988c0,.658.544,1.069,1.46,1.069s1.49-.411,1.49-1.069-.592-1.079-1.49-1.079-1.46.411-1.46,1.079" transform="translate(-31.531 -61.079)" fill="#263238"/>
          <path id="Trazado_910983" data-name="Trazado 910983" d="M145.948,193.895c0,2.282-1.289,3.5-3.16,3.5a3.225,3.225,0,0,1-1.661-.391l.363-.745a2.354,2.354,0,0,0,1.289.315c1.356,0,2.215-.85,2.215-2.52v-.239a2.23,2.23,0,0,1-1.928.878,2.056,2.056,0,0,1-2.281-2.024,2.153,2.153,0,0,1,2.358-2.11c1.795,0,2.807,1.2,2.807,3.332m-1.174-1.27c0-.687-.554-1.289-1.594-1.289a1.314,1.314,0,0,0-1.47,1.3c0,.783.582,1.288,1.518,1.288a1.39,1.39,0,0,0,1.547-1.3" transform="translate(-44.935 -60.823)" fill="#263238"/>
          <path id="Trazado_910984" data-name="Trazado 910984" d="M63.683,222.326h-1.27v1.642h-.926v-1.642H57.775v-.668l3.417-4.372h1.031l-3.275,4.22h2.568v-1.452h.9v1.452h1.27Z" transform="translate(-18.44 -69.353)" fill="#263238"/>
          <path id="Trazado_910985" data-name="Trazado 910985" d="M104.927,221.964c0,1.155-.821,2.081-2.53,2.081a3.83,3.83,0,0,1-2.454-.812l.44-.754a3,3,0,0,0,2,.716c1.012,0,1.585-.468,1.585-1.193,0-.754-.478-1.222-2.024-1.222H100.43l.353-3.494h3.771v.831h-2.969l-.181,1.833h.745c1.995,0,2.778.831,2.778,2.015" transform="translate(-31.899 -69.352)" fill="#263238"/>
          <path id="Trazado_910986" data-name="Trazado 910986" d="M145.95,221.3a2.161,2.161,0,0,1-2.367,2.11c-1.8,0-2.807-1.2-2.807-3.332,0-2.281,1.289-3.5,3.16-3.5a3.221,3.221,0,0,1,1.661.391l-.363.745a2.318,2.318,0,0,0-1.279-.315c-1.356,0-2.225.85-2.225,2.52a2.069,2.069,0,0,0,.01.238,2.225,2.225,0,0,1,1.919-.878,2.065,2.065,0,0,1,2.291,2.024m-.926.038c0-.782-.592-1.289-1.527-1.289a1.387,1.387,0,0,0-1.537,1.3c0,.687.553,1.288,1.584,1.288a1.323,1.323,0,0,0,1.48-1.3" transform="translate(-44.932 -69.126)" fill="#263238"/>
          <path id="Trazado_910987" data-name="Trazado 910987" d="M61.209,268.5v6.682h-.945v-5.852H58.755V268.5Z" transform="translate(-18.753 -85.698)" fill="#263238"/>
          <path id="Trazado_910988" data-name="Trazado 910988" d="M61.26,248.409v.831h-4.8v-.65l2.721-2.625c.707-.687.84-1.107.84-1.527,0-.688-.487-1.107-1.422-1.107a2.1,2.1,0,0,0-1.709.725l-.65-.564a3.084,3.084,0,0,1,2.444-1.012c1.394,0,2.291.716,2.291,1.862a2.706,2.706,0,0,1-1.1,2.1l-2.043,1.967Z" transform="translate(-17.95 -77.394)" fill="#263238"/>
          <path id="Trazado_910989" data-name="Trazado 910989" d="M106.184,247.35c0,1.127-.831,2.043-2.53,2.043a3.791,3.791,0,0,1-2.454-.812l.439-.754a3.01,3.01,0,0,0,2.015.716c1,0,1.575-.458,1.575-1.184,0-.707-.507-1.165-1.652-1.165h-.534v-.668l1.68-2.062h-3.217v-.831h4.41v.65l-1.747,2.157c1.336.125,2.015.878,2.015,1.91" transform="translate(-32.301 -77.443)" fill="#263238"/>
          <path id="Trazado_910990" data-name="Trazado 910990" d="M100.856,271.8c0-2.176,1.166-3.418,2.731-3.418s2.721,1.242,2.721,3.418-1.165,3.418-2.721,3.418-2.731-1.242-2.731-3.418m4.5,0c0-1.709-.726-2.567-1.766-2.567s-1.742.859-1.742,2.567.691,2.568,1.742,2.568,1.766-.859,1.766-2.568" transform="translate(-32.191 -85.662)" fill="#263238"/>
          <path id="Trazado_910991" data-name="Trazado 910991" d="M56.719,168.8a2.905,2.905,0,0,1,3.043-2.937,2.837,2.837,0,0,1,2.183.895l-.534.517a2.127,2.127,0,0,0-1.616-.681,2.207,2.207,0,1,0,0,4.413,2.136,2.136,0,0,0,1.616-.688l.534.517a2.851,2.851,0,0,1-2.191.9,2.9,2.9,0,0,1-3.035-2.937" transform="translate(-18.103 -52.94)" fill="#263238"/>
          <rect id="Rectángulo_406674" data-name="Rectángulo 406674" width="4.881" height="0.514" transform="translate(95.991 176.689)" fill="#263238"/>
          <path id="Trazado_910992" data-name="Trazado 910992" d="M146.005,260.169h-5.383v-1.016h5.383Zm-4.881-.5,4.378-.012Z" transform="translate(-44.883 -82.715)" fill="#263238"/>
          <rect id="Rectángulo_406675" data-name="Rectángulo 406675" width="0.514" height="4.881" transform="translate(98.173 174.505)" fill="#263238"/>
          <path id="Trazado_910993" data-name="Trazado 910993" d="M144.845,261.33h-1.016v-5.383h1.016Zm-.513-.5h.012l-.012-4.379Z" transform="translate(-45.907 -81.692)" fill="#263238"/>
          <rect id="Rectángulo_406676" data-name="Rectángulo 406676" width="6.87" height="0.878" transform="translate(95.504 114.769)" fill="#263238"/>
          <rect id="Rectángulo_406677" data-name="Rectángulo 406677" width="6.87" height="0.878" transform="translate(95.504 117.416)" fill="#263238"/>
          <rect id="Rectángulo_406678" data-name="Rectángulo 406678" width="4.881" height="0.514" transform="translate(62.541 115.68)" fill="#263238"/>
          <path id="Trazado_910994" data-name="Trazado 910994" d="M96.875,170.559H91.492v-1.016h5.383Zm-4.881-.5,4.378-.012Z" transform="translate(-29.202 -54.114)" fill="#263238"/>
          <path id="Trazado_910995" data-name="Trazado 910995" d="M95.88,165.961a.819.819,0,1,1-.819-.819.819.819,0,0,1,.819.819" transform="translate(-30.08 -52.709)" fill="#263238"/>
          <path id="Trazado_910996" data-name="Trazado 910996" d="M95.88,173.628a.819.819,0,1,1-.819-.819.819.819,0,0,1,.819.819" transform="translate(-30.08 -55.156)" fill="#263238"/>
          <path id="Trazado_910997" data-name="Trazado 910997" d="M111.789,167.574l-.718-.718-1.544,1.544-1.544-1.544-.718.718,1.543,1.544-1.543,1.544.718.718,1.544-1.543,1.543,1.543.719-.718-1.544-1.544Z" transform="translate(-34.236 -53.256)" fill="#263238"/>
          <path id="Trazado_910998" data-name="Trazado 910998" d="M81.092,126.272c0,2.135-1.469,3.8-4.5,3.8a6.346,6.346,0,0,1-4.443-1.615l.62-1.023a5.329,5.329,0,0,0,3.806,1.454c2.106,0,3.222-1.041,3.222-2.566,0-1.614-.992-2.619-4.142-2.619H73.02l.637-6.3h6.78v1.148H74.772l-.425,4h1.593c3.735,0,5.151,1.489,5.151,3.713" transform="translate(-23.029 -37.474)" fill="#263238"/>
          <path id="Trazado_910999" data-name="Trazado 910999" d="M87.65,123.639c0-4,2.071-6.387,4.939-6.387s4.956,2.386,4.956,6.387-2.089,6.387-4.956,6.387-4.939-2.386-4.939-6.387m8.585,0c0-3.355-1.487-5.2-3.646-5.2s-3.646,1.848-3.646,5.2,1.487,5.2,3.646,5.2,3.646-1.848,3.646-5.2" transform="translate(-27.976 -37.424)" fill="#263238"/>
          <path id="Trazado_911000" data-name="Trazado 911000" d="M104.6,134.085a.944.944,0,0,1,.938-.969.958.958,0,0,1,.956.969.974.974,0,0,1-.956.987.959.959,0,0,1-.938-.987" transform="translate(-33.387 -42.487)" fill="#263238"/>
          <path id="Trazado_911001" data-name="Trazado 911001" d="M118.529,128.77v1.149h-8.691V129l5.151-5.114c1.4-1.4,1.664-2.243,1.664-3.1,0-1.454-1.009-2.351-2.9-2.351a4.179,4.179,0,0,0-3.381,1.4l-.9-.79a5.534,5.534,0,0,1,4.391-1.794c2.514,0,4.107,1.292,4.107,3.391,0,1.2-.372,2.279-2.036,3.93l-4.213,4.2Z" transform="translate(-34.939 -37.424)" fill="#263238"/>
          <path id="Trazado_911002" data-name="Trazado 911002" d="M132.959,126.362c0,2.1-1.5,3.714-4.5,3.714A6.394,6.394,0,0,1,124,128.461l.62-1.023a5.385,5.385,0,0,0,3.841,1.454c2.053,0,3.186-.969,3.186-2.53,0-1.507-1.044-2.494-3.346-2.494h-.886v-.951l3.435-4.359h-6.337V117.41h7.966v.914l-3.5,4.468c2.655.144,3.983,1.561,3.983,3.57" transform="translate(-39.578 -37.474)" fill="#263238"/>
          <path id="Trazado_911003" data-name="Trazado 911003" d="M139.785,123.639c0-4,2.071-6.387,4.939-6.387s4.956,2.386,4.956,6.387-2.089,6.387-4.956,6.387-4.939-2.386-4.939-6.387m8.585,0c0-3.355-1.487-5.2-3.646-5.2s-3.646,1.848-3.646,5.2,1.487,5.2,3.646,5.2,3.646-1.848,3.646-5.2" transform="translate(-44.616 -37.424)" fill="#263238"/>
          <path id="Trazado_911004" data-name="Trazado 911004" d="M171.356,224.334c-.1,0-.177-31.074-.177-69.4s.079-69.4.177-69.4.177,31.067.177,69.4-.079,69.4-.177,69.4" transform="translate(-54.636 -27.3)" fill="#263238"/>
          <g id="Grupo_1118252" data-name="Grupo 1118252" transform="translate(26.79 67.74)" opacity="0.2">
            <g id="Grupo_1118251" data-name="Grupo 1118251">
              <g id="Grupo_1118250" data-name="Grupo 1118250" clip-path="url(#clip-path-5)">
                <path id="Trazado_911005" data-name="Trazado 911005" d="M121.282,99.5H42.513a3.164,3.164,0,0,0-3.164,3.164V130.25A3.446,3.446,0,0,0,42.8,133.7a3.544,3.544,0,0,1-1.827-3.235s-.259-25.014,0-27.178a2.986,2.986,0,0,1,2.164-2.6s77.122-.173,78.334,0,2.715,2.257,2.715,2.257a3.491,3.491,0,0,0-2.9-3.446" transform="translate(-39.349 -99.497)"/>
              </g>
            </g>
          </g>
        </g>
      </g>
      <g id="Grupo_1118322" data-name="Grupo 1118322" transform="translate(-4129.659 11144.004)">
        <path id="Trazado_911188" data-name="Trazado 911188" d="M265.357,55.584c6.842-.936,14.1,2.952,16.693,8.935S282.3,78,276.685,81.764A9.766,9.766,0,0,1,278.5,92.858c-1.738,3.623-10.242,12.242-14.412,13.032s-3.926-6.146-7.632-8.1a8.994,8.994,0,0,1-7.025,7.254,9.684,9.684,0,0,1-9.706-3.686c-3.776,4.065-.461,10.052-6.056,9.028-12.781-2.341-17.8-14.465-16.52-19.71a13.479,13.479,0,0,1-.4-24.5,11.109,11.109,0,0,1,4.075-12,13.123,13.123,0,0,1,13.447-1c2.941-5.725,9.949-9.382,16.716-8.724s12.816,5.587,14.427,11.755" transform="translate(4395.355 -9963.665)" fill="#263238"/>
        <path id="Trazado_911189" data-name="Trazado 911189" d="M221.742,80.735c-1.294-7.813,2.386-16.391,9.083-20.518,4.222-2.6,7.671-2.937,9.972-3.426a16.15,16.15,0,0,1,9.6,1.11c2.248.315,10.992,6.991,12.151,15.01,1.289,8.908,2.512,19.835,2,26.6-1.03,13.609-11.127,16.16-11.127,16.16,0-.02,2.54,11.717,2.54,11.717l-16.116,3.831-8.619-10.893Z" transform="translate(4398.345 -9960.744)" fill="#ae7461"/>
        <path id="Trazado_911190" data-name="Trazado 911190" d="M250.765,104.749a34.039,34.039,0,0,1-18.336-3.322s5.53,9.078,18.8,6.723Z" transform="translate(4400.987 -9949.897)" fill="#6f4439"/>
        <path id="Trazado_911191" data-name="Trazado 911191" d="M226.215,82.953c-.083-1-1.424-3.265-2.419-3.338-2.656-.2-7.367.4-6.867,7.109.684,9.165,11.372,6.471,11.368,6.207a85.2,85.2,0,0,1-2.082-9.978" transform="translate(4397.237 -9955.168)" fill="#ae7461"/>
        <path id="Trazado_911192" data-name="Trazado 911192" d="M223.729,89.305c-.042-.026-.15.124-.408.268a1.587,1.587,0,0,1-1.185.114c-.989-.283-1.914-1.759-2.082-3.407a5.319,5.319,0,0,1,.273-2.32,1.849,1.849,0,0,1,1.1-1.316.813.813,0,0,1,.971.366c.142.248.1.436.145.447.027.021.185-.168.083-.54a1.016,1.016,0,0,0-.4-.549,1.2,1.2,0,0,0-.9-.166,2.242,2.242,0,0,0-1.552,1.547,5.462,5.462,0,0,0-.359,2.6c.195,1.842,1.264,3.5,2.611,3.784a1.7,1.7,0,0,0,1.432-.353c.266-.247.3-.456.266-.47" transform="translate(4397.84 -9954.542)" fill="#6f4439"/>
        <path id="Trazado_911193" data-name="Trazado 911193" d="M268.157,79.205c-13.087.042-9.979-12.658-15.324-10.927-10.071,3.261-14.074-2.643-16.842-7.161,0,0-4.027,15.759-8.07,17.051,0,0,.691,5.632-.039,9.327-.487,2.459.515,6.547-.369,7.3-1.852,1.588-6.654-8.488-8.252-10.338a18.716,18.716,0,0,1-3.168-6.573l4.223-15.739,15.674-8.255,11.842-3.545,9.977,3.1s10.565,8.11,10.348,8.281,0,17.477,0,17.477" transform="translate(4397.044 -9962.226)" fill="#263238"/>
        <path id="Trazado_911194" data-name="Trazado 911194" d="M244.908,92.348a2.834,2.834,0,1,1-2.493-3.139,2.834,2.834,0,0,1,2.493,3.139" transform="translate(4402.634 -9952.852)" fill="#6f4439"/>
        <path id="Trazado_911195" data-name="Trazado 911195" d="M251.9,80.485a1.764,1.764,0,0,1-1.678,1.8,1.687,1.687,0,0,1-1.84-1.567,1.764,1.764,0,0,1,1.676-1.8,1.688,1.688,0,0,1,1.842,1.568" transform="translate(4404.835 -9955.33)" fill="#263238"/>
        <path id="Trazado_911196" data-name="Trazado 911196" d="M253.307,74.348c-.216.233-1.565-.739-3.465-.71-1.9,0-3.278,1-3.488.768-.1-.1.115-.52.716-.971a4.856,4.856,0,0,1,2.788-.9,4.653,4.653,0,0,1,2.762.853c.59.441.793.854.686.958" transform="translate(4404.342 -9956.87)" fill="#263238"/>
        <path id="Trazado_911197" data-name="Trazado 911197" d="M238.919,89.932c.253-.191,1.413,1,3.287,1.3,1.869.33,3.4-.408,3.569-.145.083.118-.2.492-.875.829a4.853,4.853,0,0,1-2.9.4A4.649,4.649,0,0,1,239.428,91c-.5-.536-.632-.979-.509-1.064" transform="translate(4402.542 -9952.676)" fill="#263238"/>
        <path id="Trazado_911198" data-name="Trazado 911198" d="M243.18,89.689a12.607,12.607,0,0,1,3.077-.6c.484-.056.942-.159,1.019-.49a2.459,2.459,0,0,0-.341-1.432q-.708-1.752-1.482-3.674c-2.059-5.232-3.558-9.536-3.347-9.617s2.053,4.093,4.113,9.325q.743,1.935,1.421,3.7a2.8,2.8,0,0,1,.277,1.9,1.221,1.221,0,0,1-.788.719,3.271,3.271,0,0,1-.823.125,12.377,12.377,0,0,1-3.126.045" transform="translate(4403.317 -9956.547)" fill="#263238"/>
        <path id="Trazado_911199" data-name="Trazado 911199" d="M253,67.858c-.313.468-1.771.176-3.468.34-1.7.108-3.1.628-3.478.216-.169-.2.011-.657.593-1.131a5.4,5.4,0,0,1,5.6-.448c.647.376.891.8.756,1.023" transform="translate(4404.259 -9958.385)" fill="#263238"/>
        <path id="Trazado_911200" data-name="Trazado 911200" d="M235.645,81.143a1.766,1.766,0,0,0,1.79,1.693,1.689,1.689,0,0,0,1.737-1.681,1.765,1.765,0,0,0-1.788-1.693,1.689,1.689,0,0,0-1.739,1.681" transform="translate(4401.763 -9955.198)" fill="#263238"/>
        <path id="Trazado_911201" data-name="Trazado 911201" d="M231.97,76.032c.23.218,1.516-.837,3.412-.927,3.375.284,4.122,1,3.529.545.1-.108-.148-.511-.776-.922a4.848,4.848,0,0,0-2.839-.721,4.663,4.663,0,0,0-2.7,1.025c-.56.477-.737.9-.624,1" transform="translate(4400.869 -9956.518)" fill="#263238"/>
        <path id="Trazado_911202" data-name="Trazado 911202" d="M231.626,72.531c.395.412,1.836-.109,3.595-.218,1.755-.165,3.265.125,3.585-.343.139-.226-.118-.646-.79-1.022a5.428,5.428,0,0,0-2.959-.557,5.37,5.37,0,0,0-2.825,1.01c-.6.473-.781.927-.606,1.13" transform="translate(4400.778 -9957.392)" fill="#263238"/>
        <path id="Trazado_911203" data-name="Trazado 911203" d="M241.391,384.857c.345-.009,1.632,12.786,1.189,13.7s-4.633,3.44-4.262,5.041,20.326,23.916,22.991,24.912a14.327,14.327,0,0,0,5.509.756s-6.407-20.8-8.235-26.676-2.015-18.084-2.015-18.084Z" transform="translate(4402.402 -9881.581)" fill="#ae7461"/>
        <path id="Trazado_911204" data-name="Trazado 911204" d="M242.739,396.406c-.354.31-5.139,3.637-6.651,8.442s-1.077,26.11-1.077,26.11l2.11.3s.969-15.792,1.65-16.916,3.127-2.535,8.828,3.627,4.475,11.881,9.949,14.15,24.2,1.82,24.195.484-14.527-7.539-14.527-7.539a8.241,8.241,0,0,1-7.253-2.593c-3.425-3.458-17.224-26.067-17.224-26.067" transform="translate(4401.596 -9878.709)" fill="#263238"/>
        <path id="Trazado_911205" data-name="Trazado 911205" d="M224.787,391.987s-3.9,8.619-3.62,11.516.536,9.685-.219,13.611-2.624,7.431-.648,10.235,15.7-3.661,15.7-3.661,0-10.927-.15-15.9-.618-15.426.534-19.95l-12.113-1.45Z" transform="translate(4397.848 -9881.126)" fill="#ae7461"/>
        <path id="Trazado_911206" data-name="Trazado 911206" d="M219.97,416.907s-1.527,5.788-1.044,10.216,5.916,5.32,8.859,5.286c6.132-.072,9.509-2.562,10.262-3.321s-1.513-10.1-1.187-11.389-.85-13.707-.844-13.469.77,13.552-.539,14.34-12.521.559-15.508-1.663" transform="translate(4397.706 -9876.821)" fill="#263238"/>
        <path id="Trazado_911207" data-name="Trazado 911207" d="M221.535,418.738s-.521-5.431-.4-7.151.269-6.716.269-6.716-.389,6.555-.869,7.854a36.928,36.928,0,0,0-.974,4.989Z" transform="translate(4397.882 -9876.665)" fill="#263238"/>
        <path id="Trazado_911208" data-name="Trazado 911208" d="M216.436,212.769c.514,2.085-12.957,32.122-12.088,45.053s11.626,87.662,10.822,98.507-.32,34.642.3,47.749c.8,17.076.971,43.391.971,43.391l23.788.161s9.316-69.666,8.881-93.027,5.233-135.16,5.233-135.16,1.075-33.209,1.4-30.372-35.374,1.04-35.374,1.04Z" transform="translate(4394.2 -9928.787)" fill="#263238"/>
        <path id="Trazado_911209" data-name="Trazado 911209" d="M250.736,189.039,225.023,302.008l10.2,145.59h28.532s2.2-16.211,3.254-32.152c1.082-16.441,5.121-46.873,6.507-56.787,1.473-10.54,14.042-73.754,15.78-96.7s-8.775-71.27-8.946-72.922Z" transform="translate(4399.2 -9928.754)" fill="#263238"/>
        <path id="Trazado_911210" data-name="Trazado 911210" d="M214.079,435.752a2.4,2.4,0,0,0,.428.031l1.265.037,4.914.086,18.5.214.185,0,.02-.179c1.133-10.1,1.826-23.086,2.714-37.985.84-14.9,1.693-31.717,2.552-49.5,2.165-45.2,3.761-84.192,4.4-101.854l-.021.068c1.827-2.973,3.239-5.267,4.209-6.845.458-.76.809-1.347,1.065-1.769.236-.4.34-.612.34-.612s-.146.186-.4.572c-.267.413-.642.988-1.125,1.732l-4.322,6.774-.019.03,0,.038c-.835,17.776-2.663,56.681-4.785,101.834-.892,17.775-1.735,34.587-2.484,49.494-.844,14.892-1.478,27.9-2.53,37.959l.2-.176-18.5-.023c-2.123.009-3.767.017-4.914.022l-1.266.02a2.368,2.368,0,0,0-.428.026" transform="translate(4396.559 -9917.07)" fill="#455a64"/>
        <path id="Trazado_911211" data-name="Trazado 911211" d="M219.424,340.467a12.138,12.138,0,0,0,2.694-1.726A42.719,42.719,0,0,0,232.507,327.4a12.075,12.075,0,0,0,1.482-2.834,20.951,20.951,0,0,0-1.871,2.576,58.4,58.4,0,0,1-10.291,11.237,20.977,20.977,0,0,0-2.4,2.09" transform="translate(4397.848 -9896.048)" fill="#455a64"/>
        <path id="Trazado_911212" data-name="Trazado 911212" d="M249.714,331.1c.088.148,2-.889,3.928-2.741s3.049-3.713,2.906-3.807c-.156-.112-1.483,1.542-3.362,3.332s-3.578,3.056-3.472,3.216" transform="translate(4405.157 -9896.052)" fill="#455a64"/>
        <path id="Trazado_911213" data-name="Trazado 911213" d="M229.429,104.388l20,13.095,5.7-8.111,3.95,7.542s20.123,21.557,23.461,36.022-2.8,58.617-2.8,58.617c-14.671,9.66-51.612,0-51.612,0L224.57,110.741Z" transform="translate(4399.09 -9949.184)" fill="#f5f5f5"/>
        <path id="Trazado_911214" data-name="Trazado 911214" d="M232.947,107.926l-3.57,5.186-22.26,7.493,4.068,76.9-15.54,66.511s26.108,10.878,31.392,10.567,10.952-62.316,12.323-79.669c1.578-19.951-.259-54.857-1.192-64.181s-5.221-22.808-5.221-22.808" transform="translate(4392.109 -9948.329)" fill="#9d978d"/>
        <path id="Trazado_911215" data-name="Trazado 911215" d="M250.343,111.023c.932,1.554,4.86,3.674,4.86,3.674l11.239.366s16.934,50.707,14.759,78.678,5.593,69.929,4.661,76.768h-6.837s-9.635-56.877-8.7-76.146,3.107-23.31,0-36.674-19.981-46.667-19.981-46.667" transform="translate(4405.31 -9947.581)" fill="#9d978d"/>
        <path id="Trazado_911216" data-name="Trazado 911216" d="M257.174,116.406s10.046-1.287,13.6,1.888,6.857,6.732,6.857,6.732,22.859,7.215,24.384,5.132,33.757-26.039,33.757-26.039,14.684,23.667,13.83,23.685-36.679,23.978-41.879,25.966-33.758,8.809-33.758,8.809Z" transform="translate(4406.959 -9949.249)" fill="#9d978d"/>
        <path id="Trazado_911217" data-name="Trazado 911217" d="M267.385,135.018a14.556,14.556,0,0,1,1.594,2.906,73.906,73.906,0,0,1,5.206,15.093,14.617,14.617,0,0,1,.536,3.27,19.85,19.85,0,0,1-.979-3.158c-.554-1.959-1.352-4.655-2.362-7.59s-2.047-5.546-2.819-7.431a19.891,19.891,0,0,1-1.176-3.091" transform="translate(4409.42 -9941.792)" fill="#263238"/>
        <path id="Trazado_911218" data-name="Trazado 911218" d="M289.8,134.6c-.155-.107.855-1.775,1.817-3.959s1.533-4.047,1.717-4c.165.032-.123,2.02-1.126,4.265s-2.273,3.8-2.408,3.7" transform="translate(4414.83 -9943.813)" fill="#263238"/>
        <path id="Trazado_911219" data-name="Trazado 911219" d="M232.3,179.819a2.594,2.594,0,0,1-.235-.622c-.148-.485-.331-1.085-.554-1.816-.47-1.579-1.1-3.879-1.845-6.732-1.483-5.7-3.326-13.643-4.953-22.49s-2.72-16.929-3.359-22.788c-.322-2.93-.546-5.3-.667-6.948-.052-.762-.094-1.388-.129-1.894a2.522,2.522,0,0,1,0-.664,2.719,2.719,0,0,1,.13.652c.066.5.149,1.125.248,1.882.217,1.727.511,4.068.87,6.918.755,5.839,1.923,13.889,3.542,22.726s3.393,16.772,4.762,22.5c.677,2.793,1.233,5.086,1.644,6.778.175.744.319,1.353.436,1.847a2.633,2.633,0,0,1,.109.655" transform="translate(4398.117 -9946.414)" fill="#263238"/>
        <path id="Trazado_911220" data-name="Trazado 911220" d="M268.062,154.444a7.539,7.539,0,0,1-.408-1.54c-.252-1.125-.569-2.541-.946-4.224-.813-3.564-2.047-8.458-3.7-13.78s-3.421-10.054-4.772-13.449c-.645-1.6-1.188-2.947-1.619-4.016a7.53,7.53,0,0,1-.536-1.5,7.625,7.625,0,0,1,.766,1.4c.459.916,1.081,2.263,1.811,3.942a136.287,136.287,0,0,1,8.5,27.309c.353,1.8.6,3.259.746,4.274a7.628,7.628,0,0,1,.161,1.586" transform="translate(4406.694 -9946.396)" fill="#263238"/>
        <path id="Trazado_911221" data-name="Trazado 911221" d="M256.115,184.95a2.784,2.784,0,0,1-.109-.685c-.048-.523-.11-1.176-.185-1.972-.164-1.8-.386-4.258-.658-7.252-.588-6.119-1.573-14.555-3.087-23.809s-3.29-17.564-4.689-23.549c-.7-2.923-1.274-5.32-1.7-7.081l-.454-1.928a2.75,2.75,0,0,1-.115-.684,2.8,2.8,0,0,1,.242.649l.571,1.9c.489,1.65,1.141,4.054,1.9,7.037,1.514,5.966,3.355,14.279,4.882,23.553s2.432,17.736,2.9,23.873c.237,3.069.389,5.555.453,7.275.026.8.047,1.456.065,1.981a2.818,2.818,0,0,1-.021.693" transform="translate(4404.048 -9945.899)" fill="#263238"/>
        <path id="Trazado_911222" data-name="Trazado 911222" d="M334.413,172.413c-3.664-2.386-4.527-10.138-3.406-14.363s3.969-7.73,6.507-11.29c5.766-8.085,15.667-15.844,21.307-23.328l-36.493-9.7c-4.682,7.479-10.914,13.836-16.63,20.558s-11.055,14.066-13.43,22.564a19.087,19.087,0,0,0-.8,7.247,9.789,9.789,0,0,0,3.188,6.414Z" transform="translate(4415.213 -9946.929)" fill="#fff"/>
        <path id="Trazado_911223" data-name="Trazado 911223" d="M334.518,172.31c-3.47-2.423-4.054-7.989-3.72-11.865.456-5.3,4.008-9.625,7.017-13.771,6.168-8.5,14.814-14.8,21.167-23.133a.156.156,0,0,0-.093-.228l-31.921-8.486L322.4,113.61a.161.161,0,0,0-.175.072c-6.256,9.9-15.06,17.778-21.917,27.219a52.44,52.44,0,0,0-7.7,14.423c-1.471,4.523-2.364,10.047.792,14.1,1.141,1.465,1.531,1.288,3.182,1.367l6.586.315,18.8.9,12.472.6c.2.01.2-.3,0-.31l-27.864-1.333-7.582-.362a18.936,18.936,0,0,1-4.063-.194c-1.3-.385-2.223-2.5-2.671-3.689-1.117-2.962-.739-6.248.038-9.242a47.578,47.578,0,0,1,7.2-14.892c6.359-9.219,14.764-16.8,21.167-25.984q.551-.79,1.08-1.6a7.985,7.985,0,0,1,.59-1.082c.081-.024.21.083.294.078a6.213,6.213,0,0,1,1.614.43q3.18.843,6.359,1.691l17.526,4.659,7.277,1.935,2.3.612c.151.041.963.139,1.046.279a14.275,14.275,0,0,0-1.612,1.75c-.842,1-1.717,1.976-2.608,2.932-1.835,1.966-3.743,3.862-5.648,5.759a117.514,117.514,0,0,0-10.464,11.307c-2.979,3.866-6.481,8.147-7.616,13a18.132,18.132,0,0,0,.878,10.682,7.876,7.876,0,0,0,2.678,3.55c.164.114.319-.155.156-.268" transform="translate(4415.186 -9946.958)" fill="#263238"/>
        <path id="Trazado_911224" data-name="Trazado 911224" d="M321.829,105.984s6.978-6.215,10.248-3.816,3.489,3.271,3.489,3.271,2.835-1.418,4.253,1.308,1.962,3.816,1.962,3.816a5.357,5.357,0,0,1,3.5,3.489c.755,2.725,0,3.488,0,3.488s3.59.763,3.7,2.835-4.471,9.377-5.67,9.268-2.18-.654-1.635-2.072a42.943,42.943,0,0,1,2.4-4.47l-1.418-.873s-4.579,4.689-6.868,4.8a2.707,2.707,0,0,1-2.835-1.853s-2.508,2.072-4.689,1.308-1.635-1.963-1.635-1.963-2.29.871-2.944-.437.978-4.948.978-4.948-2.711-.716-5.114-1.421c-.69-.2,2.283-11.729,2.283-11.729" transform="translate(4421.986 -9949.852)" fill="#ae7461"/>
        <path id="Trazado_911225" data-name="Trazado 911225" d="M326.7,108.283c.171.051-.427,2.58-1.337,5.649s-1.786,5.516-1.958,5.466.428-2.579,1.338-5.649,1.785-5.516,1.956-5.466" transform="translate(4422.937 -9948.244)" fill="#6f4439"/>
        <path id="Trazado_911226" data-name="Trazado 911226" d="M333.919,109.22a7.1,7.1,0,0,1-.65,2.285,28.409,28.409,0,0,1-6.217,9.568,7.131,7.131,0,0,1-1.824,1.524c-.14-.144,2.483-2.633,4.875-6.346,2.419-3.693,3.627-7.1,3.816-7.032" transform="translate(4423.381 -9948.018)" fill="#6f4439"/>
        <path id="Trazado_911227" data-name="Trazado 911227" d="M337.579,113.263a3.5,3.5,0,0,1-.308,1.876,11.217,11.217,0,0,1-2.438,3.879,20.7,20.7,0,0,1-3.494,2.918,5.294,5.294,0,0,1-1.642.924c-.053-.073.482-.554,1.367-1.288a35.786,35.786,0,0,0,3.3-2.994,13.917,13.917,0,0,0,2.486-3.61,13.908,13.908,0,0,1,.732-1.7" transform="translate(4424.46 -9947.041)" fill="#6f4439"/>
        <path id="Trazado_911228" data-name="Trazado 911228" d="M341.51,113.888c.164.012-.11,2.1-1.6,4.14-1.475,2.054-3.373,2.966-3.435,2.814-.107-.164,1.531-1.261,2.911-3.193,1.405-1.913,1.939-3.812,2.126-3.761" transform="translate(4426.095 -9946.89)" fill="#6f4439"/>
        <path id="Trazado_911229" data-name="Trazado 911229" d="M325.867,155.709c-.009.179-6.688.014-14.918-.366s-14.9-.834-14.888-1.012,6.686-.015,14.92.366,14.9.833,14.887,1.012" transform="translate(4416.343 -9937.146)" fill="#263238"/>
        <path id="Trazado_911230" data-name="Trazado 911230" d="M324.5,151.331c-.014.178-6.091-.143-13.573-.716s-13.538-1.182-13.524-1.361,6.09.142,13.574.716,13.537,1.183,13.523,1.361" transform="translate(4416.667 -9938.367)" fill="#263238"/>
        <path id="Trazado_911231" data-name="Trazado 911231" d="M297.521,156.484a5.275,5.275,0,0,1-.132-.9,12.77,12.77,0,0,1,.063-2.63,23.6,23.6,0,0,1,3.447-9.1,128.177,128.177,0,0,1,20.971-25.579l.133-.125.176.053,10.81,3.247,15.93,4.811.551.166-.442.367a149.411,149.411,0,0,0-12.181,10.986,58.953,58.953,0,0,0-7.979,10.144,41.925,41.925,0,0,0-3.688,7.633c-.335.932-.57,1.661-.715,2.156a4.408,4.408,0,0,1-.254.746,4.461,4.461,0,0,1,.151-.773c.112-.506.314-1.249.621-2.2a39,39,0,0,1,3.553-7.766,57.6,57.6,0,0,1,7.93-10.311,144.516,144.516,0,0,1,12.166-11.1l.109.534L332.8,122.065,322,118.805l.309-.073a133.148,133.148,0,0,0-21.052,25.329,24.175,24.175,0,0,0-3.58,8.92,19.978,19.978,0,0,0-.153,3.5" transform="translate(4416.655 -9945.863)" fill="#263238"/>
        <path id="Trazado_911232" data-name="Trazado 911232" d="M325.731,120.243a8.677,8.677,0,0,1-1.018,1.42c-.693.885-1.739,2.131-3.07,3.636-2.637,3.028-6.541,6.976-10.343,11.741a44.763,44.763,0,0,0-7.642,13.476,47.385,47.385,0,0,0-1.449,6.29,7.472,7.472,0,0,1,.058-1.749,24.887,24.887,0,0,1,.955-4.679,42.05,42.05,0,0,1,7.571-13.739c3.838-4.808,7.8-8.705,10.512-11.647,1.293-1.4,2.372-2.575,3.215-3.491a9.634,9.634,0,0,1,1.21-1.257" transform="translate(4417.821 -9945.356)" fill="#263238"/>
        <path id="Trazado_911233" data-name="Trazado 911233" d="M317.352,147.383c-.027.176-2.071.014-4.566-.364s-4.5-.825-4.47-1,2.071-.014,4.567.364,4.495.827,4.469,1" transform="translate(4419.301 -9939.154)" fill="#263238"/>
        <path id="Trazado_911234" data-name="Trazado 911234" d="M319.123,144.143c-.026.176-2.07.014-4.566-.364s-4.5-.826-4.47-1,2.07-.014,4.567.364,4.5.827,4.469,1" transform="translate(4419.729 -9939.936)" fill="#263238"/>
        <path id="Trazado_911235" data-name="Trazado 911235" d="M320.894,140.9c-.026.176-2.07.014-4.566-.364s-4.5-.827-4.47-1,2.07-.014,4.567.364,4.5.827,4.469,1" transform="translate(4420.155 -9940.718)" fill="#263238"/>
        <path id="Trazado_911236" data-name="Trazado 911236" d="M324.624,137.663c-.025.176-2.069.014-4.566-.364s-4.495-.825-4.469-1,2.07-.014,4.566.364,4.5.827,4.469,1" transform="translate(4421.057 -9941.499)" fill="#263238"/>
        <path id="Trazado_911237" data-name="Trazado 911237" d="M327.341,134.652c-.027.176-2.071.014-4.566-.364s-4.5-.825-4.47-1,2.07-.014,4.567.364,4.495.827,4.469,1" transform="translate(4421.711 -9942.227)" fill="#263238"/>
        <path id="Trazado_911238" data-name="Trazado 911238" d="M330.057,131.641c-.027.176-2.07.014-4.566-.364s-4.5-.827-4.47-1,2.07-.014,4.567.364,4.495.827,4.469,1" transform="translate(4422.367 -9942.953)" fill="#263238"/>
        <path id="Trazado_911239" data-name="Trazado 911239" d="M332.773,128.63c-.027.176-2.072.014-4.566-.364s-4.5-.827-4.47-1,2.071-.014,4.567.364,4.495.827,4.469,1" transform="translate(4423.022 -9943.68)" fill="#263238"/>
        <path id="Trazado_911240" data-name="Trazado 911240" d="M251.439,179.748c.35,4.482,4.907,7.28,9.012,9.115a136.742,136.742,0,0,0,30.671,9.573l15.5-40.207c-14.994,10.363-36.963,20.915-55.181,21.518" transform="translate(4405.574 -9936.189)" fill="#e0e0e0"/>
        <path id="Trazado_911241" data-name="Trazado 911241" d="M252.171,177.022c.349,4.482,4.907,7.28,9.012,9.116a136.809,136.809,0,0,0,30.67,9.572l14.592-37.482c-15,10.364-36.057,18.191-54.274,18.794" transform="translate(4405.751 -9936.19)" fill="#e0e0e0"/>
        <path id="Trazado_911242" data-name="Trazado 911242" d="M296.131,163.481a10.264,10.264,0,0,1-1.475,1.143c-.968.711-2.423,1.666-4.263,2.777a80.344,80.344,0,0,1-31.578,10.782c-2.135.25-3.869.384-5.07.412a10.38,10.38,0,0,1-1.866,0,10.124,10.124,0,0,1,1.847-.25c1.192-.107,2.913-.309,5.027-.614A89.441,89.441,0,0,0,290.164,167c1.86-1.053,3.344-1.944,4.352-2.589a10.333,10.333,0,0,1,1.615-.935" transform="translate(4405.681 -9934.922)" fill="#263238"/>
        <path id="Trazado_911243" data-name="Trazado 911243" d="M284.629,170.478a4.657,4.657,0,0,1-.991.751c-.658.453-1.641,1.063-2.88,1.771a66.3,66.3,0,0,1-20.911,7.562c-1.408.247-2.552.407-3.348.479a4.679,4.679,0,0,1-1.241.057c-.014-.1,1.725-.38,4.5-.986A82.432,82.432,0,0,0,280.54,172.6c2.519-1.31,4.034-2.208,4.089-2.121" transform="translate(4406.496 -9933.235)" fill="#263238"/>
        <path id="Trazado_911244" data-name="Trazado 911244" d="M251.326,198.8l55.522-40.5a2.012,2.012,0,0,1,1.261-.384l39.112,1.534A2.007,2.007,0,0,1,348.3,163.1l-55.313,38.964a2.01,2.01,0,0,1-1.157.366h-39.32a2.007,2.007,0,0,1-1.183-3.628" transform="translate(4405.347 -9936.264)" fill="#263238"/>
        <path id="Trazado_911245" data-name="Trazado 911245" d="M244.574,181.8s5.762-3.8,10.718-3.342,16.6,2.922,16.6,2.922l-5.4,3.94s5.056,1.55,4.711,3.164-3.112,2.881-3.112,2.881,1.614,2.074.345,3.573-1.959,1.5-1.959,1.5.115,1.614-2.65,2.65c0,0,.23,2.421-4.034,3.227s-14.29-.691-18.209-1.383l-5.416-.576v-15.63s2.632,1.122,3.926,0c.927-.8,4.486-2.926,4.486-2.926" transform="translate(4401.887 -9931.316)" fill="#ae7461"/>
        <path id="Trazado_911246" data-name="Trazado 911246" d="M262.276,184.517c-.052.17-1.773-.207-3.843-.843s-3.705-1.29-3.653-1.461,1.773.207,3.843.843,3.705,1.291,3.653,1.461" transform="translate(4406.38 -9930.41)" fill="#6f4439"/>
        <path id="Trazado_911247" data-name="Trazado 911247" d="M253.275,188.826c.025-.186,2.439.022,5.411-.009s5.384-.264,5.411-.078c.031.166-2.376.706-5.406.725s-5.443-.47-5.416-.638" transform="translate(4406.017 -9928.842)" fill="#6f4439"/>
        <path id="Trazado_911248" data-name="Trazado 911248" d="M252.632,192.185c.073-.18,2.179.628,4.9.9,2.723.3,4.95-.065,4.986.128.048.155-2.21.819-5.051.515-2.845-.284-4.918-1.4-4.839-1.539" transform="translate(4405.862 -9928.002)" fill="#6f4439"/>
        <path id="Trazado_911249" data-name="Trazado 911249" d="M250.3,196.176c.016-.187,2.192-.122,4.851-.349s4.8-.639,4.844-.457c.047.161-2.064.88-4.79,1.1s-4.924-.128-4.9-.3" transform="translate(4405.3 -9927.237)" fill="#6f4439"/>
        <path id="Trazado_911250" data-name="Trazado 911250" d="M211.837,117.136c-1.015.508-11.141.128-13.473,19.647-2.206,18.452-8.822,69.674-4,73.439s57.589,12.912,57.589,12.912l2.55-26.233-35.3-8.167s2.6-49.5.571-55.092-7.935-16.506-7.935-16.506" transform="translate(4391.386 -9946.105)" fill="#9d978d"/>
        <path id="Trazado_911251" data-name="Trazado 911251" d="M217.5,139.789c-.108.017-.334-1.317-.955-3.393a32.816,32.816,0,0,0-8.688-14.274c-1.559-1.5-2.64-2.319-2.576-2.407.026-.036.32.134.832.474a19.58,19.58,0,0,1,2.053,1.6,28.546,28.546,0,0,1,8.82,14.489,19.61,19.61,0,0,1,.475,2.558,2.725,2.725,0,0,1,.038.956" transform="translate(4394.435 -9945.486)" fill="#263238"/>
        <path id="Trazado_911252" data-name="Trazado 911252" d="M206.661,207.993a4.949,4.949,0,0,1,.8.107l2.305.4,8.653,1.608,30.21,5.8-.354.264c.776-8.071,1.63-16.937,2.525-26.236l.251.346-.231-.052-34.982-7.92-.227-.052.011-.23c.464-10.008.85-18.346,1.123-24.233.153-2.882.273-5.164.358-6.774.048-.747.087-1.337.117-1.783a3.162,3.162,0,0,1,.068-.609,3.3,3.3,0,0,1,.017.613c-.009.446-.019,1.038-.032,1.786-.05,1.611-.119,3.9-.206,6.78-.217,5.89-.524,14.231-.893,24.243l-.216-.282,35,7.829.23.052.279.062-.029.284c-.912,9.3-1.783,18.161-2.575,26.231l-.032.329-.322-.065-30.167-6.027-8.62-1.775-2.287-.5a4.986,4.986,0,0,1-.782-.2" transform="translate(4394.769 -9938.507)" fill="#263238"/>
        <path id="Trazado_911253" data-name="Trazado 911253" d="M310.087,160.608l.693-1.58a28,28,0,0,1,3.1-2.38c.456-.217,10.8.53,10.93.881s-3.416,3.175-4.069,3.075-10.651,0-10.651,0" transform="translate(4419.729 -9936.581)" fill="#263238"/>
      </g>
      <g id="Grupo_1118329" data-name="Grupo 1118329" transform="translate(-4543 11313.175)">
        <path id="Trazado_911254" data-name="Trazado 911254" d="M441.581,321.916c-26.88,14.2-58.266,7.556-70.1-14.845S371.84,255,398.72,240.8s58.266-7.558,70.1,14.843-.36,52.074-27.242,66.276" transform="translate(4501.343 -10077.996)" fill="#ff725e"/>
        <g id="Grupo_1118324" data-name="Grupo 1118324" transform="translate(4868.299 -9844.672)" opacity="0.998">
          <g id="Grupo_1118268" data-name="Grupo 1118268">
            <g id="Grupo_1118267" data-name="Grupo 1118267" clip-path="url(#clip-path-6)">
              <path id="Trazado_911071" data-name="Trazado 911071" d="M441.581,321.916c-26.88,14.2-58.266,7.556-70.1-14.845S371.84,255,398.72,240.8s58.266-7.558,70.1,14.843-.36,52.074-27.242,66.276" transform="translate(-366.956 -233.324)" fill="#fed6a8"/>
            </g>
          </g>
        </g>
        <path id="Trazado_911255" data-name="Trazado 911255" d="M439.343,317.68c-26.88,14.2-58.266,7.556-70.1-14.845s.362-52.072,27.242-66.275,58.266-7.558,70.1,14.843-.36,52.074-27.242,66.276" transform="translate(4499.428 -10081.619)" fill="#fd9826"/>
        <g id="Grupo_1118325" data-name="Grupo 1118325" transform="translate(4870.953 -9852.531)" opacity="0.1">
          <g id="Grupo_1118271" data-name="Grupo 1118271">
            <g id="Grupo_1118270" data-name="Grupo 1118270" clip-path="url(#clip-path-7)">
              <path id="Trazado_911073" data-name="Trazado 911073" d="M467.943,271.154a39.484,39.484,0,0,0-4.5-19.749c-11.835-22.4-43.219-29.048-70.1-14.845a62.28,62.28,0,0,0-24.962,23.616,95.106,95.106,0,0,0,33.224,22.276c12.434,4.919,25.4,6.233,38.172,1.709,8.816-3.123,20.4-6.467,28.162-13.008" transform="translate(-368.387 -229.088)" fill="#fd9826"/>
            </g>
          </g>
        </g>
        <path id="Trazado_911256" data-name="Trazado 911256" d="M428.645,301.758c-20.66,10.915-44.648,6.06-53.581-10.848s.573-39.461,21.232-50.378,44.648-6.058,53.58,10.85-.572,39.459-21.232,50.376" transform="translate(4505.408 -10076.813)" fill="#ff725e"/>
        <g id="Grupo_1118326" data-name="Grupo 1118326" transform="translate(4877.113 -9842.113)" opacity="0.2">
          <g id="Grupo_1118274" data-name="Grupo 1118274">
            <g id="Grupo_1118273" data-name="Grupo 1118273" clip-path="url(#clip-path-8)">
              <path id="Trazado_911075" data-name="Trazado 911075" d="M428.645,301.758c-20.66,10.915-44.648,6.06-53.581-10.848s.573-39.461,21.232-50.378,44.648-6.058,53.58,10.85-.572,39.459-21.232,50.376" transform="translate(-371.705 -234.703)"/>
            </g>
          </g>
        </g>
        <path id="Trazado_911257" data-name="Trazado 911257" d="M427.87,301.877c-20.161,10.653-43.517,6.012-52.17-10.363s.679-38.283,20.84-48.936,43.516-6.012,52.168,10.362-.677,38.287-20.839,48.938" transform="translate(4506.062 -10074.976)" fill="#ff725e"/>
        <g id="Grupo_1118327" data-name="Grupo 1118327" transform="translate(4878.533 -9838.124)">
          <g id="Grupo_1118277" data-name="Grupo 1118277">
            <g id="Grupo_1118276" data-name="Grupo 1118276" clip-path="url(#clip-path-9)">
              <path id="Trazado_911077" data-name="Trazado 911077" d="M427.87,301.877c-20.161,10.653-43.517,6.012-52.17-10.363s.679-38.283,20.84-48.936,43.516-6.012,52.168,10.362-.677,38.287-20.839,48.938" transform="translate(-372.471 -236.853)" fill="#fed401"/>
            </g>
          </g>
        </g>
        <path id="Trazado_911258" data-name="Trazado 911258" d="M408.891,262.881l9.681-5.116.02.037a15.009,15.009,0,0,1,.82,4.8,14.69,14.69,0,0,1-.509,2.72l.354-.057,4.112-.653.946-.15,1.087-2.329-.722-.464a13.881,13.881,0,0,0-.922-6.643l5.325-2.813.64-2.024-1.336.707-.956-1.809-5.42,2.865c-3.861-5.569-9.621-6.135-14.514-3.548-6.667,3.522-6,8.972-5.057,13.887l-9.593,5.068a14.776,14.776,0,0,1-.382-9.551l-5.752.844c-1.11,3.123-.731,7.556.954,11.445l-4.019,2.123-.818-1.471-.486,2.162L384,276.033l5.372-2.839c3.93,5.582,9.662,6.211,14.555,3.626,6.667-3.524,5.908-9.024,4.967-13.939m-.644-3.659c-.352-2.642-.163-4.839,2.138-6.055,2.112-1.115,4.442-.883,6.4,1.544Zm10.334-1.46ZM394.6,270.433l8.489-4.485c.393,2.717.176,4.979-2.173,6.22-2.063,1.089-4.318.768-6.316-1.735" transform="translate(4514.51 -10066.363)" fill="#ff725e"/>
        <g id="Grupo_1118328" data-name="Grupo 1118328" transform="translate(4896.854 -9819.444)" opacity="0.3">
          <g id="Grupo_1118280" data-name="Grupo 1118280">
            <g id="Grupo_1118279" data-name="Grupo 1118279" clip-path="url(#clip-path-10)">
              <path id="Trazado_911079" data-name="Trazado 911079" d="M408.891,262.881l9.681-5.116.02.037a15.009,15.009,0,0,1,.82,4.8,14.69,14.69,0,0,1-.509,2.72l.354-.057,4.112-.653.946-.15,1.087-2.329-.722-.464a13.881,13.881,0,0,0-.922-6.643l5.325-2.813.64-2.024-1.336.707-.956-1.809-5.42,2.865c-3.861-5.569-9.621-6.135-14.514-3.548-6.667,3.522-6,8.972-5.057,13.887l-9.593,5.068a14.776,14.776,0,0,1-.382-9.551l-5.752.844c-1.11,3.123-.731,7.556.954,11.445l-4.019,2.123-.818-1.471-.486,2.162L384,276.033l5.372-2.839c3.93,5.582,9.662,6.211,14.555,3.626,6.667-3.524,5.908-9.024,4.967-13.939m-.644-3.659c-.352-2.642-.163-4.839,2.138-6.055,2.112-1.115,4.442-.883,6.4,1.544Zm10.334-1.46ZM394.6,270.433l8.489-4.485c.393,2.717.176,4.979-2.173,6.22-2.063,1.089-4.318.768-6.316-1.735" transform="translate(-382.345 -246.919)"/>
            </g>
          </g>
        </g>
        <path id="Trazado_911259" data-name="Trazado 911259" d="M389.71,272.122l-5.374,2.839-1.651-3.125,5.326-2.815c-1.687-3.889-2.065-8.32-.954-11.443l5.752-.846a14.745,14.745,0,0,0,.384,9.553l9.592-5.068c-.941-4.917-1.612-10.367,5.057-13.891,4.893-2.585,10.653-2.019,14.515,3.55l5.42-2.863,1.651,3.125-5.326,2.813a15.857,15.857,0,0,1,1.163,9.287l-5.669.995a15.47,15.47,0,0,0-.675-7.545l-9.688,5.12c.941,4.915,1.7,10.417-4.968,13.941-4.893,2.585-10.627,1.954-14.555-3.626m18.879-13.973,8.538-4.513c-1.958-2.427-4.29-2.659-6.4-1.544-2.3,1.215-2.492,3.412-2.14,6.057m-7.333,12.945c2.349-1.243,2.566-3.5,2.173-6.22l-8.489,4.485c2,2.505,4.253,2.826,6.317,1.735" transform="translate(4514.802 -10067.283)" fill="#ff725e"/>
        <path id="Trazado_911260" data-name="Trazado 911260" d="M450.062,254.914a4.286,4.286,0,0,1-.148.991,25.012,25.012,0,0,1-.657,2.8,41.242,41.242,0,0,1-4.149,9.716,48.474,48.474,0,0,1-9.983,12.08,50.962,50.962,0,0,1-7.549,5.42,48.83,48.83,0,0,1-9.116,4.056,52.129,52.129,0,0,1-18.99,2.7,29.336,29.336,0,0,1-22.581-11.954c-.727-1.017-1.217-1.856-1.574-2.407a4.337,4.337,0,0,1-.488-.874,4.337,4.337,0,0,1,.638.776c.4.518.935,1.321,1.7,2.294a32.107,32.107,0,0,0,7.743,6.931,30.355,30.355,0,0,0,14.615,4.42,52.347,52.347,0,0,0,18.671-2.728,48.835,48.835,0,0,0,8.951-3.964,51.214,51.214,0,0,0,7.447-5.285,49.263,49.263,0,0,0,9.979-11.783,44.727,44.727,0,0,0,4.361-9.5c.755-2.357,1.047-3.707,1.134-3.687" transform="translate(4508.076 -10059.522)" fill="#263238"/>
        <path id="Trazado_911261" data-name="Trazado 911261" d="M379.1,240.014a6.012,6.012,0,0,1,1.292-1.026,40.834,40.834,0,0,1,3.813-2.368,58.144,58.144,0,0,1,28.463-7.257,41.046,41.046,0,0,1,4.481.252,5.857,5.857,0,0,1,1.626.284c-.013.15-2.346-.024-6.1.091a66.471,66.471,0,0,0-28.177,7.183c-3.351,1.7-5.314,2.967-5.4,2.841" transform="translate(4511.731 -10081.389)" fill="#fff"/>
        <path id="Trazado_911262" data-name="Trazado 911262" d="M372.367,245.026c-.184-.161,1.067-1.88,2.793-3.836s3.271-3.411,3.455-3.249-1.065,1.878-2.793,3.836-3.271,3.411-3.455,3.249" transform="translate(4505.958 -10074.055)" fill="#fff"/>
        <path id="Trazado_911263" data-name="Trazado 911263" d="M425.852,261.193c-.163.041-.616-1.963-1.98-4.934a32.87,32.87,0,0,0-2.852-4.96,33.027,33.027,0,0,0-10.191-9.464,32.885,32.885,0,0,0-5.157-2.479c-3.063-1.141-5.1-1.445-5.068-1.611a4.528,4.528,0,0,1,1.442.1,21.655,21.655,0,0,1,3.832.915,29.035,29.035,0,0,1,5.361,2.366,31.018,31.018,0,0,1,10.453,9.707,28.989,28.989,0,0,1,2.754,5.172,21.473,21.473,0,0,1,1.2,3.754,4.577,4.577,0,0,1,.212,1.431" transform="translate(4530.131 -10074.236)" fill="#fff"/>
        <path id="Trazado_911264" data-name="Trazado 911264" d="M397.006,248.785c-.087-.065.085-.51.629-1.034a5.129,5.129,0,0,1,5.507-.867c.677.332.98.7.917.791-.132.215-1.661-.644-3.661-.3-2.01.282-3.2,1.57-3.392,1.4" transform="translate(4527.035 -10066.771)" fill="#fff"/>
        <path id="Trazado_911265" data-name="Trazado 911265" d="M385.959,254.214c-.113.022-.264-.1-.3-.38a1.205,1.205,0,0,1,1.373-1.236c.273.063.382.226.347.338-.1.228-.44.332-.729.618-.314.258-.453.585-.692.661" transform="translate(4517.341 -10061.521)" fill="#fff"/>
      </g>
      <g id="Grupo_1118330" data-name="Grupo 1118330">
        <path id="Trazado_911266" data-name="Trazado 911266" d="M276.143,85.078l7.7-.044a24.584,24.584,0,1,0-4.12-7.782l-.009-.012Z" transform="translate(290.837 1156.3)" fill="#fff"/>
        <path id="Trazado_911267" data-name="Trazado 911267" d="M276.143,85.086s.089-.178.248-.517.4-.847.7-1.5l2.688-5.788-.134.009.007.012a.076.076,0,0,0,.105.024.079.079,0,0,0,.032-.088,24.535,24.535,0,0,1-.658-12.071,24.093,24.093,0,0,1,1.018-3.644,27.619,27.619,0,0,1,1.719-3.663,24.37,24.37,0,0,1,45.577,11.5A24.823,24.823,0,0,1,325.1,80.326a24.031,24.031,0,0,1-6.508,8.32,24.467,24.467,0,0,1-17.486,5.5l-1.043-.1a6.586,6.586,0,0,1-1.018-.146l-1.971-.4a33.813,33.813,0,0,1-3.606-1.222A24.46,24.46,0,0,1,283.9,85a.073.073,0,0,0-.058-.028l-5.7.078-1.482.024c-.334.005-.513.014-.513.014s.157.006.482.009l1.462.007,5.753.014-.058-.028a24.442,24.442,0,0,0,9.592,7.4,33.814,33.814,0,0,0,3.636,1.249l1.988.409a6.6,6.6,0,0,0,1.029.151l1.052.108a24.688,24.688,0,0,0,17.707-5.519,24.281,24.281,0,0,0,6.608-8.42,25.126,25.126,0,0,0,2.4-11.116,24.542,24.542,0,0,0-3.1-11.494,10.968,10.968,0,0,0-.77-1.281l-.816-1.246-.924-1.16a10.356,10.356,0,0,0-.965-1.115L320.193,52c-.331-.36-.733-.642-1.095-.966-.376-.308-.729-.641-1.12-.924l-1.191-.82a24.327,24.327,0,0,0-10.429-3.929A24.629,24.629,0,0,0,281.64,57.73a27.662,27.662,0,0,0-1.722,3.707,24.1,24.1,0,0,0-1.012,3.685,24.534,24.534,0,0,0,.739,12.162l.137-.064-.008-.012a.076.076,0,0,0-.1-.024.082.082,0,0,0-.03.034L277.017,83.1l-.661,1.494c-.147.333-.213.5-.213.5" transform="translate(290.837 1156.292)" fill="#263238"/>
        <path id="Trazado_911268" data-name="Trazado 911268" d="M291.776,64.766c0-3.08,1.879-5.037,4.541-5.037s4.514,1.931,4.514,5.037-1.853,5.037-4.514,5.037-4.541-1.957-4.541-5.037m6.446,0c0-1.957-.757-2.9-1.905-2.9-1.122,0-1.905.966-1.905,2.9s.783,2.9,1.905,2.9c1.148,0,1.905-.939,1.905-2.9m8.976-4.828H310.3L297.83,78.206h-3.105Zm-3,13.44c0-3.08,1.88-5.037,4.515-5.037,2.661,0,4.541,1.957,4.541,5.037s-1.88,5.037-4.541,5.037c-2.636,0-4.515-1.957-4.515-5.037m6.421,0c0-1.931-.757-2.9-1.905-2.9-1.122,0-1.905.94-1.905,2.9s.783,2.9,1.905,2.9c1.148,0,1.905-.967,1.905-2.9" transform="translate(291.852 1157.238)" fill="#263238"/>
      </g>
    </g>
  </g>
</svg>
