<svg xmlns="http://www.w3.org/2000/svg" xmlns:xlink="http://www.w3.org/1999/xlink" width="113" height="113" viewBox="0 0 113 113">
  <defs>
    <filter id="Trazado_896985" x="0" y="0" width="113" height="113" filterUnits="userSpaceOnUse">
      <feOffset dy="3" input="SourceAlpha"/>
      <feGaussianBlur stdDeviation="3" result="blur"/>
      <feFlood flood-opacity="0.161"/>
      <feComposite operator="in" in2="blur"/>
      <feComposite in="SourceGraphic"/>
    </filter>
  </defs>
  <g id="Grupo_1117715" data-name="Grupo 1117715" transform="translate(-1163.5 -7561.611)">
    <g id="Grupo_1117705" data-name="Grupo 1117705" transform="translate(410)">
      <g id="Grupo_1117698" data-name="Grupo 1117698" transform="translate(428.628 5250)">
        <g id="Grupo_1111349" data-name="Grupo 1111349" transform="translate(-1.019 -1534.389)">
          <g id="Grupo_1111318" data-name="Grupo 1111318" transform="translate(-5.891)">
            <g id="Grupo_1109826" data-name="Grupo 1109826" transform="translate(340.781 3852)">
              <g id="Grupo_1098742" data-name="Grupo 1098742">
                <g transform="matrix(1, 0, 0, 1, -9, -6)" filter="url(#Trazado_896985)">
                  <g id="Trazado_896985-2" data-name="Trazado 896985" transform="translate(9 6)" fill="#fd9826" opacity="0.859">
                    <path d="M 47.49993515014648 93.5 C 41.28932189941406 93.5 35.26528167724609 92.28397369384766 29.59514808654785 89.88571929931641 C 24.1176815032959 87.56894683837891 19.1981086730957 84.25197601318359 14.97306823730469 80.02693176269531 C 10.74802875518799 75.80189514160156 7.431055068969727 70.88231658935547 5.11428165435791 65.40485382080078 C 2.716028451919556 59.73471832275391 1.500001788139343 53.71067810058594 1.500001788139343 47.50006484985352 C 1.500001788139343 41.28932189941406 2.716028451919556 35.26528167724609 5.11428165435791 29.59514617919922 C 7.431055068969727 24.11767959594727 10.74802875518799 19.19810676574707 14.97306823730469 14.97306632995605 C 19.1981086730957 10.74802684783936 24.1176815032959 7.431053161621094 29.59514808654785 5.114280223846436 C 35.26528167724609 2.716026782989502 41.28932189941406 1.5 47.49993515014648 1.5 C 53.71054840087891 1.5 59.73458862304688 2.716026782989502 65.40472412109375 5.114280223846436 C 70.88218688964844 7.431053161621094 75.80176544189453 10.74802684783936 80.02680206298828 14.97306632995605 C 84.25183868408203 19.19810676574707 87.56881713867188 24.11767959594727 89.88558959960938 29.59514617919922 C 92.28384399414062 35.26528167724609 93.49987030029297 41.28932189941406 93.49987030029297 47.49993515014648 C 93.49987030029297 53.71067810058594 92.28384399414062 59.73471832275391 89.88558959960938 65.40485382080078 C 87.56881713867188 70.88231658935547 84.25183868408203 75.80189514160156 80.02680206298828 80.02693176269531 C 75.80176544189453 84.25197601318359 70.88218688964844 87.56894683837891 65.40472412109375 89.88571929931641 C 59.73458862304688 92.28397369384766 53.71054840087891 93.5 47.49993515014648 93.5 Z" stroke="none"/>
                    <path d="M 47.49993515014648 3 C 41.49116516113281 3 35.66371917724609 4.176155090332031 30.17947387695312 6.495796203613281 C 24.88081359863281 8.7369384765625 20.12149047851562 11.94596862792969 16.03372192382812 16.03372192382812 C 11.94596862792969 20.12149047851562 8.7369384765625 24.88081359863281 6.495796203613281 30.17947387695312 C 4.1761474609375 35.66372299194336 3 41.49116897583008 3 47.50006103515625 C 3 53.50883102416992 4.1761474609375 59.33627700805664 6.495796203613281 64.82052612304688 C 8.7369384765625 70.11918640136719 11.94596862792969 74.87850952148438 16.03372192382812 78.96627807617188 C 20.12149047851562 83.05403137207031 24.88081359863281 86.2630615234375 30.17947387695312 88.50419616699219 C 35.66371917724609 90.82384490966797 41.49116516113281 92 47.49993515014648 92 C 53.50870513916016 92 59.33615112304688 90.82384490966797 64.82039642333984 88.50419616699219 C 70.11905670166016 86.2630615234375 74.87837982177734 83.05403137207031 78.96614837646484 78.96627807617188 C 83.05390167236328 74.87850952148438 86.26293182373047 70.11918640136719 88.50407409667969 64.82052612304688 C 90.82372283935547 59.33627700805664 91.99987030029297 53.50883102416992 91.99987030029297 47.49993896484375 C 91.99987030029297 41.49116897583008 90.82372283935547 35.66372299194336 88.50407409667969 30.17947387695312 C 86.26293182373047 24.88081359863281 83.05390167236328 20.12149047851562 78.96614837646484 16.03372192382812 C 74.87837982177734 11.94596862792969 70.11905670166016 8.7369384765625 64.82039642333984 6.495796203613281 C 59.33615112304688 4.176155090332031 53.50870513916016 3 47.49993515014648 3 M 47.49993515014648 0 C 73.73342895507812 0 94.99987030029297 21.26644897460938 94.99987030029297 47.49993896484375 L 94.99987030029297 47.50006103515625 C 94.99987030029297 73.73355102539062 73.73342895507812 95 47.49993515014648 95 C 21.26644134521484 95 0 73.73355102539062 0 47.50006103515625 L 0 47.49993896484375 C 0 21.26644897460938 21.26644134521484 0 47.49993515014648 0 Z" stroke="none" fill="#fff"/>
                  </g>
                </g>
                <g id="Rectángulo_400907" data-name="Rectángulo 400907" transform="translate(0 0)" fill="none" stroke="#fff" stroke-width="3">
                  <rect width="95" height="95" rx="47.5" stroke="none"/>
                  <rect x="1.5" y="1.5" width="92" height="92" rx="46" fill="none"/>
                </g>
              </g>
            </g>
          </g>
        </g>
      </g>
    </g>
    <g id="dinero" transform="translate(1194.79 7588.251)">
      <g id="Grupo_1117708" data-name="Grupo 1117708" transform="translate(0.786 0.787)">
        <path id="Trazado_909145" data-name="Trazado 909145" d="M176.868,128.129l-1.644-.4-3.428-2.36-1.469-2.833L169.464,121H148l-1.384.764-2.2,3.987-4.849,2.929v7.913h29.016v8.329l.54.592,1.769-1.4,2.238-3.078,2.1-1.679h2.058l.565-.651V128.671Z" transform="translate(-125.706 -109.091)" fill="#8cc825"/>
        <g id="Grupo_1117706" data-name="Grupo 1117706" transform="translate(7.949 19.305)">
          <path id="Trazado_909146" data-name="Trazado 909146" d="M89.636,191.486l-.471.284-4.629.708-1.279,1.551v4.922l1.069.732h5.31Z" transform="translate(-83.257 -191.486)" fill="#77ab1e"/>
        </g>
        <path id="Trazado_909147" data-name="Trazado 909147" d="M431.489,121H424.54a8.275,8.275,0,0,0,8.032,7.68c.12,0,.239,0,.357-.01V122.44A1.44,1.44,0,0,0,431.489,121Z" transform="translate(-380.782 -109.091)" fill="#a2e82d"/>
        <path id="Trazado_909148" data-name="Trazado 909148" d="M433.232,289.655a8.12,8.12,0,0,0-7.592,5.652l-.362.447v1.183l.362.4h6.509a1.44,1.44,0,0,0,1.44-1.44v-6.231C433.471,289.659,433.352,289.655,433.232,289.655Z" transform="translate(-381.443 -260.05)" fill="#a2e82d"/>
        <path id="Trazado_909149" data-name="Trazado 909149" d="M263.372,163.872H262.5l-2.833,1.71-1.994,3.334-.56,2.715.661,3.336h10.391l.619-.732a9.09,9.09,0,0,0,.262-2.173A8.537,8.537,0,0,0,263.372,163.872Z" transform="translate(-230.921 -147.465)" fill="#a2e82d"/>
        <path id="Trazado_909150" data-name="Trazado 909150" d="M221.716,168.764a8.537,8.537,0,0,1,5.672-8.19,7.639,7.639,0,0,0-2.4-.387,8.337,8.337,0,0,0-8.076,8.576,9.089,9.089,0,0,0,.262,2.173l1.3.732h4.808l-1.3-.732A9.088,9.088,0,0,1,221.716,168.764Z" transform="translate(-194.936 -144.167)" fill="#98d829"/>
        <path id="Trazado_909151" data-name="Trazado 909151" d="M90.787,15.76H89.433l-2.618,1.734v1.092l-1.4.482-2.153,4.582V29.21l2.328,3.8,1.229.509v.963l2.933,1.688,1.039.175a11.164,11.164,0,0,0,0-20.585Z" transform="translate(-75.309 -14.893)" fill="#ffeb7e"/>
        <path id="Trazado_909152" data-name="Trazado 909152" d="M16.135,18.657a11.162,11.162,0,0,1,6.84-10.292,11.159,11.159,0,1,0,0,20.585A11.162,11.162,0,0,1,16.135,18.657Z" transform="translate(-7.497 -7.498)" fill="#ffe02f"/>
        <path id="Trazado_909153" data-name="Trazado 909153" d="M86.814,42.687l-1.4.482-2.153,4.582v5.561l2.328,3.8,1.229.509a7.475,7.475,0,0,0,0-14.934Z" transform="translate(-75.308 -38.995)" fill="#ffd500"/>
        <path id="Trazado_909154" data-name="Trazado 909154" d="M47.556,50.08a11.117,11.117,0,0,1,2.868-7.467c-.115-.005-.23-.009-.346-.009a7.476,7.476,0,0,0,0,14.952c.116,0,.232,0,.346-.009A11.116,11.116,0,0,1,47.556,50.08Z" transform="translate(-38.919 -38.921)" fill="#fbc700"/>
        <path id="Trazado_909155" data-name="Trazado 909155" d="M101.939,268.849l-2.151-.79-2.6-2.1-.881-2.588-1.434-.732H67.455l-1.163.732L65.111,266v18.2l1.469,3.04.875.787h27.42l.874-1.229,1.441-2.611,2.494-2.368,2.728-.372.852-1.091V270.312Z" transform="translate(-59.066 -235.871)" fill="#98d829"/>
        <g id="Grupo_1117707" data-name="Grupo 1117707" transform="translate(0 29.383)">
          <path id="Trazado_909156" data-name="Trazado 909156" d="M13.875,287.545l-.675,1.5-3.148,2.563H8.295l-.8,1v10.035l1.376.828,1.784.634,2.518,1.622.7,1.45Z" transform="translate(-7.496 -287.545)" fill="#8cc825"/>
        </g>
        <path id="Trazado_909157" data-name="Trazado 909157" d="M191.572,305.513H190.5l-3.059,2.176-1.662,2.978v5.418l1.662,3.462,2.74,2.243,1.395.1a8.749,8.749,0,0,0,0-16.379Z" transform="translate(-167.069 -274.244)" fill="#bced6b"/>
        <path id="Trazado_909158" data-name="Trazado 909158" d="M145.955,310.405a8.537,8.537,0,0,1,5.672-8.19,7.64,7.64,0,0,0-2.4-.387,8.592,8.592,0,0,0,0,17.152,7.639,7.639,0,0,0,2.4-.387A8.537,8.537,0,0,1,145.955,310.405Z" transform="translate(-127.124 -270.947)" fill="#a2e82d"/>
        <path id="Trazado_909159" data-name="Trazado 909159" d="M355.729,262.641H348.78a8.275,8.275,0,0,0,8.032,7.68c.12,0,.239,0,.357-.01v-6.231A1.44,1.44,0,0,0,355.729,262.641Z" transform="translate(-312.971 -235.871)" fill="#bced6b"/>
        <path id="Trazado_909160" data-name="Trazado 909160" d="M8.937,262.641h6.949a8.275,8.275,0,0,1-8.032,7.68c-.12,0-.239,0-.357-.01v-6.231A1.44,1.44,0,0,1,8.937,262.641Z" transform="translate(-7.497 -235.871)" fill="#a2e82d"/>
        <path id="Trazado_909161" data-name="Trazado 909161" d="M355.729,438.977H348.78a8.275,8.275,0,0,1,8.032-7.68c.12,0,.239,0,.357.01v6.231A1.44,1.44,0,0,1,355.729,438.977Z" transform="translate(-312.971 -386.831)" fill="#bced6b"/>
        <path id="Trazado_909162" data-name="Trazado 909162" d="M8.937,438.977h6.949a8.275,8.275,0,0,0-8.032-7.68c-.12,0-.239,0-.357.01v6.231A1.44,1.44,0,0,0,8.937,438.977Z" transform="translate(-7.497 -386.831)" fill="#a2e82d"/>
      </g>
      <g id="Grupo_1117714" data-name="Grupo 1117714" transform="translate(0 0)">
        <path id="Elipse_13483" data-name="Elipse 13483" d="M1.363-7.5a9.134,9.134,0,0,1,8.863,9.363,9.134,9.134,0,0,1-8.863,9.363A9.134,9.134,0,0,1-7.5,1.863,9.134,9.134,0,0,1,1.363-7.5Zm0,17.152A7.56,7.56,0,0,0,8.651,1.863,7.56,7.56,0,0,0,1.363-5.926,7.56,7.56,0,0,0-5.926,1.863,7.56,7.56,0,0,0,1.363,9.652Z" transform="translate(21.523 38.382)"/>
        <path id="Trazado_909163" data-name="Trazado 909163" d="M342.07,255.143h6.949a2.229,2.229,0,0,1,2.227,2.227V263.6a.787.787,0,0,1-.751.786c-.131.006-.261.01-.393.01a9.031,9.031,0,0,1-8.815-8.39.787.787,0,0,1,.783-.864Zm7.6,7.667v-5.44a.654.654,0,0,0-.653-.653h-6.036A7.427,7.427,0,0,0,349.672,262.81Z" transform="translate(-305.474 -228.373)"/>
        <path id="Trazado_909164" data-name="Trazado 909164" d="M2.227,255.143H9.176a.787.787,0,0,1,.783.864,9.031,9.031,0,0,1-8.815,8.39c-.132,0-.263,0-.393-.01A.787.787,0,0,1,0,263.6V257.37A2.229,2.229,0,0,1,2.227,255.143Zm6.036,1.574H2.227a.654.654,0,0,0-.653.653v5.44A7.427,7.427,0,0,0,8.263,256.717Z" transform="translate(0 -228.373)"/>
        <path id="Trazado_909165" data-name="Trazado 909165" d="M349.019,433.052H342.07a.787.787,0,0,1-.783-.863,9.031,9.031,0,0,1,8.815-8.39c.132,0,.263,0,.393.01a.787.787,0,0,1,.751.786v6.231A2.229,2.229,0,0,1,349.019,433.052Zm-6.036-1.574h6.036a.654.654,0,0,0,.653-.653v-5.44A7.427,7.427,0,0,0,342.983,431.478Z" transform="translate(-305.474 -379.332)"/>
        <path id="Trazado_909166" data-name="Trazado 909166" d="M9.176,433.052H2.227A2.229,2.229,0,0,1,0,430.825v-6.231a.787.787,0,0,1,.751-.786c.131-.006.261-.01.393-.01a9.031,9.031,0,0,1,8.815,8.39.787.787,0,0,1-.783.863Zm-7.6-7.667v5.44a.654.654,0,0,0,.653.653H8.263A7.427,7.427,0,0,0,1.574,425.385Z" transform="translate(0 -379.332)"/>
        <g id="Grupo_1117710" data-name="Grupo 1117710" transform="translate(19.492 33.765)">
          <path id="Trazado_909167" data-name="Trazado 909167" d="M189.189,346.376a3.934,3.934,0,0,1-3.3-1.693.787.787,0,1,1,1.34-.825,2.363,2.363,0,0,0,1.955.944c1.321,0,1.8-.728,1.8-1.217,0-.528-.1-1.028-1.338-1.354-2.18-.574-3.43-1.66-3.43-2.977a2.94,2.94,0,0,1,3.089-2.756,4.4,4.4,0,0,1,2.888,1.268.787.787,0,0,1-1.131,1.094,2.821,2.821,0,0,0-1.757-.789,1.411,1.411,0,0,0-1.515,1.182c0,.428.775,1.065,2.258,1.455,1.666.439,2.511,1.407,2.511,2.876C192.563,344.938,191.381,346.376,189.189,346.376Z" transform="translate(-185.777 -334.957)"/>
          <g id="Grupo_1117709" data-name="Grupo 1117709" transform="translate(2.606)">
            <path id="Línea_634" data-name="Línea 634" d="M-6.713-4.81A.787.787,0,0,1-7.5-5.6V-6.713A.787.787,0,0,1-6.713-7.5a.787.787,0,0,1,.787.787V-5.6A.787.787,0,0,1-6.713-4.81Z" transform="translate(7.5 7.5)"/>
            <path id="Línea_635" data-name="Línea 635" d="M-6.713-4.81A.787.787,0,0,1-7.5-5.6V-6.713A.787.787,0,0,1-6.713-7.5a.787.787,0,0,1,.787.787V-5.6A.787.787,0,0,1-6.713-4.81Z" transform="translate(7.5 17.77)"/>
          </g>
        </g>
        <path id="Trazado_909168" data-name="Trazado 909168" d="M92.36,85.006a3.125,3.125,0,0,1-2.326-1,.787.787,0,1,1,1.155-1.069,1.544,1.544,0,0,0,1.171.493c.814,0,1.11-.408,1.11-.682s0-.572-.825-.789c-1.7-.447-2.671-1.317-2.671-2.386a2.365,2.365,0,0,1,2.475-2.23,3.389,3.389,0,0,1,2.268.994.787.787,0,0,1-1.13,1.1,1.854,1.854,0,0,0-1.138-.516.834.834,0,0,0-.9.657c0,.158.453.588,1.5.864a2.294,2.294,0,0,1,2,2.311A2.432,2.432,0,0,1,92.36,85.006Z" transform="translate(-80.4 -69.229)"/>
        <g id="Grupo_1117711" data-name="Grupo 1117711" transform="translate(11.159 6.985)">
          <path id="Línea_636" data-name="Línea 636" d="M-6.713-5.108A.787.787,0,0,1-7.5-5.895v-.818A.787.787,0,0,1-6.713-7.5a.787.787,0,0,1,.787.787v.818A.787.787,0,0,1-6.713-5.108Z" transform="translate(7.5 7.5)"/>
          <path id="Línea_637" data-name="Línea 637" d="M-6.713-5.108A.787.787,0,0,1-7.5-5.895v-.818A.787.787,0,0,1-6.713-7.5a.787.787,0,0,1,.787.787v.818A.787.787,0,0,1-6.713-5.108Z" transform="translate(7.5 15.029)"/>
        </g>
        <path id="Trazado_909169" data-name="Trazado 909169" d="M417.83,113.5h6.949a2.229,2.229,0,0,1,2.227,2.227v6.231a.787.787,0,0,1-.751.786c-.131.006-.261.01-.393.01a9.031,9.031,0,0,1-8.815-8.39.787.787,0,0,1,.783-.864Zm7.6,7.667v-5.44a.654.654,0,0,0-.653-.653h-6.036A7.427,7.427,0,0,0,425.432,121.168Z" transform="translate(-373.285 -101.592)"/>
        <g id="Grupo_1117713" data-name="Grupo 1117713" transform="translate(27.885 18.904)">
          <path id="Trazado_909170" data-name="Trazado 909170" d="M271.324,202.73a.787.787,0,0,1-.787-.787c0-.528-.1-1.028-1.338-1.354-2.18-.574-3.43-1.66-3.43-2.977a2.94,2.94,0,0,1,3.089-2.756,4.4,4.4,0,0,1,2.888,1.268.787.787,0,0,1-1.131,1.094,2.821,2.821,0,0,0-1.757-.789,1.411,1.411,0,0,0-1.515,1.182c0,.428.775,1.065,2.258,1.455,1.666.439,2.511,1.407,2.511,2.876A.787.787,0,0,1,271.324,202.73Z" transform="translate(-265.769 -193.315)"/>
          <g id="Grupo_1117712" data-name="Grupo 1117712" transform="translate(2.162)">
            <path id="Línea_638" data-name="Línea 638" d="M-6.713-4.81A.787.787,0,0,1-7.5-5.6V-6.713A.787.787,0,0,1-6.713-7.5a.787.787,0,0,1,.787.787V-5.6A.787.787,0,0,1-6.713-4.81Z" transform="translate(7.5 7.5)"/>
          </g>
        </g>
        <path id="Trazado_909171" data-name="Trazado 909171" d="M429.614,282.156c.132,0,.263,0,.394.011a.787.787,0,0,1,.75.786v6.231a2.229,2.229,0,0,1-2.227,2.227h-6.509a.787.787,0,0,1-.787-.787v-2.029a.787.787,0,0,1,.042-.254A8.926,8.926,0,0,1,429.614,282.156Zm-1.083,7.68a.654.654,0,0,0,.653-.653v-5.44a7.38,7.38,0,0,0-6.375,4.985v1.108Z" transform="translate(-377.038 -252.551)"/>
        <path id="Trazado_909172" data-name="Trazado 909172" d="M226.087,165.014H210.46a.787.787,0,0,1-.764-.6,9.893,9.893,0,0,1-.285-2.362,8.876,8.876,0,1,1,17.725,0,9.894,9.894,0,0,1-.285,2.361A.787.787,0,0,1,226.087,165.014ZM211.1,163.44h14.346a8.355,8.355,0,0,0,.116-1.387,7.3,7.3,0,1,0-14.577,0A8.354,8.354,0,0,0,211.1,163.44Z" transform="translate(-187.439 -136.669)"/>
        <path id="Elipse_13484" data-name="Elipse 13484" d="M4.446-7.5A11.946,11.946,0,1,1-7.5,4.446,11.96,11.96,0,0,1,4.446-7.5Zm0,22.318A10.372,10.372,0,1,0-5.926,4.446,10.384,10.384,0,0,0,4.446,14.818Z" transform="translate(7.5 7.5)"/>
        <path id="Elipse_13485" data-name="Elipse 13485" d="M.763-7.5A8.272,8.272,0,0,1,9.025.763,8.272,8.272,0,0,1,.763,9.025,8.272,8.272,0,0,1-7.5.763,8.272,8.272,0,0,1,.763-7.5Zm0,14.952A6.7,6.7,0,0,0,7.452.763,6.7,6.7,0,0,0,.763-5.926,6.7,6.7,0,0,0-5.926.763,6.7,6.7,0,0,0,.763,7.452Z" transform="translate(11.183 11.183)"/>
        <path id="Trazado_909173" data-name="Trazado 909173" d="M43.544,282.092H24.6a.787.787,0,0,1,0-1.574H43.544a.654.654,0,0,0,.653-.653v-22.5a.654.654,0,0,0-.653-.653H2.227a.654.654,0,0,0-.653.653v22.5a.654.654,0,0,0,.653.653h18.7a.787.787,0,0,1,0,1.574H2.227A2.229,2.229,0,0,1,0,279.865v-22.5a2.229,2.229,0,0,1,2.227-2.227H43.544a2.229,2.229,0,0,1,2.227,2.227v22.5A2.229,2.229,0,0,1,43.544,282.092Z" transform="translate(0 -228.372)"/>
        <path id="Trazado_909174" data-name="Trazado 909174" d="M119.3,140.45H112.8a.787.787,0,0,1-.787-.787v-9.075a.654.654,0,0,0-.653-.653H76.547a.787.787,0,0,1-.787-.787v-4.922a.787.787,0,0,1,1.013-.754,10.378,10.378,0,0,0,13.332-9.238.787.787,0,0,1,.785-.735H119.3a2.229,2.229,0,0,1,2.227,2.227v9.412a.787.787,0,1,1-1.574,0v-9.412a.654.654,0,0,0-.653-.653H91.6a11.954,11.954,0,0,1-14.27,10.163v3.125h34.021a2.229,2.229,0,0,1,2.227,2.227v8.288H119.3a.654.654,0,0,0,.653-.653v-9.412a.787.787,0,1,1,1.574,0v9.412A2.229,2.229,0,0,1,119.3,140.45Z" transform="translate(-67.811 -101.591)"/>
      </g>
    </g>
  </g>
</svg>
