<svg xmlns="http://www.w3.org/2000/svg" xmlns:xlink="http://www.w3.org/1999/xlink" width="113" height="113" viewBox="0 0 113 113">
  <defs>
    <filter id="Trazado_896985" x="0" y="0" width="113" height="113" filterUnits="userSpaceOnUse">
      <feOffset dy="3" input="SourceAlpha"/>
      <feGaussianBlur stdDeviation="3" result="blur"/>
      <feFlood flood-opacity="0.161"/>
      <feComposite operator="in" in2="blur"/>
      <feComposite in="SourceGraphic"/>
    </filter>
  </defs>
  <g id="Grupo_1117238" data-name="Grupo 1117238" transform="translate(-743.763 -2311.611)">
    <g id="Grupo_1113198" data-name="Grupo 1113198" transform="translate(-211.288 1121.611)">
      <g id="Grupo_1113185" data-name="Grupo 1113185" transform="translate(629.16 -2656)">
        <g id="Grupo_1111318" data-name="Grupo 1111318" transform="translate(-5.891)">
          <g id="Grupo_1109826" data-name="Grupo 1109826" transform="translate(340.781 3852)">
            <g id="Grupo_1098742" data-name="Grupo 1098742">
              <g transform="matrix(1, 0, 0, 1, -9, -6)" filter="url(#Trazado_896985)">
                <g id="Trazado_896985-2" data-name="Trazado 896985" transform="translate(9 6)" fill="#fd9826" opacity="0.859">
                  <path d="M 47.49993515014648 93.5 C 41.28932189941406 93.5 35.26528167724609 92.28397369384766 29.59514808654785 89.88571929931641 C 24.1176815032959 87.56894683837891 19.1981086730957 84.25197601318359 14.97306823730469 80.02693176269531 C 10.74802875518799 75.80189514160156 7.431055068969727 70.88231658935547 5.11428165435791 65.40485382080078 C 2.716028451919556 59.73471832275391 1.500001788139343 53.71067810058594 1.500001788139343 47.50006484985352 C 1.500001788139343 41.28932189941406 2.716028451919556 35.26528167724609 5.11428165435791 29.59514617919922 C 7.431055068969727 24.11767959594727 10.74802875518799 19.19810676574707 14.97306823730469 14.97306632995605 C 19.1981086730957 10.74802684783936 24.1176815032959 7.431053161621094 29.59514808654785 5.114280223846436 C 35.26528167724609 2.716026782989502 41.28932189941406 1.5 47.49993515014648 1.5 C 53.71054840087891 1.5 59.73458862304688 2.716026782989502 65.40472412109375 5.114280223846436 C 70.88218688964844 7.431053161621094 75.80176544189453 10.74802684783936 80.02680206298828 14.97306632995605 C 84.25183868408203 19.19810676574707 87.56881713867188 24.11767959594727 89.88558959960938 29.59514617919922 C 92.28384399414062 35.26528167724609 93.49987030029297 41.28932189941406 93.49987030029297 47.49993515014648 C 93.49987030029297 53.71067810058594 92.28384399414062 59.73471832275391 89.88558959960938 65.40485382080078 C 87.56881713867188 70.88231658935547 84.25183868408203 75.80189514160156 80.02680206298828 80.02693176269531 C 75.80176544189453 84.25197601318359 70.88218688964844 87.56894683837891 65.40472412109375 89.88571929931641 C 59.73458862304688 92.28397369384766 53.71054840087891 93.5 47.49993515014648 93.5 Z" stroke="none"/>
                  <path d="M 47.49993515014648 3 C 41.49116516113281 3 35.66371917724609 4.176155090332031 30.17947387695312 6.495796203613281 C 24.88081359863281 8.7369384765625 20.12149047851562 11.94596862792969 16.03372192382812 16.03372192382812 C 11.94596862792969 20.12149047851562 8.7369384765625 24.88081359863281 6.495796203613281 30.17947387695312 C 4.1761474609375 35.66372299194336 3 41.49116897583008 3 47.50006103515625 C 3 53.50883102416992 4.1761474609375 59.33627700805664 6.495796203613281 64.82052612304688 C 8.7369384765625 70.11918640136719 11.94596862792969 74.87850952148438 16.03372192382812 78.96627807617188 C 20.12149047851562 83.05403137207031 24.88081359863281 86.2630615234375 30.17947387695312 88.50419616699219 C 35.66371917724609 90.82384490966797 41.49116516113281 92 47.49993515014648 92 C 53.50870513916016 92 59.33615112304688 90.82384490966797 64.82039642333984 88.50419616699219 C 70.11905670166016 86.2630615234375 74.87837982177734 83.05403137207031 78.96614837646484 78.96627807617188 C 83.05390167236328 74.87850952148438 86.26293182373047 70.11918640136719 88.50407409667969 64.82052612304688 C 90.82372283935547 59.33627700805664 91.99987030029297 53.50883102416992 91.99987030029297 47.49993896484375 C 91.99987030029297 41.49116897583008 90.82372283935547 35.66372299194336 88.50407409667969 30.17947387695312 C 86.26293182373047 24.88081359863281 83.05390167236328 20.12149047851562 78.96614837646484 16.03372192382812 C 74.87837982177734 11.94596862792969 70.11905670166016 8.7369384765625 64.82039642333984 6.495796203613281 C 59.33615112304688 4.176155090332031 53.50870513916016 3 47.49993515014648 3 M 47.49993515014648 0 C 73.73342895507812 0 94.99987030029297 21.26644897460938 94.99987030029297 47.49993896484375 L 94.99987030029297 47.50006103515625 C 94.99987030029297 73.73355102539062 73.73342895507812 95 47.49993515014648 95 C 21.26644134521484 95 0 73.73355102539062 0 47.50006103515625 L 0 47.49993896484375 C 0 21.26644897460938 21.26644134521484 0 47.49993515014648 0 Z" stroke="none" fill="#fff"/>
                </g>
              </g>
              <g id="Rectángulo_400907" data-name="Rectángulo 400907" transform="translate(0 0)" fill="none" stroke="#fff" stroke-width="3">
                <rect width="95" height="95" rx="47.5" stroke="none"/>
                <rect x="1.5" y="1.5" width="92" height="92" rx="46" fill="none"/>
              </g>
            </g>
          </g>
        </g>
      </g>
    </g>
    <g id="salario" transform="translate(766.857 2337.834)">
      <g id="Grupo_1117235" data-name="Grupo 1117235" transform="translate(8.563 0.771)">
        <g id="Grupo_1117219" data-name="Grupo 1117219" transform="translate(10.128)">
          <g id="Grupo_1117218" data-name="Grupo 1117218">
            <g id="Grupo_1117217" data-name="Grupo 1117217">
              <g id="Grupo_1117214" data-name="Grupo 1117214">
                <g id="Grupo_1117213" data-name="Grupo 1117213">
                  <path id="Trazado_908619" data-name="Trazado 908619" d="M134.828,16.479s5.01-6.5,3.569-8.367c-.491-.636-.91.228-1.925.228-1.193,0-1.193-.781-2.386-.781s-1.193.781-2.386.781-1.193-.781-2.386-.781-1.193.781-2.386.781c-1.017,0-1.434-.875-1.928-.239-1.441,1.855,3.5,8.378,3.5,8.378-21.8,14.333-14.772,33.825-1.9,33.825H136.8C149.716,50.3,156.7,30.86,134.828,16.479Z" transform="translate(-114.473 -7.559)" fill="#eabc6b"/>
                </g>
              </g>
              <g id="Grupo_1117215" data-name="Grupo 1117215" transform="translate(13.167)">
                <path id="Trazado_908620" data-name="Trazado 908620" d="M250.6,16.479s5.01-6.5,3.569-8.367c-.491-.636-.91.228-1.925.228-1.193,0-1.193-.781-2.386-.781s-1.193.781-2.386.781c-.059,0-.112,0-.166-.007-.479,2.055-2.639,5.256-3.875,6.969.487.714.837,1.177.837,1.177q-.436.287-.856.576C264.246,31.374,257.276,50.3,244.536,50.3h8.044c12.911,0,19.9-19.444-1.977-33.825Z" transform="translate(-243.415 -7.559)" fill="#e8ae4d"/>
              </g>
              <g id="Grupo_1117216" data-name="Grupo 1117216" transform="translate(11.254 7.575)">
                <path id="Trazado_908621" data-name="Trazado 908621" d="M234.715,85.4a17.429,17.429,0,0,1-8.7,0,1.857,1.857,0,0,1-1.223-2.431l.012-.035a1.714,1.714,0,0,1,2.023-1.142,14.162,14.162,0,0,0,7.075,0,1.714,1.714,0,0,1,2.023,1.142l.012.035A1.857,1.857,0,0,1,234.715,85.4Z" transform="translate(-224.683 -81.738)" fill="#ffe07d"/>
              </g>
            </g>
          </g>
        </g>
        <g id="Grupo_1117234" data-name="Grupo 1117234" transform="translate(0 29.007)">
          <g id="Grupo_1117233" data-name="Grupo 1117233">
            <g id="Grupo_1117232" data-name="Grupo 1117232">
              <g id="Grupo_1117231" data-name="Grupo 1117231">
                <g id="Grupo_1117230" data-name="Grupo 1117230">
                  <g id="Grupo_1117229" data-name="Grupo 1117229">
                    <g id="Grupo_1117228" data-name="Grupo 1117228">
                      <g id="Grupo_1117227" data-name="Grupo 1117227">
                        <g id="Grupo_1117226" data-name="Grupo 1117226">
                          <g id="Grupo_1117225" data-name="Grupo 1117225">
                            <g id="Grupo_1117224" data-name="Grupo 1117224" transform="translate(4.043 2.683)">
                              <g id="Grupo_1117223" data-name="Grupo 1117223">
                                <g id="Grupo_1117220" data-name="Grupo 1117220">
                                  <path id="Trazado_908622" data-name="Trazado 908622" d="M54.883,332.295l11.086,4.126a8.436,8.436,0,0,0,2.943.53H80.337a8.437,8.437,0,0,0,4.515-1.31l14.306-9.065a2.511,2.511,0,0,0,.409-3.29c-.777-1.142-2.062-1.34-3.476-.672l-13.928,6.133.016-2.26a4.045,4.045,0,0,0-3.458-3.6l-8.482-.977a11.19,11.19,0,0,1-4.64-1.93,15.2,15.2,0,0,0-7.676-2.08H54.883v14.4Z" transform="translate(-54.883 -317.896)" fill="#ffddce"/>
                                </g>
                                <g id="Grupo_1117221" data-name="Grupo 1117221">
                                  <path id="Trazado_908623" data-name="Trazado 908623" d="M54.883,332.295l11.086,4.126a8.436,8.436,0,0,0,2.943.53H80.337a8.437,8.437,0,0,0,4.515-1.31l14.306-9.065a2.511,2.511,0,0,0,.409-3.29c-.777-1.142-2.062-1.34-3.476-.672l-13.928,6.133.016-2.26a4.045,4.045,0,0,0-3.458-3.6l-8.482-.977a11.19,11.19,0,0,1-4.64-1.93,15.2,15.2,0,0,0-7.676-2.08H54.883v14.4Z" transform="translate(-54.883 -317.896)" fill="#ffddce"/>
                                </g>
                                <path id="Trazado_908624" data-name="Trazado 908624" d="M99.568,361.414c-.777-1.142-2.062-1.34-3.476-.672l-3.831,1.687.333.528a2.511,2.511,0,0,1-.409,3.29L83.85,371.53a8.435,8.435,0,0,1-3.511.766H68.913a8.436,8.436,0,0,1-2.943-.53l-11.086-4.127v2.783l11.086,4.127a8.436,8.436,0,0,0,2.943.53H80.338a8.437,8.437,0,0,0,4.515-1.31L99.16,364.7A2.511,2.511,0,0,0,99.568,361.414Z" transform="translate(-54.884 -356.024)" fill="#ffcbbe"/>
                                <g id="Grupo_1117222" data-name="Grupo 1117222" transform="translate(26.256 6.264)">
                                  <path id="Trazado_908625" data-name="Trazado 908625" d="M312,379.236v.055l.036-.016Z" transform="translate(-312.004 -379.236)" fill="#f5dbcc"/>
                                </g>
                              </g>
                            </g>
                            <path id="Trazado_908626" data-name="Trazado 908626" d="M21.723,310.91a1.457,1.457,0,0,1-1.456,1.456H16.751A1.457,1.457,0,0,1,15.3,310.91V293.076a1.457,1.457,0,0,1,1.456-1.456h3.515a1.457,1.457,0,0,1,1.456,1.456Z" transform="translate(-15.295 -291.62)" fill="#407093"/>
                          </g>
                        </g>
                      </g>
                    </g>
                  </g>
                </g>
              </g>
            </g>
          </g>
        </g>
      </g>
      <g id="Grupo_1117236" data-name="Grupo 1117236" transform="translate(7.797 -0.001)">
        <path id="Trazado_908627" data-name="Trazado 908627" d="M57.923,37.421c-.975-1.433-2.63-1.783-4.427-.938l-.953.419a15.75,15.75,0,0,0,.941-10.141,24.465,24.465,0,0,0-6.165-11.147.766.766,0,1,0-1.129,1.035,22.963,22.963,0,0,1,5.8,10.444,13.731,13.731,0,0,1-1.8,10.845l-9.532,4.2.008-1.077a.748.748,0,0,0,0-.081,4.8,4.8,0,0,0-4.113-4.287l-.02,0-8.472-.975c-3.258-.464-4.1-2.416-8.508-3.529a16.485,16.485,0,0,1,1.215-8.1c1.677-4.158,4.959-8.2,9.507-11.714,1.7,1.2,9.259,1.352,10.952-.2.867.659,1.695,1.337,2.466,2.024A.766.766,0,1,0,44.71,13.05c-.845-.753-1.754-1.5-2.708-2.214a2.726,2.726,0,0,0-.914-2.716C43.486,4.483,44.183,2.1,43.22.856A1.339,1.339,0,0,0,41.384.573,1.228,1.228,0,0,1,39.915.52a2.753,2.753,0,0,0-3.224,0,1.235,1.235,0,0,1-1.547,0,2.753,2.753,0,0,0-3.224,0,1.219,1.219,0,0,1-1.467.049,1.336,1.336,0,0,0-1.839.274c-.942,1.212-.312,3.517,1.924,7.03a2.494,2.494,0,0,0-.389.26A5.17,5.17,0,0,0,25.7,6.45a5.611,5.611,0,0,1-3.81-.9.766.766,0,1,0-.853,1.272,7.131,7.131,0,0,0,4.832,1.151,3.742,3.742,0,0,1,3.42,1.5q-.014.049-.026.1a13.142,13.142,0,0,0-2.428.265,7.191,7.191,0,0,0-4.983,3.191.766.766,0,1,0,1.322.773c1.4-2.386,4.8-2.678,6.158-2.7.006.017.013.033.019.05-4.831,3.727-8.194,7.882-10,12.36a18.175,18.175,0,0,0-1.366,8.361,15.934,15.934,0,0,0-2.223-.172v-.463a2.225,2.225,0,0,0-2.222-2.222H10.019A2.225,2.225,0,0,0,7.8,31.234V49.068a2.225,2.225,0,0,0,2.222,2.222h3.515a2.225,2.225,0,0,0,2.222-2.222V48.85L23.424,51.7a9.174,9.174,0,0,0,3.21.578H38.06a9.189,9.189,0,0,0,4.925-1.429c15.242-9.662,14.316-9.061,14.4-9.139a3.284,3.284,0,0,0,.533-4.293ZM39.789,11.262a16.6,16.6,0,0,1-8.324,0c-1.2-.3-.854-2.447.438-2.123a14.933,14.933,0,0,0,7.448,0C40.62,8.82,41.01,10.953,39.789,11.262ZM29.753,1.932l.018.009A2.717,2.717,0,0,0,32.758,1.8c1.3-.854,1.446.515,3.159.515A2.66,2.66,0,0,0,37.529,1.8a1.235,1.235,0,0,1,1.548,0,2.731,2.731,0,0,0,3,.137c.158.568-.2,2.261-2.47,5.642-1.128-.019-2.764,1.088-7.4.057C29.945,4.214,29.595,2.5,29.753,1.932Zm26.661,38.6L42.165,49.56a7.659,7.659,0,0,1-4.106,1.191H26.634a7.646,7.646,0,0,1-2.676-.482l-8.2-3.053V38.97a.766.766,0,1,0-1.531,0v10.1a.692.692,0,0,1-.691.691H10.019a.692.692,0,0,1-.691-.691V31.235a.691.691,0,0,1,.691-.691h3.515a.691.691,0,0,1,.691.691V35.39a.766.766,0,1,0,1.531,0V33.229c6.334.049,7.759,3.387,12.1,4l.02,0,8.471.975a3.271,3.271,0,0,1,2.79,2.882l-.011,1.457h-7.9a.766.766,0,1,0,0,1.532h8.66a.793.793,0,0,0,.306-.064l13.931-6.134c1-.445,1.915-.509,2.535.4A1.749,1.749,0,0,1,56.414,40.531Z" transform="translate(-7.797 0.001)"/>
        <path id="Trazado_908628" data-name="Trazado 908628" d="M244.214,174.212a.766.766,0,0,0,.766-.766v-1.269a4.486,4.486,0,0,0,3.677-3.712,3.927,3.927,0,0,0-2.706-4.493c-.351-.124-.673-.243-.971-.357v-4.882a3.149,3.149,0,0,1,1.489.654.766.766,0,0,0,1.034-1.13,4.746,4.746,0,0,0-2.523-1.071V156.1a.766.766,0,1,0-1.531,0v1.151a5.637,5.637,0,0,0-.568.139,3.7,3.7,0,0,0-2.534,2.907,3.238,3.238,0,0,0,1.052,3.192,9.278,9.278,0,0,0,2.05,1.158V170.7a4.067,4.067,0,0,1-2.382-.826.766.766,0,1,0-.838,1.282,5.608,5.608,0,0,0,3.22,1.075v1.215A.766.766,0,0,0,244.214,174.212Zm-1.87-11.931a1.726,1.726,0,0,1-.493-1.7,2.191,2.191,0,0,1,1.471-1.724c.043-.013.084-.024.126-.035v4.136A6.458,6.458,0,0,1,242.344,162.281Zm3.1,3.135a2.41,2.41,0,0,1,1.706,2.795,2.983,2.983,0,0,1-2.167,2.4V165.25C245.129,165.3,245.281,165.36,245.44,165.416Z" transform="translate(-216.182 -139.47)"/>
      </g>
    </g>
  </g>
</svg>
