<svg xmlns="http://www.w3.org/2000/svg" xmlns:xlink="http://www.w3.org/1999/xlink" width="113" height="113" viewBox="0 0 113 113">
  <defs>
    <filter id="Trazado_896985" x="0" y="0" width="113" height="113" filterUnits="userSpaceOnUse">
      <feOffset dy="3" input="SourceAlpha"/>
      <feGaussianBlur stdDeviation="3" result="blur"/>
      <feFlood flood-opacity="0.161"/>
      <feComposite operator="in" in2="blur"/>
      <feComposite in="SourceGraphic"/>
    </filter>
  </defs>
  <g id="Grupo_1117239" data-name="Grupo 1117239" transform="translate(-1164 -2312)">
    <g id="Grupo_1117211" data-name="Grupo 1117211" transform="translate(208.949 1122)">
      <g id="Grupo_1113185" data-name="Grupo 1113185" transform="translate(629.16 -2656)">
        <g id="Grupo_1111318" data-name="Grupo 1111318" transform="translate(-5.891)">
          <g id="Grupo_1109826" data-name="Grupo 1109826" transform="translate(340.781 3852)">
            <g id="Grupo_1098742" data-name="Grupo 1098742">
              <g transform="matrix(1, 0, 0, 1, -9, -6)" filter="url(#Trazado_896985)">
                <g id="Trazado_896985-2" data-name="Trazado 896985" transform="translate(9 6)" fill="#fd9826" opacity="0.859">
                  <path d="M 47.49993515014648 93.5 C 41.28932189941406 93.5 35.26528167724609 92.28397369384766 29.59514808654785 89.88571929931641 C 24.1176815032959 87.56894683837891 19.1981086730957 84.25197601318359 14.97306823730469 80.02693176269531 C 10.74802875518799 75.80189514160156 7.431055068969727 70.88231658935547 5.11428165435791 65.40485382080078 C 2.716028451919556 59.73471832275391 1.500001788139343 53.71067810058594 1.500001788139343 47.50006484985352 C 1.500001788139343 41.28932189941406 2.716028451919556 35.26528167724609 5.11428165435791 29.59514617919922 C 7.431055068969727 24.11767959594727 10.74802875518799 19.19810676574707 14.97306823730469 14.97306632995605 C 19.1981086730957 10.74802684783936 24.1176815032959 7.431053161621094 29.59514808654785 5.114280223846436 C 35.26528167724609 2.716026782989502 41.28932189941406 1.5 47.49993515014648 1.5 C 53.71054840087891 1.5 59.73458862304688 2.716026782989502 65.40472412109375 5.114280223846436 C 70.88218688964844 7.431053161621094 75.80176544189453 10.74802684783936 80.02680206298828 14.97306632995605 C 84.25183868408203 19.19810676574707 87.56881713867188 24.11767959594727 89.88558959960938 29.59514617919922 C 92.28384399414062 35.26528167724609 93.49987030029297 41.28932189941406 93.49987030029297 47.49993515014648 C 93.49987030029297 53.71067810058594 92.28384399414062 59.73471832275391 89.88558959960938 65.40485382080078 C 87.56881713867188 70.88231658935547 84.25183868408203 75.80189514160156 80.02680206298828 80.02693176269531 C 75.80176544189453 84.25197601318359 70.88218688964844 87.56894683837891 65.40472412109375 89.88571929931641 C 59.73458862304688 92.28397369384766 53.71054840087891 93.5 47.49993515014648 93.5 Z" stroke="none"/>
                  <path d="M 47.49993515014648 3 C 41.49116516113281 3 35.66371917724609 4.176155090332031 30.17947387695312 6.495796203613281 C 24.88081359863281 8.7369384765625 20.12149047851562 11.94596862792969 16.03372192382812 16.03372192382812 C 11.94596862792969 20.12149047851562 8.7369384765625 24.88081359863281 6.495796203613281 30.17947387695312 C 4.1761474609375 35.66372299194336 3 41.49116897583008 3 47.50006103515625 C 3 53.50883102416992 4.1761474609375 59.33627700805664 6.495796203613281 64.82052612304688 C 8.7369384765625 70.11918640136719 11.94596862792969 74.87850952148438 16.03372192382812 78.96627807617188 C 20.12149047851562 83.05403137207031 24.88081359863281 86.2630615234375 30.17947387695312 88.50419616699219 C 35.66371917724609 90.82384490966797 41.49116516113281 92 47.49993515014648 92 C 53.50870513916016 92 59.33615112304688 90.82384490966797 64.82039642333984 88.50419616699219 C 70.11905670166016 86.2630615234375 74.87837982177734 83.05403137207031 78.96614837646484 78.96627807617188 C 83.05390167236328 74.87850952148438 86.26293182373047 70.11918640136719 88.50407409667969 64.82052612304688 C 90.82372283935547 59.33627700805664 91.99987030029297 53.50883102416992 91.99987030029297 47.49993896484375 C 91.99987030029297 41.49116897583008 90.82372283935547 35.66372299194336 88.50407409667969 30.17947387695312 C 86.26293182373047 24.88081359863281 83.05390167236328 20.12149047851562 78.96614837646484 16.03372192382812 C 74.87837982177734 11.94596862792969 70.11905670166016 8.7369384765625 64.82039642333984 6.495796203613281 C 59.33615112304688 4.176155090332031 53.50870513916016 3 47.49993515014648 3 M 47.49993515014648 0 C 73.73342895507812 0 94.99987030029297 21.26644897460938 94.99987030029297 47.49993896484375 L 94.99987030029297 47.50006103515625 C 94.99987030029297 73.73355102539062 73.73342895507812 95 47.49993515014648 95 C 21.26644134521484 95 0 73.73355102539062 0 47.50006103515625 L 0 47.49993896484375 C 0 21.26644897460938 21.26644134521484 0 47.49993515014648 0 Z" stroke="none" fill="#fff"/>
                </g>
              </g>
              <g id="Rectángulo_400907" data-name="Rectángulo 400907" transform="translate(0 0)" fill="none" stroke="#fff" stroke-width="3">
                <rect width="95" height="95" rx="47.5" stroke="none"/>
                <rect x="1.5" y="1.5" width="92" height="92" rx="46" fill="none"/>
              </g>
            </g>
          </g>
        </g>
      </g>
    </g>
    <g id="Page-1" transform="translate(1196 2341.001)">
      <g id="_059---Money-Bag" data-name="059---Money-Bag" transform="translate(0 -0.001)">
        <path id="Shape" d="M41.076,46.6H25.367V36.777c0-1.359-2.382-2.456-5.321-2.456A10.738,10.738,0,0,0,18,34.51V25.6c2.589-6.037,7.005-10.425,10.928-12.369a4.441,4.441,0,0,0,2.317.63h4.584a4.42,4.42,0,0,0,2.333-.647c1.785.884,9.831,5.493,12.737,17.837C54.173,44.963,44.35,46.6,41.076,46.6Z" transform="translate(-3.265 -3.214)" fill="#ffdc00"/>
        <path id="Shape-2" data-name="Shape" d="M55.045,31.047C52.139,18.7,44.093,14.094,42.308,13.21a4.271,4.271,0,0,1-1.453.553c2.807,1.676,9.209,6.561,11.734,17.285C55.864,44.963,46.041,46.6,42.766,46.6h2.456C48.5,46.6,58.32,44.963,55.045,31.047Z" transform="translate(-7.412 -3.214)" fill="#fec108"/>
        <path id="Shape-3" data-name="Shape" d="M43.365,2.958c.008,1.8-.352,5.73-3.233,7.981a2.559,2.559,0,0,1-.344.237,4.42,4.42,0,0,1-2.333.647H32.87a4.441,4.441,0,0,1-2.317-.63c-.123-.082-.246-.164-.36-.254-2.881-2.251-3.233-6.18-3.233-7.981A.819.819,0,0,1,28.09,2.2c1.048.442,1.4,1.433,2.988,1.433C33.116,3.637,33.116,2,35.154,2S37.2,3.637,39.247,3.637c1.588,0,1.94-1,2.988-1.433a.819.819,0,0,1,1.13.753Z" transform="translate(-4.891 -1.181)" fill="#ffdc00"/>
        <path id="Shape-4" data-name="Shape" d="M44.017,2.236a6.607,6.607,0,0,0-1.326.9c-.011,1.859-.425,5.639-3.232,7.832a2.559,2.559,0,0,1-.344.237,4.42,4.42,0,0,1-2.333.647h2.456a4.42,4.42,0,0,0,2.333-.647,2.559,2.559,0,0,0,.344-.237c2.88-2.251,3.24-6.18,3.232-7.981a.819.819,0,0,0-1.13-.753Z" transform="translate(-6.673 -1.213)" fill="#fec108"/>
        <ellipse id="Oval" cx="5.321" cy="2.456" rx="5.321" ry="2.456" transform="translate(9.004 4.094)" fill="#ffdc00"/>
        <path id="Shape-5" data-name="Shape" d="M21.642,9v8.17a26.85,26.85,0,0,0-4.912,7.662V20.46C16.73,19.1,14.348,18,11.409,18c-.139,0-.27,0-.409.008V9c0,1.359,2.382,2.456,5.321,2.456S21.642,10.359,21.642,9Z" transform="translate(-1.996 -2.451)" fill="#ff9801"/>
        <path id="Shape-6" data-name="Shape" d="M15.642,22.456c0,1.359-2.382,2.456-5.321,2.456S5,23.815,5,22.456c0-1.293,2.161-2.349,4.912-2.448.139-.008.27-.008.409-.008C13.26,20,15.642,21.1,15.642,22.456Z" transform="translate(-0.907 -4.446)" fill="#ffdc00"/>
        <path id="Shape-7" data-name="Shape" d="M15.642,23V36.286c-1.924.368-3.274,1.244-3.274,2.267v8.186c0-1.359-2.382-2.456-5.321-2.456A10.738,10.738,0,0,0,5,44.472V23c0,1.359,2.382,2.456,5.321,2.456S15.642,24.359,15.642,23Z" transform="translate(-0.907 -4.99)" fill="#ff9801"/>
        <path id="Shape-8" data-name="Shape" d="M11.642,51.456c0,1.359-2.382,2.456-5.321,2.456S1,52.815,1,51.456c0-1.023,1.351-1.9,3.274-2.267A10.738,10.738,0,0,1,6.321,49C9.26,49,11.642,50.1,11.642,51.456Z" transform="translate(-0.181 -9.707)" fill="#ffeb3a"/>
        <path id="Shape-9" data-name="Shape" d="M11.642,52v4.093c0,1.359-2.382,2.456-5.321,2.456S1,57.452,1,56.093V52c0,1.359,2.382,2.456,5.321,2.456S11.642,53.359,11.642,52Z" transform="translate(-0.181 -10.251)" fill="#ffdc00"/>
        <path id="Shape-10" data-name="Shape" d="M24.642,41.456c0,1.359-2.382,2.456-5.321,2.456S14,42.815,14,41.456c0-1.023,1.351-1.9,3.274-2.267A10.738,10.738,0,0,1,19.321,39C22.26,39,24.642,40.1,24.642,41.456Z" transform="translate(-2.54 -7.893)" fill="#ffeb3a"/>
        <path id="Shape-11" data-name="Shape" d="M24.642,42V52.642c0,1.359-2.382,2.456-5.321,2.456S14,54,14,52.642V42c0,1.359,2.382,2.456,5.321,2.456S24.642,43.359,24.642,42Z" transform="translate(-2.54 -8.437)" fill="#ffdc00"/>
        <g id="Grupo_1117212" data-name="Grupo 1117212">
          <path id="Shape-12" data-name="Shape" d="M38.691,12.513c4.061.306,5.368,2,5.407,2.046a.819.819,0,0,0,1.356-.918c-.059-.088-1.2-1.712-4.5-2.456a3.755,3.755,0,0,0,1.37-2.818,4.2,4.2,0,0,0-3.13-3.813,14.931,14.931,0,0,0,.11-1.782,1.637,1.637,0,0,0-2.276-1.5A4.677,4.677,0,0,0,35.885,2a2.151,2.151,0,0,1-3.059,0,3.766,3.766,0,0,0-5.11,0,2.152,2.152,0,0,1-3.06,0,4.684,4.684,0,0,0-1.136-.73,1.637,1.637,0,0,0-2.273,1.5c0,2.037.4,5.67,2.953,8.109a22.583,22.583,0,0,0-3.734,2.841V7.549c0-1.866-2.64-3.274-6.139-3.274S8.186,5.682,8.186,7.549V15.8c-2.871.287-4.912,1.576-4.912,3.213V39.83C1.3,40.361,0,41.438,0,42.748v4.093c0,1.866,2.64,3.274,6.139,3.274,3.129,0,5.566-1.127,6.047-2.7a9.2,9.2,0,0,0,4.595,1.064c3.5,0,6.139-1.408,6.139-3.274V34.562c0-1.866-2.64-3.274-6.139-3.274a12.147,12.147,0,0,0-1.228.061V19.009c0-1.793-2.437-3.158-5.73-3.264V9.815a9.322,9.322,0,0,0,4.5,1.008,9.322,9.322,0,0,0,4.5-1.008V15.4c-.539.6-1.081,1.261-1.616,1.989a.819.819,0,0,0,1.32.967,24.815,24.815,0,0,1,1.688-2.046l.019-.021a21.519,21.519,0,0,1,5.433-4.354,5.2,5.2,0,0,0,1.263.42l-2.11,1.97a.819.819,0,1,0,1.118,1.2l3.274-3.054h.261V14.92a.819.819,0,0,0,1.637,0V12.46h.261l3.274,3.054a.819.819,0,0,0,1.118-1.2L33.644,12.34a5.157,5.157,0,0,0,1.255-.422c2.164,1.171,9.275,5.8,11.939,17.1,1.158,4.921.741,8.686-1.24,11.187-2.534,3.2-6.932,3.36-7.787,3.36H26.195a.819.819,0,1,0,0,1.637H37.811c1.392,0,6.144-.287,9.07-3.981,2.307-2.913,2.829-7.145,1.55-12.578A28.538,28.538,0,0,0,38.691,12.513ZM6.139,41.111c2.707,0,4.5.982,4.5,1.637s-1.8,1.637-4.5,1.637-4.5-.982-4.5-1.637S3.432,41.111,6.139,41.111Zm0,7.367c-2.707,0-4.5-.982-4.5-1.637V45.015a9.322,9.322,0,0,0,4.5,1.008,9.322,9.322,0,0,0,4.5-1.008v1.826C10.642,47.5,8.846,48.478,6.139,48.478Zm10.642-1.637c-2.707,0-4.5-.982-4.5-1.637V36.829a9.322,9.322,0,0,0,4.5,1.008,9.322,9.322,0,0,0,4.5-1.008V45.2C21.283,45.859,19.488,46.841,16.781,46.841Zm4.5-12.279c0,.655-1.8,1.637-4.5,1.637s-4.5-.982-4.5-1.637,1.8-1.637,4.5-1.637S21.283,33.907,21.283,34.562Zm-10.642,0v5.919a9.322,9.322,0,0,0-4.5-1.008,12.146,12.146,0,0,0-1.228.061V21.276a9.322,9.322,0,0,0,4.5,1.008,9.322,9.322,0,0,0,4.5-1.008V31.644C11.938,32.175,10.642,33.252,10.642,34.562Zm3.274-15.553c0,.655-1.8,1.637-4.5,1.637s-4.5-.982-4.5-1.637,1.8-1.637,4.5-1.637S13.916,18.354,13.916,19.009Zm.409-9.823c-2.707,0-4.5-.982-4.5-1.637s1.8-1.637,4.5-1.637,4.5.982,4.5,1.637S17.032,9.186,14.325,9.186Zm26.359-.819c0,1.342-1.453,2.443-3.274,2.456a4.227,4.227,0,0,1-.905-.1A9.706,9.706,0,0,0,38.9,6.192a2.508,2.508,0,0,1,1.789,2.175ZM23.631,3.276a3.763,3.763,0,0,0,5.106,0,2.155,2.155,0,0,1,3.062,0,3.767,3.767,0,0,0,5.11,0,3.428,3.428,0,0,1,.751-.5c0,1.52-.282,5.278-2.92,7.339a3.511,3.511,0,0,1-2.055.7,17.7,17.7,0,0,0,1.671-3.865.819.819,0,0,0-1.578-.439,15.017,15.017,0,0,1-2.064,4.313h-.842A15.159,15.159,0,0,1,27.806,6.51a.819.819,0,1,0-1.577.44A17.718,17.718,0,0,0,27.9,10.817a3.52,3.52,0,0,1-2.1-.706c-2.637-2.06-2.92-5.818-2.92-7.333a3.2,3.2,0,0,1,.747.5Z" transform="translate(0 -0.999)"/>
          <path id="Shape-13" data-name="Shape" d="M52.512,46.446a7.858,7.858,0,0,0,1.5-4.589A.819.819,0,0,0,53.237,41a.828.828,0,0,0-.857.778,6.269,6.269,0,0,1-1.152,3.651c-1.6,2.017-4.627,2.119-5.219,2.119a.819.819,0,0,0,0,1.637c.724,0,4.438-.132,6.5-2.74Z" transform="translate(-8.198 -8.256)"/>
          <path id="Shape-14" data-name="Shape" d="M33.637,32.823a.819.819,0,0,0-1.637,0A3.274,3.274,0,0,0,35.274,36.1v.819a.819.819,0,0,0,1.637,0V36.1a3.274,3.274,0,0,0,0-6.549V26.274a1.637,1.637,0,0,1,1.637,1.637.819.819,0,1,0,1.637,0,3.274,3.274,0,0,0-3.274-3.274v-.819a.819.819,0,1,0-1.637,0v.819a3.274,3.274,0,1,0,0,6.549V34.46A1.637,1.637,0,0,1,33.637,32.823Zm0-4.912a1.637,1.637,0,0,1,1.637-1.637v3.274A1.637,1.637,0,0,1,33.637,27.912Zm3.274,3.274a1.637,1.637,0,1,1,0,3.274Z" transform="translate(-5.805 -4.99)"/>
        </g>
      </g>
    </g>
  </g>
</svg>
