<svg xmlns="http://www.w3.org/2000/svg" width="505" height="255" viewBox="0 0 505 255">
  <g id="Grupo_1118226" data-name="Grupo 1118226" transform="translate(-180 -4955)">
    <g id="Grupo_1117396" data-name="Grupo 1117396" transform="translate(-735 507)">
      <g id="Grupo_1117307" data-name="Grupo 1117307" transform="translate(915 4448)">
        <rect id="Rectángulo_405611" data-name="Rectángulo 405611" width="505" height="255" fill="#dcecf7"/>
      </g>
    </g>
    <g id="Grupo_1118225" data-name="Grupo 1118225" transform="translate(-1004.306 11606)">
      <path id="Trazado_910610" data-name="Trazado 910610" d="M.433,96.591C5.269,144.7,79.108,229.659,128.666,224.678S184.739,126.641,179.9,78.541,130.962-4.511,81.405.473-4.405,48.491.433,96.591Z" transform="translate(1336.211 -6406.318) rotate(-105)" fill="#aed3f2"/>
      <path id="Trazado_910611" data-name="Trazado 910611" d="M6,237.4c0,54.445,97.993,113.913,152.052,113.913S270.191,291.84,270.191,237.4s-22.808-91.31-102.636-50.029C119.465,212.234,6,182.954,6,237.4Z" transform="translate(1284.422 -6783.438)" fill="#d9a171"/>
      <g id="Grupo_1118224" data-name="Grupo 1118224" transform="translate(1297.54 -6632.281)">
        <g id="Grupo_1118086" data-name="Grupo 1118086" transform="translate(28.613 21.208)">
          <g id="Grupo_1118070" data-name="Grupo 1118070" transform="translate(0 0)">
            <g id="Grupo_1118060" data-name="Grupo 1118060" transform="translate(47.225 178.239)">
              <g id="Grupo_1118049" data-name="Grupo 1118049" transform="translate(9.879)">
                <path id="Trazado_910612" data-name="Trazado 910612" d="M98.941,409.375l-.6.64L80.482,431.309l39.6.024,10.891-21.842Z" transform="translate(-80.482 -409.375)" fill="#ebebeb"/>
              </g>
              <g id="Grupo_1118051" data-name="Grupo 1118051" transform="translate(0 0.984)">
                <g id="Grupo_1118050" data-name="Grupo 1118050" transform="translate(0.188 0.011)">
                  <path id="Trazado_910613" data-name="Trazado 910613" d="M75.5,411.991l-.6.661L55,434.665l38.591.024,13.939-22.58Z" transform="translate(-55.005 -411.991)" fill="#fafafa"/>
                </g>
                <path id="Trazado_910614" data-name="Trazado 910614" d="M75.193,411.966s.048,0,.146-.006h.437l1.71-.006h6.5l23.238.042h.153l-.081.13L93.37,434.716l-.029.047H88l-33.3-.036h-.186l.127-.14,14.9-16.427,4.173-4.583,1.1-1.209c.252-.272.383-.4.383-.4s-.124.15-.366.425l-1.083,1.217L69.6,418.22,54.76,434.7l-.062-.141,33.3.007H93.29l-.084.047,13.949-22.573.073.13-23.211-.124-6.509-.047-1.718-.019-.443-.008A1.383,1.383,0,0,1,75.193,411.966Z" transform="translate(-54.508 -411.955)" fill="#e0e0e0"/>
              </g>
              <g id="Grupo_1118052" data-name="Grupo 1118052" transform="translate(8.635 19.239)">
                <path id="Trazado_910615" data-name="Trazado 910615" d="M103.972,460.488a1.39,1.39,0,0,1-.272.018l-.78.012-2.868.006-9.461-.058-9.462-.115-2.867-.058-.779-.025a.137.137,0,1,1,0-.04l.779-.011,2.868-.006,9.463.057,9.461.115,2.867.058.779.025a1.467,1.467,0,0,1,.272.022Z" transform="translate(-77.212 -460.111)" fill="#e0e0e0"/>
              </g>
              <g id="Grupo_1118053" data-name="Grupo 1118053" transform="translate(10.433 16.889)">
                <path id="Trazado_910616" data-name="Trazado 910616" d="M108.048,454.288a1.352,1.352,0,0,1-.266.018l-.762.012-2.8.007-9.23-.055-9.231-.113-2.8-.057-.761-.025a.133.133,0,1,1,0-.04l.761-.012,2.8-.007,9.232.055,9.231.113,2.8.057.761.025a1.335,1.335,0,0,1,.265.022Z" transform="translate(-81.939 -453.923)" fill="#e0e0e0"/>
              </g>
              <g id="Grupo_1118054" data-name="Grupo 1118054" transform="translate(12.638 14.512)">
                <path id="Trazado_910617" data-name="Trazado 910617" d="M113.353,448.035a1.29,1.29,0,0,1-.261.018l-.744.012-2.747.007-9.062-.053-9.063-.112-2.746-.057-.744-.025a.131.131,0,1,1,0-.04l.744-.012,2.747-.007,9.064.053,9.062.112,2.746.057.744.025a1.314,1.314,0,0,1,.26.022Z" transform="translate(-87.726 -447.673)" fill="#e0e0e0"/>
              </g>
              <g id="Grupo_1118055" data-name="Grupo 1118055" transform="translate(15.15 12.313)">
                <path id="Trazado_910618" data-name="Trazado 910618" d="M119.449,442.238a1.216,1.216,0,0,1-.255.018l-.732.012-2.691.007-8.876-.051-8.878-.11-2.69-.056-.732-.025a.128.128,0,1,1,0-.04l.732-.012,2.69-.007,8.878.052,8.877.11,2.69.056.732.025a1.2,1.2,0,0,1,.255.021Z" transform="translate(-94.341 -441.884)" fill="#e0e0e0"/>
              </g>
              <g id="Grupo_1118056" data-name="Grupo 1118056" transform="translate(16.62 10.084)">
                <path id="Trazado_910619" data-name="Trazado 910619" d="M123.316,436.152a1.231,1.231,0,0,1-.256.018l-.732.012-2.691.007-8.876-.052-8.878-.11-2.69-.056-.732-.025a1.214,1.214,0,0,1-.255-.022,1.25,1.25,0,0,1,.255-.018l.732-.012,2.69-.007,8.878.052,8.877.11,2.69.056.732.025A1.27,1.27,0,0,1,123.316,436.152Z" transform="translate(-98.207 -435.887)" fill="#e0e0e0"/>
              </g>
              <g id="Grupo_1118057" data-name="Grupo 1118057" transform="translate(18.795 7.78)">
                <path id="Trazado_910620" data-name="Trazado 910620" d="M129.027,430.094a1.225,1.225,0,0,1-.255.018l-.732.012-2.691.007-8.876-.051-8.877-.11-2.69-.056-.731-.025a1.229,1.229,0,0,1-.255-.022,1.25,1.25,0,0,1,.255-.018l.732-.012,2.69-.007,8.878.052,8.876.11,2.69.056.731.025a1.252,1.252,0,0,1,.255.021Z" transform="translate(-103.921 -429.83)" fill="#e0e0e0"/>
              </g>
              <g id="Grupo_1118058" data-name="Grupo 1118058" transform="translate(20.39 5.429)">
                <path id="Trazado_910621" data-name="Trazado 910621" d="M133.221,424.015a1.261,1.261,0,0,1-.256.017l-.732.008-2.691,0-8.876-.093-8.876-.15-2.69-.068-.731-.029a1.223,1.223,0,0,1-.255-.023,1.25,1.25,0,0,1,.255-.017l.732-.008,2.69,0,8.878.093,8.876.149,2.689.068.731.029a1.23,1.23,0,0,1,.256.024Z" transform="translate(-108.115 -423.648)" fill="#e0e0e0"/>
              </g>
              <g id="Grupo_1118059" data-name="Grupo 1118059" transform="translate(22.841 3.179)">
                <path id="Trazado_910622" data-name="Trazado 910622" d="M139.669,418.365a1.212,1.212,0,0,1-.256.017l-.732.008-2.691,0-8.876-.093-8.877-.15-2.689-.068-.732-.029a.128.128,0,1,1,0-.04l.732-.008,2.69.006,8.878.093,8.876.15,2.69.068.731.029a1.239,1.239,0,0,1,.256.022Z" transform="translate(-114.562 -417.897)" fill="#e0e0e0"/>
              </g>
            </g>
            <g id="Grupo_1118061" data-name="Grupo 1118061" transform="translate(0 53.752)">
              <path id="Trazado_910623" data-name="Trazado 910623" d="M79.872,224.242c0-2.681,1.614-4.385,3.906-4.385s3.88,1.681,3.88,4.385-1.592,4.386-3.88,4.386S79.872,226.924,79.872,224.242Zm5.538,0c0-1.7-.651-2.523-1.638-2.523-.964,0-1.637.837-1.637,2.523s.673,2.523,1.637,2.523C84.76,226.765,85.41,225.948,85.41,224.242Zm7.713-4.2h2.669L85.074,235.946H82.409Zm-2.578,11.7c0-2.682,1.614-4.386,3.879-4.386,2.287,0,3.906,1.7,3.906,4.386s-1.615,4.385-3.906,4.385C92.16,236.128,90.545,234.424,90.545,231.743Zm5.516,0c0-1.682-.651-2.523-1.637-2.523-.964,0-1.637.818-1.637,2.523s.672,2.523,1.637,2.523C95.411,234.265,96.062,233.424,96.062,231.743Z" transform="translate(-79.872 -219.857)" fill="#5e6178"/>
            </g>
            <g id="Grupo_1118065" data-name="Grupo 1118065" transform="translate(157.406 36.353)">
              <path id="Trazado_910624" data-name="Trazado 910624" d="M359.139,44.505a17.436,17.436,0,1,1-19.834-14.6A17.436,17.436,0,0,1,359.139,44.505Z" transform="translate(-324.467 -29.706)" fill="#5e6178"/>
              <g id="Grupo_1118062" data-name="Grupo 1118062" transform="translate(4.147 4.138)">
                <path id="Trazado_910625" data-name="Trazado 910625" d="M361.8,51.868A13.287,13.287,0,1,1,346.68,40.74,13.287,13.287,0,0,1,361.8,51.868Z" transform="translate(-335.372 -40.587)" fill="#6595bf"/>
              </g>
              <g id="Grupo_1118063" data-name="Grupo 1118063" transform="translate(3.902 3.63)">
                <path id="Trazado_910626" data-name="Trazado 910626" d="M361.334,50.634a7.815,7.815,0,0,1-.585-1.528,14.11,14.11,0,0,0-2.123-3.8,13.583,13.583,0,0,0-2.1-2.126,13.322,13.322,0,0,0-2.912-1.779,13.02,13.02,0,0,0-14.472,2.641,13.3,13.3,0,0,0-2.093,2.7,13.637,13.637,0,0,0-1.209,2.731,14.106,14.106,0,0,0-.638,4.3,7.82,7.82,0,0,1-.006,1.635,3.89,3.89,0,0,1-.39-1.612,12.282,12.282,0,0,1,.342-4.525,13.311,13.311,0,0,1,3.327-5.885,12.8,12.8,0,0,1,1.479-1.32,12.943,12.943,0,0,1,1.735-1.134,13.585,13.585,0,0,1,12.318-.389,13.316,13.316,0,0,1,5.2,4.326,12.307,12.307,0,0,1,1.924,4.11,3.905,3.905,0,0,1,.2,1.654Z" transform="translate(-334.731 -39.256)" fill="#484b5d"/>
              </g>
              <g id="Grupo_1118064" data-name="Grupo 1118064" transform="translate(11.514 8.129)">
                <path id="Trazado_910627" data-name="Trazado 910627" d="M363.335,67.961l.378,2.283-2.039.337-.372-2.222a9.792,9.792,0,0,1-5.346-.79l.709-2.673a8.351,8.351,0,0,0,4.195.792l-.564-3.405c-2.355-.175-5.007-.511-5.486-3.427-.357-2.161.9-4.278,4.065-5.176l-.372-2.263,2.039-.338.372,2.222a9.343,9.343,0,0,1,4.344.558l-.6,2.676a8.477,8.477,0,0,0-3.3-.544l.574,3.467c2.35.155,4.963.5,5.439,3.373C367.722,64.954,366.471,67.044,363.335,67.961ZM359.8,59.287l-.48-2.895c-1.04.423-1.37,1.086-1.258,1.758.122.713.8,1,1.743,1.136Zm4.319,4.333c-.118-.712-.769-1-1.7-1.164l.465,2.814c.986-.393,1.346-1,1.239-1.65Z" transform="translate(-354.75 -51.079)" fill="#5e6178"/>
              </g>
            </g>
            <g id="Grupo_1118069" data-name="Grupo 1118069" transform="translate(11.099)">
              <path id="Trazado_910628" data-name="Trazado 910628" d="M422.909,305.671a13.962,13.962,0,1,1-8.369-17.859,13.962,13.962,0,0,1,8.369,17.859Z" transform="translate(-395.81 -286.97)" fill="#a66d58"/>
              <g id="Grupo_1118066" data-name="Grupo 1118066" transform="translate(3.326 3.314)">
                <path id="Trazado_910629" data-name="Trazado 910629" d="M425.2,309.939a10.639,10.639,0,1,1-6.374-13.61,10.639,10.639,0,0,1,6.374,13.61Z" transform="translate(-404.549 -295.686)" fill="#d9a171"/>
              </g>
              <g id="Grupo_1118067" data-name="Grupo 1118067" transform="translate(3.874 2.911)">
                <path id="Trazado_910630" data-name="Trazado 910630" d="M426.161,308.98a6.32,6.32,0,0,1,.173-1.3,11.3,11.3,0,0,0-.04-3.483,10.9,10.9,0,0,0-.664-2.3,10.645,10.645,0,0,0-1.368-2.366,10.443,10.443,0,0,0-2.154-2.1,10.32,10.32,0,0,0-1.358-.837,11.305,11.305,0,0,0-1.515-.634,11.459,11.459,0,0,0-1.6-.388,10.411,10.411,0,0,0-4.57.285,10.649,10.649,0,0,0-2.5,1.1,10.9,10.9,0,0,0-1.9,1.458,11.292,11.292,0,0,0-2.1,2.782,6.248,6.248,0,0,1-.63,1.148,3.119,3.119,0,0,1,.343-1.283A9.829,9.829,0,0,1,408.26,298a10.662,10.662,0,0,1,4.592-2.867,10.251,10.251,0,0,1,1.545-.363,10.4,10.4,0,0,1,1.653-.134,10.871,10.871,0,0,1,8.813,4.439,10.657,10.657,0,0,1,2,5.031,9.857,9.857,0,0,1-.219,3.627,3.12,3.12,0,0,1-.484,1.243Z" transform="translate(-405.946 -294.64)" fill="#8e5642"/>
              </g>
              <g id="Grupo_1118068" data-name="Grupo 1118068" transform="translate(7.904 6.819)">
                <path id="Trazado_910631" data-name="Trazado 910631" d="M421.6,318.4l-.607,1.751-1.563-.543.591-1.7a7.842,7.842,0,0,1-3.458-2.6l1.521-1.609a6.7,6.7,0,0,0,2.647,2.162l.906-2.611c-1.589-1.023-3.326-2.275-2.551-4.51.576-1.657,2.273-2.661,4.836-2.086l.6-1.735,1.563.542-.591,1.7a7.479,7.479,0,0,1,2.842,2.054l-1.449,1.652a6.78,6.78,0,0,0-2.109-1.643l-.922,2.658c1.594,1.008,3.3,2.249,2.535,4.452C425.836,317.958,424.159,318.952,421.6,318.4Zm.837-7.452.77-2.22c-.893-.1-1.379.24-1.558.755-.192.547.174,1.007.786,1.464Zm1.381,4.7c.186-.548-.161-1-.751-1.47l-.744,2.157c.835.1,1.32-.187,1.493-.687Z" transform="translate(-416.565 -304.91)" fill="#a66d58"/>
              </g>
            </g>
          </g>
          <g id="Grupo_1118085" data-name="Grupo 1118085" transform="translate(104.773 175.565)">
            <g id="Grupo_1118071" data-name="Grupo 1118071" transform="translate(12.146 0.085)">
              <path id="Trazado_910632" data-name="Trazado 910632" d="M343.313,425.849l-33.933,1.1-26.311-24.414H316.04Z" transform="translate(-283.069 -402.535)" fill="#f5f5f5"/>
            </g>
            <g id="Grupo_1118072" data-name="Grupo 1118072" transform="translate(0 3.724)">
              <path id="Trazado_910633" data-name="Trazado 910633" d="M311.379,435.41l-33.933,1.1L251.135,412.1h32.971Z" transform="translate(-251.135 -412.1)" fill="#f5f5f5"/>
            </g>
            <g id="Grupo_1118073" data-name="Grupo 1118073" transform="translate(5.71 1.3)">
              <path id="Trazado_910634" data-name="Trazado 910634" d="M326.389,429.047l-33.933,1.1-26.311-24.414h32.97Z" transform="translate(-266.145 -405.733)" fill="#e0e0e0"/>
            </g>
            <g id="Grupo_1118075" data-name="Grupo 1118075" transform="translate(1.29)">
              <g id="Grupo_1118074" data-name="Grupo 1118074" transform="translate(0.219 0.085)">
                <path id="Trazado_910635" data-name="Trazado 910635" d="M288.068,402.535H255.1l26.311,24.414,35.019-1.134Z" transform="translate(-255.1 -402.535)" fill="#f5f5f5"/>
              </g>
              <path id="Trazado_910636" data-name="Trazado 910636" d="M287.719,402.394s.046.033.135.1l.393.314,1.529,1.239,5.787,4.719,20.571,16.838.179.146-.232.007-33.583,1.1-1.435.046h-.041l-.03-.027-26.3-24.419-.157-.146h.214l23.941.037,6.678.023,1.754.012c.4,0,.6.012.6.012s-.208.008-.607.013l-1.761.012-6.685.023-23.917.037.057-.145,26.316,24.4-.071-.026,1.435-.047,33.584-1.076-.052.154-20.5-16.88-5.765-4.761-1.519-1.263-.389-.327C287.762,402.44,287.719,402.394,287.719,402.394Z" transform="translate(-254.531 -402.314)" fill="#263238"/>
            </g>
            <g id="Grupo_1118079" data-name="Grupo 1118079" transform="translate(20.495 12.265)">
              <g id="Grupo_1118076" data-name="Grupo 1118076" transform="translate(2.308 1.887)">
                <path id="Trazado_910637" data-name="Trazado 910637" d="M334.581,439.532c0,.055-5.258.263-11.746.465s-11.752.324-11.753.269,5.257-.263,11.746-.465S334.579,439.478,334.581,439.532Z" transform="translate(-311.082 -439.519)" fill="#263238"/>
              </g>
              <g id="Grupo_1118077" data-name="Grupo 1118077" transform="translate(4.738 3.969)">
                <path id="Trazado_910638" data-name="Trazado 910638" d="M341.344,445.009c0,.054-5.341.262-11.932.465s-11.938.321-11.94.266,5.34-.262,11.933-.465S341.343,444.954,341.344,445.009Z" transform="translate(-317.472 -444.996)" fill="#263238"/>
              </g>
              <g id="Grupo_1118078" data-name="Grupo 1118078" transform="translate(7.532 6.058)">
                <path id="Trazado_910639" data-name="Trazado 910639" d="M348.86,450.5c0,.054-5.379.273-12.016.487s-12.022.345-12.024.29,5.378-.273,12.017-.488S348.858,450.444,348.86,450.5Z" transform="translate(-324.82 -450.486)" fill="#263238"/>
              </g>
              <path id="Trazado_910640" data-name="Trazado 910640" d="M329.2,434.573c0,.055-5.411.271-12.089.483s-12.094.339-12.1.286,5.409-.272,12.089-.483S329.2,434.518,329.2,434.573Z" transform="translate(-305.018 -434.56)" fill="#263238"/>
            </g>
            <g id="Grupo_1118084" data-name="Grupo 1118084" transform="translate(8.732 2.56)">
              <g id="Grupo_1118080" data-name="Grupo 1118080" transform="translate(2.329 1.889)">
                <path id="Trazado_910641" data-name="Trazado 910641" d="M302.651,414.034c0,.054-5.021.2-11.216.314s-11.22.171-11.221.116,5.021-.2,11.217-.314S302.649,413.979,302.651,414.034Z" transform="translate(-280.214 -414.012)" fill="#263238"/>
              </g>
              <g id="Grupo_1118081" data-name="Grupo 1118081" transform="translate(4.444 3.973)">
                <path id="Trazado_910642" data-name="Trazado 910642" d="M308.9,419.511c0,.055-5.175.2-11.561.321s-11.564.178-11.565.123,5.174-.2,11.561-.321S308.9,419.457,308.9,419.511Z" transform="translate(-285.774 -419.491)" fill="#263238"/>
              </g>
              <g id="Grupo_1118082" data-name="Grupo 1118082" transform="translate(6.108 6.058)">
                <path id="Trazado_910643" data-name="Trazado 910643" d="M314.415,424.99c0,.055-5.431.2-12.131.332s-12.134.186-12.135.134,5.43-.2,12.131-.332S314.414,424.936,314.415,424.99Z" transform="translate(-290.149 -424.97)" fill="#263238"/>
              </g>
              <g id="Grupo_1118083" data-name="Grupo 1118083" transform="translate(8.913 8.14)">
                <path id="Trazado_910644" data-name="Trazado 910644" d="M321.787,430.467c0,.055-5.43.2-12.13.332s-12.134.186-12.135.134,5.429-.2,12.131-.332S321.786,430.413,321.787,430.467Z" transform="translate(-297.522 -430.447)" fill="#263238"/>
              </g>
              <path id="Trazado_910645" data-name="Trazado 910645" d="M297.239,409.068a1.055,1.055,0,0,1-.234.023l-.674.029-2.479.067-8.183.147-8.183.093h-2.48l-.674-.008a1.039,1.039,0,0,1-.235-.017,1.076,1.076,0,0,1,.235-.023l.674-.028,2.479-.067,8.183-.147,8.183-.093h2.48l.674.008A1.049,1.049,0,0,1,297.239,409.068Z" transform="translate(-274.096 -409.044)" fill="#263238"/>
            </g>
          </g>
        </g>
        <g id="Grupo_1118143" data-name="Grupo 1118143" transform="translate(0 0)">
          <g id="Grupo_1118102" data-name="Grupo 1118102" transform="translate(29.645 88.098)">
            <g id="Grupo_1118087" data-name="Grupo 1118087" transform="translate(51.341)">
              <path id="Trazado_910646" data-name="Trazado 910646" d="M219.94,218.639l-7.02,8.722-29.276,8.151,4.371,47.288c1.348,18.536,3.245,23.079,4.557,35.4v10.048h83.152l11.607-96-28.674-6.595-6.169-7.02Z" transform="translate(-183.644 -218.639)" fill="#5e6178"/>
            </g>
            <g id="Grupo_1118088" data-name="Grupo 1118088" transform="translate(86.395 9.833)">
              <path id="Trazado_910647" data-name="Trazado 910647" d="M241.393,241.892l3.582,47.355,3.829,24.038,28.111-78.449L254.239,261.71Z" transform="translate(-241.393 -234.836)" fill="#fff"/>
            </g>
            <g id="Grupo_1118089" data-name="Grupo 1118089" transform="translate(93.399 7.024)">
              <path id="Trazado_910648" data-name="Trazado 910648" d="M252.931,314.847a1.5,1.5,0,0,1,.111-.23l.352-.66c.323-.591.787-1.438,1.379-2.521l5.125-9.244,17.011-30.439,9.274-16.517.034.186-4.036-3.41-.149-.125.166-.1,5.75-3.39-.059.12c-.629-5.6-1.142-10.171-1.5-13.36-.169-1.574-.3-2.807-.392-3.664-.04-.408-.071-.726-.093-.957s-.02-.328-.02-.328.025.11.057.324c.031.23.073.547.128.953.107.855.261,2.085.458,3.655.383,3.186.93,7.753,1.606,13.348l.009.079-.069.041-5.737,3.416.019-.223,4.047,3.4.093.078-.059.106-9.253,16.529-17.092,30.394-5.212,9.195-1.431,2.492-.378.644a1.528,1.528,0,0,1-.141.209Z" transform="translate(-252.931 -230.209)" fill="#263238"/>
            </g>
            <g id="Grupo_1118090" data-name="Grupo 1118090" transform="translate(75.808 8.719)">
              <path id="Trazado_910649" data-name="Trazado 910649" d="M241.543,315.947a1.419,1.419,0,0,1-.081-.223l-.205-.661-.763-2.552-2.75-9.4c-1.14-3.977-2.554-8.683-4.007-13.967-1.354-5.3-2.646-11.174-4.013-17.333-1.854-8.449-3.534-16.361-4.922-23.062l-.024-.116.112-.039,3.83-1.34-.017.23-4.663-2.471-.087-.046.036-.093,3.469-8.712.952-2.351.255-.607a1.252,1.252,0,0,1,.093-.2,1.192,1.192,0,0,1-.067.214l-.226.618c-.212.558-.513,1.353-.9,2.371-.8,2.075-1.953,5.054-3.376,8.749l-.051-.138,4.678,2.443.255.133-.272.093-3.824,1.359.087-.155c1.42,6.689,3.112,14.6,4.966,23.044,1.367,6.158,2.651,12.032,3.987,17.329,1.43,5.263,2.828,10,3.94,13.977s2.022,7.186,2.653,9.429c.3,1.1.539,1.964.706,2.568l.176.67A1.28,1.28,0,0,1,241.543,315.947Z" transform="translate(-223.952 -233.004)" fill="#263238"/>
            </g>
            <g id="Grupo_1118091" data-name="Grupo 1118091" transform="translate(0 16.873)">
              <path id="Trazado_910650" data-name="Trazado 910650" d="M150.406,246.435s-6.44,3.133-10.973,17.567c-3.3,10.486-16.7,46.6-16.7,46.6l-14.846-4.331s-10.927,13.609-8.457,18.352,20.56,14.551,20.56,14.551h21.178a17.4,17.4,0,0,0,6.055-8.824l12.109-40.78Z" transform="translate(-99.065 -246.435)" fill="#5e6178"/>
            </g>
            <g id="Grupo_1118092" data-name="Grupo 1118092" transform="translate(142.705 13.615)">
              <path id="Trazado_910651" data-name="Trazado 910651" d="M346.479,241.068a26.086,26.086,0,0,1,9.32,9.573c3.7,6.575,33.215,54.613,35.661,66,3.653,17.011-3.645,20.4-3.645,20.4h-10.2l-25.246-.142-3.186-19.758,11.224-2.4-20.8-23.067-1.378,2.352-4.069-32.93Z" transform="translate(-334.158 -241.068)" fill="#5e6178"/>
            </g>
            <g id="Grupo_1118093" data-name="Grupo 1118093" transform="translate(54.01 36.708)">
              <path id="Trazado_910652" data-name="Trazado 910652" d="M188.048,279.112c.087-.007.837,8.162,1.68,18.244s1.452,18.264,1.364,18.272-.837-8.16-1.679-18.246S187.962,279.118,188.048,279.112Z" transform="translate(-188.04 -279.112)" fill="#263238"/>
            </g>
            <g id="Grupo_1118094" data-name="Grupo 1118094" transform="translate(148.025 27.566)">
              <path id="Trazado_910653" data-name="Trazado 910653" d="M348.437,264.051c.086.011-1.076,10.2-2.6,22.764s-2.824,22.738-2.912,22.728,1.076-10.2,2.6-22.766S348.351,264.041,348.437,264.051Z" transform="translate(-342.924 -264.051)" fill="#263238"/>
            </g>
            <g id="Grupo_1118095" data-name="Grupo 1118095" transform="translate(159.872 85.95)">
              <path id="Trazado_910654" data-name="Trazado 910654" d="M363.789,383.9a4.572,4.572,0,0,1,.285-.363,12.611,12.611,0,0,0,.758-1.08,17.667,17.667,0,0,0,1.953-4.419,21.558,21.558,0,0,0,.7-3.268,15.3,15.3,0,0,0,.165-3.813,8.984,8.984,0,0,0-1.407-3.911,10.616,10.616,0,0,0-3.2-3.132c-.093-.057-.186-.113-.27-.158l-.338-.186.366-.108a79.369,79.369,0,0,1,15.594-2.91c2.021-.172,3.658-.249,4.79-.285.565-.02,1.005-.023,1.3-.026a2.567,2.567,0,0,1,.455.013,2.417,2.417,0,0,1-.452.05l-1.3.085c-1.129.073-2.762.186-4.775.384a84.662,84.662,0,0,0-15.529,2.992l.029-.292c.1.053.193.109.29.17a10.845,10.845,0,0,1,3.294,3.231,9.224,9.224,0,0,1,1.437,4.048,15.36,15.36,0,0,1-.2,3.88A21.113,21.113,0,0,1,367,378.1a16.8,16.8,0,0,1-2.065,4.423,10.041,10.041,0,0,1-.812,1.053A1.734,1.734,0,0,1,363.789,383.9Z" transform="translate(-362.44 -360.237)" fill="#263238"/>
            </g>
            <g id="Grupo_1118096" data-name="Grupo 1118096" transform="translate(93.314 91.444)">
              <path id="Trazado_910655" data-name="Trazado 910655" d="M252.95,387.45c-.086,0-.158-4.067-.158-9.083s.071-9.084.158-9.084.158,4.066.158,9.084S253.037,387.45,252.95,387.45Z" transform="translate(-252.792 -369.283)" fill="#263238"/>
            </g>
            <g id="Grupo_1118098" data-name="Grupo 1118098" transform="translate(115.538 62.995)">
              <g id="Grupo_1118097" data-name="Grupo 1118097" transform="translate(0 0)">
                <path id="Trazado_910656" data-name="Trazado 910656" d="M314.709,328.736a4.269,4.269,0,0,1-.019-.431q-.008-.446-.022-1.209c-.013-1.07-.03-2.594-.052-4.509l.093.093-25.156.064c.071-.071-.158.158.156-.158v6.153l-.154-.154,17.906.07,5.3.045,1.438.02.377.01a.811.811,0,0,1,.135.009,3.667,3.667,0,0,1-.472.02l-1.4.02-5.267.045-18.014.071H289.4v-6.308c.317-.315.093-.087.16-.158l25.156.064h.093v.093c-.022,1.94-.04,3.482-.052,4.565q-.014.753-.022,1.191A2.84,2.84,0,0,1,314.709,328.736Z" transform="translate(-289.4 -322.415)" fill="#263238"/>
              </g>
            </g>
            <g id="Grupo_1118099" data-name="Grupo 1118099" transform="translate(50.634 18.257)">
              <path id="Trazado_910657" data-name="Trazado 910657" d="M185.864,264.458c-.085.019-.91-3.492-1.842-7.838s-1.619-7.886-1.533-7.9.91,3.491,1.842,7.838S185.95,264.44,185.864,264.458Z" transform="translate(-182.481 -248.716)" fill="#263238"/>
            </g>
            <g id="Grupo_1118100" data-name="Grupo 1118100" transform="translate(94.793 25.314)" opacity="0.3">
              <path id="Trazado_910658" data-name="Trazado 910658" d="M255.228,324.2l35.906-55.072-5.181-5.007,2.962-3.783-5.744,3.4,4.041,3.4Z" transform="translate(-255.228 -260.341)"/>
            </g>
            <g id="Grupo_1118101" data-name="Grupo 1118101" transform="translate(6.095 91.02)" opacity="0.3">
              <path id="Trazado_910659" data-name="Trazado 910659" d="M109.108,368.588v3.058l40.755.128v-3.188Z" transform="translate(-109.108 -368.587)"/>
            </g>
          </g>
          <g id="Grupo_1118122" data-name="Grupo 1118122" transform="translate(85.202)">
            <g id="Grupo_1118103" data-name="Grupo 1118103" transform="translate(0 12.89)">
              <path id="Trazado_910660" data-name="Trazado 910660" d="M190.8,148.462a6.038,6.038,0,0,0,5.672-2.534,7.194,7.194,0,0,1-4.358-.24c-1.32-.672-2.065-2.615-1.031-3.675.806-.827,2.139-.684,3.289-.769a7.115,7.115,0,0,0,6.051-4.644c.975-2.8.083-5.858-.267-8.806A24.25,24.25,0,0,1,210.3,105.411l18.458-10.67c6.7,8.567,8.781,20.114,7.393,30.9s-5.963,20.923-11.461,30.3a36,36,0,0,1-5.569,7.663,14.253,14.253,0,0,1-8.295,4.256,8.555,8.555,0,0,1,1.366-7.725,18.628,18.628,0,0,1-13.726-4.916l3.956-3.034a14.448,14.448,0,0,1-11.629-3.72Z" transform="translate(-190.593 -94.741)" fill="#263238"/>
            </g>
            <g id="Grupo_1118114" data-name="Grupo 1118114" transform="translate(16.243 13.495)">
              <path id="Trazado_910661" data-name="Trazado 910661" d="M272.4,118.748a17.3,17.3,0,0,0-12.554-16.291L236.7,95.845c-10.043-1.375-17.123,10.824-18.071,20.915-1.054,11.212-1.843,23.052-.77,31.475,2.158,16.936,15.01,19.479,15.01,19.479,0-.025-.428,15.263-.558,20.186l11.771,24.611,22.808-31.478,5.554-62.083C272.463,118.671,272.412,119.136,272.4,118.748Z" transform="translate(-217.351 -95.738)" fill="#efbc9f"/>
              <g id="Grupo_1118104" data-name="Grupo 1118104" transform="translate(5.728 33.097)">
                <path id="Trazado_910662" data-name="Trazado 910662" d="M226.788,152.157A2.162,2.162,0,0,0,228.8,154.4a2.069,2.069,0,0,0,2.288-1.88,2.163,2.163,0,0,0-2.015-2.246,2.068,2.068,0,0,0-2.289,1.88Z" transform="translate(-226.786 -150.264)" fill="#263238"/>
              </g>
              <g id="Grupo_1118105" data-name="Grupo 1118105" transform="translate(3.592 25.553)">
                <path id="Trazado_910663" data-name="Trazado 910663" d="M223.3,139.98c.259.29,1.934-.871,4.26-.793,2.325.044,4,1.293,4.256,1.016.127-.123-.13-.64-.856-1.2a5.929,5.929,0,0,0-3.4-1.162,5.692,5.692,0,0,0-3.4.984C223.432,139.348,223.173,139.848,223.3,139.98Z" transform="translate(-223.268 -137.834)" fill="#263238"/>
              </g>
              <g id="Grupo_1118106" data-name="Grupo 1118106" transform="translate(25.397 33.095)">
                <path id="Trazado_910664" data-name="Trazado 910664" d="M259.189,152.157a2.161,2.161,0,0,0,2.017,2.245,2.069,2.069,0,0,0,2.288-1.88,2.165,2.165,0,0,0-2.015-2.247,2.069,2.069,0,0,0-2.289,1.882Z" transform="translate(-259.187 -150.262)" fill="#263238"/>
              </g>
              <g id="Grupo_1118107" data-name="Grupo 1118107" transform="translate(25.687 26.182)">
                <path id="Trazado_910665" data-name="Trazado 910665" d="M259.7,141.019c.26.29,1.937-.871,4.262-.793,2.325.045,4,1.293,4.255,1.016.127-.122-.126-.639-.856-1.2a5.935,5.935,0,0,0-3.4-1.163,5.7,5.7,0,0,0-3.4.984C259.827,140.386,259.567,140.889,259.7,141.019Z" transform="translate(-259.665 -138.872)" fill="#263238"/>
              </g>
              <g id="Grupo_1118108" data-name="Grupo 1118108" transform="translate(12.079 27.047)">
                <path id="Trazado_910666" data-name="Trazado 910666" d="M243.073,159.641a15.4,15.4,0,0,0-3.757-.8c-.591-.079-1.15-.215-1.238-.623a3.021,3.021,0,0,1,.45-1.749l1.9-4.468c2.637-6.364,4.566-11.605,4.308-11.708s-2.6,4.969-5.241,11.335q-.953,2.354-1.823,4.5a3.441,3.441,0,0,0-.379,2.325,1.488,1.488,0,0,0,.95.9,4.019,4.019,0,0,0,1,.171A15.7,15.7,0,0,0,243.073,159.641Z" transform="translate(-237.23 -140.293)" fill="#263238"/>
              </g>
              <g id="Grupo_1118109" data-name="Grupo 1118109" transform="translate(15.415 66.617)">
                <path id="Trazado_910667" data-name="Trazado 910667" d="M265.38,205.482s-5.816,11.421-22.636,9.325l.108-3.965A42.482,42.482,0,0,0,265.38,205.482Z" transform="translate(-242.744 -205.482)" fill="#7c5142"/>
              </g>
              <g id="Grupo_1118110" data-name="Grupo 1118110" transform="translate(26.676 19.219)">
                <path id="Trazado_910668" data-name="Trazado 910668" d="M261.305,129.006c.21.639,2.541.412,5.26.824,2.728.359,4.9,1.225,5.283.669.17-.267-.2-.873-1.067-1.513a9.254,9.254,0,0,0-8.032-1.137C261.736,128.221,261.216,128.7,261.305,129.006Z" transform="translate(-261.295 -127.398)" fill="#263238"/>
              </g>
              <g id="Grupo_1118111" data-name="Grupo 1118111" transform="translate(4.533 18.316)">
                <path id="Trazado_910669" data-name="Trazado 910669" d="M224.872,128.2c.392.54,2.011.041,3.939.074,1.929-.034,3.548.465,3.94-.076.173-.263-.068-.8-.766-1.322a5.7,5.7,0,0,0-6.348,0C224.94,127.4,224.7,127.938,224.872,128.2Z" transform="translate(-224.818 -125.913)" fill="#263238"/>
              </g>
              <g id="Grupo_1118112" data-name="Grupo 1118112" transform="translate(20.66 48.537)">
                <path id="Trazado_910670" data-name="Trazado 910670" d="M257.373,178.091A3.035,3.035,0,0,0,254.3,175.7a3.173,3.173,0,0,0-2.489,1.665,3.906,3.906,0,0,0-.225,3.032l.043.219a3.456,3.456,0,0,0,3.867.938,3.232,3.232,0,0,0,1.874-3.461Z" transform="translate(-251.384 -175.695)" fill="#7c5142"/>
              </g>
              <g id="Grupo_1118113" data-name="Grupo 1118113" transform="translate(19.216 47.009)">
                <path id="Trazado_910671" data-name="Trazado 910671" d="M249.008,179.628c.007-.353,2.355-.174,4.185-2.053s1.767-4.4,2.093-4.393c.15-.021.412.593.358,1.652a5.868,5.868,0,0,1-1.613,3.677,5.109,5.109,0,0,1-3.495,1.571C249.544,180.095,248.982,179.787,249.008,179.628Z" transform="translate(-249.007 -173.181)" fill="#263238"/>
              </g>
            </g>
            <g id="Grupo_1118115" data-name="Grupo 1118115" transform="translate(7.627)">
              <path id="Trazado_910672" data-name="Trazado 910672" d="M259.039,83.164c-2.6-4.135-8.753-8.454-13.567-9.3-5.486-.96-8.8-.019-12.4,3.276,0,0-2.807,2.71-5.44,3.221s-4.835.078-7.973,1.684c-4.289,2.193-6.169,7.928-8.155,12.316-2.47,5.454-5.989,10.472-7.6,16.237s-.753,12.849,4.1,16.347c-.837-4.418-1.527-9.278.293-13.276a11.578,11.578,0,0,0,.294,4.784c.909-2.594,1.868-5.271,3.751-7.274,1.777-1.889,4.233-3.018,6.063-4.855,2.689-2.7,3.927-6.812,7.195-8.77,3.4-2.037,7.7-1.023,11.662-1a22.345,22.345,0,0,0,17.372-8.369l-.986-.083a27.645,27.645,0,0,0,5.39-4.937Z" transform="translate(-203.158 -73.509)" fill="#263238"/>
            </g>
            <g id="Grupo_1118116" data-name="Grupo 1118116" transform="translate(50.511 8.337)">
              <path id="Trazado_910673" data-name="Trazado 910673" d="M311.586,129.792c-1.513-4.957-4.169-9.5-5.831-14.4-1.618-4.782-2.288-9.891-4.436-14.459-2.892-6.145-8.3-14.1-16.718-13.67l-.576.506a18,18,0,0,0-8.487,1.013l-.128,6.564L273.8,96.768c.677,1.3,1.318,2.562,1.938,3.8a41.508,41.508,0,0,0,2.146,7.224,18.744,18.744,0,0,0,4.04,6.144c14.506,34.728,1.349,36.922,7.885,56.826l4.111-11.395a20.318,20.318,0,0,0,8.13-8.758l.724,3.61a20.936,20.936,0,0,0,5.667-12.934l1.885,3.465C313.307,140.513,313.1,134.752,311.586,129.792Z" transform="translate(-273.8 -87.243)" fill="#263238"/>
            </g>
            <g id="Grupo_1118120" data-name="Grupo 1118120" transform="translate(63.14 48.664)">
              <path id="Trazado_910674" data-name="Trazado 910674" d="M295.014,154.628c.226-.565,10.712-4.013,10.534,7.021-.173,10.721-10.925,8.3-10.938,8S295.014,154.628,295.014,154.628Z" transform="translate(-294.61 -153.676)" fill="#efbc9f"/>
              <g id="Grupo_1118117" data-name="Grupo 1118117" transform="translate(3.375 3.529)">
                <path id="Trazado_910675" data-name="Trazado 910675" d="M300.179,167.933c.048-.033.186.135.5.285a1.86,1.86,0,0,0,1.395.056c1.141-.394,2.129-2.173,2.218-4.1a6.162,6.162,0,0,0-.471-2.683,2.157,2.157,0,0,0-1.376-1.461.949.949,0,0,0-1.116.49c-.15.3-.086.512-.142.53-.031.026-.226-.186-.132-.625a1.19,1.19,0,0,1,.434-.663,1.406,1.406,0,0,1,1.038-.253,2.624,2.624,0,0,1,1.919,1.7,6.342,6.342,0,0,1,.59,3c-.111,2.158-1.254,4.158-2.813,4.577a2,2,0,0,1-1.7-.316C300.2,168.193,300.142,167.952,300.179,167.933Z" transform="translate(-300.169 -159.489)" fill="#7c5142"/>
              </g>
              <g id="Grupo_1118119" data-name="Grupo 1118119" transform="translate(2.582 13.799)">
                <g id="Grupo_1118118" data-name="Grupo 1118118" transform="translate(0.178 0.079)">
                  <path id="Trazado_910676" data-name="Trazado 910676" d="M300.954,176.562a2.11,2.11,0,1,1-.5.144" transform="translate(-299.166 -176.537)" fill="#fff"/>
                </g>
                <path id="Trazado_910677" data-name="Trazado 910677" d="M300.325,176.654a2.883,2.883,0,0,0-1,1.413,1.816,1.816,0,0,0,.372,1.693,1.875,1.875,0,0,0,3.326-.955,1.818,1.818,0,0,0-.585-1.632,2.883,2.883,0,0,0-1.6-.663c-.006-.027.167-.106.506-.1a2.187,2.187,0,0,1,1.323.506,2.139,2.139,0,0,1,.805,1.953,2.3,2.3,0,0,1-4.118,1.183,2.146,2.146,0,0,1-.358-2.086,2.19,2.19,0,0,1,.854-1.131C300.128,176.653,300.316,176.629,300.325,176.654Z" transform="translate(-298.864 -176.406)" fill="#263238"/>
              </g>
            </g>
            <g id="Grupo_1118121" data-name="Grupo 1118121" transform="translate(51.36 8.542)">
              <path id="Trazado_910678" data-name="Trazado 910678" d="M275.189,99.578c.213.085,1.2-3.549,4.19-6.92,2.938-3.416,6.4-4.888,6.292-5.087a5.958,5.958,0,0,0-2.262.9,17.389,17.389,0,0,0-7.625,8.741A5.991,5.991,0,0,0,275.189,99.578Z" transform="translate(-275.189 -87.571)" fill="#455a64"/>
            </g>
          </g>
          <g id="Grupo_1118134" data-name="Grupo 1118134" transform="translate(0 110.407)">
            <g id="Grupo_1118123" data-name="Grupo 1118123" transform="translate(9.094 24.625)">
              <path id="Trazado_910679" data-name="Trazado 910679" d="M96.56,343.1l-8-9.4s-5.615,0-8.421-2.667-8-5.193-5.894-9.965a5.387,5.387,0,0,1-.49-6.175l.069-.842s-6.315-2.667-4.491-5.895,5.333-1.824,5.333-1.824-6.9-4.66-8.14-5.936c-3.323-3.413.25-5.711,3.946-3.668,6.115,3.381,26.789,13.112,28.193,20.13v3.057s5.754,7.048,5.754,7.469S104,338.755,96.56,343.1Z" transform="translate(-65.209 -295.96)" fill="#efbc9f"/>
            </g>
            <g id="Grupo_1118124" data-name="Grupo 1118124" transform="translate(0 0.121)">
              <path id="Trazado_910680" data-name="Trazado 910680" d="M50.232,256.371c-.253-.316,31.4,50.7,31.4,50.7l1.436,17.116h49.388L127.869,304.7s-8.537-22.886-8.442-23.155c.186-.52-15.978-25.952-15.978-25.952Z" transform="translate(-50.23 -255.592)" fill="#fff"/>
            </g>
            <g id="Grupo_1118125" data-name="Grupo 1118125" transform="translate(0.002 0)">
              <path id="Trazado_910681" data-name="Trazado 910681" d="M50.233,256.287s.332-.017.968-.032l2.813-.059,10.719-.186,38.716-.623h.072l.038.06c4.231,6.671,8.883,13.982,13.7,21.881.6.99,1.2,1.988,1.781,3.014.144.258.287.514.42.788a1.847,1.847,0,0,1,.093.224.251.251,0,0,1,.017.111c-.012.08,0,.051.007.057s.007,0,.006,0l.015.051.131.415.583,1.679,2.475,6.808,5.223,14.091v.019c1.39,5.91,2.848,12.109,4.333,18.418.085.357.168.715.251,1.066l.046.194h-.2l-49.388-.013h-.123l-.011-.133Q82.18,315.135,81.5,307l.02.06-22.76-36.817-6.323-10.295-1.651-2.716-.417-.7a1.666,1.666,0,0,1-.131-.243l31.505,50.628.017.027v.033l1.448,17.115-.144-.133,49.388-.013-.154.194-.251-1.067-4.33-18.419.007.019L122.5,290.577l-2.466-6.816-.584-1.686-.135-.43-.016-.055a.558.558,0,0,1-.014-.108v-.054c-.111-.048.162.037.093.016a.222.222,0,0,0-.085-.013c-.042,0-.009.025-.019.02l-.007-.02a1.464,1.464,0,0,0-.078-.186c-.125-.258-.268-.515-.41-.77-.575-1.023-1.176-2.018-1.772-3.007-4.809-7.9-9.452-15.217-13.67-21.894l.11.06-38.766.506-10.7.122-2.8.023C50.553,256.295,50.233,256.287,50.233,256.287Z" transform="translate(-50.233 -255.388)" fill="#263238"/>
            </g>
            <g id="Grupo_1118126" data-name="Grupo 1118126" transform="translate(21.439 26.566)">
              <path id="Trazado_910682" data-name="Trazado 910682" d="M128.889,299.936a2.342,2.342,0,0,1-.442.02l-1.263-.006-4.649-.088c-3.922-.093-9.339-.238-15.322-.335s-11.4-.086-15.322.039c-1.959.053-3.544.135-4.638.2l-1.261.073a2.272,2.272,0,0,1-.442,0,2.413,2.413,0,0,1,.436-.067l1.257-.132c1.094-.1,2.679-.216,4.639-.3,3.922-.186,9.346-.221,15.336-.131s11.4.279,15.324.428l4.642.186,1.262.065A2.282,2.282,0,0,1,128.889,299.936Z" transform="translate(-85.55 -299.16)" fill="#263238"/>
            </g>
            <g id="Grupo_1118127" data-name="Grupo 1118127" transform="translate(39.686 46.332)">
              <path id="Trazado_910683" data-name="Trazado 910683" d="M146.771,335.446c-.01.086-7-.676-15.6-1.7s-15.574-1.93-15.564-2.017,6.994.676,15.6,1.7S146.781,335.359,146.771,335.446Z" transform="translate(-115.608 -331.719)" fill="#263238"/>
            </g>
            <g id="Grupo_1118129" data-name="Grupo 1118129" transform="translate(25.342 46.074)">
              <g id="Grupo_1118128" data-name="Grupo 1118128" transform="translate(0 0)">
                <path id="Trazado_910684" data-name="Trazado 910684" d="M91.978,338.729l9.24-.589a4.014,4.014,0,0,0,2.716-.866,2.466,2.466,0,0,0-.632-3.43l-10.588-2.552" transform="translate(-91.978 -331.293)" fill="#efbc9f"/>
              </g>
              <path id="Trazado_910685" data-name="Trazado 910685" d="M92.715,331.291a4.659,4.659,0,0,1,.818.14l2.232.491,7.57,1.767.021.006.017.009a2.2,2.2,0,0,1,.888,1.023,3,3,0,0,1,.273,1.349,1.925,1.925,0,0,1-.547,1.356,2.736,2.736,0,0,1-1.241.651,15.181,15.181,0,0,1-2.544.261l-4.278.239-2.883.134a6.793,6.793,0,0,1-1.062.006,6.95,6.95,0,0,1,1.054-.128l2.883-.233,4.278-.306a15.571,15.571,0,0,0,2.484-.27,2.445,2.445,0,0,0,1.1-.58,1.616,1.616,0,0,0,.448-1.141,2.375,2.375,0,0,0-1-2.089l.038.015-7.553-1.871-2.214-.581a4.753,4.753,0,0,1-.789-.247Z" transform="translate(-91.978 -331.291)" fill="#7c5142"/>
            </g>
            <g id="Grupo_1118131" data-name="Grupo 1118131" transform="translate(21.438 42.757)">
              <g id="Grupo_1118130" data-name="Grupo 1118130" transform="translate(0 0.001)">
                <path id="Trazado_910686" data-name="Trazado 910686" d="M93.736,325.83a45.508,45.508,0,0,1,8.209,2.314,1.821,1.821,0,0,1,1.209,2.117,1.471,1.471,0,0,1-.607,1.13,2.94,2.94,0,0,1-1.3.358,33.5,33.5,0,0,1-7.855-.478c-2.646-.366-6.314,0-7.847.81" transform="translate(-85.549 -325.83)" fill="#efbc9f"/>
              </g>
              <path id="Trazado_910687" data-name="Trazado 910687" d="M85.553,332.079a1.09,1.09,0,0,1,.261-.158,6.037,6.037,0,0,1,.814-.315,14.9,14.9,0,0,1,3.154-.544A19.46,19.46,0,0,1,92,331.015a24.4,24.4,0,0,1,2.525.259,33.839,33.839,0,0,0,5.743.38,12.553,12.553,0,0,0,1.488-.137,1.4,1.4,0,0,0,1.087-.684,1.889,1.889,0,0,0-.493-2.325,6.076,6.076,0,0,0-1.158-.5l-1.152-.413c-.744-.258-1.447-.482-2.09-.674-1.287-.384-2.343-.642-3.076-.814a9.852,9.852,0,0,1-1.135-.279,1.115,1.115,0,0,1,.3.023c.2.025.486.072.857.138.744.136,1.811.361,3.112.72.651.179,1.36.391,2.113.641l1.163.4a6.092,6.092,0,0,1,1.227.522,1.8,1.8,0,0,1,.781,1.209,2.574,2.574,0,0,1-.176,1.488,1.345,1.345,0,0,1-.558.591,2.494,2.494,0,0,1-.744.263,12.462,12.462,0,0,1-1.537.144,32.394,32.394,0,0,1-5.794-.4c-.885-.125-1.712-.256-2.5-.286a20.74,20.74,0,0,0-2.187.007,16.8,16.8,0,0,0-3.136.44C85.935,331.907,85.566,332.1,85.553,332.079Z" transform="translate(-85.549 -325.827)" fill="#7c5142"/>
            </g>
            <g id="Grupo_1118133" data-name="Grupo 1118133" transform="translate(17.873 35.101)">
              <g id="Grupo_1118132" data-name="Grupo 1118132" transform="translate(0 0)">
                <path id="Trazado_910688" data-name="Trazado 910688" d="M80.824,313.216l7.284,4.064a7.415,7.415,0,0,1,2.906,2.348,2.55,2.55,0,0,1-.452,3.385,3.65,3.65,0,0,1-2.876.093,70.644,70.644,0,0,1-8.011-2.545" transform="translate(-79.675 -313.216)" fill="#efbc9f"/>
              </g>
              <path id="Trazado_910689" data-name="Trazado 910689" d="M79.676,320.561a7.468,7.468,0,0,1,1.023.319c.651.219,1.6.538,2.774.9s2.584.768,4.162,1.161a4.491,4.491,0,0,0,2.431.137,1.685,1.685,0,0,0,.939-.764,2.315,2.315,0,0,0,.279-1.254,3.216,3.216,0,0,0-1.171-2.264,11.327,11.327,0,0,0-2.092-1.395l-3.765-2.139L81.73,313.8a6.983,6.983,0,0,1-.9-.576,7.052,7.052,0,0,1,.964.465l2.574,1.378,3.8,2.079a11.354,11.354,0,0,1,2.158,1.424,4.32,4.32,0,0,1,.885,1.081,3.161,3.161,0,0,1,.393,1.395,2.623,2.623,0,0,1-.321,1.426,2,2,0,0,1-1.116.9,4.717,4.717,0,0,1-2.6-.148c-1.581-.412-2.988-.837-4.159-1.232s-2.106-.744-2.747-1c-.321-.128-.568-.232-.734-.306a.939.939,0,0,1-.243-.127Z" transform="translate(-79.675 -313.216)" fill="#7c5142"/>
            </g>
          </g>
          <g id="Grupo_1118135" data-name="Grupo 1118135" transform="translate(174.626 177.792)">
            <path id="Trazado_910690" data-name="Trazado 910690" d="M355.448,384.59l-3.462-.979-11-1.023-3.076-4.092,2.144-8.826,13.75-3.27C360.149,370.916,358.435,378.443,355.448,384.59Z" transform="translate(-337.908 -366.4)" fill="#efbc9f"/>
          </g>
          <g id="Grupo_1118142" data-name="Grupo 1118142" transform="translate(152.433 171.137)">
            <g id="Grupo_1118137" data-name="Grupo 1118137" transform="translate(0 2.581)">
              <g id="Grupo_1118136" data-name="Grupo 1118136" transform="translate(0.149 0.034)">
                <path id="Trazado_910691" data-name="Trazado 910691" d="M309.183,359.828a9.463,9.463,0,0,0-3.861.3,5.125,5.125,0,0,0-3.058,4.006c-.355,2.831-.465,5.125-.67,7.76a2.271,2.271,0,0,0,4.052,1.593,8.259,8.259,0,0,0,1.726-3.243c.431-1.16.887-3.934,1.559-4.177,1.915-.69,4.522,2.6,5.963.989l2.612-6.372C313.456,360.293,313.23,360.225,309.183,359.828Z" transform="translate(-301.59 -359.751)" fill="#efbc9f"/>
              </g>
              <path id="Trazado_910692" data-name="Trazado 910692" d="M309.088,359.8a.472.472,0,0,1,.149,0l.432.026,1.659.138,6.091.585.154.015-.059.144c-.752,1.855-1.627,4.016-2.587,6.383l-.008.021-.017.02a1.488,1.488,0,0,1-1.254.49,3.975,3.975,0,0,1-1.293-.391,14.1,14.1,0,0,0-2.45-1.066l-.323-.051h-.323a2.626,2.626,0,0,0-.311.063c-.112.021-.137.064-.214.142a4.3,4.3,0,0,0-.541,1.246c-.285.908-.465,1.868-.812,2.819a11.515,11.515,0,0,1-1.125,2.475,3.835,3.835,0,0,1-.937.992,3.15,3.15,0,0,1-1.246.523,2.4,2.4,0,0,1-1.336-.115,2.154,2.154,0,0,1-.986-.877,2.6,2.6,0,0,1-.4-1.218c-.009-.444.051-.809.072-1.209.117-1.567.22-3.06.357-4.454q.1-1.046.223-2.015a5.418,5.418,0,0,1,.477-1.832,4.9,4.9,0,0,1,4.544-2.952,11.527,11.527,0,0,1,1.536.029c.175.016.308.031.4.045a.429.429,0,0,1,.134.029,4.594,4.594,0,0,1-.534-.009,14.381,14.381,0,0,0-1.525.031,5.219,5.219,0,0,0-2.286.613,5.078,5.078,0,0,0-2.062,2.31,5.186,5.186,0,0,0-.438,1.767q-.111.966-.2,2.01c-.125,1.395-.218,2.883-.327,4.451-.019.383-.077.81-.065,1.172a2.315,2.315,0,0,0,.363,1.076,1.85,1.85,0,0,0,.846.754,2.1,2.1,0,0,0,1.165.093A3.007,3.007,0,0,0,306,372.681a11.322,11.322,0,0,0,1.09-2.409c.331-.91.518-1.878.808-2.8a4.453,4.453,0,0,1,.6-1.354.764.764,0,0,1,.158-.148.516.516,0,0,1,.2-.093,2.722,2.722,0,0,1,.372-.075c.126,0,.252-.007.372,0l.363.059a14.039,14.039,0,0,1,2.511,1.095,3.721,3.721,0,0,0,1.188.372,1.191,1.191,0,0,0,1.023-.388l-.025.041,2.638-6.361.093.158c-2.57-.262-4.65-.52-6.081-.687l-1.653-.2-.43-.059a.52.52,0,0,1-.143-.034Z" transform="translate(-301.348 -359.685)" fill="#7c5142"/>
            </g>
            <g id="Grupo_1118141" data-name="Grupo 1118141" transform="translate(3.842 0)">
              <g id="Grupo_1118138" data-name="Grupo 1118138" transform="translate(0.122 0.083)">
                <path id="Trazado_910693" data-name="Trazado 910693" d="M334.852,358.989a3.866,3.866,0,0,0-3.209.919s-.69-3.035-3.113-3.632c-1.759-.433-4,1.372-4,1.372s-1.519-3.036-5.566-1.767c-3.348,1.046-10.375,21.817-10.978,23.21-.691,1.594,2.149,3.591,3.72,1.982,1.642-1.686,7.16-10.912,7.16-10.912L315.2,383.1a2.477,2.477,0,0,0,.036,1.279,2.7,2.7,0,0,0,4.815.378c2.277-3.085,4.6-9.443,4.6-9.443l2.237-4.879s-4.177,12.926-2.659,14.106,3.467.723,4.859-2.314,6.453-12.651,6.453-12.651l2.4-1.265-.885,3.036s-4.6,2.4-3.567,4.557,3.207,1.512,5.339.506,3.987-6,5.127-8.055c1.018-1.837,1.116-7.243-3.249-7.449a3.335,3.335,0,0,0-2.5,1l-.218.218S337.269,359.419,334.852,358.989Z" transform="translate(-307.88 -355.57)" fill="#efbc9f"/>
              </g>
              <path id="Trazado_910694" data-name="Trazado 910694" d="M334.768,358.936s.093.015.289.058a1.74,1.74,0,0,1,.352.107,2.716,2.716,0,0,1,.465.213,4.681,4.681,0,0,1,2.073,2.732l-.083-.022A3.587,3.587,0,0,1,340.1,360.8a4.065,4.065,0,0,1,2.964.909,4.877,4.877,0,0,1,1.441,3.331,7.6,7.6,0,0,1-.128,2.036,4.93,4.93,0,0,1-.322,1.023c-.15.342-.333.639-.49.976-.651,1.318-1.268,2.742-2.066,4.169a13.71,13.71,0,0,1-1.395,2.09,5.03,5.03,0,0,1-.958.9,7.855,7.855,0,0,1-1.2.587,5.86,5.86,0,0,1-2.685.558,2.278,2.278,0,0,1-1.319-.583,2.8,2.8,0,0,1-.465-.568l-.18-.321c-.045-.119-.082-.244-.122-.365a2.074,2.074,0,0,1,.295-1.466,5.14,5.14,0,0,1,.959-1.152,12.577,12.577,0,0,1,2.48-1.748l-.064.079.882-3.037.191.156-2.4,1.267.057-.057-3.72,7.179q-.94,1.86-1.906,3.782l-.94,1.953a6.686,6.686,0,0,1-1.27,1.835,2.883,2.883,0,0,1-2.088.9,2.644,2.644,0,0,1-1.132-.326,2.92,2.92,0,0,1-.495-.328,1.07,1.07,0,0,1-.29-.58,7.607,7.607,0,0,1,.044-2.314c.1-.76.244-1.516.4-2.271.651-3.017,1.516-6.036,2.474-9.082l.292.114-2.236,4.879,0-.011c-.51,1.373-1.108,2.821-1.756,4.263-.481,1.062-.988,2.107-1.548,3.121q-.42.76-.891,1.488a5.882,5.882,0,0,1-1.124,1.348,2.775,2.775,0,0,1-1.654.643,2.987,2.987,0,0,1-1.689-.511,2.511,2.511,0,0,1-1.076-1.395,2.634,2.634,0,0,1-.073-.884,4.3,4.3,0,0,1,.192-.837c1.216-4.284,2.4-8.456,3.546-12.483l.279.118q-2.108,3.5-4.221,6.781c-.71,1.09-1.421,2.162-2.178,3.187a4.67,4.67,0,0,1-1.36,1.376,2.276,2.276,0,0,1-1.918.017,2.75,2.75,0,0,1-1.4-1.277,1.709,1.709,0,0,1-.15-.966,9.066,9.066,0,0,1,.309-.872l1.217-3.317c.8-2.175,1.6-4.272,2.4-6.276s1.606-3.918,2.428-5.724a45.215,45.215,0,0,1,2.62-5.038,8.014,8.014,0,0,1,1.674-2.046,1.844,1.844,0,0,1,.581-.312l.61-.156a6.364,6.364,0,0,1,1.223-.13,4.269,4.269,0,0,1,3.775,2.13l-.122-.027a7.489,7.489,0,0,1,2.649-1.343,3.034,3.034,0,0,1,1.341-.043,3.375,3.375,0,0,1,1.134.49,4.614,4.614,0,0,1,1.428,1.594,6.722,6.722,0,0,1,.651,1.616l-.064-.024a4.726,4.726,0,0,1,2.4-.958,2.045,2.045,0,0,1,.829.073s-.066-.014-.2-.029a2.976,2.976,0,0,0-.623,0,4.768,4.768,0,0,0-2.359.982l-.048.035-.017-.06a6.683,6.683,0,0,0-.656-1.581,4.518,4.518,0,0,0-1.406-1.542,3.254,3.254,0,0,0-1.094-.465,2.9,2.9,0,0,0-1.28.051,7.366,7.366,0,0,0-2.583,1.33l-.074.057-.046-.084a4.1,4.1,0,0,0-3.633-2.016,6.2,6.2,0,0,0-1.184.132l-.593.154a1.652,1.652,0,0,0-.52.285,7.87,7.87,0,0,0-1.613,2,45.178,45.178,0,0,0-2.587,5.021c-.815,1.8-1.612,3.72-2.407,5.721s-1.581,4.1-2.384,6.275l-1.209,3.322c-.1.279-.232.579-.293.825a1.432,1.432,0,0,0,.129.8,2.473,2.473,0,0,0,1.259,1.137,2,2,0,0,0,1.684-.011,4.478,4.478,0,0,0,1.258-1.294c.744-1.016,1.455-2.087,2.162-3.175,1.408-2.182,2.806-4.449,4.207-6.777l.583-.97-.308,1.088c-1.141,4.027-2.325,8.2-3.534,12.48a4.065,4.065,0,0,0-.186.788,2.31,2.31,0,0,0,.064.779,2.214,2.214,0,0,0,.947,1.209,2.673,2.673,0,0,0,1.505.458,2.464,2.464,0,0,0,1.466-.573,5.64,5.64,0,0,0,1.058-1.278q.465-.716.879-1.467c.558-1,1.058-2.046,1.536-3.1.644-1.432,1.241-2.883,1.747-4.24v-.012l2.238-4.878.292.113c-.955,3.034-1.823,6.053-2.47,9.05-.158.75-.3,1.5-.4,2.248a7.421,7.421,0,0,0-.051,2.206.8.8,0,0,0,.193.418,2.628,2.628,0,0,0,.44.291,2.343,2.343,0,0,0,1,.291,2.589,2.589,0,0,0,1.867-.818,13.714,13.714,0,0,0,2.155-3.7l1.914-3.783,3.736-7.175.02-.037.038-.02,2.4-1.263.279-.146-.093.3-.889,3.035-.015.052-.049.027a12.337,12.337,0,0,0-2.428,1.7,4.921,4.921,0,0,0-.916,1.093,1.827,1.827,0,0,0-.27,1.288,2.221,2.221,0,0,0,1.876,1.657,5.656,5.656,0,0,0,2.572-.531,7.686,7.686,0,0,0,1.162-.558,4.867,4.867,0,0,0,.915-.856,13.54,13.54,0,0,0,1.378-2.05c.8-1.412,1.424-2.83,2.079-4.15.154-.33.354-.651.492-.968a4.781,4.781,0,0,0,.314-.987,7.465,7.465,0,0,0,.136-1.987,4.727,4.727,0,0,0-1.371-3.234,3.938,3.938,0,0,0-2.852-.895,3.485,3.485,0,0,0-2.182,1.17l-.057.062-.026-.085a4.113,4.113,0,0,0-3.086-3.135Z" transform="translate(-307.674 -355.431)" fill="#7c5142"/>
              <g id="Grupo_1118139" data-name="Grupo 1118139" transform="translate(18.553 8.624)">
                <path id="Trazado_910695" data-name="Trazado 910695" d="M341.085,369.643a14.962,14.962,0,0,1-1.16,4.052c-.419,1.085-.837,2.05-1.14,2.747a5.153,5.153,0,0,1-.55,1.106,26.462,26.462,0,0,1,1.395-3.966c.417-1.081.776-2.063,1.023-2.78a6.017,6.017,0,0,1,.431-1.158Z" transform="translate(-338.236 -369.643)" fill="#7c5142"/>
              </g>
              <g id="Grupo_1118140" data-name="Grupo 1118140" transform="translate(11.003 7.325)">
                <path id="Trazado_910696" data-name="Trazado 910696" d="M329.014,367.5c.084.041-.688,1.741-1.54,3.874A25.741,25.741,0,0,1,325.8,375.2a5,5,0,0,1,.349-1.175c.25-.712.6-1.7,1.03-2.766s.868-2.023,1.209-2.7a4.531,4.531,0,0,1,.626-1.06Z" transform="translate(-325.8 -367.5)" fill="#7c5142"/>
              </g>
            </g>
          </g>
        </g>
        <g id="Grupo_1118223" data-name="Grupo 1118223" transform="translate(105.415 196.773)">
          <path id="Trazado_910697" data-name="Trazado 910697" d="M293.033,409.913l-8.648-7.923,29.957-1.19,8.8,4.874Z" transform="translate(-284.382 -400.8)" fill="#455a64"/>
          <g id="Grupo_1118181" data-name="Grupo 1118181" transform="translate(3.387 0.428)">
            <g id="Grupo_1118148" data-name="Grupo 1118148" transform="translate(0 0.749)">
              <g id="Grupo_1118144" data-name="Grupo 1118144" transform="translate(0 0.203)">
                <path id="Trazado_910698" data-name="Trazado 910698" d="M293.392,405.344l1.682,1.442-.007-1.028-1.78-1.33Z" transform="translate(-293.287 -404.428)" fill="#263238"/>
              </g>
              <g id="Grupo_1118145" data-name="Grupo 1118145" transform="translate(0.006 0.1)">
                <path id="Trazado_910699" data-name="Trazado 910699" d="M295.051,405.657l2.426-.082-1.953-1.417-2.232.1Z" transform="translate(-293.293 -404.158)" fill="#d9a171"/>
              </g>
              <g id="Grupo_1118146" data-name="Grupo 1118146" transform="translate(1.764 1.518)">
                <path id="Trazado_910700" data-name="Trazado 910700" d="M297.922,407.965l.024.962,2.369-.153.033-.891Z" transform="translate(-297.922 -407.883)" fill="#263238"/>
              </g>
              <path id="Trazado_910701" data-name="Trazado 910701" d="M297.476,405.408a13.706,13.706,0,0,1-1.953-1.256l-.115-.082.061.018a12.571,12.571,0,0,1-2.182.006,12.574,12.574,0,0,1,2.172-.2h.033l.028.02.115.082A13.624,13.624,0,0,1,297.476,405.408Z" transform="translate(-293.287 -403.89)" fill="#263238"/>
              <g id="Grupo_1118147" data-name="Grupo 1118147" transform="translate(1.667 1.608)">
                <path id="Trazado_910702" data-name="Trazado 910702" d="M297.782,409.074c-.054,0-.1-.211-.112-.474s.032-.478.086-.48.105.211.112.475S297.835,409.073,297.782,409.074Z" transform="translate(-297.669 -408.12)" fill="#455a64"/>
              </g>
            </g>
            <g id="Grupo_1118153" data-name="Grupo 1118153" transform="translate(4.06 0.673)">
              <g id="Grupo_1118149" data-name="Grupo 1118149" transform="translate(0 0.203)">
                <path id="Trazado_910703" data-name="Trazado 910703" d="M304.065,405.144l1.682,1.442-.007-1.028-1.78-1.33Z" transform="translate(-303.96 -404.228)" fill="#263238"/>
              </g>
              <g id="Grupo_1118150" data-name="Grupo 1118150" transform="translate(0.006 0.1)">
                <path id="Trazado_910704" data-name="Trazado 910704" d="M305.724,405.456l2.426-.082-1.953-1.417-2.232.1Z" transform="translate(-303.966 -403.957)" fill="#e0e0e0"/>
              </g>
              <g id="Grupo_1118151" data-name="Grupo 1118151" transform="translate(1.763 1.518)">
                <path id="Trazado_910705" data-name="Trazado 910705" d="M308.6,407.765l.024.962,2.369-.153.033-.891Z" transform="translate(-308.595 -407.683)" fill="#263238"/>
              </g>
              <path id="Trazado_910706" data-name="Trazado 910706" d="M308.149,405.208a13.656,13.656,0,0,1-1.953-1.256l-.115-.081.061.018a12.49,12.49,0,0,1-2.182.007,12.555,12.555,0,0,1,2.172-.2h.033l.028.02.115.081a13.7,13.7,0,0,1,1.839,1.416Z" transform="translate(-303.96 -403.691)" fill="#263238"/>
              <g id="Grupo_1118152" data-name="Grupo 1118152" transform="translate(1.668 1.607)">
                <path id="Trazado_910707" data-name="Trazado 910707" d="M308.455,408.874c-.055,0-.105-.211-.112-.474s.032-.478.086-.48.1.211.112.474S308.509,408.873,308.455,408.874Z" transform="translate(-308.342 -407.92)" fill="#455a64"/>
              </g>
            </g>
            <g id="Grupo_1118159" data-name="Grupo 1118159" transform="translate(7.948 0.62)">
              <g id="Grupo_1118154" data-name="Grupo 1118154" transform="translate(0 0.204)">
                <path id="Trazado_910708" data-name="Trazado 910708" d="M314.284,405.009l1.682,1.442-.007-1.028-1.78-1.33Z" transform="translate(-314.18 -404.093)" fill="#263238"/>
              </g>
              <g id="Grupo_1118155" data-name="Grupo 1118155" transform="translate(0.004 0.1)">
                <path id="Trazado_910709" data-name="Trazado 910709" d="M315.942,405.321l2.426-.082-1.953-1.417-2.232.1Z" transform="translate(-314.184 -403.822)" fill="#455a64"/>
              </g>
              <g id="Grupo_1118156" data-name="Grupo 1118156" transform="translate(1.762 1.518)">
                <path id="Trazado_910710" data-name="Trazado 910710" d="M318.814,407.629l.024.962,2.369-.153.033-.891Z" transform="translate(-318.814 -407.547)" fill="#263238"/>
              </g>
              <g id="Grupo_1118157" data-name="Grupo 1118157" transform="translate(0 0)">
                <path id="Trazado_910711" data-name="Trazado 910711" d="M318.368,405.072a13.692,13.692,0,0,1-1.953-1.256l-.115-.082.061.018a12.568,12.568,0,0,1-2.182.007,12.588,12.588,0,0,1,2.172-.2h.033l.028.02.115.082a13.722,13.722,0,0,1,1.839,1.416Z" transform="translate(-314.18 -403.554)" fill="#263238"/>
              </g>
              <g id="Grupo_1118158" data-name="Grupo 1118158" transform="translate(1.666 1.608)">
                <path id="Trazado_910712" data-name="Trazado 910712" d="M318.673,408.738c-.055,0-.1-.211-.112-.474s.032-.479.086-.48.1.211.112.475S318.727,408.737,318.673,408.738Z" transform="translate(-318.561 -407.784)" fill="#455a64"/>
              </g>
            </g>
            <g id="Grupo_1118164" data-name="Grupo 1118164" transform="translate(11.994 0.506)">
              <g id="Grupo_1118160" data-name="Grupo 1118160" transform="translate(0 0.202)">
                <path id="Trazado_910713" data-name="Trazado 910713" d="M324.925,404.7l1.682,1.442-.007-1.028-1.78-1.33Z" transform="translate(-324.82 -403.788)" fill="#263238"/>
              </g>
              <g id="Grupo_1118161" data-name="Grupo 1118161" transform="translate(0.005 0.1)">
                <path id="Trazado_910714" data-name="Trazado 910714" d="M326.583,405.016l2.426-.082-1.953-1.417-2.232.1Z" transform="translate(-324.825 -403.517)" fill="#455a64"/>
              </g>
              <g id="Grupo_1118162" data-name="Grupo 1118162" transform="translate(1.764 1.518)">
                <path id="Trazado_910715" data-name="Trazado 910715" d="M329.454,407.325l.024.962,2.369-.153.033-.891Z" transform="translate(-329.454 -407.243)" fill="#263238"/>
              </g>
              <path id="Trazado_910716" data-name="Trazado 910716" d="M329.008,404.768a13.644,13.644,0,0,1-1.953-1.256l-.115-.081.061.018a12.526,12.526,0,0,1-2.182.007,12.555,12.555,0,0,1,2.172-.2h.034l.028.02.115.081a13.708,13.708,0,0,1,1.839,1.416Z" transform="translate(-324.819 -403.251)" fill="#263238"/>
              <g id="Grupo_1118163" data-name="Grupo 1118163" transform="translate(1.667 1.607)">
                <path id="Trazado_910717" data-name="Trazado 910717" d="M329.314,408.434c-.055,0-.1-.211-.112-.474s.032-.478.086-.48.105.211.112.474S329.368,408.428,329.314,408.434Z" transform="translate(-329.201 -407.48)" fill="#455a64"/>
              </g>
            </g>
            <g id="Grupo_1118169" data-name="Grupo 1118169" transform="translate(16.1 0.403)">
              <g id="Grupo_1118165" data-name="Grupo 1118165" transform="translate(0 0.205)">
                <path id="Trazado_910718" data-name="Trazado 910718" d="M335.717,404.437l1.682,1.442-.007-1.028-1.78-1.33Z" transform="translate(-335.613 -403.521)" fill="#263238"/>
              </g>
              <g id="Grupo_1118166" data-name="Grupo 1118166" transform="translate(0.005 0.1)">
                <path id="Trazado_910719" data-name="Trazado 910719" d="M337.376,404.749l2.426-.083-1.953-1.417-2.232.1Z" transform="translate(-335.618 -403.249)" fill="#455a64"/>
              </g>
              <g id="Grupo_1118167" data-name="Grupo 1118167" transform="translate(1.762 1.518)">
                <path id="Trazado_910720" data-name="Trazado 910720" d="M340.247,407.057l.024.962,2.369-.153.033-.891Z" transform="translate(-340.247 -406.975)" fill="#263238"/>
              </g>
              <path id="Trazado_910721" data-name="Trazado 910721" d="M339.8,404.5a13.688,13.688,0,0,1-1.953-1.257l-.115-.082.061.018a12.6,12.6,0,0,1-2.182.007,12.564,12.564,0,0,1,2.172-.2h.033l.028.02.115.081A13.65,13.65,0,0,1,339.8,404.5Z" transform="translate(-335.613 -402.982)" fill="#263238"/>
              <g id="Grupo_1118168" data-name="Grupo 1118168" transform="translate(1.666 1.609)">
                <path id="Trazado_910722" data-name="Trazado 910722" d="M340.107,408.167c-.055,0-.1-.211-.112-.474s.032-.479.086-.48.1.211.112.474S340.16,408.165,340.107,408.167Z" transform="translate(-339.994 -407.213)" fill="#455a64"/>
              </g>
            </g>
            <g id="Grupo_1118175" data-name="Grupo 1118175" transform="translate(20.019 0.219)">
              <g id="Grupo_1118170" data-name="Grupo 1118170" transform="translate(0 0.203)">
                <path id="Trazado_910723" data-name="Trazado 910723" d="M346.023,403.954l1.682,1.442-.007-1.028-1.78-1.33Z" transform="translate(-345.918 -403.038)" fill="#263238"/>
              </g>
              <g id="Grupo_1118171" data-name="Grupo 1118171" transform="translate(0.005 0.101)">
                <path id="Trazado_910724" data-name="Trazado 910724" d="M347.681,404.267l2.426-.083-1.953-1.417-2.232.1Z" transform="translate(-345.923 -402.767)" fill="#455a64"/>
              </g>
              <g id="Grupo_1118172" data-name="Grupo 1118172" transform="translate(1.763 1.518)">
                <path id="Trazado_910725" data-name="Trazado 910725" d="M350.552,406.575l.024.962,2.369-.153.033-.891Z" transform="translate(-350.552 -406.493)" fill="#263238"/>
              </g>
              <g id="Grupo_1118173" data-name="Grupo 1118173" transform="translate(0.001 0)">
                <path id="Trazado_910726" data-name="Trazado 910726" d="M350.107,404.018a13.708,13.708,0,0,1-1.953-1.256l-.115-.082.061.018a12.574,12.574,0,0,1-2.182.007,12.465,12.465,0,0,1,2.172-.2h.034l.028.02.115.081a13.633,13.633,0,0,1,1.839,1.417Z" transform="translate(-345.919 -402.5)" fill="#263238"/>
              </g>
              <g id="Grupo_1118174" data-name="Grupo 1118174" transform="translate(1.667 1.608)">
                <path id="Trazado_910727" data-name="Trazado 910727" d="M350.412,407.684c-.054,0-.1-.211-.112-.474s.032-.478.086-.48.1.211.112.474S350.466,407.683,350.412,407.684Z" transform="translate(-350.299 -406.73)" fill="#455a64"/>
              </g>
            </g>
            <g id="Grupo_1118180" data-name="Grupo 1118180" transform="translate(23.851 0)">
              <g id="Grupo_1118176" data-name="Grupo 1118176" transform="translate(0 0.203)">
                <path id="Trazado_910728" data-name="Trazado 910728" d="M356.1,403.374l1.682,1.442-.007-1.028-1.78-1.33Z" transform="translate(-355.992 -402.458)" fill="#263238"/>
              </g>
              <g id="Grupo_1118177" data-name="Grupo 1118177" transform="translate(0.006 0.1)">
                <path id="Trazado_910729" data-name="Trazado 910729" d="M357.756,403.687l2.426-.083-1.953-1.417-2.232.1Z" transform="translate(-355.998 -402.187)" fill="#455a64"/>
              </g>
              <g id="Grupo_1118178" data-name="Grupo 1118178" transform="translate(1.764 1.517)">
                <path id="Trazado_910730" data-name="Trazado 910730" d="M360.627,405.994l.024.962,2.369-.153.033-.891Z" transform="translate(-360.627 -405.912)" fill="#263238"/>
              </g>
              <path id="Trazado_910731" data-name="Trazado 910731" d="M360.184,403.438a13.688,13.688,0,0,1-1.953-1.256l-.115-.082.061.019a12.6,12.6,0,0,1-2.182.007,12.57,12.57,0,0,1,2.172-.2h.033l.028.02.115.081A13.689,13.689,0,0,1,360.184,403.438Z" transform="translate(-355.992 -401.921)" fill="#263238"/>
              <g id="Grupo_1118179" data-name="Grupo 1118179" transform="translate(1.667 1.607)">
                <path id="Trazado_910732" data-name="Trazado 910732" d="M360.487,407.1c-.055,0-.1-.211-.112-.474s.032-.478.086-.48.1.211.112.474S360.54,407.1,360.487,407.1Z" transform="translate(-360.374 -406.15)" fill="#455a64"/>
              </g>
            </g>
          </g>
          <g id="Grupo_1118218" data-name="Grupo 1118218" transform="translate(6.096 3.136)">
            <g id="Grupo_1118186" data-name="Grupo 1118186" transform="translate(0 0.749)">
              <g id="Grupo_1118182" data-name="Grupo 1118182" transform="translate(0 0.203)">
                <path id="Trazado_910733" data-name="Trazado 910733" d="M300.512,412.464l1.682,1.442-.007-1.028-1.78-1.33Z" transform="translate(-300.408 -411.548)" fill="#263238"/>
              </g>
              <g id="Grupo_1118183" data-name="Grupo 1118183" transform="translate(0.001 0.101)">
                <path id="Trazado_910734" data-name="Trazado 910734" d="M302.167,412.777l2.426-.082-1.953-1.417-2.232.1Z" transform="translate(-300.409 -411.278)" fill="#455a64"/>
              </g>
              <g id="Grupo_1118184" data-name="Grupo 1118184" transform="translate(1.763 1.518)">
                <path id="Trazado_910735" data-name="Trazado 910735" d="M305.042,415.085l.024.962,2.369-.153.033-.891Z" transform="translate(-305.042 -415.003)" fill="#263238"/>
              </g>
              <path id="Trazado_910736" data-name="Trazado 910736" d="M304.6,412.528a13.639,13.639,0,0,1-1.953-1.256l-.115-.082.061.018a12.58,12.58,0,0,1-2.182.007,12.492,12.492,0,0,1,2.172-.2h.033l.028.02.115.081A13.707,13.707,0,0,1,304.6,412.528Z" transform="translate(-300.408 -411.01)" fill="#263238"/>
              <g id="Grupo_1118185" data-name="Grupo 1118185" transform="translate(1.667 1.608)">
                <path id="Trazado_910737" data-name="Trazado 910737" d="M304.9,416.194c-.055,0-.105-.211-.112-.474s.032-.478.086-.48.1.211.112.474S304.956,416.193,304.9,416.194Z" transform="translate(-304.789 -415.24)" fill="#455a64"/>
              </g>
            </g>
            <g id="Grupo_1118191" data-name="Grupo 1118191" transform="translate(4.058 0.674)">
              <g id="Grupo_1118187" data-name="Grupo 1118187" transform="translate(0 0.203)">
                <path id="Trazado_910738" data-name="Trazado 910738" d="M311.185,412.264l1.68,1.442-.007-1.028-1.78-1.33Z" transform="translate(-311.079 -411.348)" fill="#263238"/>
              </g>
              <g id="Grupo_1118188" data-name="Grupo 1118188" transform="translate(0.006 0.1)">
                <path id="Trazado_910739" data-name="Trazado 910739" d="M312.843,412.576l2.426-.082-1.953-1.417-2.232.1Z" transform="translate(-311.085 -411.077)" fill="#455a64"/>
              </g>
              <g id="Grupo_1118189" data-name="Grupo 1118189" transform="translate(1.764 1.518)">
                <path id="Trazado_910740" data-name="Trazado 910740" d="M315.715,414.885l.024.962,2.369-.153.033-.891Z" transform="translate(-315.715 -414.803)" fill="#263238"/>
              </g>
              <path id="Trazado_910741" data-name="Trazado 910741" d="M315.269,412.328a13.623,13.623,0,0,1-1.953-1.256l-.115-.082.061.019a12.507,12.507,0,0,1-2.182.007,12.579,12.579,0,0,1,2.172-.2h.034l.028.02.115.081A13.692,13.692,0,0,1,315.269,412.328Z" transform="translate(-311.079 -410.811)" fill="#263238"/>
              <g id="Grupo_1118190" data-name="Grupo 1118190" transform="translate(1.668 1.607)">
                <path id="Trazado_910742" data-name="Trazado 910742" d="M315.575,415.994c-.055,0-.1-.211-.112-.474s.032-.478.086-.48.1.211.111.474S315.629,415.993,315.575,415.994Z" transform="translate(-315.462 -415.04)" fill="#455a64"/>
              </g>
            </g>
            <g id="Grupo_1118197" data-name="Grupo 1118197" transform="translate(7.944 0.62)">
              <g id="Grupo_1118192" data-name="Grupo 1118192" transform="translate(0.003 0.206)">
                <path id="Trazado_910743" data-name="Trazado 910743" d="M321.4,412.131l1.682,1.442-.007-1.028-1.78-1.33Z" transform="translate(-321.3 -411.215)" fill="#263238"/>
              </g>
              <g id="Grupo_1118193" data-name="Grupo 1118193" transform="translate(0.011 0.102)">
                <path id="Trazado_910744" data-name="Trazado 910744" d="M323.067,412.441l2.426-.082-1.953-1.417-2.232.1Z" transform="translate(-321.309 -410.942)" fill="#455a64"/>
              </g>
              <g id="Grupo_1118194" data-name="Grupo 1118194" transform="translate(1.765 1.519)">
                <path id="Trazado_910745" data-name="Trazado 910745" d="M325.934,414.749l.024.962,2.369-.153.033-.891Z" transform="translate(-325.934 -414.667)" fill="#263238"/>
              </g>
              <g id="Grupo_1118195" data-name="Grupo 1118195" transform="translate(0 0)">
                <path id="Trazado_910746" data-name="Trazado 910746" d="M325.484,412.191a13.74,13.74,0,0,1-1.953-1.257l-.115-.082.062.018a12.564,12.564,0,0,1-2.182.007,12.579,12.579,0,0,1,2.172-.2h.033l.028.02.115.081A13.619,13.619,0,0,1,325.484,412.191Z" transform="translate(-321.297 -410.673)" fill="#263238"/>
              </g>
              <g id="Grupo_1118196" data-name="Grupo 1118196" transform="translate(1.667 1.608)">
                <path id="Trazado_910747" data-name="Trazado 910747" d="M325.792,415.858c-.055,0-.1-.211-.112-.475s.032-.478.086-.48.1.211.112.474S325.847,415.857,325.792,415.858Z" transform="translate(-325.679 -414.903)" fill="#455a64"/>
              </g>
            </g>
            <g id="Grupo_1118202" data-name="Grupo 1118202" transform="translate(11.994 0.504)">
              <g id="Grupo_1118198" data-name="Grupo 1118198" transform="translate(0 0.206)">
                <path id="Trazado_910748" data-name="Trazado 910748" d="M332.044,411.824l1.682,1.442-.007-1.028-1.78-1.33Z" transform="translate(-331.94 -410.908)" fill="#263238"/>
              </g>
              <g id="Grupo_1118199" data-name="Grupo 1118199" transform="translate(0.005 0.102)">
                <path id="Trazado_910749" data-name="Trazado 910749" d="M333.7,412.136l2.426-.082-1.953-1.417-2.232.1Z" transform="translate(-331.945 -410.637)" fill="#455a64"/>
              </g>
              <g id="Grupo_1118200" data-name="Grupo 1118200" transform="translate(1.763 1.52)">
                <path id="Trazado_910750" data-name="Trazado 910750" d="M336.574,414.445l.024.962,2.369-.153.033-.891Z" transform="translate(-336.574 -414.363)" fill="#263238"/>
              </g>
              <path id="Trazado_910751" data-name="Trazado 910751" d="M336.128,411.886a13.636,13.636,0,0,1-1.953-1.256l-.115-.082.061.018a12.5,12.5,0,0,1-2.182.007,12.6,12.6,0,0,1,2.172-.2h.033l.028.02.115.081A13.71,13.71,0,0,1,336.128,411.886Z" transform="translate(-331.94 -410.368)" fill="#263238"/>
              <g id="Grupo_1118201" data-name="Grupo 1118201" transform="translate(1.666 1.61)">
                <path id="Trazado_910752" data-name="Trazado 910752" d="M336.434,415.554c-.055,0-.1-.211-.112-.474s.032-.478.086-.48.1.211.112.474S336.487,415.553,336.434,415.554Z" transform="translate(-336.321 -414.6)" fill="#455a64"/>
              </g>
            </g>
            <g id="Grupo_1118207" data-name="Grupo 1118207" transform="translate(16.099 0.405)">
              <g id="Grupo_1118203" data-name="Grupo 1118203" transform="translate(0 0.203)">
                <path id="Trazado_910753" data-name="Trazado 910753" d="M342.837,411.557,344.519,413l-.007-1.028-1.78-1.33Z" transform="translate(-342.733 -410.641)" fill="#263238"/>
              </g>
              <g id="Grupo_1118204" data-name="Grupo 1118204" transform="translate(0.004 0.099)">
                <path id="Trazado_910754" data-name="Trazado 910754" d="M344.5,411.869l2.426-.083-1.953-1.417-2.232.1Z" transform="translate(-342.737 -410.369)" fill="#455a64"/>
              </g>
              <g id="Grupo_1118205" data-name="Grupo 1118205" transform="translate(1.762 1.517)">
                <path id="Trazado_910755" data-name="Trazado 910755" d="M347.367,414.177l.024.962,2.369-.153.033-.891Z" transform="translate(-347.367 -414.095)" fill="#263238"/>
              </g>
              <path id="Trazado_910756" data-name="Trazado 910756" d="M346.921,411.621a13.689,13.689,0,0,1-1.953-1.256l-.115-.081.061.018a12.577,12.577,0,0,1-2.182.007,12.573,12.573,0,0,1,2.172-.2h.033l.028.02.115.081a13.662,13.662,0,0,1,1.839,1.416Z" transform="translate(-342.733 -410.104)" fill="#263238"/>
              <g id="Grupo_1118206" data-name="Grupo 1118206" transform="translate(1.666 1.607)">
                <path id="Trazado_910757" data-name="Trazado 910757" d="M347.226,415.287c-.055,0-.1-.211-.112-.474s.032-.479.086-.48.1.211.111.474S347.281,415.285,347.226,415.287Z" transform="translate(-347.114 -414.333)" fill="#455a64"/>
              </g>
            </g>
            <g id="Grupo_1118212" data-name="Grupo 1118212" transform="translate(20.019 0.22)">
              <g id="Grupo_1118208" data-name="Grupo 1118208" transform="translate(0.001 0.204)">
                <path id="Trazado_910758" data-name="Trazado 910758" d="M353.143,411.074l1.682,1.442-.007-1.028-1.78-1.33Z" transform="translate(-353.039 -410.158)" fill="#263238"/>
              </g>
              <g id="Grupo_1118209" data-name="Grupo 1118209" transform="translate(0.005 0.1)">
                <path id="Trazado_910759" data-name="Trazado 910759" d="M354.8,411.387l2.426-.083-1.953-1.417-2.232.1Z" transform="translate(-353.043 -409.887)" fill="#455a64"/>
              </g>
              <g id="Grupo_1118210" data-name="Grupo 1118210" transform="translate(1.763 1.518)">
                <path id="Trazado_910760" data-name="Trazado 910760" d="M357.672,413.694l.024.962,2.369-.153.033-.891Z" transform="translate(-357.672 -413.612)" fill="#263238"/>
              </g>
              <path id="Trazado_910761" data-name="Trazado 910761" d="M357.226,411.138a13.637,13.637,0,0,1-1.953-1.256l-.115-.082.061.018a12.513,12.513,0,0,1-2.182.007,12.567,12.567,0,0,1,2.172-.2h.033l.028.02.115.081a13.7,13.7,0,0,1,1.839,1.417Z" transform="translate(-353.038 -409.62)" fill="#263238"/>
              <g id="Grupo_1118211" data-name="Grupo 1118211" transform="translate(1.667 1.608)">
                <path id="Trazado_910762" data-name="Trazado 910762" d="M357.532,414.8c-.055,0-.105-.211-.112-.474s.032-.478.086-.48.1.211.112.474S357.587,414.8,357.532,414.8Z" transform="translate(-357.419 -413.85)" fill="#455a64"/>
              </g>
            </g>
            <g id="Grupo_1118217" data-name="Grupo 1118217" transform="translate(23.851 0)">
              <g id="Grupo_1118213" data-name="Grupo 1118213" transform="translate(0 0.204)">
                <path id="Trazado_910763" data-name="Trazado 910763" d="M363.217,410.494l1.682,1.442-.007-1.028-1.78-1.33Z" transform="translate(-363.113 -409.578)" fill="#263238"/>
              </g>
              <g id="Grupo_1118214" data-name="Grupo 1118214" transform="translate(0.005 0.1)">
                <path id="Trazado_910764" data-name="Trazado 910764" d="M364.876,410.806l2.426-.082-1.953-1.417-2.232.1Z" transform="translate(-363.118 -409.307)" fill="#455a64"/>
              </g>
              <g id="Grupo_1118215" data-name="Grupo 1118215" transform="translate(1.762 1.518)">
                <path id="Trazado_910765" data-name="Trazado 910765" d="M367.747,413.114l.024.962,2.37-.153.033-.891Z" transform="translate(-367.747 -413.032)" fill="#263238"/>
              </g>
              <path id="Trazado_910766" data-name="Trazado 910766" d="M367.3,410.558a13.706,13.706,0,0,1-1.953-1.256l-.115-.082.061.018a12.577,12.577,0,0,1-2.182.007,12.573,12.573,0,0,1,2.172-.2h.033l.028.02.115.081a13.685,13.685,0,0,1,1.839,1.417Z" transform="translate(-363.113 -409.04)" fill="#263238"/>
              <g id="Grupo_1118216" data-name="Grupo 1118216" transform="translate(1.667 1.612)">
                <path id="Trazado_910767" data-name="Trazado 910767" d="M367.607,414.228c-.055,0-.105-.211-.112-.474s.032-.479.086-.48.1.211.112.474S367.661,414.223,367.607,414.228Z" transform="translate(-367.494 -413.274)" fill="#455a64"/>
              </g>
            </g>
          </g>
          <g id="Grupo_1118222" data-name="Grupo 1118222" transform="translate(0 1.186)">
            <path id="Trazado_910768" data-name="Trazado 910768" d="M331.554,405.431l-33.968,1.849-4.51,4.265-8.694-7.625v2.213l9.005,8.631,4.971-4.835,33.714-2.01Z" transform="translate(-284.382 -403.92)" fill="#263238"/>
            <g id="Grupo_1118219" data-name="Grupo 1118219" transform="translate(9.005 4)">
              <path id="Trazado_910769" data-name="Trazado 910769" d="M308.057,421.278l30.691-1.8,8-5.049-34.525,1.355Z" transform="translate(-308.057 -414.433)" fill="#263238"/>
            </g>
            <g id="Grupo_1118220" data-name="Grupo 1118220" transform="translate(9.007 3.999)">
              <path id="Trazado_910770" data-name="Trazado 910770" d="M346.742,414.427a.438.438,0,0,1-.105.017l-.307.028-1.183.093-4.353.291-14.364.885-13.4.774.047-.02-3.657,3.511-1,.949-.266.244a.511.511,0,0,1-.093.077.522.522,0,0,1,.08-.093l.251-.259.976-.978,3.612-3.558.02-.02h.028l13.4-.824,14.368-.828,4.357-.228,1.185-.052.309-.008a.435.435,0,0,1,.1,0Z" transform="translate(-308.059 -414.425)" fill="#455a64"/>
            </g>
            <g id="Grupo_1118221" data-name="Grupo 1118221" transform="translate(13.205 3.361)">
              <path id="Trazado_910771" data-name="Trazado 910771" d="M319.85,415.4a9.666,9.666,0,0,1-.773-2.651,9.7,9.7,0,0,1,.773,2.651Z" transform="translate(-319.077 -412.749)" fill="#455a64"/>
            </g>
          </g>
        </g>
      </g>
    </g>
  </g>
</svg>
