<svg xmlns="http://www.w3.org/2000/svg" xmlns:xlink="http://www.w3.org/1999/xlink" width="113" height="113" viewBox="0 0 113 113">
  <defs>
    <filter id="Trazado_896985" x="0" y="0" width="113" height="113" filterUnits="userSpaceOnUse">
      <feOffset dy="3" input="SourceAlpha"/>
      <feGaussianBlur stdDeviation="3" result="blur"/>
      <feFlood flood-opacity="0.161"/>
      <feComposite operator="in" in2="blur"/>
      <feComposite in="SourceGraphic"/>
    </filter>
  </defs>
  <g id="Grupo_1118046" data-name="Grupo 1118046" transform="translate(-1011.371 -6965)">
    <g id="Grupo_1111318" data-name="Grupo 1111318" transform="translate(679.59 3119)">
      <g id="Grupo_1109826" data-name="Grupo 1109826" transform="translate(340.781 3852)">
        <g id="Grupo_1098742" data-name="Grupo 1098742">
          <g transform="matrix(1, 0, 0, 1, -9, -6)" filter="url(#Trazado_896985)">
            <g id="Trazado_896985-2" data-name="Trazado 896985" transform="translate(9 6)" fill="#fd9826" opacity="0.859">
              <path d="M 47.49993515014648 93.5 C 41.28932189941406 93.5 35.26528167724609 92.28397369384766 29.59514808654785 89.88571929931641 C 24.1176815032959 87.56894683837891 19.1981086730957 84.25197601318359 14.97306823730469 80.02693176269531 C 10.74802875518799 75.80189514160156 7.431055068969727 70.88231658935547 5.11428165435791 65.40485382080078 C 2.716028451919556 59.73471832275391 1.500001788139343 53.71067810058594 1.500001788139343 47.50006484985352 C 1.500001788139343 41.28932189941406 2.716028451919556 35.26528167724609 5.11428165435791 29.59514617919922 C 7.431055068969727 24.11767959594727 10.74802875518799 19.19810676574707 14.97306823730469 14.97306632995605 C 19.1981086730957 10.74802684783936 24.1176815032959 7.431053161621094 29.59514808654785 5.114280223846436 C 35.26528167724609 2.716026782989502 41.28932189941406 1.5 47.49993515014648 1.5 C 53.71054840087891 1.5 59.73458862304688 2.716026782989502 65.40472412109375 5.114280223846436 C 70.88218688964844 7.431053161621094 75.80176544189453 10.74802684783936 80.02680206298828 14.97306632995605 C 84.25183868408203 19.19810676574707 87.56881713867188 24.11767959594727 89.88558959960938 29.59514617919922 C 92.28384399414062 35.26528167724609 93.49987030029297 41.28932189941406 93.49987030029297 47.49993515014648 C 93.49987030029297 53.71067810058594 92.28384399414062 59.73471832275391 89.88558959960938 65.40485382080078 C 87.56881713867188 70.88231658935547 84.25183868408203 75.80189514160156 80.02680206298828 80.02693176269531 C 75.80176544189453 84.25197601318359 70.88218688964844 87.56894683837891 65.40472412109375 89.88571929931641 C 59.73458862304688 92.28397369384766 53.71054840087891 93.5 47.49993515014648 93.5 Z" stroke="none"/>
              <path d="M 47.49993515014648 3 C 41.49116516113281 3 35.66371917724609 4.176155090332031 30.17947387695312 6.495796203613281 C 24.88081359863281 8.7369384765625 20.12149047851562 11.94596862792969 16.03372192382812 16.03372192382812 C 11.94596862792969 20.12149047851562 8.7369384765625 24.88081359863281 6.495796203613281 30.17947387695312 C 4.1761474609375 35.66372299194336 3 41.49116897583008 3 47.50006103515625 C 3 53.50883102416992 4.1761474609375 59.33627700805664 6.495796203613281 64.82052612304688 C 8.7369384765625 70.11918640136719 11.94596862792969 74.87850952148438 16.03372192382812 78.96627807617188 C 20.12149047851562 83.05403137207031 24.88081359863281 86.2630615234375 30.17947387695312 88.50419616699219 C 35.66371917724609 90.82384490966797 41.49116516113281 92 47.49993515014648 92 C 53.50870513916016 92 59.33615112304688 90.82384490966797 64.82039642333984 88.50419616699219 C 70.11905670166016 86.2630615234375 74.87837982177734 83.05403137207031 78.96614837646484 78.96627807617188 C 83.05390167236328 74.87850952148438 86.26293182373047 70.11918640136719 88.50407409667969 64.82052612304688 C 90.82372283935547 59.33627700805664 91.99987030029297 53.50883102416992 91.99987030029297 47.49993896484375 C 91.99987030029297 41.49116897583008 90.82372283935547 35.66372299194336 88.50407409667969 30.17947387695312 C 86.26293182373047 24.88081359863281 83.05390167236328 20.12149047851562 78.96614837646484 16.03372192382812 C 74.87837982177734 11.94596862792969 70.11905670166016 8.7369384765625 64.82039642333984 6.495796203613281 C 59.33615112304688 4.176155090332031 53.50870513916016 3 47.49993515014648 3 M 47.49993515014648 0 C 73.73342895507812 0 94.99987030029297 21.26644897460938 94.99987030029297 47.49993896484375 L 94.99987030029297 47.50006103515625 C 94.99987030029297 73.73355102539062 73.73342895507812 95 47.49993515014648 95 C 21.26644134521484 95 0 73.73355102539062 0 47.50006103515625 L 0 47.49993896484375 C 0 21.26644897460938 21.26644134521484 0 47.49993515014648 0 Z" stroke="none" fill="#fff"/>
            </g>
          </g>
          <g id="Rectángulo_400907" data-name="Rectángulo 400907" transform="translate(0 0)" fill="none" stroke="#fff" stroke-width="3">
            <rect width="95" height="95" rx="47.5" stroke="none"/>
            <rect x="1.5" y="1.5" width="92" height="92" rx="46" fill="none"/>
          </g>
        </g>
      </g>
    </g>
    <g id="Filled_stroke_cut_Ex" data-name="Filled stroke cut Ex" transform="translate(1025.371 6962)">
      <path id="Trazado_910600" data-name="Trazado 910600" d="M0,0H7.015V16.66H6.576A6.576,6.576,0,0,1,0,10.084Z" transform="translate(25.629 62.012) rotate(-26.052)" fill="#fbb8b0"/>
      <path id="Trazado_910601" data-name="Trazado 910601" d="M0,0H7.015V16.66H6.576A6.576,6.576,0,0,1,0,10.084V0Z" transform="translate(30.355 58.507) rotate(-26.052)" fill="#fbb8b0"/>
      <path id="Trazado_910602" data-name="Trazado 910602" d="M151.4,248.058l28.425,8a1.1,1.1,0,0,0,1.352-.758l4.42-15.7-28.936.044Z" transform="translate(-120.559 -184.846)" fill="#63c521"/>
      <path id="Trazado_910603" data-name="Trazado 910603" d="M0,0H43.843V24.552H0Z" transform="translate(67.734 57.429) rotate(180)" fill="#9fdc6e"/>
      <path id="Trazado_910604" data-name="Trazado 910604" d="M125.6,38.138h-1.754V33.754H81.754v4.384H80V32.877A.877.877,0,0,1,80.877,32h43.843a.877.877,0,0,1,.877.877Z" transform="translate(-56.985)"/>
      <path id="Trazado_910605" data-name="Trazado 910605" d="M38.03,132.719V116.936l5.382-8.762a6.576,6.576,0,0,0-1.71-8.908l-1.041-.744-7.015,8.769h-1.6a1.1,1.1,0,0,1-1.1-1.1V88H29.3a2.192,2.192,0,0,0-2.15,1.762L24,105.537l2.631,12.276v14.906Z" transform="translate(-7.123 -49.862)" fill="#ffd4cf"/>
      <path id="Trazado_910606" data-name="Trazado 910606" d="M20.384,209.677H18.631V194.864L16.02,182.678a.878.878,0,0,1,0-.356l1.578-7.892,1.72.344-1.543,7.714,2.593,12.1a.877.877,0,0,1,.02.184Z" transform="translate(0 -126.82)"/>
      <circle id="Elipse_13504" data-name="Elipse 13504" cx="5.301" cy="5.301" r="5.301" transform="translate(40.591 39.69)" fill="#fbfef9"/>
      <path id="Trazado_910607" data-name="Trazado 910607" d="M238.138,108.276a6.138,6.138,0,1,1,6.138-6.138A6.138,6.138,0,0,1,238.138,108.276Zm0-10.522a4.384,4.384,0,1,0,4.384,4.384A4.384,4.384,0,0,0,238.138,97.754Z" transform="translate(-192.325 -56.985)"/>
      <path id="Trazado_910608" data-name="Trazado 910608" d="M384,112h5.261v1.754H384Z" transform="translate(-327.665 -71.231)"/>
      <path id="Trazado_910609" data-name="Trazado 910609" d="M82.666,68.384v16.66H53.8a7.426,7.426,0,0,0,.219-1.754H76.679a.877.877,0,0,0,.827-1.169,1.754,1.754,0,0,1,2.238-2.238.877.877,0,0,0,1.169-.827v-11.7a.877.877,0,0,0-1.169-.827,1.754,1.754,0,0,1-2.338-1.654A.877.877,0,0,0,76.528,64H45.839a.877.877,0,0,0-.877.877,1.756,1.756,0,0,1-1.754,1.754.877.877,0,0,0-.877.877v11.4a.877.877,0,0,0,.877.877,1.756,1.756,0,0,1,1.732,1.474l-3.03,3.787H40.731a.219.219,0,0,1-.219-.219V66.631a.877.877,0,0,0-.877-.877H37.991a3.077,3.077,0,0,0-3.01,2.467L33.755,74.35l1.72.344L36.7,68.565a1.319,1.319,0,0,1,1.29-1.057h.767V84.825A1.975,1.975,0,0,0,40.731,86.8h1.6a.877.877,0,0,0,.685-.329l6.5-8.12.366.262a5.694,5.694,0,0,1,1.482,7.72l-.01.015-5.382,8.762a.877.877,0,0,0-.13.459V111.35h1.754v-8.516a7.449,7.449,0,0,0,7.475.539l.394-.193a.877.877,0,0,0,.4-1.173l-.741-1.514a7.391,7.391,0,0,0,4.671-.628l.394-.193a.877.877,0,0,0,.4-1.173l-1.112-2.272,15.359,4.323a1.972,1.972,0,0,0,2.433-1.364L80.758,86.8h2.786a.877.877,0,0,0,.877-.877V68.384ZM50.9,77.184l-1.042-.744a.877.877,0,0,0-1.195.166L46.19,79.693a3.52,3.52,0,0,0-2.105-1.553V68.273a3.52,3.52,0,0,0,2.52-2.52H75.762a3.514,3.514,0,0,0,3.4,2.631V78.03a3.511,3.511,0,0,0-3.507,3.507H53.822A7.431,7.431,0,0,0,50.9,77.184ZM52.84,87.271q.15-.233.28-.473H75.2l-1.4,5.263a3.532,3.532,0,0,0-3,1.869L52.229,88.266Zm-5.248,13.261V95.815l1.071-1.743,1.16,2.373A7.4,7.4,0,0,0,52.73,99.59l1.166,2.384a5.742,5.742,0,0,1-6.3-1.442Zm11.029-2.065A5.7,5.7,0,0,1,51.4,95.674l-.976-2,6.792,1.912Zm16.961.243a.219.219,0,0,1-.271.151l-25.229-7.1,1.2-1.95,19.791,6.036a.877.877,0,0,0,1.113-.653,1.754,1.754,0,0,1,2.088-1.34.876.876,0,0,0,1.033-.631L77.016,86.8h1.919Z" transform="translate(-15.809 -28.493)"/>
    </g>
  </g>
</svg>
