<svg xmlns="http://www.w3.org/2000/svg" xmlns:xlink="http://www.w3.org/1999/xlink" width="113" height="113" viewBox="0 0 113 113">
  <defs>
    <filter id="Trazado_896985" x="0" y="0" width="113" height="113" filterUnits="userSpaceOnUse">
      <feOffset dy="3" input="SourceAlpha"/>
      <feGaussianBlur stdDeviation="3" result="blur"/>
      <feFlood flood-opacity="0.161"/>
      <feComposite operator="in" in2="blur"/>
      <feComposite in="SourceGraphic"/>
    </filter>
  </defs>
  <g id="Grupo_1114892" data-name="Grupo 1114892" transform="translate(-496.051 -2163)">
    <g id="Grupo_1113419" data-name="Grupo 1113419" transform="translate(170.16 -1683)">
      <g id="Grupo_1111318" data-name="Grupo 1111318" transform="translate(-5.891)">
        <g id="Grupo_1109826" data-name="Grupo 1109826" transform="translate(340.781 3852)">
          <g id="Grupo_1098742" data-name="Grupo 1098742">
            <g transform="matrix(1, 0, 0, 1, -9, -6)" filter="url(#Trazado_896985)">
              <g id="Trazado_896985-2" data-name="Trazado 896985" transform="translate(9 6)" fill="#e2dacc" opacity="0.859">
                <path d="M 47.49993515014648 93.5 C 41.28932189941406 93.5 35.26528167724609 92.28397369384766 29.59514808654785 89.88571929931641 C 24.1176815032959 87.56894683837891 19.1981086730957 84.25197601318359 14.97306823730469 80.02693176269531 C 10.74802875518799 75.80189514160156 7.431055068969727 70.88231658935547 5.11428165435791 65.40485382080078 C 2.716028451919556 59.73471832275391 1.500001788139343 53.71067810058594 1.500001788139343 47.50006484985352 C 1.500001788139343 41.28932189941406 2.716028451919556 35.26528167724609 5.11428165435791 29.59514617919922 C 7.431055068969727 24.11767959594727 10.74802875518799 19.19810676574707 14.97306823730469 14.97306632995605 C 19.1981086730957 10.74802684783936 24.1176815032959 7.431053161621094 29.59514808654785 5.114280223846436 C 35.26528167724609 2.716026782989502 41.28932189941406 1.5 47.49993515014648 1.5 C 53.71054840087891 1.5 59.73458862304688 2.716026782989502 65.40472412109375 5.114280223846436 C 70.88218688964844 7.431053161621094 75.80176544189453 10.74802684783936 80.02680206298828 14.97306632995605 C 84.25183868408203 19.19810676574707 87.56881713867188 24.11767959594727 89.88558959960938 29.59514617919922 C 92.28384399414062 35.26528167724609 93.49987030029297 41.28932189941406 93.49987030029297 47.49993515014648 C 93.49987030029297 53.71067810058594 92.28384399414062 59.73471832275391 89.88558959960938 65.40485382080078 C 87.56881713867188 70.88231658935547 84.25183868408203 75.80189514160156 80.02680206298828 80.02693176269531 C 75.80176544189453 84.25197601318359 70.88218688964844 87.56894683837891 65.40472412109375 89.88571929931641 C 59.73458862304688 92.28397369384766 53.71054840087891 93.5 47.49993515014648 93.5 Z" stroke="none"/>
                <path d="M 47.49993515014648 3 C 41.49116516113281 3 35.66371917724609 4.176155090332031 30.17947387695312 6.495796203613281 C 24.88081359863281 8.7369384765625 20.12149047851562 11.94596862792969 16.03372192382812 16.03372192382812 C 11.94596862792969 20.12149047851562 8.7369384765625 24.88081359863281 6.495796203613281 30.17947387695312 C 4.1761474609375 35.66372299194336 3 41.49116897583008 3 47.50006103515625 C 3 53.50883102416992 4.1761474609375 59.33627700805664 6.495796203613281 64.82052612304688 C 8.7369384765625 70.11918640136719 11.94596862792969 74.87850952148438 16.03372192382812 78.96627807617188 C 20.12149047851562 83.05403137207031 24.88081359863281 86.2630615234375 30.17947387695312 88.50419616699219 C 35.66371917724609 90.82384490966797 41.49116516113281 92 47.49993515014648 92 C 53.50870513916016 92 59.33615112304688 90.82384490966797 64.82039642333984 88.50419616699219 C 70.11905670166016 86.2630615234375 74.87837982177734 83.05403137207031 78.96614837646484 78.96627807617188 C 83.05390167236328 74.87850952148438 86.26293182373047 70.11918640136719 88.50407409667969 64.82052612304688 C 90.82372283935547 59.33627700805664 91.99987030029297 53.50883102416992 91.99987030029297 47.49993896484375 C 91.99987030029297 41.49116897583008 90.82372283935547 35.66372299194336 88.50407409667969 30.17947387695312 C 86.26293182373047 24.88081359863281 83.05390167236328 20.12149047851562 78.96614837646484 16.03372192382812 C 74.87837982177734 11.94596862792969 70.11905670166016 8.7369384765625 64.82039642333984 6.495796203613281 C 59.33615112304688 4.176155090332031 53.50870513916016 3 47.49993515014648 3 M 47.49993515014648 0 C 73.73342895507812 0 94.99987030029297 21.26644897460938 94.99987030029297 47.49993896484375 L 94.99987030029297 47.50006103515625 C 94.99987030029297 73.73355102539062 73.73342895507812 95 47.49993515014648 95 C 21.26644134521484 95 0 73.73355102539062 0 47.50006103515625 L 0 47.49993896484375 C 0 21.26644897460938 21.26644134521484 0 47.49993515014648 0 Z" stroke="none" fill="#fff"/>
              </g>
            </g>
            <g id="Rect치ngulo_400907" data-name="Rect치ngulo 400907" transform="translate(0 0)" fill="none" stroke="#fff" stroke-width="3">
              <rect width="95" height="95" rx="47.5" stroke="none"/>
              <rect x="1.5" y="1.5" width="92" height="92" rx="46" fill="none"/>
            </g>
          </g>
        </g>
      </g>
    </g>
    <g id="fina" transform="translate(519.043 2183)">
      <path id="Trazado_903628" data-name="Trazado 903628" d="M100.025,11h28.61l6.207,6.207V56.343H100.025Z" transform="translate(-84.24 -5.32)" fill="#cfe8ff" fill-rule="evenodd"/>
      <path id="Trazado_903629" data-name="Trazado 903629" d="M395.143,53.878l1.344,1.344V94.357h-1.344Z" transform="translate(-345.885 -43.334)" fill="#b6dbff" fill-rule="evenodd"/>
      <path id="Trazado_903630" data-name="Trazado 903630" d="M11.045,344.19H46.886v17.783H11.045Z" transform="translate(-5.352 -300.719)" fill="#2dd62d"/>
      <path id="Trazado_903631" data-name="Trazado 903631" d="M62.11,360.6a1.8,1.8,0,0,0,1.588,2.223v2.958H32.789v-2.958a1.8,1.8,0,0,0,1.588-2.223Z" transform="translate(-24.63 -315.271)" fill="#29b933" fill-rule="evenodd"/>
      <path id="Trazado_903632" data-name="Trazado 903632" d="M35.012,365.933H61.475a2.223,2.223,0,0,0,2.223,2.223v8.4a2.223,2.223,0,0,0-2.223,2.223H35.012a2.223,2.223,0,0,0-2.223-2.223v-8.4A2.223,2.223,0,0,0,35.012,365.933Z" transform="translate(-24.63 -319.995)" fill="#96ff96" fill-rule="evenodd"/>
      <circle id="Elipse_13249" data-name="Elipse 13249" cx="6.404" cy="6.404" r="6.404" transform="translate(16.753 58.307) rotate(-85.927)" fill="#29b933"/>
      <path id="Trazado_903633" data-name="Trazado 903633" d="M119.085,366.123a6.024,6.024,0,1,1-6.391,6.013A6.4,6.4,0,0,1,119.085,366.123Z" transform="translate(-95.472 -320.164)" fill="#2dd62d" fill-rule="evenodd"/>
      <path id="Trazado_903634" data-name="Trazado 903634" d="M319.724,344.19h.83v17.783h-.83Z" transform="translate(-279.02 -300.719)" fill="#29b933"/>
      <path id="Trazado_903635" data-name="Trazado 903635" d="M352.266,11l6.207,6.207h-6.207Z" transform="translate(-307.871 -5.32)" fill="#4eb1fc" fill-rule="evenodd"/>
      <path id="Trazado_903636" data-name="Trazado 903636" d="M145.557,174.511h4.127v15.512h-4.127Z" transform="translate(-124.608 -150.285)" fill="#4eb1fc"/>
      <path id="Trazado_903637" data-name="Trazado 903637" d="M81.832,238.53h4.127v8.251H81.832Z" transform="translate(-68.11 -207.043)" fill="#fdc72e"/>
      <path id="Trazado_903638" data-name="Trazado 903638" d="M209.282,185.03h4.127v14.319h-4.127Z" transform="translate(-181.105 -159.611)" fill="#2dd62d"/>
      <path id="Trazado_903639" data-name="Trazado 903639" d="M273.007,135.8h4.127v19.9h-4.127Z" transform="translate(-237.602 -115.961)" fill="#f89b00"/>
      <path id="Trazado_903640" data-name="Trazado 903640" d="M18.106,270.182h4.127v4.661H18.106Z" transform="translate(-11.612 -235.105)" fill="#fb545c"/>
      <path id="Trazado_903641" data-name="Trazado 903641" d="M298.6,135.8h1.224v19.9H298.6Z" transform="translate(-260.293 -115.961)" fill="#e68207"/>
      <path id="Trazado_903642" data-name="Trazado 903642" d="M234.875,185.03H236.1v14.319h-1.224Z" transform="translate(-203.795 -159.611)" fill="#29b933"/>
      <path id="Trazado_903643" data-name="Trazado 903643" d="M171.15,174.511h1.224v15.512H171.15Z" transform="translate(-147.298 -150.285)" fill="#2a92fa"/>
      <path id="Trazado_903644" data-name="Trazado 903644" d="M107.424,238.53h1.224v8.251h-1.224Z" transform="translate(-90.8 -207.043)" fill="#f9ac00"/>
      <path id="Trazado_903645" data-name="Trazado 903645" d="M43.7,270.182h1.224v4.661H43.7Z" transform="translate(-34.302 -235.105)" fill="#e8333c"/>
      <g id="Grupo_1113423" data-name="Grupo 1113423" transform="translate(39.94 31.803)">
        <path id="Trazado_903646" data-name="Trazado 903646" d="M325.086,306.736c4.039,1.593,7.479,7.272,8.726,12.107,2.091,8.111-2.55,9.794-10.159,9.926-7.609-.133-12.25-1.815-10.159-9.926,1.247-4.835,4.687-10.515,8.726-12.107h2.867Z" transform="translate(-312.991 -299.316)" fill="#d19458" fill-rule="evenodd"/>
        <path id="Trazado_903647" data-name="Trazado 903647" d="M322.414,328.732c-6.865-.3-10.9-2.228-8.922-9.889,1.247-4.835,4.687-10.515,8.726-12.107h.391c4.039,1.593,7.479,7.272,8.726,12.107C333.311,326.5,329.279,328.43,322.414,328.732Z" transform="translate(-312.99 -299.316)" fill="#e6b17c" fill-rule="evenodd"/>
        <path id="Trazado_903648" data-name="Trazado 903648" d="M355.092,249.712l-2.071.006c-4.684-6.415-3.58-8.7-1.4-8.023a3.864,3.864,0,0,1,1.383.82c.606.5,1.09.732,1.608,0,1.126-1.6,2.135-1.6,3.262,0,.518.735,1,.5,1.608,0a3.864,3.864,0,0,1,1.383-.82c2.176-.677,3.279,1.608-1.4,8.023l-2.07-.006c-.432,0-.789,0-1.146,0s-.714,0-1.146,0Z" transform="translate(-345.577 -241.314)" fill="#d19458" fill-rule="evenodd"/>
        <path id="Trazado_903649" data-name="Trazado 903649" d="M355.091,249.713h-.381l-.948,0-.744,0c-4.681-6.412-3.577-8.7-1.4-8.019a3.865,3.865,0,0,1,1.383.82c.606.5,1.09.732,1.608,0,1.126-1.6,2.135-1.6,3.262,0,.518.735,1,.5,1.608,0a6.33,6.33,0,0,1,.57-.435c.593.973.022,3.405-3.065,7.634l-.744,0-.948,0h-.2Z" transform="translate(-345.576 -241.315)" fill="#e6b17c" fill-rule="evenodd"/>
      </g>
      <rect id="Rect치ngulo_405350" data-name="Rect치ngulo 405350" width="10.709" height="2.378" rx="1.189" transform="translate(45.247 39.017)" fill="#96602a"/>
      <g id="Grupo_1113424" data-name="Grupo 1113424" transform="translate(5.008 5)">
        <path id="Trazado_903650" data-name="Trazado 903650" d="M367.291,304.913h-6.32a1.189,1.189,0,0,0,0,2.378h6.32a1.189,1.189,0,0,0,0-2.378Z" transform="translate(-319.543 -270.896)" fill="#ab733a" fill-rule="evenodd"/>
        <path id="Trazado_903651" data-name="Trazado 903651" d="M7.172,39.058H9.938v-3.3H7.172Zm-1.361.68V35.077a.682.682,0,0,1,.683-.68h4.126a.677.677,0,0,1,.678.68v4.661a.677.677,0,0,1-.678.68H6.495A.682.682,0,0,1,5.811,39.738ZM38.85,20.516H36.084V39.058H38.85Zm.683-1.361a.677.677,0,0,1,.678.68v19.9a.677.677,0,0,1-.678.68H35.407a.682.682,0,0,1-.683-.68v-19.9a.682.682,0,0,1,.683-.68ZM31.625,26.1H28.859V39.058h2.765Zm.678-1.361a.682.682,0,0,1,.683.68V39.738a.682.682,0,0,1-.683.68H28.176a.677.677,0,0,1-.678-.68V25.419a.677.677,0,0,1,.678-.68ZM17.169,32.168H14.4v6.89h2.765Zm.678-1.361a.682.682,0,0,1,.683.68v8.251a.682.682,0,0,1-.683.68H13.72a.681.681,0,0,1-.678-.68V31.488a.681.681,0,0,1,.678-.68Zm6.548-5.9H21.628V39.058h2.766Zm.683-1.361a.677.677,0,0,1,.678.68V39.738a.677.677,0,0,1-.678.68H20.951a.682.682,0,0,1-.683-.68V24.226a.682.682,0,0,1,.683-.68h4.126ZM8.877,33.34A.681.681,0,0,1,8.4,32.178l13.74-13.743a.684.684,0,0,1,.749-.145l6.706,2.843,8.089-8.088L37.3,13.1a.681.681,0,0,1-.2-1.347l2.416-.354a.681.681,0,0,1,.579.192.706.706,0,0,1,.191.58l-.355,2.412a.679.679,0,0,1-.672.582.652.652,0,0,1-.1-.007.68.68,0,0,1-.574-.772l.055-.38-8.411,8.412a.683.683,0,0,1-.749.145l-6.706-2.843L9.359,33.141a.674.674,0,0,1-.481.2ZM53.1,53.414a3.033,3.033,0,0,0-1.815-1.079v2.9c.956-.1,1.716-.493,1.864-1.007A1,1,0,0,0,53.1,53.414Zm-3.175-2.826V47.61a2.561,2.561,0,0,0-1.426.639,1.182,1.182,0,0,0-.355.893,1.278,1.278,0,0,0,.552.912,3.669,3.669,0,0,0,1.23.535Zm4.367,2.168a2.366,2.366,0,0,1,.169,1.849c-.372,1.253-1.771,1.874-3.175,1.992v.929a.68.68,0,1,1-1.361,0v-.969a3.612,3.612,0,0,1-3.274-2.5.682.682,0,0,1,1.328-.309,2.253,2.253,0,0,0,1.946,1.427V52a5.562,5.562,0,0,1-2.06-.867,2.651,2.651,0,0,1-1.082-1.888,2.525,2.525,0,0,1,.738-1.935,3.94,3.94,0,0,1,2.4-1.065v-.952a.68.68,0,0,1,1.361,0v.948a5.388,5.388,0,0,1,.836.16,3.134,3.134,0,0,1,2.416,2.2.681.681,0,0,1-1.328.3c-.175-.759-1.071-1.085-1.454-1.19a3.874,3.874,0,0,0-.47-.1v3.318c.109.028.224.057.333.089a4.19,4.19,0,0,1,2.673,1.741ZM60.1,51.5c.765,2.967.623,5.087-.437,6.481-1.3,1.706-4.094,2.506-9.062,2.594-4.968-.088-7.761-.888-9.062-2.594-1.06-1.395-1.2-3.515-.437-6.481a22.114,22.114,0,0,1,5.159-9.435c.06.005.115.009.175.009h8.329c.06,0,.12,0,.175-.009A22.057,22.057,0,0,1,60.1,51.5ZM27.755,58.11h8.493a2.918,2.918,0,0,1,2.142-2.143V48.759a2.92,2.92,0,0,1-2.142-2.144H27.755a7.078,7.078,0,0,1,0,11.494Zm-8.28-11.494h-8.5a2.911,2.911,0,0,1-2.142,2.144v7.207a2.909,2.909,0,0,1,2.142,2.143h8.5a7.079,7.079,0,0,1,0-11.494Zm9.865,5.747a5.725,5.725,0,1,1-5.728-5.725A5.733,5.733,0,0,1,29.34,52.363Zm11.521,8.214v-1.3a5.434,5.434,0,0,1-.4-.468,5.556,5.556,0,0,1-.891-1.77.685.685,0,0,1-.492.21,1.547,1.547,0,0,0-1.547,1.543.677.677,0,0,1-.678.68H10.375a.681.681,0,0,1-.678-.68,1.547,1.547,0,0,0-1.547-1.543.681.681,0,0,1-.678-.68V48.159a.681.681,0,0,1,.678-.68A1.547,1.547,0,0,0,9.7,45.935a.681.681,0,0,1,.678-.68H36.85a.677.677,0,0,1,.678.68,1.547,1.547,0,0,0,1.547,1.543.677.677,0,0,1,.678.68v3.12l.033-.118a22.978,22.978,0,0,1,1.077-3.175V44.149H6.369V60.577Zm6.05-22.241H54.29c2.23-3.4,2.312-5.022,1.995-5.443-.186-.245-.705-.107-.858-.059a3.124,3.124,0,0,0-1.12.67l-.033.026a2.007,2.007,0,0,1-1.514.609,1.6,1.6,0,0,1-1.082-.745c-.415-.588-.8-.911-1.077-.911s-.661.323-1.071.911a1.618,1.618,0,0,1-1.088.745,2.012,2.012,0,0,1-1.514-.609L46.9,33.5a3.173,3.173,0,0,0-1.12-.67c-.158-.048-.678-.187-.863.059-.312.421-.235,2.038,1.995,5.443ZM45.075,11.207h3.886L45.075,7.324v3.883Zm9.69,29.507a.508.508,0,0,0,0-1.017H46.436a.508.508,0,1,0,0,1.017Zm5.979,18.093c-2.006,2.638-6.247,3.063-10.133,3.131H50.59c-2.968-.051-6.138-.313-8.368-1.609v.929a.682.682,0,0,1-.683.68H5.686a.677.677,0,0,1-.678-.68V43.468a.677.677,0,0,1,.678-.68H41.539a.682.682,0,0,1,.683.68v1.763A20.658,20.658,0,0,1,45,41.407a1.868,1.868,0,0,1,.465-2.8c-1.951-3.105-2.52-5.355-1.64-6.53a2.025,2.025,0,0,1,2.356-.543,4.436,4.436,0,0,1,1.58.919l.033.025a1.5,1.5,0,0,0,.459.307.612.612,0,0,0,.158-.176,3.583,3.583,0,0,1,1.509-1.353V12.569H44.4a.682.682,0,0,1-.683-.681V6.361H16.464V21.8a.68.68,0,1,1-1.361,0V5.681a.67.67,0,0,1,.2-.481.678.678,0,0,1,.481-.2H44.4a.687.687,0,0,1,.481.2l6.2,6.207a.668.668,0,0,1,.2.481V31.257a3.611,3.611,0,0,1,1.5,1.353.853.853,0,0,0,.158.176,1.562,1.562,0,0,0,.465-.307l.027-.025a4.421,4.421,0,0,1,1.585-.919,2.016,2.016,0,0,1,2.35.543c.88,1.175.312,3.425-1.64,6.529a1.868,1.868,0,0,1,.465,2.8,23.476,23.476,0,0,1,5.225,9.754c.874,3.4.65,5.9-.678,7.646ZM25.23,53.893a1.718,1.718,0,0,0-.935-.6v1.586c.53-.1.891-.327.956-.553a.526.526,0,0,0-.022-.432Zm-2.3-2.379V49.882a1.447,1.447,0,0,0-.689.353.66.66,0,0,0-.2.491.754.754,0,0,0,.322.514,1.925,1.925,0,0,0,.568.274Zm3.487,1.72A3.158,3.158,0,0,0,24.394,51.9l-.1-.026V49.877l.093.023c.24.066.8.267.9.709a.681.681,0,0,0,1.328-.3,2.431,2.431,0,0,0-1.864-1.718,3.906,3.906,0,0,0-.459-.1v-.511a.68.68,0,1,0-1.361,0V48.5a2.966,2.966,0,0,0-1.672.795,1.992,1.992,0,0,0-.574,1.533,2.071,2.071,0,0,0,.842,1.491,3.905,3.905,0,0,0,1.4.617v1.885a1.281,1.281,0,0,1-1.011-.824A.682.682,0,0,0,20.6,54.3a2.716,2.716,0,0,0,2.339,1.909v.531a.68.68,0,1,0,1.361,0V56.25a2.509,2.509,0,0,0,2.263-1.544,1.874,1.874,0,0,0-.137-1.472Zm-14.412-.191a.68.68,0,1,1,0-1.361h1.344a.68.68,0,0,1,0,1.361Zm23.889-.68a.681.681,0,0,1-.678.68h-1.35a.68.68,0,0,1,0-1.361h1.35A.681.681,0,0,1,35.9,52.362Z" transform="translate(-5.008 -5)" fill="#021047" fill-rule="evenodd"/>
      </g>
    </g>
  </g>
</svg>
