<svg xmlns="http://www.w3.org/2000/svg" xmlns:xlink="http://www.w3.org/1999/xlink" width="505" height="255" viewBox="0 0 505 255">
  <defs>
    <clipPath id="clip-path">
      <path id="Trazado_908901" data-name="Trazado 908901" d="M888.555,554.917c0,30.377.7,59.742-36.7,73.716-22.443,8.385-68.506,18.306-86.6,18.306-29.224,0-73.455-4.3-93-30.453-12.725-17.027-19.517-62.362-19.517-81.528,0-48.6,44.63-136.673,115.885-99.822C811.548,457.335,888.555,506.322,888.555,554.917Z" transform="translate(-652.736 -426.361)" fill="none"/>
    </clipPath>
  </defs>
  <g id="Grupo_1118349" data-name="Grupo 1118349" transform="translate(-915 -5356.447)">
    <g id="Grupo_1117307" data-name="Grupo 1117307" transform="translate(915 5356.447)">
      <rect id="Rectángulo_405611" data-name="Rectángulo 405611" width="505" height="255" fill="#dcecf7"/>
    </g>
    <g id="actbb" transform="translate(806.904 152.43)">
      <g id="Grupo_1117621" data-name="Grupo 1117621" transform="translate(257.938 5214.998)">
        <path id="Trazado_908815" data-name="Trazado 908815" d="M715.286,488.4c-25.523,34.8-27.291,135.259,8.554,161.553s95.75-31.54,121.266-66.34,17.145-84.315-18.7-110.608S740.8,453.606,715.286,488.4Z" transform="translate(-648.75 -423.565)" fill="#aed3f2"/>
        <path id="Trazado_908816" data-name="Trazado 908816" d="M652.737,530.939c0,48.6,87.469,101.675,135.723,101.675s100.1-53.078,100.1-101.675-20.358-81.507-91.614-44.656C754.015,508.479,652.737,482.344,652.737,530.939Z" transform="translate(-652.736 -422.339)" fill="#d9a171"/>
        <g id="Grupo_1117620" data-name="Grupo 1117620" transform="translate(0 0)">
          <g id="Grupo_1117619" data-name="Grupo 1117619" clip-path="url(#clip-path)">
            <g id="Grupo_1117618" data-name="Grupo 1117618" transform="translate(31.117 21.726)">
              <g id="Grupo_1117490" data-name="Grupo 1117490" transform="translate(27.247 0)">
                <g id="Grupo_1117442" data-name="Grupo 1117442" transform="translate(0)">
                  <g id="Grupo_1117441" data-name="Grupo 1117441">
                    <g id="Grupo_1117433" data-name="Grupo 1117433">
                      <g id="Grupo_1117400" data-name="Grupo 1117400" transform="translate(0.231 0.247)">
                        <g id="Grupo_1117399" data-name="Grupo 1117399" transform="translate(0 0)">
                          <path id="Trazado_908817" data-name="Trazado 908817" d="M821.942,484.709a2.975,2.975,0,0,0-1.08-1.733,7.365,7.365,0,0,0-4.569-1.13,19.4,19.4,0,0,1-1.872-6.066,3.87,3.87,0,0,0,2.154-.611,2.1,2.1,0,0,0,.354-.109c1.535-.7,1.686-3,.719-4.38a8.758,8.758,0,0,0-4.2-2.7c1.157.07,2.144.834,3.251,1.178s2.663-.036,2.793-1.187a2.515,2.515,0,0,0-.175-1.036q-.327-1.021-.648-2.042a2.281,2.281,0,0,0-.9-1.424,5.33,5.33,0,0,0-1.178-.283c-1.293-.349-1.964-1.92-3.252-2.28a5.936,5.936,0,0,0-2.889.428c-.96.228-2.23.039-2.531-.9a9.215,9.215,0,0,0,3.287-2.779,3.163,3.163,0,0,0-.313-3.977,4.651,4.651,0,0,0-3.252-.666c-1.265.057-2.837.344-3.171,1.563a3.29,3.29,0,0,0-3.994,2.386c-.017.065-.03.13-.043.2l-3.257-.327c.909-.982,2.2-1.571,2.986-2.654s.641-3.027-.667-3.307a9.009,9.009,0,0,1-1.453-.127c-.327-.13-.6-.426-.951-.436a1.267,1.267,0,0,0-.7.276l-6.879,4.488,1.855-4.324c.573-1.329,1.016-3.164-.175-3.985-1.151-.8-2.837.349-3.075,1.732a2.236,2.236,0,0,0-2.719,2.058,2.27,2.27,0,0,0-2.663,3.46,6.435,6.435,0,0,0-3.273.982,1.973,1.973,0,0,0-3.187-1.357,3.439,3.439,0,0,0-.505-1.964,1.188,1.188,0,0,0-1.653-.3,1.356,1.356,0,0,0-.122.1,2.3,2.3,0,0,0-3.732-2.256q-.565-.686-1.135-1.371a3.032,3.032,0,0,0-2.923,1.516c-.478,1.062.322,2.592,1.484,2.487-.815-.014-.631,1.288-.154,1.951l1.99,2.767a2.55,2.55,0,0,0-3.156-.279,1.973,1.973,0,0,0-2.788-.043l-.064.065a1.6,1.6,0,0,0-2.87.485c-.2-.533-.934-.566-1.5-.5a3.713,3.713,0,0,0-2.269.78c-.581.575-.577,1.767.19,2.05-.7-.391-1.594.377-1.606,1.176a2.858,2.858,0,0,0,1.144,2.021,6.658,6.658,0,0,1,1.637,1.727,3.377,3.377,0,0,0-2.3-.485,8.752,8.752,0,0,0-4.163.83c-.244-.562-1.027-.587-1.629-.465a9.75,9.75,0,0,0-4.963,2.7c-.633.643-1.2,1.61-.764,2.4a2.414,2.414,0,0,0,.912.809l4.416,2.728a12.021,12.021,0,0,0-6.037,4.277c-.883.513-2.008.567-2.8,1.2s-.741,2.319.282,2.318a1.873,1.873,0,0,0-.545,2.173,1.778,1.778,0,0,0,.689.764,2.532,2.532,0,0,0,.484.546,3.453,3.453,0,0,0,1.186.622,2.31,2.31,0,0,0,1.974.91,9.409,9.409,0,0,0-2.1,2.487,3.94,3.94,0,0,0,0,4.051,2.066,2.066,0,0,0,.156.175,1.92,1.92,0,0,0,.845,1.222,1.629,1.629,0,0,0-.156,1.076,4.309,4.309,0,0,0-.969,7.553c1.015.718,2.9.585,2.994-.655a3.353,3.353,0,0,0,2.548,1.855,3.249,3.249,0,0,0,1.449,4.365c.082.04.166.079.25.113a3.463,3.463,0,0,0,1.091,5.665,2.653,2.653,0,1,0,4.993,1.793l.018-.053a5.608,5.608,0,0,0,1.986,2.486,1.947,1.947,0,0,0,2.684-.611c.021-.034.041-.069.061-.1a3.643,3.643,0,0,0,5.354,1.726,2.357,2.357,0,0,0,4.685.414l6.084-.059a21.685,21.685,0,0,0,4.022-.291,10.88,10.88,0,0,0,4.635-2.146,3.686,3.686,0,0,1,1.405-.854,3.8,3.8,0,0,1,1.855.286,9.844,9.844,0,0,0,9.349-2.21,4.929,4.929,0,0,1,1.234-.982,4.441,4.441,0,0,1,1.8-.249,17.717,17.717,0,0,0,4.421-.637,4.7,4.7,0,0,0,3.119-2.047c.581-1.141-.1-2.9-1.383-2.88a2.751,2.751,0,0,1,.68-2.311,1.658,1.658,0,0,1,2.247-.092,1.191,1.191,0,0,1-.546,1.942c1.376.948,3.513-.383,3.548-2.055a3.291,3.291,0,0,0-3.3-3.069,7.567,7.567,0,0,0,.094-3.679,2.706,2.706,0,0,0,3.686.417,4.655,4.655,0,0,0,3.018,2.169,2.793,2.793,0,0,0,3.084-1.685,2.008,2.008,0,0,0-1.911-2.591,2.4,2.4,0,0,0-2.137-3.478,3.74,3.74,0,0,0-2.283-3.97,1.965,1.965,0,0,0,2.667-.777,2.028,2.028,0,0,0,.134-.3c.775,1.222,2.66.922,3.907.191a2.629,2.629,0,0,0,1.641-2.859Z" transform="translate(-740.367 -446.499)" fill="#263238"/>
                        </g>
                      </g>
                      <g id="Grupo_1117401" data-name="Grupo 1117401">
                        <path id="Trazado_908818" data-name="Trazado 908818" d="M822.16,484.73a1.909,1.909,0,0,1,.07.5,2.156,2.156,0,0,1-.466,1.4,4.738,4.738,0,0,1-2.023,1.393,4.1,4.1,0,0,1-1.578.268,1.962,1.962,0,0,1-1.6-.848l.132-.02a2.051,2.051,0,0,1-2.607,1.273,2.117,2.117,0,0,1-.309-.136l.079-.156a3.848,3.848,0,0,1,2.357,4.069l-.109-.121a2.324,2.324,0,0,1,2.095,1.123,2.367,2.367,0,0,1,.154,2.521l-.109-.179a2.029,2.029,0,0,1,2.038,1.528,2.221,2.221,0,0,1-1.028,2.523,3.21,3.21,0,0,1-2.932.271,5.188,5.188,0,0,1-2.376-2.024l.21.034a2.858,2.858,0,0,1-3.9-.436l.27-.127a7.753,7.753,0,0,1-.087,3.753l-.152-.2a3.7,3.7,0,0,1,2.269.841,3.1,3.1,0,0,1,1.191,2.191,2.588,2.588,0,0,1-1.2,2.256,2.324,2.324,0,0,1-2.608.138l-.388-.262.465-.051a.965.965,0,0,0,.678-1.143,1.059,1.059,0,0,0-1.153-.84,1.635,1.635,0,0,0-1.389.843,2.832,2.832,0,0,0-.309,1.753l-.187-.162a1.585,1.585,0,0,1,1.212.563,2.347,2.347,0,0,1,.546,1.2,2.314,2.314,0,0,1-.168,1.322,3.139,3.139,0,0,1-.815,1.047,6.319,6.319,0,0,1-2.342,1.135,17.835,17.835,0,0,1-2.559.529c-1.719.361-3.71-.339-4.832,1.257a9.918,9.918,0,0,1-4.91,2.526,10.171,10.171,0,0,1-2.846.169,14.48,14.48,0,0,1-2.793-.611,1.715,1.715,0,0,0-1.249.141,9.9,9.9,0,0,0-1.135.837,11.226,11.226,0,0,1-2.593,1.451,15.587,15.587,0,0,1-5.936.855l-6.1.065.225-.2a2.589,2.589,0,0,1-5.15-.455l.373.2a3.884,3.884,0,0,1-5.367-1.164,3.777,3.777,0,0,1-.349-.69l.452.008a1.768,1.768,0,0,1-1.3,1.079,2.525,2.525,0,0,1-1.714-.2,5.691,5.691,0,0,1-2.159-2.619l.445-.034a2.9,2.9,0,1,1-5.474-1.9h0l.158.317a3.458,3.458,0,0,1-2.209-2.632,3.5,3.5,0,0,1,1.035-3.462l.079.429a3.5,3.5,0,0,1-1.969-4.547c.039-.1.087-.2.131-.291l.187.375a3.621,3.621,0,0,1-2.744-2l.482-.087a1.316,1.316,0,0,1-.4.841,1.728,1.728,0,0,1-.8.414,2.88,2.88,0,0,1-1.694-.141,4.289,4.289,0,0,1-2.182-2.531,4.416,4.416,0,0,1,.175-3.392,4.673,4.673,0,0,1,2.522-2.357l-.162.293a1.891,1.891,0,0,1,.179-1.244l.1.337a2.182,2.182,0,0,1-.96-1.387l.058.109a3.833,3.833,0,0,1-.493-3.841,8.381,8.381,0,0,1,2.45-3.23l.2.452a2.573,2.573,0,0,1-2.2-1.012l.13.087a3.253,3.253,0,0,1-1.81-1.273l.077.074a1.952,1.952,0,0,1-.951-1.589,2.129,2.129,0,0,1,.786-1.768l.161.466a.993.993,0,0,1-.822-.415,1.508,1.508,0,0,1-.262-.828,1.893,1.893,0,0,1,.647-1.544c.9-.7,2.016-.74,2.828-1.222l-.079.07a12.313,12.313,0,0,1,6.168-4.371l-.06.472-2.022-1.252-1.535-.949a12.748,12.748,0,0,1-1.54-1.026,1.55,1.55,0,0,1-.491-.93,1.938,1.938,0,0,1,.161-1.011,4.418,4.418,0,0,1,1.146-1.5,10.009,10.009,0,0,1,4.828-2.466,2.7,2.7,0,0,1,.982-.016,1.155,1.155,0,0,1,.882.643l-.37-.122a7.441,7.441,0,0,1,3.347-.826c.566-.026,1.113-.059,1.7-.043a2.822,2.822,0,0,1,1.718.546l-.4.319c-.494-.982-1.7-1.5-2.406-2.588a1.943,1.943,0,0,1-.235-1.941,1.684,1.684,0,0,1,.728-.734,1.16,1.16,0,0,1,1.091-.005l-.218.469a1.169,1.169,0,0,1-.694-.749,1.712,1.712,0,0,1-.018-.96,1.659,1.659,0,0,1,.488-.821,2.467,2.467,0,0,1,.776-.473,6.415,6.415,0,0,1,1.671-.336,2.861,2.861,0,0,1,.894.041,1.069,1.069,0,0,1,.8.635l-.5.062a1.856,1.856,0,0,1,3.357-.566l-.425-.056a2.222,2.222,0,0,1,3.142-.119c.034.031.065.062.1.1l-.349-.036a2.8,2.8,0,0,1,3.484.3l-.381.335-1.688-2.348a3.287,3.287,0,0,1-.7-1.355,1.732,1.732,0,0,1,0-.833.815.815,0,0,1,.275-.428.786.786,0,0,1,.494-.155l.018.5a1.719,1.719,0,0,1-1.637-1,2.124,2.124,0,0,1-.074-1.891,3.3,3.3,0,0,1,3.135-1.611h.109l.072.087,1.135,1.373-.349-.034a2.553,2.553,0,0,1,4.132,2.5l-.437-.205a1.194,1.194,0,0,1,1.174-.388,1.639,1.639,0,0,1,1.008.616,3.7,3.7,0,0,1,.534,2.073l-.416-.159a2.214,2.214,0,0,1,3.6,1.536l-.37-.21a6.672,6.672,0,0,1,3.4-1.012l-.188.383a2.51,2.51,0,0,1,2.946-3.819l-.327.218a2.464,2.464,0,0,1,2.578-2.345,2.409,2.409,0,0,1,.442.061l-.3.184a2.755,2.755,0,0,1,.924-1.558,2.357,2.357,0,0,1,1.7-.618,1.811,1.811,0,0,1,1.458,1.082,3.1,3.1,0,0,1,.137,1.746,14.609,14.609,0,0,1-1.127,3.1l-1.269,2.946-.327-.276,4.249-2.767,2.08-1.353a5.351,5.351,0,0,1,1.122-.642,1,1,0,0,1,.742.116c.2.109.358.231.511.3a3.2,3.2,0,0,0,1.119.087,1.586,1.586,0,0,1,1.2.585,2.631,2.631,0,0,1,.243,2.477,4.574,4.574,0,0,1-1.577,1.842,14.784,14.784,0,0,0-1.755,1.448l-.129-.344,3.257.334-.218.175a3.484,3.484,0,0,1,4.06-2.793c.078.014.154.031.232.051l-.244.134a2.242,2.242,0,0,1,1.658-1.449,8.046,8.046,0,0,1,2.1-.267,5.948,5.948,0,0,1,2.073.231,2.561,2.561,0,0,1,1.561,1.384,3.792,3.792,0,0,1-.677,3.831,10.94,10.94,0,0,1-2.994,2.329l.077-.2a1.34,1.34,0,0,0,1.135.829,3.317,3.317,0,0,0,1.54-.13,10.875,10.875,0,0,1,1.579-.391,2.431,2.431,0,0,1,1.615.31c.941.573,1.491,1.5,2.348,1.91a13.133,13.133,0,0,0,1.418.367,1.9,1.9,0,0,1,.96,1.185l.854,2.684a1.659,1.659,0,0,1-.109,1.427,1.9,1.9,0,0,1-1.174.764,3.09,3.09,0,0,1-1.348.021,6.168,6.168,0,0,1-1.214-.456,6.47,6.47,0,0,0-2.251-.79l.055-.248a15.336,15.336,0,0,1,2.668,1.28,4.961,4.961,0,0,1,1.871,2,3.651,3.651,0,0,1,.182,2.51,2.252,2.252,0,0,1-1.618,1.61l.025-.012a3.919,3.919,0,0,1-2.208.622l.093-.109a19.341,19.341,0,0,0,1.839,6.048l-.058-.038a11.455,11.455,0,0,1,3.055.371,4.293,4.293,0,0,1,1.847,1.082,2.929,2.929,0,0,1,.655,1.076,1.87,1.87,0,0,1,.093.4,3.085,3.085,0,0,0-.8-1.43,4.272,4.272,0,0,0-1.828-1.034,11.547,11.547,0,0,0-3.027-.335h-.039l-.018-.037a19.2,19.2,0,0,1-1.9-6.082l-.016-.109h.109a3.738,3.738,0,0,0,2.095-.606l.017-.009h.011a2.047,2.047,0,0,0,1.466-1.484,3.436,3.436,0,0,0-.185-2.357,4.756,4.756,0,0,0-1.8-1.889,15.269,15.269,0,0,0-2.632-1.244l-.753-.3.808.048a6.671,6.671,0,0,1,2.348.8,5.928,5.928,0,0,0,1.157.436,2.81,2.81,0,0,0,1.222-.024,1.62,1.62,0,0,0,1-.643,1.375,1.375,0,0,0,.067-1.192l-.877-2.655a1.6,1.6,0,0,0-.8-1.006,11.4,11.4,0,0,1-1.435-.368c-.969-.47-1.528-1.418-2.376-1.912-.855-.554-1.92-.184-2.939.123a3.655,3.655,0,0,1-1.69.143,1.679,1.679,0,0,1-1.4-1.06l-.04-.13.115-.07a10.679,10.679,0,0,0,2.893-2.256,3.436,3.436,0,0,0,.62-3.456,2.182,2.182,0,0,0-1.346-1.182,5.611,5.611,0,0,0-1.946-.206,7.756,7.756,0,0,0-2,.262,1.854,1.854,0,0,0-1.4,1.183l-.05.195-.195-.059a3.1,3.1,0,0,0-3.746,2.264q-.02.079-.034.157l-.031.192-.189-.019-3.258-.327-.412-.041.283-.3a14.919,14.919,0,0,1,1.8-1.5,4.207,4.207,0,0,0,1.44-1.664,2.234,2.234,0,0,0-.182-2.064,1.159,1.159,0,0,0-.893-.423,3.375,3.375,0,0,1-1.27-.126c-.428-.209-.7-.484-.974-.388a5.591,5.591,0,0,0-.991.587q-1.031.673-2.073,1.357l-4.245,2.774-.62.405.292-.681,1.265-2.946a14.38,14.38,0,0,0,1.091-3,2.645,2.645,0,0,0-.109-1.484,1.347,1.347,0,0,0-1.079-.808,2.225,2.225,0,0,0-2.124,1.795l-.047.262-.248-.073a2.008,2.008,0,0,0-2.379,1.546,1.825,1.825,0,0,0-.039.288v.349l-.327-.132a2.029,2.029,0,0,0-2.383,3.1l.282.374-.47.009a6.2,6.2,0,0,0-3.15.943l-.389.244.02-.454a1.734,1.734,0,0,0-2.771-1.18l-.389.393-.027-.553a3.288,3.288,0,0,0-.436-1.8c-.306-.436-1.1-.618-1.4-.218l-.681.917.245-1.121a2.058,2.058,0,0,0-3.333-2.012l-.191.161-.161-.193L769.159,448l.183.087a2.812,2.812,0,0,0-2.663,1.33c-.449.855.236,2.264,1.21,2.171l.017.505c-.158.009-.218.05-.274.218a1.251,1.251,0,0,0,.011.586,2.8,2.8,0,0,0,.621,1.165q.84,1.171,1.689,2.348l-.381.335a2.3,2.3,0,0,0-2.829-.262l-.191.144-.154-.179a1.72,1.72,0,0,0-2.432-.014l-.033.034-.262.314-.164-.368a1.35,1.35,0,0,0-2.383.4l-.109,1.288-.383-1.226c-.1-.327-.672-.4-1.164-.349a5.974,5.974,0,0,0-1.528.3,1.417,1.417,0,0,0-.951.945c-.121.443.018.968.391,1.091l-.218.468c-.354-.218-.894.087-1.107.524a1.434,1.434,0,0,0,.209,1.418c.575.94,1.788,1.443,2.432,2.631l.611,1.13-1.009-.808c-.758-.611-1.964-.41-3.055-.387a6.956,6.956,0,0,0-3.115.756l-.262.154-.109-.276c-.139-.367-.764-.427-1.285-.327a9.494,9.494,0,0,0-4.57,2.336,3.9,3.9,0,0,0-1.02,1.317,1.129,1.129,0,0,0,.209,1.362,13.116,13.116,0,0,0,1.454.96l1.528.95,2.023,1.25.49.3-.546.175a11.79,11.79,0,0,0-5.9,4.182l-.033.045-.045.025c-.973.546-2.057.6-2.766,1.179a1.389,1.389,0,0,0-.45,1.113c.016.424.228.764.563.744l.828-.048-.666.515a1.625,1.625,0,0,0-.586,1.334,1.417,1.417,0,0,0,.712,1.174l.048.028.029.045A2.723,2.723,0,0,0,743.3,484.2l.081.025.049.065a2.055,2.055,0,0,0,1.746.81l.786-.073-.587.524a7.9,7.9,0,0,0-2.311,3.019,3.33,3.33,0,0,0,.392,3.326l.044.048.016.065a1.672,1.672,0,0,0,.725,1.063l.209.122-.109.218a1.382,1.382,0,0,0-.134.907l.047.218-.209.079a4.151,4.151,0,0,0-2.237,2.095,3.9,3.9,0,0,0-.157,3,3.814,3.814,0,0,0,1.885,2.225,2.374,2.374,0,0,0,1.387.121.926.926,0,0,0,.8-.8l.059-.992.423.9a3.114,3.114,0,0,0,2.352,1.714l.374.044-.187.327a3.011,3.011,0,0,0,1.376,4.031c.061.03.123.058.186.087l.436.136-.361.293a3.007,3.007,0,0,0-.873,2.968,2.968,2.968,0,0,0,1.872,2.269l.244.077-.087.241a2.407,2.407,0,1,0,4.548,1.579l.182-.546.262.51a5.265,5.265,0,0,0,1.947,2.417,1.7,1.7,0,0,0,2.333-.6l.01-.017.23-.686.218.693a3.412,3.412,0,0,0,4.438,1.9,3.341,3.341,0,0,0,.55-.28l.388-.286-.014.481a2.125,2.125,0,0,0,4.222.374l.026-.195h.2l6.105-.053a15.163,15.163,0,0,0,5.783-.815,10.757,10.757,0,0,0,2.493-1.389,10.316,10.316,0,0,1,1.2-.873,2.149,2.149,0,0,1,1.54-.175,14.162,14.162,0,0,0,2.745.611,9.7,9.7,0,0,0,2.728-.156,9.507,9.507,0,0,0,4.714-2.409,5.178,5.178,0,0,1,1.08-.88,3.089,3.089,0,0,1,1.374-.319,21.05,21.05,0,0,0,2.609-.156,17.347,17.347,0,0,0,2.5-.511,5.958,5.958,0,0,0,2.2-1.056,2.154,2.154,0,0,0,.858-2.019,1.54,1.54,0,0,0-1.373-1.452h-.168l-.02-.167a3.2,3.2,0,0,1,.361-1.984,2.008,2.008,0,0,1,1.7-1.02,1.419,1.419,0,0,1,1.512,1.148,1.309,1.309,0,0,1-.982,1.544l.075-.318a1.983,1.983,0,0,0,2.216-.133,2.244,2.244,0,0,0,1.057-1.955,3.173,3.173,0,0,0-3.124-2.728h-.209l.057-.2a7.461,7.461,0,0,0,.1-3.6l-.148-.655.417.524a2.567,2.567,0,0,0,3.474.4l.122-.1.087.135a4.922,4.922,0,0,0,2.234,1.925,2.943,2.943,0,0,0,2.691-.235,1.964,1.964,0,0,0,.932-2.23,1.787,1.787,0,0,0-1.772-1.37l-.236.029.122-.21a2.3,2.3,0,0,0-2.027-3.309l-.134.014.022-.134a3.666,3.666,0,0,0-2.212-3.871l.079-.156a1.893,1.893,0,0,0,2.681-1.027l.043-.165.087.147a1.833,1.833,0,0,0,1.484.8,4.025,4.025,0,0,0,1.528-.244,4.718,4.718,0,0,0,2-1.33,2.152,2.152,0,0,0,.487-1.355A4.123,4.123,0,0,0,822.16,484.73Z" transform="translate(-740.353 -446.272)" fill="#455a64"/>
                      </g>
                      <g id="Grupo_1117404" data-name="Grupo 1117404" transform="translate(26.068 23.024)">
                        <g id="Grupo_1117403" data-name="Grupo 1117403" transform="translate(0 0)">
                          <g id="Grupo_1117402" data-name="Grupo 1117402">
                            <path id="Trazado_908819" data-name="Trazado 908819" d="M754.4,487.813A19.4,19.4,0,0,1,772.728,467.4q.349-.018.7-.025a19.969,19.969,0,0,1,20.231,18.243c.8,9.03,1.4,18.133,1.142,21.409-.764,9.878-6.906,13.346-9.369,14.349a13.256,13.256,0,0,1-2.692.476h0a.067.067,0,0,0-.061.073h0l1.5,11.494c.533,7.5,2.182,33.007-5.456,33.6-7.654.6-19.516-24.645-20.193-32.161Z" transform="translate(-754.376 -467.373)" fill="#ffbe9d"/>
                          </g>
                        </g>
                      </g>
                      <g id="Grupo_1117414" data-name="Grupo 1117414" transform="translate(56.531 42.381)">
                        <g id="Grupo_1117408" data-name="Grupo 1117408" transform="translate(2.657 4.74)">
                          <g id="Grupo_1117407" data-name="Grupo 1117407" transform="translate(0 0)">
                            <g id="Grupo_1117406" data-name="Grupo 1117406">
                              <g id="Grupo_1117405" data-name="Grupo 1117405">
                                <path id="Trazado_908820" data-name="Trazado 908820" d="M761.389,490.767a1.577,1.577,0,0,1-1.41,1.7,1.534,1.534,0,0,1-1.762-1.267v-.02a1.581,1.581,0,0,1,1.409-1.706,1.536,1.536,0,0,1,1.763,1.267Z" transform="translate(-758.211 -489.457)" fill="#263238"/>
                              </g>
                            </g>
                          </g>
                        </g>
                        <g id="Grupo_1117413" data-name="Grupo 1117413" transform="translate(0 0)">
                          <g id="Grupo_1117412" data-name="Grupo 1117412">
                            <g id="Grupo_1117411" data-name="Grupo 1117411">
                              <g id="Grupo_1117410" data-name="Grupo 1117410">
                                <g id="Grupo_1117409" data-name="Grupo 1117409">
                                  <path id="Trazado_908821" data-name="Trazado 908821" d="M764.071,486.536c-.18.218-1.465-.566-3.185-.428-1.72.109-2.91,1.082-3.113.89-.1-.087.071-.47.589-.906a4.436,4.436,0,0,1,2.471-.965,4.3,4.3,0,0,1,2.556.6C763.951,486.081,764.16,486.437,764.071,486.536Z" transform="translate(-757.746 -485.113)" fill="#263238"/>
                                </g>
                              </g>
                            </g>
                          </g>
                        </g>
                      </g>
                      <g id="Grupo_1117418" data-name="Grupo 1117418" transform="translate(39.651 44.017)">
                        <g id="Grupo_1117417" data-name="Grupo 1117417" transform="translate(3.467 4.385)">
                          <g id="Grupo_1117416" data-name="Grupo 1117416" transform="translate(0 0)">
                            <g id="Grupo_1117415" data-name="Grupo 1117415">
                              <path id="Trazado_908822" data-name="Trazado 908822" d="M776.116,491.939a1.578,1.578,0,0,1-1.411,1.7,1.534,1.534,0,0,1-1.762-1.267v-.021a1.577,1.577,0,0,1,1.409-1.706,1.535,1.535,0,0,1,1.763,1.267Z" transform="translate(-772.938 -490.631)" fill="#263238"/>
                            </g>
                          </g>
                        </g>
                        <path id="Trazado_908823" data-name="Trazado 908823" d="M779.541,488.032c-.182.218-1.466-.565-3.186-.428-1.72.114-2.91,1.082-3.113.89-.1-.087.07-.47.588-.906a4.434,4.434,0,0,1,2.471-.96,4.291,4.291,0,0,1,2.556.6C779.419,487.577,779.631,487.933,779.541,488.032Z" transform="translate(-773.215 -486.613)" fill="#263238"/>
                      </g>
                      <g id="Grupo_1117423" data-name="Grupo 1117423" transform="translate(51.289 43.462)">
                        <g id="Grupo_1117422" data-name="Grupo 1117422" transform="translate(0 0)">
                          <g id="Grupo_1117421" data-name="Grupo 1117421">
                            <g id="Grupo_1117420" data-name="Grupo 1117420">
                              <g id="Grupo_1117419" data-name="Grupo 1117419">
                                <path id="Trazado_908824" data-name="Trazado 908824" d="M764.622,500.12a11.6,11.6,0,0,1,2.754-.712c.436-.079.843-.2.894-.5a2.187,2.187,0,0,0-.4-1.257q-.748-1.517-1.571-3.183c-2.192-4.539-3.819-8.282-3.63-8.366s2.116,3.523,4.308,8.061l1.519,3.208a2.474,2.474,0,0,1,.367,1.675,1.089,1.089,0,0,1-.67.687,3.036,3.036,0,0,1-.737.159A11.434,11.434,0,0,1,764.622,500.12Z" transform="translate(-762.653 -486.104)" fill="#263238"/>
                              </g>
                            </g>
                          </g>
                        </g>
                      </g>
                      <g id="Grupo_1117425" data-name="Grupo 1117425" transform="translate(39.055 74.306)">
                        <g id="Grupo_1117424" data-name="Grupo 1117424">
                          <path id="Trazado_908825" data-name="Trazado 908825" d="M780.487,517.578s-6.6,1.047-15.31-3.206c.524.262,3.045,9.968,15.712,6.3Z" transform="translate(-765.177 -514.372)" fill="#eb996e"/>
                        </g>
                      </g>
                      <g id="Grupo_1117429" data-name="Grupo 1117429" transform="translate(47.822 60.637)">
                        <g id="Grupo_1117428" data-name="Grupo 1117428" transform="translate(0 0)">
                          <g id="Grupo_1117427" data-name="Grupo 1117427">
                            <g id="Grupo_1117426" data-name="Grupo 1117426">
                              <path id="Trazado_908826" data-name="Trazado 908826" d="M771.777,502.816a3.149,3.149,0,0,0-2.872-.914,2.839,2.839,0,0,0-1.868,1.18,1.746,1.746,0,0,0,.03,2.024,2.12,2.12,0,0,0,2.3.385,6.512,6.512,0,0,0,2.1-1.46,1.872,1.872,0,0,0,.45-.538.558.558,0,0,0-.054-.628" transform="translate(-766.728 -501.845)" fill="#eb996e"/>
                            </g>
                          </g>
                        </g>
                      </g>
                      <g id="Grupo_1117432" data-name="Grupo 1117432" transform="translate(48.081 59.047)">
                        <g id="Grupo_1117431" data-name="Grupo 1117431" transform="translate(0 0)">
                          <g id="Grupo_1117430" data-name="Grupo 1117430">
                            <path id="Trazado_908827" data-name="Trazado 908827" d="M765.959,500.388c.278-.038.436,1.8,2.141,2.973s3.678.821,3.71,1.076c.036.109-.414.391-1.252.477a4.729,4.729,0,0,1-3.09-.794,4,4,0,0,1-1.675-2.5C765.66,500.853,765.832,500.388,765.959,500.388Z" transform="translate(-765.745 -500.387)" fill="#263238"/>
                          </g>
                        </g>
                      </g>
                    </g>
                    <g id="Grupo_1117436" data-name="Grupo 1117436" transform="translate(38.132 38.94)">
                      <g id="Grupo_1117435" data-name="Grupo 1117435" transform="translate(0 0)">
                        <g id="Grupo_1117434" data-name="Grupo 1117434">
                          <path id="Trazado_908828" data-name="Trazado 908828" d="M781.066,482.988c-.132.472-1.867.388-3.865.786-2.008.357-3.586,1.064-3.887.672-.135-.188.109-.642.732-1.135a6.608,6.608,0,0,1,2.822-1.222,6.686,6.686,0,0,1,3.085.114C780.717,482.432,781.12,482.765,781.066,482.988Z" transform="translate(-773.278 -481.962)" fill="#263238"/>
                        </g>
                      </g>
                    </g>
                    <g id="Grupo_1117440" data-name="Grupo 1117440" transform="translate(56.093 37.839)">
                      <g id="Grupo_1117439" data-name="Grupo 1117439" transform="translate(0 0)">
                        <g id="Grupo_1117438" data-name="Grupo 1117438">
                          <g id="Grupo_1117437" data-name="Grupo 1117437">
                            <path id="Trazado_908829" data-name="Trazado 908829" d="M764.422,482.478c-.271.408-1.488.1-2.915.195-1.431.043-2.611.463-2.921.083-.137-.187.019-.585.517-.989a4.291,4.291,0,0,1,4.7-.218C764.343,481.9,764.545,482.284,764.422,482.478Z" transform="translate(-758.54 -480.951)" fill="#263238"/>
                          </g>
                        </g>
                      </g>
                    </g>
                  </g>
                </g>
                <g id="Grupo_1117489" data-name="Grupo 1117489" transform="translate(10.85 9.835)">
                  <g id="Grupo_1117444" data-name="Grupo 1117444" transform="translate(7.731 8.077)">
                    <g id="Grupo_1117443" data-name="Grupo 1117443" transform="translate(0 0)">
                      <path id="Trazado_908830" data-name="Trazado 908830" d="M801.729,474.125a12.4,12.4,0,0,0-.244-1.637,5,5,0,0,0-1.458-2.05c-2.089-2.05-4.294-4.168-6.923-4.848-1.606-.415-3.273-.262-4.883-.655a28.013,28.013,0,0,1-2.92-1.061,23.922,23.922,0,0,0-12.4-.669,19.754,19.754,0,0,0-6.656,2.161,23.848,23.848,0,0,0-5.971,5.434,36.364,36.364,0,0,0-6.656,10.713,17.786,17.786,0,0,0-.96,10.116c.793,3.37,3.176,6.394,6.093,6.861l1.016-1.384,1.624-2.052c-.269.819,0,.757.684,1.148a1.4,1.4,0,0,0,1.878-.606c.018-.036.036-.073.052-.111.586.664,1.735-.159,1.492-1.07.683.31,1.465-.64,1.185-1.44.786.227,1.13-1.035,1.458-1.888a12.884,12.884,0,0,1,.671-1.309,8.51,8.51,0,0,0,.862-4.658,8.348,8.348,0,0,0,1.058-4.583l.118-3.037q.252-.372.5-.745a1.638,1.638,0,0,0,1.213,1.471,3.491,3.491,0,0,0,1.819-.18l1.765-.5,1.148.232a4.539,4.539,0,0,0,.573,2.9,2.824,2.824,0,0,0,1.172,1.546.851.851,0,0,0,1.109-1.006.943.943,0,0,0,1.323-.162.956.956,0,0,0,.114-.187,3.106,3.106,0,0,0,.253-1.885,7.932,7.932,0,0,0-1.8-4.238l3.359,2.669a1.466,1.466,0,0,0,.8.406.829.829,0,0,0,.807.849.817.817,0,0,0,.145-.01,2.148,2.148,0,0,0,1.091-.873c.7-.861,1.388-2.284.637-3.128a.679.679,0,0,0,.28-.917.8.8,0,0,0-.062-.1l3.76,2.4c-.368-.175-.715.4-.6.856a1.888,1.888,0,0,0,.824.989,2.771,2.771,0,0,0-.271,1.714c-.684-.524-1.554.619-1.273,1.517a2.008,2.008,0,0,0,1.991,1.309,1.4,1.4,0,0,0,1.494-1.161c.791.1,1.453-1.029,1.1-1.885.593.327,1-.721.971-1.484a11.025,11.025,0,0,0-.887-3.9.2.2,0,0,0,.28.066l.012-.008a.226.226,0,0,0,.065-.154l2.24,4.394a11.421,11.421,0,0,1,1.426,3.962c.058.58.189,1.371.682,1.384a.719.719,0,0,0,.376-.132,7.31,7.31,0,0,0,2.89-3.978,5.568,5.568,0,0,0,.349-1.753,23.832,23.832,0,0,0-.806-3.668Z" transform="translate(-752.322 -462.687)" fill="#263238"/>
                    </g>
                  </g>
                  <g id="Grupo_1117452" data-name="Grupo 1117452" transform="translate(10.848 39.216)">
                    <g id="Grupo_1117451" data-name="Grupo 1117451" transform="translate(0 0)">
                      <g id="Grupo_1117450" data-name="Grupo 1117450">
                        <g id="Grupo_1117449" data-name="Grupo 1117449">
                          <g id="Grupo_1117448" data-name="Grupo 1117448">
                            <g id="Grupo_1117447" data-name="Grupo 1117447">
                              <g id="Grupo_1117446" data-name="Grupo 1117446">
                                <g id="Grupo_1117445" data-name="Grupo 1117445">
                                  <path id="Trazado_908831" data-name="Trazado 908831" d="M795.1,491.414c-.175-.062-6.9-1.577-6.262,5.15s7.263,4.7,7.256,4.5S795.1,491.414,795.1,491.414Z" transform="translate(-788.795 -491.225)" fill="#ffbe9d"/>
                                </g>
                              </g>
                            </g>
                          </g>
                        </g>
                      </g>
                    </g>
                  </g>
                  <g id="Grupo_1117457" data-name="Grupo 1117457" transform="translate(12.583 41.498)">
                    <g id="Grupo_1117456" data-name="Grupo 1117456" transform="translate(0 0)">
                      <g id="Grupo_1117455" data-name="Grupo 1117455">
                        <g id="Grupo_1117454" data-name="Grupo 1117454">
                          <g id="Grupo_1117453" data-name="Grupo 1117453">
                            <path id="Trazado_908832" data-name="Trazado 908832" d="M794.156,498.524c-.032-.018-.109.093-.3.2a1.181,1.181,0,0,1-.873.1,2.915,2.915,0,0,1-1.589-2.475,3.882,3.882,0,0,1,.169-1.71,1.361,1.361,0,0,1,.8-.982.6.6,0,0,1,.723.256c.109.179.079.319.114.327s.134-.127.053-.4a.754.754,0,0,0-.305-.4.888.888,0,0,0-.664-.109,1.659,1.659,0,0,0-1.125,1.16,4,4,0,0,0-.23,1.914,3.055,3.055,0,0,0,1.987,2.744,1.26,1.26,0,0,0,1.054-.28C794.165,498.689,794.186,498.534,794.156,498.524Z" transform="translate(-790.896 -493.317)" fill="#eb996e"/>
                          </g>
                        </g>
                      </g>
                    </g>
                  </g>
                  <g id="Grupo_1117459" data-name="Grupo 1117459" transform="translate(31.246 12.473)">
                    <g id="Grupo_1117458" data-name="Grupo 1117458" transform="translate(0 0)">
                      <path id="Trazado_908833" data-name="Trazado 908833" d="M777.154,472.227a1.687,1.687,0,0,0,.379-.9,1.193,1.193,0,0,0-.389-.987,1.278,1.278,0,0,0-1.316-.218l-.272.118.1-.282a1.336,1.336,0,0,0-.484-1.461,1.309,1.309,0,0,0-1.668.2l-.24-.189a.572.572,0,0,0,.079-.175.756.756,0,0,0-.162-.624.873.873,0,0,0-.577-.3,1.45,1.45,0,0,0-.671.087,1.833,1.833,0,0,1-.741.232c-.327-.031-.491-.258-.666-.349a2.574,2.574,0,0,0-.546-.278,2.906,2.906,0,0,0-1.1-.154,2.956,2.956,0,0,0-1.536.512c-.321.218-.461.4-.484.38a1.334,1.334,0,0,1,.41-.475,2.9,2.9,0,0,1,1.594-.632,3.041,3.041,0,0,1,1.2.13,2.748,2.748,0,0,1,.615.293c.207.125.367.3.533.3a1.777,1.777,0,0,0,.62-.224,1.722,1.722,0,0,1,.813-.109,1.166,1.166,0,0,1,.777.406,1.048,1.048,0,0,1,.218.886.841.841,0,0,1-.126.283l-.24-.19a1.551,1.551,0,0,1,2.627,1.549l-.175-.163a1.492,1.492,0,0,1,1.562.3,1.4,1.4,0,0,1,.087,1.879C777.249,472.193,777.159,472.235,777.154,472.227Z" transform="translate(-766.855 -466.716)" fill="#455a64"/>
                    </g>
                  </g>
                  <g id="Grupo_1117462" data-name="Grupo 1117462" transform="translate(36.682 9.545)">
                    <g id="Grupo_1117461" data-name="Grupo 1117461" transform="translate(0 0)">
                      <g id="Grupo_1117460" data-name="Grupo 1117460">
                        <path id="Trazado_908834" data-name="Trazado 908834" d="M772.229,473.775a2.063,2.063,0,0,0,.5-.891,1.518,1.518,0,0,0-.167-1.135,1.581,1.581,0,0,0-1.256-.762l-.218-.009.133-.175a1.886,1.886,0,0,0,.374-1.689,1.017,1.017,0,0,0-.663-.628.8.8,0,0,0-.883.195l-.78.982.533-1.14a1.566,1.566,0,0,0-.028-1.322,1.449,1.449,0,0,0-1.117-.8,1.526,1.526,0,0,0-1,.188l-.338.2.109-.379c.161-.536-.418-1.091-.947-1.116a2.575,2.575,0,0,0-1.562.536l-.278.18.065-.322a1.112,1.112,0,0,0-.456-1.047,2.057,2.057,0,0,0-1.072-.371,5.249,5.249,0,0,0-1.93.211,8.341,8.341,0,0,0-1.571.723,1.368,1.368,0,0,1,.357-.3,4.938,4.938,0,0,1,1.166-.583,5.168,5.168,0,0,1,2-.283,2.27,2.27,0,0,1,1.208.4,1.368,1.368,0,0,1,.572,1.3l-.212-.141a2.817,2.817,0,0,1,1.74-.6,1.421,1.421,0,0,1,.928.453,1.086,1.086,0,0,1,.286,1.047l-.224-.175a1.834,1.834,0,0,1,1.19-.232,1.746,1.746,0,0,1,1.347.972,1.858,1.858,0,0,1,.022,1.58l-.246-.154a1.091,1.091,0,0,1,1.2-.279,1.291,1.291,0,0,1,.829.808,2.112,2.112,0,0,1-.444,1.92l-.087-.188a1.768,1.768,0,0,1,1.408.9,1.674,1.674,0,0,1-.272,1.953C772.321,473.74,772.235,473.781,772.229,473.775Z" transform="translate(-759.679 -464.034)" fill="#455a64"/>
                      </g>
                    </g>
                  </g>
                  <g id="Grupo_1117465" data-name="Grupo 1117465" transform="translate(50.309 10.204)">
                    <g id="Grupo_1117464" data-name="Grupo 1117464" transform="translate(0 0)">
                      <g id="Grupo_1117463" data-name="Grupo 1117463">
                        <path id="Trazado_908835" data-name="Trazado 908835" d="M760.578,473.725a1.147,1.147,0,0,0-.463-.794,1.462,1.462,0,0,0-1.034-.275,4.3,4.3,0,0,0-1.41.464l-.161.077.008-.18a1.309,1.309,0,0,0-1.171-1.179,3.8,3.8,0,0,0-2.112.524l-.912.436.755-.668a1.076,1.076,0,0,0-.187-1.51l-.031-.024a2.444,2.444,0,0,0-1.92-.284l-.087.017-.59.109.467-.378a1.156,1.156,0,0,0-.284-1.806,1.746,1.746,0,0,0-1.92.349l-.578.546.357-.709a2.619,2.619,0,0,0-.235-2.649,2.439,2.439,0,0,0-1.885-.982,2.766,2.766,0,0,0-1.408.306c-.3.159-.437.288-.454.273s.025-.041.087-.109a1.877,1.877,0,0,1,.319-.244,2.7,2.7,0,0,1,1.457-.4,2.608,2.608,0,0,1,2.073,1.016,2.849,2.849,0,0,1,.3,2.916l-.218-.166a2.026,2.026,0,0,1,2.253-.415,1.472,1.472,0,0,1,.749,1.047,1.3,1.3,0,0,1-.415,1.266l-.123-.271.1-.017a2.713,2.713,0,0,1,2.161.349,1.558,1.558,0,0,1,.546.96,1.121,1.121,0,0,1-.327,1.024l-.156-.236a4,4,0,0,1,2.278-.524,1.537,1.537,0,0,1,1.343,1.444l-.154-.109a4.378,4.378,0,0,1,1.484-.436,1.571,1.571,0,0,1,1.122.354,1.1,1.1,0,0,1,.392.629A.463.463,0,0,1,760.578,473.725Z" transform="translate(-745.318 -464.635)" fill="#455a64"/>
                      </g>
                    </g>
                  </g>
                  <g id="Grupo_1117468" data-name="Grupo 1117468" transform="translate(42.513 4.588)">
                    <g id="Grupo_1117467" data-name="Grupo 1117467" transform="translate(0 0)">
                      <g id="Grupo_1117466" data-name="Grupo 1117466">
                        <path id="Trazado_908836" data-name="Trazado 908836" d="M767.573,459.494a.9.9,0,0,1-.388.175,5.132,5.132,0,0,1-1.173.162,3.525,3.525,0,0,0-1.672.4,1.078,1.078,0,0,0-.529.786.786.786,0,0,0,.385.861l-.2.166c-.1-.384-.6-.589-1.055-.809a5.1,5.1,0,0,0-1.473-.489,1.841,1.841,0,0,0-1.424.349,1.222,1.222,0,0,0-.528,1.173l.079.369-.3-.226a3.387,3.387,0,0,0-2.05-.645,3.826,3.826,0,0,0-1.675.389,4.845,4.845,0,0,0-1.23.944,1.223,1.223,0,0,1,.23-.349,3.245,3.245,0,0,1,.919-.745,3.847,3.847,0,0,1,1.752-.475,3.564,3.564,0,0,1,2.226.655l-.226.145a1.5,1.5,0,0,1,.623-1.471,2.128,2.128,0,0,1,1.647-.411,5.272,5.272,0,0,1,1.562.519,6.394,6.394,0,0,1,.7.367,1.11,1.11,0,0,1,.511.646l.066.283-.262-.117a1.048,1.048,0,0,1-.538-1.164,1.333,1.333,0,0,1,.664-.952,3.547,3.547,0,0,1,1.795-.37,6.633,6.633,0,0,0,1.157-.079A3.988,3.988,0,0,1,767.573,459.494Z" transform="translate(-754.339 -459.49)" fill="#455a64"/>
                      </g>
                    </g>
                  </g>
                  <g id="Grupo_1117470" data-name="Grupo 1117470" transform="translate(34.073 0)">
                    <g id="Grupo_1117469" data-name="Grupo 1117469" transform="translate(0)">
                      <path id="Trazado_908837" data-name="Trazado 908837" d="M774.708,455.344a3.239,3.239,0,0,0-.786.179,1.933,1.933,0,0,0-.719.546,1.665,1.665,0,0,0-.4,1.062v.166l-.159-.04a1.007,1.007,0,0,0-1.056.72,3.056,3.056,0,0,0,.087,1.679l.143.586-.411-.456-.065-.071a1.293,1.293,0,0,0-1.079-.341,1.442,1.442,0,0,0-.956.516,2.3,2.3,0,0,0-.457,1.845,4.258,4.258,0,0,0,.452,1.283,2.2,2.2,0,0,1,.228.459c-.015.01-.144-.122-.327-.4a3.755,3.755,0,0,1-.562-1.3,2.477,2.477,0,0,1,.453-2.064,1.7,1.7,0,0,1,2.386-.279q.045.034.087.072l.083.093-.267.131a3.229,3.229,0,0,1-.062-1.855,1.264,1.264,0,0,1,1.391-.873l-.159.126a1.857,1.857,0,0,1,.5-1.2,1.968,1.968,0,0,1,.823-.546,1.591,1.591,0,0,1,.623-.087C774.638,455.31,774.708,455.332,774.708,455.344Z" transform="translate(-768.584 -455.286)" fill="#455a64"/>
                    </g>
                  </g>
                  <g id="Grupo_1117473" data-name="Grupo 1117473" transform="translate(22.908 2.512)">
                    <g id="Grupo_1117472" data-name="Grupo 1117472" transform="translate(0 0)">
                      <g id="Grupo_1117471" data-name="Grupo 1117471">
                        <path id="Trazado_908838" data-name="Trazado 908838" d="M784.833,465.489a.811.811,0,0,1-.407-.057,2.532,2.532,0,0,1-.972-.57,2.7,2.7,0,0,1-.825-1.463,1.389,1.389,0,0,0-.272-.809c-.191-.2-.573-.3-.832-.634a1.527,1.527,0,0,1,.218-2.083l.005.218A4.9,4.9,0,0,1,780.3,458.4a1.976,1.976,0,0,1-.284-.811c.033-.013.149.279.43.728a5.4,5.4,0,0,0,1.466,1.547l.154.109-.148.115a1.26,1.26,0,0,0-.148,1.673c.175.249.518.34.8.611a1.6,1.6,0,0,1,.339.973,2.6,2.6,0,0,0,.7,1.357,3.841,3.841,0,0,0,1.226.786Z" transform="translate(-780.015 -457.588)" fill="#455a64"/>
                      </g>
                    </g>
                  </g>
                  <g id="Grupo_1117475" data-name="Grupo 1117475" transform="translate(11.01 9.47)">
                    <g id="Grupo_1117474" data-name="Grupo 1117474" transform="translate(0 0)">
                      <path id="Trazado_908839" data-name="Trazado 908839" d="M796.421,467.916c0,.013-.087.035-.25.058a3.375,3.375,0,0,1-.727,0,4.06,4.06,0,0,1-2.357-1.08l.2-.021a2.619,2.619,0,0,1-1.709,1.1,2.7,2.7,0,0,1-1.144-.037,1.664,1.664,0,0,1-1.032-.673,3.449,3.449,0,0,1-.158-.428.6.6,0,0,0-.218-.262,1.879,1.879,0,0,0-.728-.251,2.432,2.432,0,0,1-.809-.253.873.873,0,0,1-.5-.711l.2.117a2.689,2.689,0,0,1-1.855.2,2.9,2.9,0,0,1-1.283-.655,2.413,2.413,0,0,1-.571-.738.806.806,0,0,1-.1-.315,3.79,3.79,0,0,0,.78.925,2.853,2.853,0,0,0,1.222.561,2.492,2.492,0,0,0,1.672-.218l.2-.1.007.218a.591.591,0,0,0,.361.468,2.183,2.183,0,0,0,.724.213,2.133,2.133,0,0,1,.85.3.911.911,0,0,1,.32.4,3.873,3.873,0,0,0,.144.4,1.4,1.4,0,0,0,.841.53,2.444,2.444,0,0,0,1.015.04,2.388,2.388,0,0,0,1.543-.951l.087-.129.109.109a4.115,4.115,0,0,0,2.194,1.117C796.064,467.924,796.419,467.88,796.421,467.916Z" transform="translate(-783.383 -463.965)" fill="#455a64"/>
                    </g>
                  </g>
                  <g id="Grupo_1117477" data-name="Grupo 1117477" transform="translate(0.698 15.19)">
                    <g id="Grupo_1117476" data-name="Grupo 1117476" transform="translate(0 0)">
                      <path id="Trazado_908840" data-name="Trazado 908840" d="M788.617,478.842c-.005,0-.021-.032-.044-.1a1.715,1.715,0,0,1-.079-.313,3.228,3.228,0,0,1,.043-1.222,7.147,7.147,0,0,1,.67-1.776,6.7,6.7,0,0,1,.593-1.02,1.8,1.8,0,0,1,.494-.454.813.813,0,0,1,.745-.062l-.18.141A2.03,2.03,0,0,1,794,471.991l-.235.142a1.4,1.4,0,0,1,.467-1.187,1.345,1.345,0,0,1,1.283-.271,1.39,1.39,0,0,1,.636.4l-.262.127a.873.873,0,0,1,.262-.743,1.2,1.2,0,0,1,.662-.349,2.762,2.762,0,0,1,1.329.218l-.18.073a2.182,2.182,0,0,1,1.237-1.032,3.061,3.061,0,0,1,1.491-.127,7.681,7.681,0,0,1,2.39.944l-.148.15a.533.533,0,0,1,.017-.533.919.919,0,0,1,.349-.319,1.561,1.561,0,0,1,.8-.192,4.365,4.365,0,0,1,1.241.262,4.084,4.084,0,0,1,.72.349.835.835,0,0,1,.218.167c-.015.026-.333-.191-.982-.395a4.582,4.582,0,0,0-1.207-.2,1.415,1.415,0,0,0-.7.189c-.218.125-.4.359-.271.575l.194.32-.344-.175a7.682,7.682,0,0,0-2.325-.873,2.8,2.8,0,0,0-1.355.13,1.9,1.9,0,0,0-1.068.9l-.058.116-.123-.043a2.512,2.512,0,0,0-1.183-.2c-.361.051-.729.4-.669.74l.093.532-.36-.406a1.1,1.1,0,0,0-.493-.309,1.04,1.04,0,0,0-.992.205,1.1,1.1,0,0,0-.37.925l.038.327-.272-.188a1.794,1.794,0,0,0-2.017.023,1.819,1.819,0,0,0-.7,1.725l.045.25-.226-.109c-.341-.165-.714.134-.947.428a6.668,6.668,0,0,0-.591.97,7.484,7.484,0,0,0-.711,1.712,4.092,4.092,0,0,0-.072,1.606Z" transform="translate(-788.455 -469.205)" fill="#455a64"/>
                    </g>
                  </g>
                  <g id="Grupo_1117479" data-name="Grupo 1117479" transform="translate(2.406 21.068)">
                    <g id="Grupo_1117478" data-name="Grupo 1117478" transform="translate(0 0)">
                      <path id="Trazado_908841" data-name="Trazado 908841" d="M790.3,487.111c-.008.005-.066-.056-.169-.179a4.881,4.881,0,0,1-.41-.58,2.189,2.189,0,0,1-.338-1.091,1.584,1.584,0,0,1,.175-.716,1.143,1.143,0,0,1,.622-.57l-.048.169a1.425,1.425,0,0,1,1.329-2.308l-.123.228a1.146,1.146,0,0,1-.07-1.356,1.694,1.694,0,0,1,1.245-.716,6.47,6.47,0,0,0,.68-.061.586.586,0,0,0,.389-.4,2.476,2.476,0,0,1,.336-.69,1.321,1.321,0,0,1,.683-.456,7.532,7.532,0,0,1,1.618-.175,1.759,1.759,0,0,0,1.279-.493,7.051,7.051,0,0,0,.368-.618,1.515,1.515,0,0,1,.574-.524,1.606,1.606,0,0,1,1.431-.045l-.163.2a1.212,1.212,0,0,1,.045-1.418,1.709,1.709,0,0,1,1.091-.662,5.413,5.413,0,0,1,2.008.078,6.644,6.644,0,0,1,1.231.373,1.546,1.546,0,0,1,.407.209,15.43,15.43,0,0,0-1.667-.428,5.532,5.532,0,0,0-1.933-.018,1.5,1.5,0,0,0-.935.585.966.966,0,0,0-.039,1.111l.363.45-.524-.246a1.341,1.341,0,0,0-1.18.053,1.243,1.243,0,0,0-.463.436,6.073,6.073,0,0,1-.383.647,1.584,1.584,0,0,1-.688.464,3.543,3.543,0,0,1-.8.147,7.608,7.608,0,0,0-1.548.167,1.022,1.022,0,0,0-.534.354,2.275,2.275,0,0,0-.3.621.887.887,0,0,1-.589.572,5.519,5.519,0,0,1-.721.065,1.417,1.417,0,0,0-1.038.574.873.873,0,0,0,.027,1.02l.262.292-.388-.064a1.205,1.205,0,0,0-1.251.642,1.233,1.233,0,0,0,.132,1.261l.1.12-.145.049a1.164,1.164,0,0,0-.691,1.086,2.132,2.132,0,0,0,.271,1.031C790.109,486.826,790.321,487.1,790.3,487.111Z" transform="translate(-789.379 -474.594)" fill="#455a64"/>
                    </g>
                  </g>
                  <g id="Grupo_1117482" data-name="Grupo 1117482" transform="translate(0 35.646)">
                    <g id="Grupo_1117481" data-name="Grupo 1117481" transform="translate(0 0)">
                      <g id="Grupo_1117480" data-name="Grupo 1117480">
                        <path id="Trazado_908842" data-name="Trazado 908842" d="M802.2,502.409a.661.661,0,0,1-.3-.07,2.094,2.094,0,0,1-.742-.488,2.182,2.182,0,0,1-.621-1.244,2.316,2.316,0,0,1,.477-1.746v.163a4.219,4.219,0,0,1-.922-1.445,1.729,1.729,0,0,1-.013-.982,1.257,1.257,0,0,1,.655-.815l-.007.271a1.772,1.772,0,0,1-.9-1.528,1.984,1.984,0,0,1,.23-1.02,1.659,1.659,0,0,1,.733-.7.579.579,0,0,0,.384-.6,2.4,2.4,0,0,1,.127-.908A3.076,3.076,0,0,1,802.327,490c.384-.327.738-.642,1.075-.917a5.116,5.116,0,0,1,1.782-1.033,2.4,2.4,0,0,1,.557-.093c.129,0,.2,0,.2.016s-.271.027-.716.192a5.46,5.46,0,0,0-1.68,1.084l-1.047.942a2.876,2.876,0,0,0-.932,1.213,2.161,2.161,0,0,0-.1.817.88.88,0,0,1-.126.515,1.16,1.16,0,0,1-.4.339,1.579,1.579,0,0,0-.079,2.711l.274.139-.28.131a1.211,1.211,0,0,0-.5,1.439,4.068,4.068,0,0,0,.846,1.362l.066.087-.065.08a2.123,2.123,0,0,0-.471,1.563,2.072,2.072,0,0,0,.524,1.169,3.02,3.02,0,0,0,.943.656Z" transform="translate(-799.822 -487.953)" fill="#455a64"/>
                      </g>
                    </g>
                  </g>
                  <g id="Grupo_1117485" data-name="Grupo 1117485" transform="translate(24.969 18.398)">
                    <g id="Grupo_1117484" data-name="Grupo 1117484" transform="translate(0 0)">
                      <g id="Grupo_1117483" data-name="Grupo 1117483">
                        <path id="Trazado_908843" data-name="Trazado 908843" d="M782.787,477a2.294,2.294,0,0,1-.93-.283,2.566,2.566,0,0,1-.873-.639,1.68,1.68,0,0,1-.409-1.3,1.275,1.275,0,0,1,.1-.327l.082.205a1.46,1.46,0,0,1-.835-.941,1.329,1.329,0,0,1,.109-1c.29-.515.681-.6.68-.566.028.04-.293.19-.493.655a1.184,1.184,0,0,0-.036.834,1.229,1.229,0,0,0,.687.738l.14.057-.059.148a.988.988,0,0,0-.071.249,1.466,1.466,0,0,0,.327,1.072,2.639,2.639,0,0,0,.764.625,4.64,4.64,0,0,1,.82.472Z" transform="translate(-779.866 -472.147)" fill="#455a64"/>
                      </g>
                    </g>
                  </g>
                  <g id="Grupo_1117488" data-name="Grupo 1117488" transform="translate(26.418 15.218)">
                    <g id="Grupo_1117487" data-name="Grupo 1117487" transform="translate(0 0)">
                      <g id="Grupo_1117486" data-name="Grupo 1117486">
                        <path id="Trazado_908844" data-name="Trazado 908844" d="M781.611,473.385a1.791,1.791,0,0,0,.119-1.13,1.265,1.265,0,0,0-.8-.891,1.369,1.369,0,0,0-1.434.349l-.175.2-.072-.254a2.519,2.519,0,0,0-.423-.865,1.154,1.154,0,0,0-.807-.478c-.492-.024-1,.474-.832.863l-.281.087a2.336,2.336,0,0,0-.96-1.444,2.281,2.281,0,0,0-1.347-.388,3.564,3.564,0,0,0-1.255.339c-.009-.012.079-.109.282-.226a2.29,2.29,0,0,1,.96-.3,2.4,2.4,0,0,1,1.5.363,2.545,2.545,0,0,1,1.114,1.6l-.283.087a.856.856,0,0,1,.227-.908,1.222,1.222,0,0,1,.889-.367,1.44,1.44,0,0,1,1.034.6,2.732,2.732,0,0,1,.465.982l-.248-.058a1.613,1.613,0,0,1,1.734-.388,1.442,1.442,0,0,1,.887,1.082,1.464,1.464,0,0,1-.1.907C781.711,473.316,781.62,473.394,781.611,473.385Z" transform="translate(-773.345 -469.233)" fill="#455a64"/>
                      </g>
                    </g>
                  </g>
                </g>
              </g>
              <g id="Grupo_1117492" data-name="Grupo 1117492" transform="translate(35.27 86.385)">
                <g id="Grupo_1117491" data-name="Grupo 1117491" transform="translate(0 0)">
                  <path id="Trazado_908845" data-name="Trazado 908845" d="M748.325,527.244l-18.019,8.588,2.51,32.855s2.123,2.49,5.578,20.095-8.091,51.87-8.091,51.87l84.795,2.122s-9.951-71.064-11.1-80.469l-4.232-35.931-17.046-.932H777.8l-4.237,30.628-21.335-29.7Z" transform="translate(-730.302 -525.442)" fill="#455a64"/>
                </g>
              </g>
              <g id="Grupo_1117494" data-name="Grupo 1117494" transform="translate(131.391 139.948)">
                <g id="Grupo_1117493" data-name="Grupo 1117493" transform="translate(0 0)">
                  <path id="Trazado_908846" data-name="Trazado 908846" d="M716.086,586.488a4.88,4.88,0,0,1-.262-1.935,13.822,13.822,0,0,1,.786-4.652,13.367,13.367,0,0,1,2.291-4.072c.764-.909,1.357-1.343,1.4-1.293a23.431,23.431,0,0,0-3.172,5.565A24.126,24.126,0,0,0,716.086,586.488Z" transform="translate(-715.813 -574.531)" fill="#263238"/>
                </g>
              </g>
              <g id="Grupo_1117496" data-name="Grupo 1117496" transform="translate(95.468 87.319)">
                <g id="Grupo_1117495" data-name="Grupo 1117495" transform="translate(0 0)">
                  <path id="Trazado_908847" data-name="Trazado 908847" d="M749.469,582.735l-30.2-.262-11.423-33.734h0a131.06,131.06,0,0,0-5.974-11.893c-6.053-11.129-13.738-10.543-13.738-10.543l-9.275,14.418,9.842,22.084s9.419,41.644,20.332,43.475c18.122,3.039,50.555-9.487,50.555-9.487Z" transform="translate(-678.857 -526.298)" fill="#455a64"/>
                </g>
              </g>
              <g id="Grupo_1117498" data-name="Grupo 1117498" transform="translate(40.202 150.804)" opacity="0.2">
                <g id="Grupo_1117497" data-name="Grupo 1117497" transform="translate(0 0)">
                  <path id="Trazado_908848" data-name="Trazado 908848" d="M809.529,587.769c.028-1.149.314-2.627-.677-3.119a3.344,3.344,0,0,0-2.567.193c-25.024,8.871-39.5-1.427-64.527,7.445l-5.1,25.7c11.1.087,16.18-2.51,27.1-6,11.136-3.562,22.279-7.13,33.2-11.355a30.3,30.3,0,0,0,8.588-4.5,10.911,10.911,0,0,0,3.982-8.367Z" transform="translate(-736.661 -584.48)"/>
                </g>
              </g>
              <g id="Grupo_1117500" data-name="Grupo 1117500" transform="translate(107 111.586)">
                <g id="Grupo_1117499" data-name="Grupo 1117499">
                  <path id="Trazado_908849" data-name="Trazado 908849" d="M739.844,548.539a8.8,8.8,0,0,0,.582,1.7,28.59,28.59,0,0,1,1.047,4.171c.593,3.321.709,6.074.879,6.072a17.67,17.67,0,0,0-.29-6.179,18.242,18.242,0,0,0-1.243-4.22,4.092,4.092,0,0,0-.976-1.547Z" transform="translate(-739.844 -548.539)" fill="#263238"/>
                </g>
              </g>
              <g id="Grupo_1117509" data-name="Grupo 1117509" transform="translate(0 96.268)">
                <g id="Grupo_1117504" data-name="Grupo 1117504" transform="translate(0 0)">
                  <g id="Grupo_1117501" data-name="Grupo 1117501">
                    <path id="Trazado_908850" data-name="Trazado 908850" d="M824.186,590.823l13.161-20.28h0l1.181-1.819h0l1.773-2.744-7.73-31.48s-6.6,3.032-10.234,8.092a120.071,120.071,0,0,0-8.064,14.367s-12.875,29.46-14.993,33.853-5.535,12.536,0,17.1,42.582,4.714,42.582,4.714l2.493-18.614Z" transform="translate(-796.28 -534.5)" fill="#455a64"/>
                  </g>
                  <g id="Grupo_1117503" data-name="Grupo 1117503" transform="translate(38.214 4.983)">
                    <g id="Grupo_1117502" data-name="Grupo 1117502" transform="translate(0 0)">
                      <path id="Trazado_908851" data-name="Trazado 908851" d="M805.076,562.244c-.1-.02.189-1.38.312-3.6a28.636,28.636,0,0,0-4.226-16.562c-1.171-1.892-2.073-2.946-2-3.014.027-.025.275.218.7.689a18.4,18.4,0,0,1,1.629,2.115,26,26,0,0,1,4.286,16.8,18.559,18.559,0,0,1-.415,2.636,3.366,3.366,0,0,1-.285.933Z" transform="translate(-799.159 -539.066)" fill="#263238"/>
                    </g>
                  </g>
                </g>
                <g id="Grupo_1117508" data-name="Grupo 1117508" transform="translate(45.87 51.844)">
                  <g id="Grupo_1117505" data-name="Grupo 1117505" transform="translate(0 0)">
                    <path id="Trazado_908852" data-name="Trazado 908852" d="M767.223,593.1a12.727,12.727,0,0,1,3.336-4.4c2.426-2.107,7.747-3.74,8.441-5.761s2.706-.453,2.237,2.063c-.3,1.6-3.6,5.8-3.6,5.8s3.871.971,6.449-.514,11.6-4.154,12.57-2.893c1.091,1.427-1.271,1.9-2.291,2.478-.772.436-6.765,3.412-6.765,3.412s11.938-.407,13.443.161c1.637.617-.039,2.061-.793,2.095-.473.018-2.519,1.845-3.967,3.195a5.419,5.419,0,0,1-3.617,1.452l-2.773.042,8.427.884s1.457,1.332-.571,2.028c-.9.311-24.259,2.421-26.243,2.357-4.495-.15-10.755-.459-10.755-.459l1.091-12.653Z" transform="translate(-760.75 -582.012)" fill="#ffbe9d"/>
                  </g>
                  <g id="Grupo_1117507" data-name="Grupo 1117507" transform="translate(28.115 13.654)">
                    <g id="Grupo_1117506" data-name="Grupo 1117506" transform="translate(0 0)">
                      <path id="Trazado_908853" data-name="Trazado 908853" d="M773.512,594.548a25.234,25.234,0,0,1-11.6,2.073c-.005-.163,2.632-.314,5.825-.891S773.457,594.394,773.512,594.548Z" transform="translate(-761.916 -594.528)" fill="#eb996e"/>
                    </g>
                  </g>
                </g>
              </g>
              <g id="Grupo_1117597" data-name="Grupo 1117597" transform="translate(116.676 76.507)">
                <g id="Grupo_1117596" data-name="Grupo 1117596" transform="translate(0 0)">
                  <g id="Grupo_1117594" data-name="Grupo 1117594">
                    <g id="Grupo_1117510" data-name="Grupo 1117510" transform="translate(0.521 11.25)">
                      <path id="Trazado_908854" data-name="Trazado 908854" d="M739.462,526.7l-.045,8.1L726.6,607.342,661.29,595.806l.815-4.612Z" transform="translate(-661.29 -526.7)" fill="#5e6178"/>
                    </g>
                    <g id="Grupo_1117511" data-name="Grupo 1117511">
                      <path id="Trazado_908855" data-name="Trazado 908855" d="M738.194,527.491l-52.351-9.247a13.313,13.313,0,0,0-15.428,10.8h0l-8.92,50.49a13.316,13.316,0,0,0,10.8,15.428l52.35,9.247h0l13.552-76.714Z" transform="translate(-659.503 -516.239)" fill="#6595bf"/>
                      <path id="Trazado_908856" data-name="Trazado 908856" d="M663.45,593.355,726.4,604.474l13.589-76.924-62.955-11.121a2.765,2.765,0,0,0-3.192,2.239l-12.628,71.49A2.764,2.764,0,0,0,663.45,593.355Zm62.778,10.87-62.74-11.086a2.546,2.546,0,0,1-2.063-2.947l12.627-71.49A2.545,2.545,0,0,1,677,516.641l62.74,11.086Z" transform="translate(-661.174 -516.388)" fill="#6595bf"/>
                    </g>
                    <g id="Grupo_1117512" data-name="Grupo 1117512" transform="translate(3.521 3.131)">
                      <path id="Trazado_908857" data-name="Trazado 908857" d="M691.336,519.258l-4.7,5.407-11.7,66.193,56.6,9.419,3.66-2.653Z" transform="translate(-674.944 -519.258)" fill="#e0e0e0"/>
                    </g>
                    <g id="Grupo_1117515" data-name="Grupo 1117515" transform="translate(7.81 2.776)">
                      <g id="Grupo_1117513" data-name="Grupo 1117513" transform="translate(0.007 0.064)">
                        <rect id="Rectángulo_406108" data-name="Rectángulo 406108" width="56.838" height="69.833" transform="translate(55.971 78.656) rotate(-169.982)" fill="#fff"/>
                      </g>
                      <g id="Grupo_1117514" data-name="Grupo 1117514" transform="translate(0 0)">
                        <path id="Trazado_908858" data-name="Trazado 908858" d="M663.76,587.763c.076-.43,4.944-27.865,12.2-68.76l-.059.043,55.966,9.886h.005l-.043-.061L719.68,597.639l.055-.038-55.98-9.841,55.969,9.934.045.009.008-.047c3.479-19.669,7.664-43.327,12.159-68.767l.01-.056-.061-.011-55.967-9.88-.051-.009-.009.049C668.663,559.892,663.838,587.33,663.76,587.763Z" transform="translate(-663.755 -518.932)" fill="#263238"/>
                      </g>
                    </g>
                    <g id="Grupo_1117516" data-name="Grupo 1117516" transform="translate(64.972 33.485)">
                      <path id="Trazado_908859" data-name="Trazado 908859" d="M671.54,548.261a1.3,1.3,0,1,0,1.515-1.173,1.358,1.358,0,0,0-1.515,1.173Z" transform="translate(-671.536 -547.077)" fill="#263238"/>
                    </g>
                    <g id="Grupo_1117517" data-name="Grupo 1117517" transform="translate(70.102 43.672)" opacity="0.3">
                      <path id="Trazado_908860" data-name="Trazado 908860" d="M669.026,558.926l-2.419-.428.373-2.084,2.414.427Z" transform="translate(-666.607 -556.414)"/>
                    </g>
                    <g id="Grupo_1117520" data-name="Grupo 1117520" transform="translate(65.331 29.042)">
                      <g id="Grupo_1117518" data-name="Grupo 1117518" transform="translate(0.019 0)">
                        <path id="Trazado_908861" data-name="Trazado 908861" d="M668.386,543.141a7.549,7.549,0,1,1-2.671,14.853l-1.216-.215.328-1.759,1.191.262a5.816,5.816,0,1,0-5.028-6.785.794.794,0,0,1-1.583-.122.741.741,0,0,1,.026-.153A7.66,7.66,0,0,1,668.386,543.141Z" transform="translate(-659.405 -543.005)" fill="#e0e0e0"/>
                      </g>
                      <g id="Grupo_1117519" data-name="Grupo 1117519" transform="translate(0)">
                        <path id="Trazado_908862" data-name="Trazado 908862" d="M668.363,543.141l-.175-.031-.541-.071c-.236-.021-.531-.025-.881-.034a8.565,8.565,0,0,0-1.191.122,7.953,7.953,0,0,0-3.024,1.222l-.392.293c-.065.051-.135.1-.2.152l-.189.175c-.126.117-.262.227-.383.356l-.361.4a7.726,7.726,0,0,0-1.2,1.959,7.623,7.623,0,0,0-.369,1.184,1.809,1.809,0,0,0-.087.642.889.889,0,0,0,.318.588.772.772,0,0,0,.664.151.872.872,0,0,0,.55-.424,1.061,1.061,0,0,0,.121-.336l.078-.336a5.026,5.026,0,0,1,.208-.664,5.661,5.661,0,0,1,1.7-2.318,6.109,6.109,0,0,1,1.293-.793,6.768,6.768,0,0,1,.721-.278c.125-.039.252-.066.379-.1a2.906,2.906,0,0,1,.385-.087l.392-.061c.134-.015.262-.018.4-.029a7.094,7.094,0,0,1,.8,0,6.829,6.829,0,0,1,2.373.642c.126.06.244.134.367.2l.184.1.175.118a6.024,6.024,0,0,1,1.274,1.125,5.735,5.735,0,0,1,.924,1.452,5.323,5.323,0,0,1,.445,1.7,4.943,4.943,0,0,1-.122,1.775,5.1,5.1,0,0,1-.7,1.659,6.011,6.011,0,0,1-3.4,2.482,6.174,6.174,0,0,1-2.065.234,3.673,3.673,0,0,1-.511-.047,3.779,3.779,0,0,1-.5-.08l-.994-.217-.057-.01-.01.057-.328,1.758-.009.053.059.011c.452.079.9.164,1.343.23l.671.087.67.017a8.181,8.181,0,0,0,2.561-.452c.2-.075.4-.141.594-.227l.566-.275.524-.33a2.153,2.153,0,0,0,.253-.175l.244-.174a7.593,7.593,0,0,0,1.631-1.707c.12-.154.2-.327.305-.486l.145-.244.119-.254c.075-.175.162-.333.227-.506l.175-.516a7.339,7.339,0,0,0,.319-2.063,6.927,6.927,0,0,0-.048-.986,4.075,4.075,0,0,0-.077-.473c-.033-.155-.056-.313-.1-.461a7.468,7.468,0,0,0-.282-.863l-.166-.406c-.058-.132-.132-.256-.194-.381a7.722,7.722,0,0,0-1.885-2.331c-.087-.074-.165-.145-.249-.213l-.257-.18a5.075,5.075,0,0,0-.492-.32l-.47-.262c-.153-.075-.307-.137-.443-.2a5.762,5.762,0,0,0-.762-.284c-.113-.035-.209-.073-.31-.1l-.262-.057-.354-.079-.12-.021a.883.883,0,0,1,.118.031l.349.087.262.062c.1.024.2.065.307.1a6.034,6.034,0,0,1,.755.291c.139.065.287.13.436.2l.467.267a4.746,4.746,0,0,1,.486.326l.253.18c.087.065.162.139.247.209a7.666,7.666,0,0,1,1.86,2.323c.062.122.133.245.191.379l.161.4a7.286,7.286,0,0,1,.275.856c.045.148.058.3.093.459a3.985,3.985,0,0,1,.074.468,6.968,6.968,0,0,1,.049.978,7.247,7.247,0,0,1-.326,2.03l-.175.51c-.062.175-.151.332-.226.5l-.121.25-.141.24c-.1.157-.183.33-.3.479a7.488,7.488,0,0,1-1.616,1.684l-.242.179a2.161,2.161,0,0,1-.25.175l-.524.316-.559.27c-.188.087-.389.154-.585.23a8.077,8.077,0,0,1-2.531.436l-.663-.018-.662-.087c-.443-.065-.889-.157-1.343-.231l.045.063q.161-.864.33-1.758l-.065.044,1,.218a4.257,4.257,0,0,0,.511.087,3.784,3.784,0,0,0,.524.047,6.245,6.245,0,0,0,2.1-.237,6.117,6.117,0,0,0,3.47-2.531,5.236,5.236,0,0,0,.718-1.693,5.01,5.01,0,0,0,.122-1.811,5.357,5.357,0,0,0-.455-1.73,5.8,5.8,0,0,0-.939-1.488,6.083,6.083,0,0,0-1.3-1.143l-.175-.121-.187-.1c-.126-.068-.248-.142-.375-.2a6.916,6.916,0,0,0-2.414-.648,6.827,6.827,0,0,0-.82,0c-.134.01-.271.014-.4.03l-.4.064a3.028,3.028,0,0,0-.392.087c-.127.035-.262.065-.385.1a6.579,6.579,0,0,0-.734.288,6.233,6.233,0,0,0-1.314.808,5.752,5.752,0,0,0-1.726,2.357,4.91,4.91,0,0,0-.209.677c-.027.113-.052.227-.079.34a.939.939,0,0,1-.109.313.786.786,0,0,1-.492.383.686.686,0,0,1-.589-.132.811.811,0,0,1-.288-.531,1.752,1.752,0,0,1,.087-.611,7.1,7.1,0,0,1,1.543-3.115l.357-.4c.12-.127.253-.238.377-.354l.192-.175c.064-.055.129-.1.2-.152l.384-.293a7.943,7.943,0,0,1,3-1.232,8.828,8.828,0,0,1,1.185-.133c.345,0,.638,0,.873.021l.543.063C668.3,543.139,668.363,543.141,668.363,543.141Z" transform="translate(-659.366 -543.005)" fill="#263238"/>
                      </g>
                    </g>
                    <g id="Grupo_1117521" data-name="Grupo 1117521" transform="translate(61.402 53.69)">
                      <path id="Trazado_908863" data-name="Trazado 908863" d="M674.811,566.779a1.3,1.3,0,1,0,1.517-1.173A1.36,1.36,0,0,0,674.811,566.779Z" transform="translate(-674.807 -565.595)" fill="#263238"/>
                    </g>
                    <g id="Grupo_1117522" data-name="Grupo 1117522" transform="translate(20.652 20.904)">
                      <rect id="Rectángulo_406109" data-name="Rectángulo 406109" width="43.783" height="1.832" transform="translate(43.116 9.421) rotate(-169.982)" fill="#6595bf"/>
                    </g>
                    <g id="Grupo_1117523" data-name="Grupo 1117523" transform="translate(39.029 21.869)">
                      <rect id="Rectángulo_406110" data-name="Rectángulo 406110" width="25.519" height="1.832" transform="translate(25.13 6.244) rotate(-169.982)" fill="#6595bf"/>
                    </g>
                    <g id="Grupo_1117524" data-name="Grupo 1117524" transform="translate(31.784 62.882)">
                      <rect id="Rectángulo_406111" data-name="Rectángulo 406111" width="25.519" height="1.832" transform="translate(25.13 6.244) rotate(-169.982)" fill="#6595bf"/>
                    </g>
                    <g id="Grupo_1117583" data-name="Grupo 1117583" transform="translate(15.298 14.765)">
                      <g id="Grupo_1117582" data-name="Grupo 1117582" transform="translate(0 0)">
                        <g id="Grupo_1117581" data-name="Grupo 1117581">
                          <g id="Grupo_1117526" data-name="Grupo 1117526" transform="translate(6.045)">
                            <g id="Grupo_1117525" data-name="Grupo 1117525" transform="translate(0)">
                              <rect id="Rectángulo_406112" data-name="Rectángulo 406112" width="43.838" height="2.673" transform="translate(43.17 10.258) rotate(-169.982)" fill="#e0e0e0"/>
                            </g>
                          </g>
                          <g id="Grupo_1117528" data-name="Grupo 1117528" transform="translate(2.247 24.211)">
                            <g id="Grupo_1117527" data-name="Grupo 1117527" transform="translate(0 0)">
                              <rect id="Rectángulo_406113" data-name="Rectángulo 406113" width="43.838" height="2.673" transform="translate(43.17 10.258) rotate(-169.982)" fill="#e0e0e0"/>
                            </g>
                          </g>
                          <g id="Grupo_1117530" data-name="Grupo 1117530" transform="translate(30.025 15.748)">
                            <g id="Grupo_1117529" data-name="Grupo 1117529" transform="translate(0 0)">
                              <rect id="Rectángulo_406114" data-name="Rectángulo 406114" width="17.484" height="2.673" transform="translate(17.217 5.674) rotate(-169.982)" fill="#e0e0e0"/>
                            </g>
                          </g>
                          <g id="Grupo_1117532" data-name="Grupo 1117532" transform="translate(4.537 11.246)">
                            <g id="Grupo_1117531" data-name="Grupo 1117531" transform="translate(0 0)">
                              <rect id="Rectángulo_406115" data-name="Rectángulo 406115" width="21.859" height="2.673" transform="translate(21.526 6.435) rotate(-169.982)" fill="#e0e0e0"/>
                            </g>
                          </g>
                          <g id="Grupo_1117534" data-name="Grupo 1117534" transform="translate(23.86 8.178)">
                            <g id="Grupo_1117533" data-name="Grupo 1117533" transform="translate(0 0)">
                              <path id="Trazado_908864" data-name="Trazado 908864" d="M674.842,537.416c-.005.03,5.531,1.03,12.364,2.237s12.378,2.165,12.383,2.134-5.53-1.034-12.365-2.242S674.847,537.384,674.842,537.416Z" transform="translate(-674.842 -537.415)" fill="#263238"/>
                            </g>
                          </g>
                          <g id="Grupo_1117536" data-name="Grupo 1117536" transform="translate(5.511 7.07)">
                            <g id="Grupo_1117535" data-name="Grupo 1117535" transform="translate(0 0)">
                              <path id="Trazado_908865" data-name="Trazado 908865" d="M675.135,536.4c-.005.03,9.565,1.746,21.379,3.828s21.391,3.753,21.4,3.727-9.566-1.746-21.379-3.835S675.14,536.371,675.135,536.4Z" transform="translate(-675.135 -536.4)" fill="#263238"/>
                            </g>
                          </g>
                          <g id="Grupo_1117538" data-name="Grupo 1117538" transform="translate(5.165 9.033)">
                            <g id="Grupo_1117537" data-name="Grupo 1117537" transform="translate(0 0)">
                              <path id="Trazado_908866" data-name="Trazado 908866" d="M675.453,538.2c-.005.031,9.565,1.746,21.378,3.83s21.392,3.758,21.4,3.726-9.565-1.746-21.377-3.833S675.458,538.169,675.453,538.2Z" transform="translate(-675.453 -538.2)" fill="#263238"/>
                            </g>
                          </g>
                          <g id="Grupo_1117540" data-name="Grupo 1117540" transform="translate(29.891 20.011)">
                            <g id="Grupo_1117539" data-name="Grupo 1117539" transform="translate(0 0)">
                              <path id="Trazado_908867" data-name="Trazado 908867" d="M676.228,548.261c-.005.031,3.841.737,8.588,1.571s8.61,1.5,8.615,1.465-3.841-.736-8.588-1.571S676.234,548.23,676.228,548.261Z" transform="translate(-676.228 -548.26)" fill="#263238"/>
                            </g>
                          </g>
                          <g id="Grupo_1117542" data-name="Grupo 1117542" transform="translate(29.534 22.033)">
                            <g id="Grupo_1117541" data-name="Grupo 1117541" transform="translate(0 0)">
                              <path id="Trazado_908868" data-name="Trazado 908868" d="M676.817,550.115c-.005.031,3.778.724,8.449,1.55s8.467,1.468,8.467,1.439-3.776-.724-8.45-1.55S676.822,550.083,676.817,550.115Z" transform="translate(-676.817 -550.114)" fill="#263238"/>
                            </g>
                          </g>
                          <g id="Grupo_1117544" data-name="Grupo 1117544" transform="translate(29.241 24.101)">
                            <g id="Grupo_1117543" data-name="Grupo 1117543" transform="translate(0 0)">
                              <path id="Trazado_908869" data-name="Trazado 908869" d="M676.952,552.01c-.005.03,3.811.725,8.523,1.558s8.535,1.484,8.54,1.455-3.808-.73-8.522-1.562S676.957,551.978,676.952,552.01Z" transform="translate(-676.952 -552.009)" fill="#263238"/>
                            </g>
                          </g>
                          <g id="Grupo_1117546" data-name="Grupo 1117546" transform="translate(28.889 26.096)">
                            <g id="Grupo_1117545" data-name="Grupo 1117545" transform="translate(0 0)">
                              <path id="Trazado_908870" data-name="Trazado 908870" d="M677.275,553.838c0,.03,3.811.727,8.523,1.558s8.535,1.484,8.54,1.455-3.808-.73-8.522-1.562S677.28,553.8,677.275,553.838Z" transform="translate(-677.275 -553.837)" fill="#263238"/>
                            </g>
                          </g>
                          <g id="Grupo_1117550" data-name="Grupo 1117550" transform="translate(4.502 16.016)">
                            <g id="Grupo_1117547" data-name="Grupo 1117547" transform="translate(0 0)">
                              <path id="Trazado_908871" data-name="Trazado 908871" d="M698.934,544.6c-.005.03,3.98.756,8.9,1.624s8.913,1.553,8.918,1.522-3.979-.76-8.9-1.629S698.939,544.568,698.934,544.6Z" transform="translate(-698.934 -544.599)" fill="#263238"/>
                            </g>
                            <g id="Grupo_1117549" data-name="Grupo 1117549" transform="translate(19.07 2.683)">
                              <g id="Grupo_1117548" data-name="Grupo 1117548" transform="translate(0 0)">
                                <path id="Trazado_908872" data-name="Trazado 908872" d="M696.411,548.4a3.511,3.511,0,0,0,.087-.366c.048-.223.115-.544.187-.916l-.053.043,1.222.217-.045-.06h0l-.031.175-.031.175-.059.333-.108.611.062-.038c-.358-.064-.662-.1-.88-.13a3.046,3.046,0,0,0-.356-.038,1.866,1.866,0,0,0,.318.081c.216.047.524.113.9.187l.046.008.009-.052.107-.611.059-.333.061-.349h0l-.035-.068-1.222-.207-.045-.009-.009.049c-.07.4-.114.729-.144.954a2.133,2.133,0,0,0-.04.345Z" transform="translate(-696.407 -547.056)" fill="#263238"/>
                              </g>
                            </g>
                          </g>
                          <g id="Grupo_1117555" data-name="Grupo 1117555" transform="translate(4.063 18.492)">
                            <g id="Grupo_1117552" data-name="Grupo 1117552" transform="translate(0 0)">
                              <g id="Grupo_1117551" data-name="Grupo 1117551">
                                <path id="Trazado_908873" data-name="Trazado 908873" d="M699.335,546.869c-.005.031,3.98.756,8.9,1.625s8.913,1.552,8.918,1.522-3.978-.76-8.9-1.631S699.34,546.837,699.335,546.869Z" transform="translate(-699.335 -546.868)" fill="#263238"/>
                              </g>
                            </g>
                            <g id="Grupo_1117554" data-name="Grupo 1117554" transform="translate(19.071 2.686)">
                              <g id="Grupo_1117553" data-name="Grupo 1117553" transform="translate(0 0)">
                                <path id="Trazado_908874" data-name="Trazado 908874" d="M696.813,550.678a3.559,3.559,0,0,0,.087-.367c.048-.222.117-.542.187-.914l-.053.043,1.222.216-.045-.06h0l-.031.175-.031.175-.059.333-.108.611.063-.038c-.358-.063-.662-.1-.879-.13a2.792,2.792,0,0,0-.357-.039,1.859,1.859,0,0,0,.319.08c.215.047.524.113.9.188l.045.009.009-.052.108-.611.058-.333.06-.349h0l-.034-.066-1.227-.209-.045-.008-.009.048c-.07.4-.113.728-.144.955a2.112,2.112,0,0,0-.036.346Z" transform="translate(-696.809 -549.329)" fill="#263238"/>
                              </g>
                            </g>
                          </g>
                          <g id="Grupo_1117560" data-name="Grupo 1117560" transform="translate(3.626 20.967)">
                            <g id="Grupo_1117557" data-name="Grupo 1117557" transform="translate(0 0)">
                              <g id="Grupo_1117556" data-name="Grupo 1117556">
                                <path id="Trazado_908875" data-name="Trazado 908875" d="M699.736,549.138c-.005.031,3.98.758,8.9,1.626s8.913,1.554,8.918,1.522-3.979-.76-8.9-1.631S699.741,549.1,699.736,549.138Z" transform="translate(-699.736 -549.137)" fill="#263238"/>
                              </g>
                            </g>
                            <g id="Grupo_1117559" data-name="Grupo 1117559" transform="translate(19.071 2.691)">
                              <g id="Grupo_1117558" data-name="Grupo 1117558" transform="translate(0 0)">
                                <path id="Trazado_908876" data-name="Trazado 908876" d="M697.214,552.947a3.2,3.2,0,0,0,.087-.367c.049-.222.117-.542.187-.914l-.053.043,1.222.217-.044-.06h0l-.031.175-.031.175-.059.333-.107.611.061-.038c-.358-.064-.662-.1-.878-.13a2.8,2.8,0,0,0-.357-.038,1.874,1.874,0,0,0,.318.08c.216.047.524.113.9.187l.045.008.009-.052.108-.611.059-.333.06-.345h0l-.034-.068-1.227-.207-.045-.009-.009.049c-.07.4-.113.728-.144.954a2.133,2.133,0,0,0-.036.34Z" transform="translate(-697.21 -551.604)" fill="#263238"/>
                              </g>
                            </g>
                          </g>
                          <g id="Grupo_1117574" data-name="Grupo 1117574" transform="translate(0 29.211)">
                            <path id="Trazado_908877" data-name="Trazado 908877" d="M678.4,568.929l.037-.215.109-.616c.1-.544.238-1.345.431-2.387.368-2.084.916-5.127,1.6-8.974l-.038.028,42.51,7.528h0l-.043-.06-2.155,12.194.062-.045-30.365-5.339-8.921-1.562-2.4-.416-.623-.11-.215-.038.206.036.616.109,2.386.429,8.9,1.589,30.389,5.394.062.011.008-.037,2.154-12.2.01-.056-.056-.01-42.51-7.488-.033-.005-.005.035c-.675,3.859-1.207,6.912-1.571,9-.184,1.039-.319,1.839-.414,2.382l-.108.611C678.414,568.859,678.4,568.929,678.4,568.929Z" transform="translate(-678.393 -556.692)" fill="#263238"/>
                            <g id="Grupo_1117562" data-name="Grupo 1117562" transform="translate(1.619 3.109)">
                              <g id="Grupo_1117561" data-name="Grupo 1117561" transform="translate(0 0)">
                                <path id="Trazado_908878" data-name="Trazado 908878" d="M679.055,559.542c-.005.031,9.481,1.732,21.183,3.8s21.2,3.719,21.211,3.689-9.479-1.733-21.187-3.8S679.06,559.51,679.055,559.542Z" transform="translate(-679.055 -559.542)" fill="#263238"/>
                              </g>
                            </g>
                            <g id="Grupo_1117564" data-name="Grupo 1117564" transform="translate(1.085 6.137)">
                              <g id="Grupo_1117563" data-name="Grupo 1117563" transform="translate(0 0)">
                                <path id="Trazado_908879" data-name="Trazado 908879" d="M679.546,562.317c-.005.031,9.481,1.732,21.183,3.8s21.2,3.719,21.206,3.688-9.478-1.732-21.185-3.8S679.551,562.286,679.546,562.317Z" transform="translate(-679.546 -562.317)" fill="#263238"/>
                              </g>
                            </g>
                            <g id="Grupo_1117566" data-name="Grupo 1117566" transform="translate(0.544 9.197)">
                              <g id="Grupo_1117565" data-name="Grupo 1117565" transform="translate(0 0)">
                                <path id="Trazado_908880" data-name="Trazado 908880" d="M680.041,565.122c0,.03,9.48,1.732,21.184,3.8s21.2,3.719,21.206,3.689-9.479-1.733-21.185-3.8S680.048,565.091,680.041,565.122Z" transform="translate(-680.041 -565.122)" fill="#263238"/>
                              </g>
                            </g>
                            <g id="Grupo_1117568" data-name="Grupo 1117568" transform="translate(37.555 6.656)">
                              <g id="Grupo_1117567" data-name="Grupo 1117567" transform="translate(0)">
                                <path id="Trazado_908881" data-name="Trazado 908881" d="M682.974,575.113c.03.005.54-2.746,1.141-6.15s1.065-6.165,1.035-6.17-.542,2.749-1.143,6.15S682.945,575.107,682.974,575.113Z" transform="translate(-682.973 -562.792)" fill="#263238"/>
                              </g>
                            </g>
                            <g id="Grupo_1117570" data-name="Grupo 1117570" transform="translate(23.245 4.302)">
                              <g id="Grupo_1117569" data-name="Grupo 1117569" transform="translate(0)">
                                <path id="Trazado_908882" data-name="Trazado 908882" d="M696.178,572.4c.028.005.517-2.619,1.091-5.873s1.016-5.888.987-5.893-.524,2.624-1.095,5.874S696.147,572.4,696.178,572.4Z" transform="translate(-696.176 -560.635)" fill="#263238"/>
                              </g>
                            </g>
                            <g id="Grupo_1117573" data-name="Grupo 1117573" transform="translate(8.002 1.811)">
                              <g id="Grupo_1117572" data-name="Grupo 1117572" transform="translate(0 0)">
                                <g id="Grupo_1117571" data-name="Grupo 1117571">
                                  <path id="Trazado_908883" data-name="Trazado 908883" d="M710.089,570.487c.03.005.533-2.706,1.125-6.057s1.047-6.074,1.02-6.078-.534,2.706-1.127,6.058S710.06,570.482,710.089,570.487Z" transform="translate(-710.088 -558.352)" fill="#263238"/>
                                </g>
                              </g>
                            </g>
                          </g>
                          <g id="Grupo_1117576" data-name="Grupo 1117576" transform="translate(0.373 44.327)">
                            <g id="Grupo_1117575" data-name="Grupo 1117575" transform="translate(0 0)">
                              <path id="Trazado_908884" data-name="Trazado 908884" d="M681.051,570.546c-.005.031,9.273,1.692,20.719,3.714s20.735,3.64,20.74,3.61-9.269-1.7-20.722-3.719S681.056,570.515,681.051,570.546Z" transform="translate(-681.051 -570.546)" fill="#263238"/>
                            </g>
                          </g>
                          <g id="Grupo_1117578" data-name="Grupo 1117578" transform="translate(0.06 46.09)">
                            <g id="Grupo_1117577" data-name="Grupo 1117577" transform="translate(0 0)">
                              <path id="Trazado_908885" data-name="Trazado 908885" d="M681.336,572.162c-.005.03,9.273,1.692,20.721,3.713s20.735,3.641,20.74,3.61-9.27-1.694-20.722-3.718S681.341,572.13,681.336,572.162Z" transform="translate(-681.336 -572.161)" fill="#263238"/>
                            </g>
                          </g>
                          <g id="Grupo_1117580" data-name="Grupo 1117580" transform="translate(26.122 52.511)">
                            <g id="Grupo_1117579" data-name="Grupo 1117579" transform="translate(0 0)">
                              <path id="Trazado_908886" data-name="Trazado 908886" d="M681.622,578.047c-.005.03,3.369.649,7.534,1.384s7.547,1.309,7.553,1.281-3.368-.651-7.533-1.388S681.627,578.015,681.622,578.047Z" transform="translate(-681.622 -578.046)" fill="#263238"/>
                            </g>
                          </g>
                        </g>
                      </g>
                    </g>
                    <g id="Grupo_1117584" data-name="Grupo 1117584" transform="translate(66.644 63.25)" opacity="0.3">
                      <path id="Trazado_908887" data-name="Trazado 908887" d="M672.2,576.867l-2.419-.427.373-2.084,2.414.427Z" transform="translate(-669.777 -574.356)"/>
                    </g>
                    <g id="Grupo_1117587" data-name="Grupo 1117587" transform="translate(61.789 49.093)">
                      <g id="Grupo_1117585" data-name="Grupo 1117585" transform="translate(0.018 0)">
                        <path id="Trazado_908888" data-name="Trazado 908888" d="M671.632,561.518a7.549,7.549,0,1,1-2.67,14.852l-1.215-.215.328-1.759,1.19.262a5.815,5.815,0,1,0-5.028-6.785.794.794,0,0,1-1.583-.121.822.822,0,0,1,.027-.154A7.659,7.659,0,0,1,671.632,561.518Z" transform="translate(-662.652 -561.382)" fill="#e0e0e0"/>
                      </g>
                      <g id="Grupo_1117586" data-name="Grupo 1117586" transform="translate(0 0)">
                        <path id="Trazado_908889" data-name="Trazado 908889" d="M671.608,561.517l-.175-.031-.542-.07c-.236-.021-.529-.025-.881-.034a8.7,8.7,0,0,0-1.191.122,7.929,7.929,0,0,0-3.024,1.222l-.393.292c-.065.05-.134.1-.2.153l-.189.175c-.124.118-.262.227-.381.356l-.361.4a7.74,7.74,0,0,0-1.2,1.96,7.622,7.622,0,0,0-.368,1.184,1.838,1.838,0,0,0-.087.644.9.9,0,0,0,.319.588.778.778,0,0,0,.664.15.878.878,0,0,0,.55-.425,1.056,1.056,0,0,0,.12-.336l.079-.335a4.908,4.908,0,0,1,.207-.666,5.658,5.658,0,0,1,1.7-2.318,6.211,6.211,0,0,1,1.293-.793,6.858,6.858,0,0,1,.723-.283c.125-.038.253-.065.38-.1a2.828,2.828,0,0,1,.385-.082l.392-.062c.132-.014.262-.018.4-.028a6.347,6.347,0,0,1,3.177.645c.127.06.245.133.368.2l.183.1.175.119A5.956,5.956,0,0,1,675,565.39a5.661,5.661,0,0,1,.923,1.457,5.248,5.248,0,0,1,.445,1.7,5.888,5.888,0,0,1,.021.889,6.008,6.008,0,0,1-.141.885,5.1,5.1,0,0,1-.7,1.659,6.005,6.005,0,0,1-3.4,2.481,6.172,6.172,0,0,1-2.065.235,3.851,3.851,0,0,1-.512-.045,4.149,4.149,0,0,1-.5-.083l-.994-.217-.057-.01-.01.057-.328,1.758-.01.056.06.01c.45.079.9.163,1.343.231l.671.083.67.017a8.186,8.186,0,0,0,2.561-.45c.2-.077.4-.141.594-.228l.565-.275.524-.33a2,2,0,0,0,.252-.175l.244-.175a7.572,7.572,0,0,0,1.632-1.707c.12-.154.2-.327.305-.486l.144-.244.12-.254c.075-.17.162-.333.227-.506l.175-.516a7.3,7.3,0,0,0,.321-2.063,6.927,6.927,0,0,0-.048-.986,4.065,4.065,0,0,0-.077-.474c-.032-.155-.056-.312-.1-.46a7.414,7.414,0,0,0-.282-.863l-.166-.406c-.059-.132-.132-.255-.195-.381a7.707,7.707,0,0,0-1.886-2.331c-.087-.073-.163-.145-.248-.213l-.257-.175a4.69,4.69,0,0,0-.493-.319l-.468-.266c-.153-.075-.308-.137-.443-.2a5.807,5.807,0,0,0-.762-.283c-.113-.035-.209-.073-.31-.1l-.262-.058-.354-.078-.121-.022a1.089,1.089,0,0,1,.119.031l.349.087.262.061c.1.025.2.065.308.1a6,6,0,0,1,.755.29c.139.065.286.13.437.2l.467.268a4.536,4.536,0,0,1,.486.324l.253.18c.087.065.162.14.245.209a7.65,7.65,0,0,1,1.861,2.323c.062.122.134.245.191.379l.161.4a7.624,7.624,0,0,1,.276.855c.044.148.057.3.087.459a4.011,4.011,0,0,1,.074.468,6.987,6.987,0,0,1,.049.978,7.209,7.209,0,0,1-.327,2.032l-.175.51c-.062.17-.15.332-.226.5l-.121.25-.141.239c-.1.158-.183.33-.3.479a7.468,7.468,0,0,1-1.615,1.685l-.242.179a1.953,1.953,0,0,1-.252.17l-.524.317-.559.271c-.188.087-.388.153-.584.229a8.079,8.079,0,0,1-2.531.436l-.662-.018-.663-.087c-.444-.065-.89-.157-1.343-.231l.044.064q.162-.864.329-1.758l-.065.044,1,.218a4.241,4.241,0,0,0,.512.087,3.747,3.747,0,0,0,.524.047,6.248,6.248,0,0,0,2.1-.237,6.11,6.11,0,0,0,3.469-2.531,5.184,5.184,0,0,0,.72-1.7,6.043,6.043,0,0,0,.144-.9,6.171,6.171,0,0,0-.021-.909,5.411,5.411,0,0,0-.455-1.731,5.817,5.817,0,0,0-.942-1.484,6.111,6.111,0,0,0-1.3-1.143l-.175-.121-.188-.1c-.126-.068-.246-.143-.375-.2a6.962,6.962,0,0,0-2.414-.649,6.814,6.814,0,0,0-.82,0c-.134.01-.271.014-.4.03l-.4.064a3.029,3.029,0,0,0-.392.087c-.128.035-.262.065-.385.1a6.611,6.611,0,0,0-.734.287,6.2,6.2,0,0,0-1.309.808,5.741,5.741,0,0,0-1.727,2.357,4.851,4.851,0,0,0-.209.677q-.039.175-.079.34a.97.97,0,0,1-.11.313.785.785,0,0,1-.492.383.68.68,0,0,1-.588-.132.805.805,0,0,1-.289-.53,1.769,1.769,0,0,1,.087-.611,7.542,7.542,0,0,1,.361-1.172,7.674,7.674,0,0,1,1.183-1.945l.355-.4c.12-.127.254-.237.377-.349l.192-.175c.064-.054.129-.1.2-.152l.384-.293a7.943,7.943,0,0,1,3-1.232,8.855,8.855,0,0,1,1.185-.133c.349,0,.638.005.873.021l.542.064C671.546,561.514,671.608,561.517,671.608,561.517Z" transform="translate(-662.614 -561.382)" fill="#263238"/>
                      </g>
                    </g>
                    <g id="Grupo_1117589" data-name="Grupo 1117589" transform="translate(5.41 5.954)">
                      <g id="Grupo_1117588" data-name="Grupo 1117588" transform="translate(0 0)">
                        <path id="Trazado_908890" data-name="Trazado 908890" d="M733.176,598.765l-.286-.051-.841-.148-3.23-.56-11.97-2.052-40.079-6.831.046.065.968-5.481c3.011-17.083,5.737-32.544,7.71-43.738l2.323-13.256c.276-1.565.484-2.779.625-3.606.073-.41.128-.724.161-.938s.052-.323.052-.323-.018.107-.062.322-.093.524-.175.937c-.146.825-.367,2.041-.648,3.6-.553,3.13-1.362,7.656-2.357,13.25-1.977,11.194-4.718,26.652-7.742,43.732l-.969,5.481-.009.052.056.01,40.086,6.795,11.975,2.022,3.238.54.841.137C733.075,598.752,733.176,598.765,733.176,598.765Z" transform="translate(-676.694 -521.846)" fill="#263238"/>
                      </g>
                    </g>
                    <g id="Grupo_1117591" data-name="Grupo 1117591" transform="translate(6.634 4.56)">
                      <g id="Grupo_1117590" data-name="Grupo 1117590" transform="translate(0 0)">
                        <path id="Trazado_908891" data-name="Trazado 908891" d="M732.036,598.137l-.285-.052-.837-.148-3.224-.569-11.935-2.081-40-6.931.047.065c.326-1.842.671-3.8,1.016-5.783,3-17.141,5.721-32.654,7.689-43.886.979-5.615,1.77-10.159,2.318-13.3l.624-3.617c.069-.417.123-.728.161-.943s.05-.323.05-.323l-.057.322-.166.941c-.147.828-.361,2.042-.646,3.613l-2.348,13.3c-1.976,11.23-4.706,26.743-7.722,43.88-.349,1.981-.7,3.94-1.014,5.784l-.01.056.056.01,40.011,6.9,11.941,2.046,3.23.549.839.139Z" transform="translate(-675.694 -520.568)" fill="#263238"/>
                      </g>
                    </g>
                    <g id="Grupo_1117593" data-name="Grupo 1117593" transform="translate(4.546 7.604)">
                      <g id="Grupo_1117592" data-name="Grupo 1117592" transform="translate(0 0)">
                        <path id="Trazado_908892" data-name="Trazado 908892" d="M733.956,599.353l-.285-.05-.838-.148-3.23-.56-11.954-2.052-39.983-6.816.047.065c.278-1.614.575-3.334.873-5.072,2.919-16.946,5.561-32.283,7.475-43.383.951-5.551,1.72-10.043,2.252-13.15.262-1.552.468-2.757.611-3.579.072-.407.119-.719.155-.93s.049-.32.049-.32l-.056.315-.164.929-.632,3.574c-.54,3.1-1.322,7.594-2.288,13.142-1.92,11.1-4.577,26.438-7.507,43.383-.3,1.736-.6,3.458-.873,5.072l-.01.056.056.01,39.989,6.781,11.959,2.016,3.235.54.841.137C733.859,599.336,733.956,599.353,733.956,599.353Z" transform="translate(-677.599 -523.358)" fill="#263238"/>
                      </g>
                    </g>
                  </g>
                  <g id="Grupo_1117595" data-name="Grupo 1117595" transform="translate(10.045 9.697)">
                    <path id="Trazado_908893" data-name="Trazado 908893" d="M724.829,526.2l-5.244-.926-2.244,1.767,1.187,2.793,5.493.97Z" transform="translate(-717.34 -525.276)" fill="#455a64"/>
                  </g>
                </g>
              </g>
              <g id="Grupo_1117617" data-name="Grupo 1117617" transform="translate(152.408 145.795)">
                <g id="Grupo_1117599" data-name="Grupo 1117599" transform="translate(4.605 1.234)" opacity="0.3">
                  <g id="Grupo_1117598" data-name="Grupo 1117598" transform="translate(0 0)">
                    <path id="Trazado_908894" data-name="Trazado 908894" d="M697.834,581.122c-2.291-.5-4.509.96-6.4,2.357a28.938,28.938,0,0,0-3.382,2.761c-2.909,2.909-4.44,6.9-6.89,10.2l13.756-2.095Z" transform="translate(-681.161 -581.021)"/>
                  </g>
                </g>
                <g id="Grupo_1117616" data-name="Grupo 1117616" transform="translate(0)">
                  <g id="Grupo_1117601" data-name="Grupo 1117601" transform="translate(0.221)">
                    <g id="Grupo_1117600" data-name="Grupo 1117600" transform="translate(0)">
                      <path id="Trazado_908895" data-name="Trazado 908895" d="M674,597.122l6.006-1.252s5.406-8.62,8.247-9.666l1.6-.712s2.086-4.57,4.922-3.989c1.686-1.1,3.2-.663,3.359,1.02,0,0,.836-3.829,3.967-2.251s-4.33,14.83-4.33,14.83-2.619,6.791-5.871,4.522c0,0-3.25.764-5.424-.455,0,0-2.014,2.837-6.776.672Z" transform="translate(-674 -579.89)" fill="#ffbe9d"/>
                    </g>
                  </g>
                  <g id="Grupo_1117604" data-name="Grupo 1117604" transform="translate(0 16.956)">
                    <g id="Grupo_1117603" data-name="Grupo 1117603" transform="translate(0 0)">
                      <g id="Grupo_1117602" data-name="Grupo 1117602">
                        <path id="Trazado_908896" data-name="Trazado 908896" d="M701.717,596.166c.031,0,.1.223.038.641a2.849,2.849,0,0,1-.834,1.545,3.928,3.928,0,0,1-2.357,1.109,8.077,8.077,0,0,1-3.137-.341,19.694,19.694,0,0,1-5.159-2.258,6.839,6.839,0,0,1-1.84-1.432,35.778,35.778,0,0,0,7.145,3.164,8.2,8.2,0,0,0,2.934.367,3.675,3.675,0,0,0,2.148-.887,3.515,3.515,0,0,0,1.061-1.908Z" transform="translate(-688.429 -595.43)" fill="#eb996e"/>
                      </g>
                    </g>
                  </g>
                  <g id="Grupo_1117606" data-name="Grupo 1117606" transform="translate(19.037 1.804)">
                    <g id="Grupo_1117605" data-name="Grupo 1117605" transform="translate(0 0)">
                      <path id="Trazado_908897" data-name="Trazado 908897" d="M678.046,594.384c-.14-.1,1.664-2.7,3.211-6.249,1.571-3.542,2.269-6.629,2.431-6.591a6.548,6.548,0,0,1-.314,2.058,28.947,28.947,0,0,1-4.024,9.159,6.524,6.524,0,0,1-1.3,1.623Z" transform="translate(-678.038 -581.544)" fill="#eb996e"/>
                    </g>
                  </g>
                  <g id="Grupo_1117609" data-name="Grupo 1117609" transform="translate(15.59 1.614)">
                    <g id="Grupo_1117608" data-name="Grupo 1117608" transform="translate(0 0)">
                      <g id="Grupo_1117607" data-name="Grupo 1117607">
                        <path id="Trazado_908898" data-name="Trazado 908898" d="M681.427,594.111c-.141-.087,1.379-2.789,2.86-6.3s2.382-6.486,2.54-6.438a33.326,33.326,0,0,1-5.4,12.744Z" transform="translate(-681.417 -581.369)" fill="#eb996e"/>
                      </g>
                    </g>
                  </g>
                  <g id="Grupo_1117612" data-name="Grupo 1117612" transform="translate(17.201 17.421)">
                    <g id="Grupo_1117611" data-name="Grupo 1117611" transform="translate(0 0)">
                      <g id="Grupo_1117610" data-name="Grupo 1117610">
                        <path id="Trazado_908899" data-name="Trazado 908899" d="M685.1,595.859c.149.006.019,1.1-.96,1.92s-2.073.764-2.056.611c-.017-.158.885-.334,1.7-1.035C684.623,596.673,684.951,595.815,685.1,595.859Z" transform="translate(-682.089 -595.857)" fill="#eb996e"/>
                      </g>
                    </g>
                  </g>
                  <g id="Grupo_1117615" data-name="Grupo 1117615" transform="translate(11.854 5.841)">
                    <g id="Grupo_1117614" data-name="Grupo 1117614" transform="translate(0)">
                      <g id="Grupo_1117613" data-name="Grupo 1117613">
                        <path id="Trazado_908900" data-name="Trazado 908900" d="M686.1,591.862q1.878-3.391,4.029-6.619A16.188,16.188,0,0,1,686.1,591.862Z" transform="translate(-686.1 -585.243)" fill="#eb996e"/>
                      </g>
                    </g>
                  </g>
                </g>
              </g>
            </g>
          </g>
        </g>
      </g>
    </g>
  </g>
</svg>
