<svg xmlns="http://www.w3.org/2000/svg" width="400" height="197" viewBox="0 0 400 197">
  <g id="Grupo_1118345" data-name="Grupo 1118345" transform="translate(-1020 -3842)">
    <rect id="Rectángulo_405905" data-name="Rectángulo 405905" width="400" height="197" rx="12" transform="translate(1020 3842)" fill="#ddeffd"/>
    <g id="estruc12" transform="translate(1054.168 3745.04)">
      <g id="Grupo_1116840" data-name="Grupo 1116840" transform="translate(76.445 110.46)">
        <g id="Grupo_1116833" data-name="Grupo 1116833" transform="translate(23.779 8.261)">
          <rect id="Rectángulo_405906" data-name="Rectángulo 405906" width="4.666" height="4.666" transform="translate(23.181 5.312) rotate(-12.119)" fill="#ebebeb"/>
          <circle id="Elipse_13469" data-name="Elipse 13469" cx="25.725" cy="25.725" r="25.725" transform="translate(4.432 57.15) rotate(-86.94)" fill="#fed401"/>
          <circle id="Elipse_13470" data-name="Elipse 13470" cx="22.396" cy="22.396" r="22.396" transform="matrix(0.778, -0.628, 0.628, 0.778, 0, 29.471)" fill="#cdb9f8"/>
          <rect id="Rectángulo_405907" data-name="Rectángulo 405907" width="8.407" height="5.261" transform="translate(20.505 1.765) rotate(-12.119)" fill="#e0e0e0"/>
          <path id="Trazado_907802" data-name="Trazado 907802" d="M179.691,181.484a2.179,2.179,0,1,1-2.59-1.672A2.179,2.179,0,0,1,179.691,181.484Z" transform="translate(-146.067 -149.109)" fill="#e0e0e0"/>
          <path id="Trazado_907803" data-name="Trazado 907803" d="M169.666,151.446c.683,1.439,1.267,2.9,1.856,4.369l.845,2.21.8,2.225c.531,1.483,1.023,2.976,1.5,4.473s.94,3,1.374,4.515l-1.689-.458q1.521-1.4,3.082-2.762t3.156-2.683c1.055-.89,2.145-1.744,3.234-2.6s2.2-1.68,3.36-2.461c-.866,1.095-1.784,2.132-2.706,3.167s-1.865,2.045-2.831,3.031-1.922,1.983-2.909,2.948-1.976,1.925-2.984,2.867l-1.2,1.123-.487-1.584c-.462-1.5-.9-3.014-1.318-4.529s-.824-3.035-1.192-4.567l-.55-2.3-.5-2.311C170.195,154.57,169.881,153.023,169.666,151.446Z" transform="translate(-143.561 -136.693)" fill="#e0e0e0"/>
        </g>
        <g id="Grupo_1116839" data-name="Grupo 1116839" transform="translate(90.483 1.534)">
          <path id="Trazado_907804" data-name="Trazado 907804" d="M343.865,141.291l-20.2,58.722-81.694-28.1,20.2-58.722,2.748.944a1.736,1.736,0,0,0-.523.769,1.779,1.779,0,1,0,3.364,1.157,1.734,1.734,0,0,0,.061-.928l2.736.941a1.733,1.733,0,0,0-.523.769A1.779,1.779,0,0,0,273.4,118a1.734,1.734,0,0,0,.061-.928l2.736.941a1.733,1.733,0,0,0-.523.769,1.779,1.779,0,0,0,3.364,1.157,1.739,1.739,0,0,0,.061-.928l2.736.941a1.736,1.736,0,0,0-.523.769,1.779,1.779,0,1,0,3.364,1.157,1.734,1.734,0,0,0,.061-.928l2.736.941a1.738,1.738,0,0,0-.523.769,1.779,1.779,0,0,0,3.364,1.157,1.734,1.734,0,0,0,.061-.928l2.736.941a1.734,1.734,0,0,0-.523.769,1.779,1.779,0,1,0,3.364,1.157,1.734,1.734,0,0,0,.061-.928l2.736.941a1.737,1.737,0,0,0-.523.769,1.779,1.779,0,1,0,3.364,1.157,1.734,1.734,0,0,0,.062-.928l2.736.941a1.736,1.736,0,0,0-.523.769,1.779,1.779,0,0,0,3.364,1.157,1.74,1.74,0,0,0,.061-.928l2.736.941a1.733,1.733,0,0,0-.523.769,1.779,1.779,0,1,0,3.364,1.157,1.734,1.734,0,0,0,.061-.928l2.736.941a1.741,1.741,0,0,0-.523.769,1.779,1.779,0,0,0,3.364,1.157,1.735,1.735,0,0,0,.061-.928l2.736.941a1.737,1.737,0,0,0-.523.769,1.779,1.779,0,1,0,3.364,1.157,1.735,1.735,0,0,0,.062-.928l2.736.941a1.733,1.733,0,0,0-.523.769,1.779,1.779,0,0,0,3.364,1.157,1.735,1.735,0,0,0,.061-.928l2.736.941a1.735,1.735,0,0,0-.523.769,1.779,1.779,0,0,0,3.364,1.157,1.734,1.734,0,0,0,.061-.928l2.736.941a1.736,1.736,0,0,0-.523.769,1.779,1.779,0,1,0,3.364,1.157,1.734,1.734,0,0,0,.061-.928Z" transform="translate(-241.971 -113.191)" fill="#f59898"/>
          <path id="Trazado_907805" data-name="Trazado 907805" d="M356.422,141.291l-4.117,11.968-81.692-28.1,4.116-11.968,2.748.944a1.737,1.737,0,0,0-.523.769,1.779,1.779,0,0,0,3.364,1.157,1.734,1.734,0,0,0,.061-.928l2.736.941a1.733,1.733,0,0,0-.523.769A1.779,1.779,0,1,0,285.955,118a1.733,1.733,0,0,0,.061-.928l2.736.941a1.733,1.733,0,0,0-.523.769,1.779,1.779,0,0,0,3.364,1.157,1.739,1.739,0,0,0,.061-.928l2.736.941a1.736,1.736,0,0,0-.523.769,1.779,1.779,0,1,0,3.364,1.157,1.734,1.734,0,0,0,.062-.928l2.736.941a1.738,1.738,0,0,0-.523.769,1.779,1.779,0,0,0,3.364,1.157,1.734,1.734,0,0,0,.061-.928l2.736.941a1.734,1.734,0,0,0-.523.769,1.779,1.779,0,1,0,3.364,1.157,1.734,1.734,0,0,0,.061-.928l2.736.941a1.737,1.737,0,0,0-.523.769,1.779,1.779,0,0,0,3.364,1.157,1.734,1.734,0,0,0,.061-.928l2.736.941a1.736,1.736,0,0,0-.523.769,1.779,1.779,0,1,0,3.364,1.157,1.74,1.74,0,0,0,.061-.928l2.736.941a1.733,1.733,0,0,0-.523.769,1.779,1.779,0,1,0,3.364,1.157,1.734,1.734,0,0,0,.061-.928l2.736.941a1.741,1.741,0,0,0-.523.769,1.782,1.782,0,1,0,3.371,1.159,1.734,1.734,0,0,0,.061-.928l2.736.941a1.737,1.737,0,0,0-.523.769,1.779,1.779,0,0,0,3.364,1.157,1.734,1.734,0,0,0,.061-.928l2.736.941a1.733,1.733,0,0,0-.523.769,1.779,1.779,0,1,0,3.364,1.157,1.734,1.734,0,0,0,.061-.928l2.736.941a1.735,1.735,0,0,0-.523.769,1.779,1.779,0,0,0,3.364,1.157,1.734,1.734,0,0,0,.061-.928l2.736.941a1.735,1.735,0,0,0-.523.769,1.779,1.779,0,1,0,3.364,1.157,1.734,1.734,0,0,0,.061-.928Z" transform="translate(-254.53 -113.191)" fill="#3e7dad"/>
          <g id="Grupo_1116838" data-name="Grupo 1116838" transform="translate(5.986 23.253)">
            <g id="Grupo_1116834" data-name="Grupo 1116834" transform="translate(31.847 0)">
              <rect id="Rectángulo_405908" data-name="Rectángulo 405908" width="9.464" height="9.464" transform="translate(3.078 0) rotate(18.982)" fill="#fafafa"/>
              <rect id="Rectángulo_405909" data-name="Rectángulo 405909" width="9.464" height="9.464" transform="translate(13.778 3.68) rotate(18.982)" fill="#fafafa"/>
              <rect id="Rectángulo_405910" data-name="Rectángulo 405910" width="9.464" height="9.464" transform="translate(24.479 7.361) rotate(18.982)" fill="#fafafa"/>
              <rect id="Rectángulo_405911" data-name="Rectángulo 405911" width="9.464" height="9.464" transform="translate(35.178 11.042) rotate(18.982)" fill="#fafafa"/>
              <rect id="Rectángulo_405912" data-name="Rectángulo 405912" width="9.464" height="9.464" transform="translate(45.879 14.722) rotate(18.982)" fill="#fafafa"/>
            </g>
            <g id="Grupo_1116835" data-name="Grupo 1116835" transform="translate(6.967 2.762)">
              <rect id="Rectángulo_405913" data-name="Rectángulo 405913" width="9.464" height="9.464" transform="matrix(0.946, 0.325, -0.325, 0.946, 3.076, 0)" fill="#fafafa"/>
              <rect id="Rectángulo_405914" data-name="Rectángulo 405914" width="9.464" height="9.464" transform="translate(13.776 3.68) rotate(18.982)" fill="#fafafa"/>
              <rect id="Rectángulo_405915" data-name="Rectángulo 405915" width="9.464" height="9.464" transform="matrix(0.946, 0.325, -0.325, 0.946, 24.476, 7.361)" fill="#fafafa"/>
              <rect id="Rectángulo_405916" data-name="Rectángulo 405916" width="9.464" height="9.464" transform="matrix(0.946, 0.325, -0.325, 0.946, 35.176, 11.042)" fill="#fafafa"/>
              <rect id="Rectángulo_405917" data-name="Rectángulo 405917" width="9.464" height="9.464" transform="translate(45.876 14.722) rotate(18.982)" fill="#fafafa"/>
              <rect id="Rectángulo_405918" data-name="Rectángulo 405918" width="9.464" height="9.464" transform="translate(56.577 18.403) rotate(18.982)" fill="#fafafa"/>
              <rect id="Rectángulo_405919" data-name="Rectángulo 405919" width="9.464" height="9.464" transform="translate(67.276 22.083) rotate(18.982)" fill="#fafafa"/>
            </g>
            <g id="Grupo_1116836" data-name="Grupo 1116836" transform="translate(3.482 12.885)">
              <rect id="Rectángulo_405920" data-name="Rectángulo 405920" width="9.464" height="9.464" transform="translate(3.078 0) rotate(18.982)" fill="#fafafa"/>
              <rect id="Rectángulo_405921" data-name="Rectángulo 405921" width="9.464" height="9.464" transform="translate(13.778 3.68) rotate(18.982)" fill="#fafafa"/>
              <rect id="Rectángulo_405922" data-name="Rectángulo 405922" width="9.464" height="9.464" transform="matrix(0.946, 0.325, -0.325, 0.946, 24.479, 7.361)" fill="#fafafa"/>
              <rect id="Rectángulo_405923" data-name="Rectángulo 405923" width="9.464" height="9.464" transform="translate(35.178 11.042) rotate(18.982)" fill="#fafafa"/>
              <rect id="Rectángulo_405924" data-name="Rectángulo 405924" width="9.464" height="9.464" transform="matrix(0.946, 0.325, -0.325, 0.946, 45.879, 14.722)" fill="#fafafa"/>
              <rect id="Rectángulo_405925" data-name="Rectángulo 405925" width="9.464" height="9.464" transform="translate(56.579 18.403) rotate(18.982)" fill="#fafafa"/>
              <rect id="Rectángulo_405926" data-name="Rectángulo 405926" width="9.464" height="9.464" transform="translate(67.279 22.083) rotate(18.982)" fill="#fafafa"/>
            </g>
            <g id="Grupo_1116837" data-name="Grupo 1116837" transform="translate(0 23.009)">
              <rect id="Rectángulo_405927" data-name="Rectángulo 405927" width="9.464" height="9.464" transform="translate(3.078 0) rotate(18.982)" fill="#fafafa"/>
              <rect id="Rectángulo_405928" data-name="Rectángulo 405928" width="9.464" height="9.464" transform="translate(13.778 3.68) rotate(18.982)" fill="#fafafa"/>
              <rect id="Rectángulo_405929" data-name="Rectángulo 405929" width="9.464" height="9.464" transform="translate(24.479 7.361) rotate(18.982)" fill="#fafafa"/>
              <rect id="Rectángulo_405930" data-name="Rectángulo 405930" width="9.464" height="9.464" transform="translate(35.178 11.042) rotate(18.982)" fill="#fafafa"/>
              <rect id="Rectángulo_405931" data-name="Rectángulo 405931" width="9.464" height="9.464" transform="translate(45.879 14.722) rotate(18.982)" fill="#fafafa"/>
              <rect id="Rectángulo_405932" data-name="Rectángulo 405932" width="9.464" height="9.464" transform="translate(56.579 18.403) rotate(18.982)" fill="#fafafa"/>
            </g>
          </g>
        </g>
        <path id="Trazado_907806" data-name="Trazado 907806" d="M80.829,145.184v3.725l1.918.18a9.945,9.945,0,0,0,1.431,3.44l-1.232,1.488,2.634,2.634,1.488-1.232a9.95,9.95,0,0,0,3.44,1.43l.181,1.918h3.725l.18-1.918a9.945,9.945,0,0,0,3.44-1.43l1.488,1.232,2.634-2.634-1.232-1.488a9.945,9.945,0,0,0,1.43-3.44l1.918-.18v-3.725L102.354,145a9.945,9.945,0,0,0-1.43-3.44l1.232-1.488-2.634-2.634-1.488,1.231a9.957,9.957,0,0,0-3.44-1.43l-.18-1.918H90.69l-.181,1.918a9.961,9.961,0,0,0-3.44,1.43l-1.488-1.231-2.634,2.634,1.232,1.488A9.945,9.945,0,0,0,82.749,145ZM92.551,142a5.043,5.043,0,1,1-5.043,5.042A5.043,5.043,0,0,1,92.551,142Z" transform="translate(-80.829 -121.363)" fill="#fd9826"/>
        <path id="Trazado_907807" data-name="Trazado 907807" d="M219.957,283.094a17.189,17.189,0,0,0,5.938-2.469l2.568,2.126,4.546-4.546-2.126-2.568a17.175,17.175,0,0,0,2.469-5.938l3.31-.312v-6.429l-3.31-.311a17.169,17.169,0,0,0-2.469-5.938l2.126-2.569-4.546-4.545L225.9,251.72a17.189,17.189,0,0,0-5.938-2.469l-.311-3.31h-6.429l-.312,3.31a17.188,17.188,0,0,0-5.938,2.469l-2.568-2.126-4.546,4.545,2.126,2.569a17.169,17.169,0,0,0-2.469,5.938l-3.31.311v6.429l3.31.312a17.175,17.175,0,0,0,2.469,5.938l-2.126,2.568,4.546,4.546,2.568-2.126a17.189,17.189,0,0,0,5.938,2.469l.311,3.31h6.429Zm-12.23-16.922a8.7,8.7,0,1,1,8.7,8.7,8.7,8.7,0,0,1-8.7-8.7Z" transform="translate(-131.417 -169.867)" fill="#cdb9f8"/>
        <path id="Trazado_907809" data-name="Trazado 907809" d="M230.836,126.087l.568.47,1-1-.47-.568a3.779,3.779,0,0,0,.545-1.313l.731-.065v-1.42l-.731-.069a3.8,3.8,0,0,0-.546-1.313l.47-.567-1-1-.568.47a3.789,3.789,0,0,0-1.309-.546l-.069-.732h-1.42l-.065.732a3.787,3.787,0,0,0-1.313.546l-.568-.47-1,1,.47.567a3.8,3.8,0,0,0-.546,1.313l-.731.069v1.42l.731.065a3.791,3.791,0,0,0,.546,1.313l-.47.568,1,1,.568-.47a3.8,3.8,0,0,0,1.313.545l.065.732h1.42l.069-.732A3.8,3.8,0,0,0,230.836,126.087Zm-4.014-3.194a1.923,1.923,0,1,1,1.923,1.922,1.923,1.923,0,0,1-1.923-1.922Z" transform="translate(-143.73 -113.952)" fill="#f5f5f5"/>
        <path id="Trazado_907810" data-name="Trazado 907810" d="M384.157,118.124l.568.47,1-1-.47-.567a3.783,3.783,0,0,0,.545-1.313l.732-.069v-1.42l-.731-.069a3.8,3.8,0,0,0-.546-1.313l.47-.568-1-1-.568.47a3.8,3.8,0,0,0-1.309-.545l-.069-.732h-1.424l-.069.732a3.788,3.788,0,0,0-1.309.545l-.568-.47-1,1,.47.568a3.791,3.791,0,0,0-.546,1.313l-.731.069v1.42l.731.069a3.8,3.8,0,0,0,.546,1.313l-.47.567,1,1,.568-.47a3.789,3.789,0,0,0,1.309.546l.069.732h1.421l.069-.732A3.789,3.789,0,0,0,384.157,118.124Zm-4.014-3.194a1.923,1.923,0,1,1,1.923,1.923,1.923,1.923,0,0,1-1.923-1.923Z" transform="translate(-210.958 -110.46)" fill="#5b39a6"/>
        <path id="Trazado_907811" data-name="Trazado 907811" d="M413.305,273.8l.981.811,1.733-1.734-.811-.981a6.555,6.555,0,0,0,.942-2.264l1.262-.119V267.06l-1.262-.119a6.556,6.556,0,0,0-.942-2.264l.811-.981-1.733-1.733-.981.811a6.557,6.557,0,0,0-2.265-.942l-.119-1.262h-2.451l-.118,1.262a6.552,6.552,0,0,0-2.264.942l-.981-.811-1.734,1.733.811.981a6.542,6.542,0,0,0-.941,2.264l-1.262.119v2.452l1.262.119a6.542,6.542,0,0,0,.941,2.264l-.811.981,1.734,1.734.981-.811a6.552,6.552,0,0,0,2.265.942l.118,1.262h2.452l.119-1.263A6.543,6.543,0,0,0,413.305,273.8Zm-6.928-5.511a3.319,3.319,0,1,1,3.319,3.319,3.319,3.319,0,0,1-3.319-3.319Z" transform="translate(-221.65 -176.281)" fill="#ebebeb"/>
        <path id="Trazado_907812" data-name="Trazado 907812" d="M288.242,362.517l1.548,1.282,2.741-2.741-1.282-1.548a10.341,10.341,0,0,0,1.488-3.58l2-.188v-3.875l-2-.188a10.352,10.352,0,0,0-1.489-3.58l1.282-1.549-2.741-2.741-1.548,1.282a10.369,10.369,0,0,0-3.58-1.488l-.188-2H280.6l-.188,1.995a10.362,10.362,0,0,0-3.58,1.489l-1.549-1.282-2.741,2.741,1.282,1.549a10.346,10.346,0,0,0-1.487,3.582l-1.995.188v3.875l1.995.188a10.365,10.365,0,0,0,1.489,3.58l-1.282,1.548,2.741,2.741,1.549-1.282a10.351,10.351,0,0,0,3.58,1.488l.188,2h3.876l.188-2A10.348,10.348,0,0,0,288.242,362.517ZM277.289,353.8a5.247,5.247,0,1,1,5.247,5.247,5.247,5.247,0,0,1-5.247-5.247Z" transform="translate(-163.927 -211.814)" fill="#f0f0f0"/>
      </g>
      <g id="Grupo_1116848" data-name="Grupo 1116848" transform="translate(77.592 153.127)">
        <g id="Grupo_1116847" data-name="Grupo 1116847" transform="translate(0 0)">
          <path id="Trazado_907813" data-name="Trazado 907813" d="M116.117,191.834c-18.158,3.141-32.346,8.76-31.69,12.554l.3,1.761h0c.654,3.795,15.907,4.323,34.066,1.183s32.343-8.76,31.689-12.554l-.3-1.761C149.526,189.223,134.275,188.694,116.117,191.834Z" transform="translate(-83.544 -187.91)" fill="#d9a171"/>
          <ellipse id="Elipse_13471" data-name="Elipse 13471" cx="33.365" cy="6.97" rx="33.365" ry="6.97" transform="translate(0 11.371) rotate(-9.811)" fill="#fff" opacity="0.2"/>
          <path id="Trazado_907814" data-name="Trazado 907814" d="M120.405,201.819c-16.258,2.814-28.962,7.844-28.374,11.241L92.538,216h0c.589,3.4,14.243,3.871,30.5,1.059S152,209.21,151.415,205.813h0l-.508-2.936C150.32,199.481,136.664,199.007,120.405,201.819Z" transform="translate(-86.879 -192.382)" fill="#d9a171"/>
          <ellipse id="Elipse_13472" data-name="Elipse 13472" cx="29.875" cy="6.241" rx="29.875" ry="6.241" transform="matrix(0.985, -0.17, 0.17, 0.985, 4.596, 17.463)" fill="#a66d58" opacity="0.2"/>
          <g id="Grupo_1116841" data-name="Grupo 1116841" transform="translate(9.107 13.692)">
            <path id="Trazado_907815" data-name="Trazado 907815" d="M140.482,251.15a5.2,5.2,0,0,1-1.406-8.13c6.588-7.169,14.562-18.585,12.536-30.3-.434-2.513-12.542-2.518-27.042-.011s-25.9,6.578-25.467,9.095c2.028,11.717,13.37,19.791,21.985,24.332a5.2,5.2,0,0,1,1.406,8.13c-6.588,7.169-14.561,18.585-12.536,30.3.435,2.513,12.542,2.518,27.042.01s25.9-6.578,25.468-9.091C160.44,263.765,149.1,255.69,140.482,251.15Z" transform="translate(-99.091 -210.829)" fill="#407bff"/>
            <path id="Trazado_907816" data-name="Trazado 907816" d="M140.482,251.15a5.2,5.2,0,0,1-1.406-8.13c6.588-7.169,14.562-18.585,12.536-30.3-.434-2.513-12.542-2.518-27.042-.011s-25.9,6.578-25.467,9.095c2.028,11.717,13.37,19.791,21.985,24.332a5.2,5.2,0,0,1,1.406,8.13c-6.588,7.169-14.561,18.585-12.536,30.3.435,2.513,12.542,2.518,27.042.01s25.9-6.578,25.468-9.091C160.44,263.765,149.1,255.69,140.482,251.15Z" transform="translate(-99.091 -210.829)" fill="#fff" opacity="0.8"/>
          </g>
          <g id="Grupo_1116842" data-name="Grupo 1116842" transform="translate(21.049 71.028)">
            <path id="Trazado_907817" data-name="Trazado 907817" d="M170.506,320.929c.262,2.633-46.45,11.726-49.553,7.685a3.272,3.272,0,0,1-.349-3.113A8.863,8.863,0,0,1,122,322.914c1.439-1.954,4.623-2.81,6.781-3.6,1.455-.531,2.923-1.021,4.387-1.527,1.57-.544,3.186-.167,4.553-1.36.818-.715,1.43-1.773,2.486-2.035.777-.192,1.614.116,2.384-.091,1-.268,1.714-1.344,2.748-1.364a6.5,6.5,0,0,1,1.5.368,9.371,9.371,0,0,0,2.74-.19,11.375,11.375,0,0,1,2.712.2,82.762,82.762,0,0,0,8.436,1.162,29.986,29.986,0,0,1,6.424.636,3.879,3.879,0,0,1,2.068,1.821l.006,0A9.707,9.707,0,0,1,170.506,320.929Z" transform="translate(-120.362 -312.938)" fill="#263238"/>
            <path id="Trazado_907818" data-name="Trazado 907818" d="M182.006,317c.041.02.007.01-.093-.021a.341.341,0,0,1,.093.021Z" transform="translate(-147.349 -314.711)" fill="#fff" opacity="0.2"/>
            <path id="Trazado_907819" data-name="Trazado 907819" d="M169.393,316.929c-1.292-1.171-3.677-1.09-4.363-1.04s-.925-.535-1.446-.723a19.464,19.464,0,0,0-3.57.2s1.148.217,1.359.589c.192.351,1.517-.052,1.687-.1-.178.1-1.735.921-2.474.422-.785-.527-1.036.427-1.621.665a7.088,7.088,0,0,1-2.722-.1,24.365,24.365,0,0,0-2.639-.018,3.81,3.81,0,0,1,1.5-.538c.494.057,2.467-.981,2.064-.909s-1.328-.465-2.045-.688a9.743,9.743,0,0,0-2.607.167,8.543,8.543,0,0,1,2.583.359,12.25,12.25,0,0,0-1.681.533,5.5,5.5,0,0,1-1.548.268,2.145,2.145,0,0,0-1.047.807,16.464,16.464,0,0,1-1.952.338,4.651,4.651,0,0,1-1.913-.227l1.773-.58-.6-.174a7.027,7.027,0,0,0-1.282-.3c-.715-.118-1.014.559-1.19.726a5.57,5.57,0,0,1-2.171-.109c-.438-.13-3.68,1.21-3.68,1.21l2.023-.35a4.963,4.963,0,0,0,1.661.386c1.352.182,1.548-.268,2.113-.228a24.077,24.077,0,0,1,2.452.549l-.73.2a7.106,7.106,0,0,1-1.943-.011,3.676,3.676,0,0,0-2.066.5,16.935,16.935,0,0,1-2.639.382,3.01,3.01,0,0,0-1.852.909,2.3,2.3,0,0,1-2.335.556c-1.019-.266-2.745.985-2.745.985s.9-1.2,1.374-1.28a13.039,13.039,0,0,0,2.111-1.059,4.367,4.367,0,0,0-.752.061,1.874,1.874,0,0,1-1.4-.453c-.552-.389-1.125-.084-1.952.338s-1.713.923-2.583.31-3.533,1.648-3.533,1.648a9.923,9.923,0,0,0,1.767-.606c.244-.2.419.022,1.207.164s1.043-.393,1.428-.594,1.549.137,1.549.137a1.709,1.709,0,0,1-.877.162c-.428-.065-1.112,1.161-1.349,1.027a5.365,5.365,0,0,0-2.56.443c-.7.358-1.737,1.584-2.774,1.211-.881-.321-2.872,2.38-4.619,2.414a8.863,8.863,0,0,1,1.394-2.588c1.439-1.954,4.623-2.81,6.781-3.6,1.455-.531,2.923-1.021,4.387-1.527,1.57-.544,3.186-.167,4.553-1.36.818-.715,1.43-1.773,2.486-2.035.777-.192,1.614.116,2.384-.091,1-.268,1.714-1.344,2.748-1.364a6.506,6.506,0,0,1,1.5.368,9.373,9.373,0,0,0,2.74-.19,11.376,11.376,0,0,1,2.712.2,82.762,82.762,0,0,0,8.436,1.162,29.986,29.986,0,0,1,6.424.636,3.879,3.879,0,0,1,2.066,1.815Z" transform="translate(-120.546 -312.939)" fill="#fff" opacity="0.2"/>
          </g>
          <g id="Grupo_1116844" data-name="Grupo 1116844" transform="translate(14.634 76.499)">
            <path id="Trazado_907820" data-name="Trazado 907820" d="M141.624,324.518c-16.259,2.813-28.962,7.844-28.375,11.24l.508,2.936h0c.589,3.4,14.243,3.87,30.5,1.059s28.962-7.844,28.374-11.241h0l-.508-2.935C171.538,322.18,157.882,321.706,141.624,324.518Z" transform="translate(-110.817 -322.684)" fill="#d9a171"/>
            <path id="Trazado_907821" data-name="Trazado 907821" d="M140.645,333.7c-18.158,3.141-32.346,8.76-31.69,12.554l.3,1.761h0c.654,3.795,15.907,4.323,34.066,1.183s32.345-8.76,31.69-12.554l-.3-1.761C174.057,331.089,158.806,330.56,140.645,333.7Z" transform="translate(-108.934 -326.615)" fill="#d9a171"/>
            <g id="Grupo_1116843" data-name="Grupo 1116843" transform="translate(0 5.036)">
              <path id="Trazado_907822" data-name="Trazado 907822" d="M127.136,366.426c-.452-.016-.889-.037-1.316-.065C126.248,366.387,126.684,366.411,127.136,366.426Z" transform="translate(-116.338 -346.872)" fill="#fff" opacity="0.2"/>
              <path id="Trazado_907823" data-name="Trazado 907823" d="M181.965,360.585l-.117.026Z" transform="translate(-140.905 -344.339)" fill="#fff" opacity="0.2"/>
              <path id="Trazado_907824" data-name="Trazado 907824" d="M115.7,364.961q.272.071.562.137Q115.972,365.033,115.7,364.961Z" transform="translate(-111.9 -346.258)" fill="#fff" opacity="0.2"/>
              <path id="Trazado_907825" data-name="Trazado 907825" d="M140.645,333.7c-18.158,3.141-32.346,8.76-31.69,12.553l.3,1.761A2.284,2.284,0,0,0,110.5,349.5a2.284,2.284,0,0,1-1.243-1.481c-.654-3.795,13.532-9.413,31.69-12.553s33.409-2.611,34.066,1.182h0l-.3-1.761C174.057,331.089,158.806,330.56,140.645,333.7Z" transform="translate(-108.934 -331.652)" fill="#fff" opacity="0.2"/>
            </g>
          </g>
          <g id="Grupo_1116845" data-name="Grupo 1116845" transform="translate(27.961 49.318)">
            <path id="Trazado_907826" data-name="Trazado 907826" d="M148.281,274.277c-.359,2.8-1.385,7.059-1.846,9.9s.923,7.23,1.333,8.563,3.176,1.116,3.068,2.182,4.127,1.243,4.127,1.243-19.884,7.858-21.878,7.36,3.726-4.427,4.829-4.683,1.7-.94,2.427-2.513,1.5-1.289,2.278-2.867a34.839,34.839,0,0,0,1.863-3.645c.885-2.191,1.646-8.923.72-9.487-.961-.589-.089,5.157-.882,5.348s1.036-5.66-1.383-8.615S148.281,274.277,148.281,274.277Z" transform="translate(-132.668 -274.275)" fill="#263238"/>
            <path id="Trazado_907827" data-name="Trazado 907827" d="M154.966,296.161s-19.884,7.861-21.875,7.363c-1.832-.458,2.857-3.821,4.48-4.557.109,1.156,3.225-.026,4.459-.711s1.332-.187,1.789-.389a26.115,26.115,0,0,0,3.541-2.67c-.358.1-2.924,2-3.541,1.384s-1.636.565-2.405.923c-.664.316-.83-.065-1.38-.544.1-.192.208-.4.311-.632.726-1.57,1.5-1.292,2.276-2.868a35.036,35.036,0,0,0,1.861-3.644c.887-2.193,1.649-8.923.726-9.487-.96-.589-.088,5.159-.881,5.346s1.032-5.656-1.385-8.612,5.34-2.785,5.34-2.785c-.358,2.806-1.384,7.062-1.846,9.9a17.1,17.1,0,0,0,.679,6.281c-.131.458-.311.881-.523.948-.513.156-.871,1.9-1.54,1.95s-.1,1.281.819.773c.612-.337,1.576-.544,2.255-.855.866.767,2.806.757,2.712,1.649C150.73,295.986,154.966,296.161,154.966,296.161Z" transform="translate(-132.67 -274.275)" fill="#fff" opacity="0.2"/>
          </g>
          <g id="Grupo_1116846" data-name="Grupo 1116846" transform="translate(20.736 32.947)">
            <path id="Trazado_907828" data-name="Trazado 907828" d="M153.422,248.659c-.1.16-.181.291-.233.383a47.081,47.081,0,0,1-2.541,4.034,25.1,25.1,0,0,1-3.048,3.86c-1.079,1.037-2.178,1.525-2.825,2.769a4.286,4.286,0,0,0-.363.969c-.238.939-.311,2.069-1.131,2.592a3.824,3.824,0,0,0-.576.347c-.41.353-.389.97-.5,1.5s-.617,1.1-1.095.861c-.4-.207-.523-.9-.981-.876a1.763,1.763,0,0,0-.332.1c-.458.12-.887-.243-1.239-.555s-.861-.612-1.265-.368a22.739,22.739,0,0,0-4.008-2.935c-1.172-.705-2.386-1.343-3.656-2.028-2.821-1.524-6.067-3.033-8.032-4.58A5.6,5.6,0,0,1,120.036,253a2.309,2.309,0,0,1-.228-.726c-.322-2.774,8.259-3.6,11.236-5.667s7.611-.741,9.561-1.172,4.142.181,6.2.025,3.337-.747,4.532.131,2.536.612,2.789,1.281C154.278,247.269,153.77,248.109,153.422,248.659Z" transform="translate(-119.8 -245.12)" fill="#263238"/>
            <path id="Trazado_907829" data-name="Trazado 907829" d="M150.993,248.727c-1.778-.342,1.846-.41,1.57-.617a4.558,4.558,0,0,0-3.141-.819c-1.986.065-3.625-.065-4.044,0s1.374.616,1.374.616h-4.646c-1.5,0,1.027-.616,1.027-.616h-7.8c.207,0,1.711.892.819.892a9.67,9.67,0,0,0-3.075.954,20.971,20.971,0,0,1-3.01.959,37,37,0,0,1,3-2.39c-.187.078-2.7,1.1-3.748,1.432-1.095.342-3.9,1.3-4.174,1.368a12.1,12.1,0,0,0,1.576,0,14.149,14.149,0,0,1-3.214,1.229c-.819.1-2.785.778-3.288,2.2a5.6,5.6,0,0,0,1.566,1.737c1.963,1.55,5.211,3.059,8.032,4.58,1.27.684,2.486,1.322,3.656,2.028a22.737,22.737,0,0,1,4.009,2.931c.405-.243.916.057,1.265.368s.778.675,1.239.555a1.763,1.763,0,0,1,.332-.1c.458-.026.576.669.981.876.477.243.985-.337,1.095-.861s.088-1.146.5-1.5a3.825,3.825,0,0,1,.576-.347c.819-.523.892-1.653,1.131-2.592a4.287,4.287,0,0,1,.363-.969c.648-1.243,1.747-1.732,2.825-2.769a25.1,25.1,0,0,0,3.048-3.86,47.083,47.083,0,0,0,2.541-4.034C152.741,248.924,152.771,249.067,150.993,248.727Zm-25.4,7.248c-.6-.069,1.333-.667,1.333-.667a1.445,1.445,0,0,1-1.333.664Zm.359-2.307s.974-.769,1.384-.72a8.244,8.244,0,0,0,1.178,0s-1.536,1.025-2.562.717Zm7.743,6c-.7-.131.744-.564,1.09-.461s-.269.612-1.089.458Zm3.468-7.846s-2.978.872-2.376.872H135.9c-.205,0-3.282.671-3.436.643A14.773,14.773,0,0,1,134.3,252.3s-.217-.273-.2-.376.694-.308.694-.308a2.209,2.209,0,0,1,1.731-.256,3.976,3.976,0,0,0,1.487.256Zm1.252,6.1c-.832-.757,1.636,0,1.636,0s-1.074.509-1.638,0Zm1.333-8.154c1.128-.769,1.4,0,1.4,0s-1.767.245-1.4,0Zm3.89,2.974-.864-.445a3.246,3.246,0,0,1,1.178-.427,2.834,2.834,0,0,1,1.59.427c.308.185-1.605.6-1.905.442Zm2.212,3.771s-1.384-.028-1.517,0a11.325,11.325,0,0,1,1.517-.532Zm2.144-5.549s.981-.212,1.446.3c.62.68-1.448-.3-1.448-.3Z" transform="translate(-119.983 -246.061)" fill="#fff" opacity="0.2"/>
          </g>
        </g>
      </g>
      <g id="Grupo_1116852" data-name="Grupo 1116852" transform="translate(203.42 185.014)">
        <g id="Grupo_1116851" data-name="Grupo 1116851" transform="translate(0)">
          <g id="Grupo_1116849" data-name="Grupo 1116849" transform="translate(1.285)">
            <path id="Trazado_907830" data-name="Trazado 907830" d="M315.025,328.388l4.524,1.364H344.3l.547-9.919-4.786-2.051s.889-7.667,2.325-15.881l3.282-.1,6.974-27.5-3.966-1.714,2.872-9.111h4.307l4.592-12.784s-16.5-6.578-26.341-7.45l-8.813,1.479-.616,11.478-7.18.947-1.413,12.366,5.1.879-3.281,26.283-7.376,2.075-1.286,18.094,6.423,1.318Z" transform="translate(-309.247 -243.236)" fill="#afafaf"/>
            <path id="Trazado_907831" data-name="Trazado 907831" d="M349.862,378.041l-24.478.684-4.7-2.364,5.382,1,19.007-1.369Z" transform="translate(-314.263 -301.445)" fill="#fff" opacity="0.4"/>
            <path id="Trazado_907832" data-name="Trazado 907832" d="M343.364,343.625l-17.706.052L311.482,340.9l.031-.441,7.378-2.074,7.793,4.672Z" transform="translate(-310.227 -284.957)" fill="#fff" opacity="0.4"/>
            <path id="Trazado_907833" data-name="Trazado 907833" d="M354.018,292.164l-21.844-2.136-5.641-.057-5.107-.876,10.437-1.2Z" transform="translate(-314.587 -262.818)" opacity="0.2" style="isolation: isolate"/>
            <path id="Trazado_907834" data-name="Trazado 907834" d="M367.9,272.562h-4.3l-17.234-7.876-9.639.6,10.167-1.309Z" transform="translate(-321.297 -252.328)" opacity="0.2" style="isolation: isolate"/>
            <path id="Trazado_907835" data-name="Trazado 907835" d="M346.158,243.234l.736,11.647-10.167,1.309.617-11.474Z" transform="translate(-321.297 -243.234)" fill="#fff" opacity="0.2"/>
            <path id="Trazado_907836" data-name="Trazado 907836" d="M331.863,278.431l2.806-12.122-11.828.949-1.415,12.371Z" transform="translate(-314.587 -253.352)" fill="#fff" opacity="0.2"/>
            <path id="Trazado_907837" data-name="Trazado 907837" d="M327.959,291.591l10.7.552-6.187,30.4-7.793-4.672Z" transform="translate(-316.013 -264.438)" fill="#fff" opacity="0.2"/>
            <path id="Trazado_907838" data-name="Trazado 907838" d="M310.5,342.866l14.175,2.774-2.863,17.139-12.567-2.257Z" transform="translate(-309.247 -286.921)" fill="#fff" opacity="0.2"/>
            <path id="Trazado_907839" data-name="Trazado 907839" d="M324.876,379.019l-.819,9.234-4.526-1.364.646-10.233Z" transform="translate(-313.756 -301.738)" fill="#fff" opacity="0.2"/>
          </g>
          <path id="Trazado_907840" data-name="Trazado 907840" d="M313.4,349.691l12.449,2.834,14.667-.646L326.5,355.024Z" transform="translate(-309.783 -289.914)" fill="#407bff"/>
          <path id="Trazado_907841" data-name="Trazado 907841" d="M318.56,381.974l4.58,2.813h11.077l-13.443,1.076-4.5-3.075Z" transform="translate(-311.042 -304.07)" fill="#407bff"/>
          <path id="Trazado_907842" data-name="Trazado 907842" d="M337.125,391.859h19.569l2.258,1.7Z" transform="translate(-320.186 -308.404)" fill="#407bff"/>
          <path id="Trazado_907843" data-name="Trazado 907843" d="M319.879,360.385l-10.958-3.068-1.963,1.051Z" transform="translate(-306.958 -293.258)" fill="#407bff"/>
          <path id="Trazado_907844" data-name="Trazado 907844" d="M335.814,369.353l16.473-1.413,1.746.707Z" transform="translate(-319.612 -297.915)" fill="#407bff"/>
          <path id="Trazado_907845" data-name="Trazado 907845" d="M345.011,337.89l17.8-.637,1.548,1.309Z" transform="translate(-323.644 -284.46)" fill="#407bff"/>
          <path id="Trazado_907846" data-name="Trazado 907846" d="M347.4,327.807l-14.63-1.662-9.024-3.363h-3.058L331.46,327.3Z" transform="translate(-312.979 -278.115)" fill="#407bff"/>
          <path id="Trazado_907847" data-name="Trazado 907847" d="M332.253,308.352l7.382,2.656,23.027,1.857-2.079-1.545-21.166-1.328Z" transform="translate(-318.05 -271.788)" fill="#407bff"/>
          <path id="Trazado_907848" data-name="Trazado 907848" d="M328.719,280.956l-10.255.513L321,282.7Z" transform="translate(-312.003 -259.774)" fill="#407bff"/>
          <path id="Trazado_907849" data-name="Trazado 907849" d="M329.053,272.659l7.8-1.035,20.1,6.985-20.2-5.234Z" transform="translate(-316.647 -255.683)" fill="#407bff"/>
          <path id="Trazado_907850" data-name="Trazado 907850" d="M354.775,261.251l-12-6.478-11.9,3.73,3.505.94,9.945-1.43Z" transform="translate(-317.448 -248.293)" fill="#407bff"/>
          <path id="Trazado_907851" data-name="Trazado 907851" d="M366.864,258.307l18.05,7.477h-2.253Z" transform="translate(-333.226 -249.844)" fill="#407bff"/>
          <path id="Trazado_907852" data-name="Trazado 907852" d="M356.636,248.262l9.025,1.025,14.058,7.8S361.559,249.185,356.636,248.262Z" transform="translate(-328.742 -245.439)" fill="#407bff"/>
          <path id="Trazado_907853" data-name="Trazado 907853" d="M328.163,297.576l4.458,1.128-6.3-.564Z" transform="translate(-315.447 -267.062)" fill="#407bff"/>
          <g id="Grupo_1116850" data-name="Grupo 1116850" transform="translate(0 2.823)">
            <path id="Trazado_907854" data-name="Trazado 907854" d="M313.4,349.691l12.449,2.834,14.667-.646L326.5,355.024Z" transform="translate(-309.783 -292.737)" fill="#fff" opacity="0.7"/>
            <path id="Trazado_907855" data-name="Trazado 907855" d="M318.56,381.974l4.58,2.813h11.077l-13.443,1.076-4.5-3.075Z" transform="translate(-311.042 -306.893)" fill="#fff" opacity="0.7"/>
            <path id="Trazado_907856" data-name="Trazado 907856" d="M337.125,391.859h19.569l2.258,1.7Z" transform="translate(-320.186 -311.227)" fill="#fff" opacity="0.7"/>
            <path id="Trazado_907857" data-name="Trazado 907857" d="M319.879,360.385l-10.958-3.068-1.963,1.051Z" transform="translate(-306.958 -296.081)" fill="#fff" opacity="0.7"/>
            <path id="Trazado_907858" data-name="Trazado 907858" d="M335.814,369.353l16.473-1.413,1.746.707Z" transform="translate(-319.612 -300.739)" fill="#fff" opacity="0.7"/>
            <path id="Trazado_907859" data-name="Trazado 907859" d="M345.011,337.89l17.8-.637,1.548,1.309Z" transform="translate(-323.644 -287.283)" fill="#fff" opacity="0.7"/>
            <path id="Trazado_907860" data-name="Trazado 907860" d="M347.4,327.807l-14.63-1.662-9.024-3.363h-3.058L331.46,327.3Z" transform="translate(-312.979 -280.938)" fill="#fff" opacity="0.7"/>
            <path id="Trazado_907861" data-name="Trazado 907861" d="M332.253,308.352l7.382,2.656,23.027,1.857-2.079-1.545-21.166-1.328Z" transform="translate(-318.05 -274.611)" fill="#fff" opacity="0.7"/>
            <path id="Trazado_907862" data-name="Trazado 907862" d="M328.719,280.956l-10.255.513L321,282.7Z" transform="translate(-312.003 -262.598)" fill="#fff" opacity="0.7"/>
            <path id="Trazado_907863" data-name="Trazado 907863" d="M329.053,272.659l7.8-1.035,20.1,6.985-20.2-5.234Z" transform="translate(-316.647 -258.506)" fill="#fff" opacity="0.7"/>
            <path id="Trazado_907864" data-name="Trazado 907864" d="M354.775,261.251l-12-6.478-11.9,3.73,3.505.94,9.945-1.43Z" transform="translate(-317.448 -251.117)" fill="#fff" opacity="0.7"/>
            <path id="Trazado_907865" data-name="Trazado 907865" d="M366.864,258.307l18.05,7.477h-2.253Z" transform="translate(-333.226 -252.667)" fill="#fff" opacity="0.7"/>
            <path id="Trazado_907866" data-name="Trazado 907866" d="M356.636,248.262l9.025,1.025,14.058,7.8S361.559,249.185,356.636,248.262Z" transform="translate(-328.742 -248.262)" fill="#fff" opacity="0.7"/>
            <path id="Trazado_907867" data-name="Trazado 907867" d="M328.163,297.576l4.458,1.128-6.3-.564Z" transform="translate(-315.447 -269.885)" fill="#fff" opacity="0.7"/>
          </g>
          <path id="Trazado_907868" data-name="Trazado 907868" d="M335.814,302.69l6.094,1.538,17.143,1.641-17.143-.841Z" transform="translate(-319.612 -269.305)" opacity="0.1" style="isolation: isolate"/>
          <path id="Trazado_907869" data-name="Trazado 907869" d="M332.253,294.654l9.726.474,18.222,3.116-18.793-1.949Z" transform="translate(-318.05 -265.781)" opacity="0.1" style="isolation: isolate"/>
          <path id="Trazado_907870" data-name="Trazado 907870" d="M327.6,284.034l7.632-1.2,19.341,4.486-19.5-3.795Z" transform="translate(-316.007 -260.596)" opacity="0.1" style="isolation: isolate"/>
          <path id="Trazado_907871" data-name="Trazado 907871" d="M330.883,278.026l6.434-.185,19.569,5.043-19.755-4.24Z" transform="translate(-317.449 -258.409)" opacity="0.1" style="isolation: isolate"/>
          <path id="Trazado_907872" data-name="Trazado 907872" d="M323.528,270.75l9.77-1.118-9.77,1.846Z" transform="translate(-314.224 -254.809)" opacity="0.1" style="isolation: isolate"/>
          <path id="Trazado_907873" data-name="Trazado 907873" d="M322.987,276.366h3.406l-3.406.829Z" transform="translate(-313.987 -257.762)" opacity="0.1" style="isolation: isolate"/>
          <path id="Trazado_907874" data-name="Trazado 907874" d="M337.544,249.845l9.15-1.583,12.236,4.409-12.124-3.383-9.261,1.178Z" transform="translate(-320.37 -245.439)" opacity="0.1" style="isolation: isolate"/>
          <path id="Trazado_907875" data-name="Trazado 907875" d="M382.832,271.739l-13.959-4.36,13.564,5.461Z" transform="translate(-334.107 -253.821)" opacity="0.1" style="isolation: isolate"/>
          <path id="Trazado_907876" data-name="Trazado 907876" d="M350.448,252.652l2.045-.458,22.261,7.174-22.163-6.439Z" transform="translate(-326.028 -247.162)" opacity="0.1" style="isolation: isolate"/>
          <path id="Trazado_907877" data-name="Trazado 907877" d="M393.543,256.092l-7.988-2.838,7.555,3.555Z" transform="translate(-341.422 -247.628)" opacity="0.1" style="isolation: isolate"/>
          <path id="Trazado_907878" data-name="Trazado 907878" d="M329.053,314.014l8.541,2.608,19.357,1.56-19.541-.654Z" transform="translate(-316.647 -274.27)" opacity="0.1" style="isolation: isolate"/>
          <path id="Trazado_907879" data-name="Trazado 907879" d="M325.769,328.383l8.6,3.319,19.4.442h-19.49Z" transform="translate(-315.207 -280.571)" opacity="0.1" style="isolation: isolate"/>
          <path id="Trazado_907880" data-name="Trazado 907880" d="M351.046,340.7l-16.559-1.846-6.893-2.8,6.593,3.825Z" transform="translate(-316.007 -283.934)" opacity="0.1" style="isolation: isolate"/>
          <path id="Trazado_907881" data-name="Trazado 907881" d="M369.195,325.49c-.154-.055-13.348-.4-13.348-.4l13.142,1.214Z" transform="translate(-328.395 -279.128)" opacity="0.1" style="isolation: isolate"/>
          <path id="Trazado_907882" data-name="Trazado 907882" d="M311.035,345.186l14.156,3.088h9.91l-10.011.61-13.806-2.844Z" transform="translate(-308.746 -287.939)" opacity="0.1"/>
          <path id="Trazado_907883" data-name="Trazado 907883" d="M355.852,357.856c-.005.031-13.767,1.539-13.767,1.539l13.651-.769Z" transform="translate(-322.361 -293.494)" opacity="0.1"/>
          <path id="Trazado_907884" data-name="Trazado 907884" d="M316.269,356.142c-.183-.092,8.546,1.731,8.546,1.731S319.378,357.7,316.269,356.142Z" transform="translate(-311.04 -292.741)" opacity="0.1"/>
          <path id="Trazado_907885" data-name="Trazado 907885" d="M310.066,362.781l12.031,2.894L310.066,363.7Z" transform="translate(-308.321 -295.654)" opacity="0.1"/>
          <path id="Trazado_907886" data-name="Trazado 907886" d="M314.08,370.452l10.207,2.323,15.2-.306-15.207,1.089Z" transform="translate(-310.081 -299.017)" opacity="0.1"/>
          <path id="Trazado_907887" data-name="Trazado 907887" d="M338.676,365.358h10.665l-8.752.433Z" transform="translate(-320.867 -296.784)" opacity="0.1"/>
          <path id="Trazado_907888" data-name="Trazado 907888" d="M322.987,380.863l3.28,1.43s17.444-.142,17.128,0-17.2.758-17.2.758Z" transform="translate(-313.987 -303.583)" opacity="0.1"/>
          <path id="Trazado_907889" data-name="Trazado 907889" d="M355.808,388.9s-16.3.41-15.941.41h13.482Z" transform="translate(-321.386 -307.106)" opacity="0.1"/>
          <path id="Trazado_907890" data-name="Trazado 907890" d="M370.714,382.717s-2.671-.273-2.463,0a9.216,9.216,0,0,0,2.331.623Z" transform="translate(-333.829 -304.342)" opacity="0.1"/>
          <path id="Trazado_907891" data-name="Trazado 907891" d="M322.987,391.859l2.807.584,15.078,1.112-15.145-.361Z" transform="translate(-313.987 -308.404)" opacity="0.1"/>
        </g>
      </g>
      <g id="Grupo_1116867" data-name="Grupo 1116867" transform="translate(112.699 128.658)">
        <g id="Grupo_1116866" data-name="Grupo 1116866" transform="translate(0 0)">
          <path id="Trazado_907892" data-name="Trazado 907892" d="M267.735,168.931c3.612,1.61,10.42,1.39,13.03-4.331s2.421-10.629-3.478-13.384-13.355.758-13.99,5.966S262.026,166.387,267.735,168.931Z" transform="translate(-196.916 -146.107)" fill="#263238"/>
          <g id="Grupo_1116853" data-name="Grupo 1116853" transform="translate(0 122.189)">
            <path id="Trazado_907893" data-name="Trazado 907893" d="M146.553,370.656a5.527,5.527,0,0,0,.845-1.818h0s1.776-2.028,7.43-3.312l.495-2.544a2.136,2.136,0,0,0-1.033-2.221,1.192,1.192,0,0,0-.339-.139,14.489,14.489,0,0,0-1.872-.151,51.663,51.663,0,0,0-6.273.359l.028.453,3.949-.065c1.34-.017-.163,1.1-1.583,1.488s-2.914,1.1-2.8,4.037C145.546,370.162,145.77,371.572,146.553,370.656Z" transform="translate(-145.393 -360.471)" fill="#2e353a"/>
            <path id="Trazado_907894" data-name="Trazado 907894" d="M157.754,365.447s-7.256,1.926-8.885,3.514c0,0-1-2.731,2.74-4.674,4.837-2.511,3.813-3.542,3.813-3.542a12.1,12.1,0,0,1,2.073.8C158.76,362.3,157.754,365.447,157.754,365.447Z" transform="translate(-146.864 -360.594)" fill="#e4897b"/>
          </g>
          <g id="Grupo_1116854" data-name="Grupo 1116854" transform="translate(100.954 144.875)">
            <path id="Trazado_907895" data-name="Trazado 907895" d="M338.486,406.737a5.525,5.525,0,0,0-1.978.33h0s-2.683-.317-6.931-4.256l-2.378,1.031a2.138,2.138,0,0,0-1.248,2.107,1.206,1.206,0,0,0,.077.358,14.543,14.543,0,0,0,.934,1.63,51.763,51.763,0,0,0,3.843,4.973l.357-.279-2.29-3.219c-.773-1.1,1-.49,2.123.465s2.556,1.78,4.912.029C338.648,407.846,339.685,406.864,338.486,406.737Z" transform="translate(-325.517 -401.725)" fill="#2e353a"/>
            <path id="Trazado_907896" data-name="Trazado 907896" d="M328.253,400.877s5.692,4.9,7.922,5.342c0,0-1.687,2.37-5.4.382-4.806-2.57-5.077-1.142-5.077-1.142a12.124,12.124,0,0,1-.509-2.164C325.09,401.825,328.253,400.877,328.253,400.877Z" transform="translate(-325.183 -400.877)" fill="#e4897b"/>
          </g>
          <path id="Trazado_907897" data-name="Trazado 907897" d="M283.965,199.114c1.85,1.263,4.9,12.972,5.823,13.729s7.73-2.906,7.73-2.906l1.488,3.316s-10.287,6.292-11.7,5.109-6.041-13.859-6.041-13.859Z" transform="translate(-204.971 -167.532)" fill="#263238"/>
          <path id="Trazado_907898" data-name="Trazado 907898" d="M283.965,199.114c1.85,1.263,4.9,12.972,5.823,13.729s7.73-2.906,7.73-2.906l1.488,3.316s-10.287,6.292-11.7,5.109-6.041-13.859-6.041-13.859Z" transform="translate(-204.971 -167.532)" fill="#fff" opacity="0.2"/>
          <g id="Grupo_1116855" data-name="Grupo 1116855" transform="translate(41.197 35.52)">
            <path id="Trazado_907899" data-name="Trazado 907899" d="M218.761,213.431l7,7.077s21.391,7.289,26.724-.458c0,0-2.323-11.641-8.323-13.634S218.761,213.431,218.761,213.431Z" transform="translate(-218.761 -206.128)" fill="#263238"/>
            <path id="Trazado_907900" data-name="Trazado 907900" d="M218.761,213.431l7,7.077s21.391,7.289,26.724-.458c0,0-2.323-11.641-8.323-13.634S218.761,213.431,218.761,213.431Z" transform="translate(-218.761 -206.128)" fill="#fff" opacity="0.1"/>
          </g>
          <path id="Trazado_907901" data-name="Trazado 907901" d="M309.538,218.34l4.239-2.312,2-4.75a23.738,23.738,0,0,1,2.437,1c.286.221-.9,4.144-1.192,4.394a7.531,7.531,0,0,1-1.984.442L311,219.662Z" transform="translate(-217.369 -172.865)" fill="#e4897b"/>
          <g id="Grupo_1116857" data-name="Grupo 1116857" transform="translate(39.553 24.633)">
            <path id="Trazado_907902" data-name="Trazado 907902" d="M241.085,188.219s13.89-.319,24.038,6.116a103.927,103.927,0,0,1-6.235,23.173l-20.363-3.368s2.18-5.8-.232-17.4Z" transform="translate(-225.681 -187.386)" fill="#407bff"/>
            <path id="Trazado_907903" data-name="Trazado 907903" d="M241.085,188.219s13.89-.319,24.038,6.116a103.927,103.927,0,0,1-6.235,23.173l-20.363-3.368s2.18-5.8-.232-17.4Z" transform="translate(-225.681 -187.386)" fill="#fff" opacity="0.6"/>
            <path id="Trazado_907904" data-name="Trazado 907904" d="M237.245,187.093c2.827,11.928-9.563,22.6-18.975,22.728l-2.437-5.169,10.057-4.2,5.346-12.728Z" transform="translate(-215.833 -186.894)" fill="#263238"/>
            <path id="Trazado_907905" data-name="Trazado 907905" d="M277.873,194.465s-1.888,16.677.192,20.473c0,0,3.555-6.508,4.358-17.588A19.1,19.1,0,0,0,277.873,194.465Z" transform="translate(-242.693 -190.126)" fill="#263238"/>
            <path id="Trazado_907906" data-name="Trazado 907906" d="M237.245,187.093c2.827,11.928-9.563,22.6-18.975,22.728l-2.437-5.169,10.057-4.2,5.346-12.728Z" transform="translate(-215.833 -186.894)" fill="#fff" opacity="0.3"/>
            <path id="Trazado_907907" data-name="Trazado 907907" d="M277.873,194.465s-1.888,16.677.192,20.473c0,0,3.555-6.508,4.358-17.588A19.1,19.1,0,0,0,277.873,194.465Z" transform="translate(-242.693 -190.126)" fill="#fff" opacity="0.3"/>
            <g id="Grupo_1116856" data-name="Grupo 1116856" transform="translate(15.816 0)">
              <path id="Trazado_907908" data-name="Trazado 907908" d="M252.7,187.1s-2.506-1.365-6.7,1.231l2.564,1.82-1.9,2.153A25.591,25.591,0,0,1,244,203.438s4.562-4.651,6.1-9.741S250.936,187.456,252.7,187.1Z" transform="translate(-244 -186.738)" fill="#263238"/>
              <path id="Trazado_907909" data-name="Trazado 907909" d="M274.159,191.4a10.661,10.661,0,0,1,5.62,4.122l-1.606.3,1.564,2.713-3.921,8.757s-.416-6.752-.218-10.8A9.182,9.182,0,0,0,274.159,191.4Z" transform="translate(-257.224 -188.783)" fill="#263238"/>
              <path id="Trazado_907910" data-name="Trazado 907910" d="M252.7,187.1s-2.506-1.365-6.7,1.231l2.564,1.82-1.9,2.153A25.591,25.591,0,0,1,244,203.438s4.562-4.651,6.1-9.741S250.936,187.456,252.7,187.1Z" transform="translate(-244 -186.738)" fill="#fff" opacity="0.2"/>
              <path id="Trazado_907911" data-name="Trazado 907911" d="M274.159,191.4a10.661,10.661,0,0,1,5.62,4.122l-1.606.3,1.564,2.713-3.921,8.757s-.416-6.752-.218-10.8A9.182,9.182,0,0,0,274.159,191.4Z" transform="translate(-257.224 -188.783)" fill="#fff" opacity="0.2"/>
            </g>
          </g>
          <path id="Trazado_907912" data-name="Trazado 907912" d="M226.211,267.6c-3.395,14-13.2,32.644-15.114,36.254-1.5,2.844-7.418,3.795-14.608,4.629-13.848,1.606-32.5,4.15-32.5,4.15l-.025-4.369s37.677-8.876,38.287-10.907c.856-2.869,1.863-16.513,2.76-27.992.106-1.282.2-2.533.3-3.743.16-1.99.306-3.834.43-5.431.289-3.658.472-6.027.472-6.027l20.13-14.213S230.461,250.081,226.211,267.6Z" transform="translate(-153.535 -185.44)" fill="#263238"/>
          <path id="Trazado_907913" data-name="Trazado 907913" d="M226.211,267.6c-3.395,14-13.2,32.644-15.114,36.254-1.5,2.844-7.418,3.795-14.608,4.629-13.848,1.606-32.5,4.15-32.5,4.15l-.025-4.369s37.677-8.876,38.287-10.907c.856-2.869,1.863-16.513,2.76-27.992.106-1.282.2-2.533.3-3.743.16-1.99.306-3.834.43-5.431.289-3.658.472-6.027.472-6.027l20.13-14.213S230.461,250.081,226.211,267.6Z" transform="translate(-153.535 -185.44)" opacity="0.2" style="isolation: isolate"/>
          <path id="Trazado_907914" data-name="Trazado 907914" d="M265.2,296.573c-1.9-4.154-18.255-30.057-18.255-30.057l-16.067,2.718c5.181,15.2,23.633,30.731,26.761,34.758S284,343.962,284,343.962l2.858-2.022S269.222,305.371,265.2,296.573Z" transform="translate(-182.878 -197.087)" fill="#263238"/>
          <path id="Trazado_907915" data-name="Trazado 907915" d="M235.1,234.387l21.15,1.38-.393,2.421s-2.262,10.878-11.164,16.643l-13.99.315s-1.636-8.863,3.876-19.138Z" transform="translate(-182.7 -182.999)" fill="#263238"/>
          <g id="Grupo_1116859" data-name="Grupo 1116859" transform="translate(52.287 51.679)">
            <path id="Trazado_907916" data-name="Trazado 907916" d="M246.01,235.316l-6.971-.411-.527,1.626,7.342.553Z" transform="translate(-238.512 -234.905)"/>
            <path id="Trazado_907917" data-name="Trazado 907917" d="M253.306,235.729l-.158,1.782,12.223.921.117-1.985Z" transform="translate(-244.93 -235.266)"/>
            <g id="Grupo_1116858" data-name="Grupo 1116858" transform="translate(14.461 0.829)">
              <rect id="Rectángulo_405933" data-name="Rectángulo 405933" width="2.988" height="2.25" rx="0.674" transform="translate(0.132 0) rotate(3.373)" fill="none" stroke="#fff" stroke-linecap="round" stroke-linejoin="round" stroke-width="1"/>
              <line id="Línea_571" data-name="Línea 571" x2="0.847" y2="0.05" transform="translate(2.169 1.247)" fill="none" stroke="#fff" stroke-linecap="round" stroke-linejoin="round" stroke-width="1"/>
            </g>
          </g>
          <g id="Grupo_1116860" data-name="Grupo 1116860" transform="translate(53.183 25.465)">
            <path id="Trazado_907918" data-name="Trazado 907918" d="M270.967,210.436l5.781-2.961a5.894,5.894,0,0,1,1.491-1.524c.622-.283,6.066.539,6.066.539l-2.038,4.31s-4.029-.235-4.457-.566l-5.287,2.83Z" transform="translate(-253.638 -195.97)" fill="#e4897b"/>
            <path id="Trazado_907919" data-name="Trazado 907919" d="M241.88,188.221c-5.315,1.378,2.678,20.879,6.179,21.981s14.739-6.461,14.739-6.461l-1.929-3.246s-9.822,3.921-10.719,3.5-4.528-10.229-5.169-11.98S241.88,188.221,241.88,188.221Z" transform="translate(-240.107 -188.221)" fill="#263238"/>
            <path id="Trazado_907920" data-name="Trazado 907920" d="M241.88,188.221c-5.315,1.378,2.678,20.879,6.179,21.981s14.739-6.461,14.739-6.461l-1.929-3.246s-9.822,3.921-10.719,3.5-4.528-10.229-5.169-11.98S241.88,188.221,241.88,188.221Z" transform="translate(-240.107 -188.221)" fill="#fff" opacity="0.2"/>
            <path id="Trazado_907921" data-name="Trazado 907921" d="M278.449,215.68a.191.191,0,1,1-.029-.144A.192.192,0,0,1,278.449,215.68Z" transform="translate(-256.753 -200.161)" fill="#fff" opacity="0.6"/>
            <path id="Trazado_907922" data-name="Trazado 907922" d="M276.056,217.162a.192.192,0,1,1-.151-.224.192.192,0,0,1,.151.224Z" transform="translate(-255.703 -200.811)" fill="#fff" opacity="0.6"/>
          </g>
          <g id="Grupo_1116861" data-name="Grupo 1116861" transform="translate(80.882 26.508)">
            <path id="Trazado_907923" data-name="Trazado 907923" d="M311.332,194.345l-7.132,18.5a.981.981,0,0,1-1.123.583l-13.067-3.253a.728.728,0,0,1-.517-.991l7.132-18.5a.982.982,0,0,1,1.124-.583l13.066,3.252a.728.728,0,0,1,.518.991Z" transform="translate(-289.437 -190.078)" fill="#263238"/>
            <path id="Trazado_907924" data-name="Trazado 907924" d="M311.792,194.462l-7.132,18.5a.981.981,0,0,1-1.123.583l-12.472-3.1a.728.728,0,0,1-.517-.991l7.132-18.5a.981.981,0,0,1,1.123-.583l12.472,3.1a.728.728,0,0,1,.517.991Z" transform="translate(-289.899 -190.194)" fill="#fff" opacity="0.3"/>
            <path id="Trazado_907925" data-name="Trazado 907925" d="M309.262,208.758a1.406,1.406,0,0,0-1.61.836,1.042,1.042,0,0,0,.741,1.42,1.4,1.4,0,0,0,1.61-.836,1.041,1.041,0,0,1-.74-1.42Z" transform="translate(-297.388 -198.253)" fill="#fff" opacity="0.3"/>
          </g>
          <g id="Grupo_1116862" data-name="Grupo 1116862" transform="translate(60.064 24.988)">
            <path id="Trazado_907926" data-name="Trazado 907926" d="M252.362,192.092s.826-3.718,2.29-4.491,8.462.453,10.894,2.737a9.547,9.547,0,0,1,2.7,5.62l-3.13-1.324-4.746,5.348-3.721-7.485Z" transform="translate(-252.362 -187.369)" fill="#407bff"/>
            <path id="Trazado_907927" data-name="Trazado 907927" d="M252.362,192.092s.826-3.718,2.29-4.491,8.462.453,10.894,2.737a9.547,9.547,0,0,1,2.7,5.62l-3.13-1.324-4.746,5.348-3.721-7.485Z" transform="translate(-252.362 -187.369)" fill="#fff" opacity="0.5"/>
          </g>
          <path id="Trazado_907928" data-name="Trazado 907928" d="M262.856,188.034c4.038.311,6.133,3.1,5.6,5.385l-2.512.348-2.018,5.5-.8-6.114-2.534-1.61S258.978,187.735,262.856,188.034Z" transform="translate(-195.762 -162.666)" fill="#e4897b"/>
          <path id="Trazado_907929" data-name="Trazado 907929" d="M264.861,189.294c-3.853-3.041-3.4-5.419-3.4-5.419a8.388,8.388,0,0,0,3.605-5.044,9.91,9.91,0,0,0,.3-1.674l4.46,3.955a16.911,16.911,0,0,0-1.464,2,7.408,7.408,0,0,0-.791,1.64c-.559,1.706.283,2.241.283,2.241C267.749,189.17,264.861,189.294,264.861,189.294Z" transform="translate(-196.279 -157.904)" fill="#e4897b"/>
          <path id="Trazado_907930" data-name="Trazado 907930" d="M270.628,182.88a7.379,7.379,0,0,0-.576,1.727c-2.009-1.214-2.879-3.627-3.243-5.552a9.843,9.843,0,0,0,.089-1.7l4.928,3.356A16.886,16.886,0,0,0,270.628,182.88Z" transform="translate(-198.633 -157.99)" opacity="0.2" style="isolation: isolate"/>
          <g id="Grupo_1116865" data-name="Grupo 1116865" transform="translate(67.33 5.109)">
            <path id="Trazado_907931" data-name="Trazado 907931" d="M277.938,160.025c4.592,2.218,4.882,5.391,2.933,10.285-2.436,6.116-5.777,9.684-10.908,5.648C262.994,170.475,270.312,156.342,277.938,160.025Z" transform="translate(-266.117 -155.235)" fill="#e4897b"/>
            <path id="Trazado_907932" data-name="Trazado 907932" d="M285.694,175.8a10.771,10.771,0,0,0,.416,2.552,1.4,1.4,0,0,1-1.462-.065Z" transform="translate(-273.784 -162.417)" fill="#de5753"/>
            <g id="Grupo_1116863" data-name="Grupo 1116863" transform="translate(8.263 10.72)">
              <path id="Trazado_907933" data-name="Trazado 907933" d="M281.034,171.989c-.173.381-.52.6-.774.481s-.32-.518-.147-.9.52-.6.774-.481S281.207,171.609,281.034,171.989Z" transform="translate(-280.016 -171.057)" fill="#263238"/>
              <path id="Trazado_907934" data-name="Trazado 907934" d="M281.363,171.06l.978.052S281.61,171.622,281.363,171.06Z" transform="translate(-280.607 -171.059)" fill="#263238"/>
            </g>
            <g id="Grupo_1116864" data-name="Grupo 1116864" transform="translate(13.041 12.797)">
              <path id="Trazado_907935" data-name="Trazado 907935" d="M289.542,175.686c-.173.381-.52.6-.774.482s-.32-.518-.147-.9.52-.6.774-.482S289.716,175.308,289.542,175.686Z" transform="translate(-288.525 -174.755)" fill="#263238"/>
              <path id="Trazado_907936" data-name="Trazado 907936" d="M289.872,174.757l.978.052S290.119,175.319,289.872,174.757Z" transform="translate(-289.116 -174.757)" fill="#263238"/>
            </g>
            <path id="Trazado_907937" data-name="Trazado 907937" d="M282.617,166.928a2.656,2.656,0,0,0-1.967-1.272" transform="translate(-272.031 -157.97)" fill="none" stroke="#263238" stroke-linecap="round" stroke-linejoin="round" stroke-width="0.708"/>
            <path id="Trazado_907938" data-name="Trazado 907938" d="M290.287,170.46a2.38,2.38,0,0,1,2.072.11" transform="translate(-276.257 -159.995)" fill="none" stroke="#263238" stroke-linecap="round" stroke-linejoin="round" stroke-width="0.708"/>
            <path id="Trazado_907939" data-name="Trazado 907939" d="M268.785,163.509s3.969-2.736,5.051-5.8c0,0,10.895.679,6.883,10.131,0,0,4.85-7.771-2.955-11.767s-13.348,7.568-10.935,12.977C266.828,169.046,266.317,165.227,268.785,163.509Z" transform="translate(-265.72 -153.405)" fill="#263238"/>
            <path id="Trazado_907940" data-name="Trazado 907940" d="M268.647,170.023a2.238,2.238,0,0,0-1.28-2.888c-1.5-.533-3.587,2.061-.387,4.473C267.439,171.954,267.966,171.6,268.647,170.023Z" transform="translate(-265.301 -158.587)" fill="#e4897b"/>
            <path id="Trazado_907941" data-name="Trazado 907941" d="M275.047,152.235s3.468-.779,5.68.321a3.861,3.861,0,0,1,2.374,2.754,3.249,3.249,0,0,1,2.862.882c1.383,1.271,2.194,4.943.731,8.865s-4.884,3.374-4.884,3.374,4.458-5.823-.292-9.6c0,0-1.558-1.867-3.375-.737s-3.11,5.837-7.1,2.771S271.6,153.136,275.047,152.235Z" transform="translate(-267.135 -151.967)" fill="#263238"/>
            <path id="Trazado_907942" data-name="Trazado 907942" d="M279.461,180.1s1.718.952,1.843,1.92" transform="translate(-271.51 -164.302)" fill="none" stroke="#263238" stroke-linecap="round" stroke-linejoin="round" stroke-width="0.708"/>
          </g>
          <path id="Trazado_907943" data-name="Trazado 907943" d="M253.96,148.978s-2.406-7.994-7.64-5.692-7.786,8.052-12.02,4.693-6.173,1-8.232,2.333-5.692-.668-4.723-2.333c0,0-2.665,2.041,2.059,4.188s7.052-2.338,8.552-.642,6.83,5.087,9.618,2.665a5.806,5.806,0,0,1,5.87-1.09Z" transform="translate(-178.368 -142.869)" fill="#263238"/>
          <path id="Trazado_907944" data-name="Trazado 907944" d="M254.842,159.421c-2.278.065-5.064,5.109-8.285,3.907s-6.569-3.865-8.265-2.533" transform="translate(-186.128 -150.127)" fill="none" stroke="#263238" stroke-linecap="round" stroke-linejoin="round" stroke-width="0.5"/>
          <path id="Trazado_907945" data-name="Trazado 907945" d="M242.5,150.967c-4.875-.574-7.289-3.726-9.21-3.484s-4.222,5.03-6.4,3.484" transform="translate(-181.129 -144.886)" fill="none" stroke="#263238" stroke-linecap="round" stroke-linejoin="round" stroke-width="0.5"/>
          <path id="Trazado_907946" data-name="Trazado 907946" d="M282.736,162.174c-1.589-.687-2.544.3-5.289,4.468-1.164,1.767-3.289.432-3.289.432" transform="translate(-201.855 -151.246)" fill="none" stroke="#263238" stroke-linecap="round" stroke-linejoin="round" stroke-width="0.5"/>
        </g>
      </g>
      <g id="Grupo_1116868" data-name="Grupo 1116868" transform="translate(70.832 168.966)">
        <path id="Trazado_907947" data-name="Trazado 907947" d="M319.015,219.133l11.476-4.48s13,7.608,21.269,8.866l-14.3,2.813S321.985,223.246,319.015,219.133Z" transform="translate(-179.657 -214.653)" fill="#afafaf"/>
        <path id="Trazado_907951" data-name="Trazado 907951" d="M366.793,346.237l14.082,2.405s-12.221,8.113-22.512,9.6l-11.11-3.6S360.626,353.247,366.793,346.237Z" transform="translate(-192.039 -272.351)" fill="#8454ee"/>
        <path id="Trazado_907952" data-name="Trazado 907952" d="M374.087,297.767s13.54-.732,23.113,3.241l5.743-5.484s-15.031-6.587-24.717-3.3Z" transform="translate(-203.806 -248.265)" fill="#8454ee"/>
        <path id="Trazado_907953" data-name="Trazado 907953" d="M209.289,387.966s6.769-7.123,23.66-9l10.241,4.615s-15.277,3.316-22.231,6.543Z" transform="translate(-131.544 -286.701)" fill="#afafaf"/>
      </g>
    </g>
  </g>
</svg>
