<svg xmlns="http://www.w3.org/2000/svg" width="505" height="466" viewBox="0 0 505 466">
  <g id="Grupo_1115983" data-name="Grupo 1115983" transform="translate(-915 -4994.466)">
    <rect id="Rectángulo_405611" data-name="Rectángulo 405611" width="505" height="466" transform="translate(915 4994.466)" fill="#dcecf7"/>
    <g id="forrr" transform="translate(-139.654 -968.408)">
      <g id="Grupo_1115863" data-name="Grupo 1115863" transform="translate(1424.31 6201.718)">
        <g id="Grupo_1115859" data-name="Grupo 1115859" transform="translate(8.583 0)">
          <g id="Grupo_1115857" data-name="Grupo 1115857" transform="translate(0.607 0.226)">
            <path id="Trazado_906760" data-name="Trazado 906760" d="M147.67,199.391a35.631,35.631,0,0,1,9.146,2.417l6.722-5.639,11.546,8.788-3.638,7.981a35.482,35.482,0,0,1,4.765,8.171l8.735.772,1.95,14.377-8.218,3.071a35.526,35.526,0,0,1-2.417,9.146L181.9,255.2l-8.786,11.545-7.981-3.637a35.56,35.56,0,0,1-8.172,4.763l-.769,8.735-14.379,1.953-3.071-8.218a35.564,35.564,0,0,1-9.146-2.417l-6.722,5.639-11.546-8.788,3.633-7.984a35.655,35.655,0,0,1-4.765-8.172l-8.732-.769L99.512,233.47l8.218-3.061a35.357,35.357,0,0,1,2.417-9.149l-5.639-6.722,8.786-11.546,7.982,3.638a35.609,35.609,0,0,1,8.172-4.765l.767-8.732,14.379-1.951,3.071,8.218Zm-5.9,19.964a15.567,15.567,0,1,0,17.518,13.332,15.567,15.567,0,0,0-17.518-13.332Z" transform="translate(-99.512 -191.182)" fill="#cdb9f8"/>
          </g>
          <g id="Grupo_1115858" data-name="Grupo 1115858" transform="translate(28.884 28.069)">
            <path id="Trazado_906761" data-name="Trazado 906761" d="M125.992,203.816a3.014,3.014,0,0,1,.98-.211,12.122,12.122,0,0,1,2.878-.061,15.492,15.492,0,0,1,9.544,4.388,16.089,16.089,0,1,1-25.223,3.424,15.484,15.484,0,0,1,8.027-6.767,12.1,12.1,0,0,1,2.791-.709,3.073,3.073,0,0,1,1-.058c.024.134-1.362.269-3.609,1.221a15.523,15.523,0,0,0-7.439,6.751,15.146,15.146,0,0,0-.119,14.4,15,15,0,0,0,27.893-3.782,15.146,15.146,0,0,0-3.952-13.857,15.527,15.527,0,0,0-8.97-4.528C127.376,203.713,126,203.952,125.992,203.816Z" transform="translate(-112.011 -203.486)" fill="#344154"/>
          </g>
          <path id="Trazado_906762" data-name="Trazado 906762" d="M148.014,199.516a2.311,2.311,0,0,1-.23-.483l-.627-1.534-2.4-6.123.214.129-14.363,2.066.276-.287c-.219,2.652-.461,5.591-.72,8.738l-.018.219-.208.089a35.364,35.364,0,0,0-8.056,4.75l-.2.161-.229-.1-8-3.6.541-.139-8.748,11.574-.016-.616,5.652,6.706.2.24-.119.292a35.1,35.1,0,0,0-2.36,9.015l-.039.322-.309.116-8.208,3.09.359-.6c.62,4.512,1.289,9.386,1.975,14.374l-.527-.5,8.732.757.359.032.14.335a35.271,35.271,0,0,0,4.694,8.027l.226.29-.151.335c-1.138,2.5-2.38,5.229-3.633,7.985l-.185-.744,11.551,8.78-.778.021,6.721-5.639.292-.245.351.145a35.07,35.07,0,0,0,8.976,2.372h0l.514.4h0v.018l.011.032.024.063.047.129.1.261.192.516.385,1.034.772,2.059,1.527,4.093-.672-.4,14.382-1.946-.537.561q.39-4.408.773-8.735l.034-.371.343-.142a35.049,35.049,0,0,0,8.037-4.673l.292-.226.332.161,7.979,3.645-.727.184q4.512-5.905,8.8-11.534l.016.722-5.62-6.734-.219-.263.131-.322a35.051,35.051,0,0,0,2.4-9l.043-.322.308-.113,8.218-3.05-.335.559c-.672-5.059-1.305-9.829-1.908-14.384l.432.414-8.73-.806-.274-.024-.1-.251a35.175,35.175,0,0,0-4.673-8.092l-.161-.2.1-.224c1.336-2.892,2.539-5.5,3.675-7.963l.113.448c-4.446-3.426-8.238-6.348-11.492-8.862l.353-.01-6.767,5.573-.1.079-.111-.048a37.6,37.6,0,0,0-6.767-2.132l-1.726-.342a2.457,2.457,0,0,1-.57-.129,3.26,3.26,0,0,1,.587.024c.387.04.967.108,1.75.242a33.891,33.891,0,0,1,6.888,1.963l-.206.032,6.671-5.7.169-.145.18.139c3.285,2.467,7.114,5.345,11.6,8.715l.235.177-.122.274c-1.113,2.475-2.293,5.093-3.6,8l-.05-.424a35.932,35.932,0,0,1,4.856,8.251l-.375-.276,8.736.74.382.032.052.382c.628,4.545,1.289,9.318,1.992,14.373l.056.414-.392.147-8.2,3.089.348-.441a36.058,36.058,0,0,1-2.435,9.292l-.089-.575,5.639,6.711.3.353-.28.369-8.77,11.558-.29.382-.437-.2-7.985-3.629.627-.073a36.176,36.176,0,0,1-8.311,4.853l.379-.516q-.377,4.325-.762,8.735l-.043.5-.493.068L142.224,279.3l-.5.068-.177-.469q-.764-2.04-1.529-4.1l-.772-2.059-.385-1.031-.195-.519-.1-.258-.05-.129-.023-.066-.013-.032v-.026c1.02.806.284.224.509.4h0a36.24,36.24,0,0,1-9.3-2.457l.645-.1-6.725,5.639-.382.322-.4-.3-11.542-8.8-.392-.3.2-.448c1.258-2.754,2.506-5.478,3.648-7.976l.073.625A36.357,36.357,0,0,1,110,248.981l.5.364-8.732-.781-.466-.043-.061-.461c-.67-4.995-1.321-9.866-1.934-14.384l-.06-.443.419-.161,8.218-3.05-.348.438a36.031,36.031,0,0,1,2.475-9.278l.082.532-5.615-6.738-.253-.306.24-.313,8.825-11.517.218-.287.322.15c2.8,1.289,5.478,2.528,7.968,3.671l-.424.05a36.034,36.034,0,0,1,8.284-4.779l-.226.308c.3-3.144.57-6.083.819-8.727l.024-.256.251-.034,14.394-1.832.161-.021.052.15,2.175,6.123c.224.659.4,1.183.545,1.6a3.254,3.254,0,0,1,.164.564Z" transform="translate(-99.245 -191.081)" fill="#344154"/>
        </g>
        <g id="Grupo_1115862" data-name="Grupo 1115862" transform="translate(0 100.175)">
          <g id="Grupo_1115860" data-name="Grupo 1115860" transform="translate(0.421 0.135)">
            <path id="Trazado_906763" data-name="Trazado 906763" d="M125.868,240.567a22.419,22.419,0,0,1,5.743,1.516l4.222-3.537,7.251,5.519-2.283,5.011a22.411,22.411,0,0,1,2.994,5.132l5.478.483,1.225,9.023-5.156,1.934a22.347,22.347,0,0,1-1.518,5.746l3.545,4.222-5.519,7.251-5.011-2.285a22.352,22.352,0,0,1-5.134,2.994l-.483,5.478-9.033,1.226-1.934-5.156a22.355,22.355,0,0,1-5.744-1.516l-4.222,3.537-7.251-5.519,2.285-5.013a22.5,22.5,0,0,1-2.979-5.129L96.865,271l-1.226-9.023,5.156-1.934a22.368,22.368,0,0,1,1.518-5.746l-3.545-4.222,5.519-7.251,5.014,2.285a22.236,22.236,0,0,1,5.132-2.994l.483-5.478,9.023-1.225,1.934,5.156ZM122.162,253.1a9.777,9.777,0,1,0,11,8.379,9.777,9.777,0,0,0-11-8.379Z" transform="translate(-95.639 -235.414)" fill="none"/>
          </g>
          <g id="Grupo_1115861" data-name="Grupo 1115861" transform="translate(18.166 17.618)">
            <path id="Trazado_906764" data-name="Trazado 906764" d="M112.261,243.346a1.9,1.9,0,0,1,.616-.131,7.543,7.543,0,0,1,1.808-.039,9.73,9.73,0,0,1,5.994,2.754,10.1,10.1,0,1,1-15.842,2.145,9.727,9.727,0,0,1,5.043-4.252,7.476,7.476,0,0,1,1.751-.443,1.877,1.877,0,0,1,.628-.039c.016.084-.856.169-2.267.767a9.74,9.74,0,0,0-4.673,4.242,9.507,9.507,0,0,0-.077,9.044,9.423,9.423,0,0,0,17.519-2.385,9.507,9.507,0,0,0-2.485-8.7,9.743,9.743,0,0,0-5.639-2.844C113.133,243.282,112.269,243.433,112.261,243.346Z" transform="translate(-103.48 -243.14)" fill="#263238"/>
          </g>
          <path id="Trazado_906765" data-name="Trazado 906765" d="M126.1,240.643a1.414,1.414,0,0,1-.147-.308l-.392-.967q-.54-1.368-1.51-3.845l.135.081-9.023,1.3.174-.18c-.139,1.666-.29,3.511-.453,5.486l-.011.139-.131.056a22.237,22.237,0,0,0-5.061,2.982l-.122.1-.145-.066-5.024-2.256.34-.085q-2.6,3.434-5.494,7.268l-.01-.387c1.1,1.305,2.307,2.739,3.545,4.214l.127.15-.077.185a22.023,22.023,0,0,0-1.479,5.662l-.024.2-.195.073-5.156,1.934.224-.379c.392,2.836.806,5.894,1.242,9.023l-.332-.322,5.478.483.226.018.085.211a22.164,22.164,0,0,0,2.949,5.042l.142.184-.1.211-2.282,5.014-.118-.469,7.251,5.514-.483.011,4.22-3.545.184-.161.222.093a22.008,22.008,0,0,0,5.639,1.489h0c.142.113-.322-.253.322.253h0v.032l.016.04.029.082.061.161.119.322.242.645.483,1.289q.483,1.291.967,2.578l-.421-.253,9.023-1.221-.335.353q.245-2.77.483-5.478l.023-.235.214-.089a21.955,21.955,0,0,0,5.048-2.937l.184-.143.211.1,5.009,2.29-.458.113q2.834-3.706,5.53-7.251l.01.454-3.53-4.23-.139-.161.082-.2a22,22,0,0,0,1.507-5.652l.024-.206.195-.073,5.156-1.914-.211.351c-.421-3.177-.819-6.178-1.2-9.033l.274.261-5.478-.5-.172-.016-.066-.161a22.154,22.154,0,0,0-2.937-5.082l-.1-.124.063-.142c.839-1.814,1.6-3.453,2.311-4.995l.071.284c-2.792-2.153-5.172-3.99-7.219-5.564h.222l-4.254,3.5-.061.05-.071-.029a23.424,23.424,0,0,0-4.252-1.337l-1.084-.214a1.416,1.416,0,0,1-.358-.082,2.045,2.045,0,0,1,.367.016c.245.026.611.068,1.1.151a21.35,21.35,0,0,1,4.325,1.231l-.129.021,4.189-3.575.108-.09.113.085,7.286,5.478.147.111-.077.172-2.256,5.021-.032-.264a22.571,22.571,0,0,1,3.05,5.182l-.235-.172,5.478.464.24.021.034.24c.4,2.854.806,5.852,1.252,9.023l.034.259-.245.093-5.156,1.934.219-.276a22.557,22.557,0,0,1-1.529,5.836l-.055-.363,3.545,4.215.185.222-.177.234-5.507,7.259-.18.237-.274-.124-5.014-2.278.392-.045a22.738,22.738,0,0,1-5.217,3.049l.235-.322q-.234,2.715-.483,5.478l-.027.309-.309.044-9.023,1.229-.313.044-.111-.295c-.322-.856-.645-1.711-.967-2.578l-.483-1.289-.242-.645-.122-.322-.061-.161-.029-.082-.016-.04v-.031h0c.645.506.177.14.322.253h0a22.746,22.746,0,0,1-5.839-1.544l.4-.063-4.225,3.545-.24.2-.248-.19-7.251-5.523-.247-.189.127-.28c.791-1.729,1.574-3.442,2.293-5.009l.045.392a22.7,22.7,0,0,1-3.037-5.222l.313.23-5.478-.483-.295-.027-.039-.29c-.421-3.136-.83-6.2-1.21-9.033l-.035-.28.263-.1,5.156-1.916-.219.279a22.708,22.708,0,0,1,1.555-5.828l.052.335-3.5-4.238-.161-.192.15-.2,5.541-7.231.139-.18.2.1,4.995,2.3-.267.032a22.559,22.559,0,0,1,5.2-3l-.142.192.514-5.478.016-.161.161-.021,9.039-1.149.1-.013.032.093q.883,2.478,1.366,3.841l.342,1a2.135,2.135,0,0,1,.114.351Z" transform="translate(-95.447 -235.355)" fill="#263238"/>
        </g>
      </g>
      <g id="Grupo_1115982" data-name="Grupo 1115982" transform="translate(1121.325 6044.298)">
        <g id="Grupo_1115923" data-name="Grupo 1115923" transform="translate(109.114 0.006)">
          <g id="Grupo_1115869" data-name="Grupo 1115869">
            <g id="Grupo_1115864" data-name="Grupo 1115864" transform="translate(59.027)">
              <path id="Trazado_906766" data-name="Trazado 906766" d="M543.777,51.356H522.239a21.883,21.883,0,1,0-43.766,0H456.937a6.35,6.35,0,0,0-6.35,6.358v17.98a2.881,2.881,0,0,0,2.881,2.881h93.776a2.881,2.881,0,0,0,2.881-2.881V57.714a6.35,6.35,0,0,0-6.349-6.358Zm-43.419-4.225a5.182,5.182,0,1,1,5.182-5.182,5.182,5.182,0,0,1-5.182,5.182Z" transform="translate(-450.587 -29.473)" fill="#344154"/>
            </g>
            <g id="Grupo_1115865" data-name="Grupo 1115865" transform="translate(0 29.351)">
              <path id="Trazado_906767" data-name="Trazado 906767" d="M13.62,0H203.973a13.62,13.62,0,0,1,13.62,13.62V297.366a13.62,13.62,0,0,1-13.62,13.62H13.619A13.619,13.619,0,0,1,0,297.366V13.62A13.62,13.62,0,0,1,13.62,0Z" fill="#12263f"/>
            </g>
            <g id="Grupo_1115866" data-name="Grupo 1115866" transform="translate(9.645 43.598)">
              <rect id="Rectángulo_405651" data-name="Rectángulo 405651" width="195.651" height="286.991" rx="6.091" fill="#fff"/>
            </g>
            <g id="Grupo_1115867" data-name="Grupo 1115867" transform="translate(59.936 28.189)">
              <path id="Trazado_906768" data-name="Trazado 906768" d="M546.64,62.195V77.95a5.317,5.317,0,0,1-5.317,5.317H459.687a5.317,5.317,0,0,1-5.317-5.317V62.195h-2.728V78.456A7.542,7.542,0,0,0,459.183,86h82.639a7.542,7.542,0,0,0,7.543-7.542V62.195Z" transform="translate(-451.642 -62.195)" fill="#344154"/>
            </g>
            <g id="Grupo_1115868" data-name="Grupo 1115868" transform="translate(40.277 25.996)">
              <rect id="Rectángulo_405652" data-name="Rectángulo 405652" width="137.039" height="10.27" rx="3.187" fill="#344154"/>
            </g>
          </g>
          <g id="Grupo_1115876" data-name="Grupo 1115876" transform="translate(25.697 101.111)">
            <g id="Grupo_1115874" data-name="Grupo 1115874" transform="translate(8.873 37.628)">
              <g id="Grupo_1115870" data-name="Grupo 1115870" transform="translate(0 26.617)">
                <rect id="Rectángulo_405653" data-name="Rectángulo 405653" width="8.459" height="9.331" fill="#e8c7aa"/>
              </g>
              <g id="Grupo_1115871" data-name="Grupo 1115871" transform="translate(15.094 7.863)">
                <rect id="Rectángulo_405654" data-name="Rectángulo 405654" width="8.459" height="28.083" fill="#e8c7aa"/>
              </g>
              <g id="Grupo_1115872" data-name="Grupo 1115872" transform="translate(30.189 18.398)">
                <rect id="Rectángulo_405655" data-name="Rectángulo 405655" width="8.459" height="17.55" fill="#e8c7aa"/>
              </g>
              <g id="Grupo_1115873" data-name="Grupo 1115873" transform="translate(45.283)">
                <rect id="Rectángulo_405656" data-name="Rectángulo 405656" width="8.459" height="35.946" fill="#e8c7aa"/>
              </g>
            </g>
            <path id="Trazado_906769" data-name="Trazado 906769" d="M413.983,223.7V146.844H411.9V225.78h73.885V223.7Z" transform="translate(-411.9 -146.844)" fill="#12263f"/>
            <g id="Grupo_1115875" data-name="Grupo 1115875" transform="translate(7.269 20.667)">
              <path id="Trazado_906770" data-name="Trazado 906770" d="M474.308,172.239l-4.512-.7-4.512-.7c-.264-.04-.4.264-.242.548l1.869,3.392-9.184,4.939-2.844-2.68-.852-.806-1.047.522-13.106,6.534L436.61,181.5l-.675-.369-.6.23-14.756,5.652a.382.382,0,0,0,.216.73l3.008-.619,11.732-2.417,3.5,1.917.77.421.786-.392,12.842-6.4,2.873,2.707.88.828,1.067-.574,10.262-5.522.636,1.155L470.4,181.1c.135.245.4.322.538.176a.282.282,0,0,0,.055-.084l1.837-4.167,1.739-3.944.1-.221a.5.5,0,0,0-.355-.624Z" transform="translate(-420.333 -170.837)" fill="#aed3f2"/>
            </g>
          </g>
          <g id="Grupo_1115880" data-name="Grupo 1115880" transform="translate(121.136 111.947)">
            <rect id="Rectángulo_405657" data-name="Rectángulo 405657" width="10.462" height="10.462" rx="2.73" fill="#aed3f2"/>
            <g id="Grupo_1115879" data-name="Grupo 1115879" transform="translate(14.803 1.847)">
              <path id="Trazado_906771" data-name="Trazado 906771" d="M590.844,162.911h-50.3a.674.674,0,0,1-.674-.673h0a.674.674,0,0,1,.674-.674h50.3a.674.674,0,0,1,.674.674h0A.674.674,0,0,1,590.844,162.911Z" transform="translate(-539.868 -161.564)" fill="#aed3f2"/>
              <g id="Grupo_1115877" data-name="Grupo 1115877" transform="translate(0 5.422)">
                <path id="Trazado_906772" data-name="Trazado 906772" d="M553.791,169.211h-13.25a.674.674,0,0,1-.674-.674h0a.674.674,0,0,1,.674-.673h13.25a.674.674,0,0,1,.674.673h0A.674.674,0,0,1,553.791,169.211Z" transform="translate(-539.868 -167.864)" fill="#aed3f2"/>
              </g>
              <g id="Grupo_1115878" data-name="Grupo 1115878" transform="translate(18.775 5.422)">
                <path id="Trazado_906773" data-name="Trazado 906773" d="M586.768,169.211H562.334a.674.674,0,0,1-.674-.674h0a.674.674,0,0,1,.674-.673h24.433a.674.674,0,0,1,.674.673h0A.673.673,0,0,1,586.768,169.211Z" transform="translate(-561.661 -167.864)" fill="#aed3f2"/>
              </g>
            </g>
          </g>
          <g id="Grupo_1115884" data-name="Grupo 1115884" transform="translate(121.136 135.347)">
            <rect id="Rectángulo_405658" data-name="Rectángulo 405658" width="10.462" height="10.462" rx="2.73" fill="#aed3f2"/>
            <g id="Grupo_1115883" data-name="Grupo 1115883" transform="translate(14.803 1.84)">
              <path id="Trazado_906774" data-name="Trazado 906774" d="M590.844,190.069h-50.3a.674.674,0,0,1-.674-.674h0a.674.674,0,0,1,.674-.673h50.3a.674.674,0,0,1,.674.673h0A.674.674,0,0,1,590.844,190.069Z" transform="translate(-539.868 -188.722)" fill="#aed3f2"/>
              <g id="Grupo_1115881" data-name="Grupo 1115881" transform="translate(0 5.435)">
                <path id="Trazado_906775" data-name="Trazado 906775" d="M553.791,196.378h-13.25a.674.674,0,0,1-.674-.673h0a.674.674,0,0,1,.674-.673h13.25a.674.674,0,0,1,.674.674h0a.674.674,0,0,1-.674.674Z" transform="translate(-539.868 -195.031)" fill="#aed3f2"/>
              </g>
              <g id="Grupo_1115882" data-name="Grupo 1115882" transform="translate(18.775 5.435)">
                <path id="Trazado_906776" data-name="Trazado 906776" d="M586.768,196.378H562.334a.674.674,0,0,1-.674-.673h0a.674.674,0,0,1,.674-.673h24.433a.674.674,0,0,1,.674.674h0a.673.673,0,0,1-.673.674Z" transform="translate(-561.661 -195.031)" fill="#aed3f2"/>
              </g>
            </g>
          </g>
          <g id="Grupo_1115888" data-name="Grupo 1115888" transform="translate(121.136 158.746)">
            <rect id="Rectángulo_405659" data-name="Rectángulo 405659" width="10.462" height="10.462" rx="2.73" fill="#aed3f2"/>
            <g id="Grupo_1115887" data-name="Grupo 1115887" transform="translate(14.803 1.84)">
              <path id="Trazado_906777" data-name="Trazado 906777" d="M590.844,217.232h-50.3a.674.674,0,0,1-.674-.673h0a.674.674,0,0,1,.674-.674h50.3a.674.674,0,0,1,.674.674h0A.674.674,0,0,1,590.844,217.232Z" transform="translate(-539.868 -215.885)" fill="#aed3f2"/>
              <g id="Grupo_1115885" data-name="Grupo 1115885" transform="translate(0 5.435)">
                <path id="Trazado_906778" data-name="Trazado 906778" d="M553.791,223.54h-13.25a.674.674,0,0,1-.674-.674h0a.674.674,0,0,1,.674-.673h13.25a.674.674,0,0,1,.674.673h0A.674.674,0,0,1,553.791,223.54Z" transform="translate(-539.868 -222.193)" fill="#aed3f2"/>
              </g>
              <g id="Grupo_1115886" data-name="Grupo 1115886" transform="translate(18.775 5.435)">
                <path id="Trazado_906779" data-name="Trazado 906779" d="M586.768,223.54H562.334a.674.674,0,0,1-.674-.674h0a.674.674,0,0,1,.674-.673h24.433a.674.674,0,0,1,.674.673h0A.673.673,0,0,1,586.768,223.54Z" transform="translate(-561.661 -222.193)" fill="#aed3f2"/>
              </g>
            </g>
          </g>
          <g id="Grupo_1115892" data-name="Grupo 1115892" transform="translate(30.215 194.204)">
            <rect id="Rectángulo_405660" data-name="Rectángulo 405660" width="40.827" height="6.64" rx="2.061" fill="#aed3f2"/>
            <g id="Grupo_1115889" data-name="Grupo 1115889" transform="translate(84.826)">
              <rect id="Rectángulo_405661" data-name="Rectángulo 405661" width="28.61" height="6.64" rx="2.061" fill="#aed3f2"/>
            </g>
            <g id="Grupo_1115890" data-name="Grupo 1115890" transform="translate(123.667)">
              <rect id="Rectángulo_405662" data-name="Rectángulo 405662" width="28.61" height="6.64" rx="2.061" fill="#aed3f2"/>
            </g>
            <g id="Grupo_1115891" data-name="Grupo 1115891" transform="translate(49.993)">
              <rect id="Rectángulo_405663" data-name="Rectángulo 405663" width="21.03" height="6.64" rx="2.061" fill="#aed3f2"/>
            </g>
          </g>
          <g id="Grupo_1115896" data-name="Grupo 1115896" transform="translate(30.215 207.486)">
            <rect id="Rectángulo_405664" data-name="Rectángulo 405664" width="40.827" height="6.64" rx="2.061" fill="#bedcf5"/>
            <g id="Grupo_1115893" data-name="Grupo 1115893" transform="translate(84.826)">
              <rect id="Rectángulo_405665" data-name="Rectángulo 405665" width="28.61" height="6.64" rx="2.061" fill="#bedcf5"/>
            </g>
            <g id="Grupo_1115894" data-name="Grupo 1115894" transform="translate(123.667)">
              <rect id="Rectángulo_405666" data-name="Rectángulo 405666" width="28.61" height="6.64" rx="2.061" fill="#e8c7aa"/>
            </g>
            <g id="Grupo_1115895" data-name="Grupo 1115895" transform="translate(49.993)">
              <rect id="Rectángulo_405667" data-name="Rectángulo 405667" width="21.03" height="6.64" rx="2.061" fill="#aed3f2"/>
            </g>
          </g>
          <g id="Grupo_1115900" data-name="Grupo 1115900" transform="translate(30.215 220.768)">
            <rect id="Rectángulo_405668" data-name="Rectángulo 405668" width="40.827" height="6.64" rx="2.061" fill="#bedcf5"/>
            <g id="Grupo_1115897" data-name="Grupo 1115897" transform="translate(84.826)">
              <rect id="Rectángulo_405669" data-name="Rectángulo 405669" width="28.61" height="6.64" rx="2.061" fill="#aed3f2"/>
            </g>
            <g id="Grupo_1115898" data-name="Grupo 1115898" transform="translate(123.667)">
              <rect id="Rectángulo_405670" data-name="Rectángulo 405670" width="28.61" height="6.64" rx="2.061" fill="#e8c7aa"/>
            </g>
            <g id="Grupo_1115899" data-name="Grupo 1115899" transform="translate(49.993)">
              <rect id="Rectángulo_405671" data-name="Rectángulo 405671" width="21.03" height="6.64" rx="2.061" fill="#e8c7aa"/>
            </g>
          </g>
          <g id="Grupo_1115904" data-name="Grupo 1115904" transform="translate(30.215 234.049)">
            <rect id="Rectángulo_405672" data-name="Rectángulo 405672" width="40.827" height="6.64" rx="2.061" fill="#aed3f2"/>
            <g id="Grupo_1115901" data-name="Grupo 1115901" transform="translate(84.826)">
              <rect id="Rectángulo_405673" data-name="Rectángulo 405673" width="28.61" height="6.64" rx="2.061" fill="#aed3f2"/>
            </g>
            <g id="Grupo_1115902" data-name="Grupo 1115902" transform="translate(123.667)">
              <rect id="Rectángulo_405674" data-name="Rectángulo 405674" width="28.61" height="6.64" rx="2.061" fill="#aed3f2"/>
            </g>
            <g id="Grupo_1115903" data-name="Grupo 1115903" transform="translate(49.993)">
              <rect id="Rectángulo_405675" data-name="Rectángulo 405675" width="21.03" height="6.64" rx="2.061" fill="#bedcf5"/>
            </g>
          </g>
          <g id="Grupo_1115908" data-name="Grupo 1115908" transform="translate(30.215 247.331)">
            <rect id="Rectángulo_405676" data-name="Rectángulo 405676" width="40.827" height="6.64" rx="2.061" fill="#e8c7aa"/>
            <g id="Grupo_1115905" data-name="Grupo 1115905" transform="translate(84.826)">
              <rect id="Rectángulo_405677" data-name="Rectángulo 405677" width="28.61" height="6.64" rx="2.061" fill="#bedcf5"/>
            </g>
            <g id="Grupo_1115906" data-name="Grupo 1115906" transform="translate(123.667)">
              <rect id="Rectángulo_405678" data-name="Rectángulo 405678" width="28.61" height="6.64" rx="2.061" fill="#aed3f2"/>
            </g>
            <g id="Grupo_1115907" data-name="Grupo 1115907" transform="translate(49.993)">
              <rect id="Rectángulo_405679" data-name="Rectángulo 405679" width="21.03" height="6.64" rx="2.061" fill="#e8c7aa"/>
            </g>
          </g>
          <g id="Grupo_1115920" data-name="Grupo 1115920" transform="translate(30.215 269.132)">
            <rect id="Rectángulo_405680" data-name="Rectángulo 405680" width="20.486" height="18.544" rx="3.361" fill="#aed3f2"/>
            <g id="Grupo_1115909" data-name="Grupo 1115909" transform="translate(0 26.564)">
              <rect id="Rectángulo_405681" data-name="Rectángulo 405681" width="20.486" height="18.544" rx="3.361" fill="#aed3f2"/>
            </g>
            <g id="Grupo_1115914" data-name="Grupo 1115914" transform="translate(28.583 5.825)">
              <path id="Trazado_906780" data-name="Trazado 906780" d="M523.453,350.718H451.211a.967.967,0,0,1-.886-1.034h0a.967.967,0,0,1,.886-1.034h72.242a.967.967,0,0,1,.888,1.034h0A.967.967,0,0,1,523.453,350.718Z" transform="translate(-450.322 -348.649)" fill="#aed3f2"/>
              <g id="Grupo_1115910" data-name="Grupo 1115910" transform="translate(0.002 7.768)">
                <path id="Trazado_906781" data-name="Trazado 906781" d="M493.444,359.736H451.212a.967.967,0,0,1-.886-1.034h0a.967.967,0,0,1,.886-1.034h42.232a.967.967,0,0,1,.888,1.034h0A.967.967,0,0,1,493.444,359.736Z" transform="translate(-450.323 -357.667)" fill="#aed3f2"/>
              </g>
              <g id="Grupo_1115911" data-name="Grupo 1115911" transform="translate(49.524 7.768)">
                <path id="Trazado_906782" data-name="Trazado 906782" d="M561.159,359.736H508.7a.967.967,0,0,1-.886-1.034h0a.967.967,0,0,1,.886-1.034h52.46a.967.967,0,0,1,.888,1.034h0A.967.967,0,0,1,561.159,359.736Z" transform="translate(-507.81 -357.667)" fill="#aed3f2"/>
              </g>
              <g id="Grupo_1115912" data-name="Grupo 1115912" transform="translate(108.557 7.768)">
                <path id="Trazado_906783" data-name="Trazado 906783" d="M590.587,359.736H577.226a.967.967,0,0,1-.886-1.034h0a.967.967,0,0,1,.886-1.034h13.361a.967.967,0,0,1,.888,1.034h0A.967.967,0,0,1,590.587,359.736Z" transform="translate(-576.337 -357.667)" fill="#aed3f2"/>
              </g>
              <g id="Grupo_1115913" data-name="Grupo 1115913" transform="translate(79.217 0)">
                <path id="Trazado_906784" data-name="Trazado 906784" d="M585.87,350.718h-42.7a.967.967,0,0,1-.888-1.034h0a.967.967,0,0,1,.888-1.034h42.7a.967.967,0,0,1,.888,1.034h0A.967.967,0,0,1,585.87,350.718Z" transform="translate(-542.28 -348.649)" fill="#aed3f2"/>
              </g>
            </g>
            <g id="Grupo_1115919" data-name="Grupo 1115919" transform="translate(28.583 30.916)">
              <path id="Trazado_906785" data-name="Trazado 906785" d="M523.453,379.844H451.211a.967.967,0,0,1-.886-1.034h0a.967.967,0,0,1,.886-1.034h72.242a.967.967,0,0,1,.888,1.034h0A.967.967,0,0,1,523.453,379.844Z" transform="translate(-450.322 -377.775)" fill="#aed3f2"/>
              <g id="Grupo_1115915" data-name="Grupo 1115915" transform="translate(0.002 7.768)">
                <path id="Trazado_906786" data-name="Trazado 906786" d="M493.444,388.862H451.212a.967.967,0,0,1-.886-1.034h0a.967.967,0,0,1,.886-1.034h42.232a.967.967,0,0,1,.888,1.034h0a.967.967,0,0,1-.888,1.034Z" transform="translate(-450.323 -386.793)" fill="#aed3f2"/>
              </g>
              <g id="Grupo_1115916" data-name="Grupo 1115916" transform="translate(49.524 7.768)">
                <path id="Trazado_906787" data-name="Trazado 906787" d="M561.159,388.862H508.7a.967.967,0,0,1-.886-1.034h0a.967.967,0,0,1,.886-1.034h52.46a.967.967,0,0,1,.888,1.034h0a.967.967,0,0,1-.888,1.034Z" transform="translate(-507.81 -386.793)" fill="#aed3f2"/>
              </g>
              <g id="Grupo_1115917" data-name="Grupo 1115917" transform="translate(108.557 7.768)">
                <path id="Trazado_906788" data-name="Trazado 906788" d="M590.587,388.862H577.226a.967.967,0,0,1-.886-1.034h0a.967.967,0,0,1,.886-1.034h13.361a.967.967,0,0,1,.888,1.034h0a.967.967,0,0,1-.888,1.034Z" transform="translate(-576.337 -386.793)" fill="#aed3f2"/>
              </g>
              <g id="Grupo_1115918" data-name="Grupo 1115918" transform="translate(79.217 0)">
                <path id="Trazado_906789" data-name="Trazado 906789" d="M585.87,379.844h-42.7a.967.967,0,0,1-.888-1.034h0a.967.967,0,0,1,.888-1.034h42.7a.967.967,0,0,1,.888,1.034h0A.967.967,0,0,1,585.87,379.844Z" transform="translate(-542.28 -377.775)" fill="#aed3f2"/>
              </g>
            </g>
          </g>
          <g id="Grupo_1115921" data-name="Grupo 1115921" transform="translate(34.955 274.32)">
            <path id="Trazado_906790" data-name="Trazado 906790" d="M431.313,347.909l-4.107,5.7-2.841-2.681-1.721,2.178,4.821,3.206,6.182-6.606Z" transform="translate(-422.644 -347.909)" fill="#fff"/>
          </g>
          <g id="Grupo_1115922" data-name="Grupo 1115922" transform="translate(35.395 300.755)">
            <path id="Trazado_906791" data-name="Trazado 906791" d="M431.823,378.6l-4.107,5.7-2.841-2.681-1.721,2.178,4.821,3.206,6.182-6.606Z" transform="translate(-423.154 -378.6)" fill="#fff"/>
          </g>
        </g>
        <g id="Grupo_1115951" data-name="Grupo 1115951" transform="translate(0 77.546)">
          <g id="Grupo_1115924" data-name="Grupo 1115924" transform="translate(32.64 109.618)">
            <path id="Trazado_906792" data-name="Trazado 906792" d="M193.212,332.637a159.687,159.687,0,0,0,9.041,55.911q1.753,5.043,3.886,10.088l-1.631,10.82h31.259l-20.181-12.039c-.461-2.875-.839-5.847-1.17-8.862a354.242,354.242,0,0,1-.609-53.237,26.116,26.116,0,0,0-1.681-10.82c-5.435-14.166-20.039-53.465-24.749-77.768H153.059C147.187,285.623,163.028,302.388,193.212,332.637Z" transform="translate(-151.849 -246.73)" fill="#ffbf9d"/>
          </g>
          <g id="Grupo_1115925" data-name="Grupo 1115925" transform="translate(32.642 109.625)">
            <path id="Trazado_906793" data-name="Trazado 906793" d="M168.264,305.781c6.571,8.335,14.967,16.864,24.947,26.854-.214,19.965,1.157,42.634,7.446,60.537l15.629-.806c-2.124-20.454,1.465-54.622-1.732-67.553-3.64-14.729-22.464-53.776-27.174-78.079H153.059C149.129,272.769,154.926,288.895,168.264,305.781Z" transform="translate(-151.849 -246.734)" fill="#6595bf"/>
          </g>
          <g id="Grupo_1115926" data-name="Grupo 1115926" transform="translate(49.039 136.475)">
            <path id="Trazado_906794" data-name="Trazado 906794" d="M170.883,310.038l.016.064c6.571,8.335,14.967,16.864,24.947,26.854-.214,19.965,1.157,42.634,7.446,60.537l4.636-.242c-6.522-16.859-8.338-38.945-7.594-61.459-34.087-27.764-11.459-37.765-22.058-57.885Z" transform="translate(-170.883 -277.908)" fill="#334b60"/>
          </g>
          <g id="Grupo_1115927" data-name="Grupo 1115927" transform="translate(85.1 260.313)">
            <path id="Trazado_906795" data-name="Trazado 906795" d="M224.045,421.66c7.521,3.853,20.644,2.786,21.415,12.039h-32.5a28.842,28.842,0,0,1,1.128-12.039,30.147,30.147,0,0,0,9.954,0Z" transform="translate(-212.763 -421.66)" fill="#344154"/>
          </g>
          <g id="Grupo_1115932" data-name="Grupo 1115932" transform="translate(0 108.4)">
            <g id="Grupo_1115928" data-name="Grupo 1115928" transform="translate(0.49 0.006)">
              <path id="Trazado_906796" data-name="Trazado 906796" d="M118.466,395.808c-1.352,2.931-2.626,5.651-3.941,8.5q13.093,3.124,26.183,6.266c-5.282-4.386-10.6-8.686-15.855-13.129,2.012-4.081,4.463-9.839,6.647-13.535,8.748-14.8,18.641-27.914,28.655-41.732a24.314,24.314,0,0,0,4.655-10.75c4.673-27.214,4.08-55.286,8.984-82.554-7.749-1.207-15.478-2.372-23.22-3.554C129,279.024,133.562,297,142.61,333.168c-10.739,14.535-16.661,30.956-20.968,48.516C120.754,385.306,119.244,391.775,118.466,395.808Z" transform="translate(-114.525 -245.323)" fill="#ffbf9d"/>
            </g>
            <g id="Grupo_1115929" data-name="Grupo 1115929" transform="translate(2.97 0)">
              <path id="Trazado_906797" data-name="Trazado 906797" d="M165.184,331.467a23.792,23.792,0,0,1-4.7,10.839c-11.35,15.886-20.244,33.962-30.231,50.815-4.313-.981-8.561-2.006-12.848-3.005,4.96-19.658,13.283-40.474,25.6-56.933-9.034-36.194-13.609-54.139,7.955-87.839a.068.068,0,0,1,.014-.027l26.4,4.028c-.122.667-.243,1.336-.367,2v.06C172.315,277.986,169.869,304.918,165.184,331.467Z" transform="translate(-117.403 -245.317)" fill="#4c708f"/>
            </g>
            <g id="Grupo_1115930" data-name="Grupo 1115930" transform="translate(2.958 0.024)">
              <path id="Trazado_906798" data-name="Trazado 906798" d="M172.027,252.462c-2.826,3.978-.161,11.943-3.264,16.274-8.026,11.221-18.82,2.9-25.768,7.426-11.819,7.692,1.31,42.76,3.909,52.254.079.287,1.9,6.606,3.1,6.474-5.453.656-3.519-3.187-10.486,8.63-3.142,5.332-19.406,36.458-20.017,46.334-1.392,1.352-1.3,0-2.109.276,4.977-19.693,13.285-40.477,25.608-56.947-9.033-36.189-13.614-54.139,7.956-87.836,8.578,1.964,19.3.645,27.674,2.591C179.621,248.172,173.87,249.873,172.027,252.462Z" transform="translate(-117.393 -245.347)" fill="#6595bf"/>
            </g>
            <g id="Grupo_1115931" data-name="Grupo 1115931" transform="translate(0 147.793)">
              <path id="Trazado_906799" data-name="Trazado 906799" d="M126.136,418.58c7.346,5.142,17.527,6.677,18.207,16.653l-30.39-7.275a31.562,31.562,0,0,1,4.958-11.081,7.471,7.471,0,0,0,7.225,1.7Z" transform="translate(-113.953 -416.877)" fill="#344154"/>
            </g>
          </g>
          <g id="Grupo_1115937" data-name="Grupo 1115937" transform="translate(62.812 34.22)">
            <g id="Grupo_1115933" data-name="Grupo 1115933" transform="translate(65.007 2.219)">
              <path id="Trazado_906800" data-name="Trazado 906800" d="M268.044,176.261s-2.277,1.194-2.986,1.668c-1.307-2.3-1.5-4.483-2.726-6.658,0,0,3.214-.86,3.522-1.5,1.013-2.095,1.934-5.973,4.052-6.489,2.156-.522.409,4.665.409,4.665a23.173,23.173,0,0,0,8.039-4.22C286.309,156.333,283.72,172.088,268.044,176.261Z" transform="translate(-262.332 -161.782)" fill="#ffbf9d"/>
            </g>
            <g id="Grupo_1115934" data-name="Grupo 1115934" transform="translate(0 0.005)">
              <path id="Trazado_906801" data-name="Trazado 906801" d="M256.775,177.241c-5.183,3.476-27.487,17.341-35.822,17.992-9.478.744-34.082-9.25-34.082-9.25l1.026-26.758c4.562-.686,32.764,22.1,32.764,22.1l32.253-12.281C254.143,171.208,255.468,174.937,256.775,177.241Z" transform="translate(-186.871 -159.209)" fill="#d9a171"/>
            </g>
            <g id="Grupo_1115935" data-name="Grupo 1115935" transform="translate(1.028 0)">
              <path id="Trazado_906802" data-name="Trazado 906802" d="M202.273,167.2c-6.339-4.5-12.317-8.269-14.211-7.984v.05A91.589,91.589,0,0,1,202.273,167.2Z" transform="translate(-188.062 -159.206)" fill="#384c78"/>
            </g>
            <g id="Grupo_1115936" data-name="Grupo 1115936" transform="translate(0.005 15.361)">
              <path id="Trazado_906803" data-name="Trazado 906803" d="M255.461,177.037c-5.726,4.263-26.794,17.268-34.842,18.357-8.421,1.142-29.385-5.6-33.745-7.041v.1s24.6,9.99,34.082,9.25c8.335-.645,30.638-14.516,35.822-17.992A27.477,27.477,0,0,1,255.461,177.037Z" transform="translate(-186.874 -177.037)" fill="#a37955"/>
            </g>
          </g>
          <g id="Grupo_1115938" data-name="Grupo 1115938" transform="translate(32.035 34.227)">
            <path id="Trazado_906804" data-name="Trazado 906804" d="M196.8,192.649l-9.516,41.993h-34.32s-5.68-40.367,3.029-61.515c3.92-9.527,16.794-13.641,17.6-13.9l.035-.016,9.569.551Z" transform="translate(-151.145 -159.215)" fill="#ffbf9d"/>
          </g>
          <g id="Grupo_1115939" data-name="Grupo 1115939" transform="translate(32.037 34.227)">
            <path id="Trazado_906805" data-name="Trazado 906805" d="M196.405,194.371l-8.023,35.393a6.21,6.21,0,0,1-6.031,4.876c-4.977,2.291-12.054,1.5-19.624,0A10.923,10.923,0,0,1,151.9,224.518c-1.088-13.366-1.877-36.9,4.1-51.4,3.069-7.451,11.622-11.6,15.576-13.166a10.584,10.584,0,0,1,3.909-.738l7.4.018c1.136,0,13.744,31.663,13.744,31.663A11.179,11.179,0,0,1,196.405,194.371Z" transform="translate(-151.146 -159.215)" fill="#fff"/>
          </g>
          <g id="Grupo_1115940" data-name="Grupo 1115940" transform="translate(39.828 106.447)">
            <rect id="Rectángulo_405682" data-name="Rectángulo 405682" width="36.416" height="5.404" fill="#182f57"/>
          </g>
          <g id="Grupo_1115941" data-name="Grupo 1115941" transform="translate(61.005 34.226)">
            <path id="Trazado_906806" data-name="Trazado 906806" d="M185.668,255.448a5.053,5.053,0,0,0,3.524,3.495,15.618,15.618,0,0,0,6.669.351l.28-.05a28.982,28.982,0,0,0,5.3-1.421l.016-52.355s.224-9.624,0-12.821c-.991-14.113.416-30.713-13-33.353a2.71,2.71,0,0,0-.928-.073C197.767,202.538,180.809,237.459,185.668,255.448Z" transform="translate(-184.771 -159.208)" fill="#d9a171"/>
          </g>
          <g id="Grupo_1115942" data-name="Grupo 1115942" transform="translate(21.173 34.228)">
            <path id="Trazado_906807" data-name="Trazado 906807" d="M141.054,260.623c7.2,1.568,15.259.852,21.454-.026a10.059,10.059,0,0,0,8.524-10.778c-2.156-29.793,6.413-58.973.852-90.6l-.032.016c-.806.251-13.743,4.339-17.6,13.892-7.259,17.961-10.095,57.745-15.629,83.6a3.276,3.276,0,0,0,2.435,3.9Z" transform="translate(-138.54 -159.216)" fill="#d9a171"/>
          </g>
          <g id="Grupo_1115943" data-name="Grupo 1115943" transform="translate(29.288 108.592)">
            <path id="Trazado_906808" data-name="Trazado 906808" d="M147.954,248.025a43.129,43.129,0,0,0,16.261,0v-2.486a59.473,59.473,0,0,1-16.261,0Z" transform="translate(-147.954 -245.539)" fill="#e1b48d"/>
          </g>
          <g id="Grupo_1115946" data-name="Grupo 1115946" transform="translate(37.678 40.543)">
            <g id="Grupo_1115944" data-name="Grupo 1115944" transform="translate(80.34 49.478)">
              <path id="Trazado_906809" data-name="Trazado 906809" d="M256.068,236.621a29.27,29.27,0,0,0-5.114,0l.226-8.467s3.867.975,4.889.29c1.664-1.128,4.305-4.028,7.156-4.437s-1.526,4.639-1.526,4.639a25.054,25.054,0,0,0,11.243,0C278.036,227.13,276.954,239.679,256.068,236.621Z" transform="translate(-250.954 -223.982)" fill="#ffbf9d"/>
            </g>
            <path id="Trazado_906810" data-name="Trazado 906810" d="M240.407,219.8V230.23c-10.248.967-37.407,1.576-46.679-1.565-11.717-3.975-36.035-39.731-36.035-39.731l12.89-22.385c10,11.7,31.062,46.69,31.062,46.69Z" transform="translate(-157.694 -166.549)" fill="#d9a171"/>
            <g id="Grupo_1115945" data-name="Grupo 1115945" transform="translate(0 22.385)">
              <path id="Trazado_906811" data-name="Trazado 906811" d="M195.227,227.176c-10.647-3.239-37.533-34.642-37.533-34.642s24.317,35.756,36.035,39.731c9.271,3.14,36.431,2.526,46.679,1.565v-3.746C229.755,231.355,204.408,229.966,195.227,227.176Z" transform="translate(-157.694 -192.534)" fill="#a37955"/>
            </g>
          </g>
          <g id="Grupo_1115947" data-name="Grupo 1115947" transform="translate(47.725)">
            <path id="Trazado_906812" data-name="Trazado 906812" d="M179.829,147.033s-8.195-.027-10.161-9.561,5.849-12.924,10.982-12.858a13.522,13.522,0,0,0,10.8-5.13s4.555,6.207,1.934,11.654C191.108,135.86,179.829,147.033,179.829,147.033Z" transform="translate(-169.358 -119.483)" fill="#344154"/>
          </g>
          <g id="Grupo_1115948" data-name="Grupo 1115948" transform="translate(54.524 20.091)">
            <path id="Trazado_906813" data-name="Trazado 906813" d="M187.245,145.755l-.182,2.752-.483,7.383-.074,1.128c-.148,5.859-8.807,3.432-9.257-.074l1.424-5.828,1.046-4.271.366-1.5.62-2.544Z" transform="translate(-177.249 -142.802)" fill="#ffbf9d"/>
          </g>
          <g id="Grupo_1115949" data-name="Grupo 1115949" transform="translate(55.948 22.63)">
            <path id="Trazado_906814" data-name="Trazado 906814" d="M187.291,148.919l-.483,7.383c-2.18-.45-5.478-1.465-7.161-3.738-.261-.351-.508-.694-.744-1.041l1.046-4.271.366-1.5Z" transform="translate(-178.903 -145.753)" fill="#f0b4b4"/>
          </g>
          <g id="Grupo_1115950" data-name="Grupo 1115950" transform="translate(52.867 10.217)">
            <path id="Trazado_906815" data-name="Trazado 906815" d="M190.107,131.635a2.2,2.2,0,0,1,3.31,1.826c.3,6.01.023,15.77-4.682,17.362-6.88,2.328-11.795-6.767-11.795-6.767s-2.949-4.209-.873-5.651,4.039,2.1,4.039,2.1C180.448,133.833,185.992,134.18,190.107,131.635Z" transform="translate(-175.327 -131.334)" fill="#ffbf9d"/>
          </g>
          <path id="Trazado_906816" data-name="Trazado 906816" d="M192.037,144.431a2.887,2.887,0,0,0,2.388-.441,18.758,18.758,0,0,1-2.555-4.35Z" transform="translate(-124.751 -122.276)" fill="#ff9a6c"/>
          <path id="Trazado_906817" data-name="Trazado 906817" d="M187.7,138.818c.332,0,.619.471.628.928s-.272.862-.577.875-.574-.417-.63-.923S187.361,138.813,187.7,138.818Z" transform="translate(-124.091 -122.162)" fill="#344154"/>
          <path id="Trazado_906818" data-name="Trazado 906818" d="M194.317,138.51c.338,0,.614.412.625.922s-.242.928-.574.92-.611-.417-.624-.926S193.995,138.494,194.317,138.51Z" transform="translate(-125.013 -122.119)" fill="#344154"/>
          <path id="Trazado_906819" data-name="Trazado 906819" d="M193.374,135.972a.3.3,0,0,0,.258.114,2.515,2.515,0,0,1,2.095.665.287.287,0,0,0,.4.042h0a.3.3,0,0,0,.024-.421h0a3.084,3.084,0,0,0-2.62-.83.306.306,0,0,0-.266.332A.4.4,0,0,0,193.374,135.972Z" transform="translate(-124.951 -121.699)" fill="#344154"/>
          <path id="Trazado_906820" data-name="Trazado 906820" d="M193.473,148.522a.3.3,0,0,0-.282-.018,2.517,2.517,0,0,1-2.2.1.287.287,0,0,0-.393.1v.008h0a.306.306,0,0,0,.121.4h0a3.084,3.084,0,0,0,2.739-.121.3.3,0,0,0,.135-.4.393.393,0,0,0-.118-.068Z" transform="translate(-124.567 -123.5)" fill="#344154"/>
          <path id="Trazado_906821" data-name="Trazado 906821" d="M185.9,137.39a.3.3,0,0,0,.271-.068,2.525,2.525,0,0,1,2.059-.777.287.287,0,0,0,.345-.214v-.008h0a.306.306,0,0,0-.243-.346h0a3.062,3.062,0,0,0-2.578.938.3.3,0,0,0,0,.424.285.285,0,0,0,.147.052Z" transform="translate(-123.89 -121.764)" fill="#344154"/>
        </g>
        <g id="Grupo_1115953" data-name="Grupo 1115953" transform="translate(6.102 7.494)">
          <path id="Trazado_906822" data-name="Trazado 906822" d="M905.082,3107.2l11.458-1.755a35.1,35.1,0,1,0-9.092-8.685h0Z" transform="translate(-900.63 -3040.977)" fill="#6595bf"/>
          <path id="Trazado_906823" data-name="Trazado 906823" d="M905.019,3107.163l.139-.657.433-1.973c.388-1.772.967-4.4,1.709-7.8a.073.073,0,0,1,.084-.06h0l-.1.1a34.707,34.707,0,0,1-6.706-21.406,39.62,39.62,0,0,1,.657-5.825,35.065,35.065,0,0,1,44.481-27.145,36.366,36.366,0,0,1,7.778,3.287l1.8,1.17.907.591c.3.2.566.439.848.657l1.7,1.379c.559.461,1.052.994,1.584,1.492a32.794,32.794,0,0,1,2.886,3.163l.348.4.309.435.6.874c.4.585.841,1.144,1.2,1.748s.691,1.223,1.039,1.833c.171.3.348.6.512.914l.422.967.848,1.9c.264.657.446,1.314.657,1.972a35.158,35.158,0,0,1-22.474,44.354q-1.36.445-2.752.778l-1.458.322-.723.162-.73.085c-.967.113-1.913.243-2.847.335a48.079,48.079,0,0,1-5.443-.053,34.943,34.943,0,0,1-16.3-5.68h.053l-8.54,1.257-2.183.322-.73.1.756-.132,2.2-.348,8.5-1.314h.047a35.288,35.288,0,0,0,6.928,3.518,34.745,34.745,0,0,0,9.315,2.077,45.878,45.878,0,0,0,5.4.041c.926-.1,1.874-.224,2.833-.342l.723-.085.711-.161,1.45-.322a34.844,34.844,0,0,0,25.767-42q-.335-1.4-.786-2.77c-.224-.657-.414-1.315-.657-1.973l-.841-1.887-.421-.945c-.161-.3-.335-.6-.506-.907q-.512-.893-1.025-1.813c-.356-.6-.789-1.15-1.184-1.73l-.6-.862-.3-.433-.348-.4a32.869,32.869,0,0,0-2.911-3.137c-.525-.493-1.018-1.019-1.571-1.479l-1.676-1.315c-.284-.216-.553-.454-.841-.657l-.9-.585-1.782-1.157a36.248,36.248,0,0,0-7.692-3.289,34.53,34.53,0,0,0-29.933,4.9,35,35,0,0,0-9.611,10.151,34.632,34.632,0,0,0-4.6,11.833,39.008,39.008,0,0,0-.658,5.787,34.655,34.655,0,0,0,.29,5.416,35.08,35.08,0,0,0,6.384,15.851.078.078,0,0,1,0,.105.071.071,0,0,1-.085,0h0l.111-.039c-.775,3.384-1.374,5.975-1.782,7.744-.2.874-.361,1.543-.467,2.006a2.8,2.8,0,0,1-.232.661Z" transform="translate(-900.567 -3040.932)" fill="#5e6178"/>
          <g id="Grupo_1115952" data-name="Grupo 1115952" transform="translate(16.157 9.344)">
            <path id="Trazado_906824" data-name="Trazado 906824" d="M925.16,3064.35a8.77,8.77,0,0,1,2.652-6.628,9.611,9.611,0,0,1,6.948-2.544,9.765,9.765,0,0,1,7.009,2.513,8.939,8.939,0,0,1,2.652,6.812v2.194a8.659,8.659,0,0,1-2.652,6.606,10.945,10.945,0,0,1-13.941-.014,8.864,8.864,0,0,1-2.667-6.78Zm5.85,2.346a4.106,4.106,0,0,0,1.051,2.941,3.62,3.62,0,0,0,2.758,1.113,3.455,3.455,0,0,0,2.712-1.128,4.368,4.368,0,0,0,1.005-3.019v-2.255a4.278,4.278,0,0,0-1.005-2.957,3.917,3.917,0,0,0-5.479-.015,4.361,4.361,0,0,0-1.036,3.092Zm5.546,30.168-4.3-2.315,21.667-34.679,4.3,2.317Zm9.813-7.557a8.659,8.659,0,0,1,2.681-6.627,9.742,9.742,0,0,1,6.948-2.515,9.853,9.853,0,0,1,6.993,2.484,8.891,8.891,0,0,1,2.667,6.841v2.2a8.727,8.727,0,0,1-2.62,6.6,9.67,9.67,0,0,1-6.978,2.514,9.773,9.773,0,0,1-7.04-2.529,8.838,8.838,0,0,1-2.652-6.705Zm5.851,2.376a4.074,4.074,0,0,0,1.1,2.865,3.577,3.577,0,0,0,2.74,1.188q3.717,0,3.717-4.113v-2.315a4.149,4.149,0,0,0-1.036-2.941,3.939,3.939,0,0,0-5.478,0,4.278,4.278,0,0,0-1.036,3.032Z" transform="translate(-925.151 -3055.167)" fill="#f2e9e4"/>
          </g>
        </g>
        <g id="Grupo_1115977" data-name="Grupo 1115977" transform="translate(272.07 38.077)">
          <g id="Grupo_1115975" data-name="Grupo 1115975" transform="matrix(0.94, 0.342, -0.342, 0.94, 21.216, 0)">
            <g id="Grupo_1115974" data-name="Grupo 1115974" transform="translate(0 0)">
              <g id="Grupo_1115969" data-name="Grupo 1115969">
                <g id="Grupo_1115955" data-name="Grupo 1115955" transform="translate(0 0)">
                  <g id="Grupo_1115954" data-name="Grupo 1115954">
                    <path id="Trazado_906825" data-name="Trazado 906825" d="M61.64,26.138A31.011,31.011,0,1,1,26.142.39a31.011,31.011,0,0,1,35.5,25.748Z" fill="#fd9826"/>
                  </g>
                </g>
                <g id="Grupo_1115957" data-name="Grupo 1115957" transform="translate(0 0.39)" opacity="0.1">
                  <g id="Grupo_1115956" data-name="Grupo 1115956" transform="translate(0 0)">
                    <path id="Trazado_906826" data-name="Trazado 906826" d="M26.142,0A31,31,0,0,0,.391,35.5s21.673-2.467,25.471-11.952S26.142,0,26.142,0Z" fill="#fff"/>
                  </g>
                </g>
                <g id="Grupo_1115959" data-name="Grupo 1115959" transform="translate(6.877 7.028)">
                  <g id="Grupo_1115958" data-name="Grupo 1115958" transform="translate(0 0)">
                    <path id="Trazado_906827" data-name="Trazado 906827" d="M46.857,19.872A23.573,23.573,0,1,1,19.871.3,23.573,23.573,0,0,1,46.857,19.872Z" fill="#636363"/>
                  </g>
                </g>
                <g id="Grupo_1115961" data-name="Grupo 1115961" transform="translate(8.316 8.161)">
                  <g id="Grupo_1115960" data-name="Grupo 1115960" transform="translate(0 0)">
                    <path id="Trazado_906828" data-name="Trazado 906828" d="M46.231,19.6A23.259,23.259,0,1,1,19.607.293,23.259,23.259,0,0,1,46.231,19.6Z" fill="#fed401"/>
                  </g>
                </g>
                <g id="Grupo_1115968" data-name="Grupo 1115968" transform="translate(21.428 16.375)">
                  <g id="Grupo_1115963" data-name="Grupo 1115963" transform="translate(1.115 0)">
                    <g id="Grupo_1115962" data-name="Grupo 1115962" transform="translate(0)">
                      <path id="Trazado_906829" data-name="Trazado 906829" d="M9.632,12.91,8.7,7.033h.031a12.22,12.22,0,0,1,3.253.322,9.874,9.874,0,0,1,1.611.69l.052-.193.57-2.256.129-.52-1.223-.935-.467.308a11.194,11.194,0,0,0-4.462-.566L7.68.645,6.553,0l.129.806L5.294,1.03l.524,3.292C1.347,5.478-.4,8.416.075,11.385.72,15.431,4.353,15.927,7.708,16.2l.928,5.823a11.279,11.279,0,0,1-6.174-1.289l-.851,3.153a12.906,12.906,0,0,0,7.518,1.281l.388,2.439-1.128.2,1.258.59,2.386-.38-.517-3.263c4.5-1.192,6.271-4.1,5.8-7.072C16.675,13.639,12.988,13.182,9.632,12.91Zm-2.485-.232c-1.772-.226-3.121-.669-3.343-2.067-.2-1.279.5-2.467,2.518-3.118ZM8.7,7.027Zm2.311,14.564-.819-5.156c1.826.218,3.214.683,3.44,2.109C13.832,19.793,13.086,20.926,11.011,21.591Z" fill="#d9a171"/>
                    </g>
                  </g>
                  <g id="Grupo_1115965" data-name="Grupo 1115965" transform="translate(1.115 0)" opacity="0.3">
                    <g id="Grupo_1115964" data-name="Grupo 1115964" transform="translate(0)">
                      <path id="Trazado_906830" data-name="Trazado 906830" d="M9.632,12.91,8.7,7.033h.031a12.22,12.22,0,0,1,3.253.322,9.874,9.874,0,0,1,1.611.69l.052-.193.57-2.256.129-.52-1.223-.935-.467.308a11.194,11.194,0,0,0-4.462-.566L7.68.645,6.553,0l.129.806L5.294,1.03l.524,3.292C1.347,5.478-.4,8.416.075,11.385.72,15.431,4.353,15.927,7.708,16.2l.928,5.823a11.279,11.279,0,0,1-6.174-1.289l-.851,3.153a12.906,12.906,0,0,0,7.518,1.281l.388,2.439-1.128.2,1.258.59,2.386-.38-.517-3.263c4.5-1.192,6.271-4.1,5.8-7.072C16.675,13.639,12.988,13.182,9.632,12.91Zm-2.485-.232c-1.772-.226-3.121-.669-3.343-2.067-.2-1.279.5-2.467,2.518-3.118ZM8.7,7.027Zm2.311,14.564-.819-5.156c1.826.218,3.214.683,3.44,2.109C13.832,19.793,13.086,20.926,11.011,21.591Z" fill="#d9a171"/>
                    </g>
                  </g>
                  <g id="Grupo_1115967" data-name="Grupo 1115967" transform="translate(0 0.006)">
                    <g id="Grupo_1115966" data-name="Grupo 1115966" transform="translate(0 0)">
                      <path id="Trazado_906831" data-name="Trazado 906831" d="M11.519,24.113l.519,3.26-2.386.382-.516-3.232a12.922,12.922,0,0,1-7.525-1.283l.839-3.148A11.322,11.322,0,0,0,8.628,21.38l-.92-5.828C4.35,15.281.72,14.783.075,10.736-.4,7.765,1.343,4.834,5.816,3.672L5.291.383,7.681,0,8.2,3.232a12.615,12.615,0,0,1,6.194.838L13.663,7.2A12.228,12.228,0,0,0,8.7,6.377l.936,5.883c3.358.271,7.043.732,7.687,4.777C17.793,20.007,16.016,22.916,11.519,24.113ZM7.147,12.028,6.322,6.846C4.307,7.491,3.6,8.68,3.8,9.964,4.028,11.361,5.38,11.8,7.147,12.028Zm6.485,5.857c-.226-1.424-1.611-1.892-3.44-2.109l.82,5.156C13.088,20.278,13.834,19.145,13.633,17.885Z" fill="#d9a171"/>
                    </g>
                  </g>
                </g>
              </g>
              <g id="Grupo_1115971" data-name="Grupo 1115971" transform="translate(22.066 23.555)">
                <g id="Grupo_1115970" data-name="Grupo 1115970" transform="translate(0 0)">
                  <path id="Trazado_906832" data-name="Trazado 906832" d="M1.814,5.681a1.98,1.98,0,0,1-.783-.566A3.728,3.728,0,0,1,.025,3.021,3.706,3.706,0,0,1,.494.74,1.956,1.956,0,0,1,1.118,0C1.148.027.9.3.644.814A3.9,3.9,0,0,0,.259,2.989a3.943,3.943,0,0,0,.893,2.019C1.529,5.448,1.838,5.649,1.814,5.681Z" fill="#fff"/>
                </g>
              </g>
              <g id="Grupo_1115973" data-name="Grupo 1115973" transform="translate(27.317 17.577)">
                <g id="Grupo_1115972" data-name="Grupo 1115972" transform="translate(0 0)">
                  <path id="Trazado_906833" data-name="Trazado 906833" d="M.343,1.916A2.145,2.145,0,0,1,.078.976,2.138,2.138,0,0,1,.038,0,2.146,2.146,0,0,1,.307.939,2.116,2.116,0,0,1,.343,1.916Z" fill="#fff"/>
                </g>
              </g>
            </g>
          </g>
          <g id="Grupo_1115976" data-name="Grupo 1115976" transform="translate(50.871 39.75)">
            <path id="Trazado_906834" data-name="Trazado 906834" d="M392.878,2570.726a1.459,1.459,0,0,1-1.458-1.459v-18.126a1.458,1.458,0,0,1,1.458-1.45h3.513l-7.745-9.143-7.749,9.143h3.513a1.457,1.457,0,0,1,1.45,1.449v18.127a1.457,1.457,0,1,1-2.915,0V2552.6h-5.188a1.45,1.45,0,0,1-1.112-2.4l10.894-12.854a1.449,1.449,0,0,1,1.112-.518h0a1.45,1.45,0,0,1,1.112.518l10.89,12.854a1.45,1.45,0,0,1-1.113,2.4h-5.2v16.668a1.458,1.458,0,0,1-1.458,1.458Z" transform="translate(-376.29 -2536.828)" fill="#344154"/>
          </g>
        </g>
        <g id="Grupo_1115981" data-name="Grupo 1115981" transform="translate(86.015 0)">
          <path id="Trazado_906835" data-name="Trazado 906835" d="M634.576,107.217A38.671,38.671,0,1,1,590.749,74.6a38.671,38.671,0,0,1,43.827,32.619Z" transform="translate(-557.644 -74.184)" fill="#fd9826"/>
          <g id="Grupo_1115978" data-name="Grupo 1115978" transform="translate(9.195 9.175)">
            <path id="Trazado_906836" data-name="Trazado 906836" d="M621.978,105.05a29.47,29.47,0,1,1-33.394-24.859,29.47,29.47,0,0,1,33.394,24.859Z" transform="translate(-563.35 -79.876)" fill="#fed401"/>
          </g>
          <g id="Grupo_1115979" data-name="Grupo 1115979" transform="translate(8.648 8.073)">
            <path id="Trazado_906837" data-name="Trazado 906837" d="M622.047,104.565a17.5,17.5,0,0,1-1.279-3.4,31.286,31.286,0,0,0-4.663-8.45,30.111,30.111,0,0,0-4.632-4.739A29.545,29.545,0,0,0,605.027,84a28.849,28.849,0,0,0-32.13,5.7,29.6,29.6,0,0,0-4.673,5.962,30.18,30.18,0,0,0-2.717,6.042,31.249,31.249,0,0,0-1.466,9.537,17.284,17.284,0,0,1-.034,3.629,8.671,8.671,0,0,1-.844-3.582,27.23,27.23,0,0,1,.806-10.03,29.515,29.515,0,0,1,7.449-13.016,30.1,30.1,0,0,1,21.141-9.047,30.275,30.275,0,0,1,4.757.313,28.967,28.967,0,0,1,4.483,1.012,28.488,28.488,0,0,1,4.1,1.6,29.53,29.53,0,0,1,11.495,9.655,27.306,27.306,0,0,1,4.218,9.139A8.659,8.659,0,0,1,622.047,104.565Z" transform="translate(-563.011 -79.192)" fill="#e0e0e0"/>
          </g>
          <g id="Grupo_1115980" data-name="Grupo 1115980" transform="translate(25.571 18.032)">
            <path id="Trazado_906838" data-name="Trazado 906838" d="M592.427,122.851l.806,5.069-4.526.723-.789-4.932a21.735,21.735,0,0,1-11.848-1.816l1.611-5.92a18.529,18.529,0,0,0,9.3,1.806l-1.21-7.559c-5.219-.416-11.1-1.191-12.135-7.663-.767-4.8,2.058-9.474,9.078-11.44l-.806-5.026,4.526-.723.789,4.934a20.714,20.714,0,0,1,9.629,1.289l-1.371,5.929a18.763,18.763,0,0,0-7.3-1.246l1.233,7.7c5.211.371,11,1.163,12.022,7.542C602.175,116.23,599.394,120.855,592.427,122.851Zm-7.734-19.281-1.031-6.426c-2.311.926-3.05,2.391-2.812,3.886.259,1.582,1.756,2.227,3.849,2.541Zm9.531,9.668c-.255-1.584-1.7-2.232-3.759-2.6l1,6.245c2.191-.864,3-2.2,2.767-3.65Z" transform="translate(-573.509 -85.371)" fill="#e0e0e0"/>
          </g>
        </g>
      </g>
    </g>
  </g>
</svg>
