<svg xmlns="http://www.w3.org/2000/svg" xmlns:xlink="http://www.w3.org/1999/xlink" width="505" height="397" viewBox="0 0 505 397">
  <defs>
    <clipPath id="clip-path">
      <path id="Trazado_908970" data-name="Trazado 908970" d="M144.26,414.267s35.7,1.586,64.354-2.5l-.92-13.959-60.2-5.754Z" transform="translate(-144.26 -392.05)" fill="none"/>
    </clipPath>
    <clipPath id="clip-path-2">
      <path id="Trazado_908974" data-name="Trazado 908974" d="M208.877,384.53s-47.51,20.969-64.6,26.662l3.221-22.243,47.917-19.826Z" transform="translate(-144.28 -369.124)" fill="none"/>
    </clipPath>
    <clipPath id="clip-path-3">
      <path id="Trazado_908978" data-name="Trazado 908978" d="M164.433,385.745l45.994-1.923-9.154-19.981-45.262.242Z" transform="translate(-156.01 -363.84)" fill="none"/>
    </clipPath>
    <clipPath id="clip-path-4">
      <path id="Trazado_908992" data-name="Trazado 908992" d="M276.91,161.907s.866-4.5,2.764-4.153,1.733,3.8.693,6.23a22.725,22.725,0,0,1-1.387,2.938Z" transform="translate(-276.91 -157.735)" fill="none"/>
    </clipPath>
    <clipPath id="clip-path-5">
      <path id="Trazado_908996" data-name="Trazado 908996" d="M249.819,170.2s-2.764-2.6-3.284,1.04,5.364,4.332,5.364,4.332Z" transform="translate(-246.503 -169.302)" fill="none"/>
    </clipPath>
    <clipPath id="clip-path-6">
      <path id="Trazado_909009" data-name="Trazado 909009" d="M222.217,228.79s-2.409,26.965-12.278,53.939S156,346.052,156,346.052l8.423,21.662s31.54-23.829,46.47-58.982,15.415-79.215,15.415-79.215Z" transform="translate(-156 -228.79)" fill="none"/>
    </clipPath>
    <clipPath id="clip-path-7">
      <path id="Trazado_909017" data-name="Trazado 909017" d="M251,177.819s2.6,0,3.111-.685,3.64-4.332,3.814-5.025,0-1.387-1.906-.693a4.068,4.068,0,0,0-2.426,2.426l-2.417.17Z" transform="translate(-251 -171.128)" fill="none"/>
    </clipPath>
  </defs>
  <g id="Grupo_1118227" data-name="Grupo 1118227" transform="translate(-180 -6194)">
    <g id="Grupo_1117625" data-name="Grupo 1117625" transform="translate(180 6194)">
      <rect id="Rectángulo_405611" data-name="Rectángulo 405611" width="505" height="397" fill="#dcecf7"/>
    </g>
    <g id="rece" transform="translate(202.992 6161.765)">
      <g id="Grupo_1117626" data-name="Grupo 1117626" transform="translate(47.469 90.505)">
        <path id="Trazado_908908" data-name="Trazado 908908" d="M369.787,141.335S347.6,99.613,298.562,93.445s-83.253,23.941-119.324,39.364c-18.89,8.093-40.474,4.947-60.524,8.864-64.121,12.5-88.287,90.98-61.521,135.543,23.118,38.619,63.825,58.7,125.8,63.341s105.418,10.069,160.916-27.814S395.687,196.175,369.787,141.335Z" transform="translate(-46.435 -92.624)" fill="#d9a171"/>
        <path id="Trazado_908909" data-name="Trazado 908909" d="M369.787,141.335S347.6,99.613,298.562,93.445s-83.253,23.941-119.324,39.364c-18.89,8.093-40.474,4.947-60.524,8.864-64.121,12.5-88.287,90.98-61.521,135.543,23.118,38.619,63.825,58.7,125.8,63.341s105.418,10.069,160.916-27.814S395.687,196.175,369.787,141.335Z" transform="translate(-46.435 -92.624)" fill="#bce0fc" opacity="0.85"/>
      </g>
      <g id="Grupo_1117627" data-name="Grupo 1117627" transform="translate(79.074 67.235)">
        <path id="Trazado_908910" data-name="Trazado 908910" d="M103.319,92.51,101.56,78.793l3.17,11.6V70.7l2.105,15.129,2.114-10.207v9.852l1.057-19.7,1.048,20.059,3.874-8.8-1.757,10.909,4.22-4.577-5.979,10.91Z" transform="translate(-85.4 -65.77)" fill="#d9a171"/>
        <path id="Trazado_908911" data-name="Trazado 908911" d="M103.319,92.51,101.56,78.793l3.17,11.6V70.7l2.105,15.129,2.114-10.207v9.852l1.057-19.7,1.048,20.059,3.874-8.8-1.757,10.909,4.22-4.577-5.979,10.91Z" transform="translate(-85.4 -65.77)" fill="#fff" opacity="0.7"/>
        <path id="Trazado_908912" data-name="Trazado 908912" d="M114.486,110.955H102.755L101.29,93.2h14.664Z" transform="translate(-85.363 -69.432)" fill="#d9a171"/>
        <path id="Trazado_908913" data-name="Trazado 908913" d="M165.236,93.69l7.642,17.72H161.761l-3.821-7.3Z" transform="translate(-92.927 -69.498)" fill="#d9a171"/>
        <path id="Trazado_908914" data-name="Trazado 908914" d="M166.663,80.46H146.855L135.14,110h19.8Z" transform="translate(-89.883 -67.732)" fill="#d9a171"/>
        <path id="Trazado_908915" data-name="Trazado 908915" d="M163.209,84.87H148.531l-8.691,21.888h14.687Z" transform="translate(-90.511 -68.32)" fill="#fff"/>
        <rect id="Rectángulo_406122" data-name="Rectángulo 406122" width="281.8" height="225.868" transform="translate(6.706 47.414)" fill="#344154"/>
        <rect id="Rectángulo_406123" data-name="Rectángulo 406123" width="281.8" height="225.868" transform="translate(6.706 47.414)" fill="#fff" opacity="0.75"/>
        <rect id="Rectángulo_406124" data-name="Rectángulo 406124" width="13.128" height="39.919" transform="translate(14.575 51.522)" fill="#d9a171"/>
        <rect id="Rectángulo_406125" data-name="Rectángulo 406125" width="11.36" height="2.452" transform="translate(15.432 53.87)" fill="#fff"/>
        <rect id="Rectángulo_406126" data-name="Rectángulo 406126" width="11.36" height="2.452" transform="translate(15.432 85.878)" fill="#fff"/>
        <rect id="Rectángulo_406127" data-name="Rectángulo 406127" width="13.128" height="39.919" transform="translate(28.542 51.522)" fill="#d9a171"/>
        <rect id="Rectángulo_406128" data-name="Rectángulo 406128" width="11.36" height="2.452" transform="translate(29.4 53.87)" fill="#fff"/>
        <rect id="Rectángulo_406129" data-name="Rectángulo 406129" width="11.36" height="2.452" transform="translate(29.4 85.878)" fill="#fff"/>
        <rect id="Rectángulo_406130" data-name="Rectángulo 406130" width="13.128" height="39.919" transform="translate(42.51 51.522)" fill="#d9a171"/>
        <rect id="Rectángulo_406131" data-name="Rectángulo 406131" width="11.36" height="2.452" transform="translate(43.368 53.87)" fill="#fff"/>
        <rect id="Rectángulo_406132" data-name="Rectángulo 406132" width="11.36" height="2.452" transform="translate(43.368 85.878)" fill="#fff"/>
        <rect id="Rectángulo_406133" data-name="Rectángulo 406133" width="13.128" height="39.919" transform="translate(56.478 51.522)" fill="#d9a171"/>
        <rect id="Rectángulo_406134" data-name="Rectángulo 406134" width="11.36" height="2.452" transform="translate(57.335 53.87)" fill="#fff"/>
        <rect id="Rectángulo_406135" data-name="Rectángulo 406135" width="11.36" height="2.452" transform="translate(57.335 85.878)" fill="#fff"/>
        <rect id="Rectángulo_406136" data-name="Rectángulo 406136" width="13.128" height="39.919" transform="translate(70.437 51.522)" fill="#d9a171"/>
        <rect id="Rectángulo_406137" data-name="Rectángulo 406137" width="11.36" height="2.452" transform="translate(71.295 53.87)" fill="#fff"/>
        <rect id="Rectángulo_406138" data-name="Rectángulo 406138" width="11.36" height="2.452" transform="translate(71.295 85.878)" fill="#fff"/>
        <rect id="Rectángulo_406139" data-name="Rectángulo 406139" width="13.128" height="39.919" transform="translate(84.405 51.522)" fill="#d9a171"/>
        <rect id="Rectángulo_406140" data-name="Rectángulo 406140" width="11.36" height="2.452" transform="translate(85.262 53.87)" fill="#fff"/>
        <rect id="Rectángulo_406141" data-name="Rectángulo 406141" width="11.36" height="2.452" transform="translate(85.262 85.878)" fill="#fff"/>
        <rect id="Rectángulo_406142" data-name="Rectángulo 406142" width="13.128" height="39.919" transform="translate(89.725 93.486)" fill="#d9a171"/>
        <rect id="Rectángulo_406143" data-name="Rectángulo 406143" width="11.36" height="2.452" transform="translate(90.583 95.825)" fill="#fff"/>
        <rect id="Rectángulo_406144" data-name="Rectángulo 406144" width="11.36" height="2.452" transform="translate(90.583 127.842)" fill="#fff"/>
        <rect id="Rectángulo_406145" data-name="Rectángulo 406145" width="13.128" height="39.919" transform="translate(103.684 93.486)" fill="#d9a171"/>
        <rect id="Rectángulo_406146" data-name="Rectángulo 406146" width="11.36" height="2.452" transform="translate(104.55 95.825)" fill="#fff"/>
        <rect id="Rectángulo_406147" data-name="Rectángulo 406147" width="11.36" height="2.452" transform="translate(104.55 127.842)" fill="#fff"/>
        <rect id="Rectángulo_406148" data-name="Rectángulo 406148" width="13.128" height="39.919" transform="translate(117.652 93.486)" fill="#d9a171"/>
        <rect id="Rectángulo_406149" data-name="Rectángulo 406149" width="11.36" height="2.452" transform="translate(118.51 95.825)" fill="#fff"/>
        <rect id="Rectángulo_406150" data-name="Rectángulo 406150" width="11.36" height="2.452" transform="translate(118.51 127.842)" fill="#fff"/>
        <rect id="Rectángulo_406151" data-name="Rectángulo 406151" width="13.128" height="39.919" transform="translate(131.62 93.486)" fill="#d9a171"/>
        <rect id="Rectángulo_406152" data-name="Rectángulo 406152" width="11.36" height="2.452" transform="translate(132.477 95.825)" fill="#fff"/>
        <rect id="Rectángulo_406153" data-name="Rectángulo 406153" width="11.36" height="2.452" transform="translate(132.477 127.842)" fill="#fff"/>
        <rect id="Rectángulo_406154" data-name="Rectángulo 406154" width="13.128" height="39.919" transform="translate(145.588 93.486)" fill="#d9a171"/>
        <rect id="Rectángulo_406155" data-name="Rectángulo 406155" width="11.36" height="2.452" transform="translate(146.446 95.825)" fill="#fff"/>
        <rect id="Rectángulo_406156" data-name="Rectángulo 406156" width="11.36" height="2.452" transform="translate(146.446 127.842)" fill="#fff"/>
        <rect id="Rectángulo_406157" data-name="Rectángulo 406157" width="13.128" height="39.919" transform="translate(159.546 93.486)" fill="#d9a171"/>
        <rect id="Rectángulo_406158" data-name="Rectángulo 406158" width="11.36" height="2.452" transform="translate(160.414 95.825)" fill="#fff"/>
        <rect id="Rectángulo_406159" data-name="Rectángulo 406159" width="11.36" height="2.452" transform="translate(160.414 127.842)" fill="#fff"/>
        <rect id="Rectángulo_406160" data-name="Rectángulo 406160" width="13.128" height="39.919" transform="translate(190.507 93.486)" fill="#d9a171"/>
        <rect id="Rectángulo_406161" data-name="Rectángulo 406161" width="11.36" height="2.452" transform="translate(191.365 95.825)" fill="#fff"/>
        <rect id="Rectángulo_406162" data-name="Rectángulo 406162" width="11.36" height="2.452" transform="translate(191.365 127.842)" fill="#fff"/>
        <rect id="Rectángulo_406163" data-name="Rectángulo 406163" width="13.128" height="39.919" transform="translate(204.475 93.486)" fill="#d9a171"/>
        <rect id="Rectángulo_406164" data-name="Rectángulo 406164" width="11.36" height="2.452" transform="translate(205.332 95.825)" fill="#fff"/>
        <rect id="Rectángulo_406165" data-name="Rectángulo 406165" width="11.36" height="2.452" transform="translate(205.332 127.842)" fill="#fff"/>
        <rect id="Rectángulo_406166" data-name="Rectángulo 406166" width="13.128" height="39.919" transform="translate(218.434 93.486)" fill="#d9a171"/>
        <rect id="Rectángulo_406167" data-name="Rectángulo 406167" width="11.36" height="2.452" transform="translate(219.292 95.825)" fill="#fff"/>
        <rect id="Rectángulo_406168" data-name="Rectángulo 406168" width="11.36" height="2.452" transform="translate(219.292 127.842)" fill="#fff"/>
        <rect id="Rectángulo_406169" data-name="Rectángulo 406169" width="13.128" height="39.919" transform="translate(232.402 93.486)" fill="#d9a171"/>
        <rect id="Rectángulo_406170" data-name="Rectángulo 406170" width="11.36" height="2.452" transform="translate(233.259 95.825)" fill="#fff"/>
        <rect id="Rectángulo_406171" data-name="Rectángulo 406171" width="11.36" height="2.452" transform="translate(233.259 127.842)" fill="#fff"/>
        <rect id="Rectángulo_406172" data-name="Rectángulo 406172" width="13.128" height="39.919" transform="translate(246.369 93.486)" fill="#d9a171"/>
        <rect id="Rectángulo_406173" data-name="Rectángulo 406173" width="11.36" height="2.452" transform="translate(247.227 95.825)" fill="#fff"/>
        <rect id="Rectángulo_406174" data-name="Rectángulo 406174" width="11.36" height="2.452" transform="translate(247.227 127.842)" fill="#fff"/>
        <path id="Trazado_908916" data-name="Trazado 908916" d="M395.687,217.322,383.27,213.37l13.881-37.77,12.425,3.96Z" transform="translate(-123.011 -80.433)" fill="#d9a171"/>
        <path id="Trazado_908917" data-name="Trazado 908917" d="M409.044,184.205,398.3,180.782l.858-2.322,10.744,3.423Z" transform="translate(-125.018 -80.815)" fill="#fff"/>
        <path id="Trazado_908918" data-name="Trazado 908918" d="M396.194,219.156l-10.744-3.423.858-2.313,10.744,3.423Z" transform="translate(-123.302 -85.482)" fill="#fff"/>
        <path id="Trazado_908919" data-name="Trazado 908919" d="M345.045,357.452l-12.425-3.96L346.5,315.73l12.426,3.952Z" transform="translate(-116.248 -99.142)" fill="#d9a171"/>
        <path id="Trazado_908920" data-name="Trazado 908920" d="M358.394,324.326,347.65,320.9l.858-2.313L359.252,322Z" transform="translate(-118.256 -99.524)" fill="#fff"/>
        <path id="Trazado_908921" data-name="Trazado 908921" d="M345.544,359.285,334.8,355.862l.858-2.322,10.744,3.423Z" transform="translate(-116.54 -104.19)" fill="#fff"/>
        <rect id="Rectángulo_406175" data-name="Rectángulo 406175" width="13.128" height="39.919" transform="translate(98.372 51.522)" fill="#d9a171"/>
        <rect id="Rectángulo_406176" data-name="Rectángulo 406176" width="11.36" height="2.452" transform="translate(99.231 53.87)" fill="#fff"/>
        <rect id="Rectángulo_406177" data-name="Rectángulo 406177" width="11.36" height="2.452" transform="translate(99.231 85.878)" fill="#fff"/>
        <rect id="Rectángulo_406178" data-name="Rectángulo 406178" width="13.128" height="39.919" transform="translate(13.249 136.264)" fill="#d9a171"/>
        <rect id="Rectángulo_406179" data-name="Rectángulo 406179" width="11.36" height="2.452" transform="translate(14.107 138.612)" fill="#fff"/>
        <rect id="Rectángulo_406180" data-name="Rectángulo 406180" width="11.36" height="2.452" transform="translate(14.107 170.62)" fill="#fff"/>
        <rect id="Rectángulo_406181" data-name="Rectángulo 406181" width="13.128" height="39.919" transform="translate(27.217 136.264)" fill="#d9a171"/>
        <rect id="Rectángulo_406182" data-name="Rectángulo 406182" width="11.36" height="2.452" transform="translate(28.074 138.612)" fill="#fff"/>
        <rect id="Rectángulo_406183" data-name="Rectángulo 406183" width="11.36" height="2.452" transform="translate(28.074 170.62)" fill="#fff"/>
        <rect id="Rectángulo_406184" data-name="Rectángulo 406184" width="13.128" height="39.919" transform="translate(41.184 136.264)" fill="#d9a171"/>
        <rect id="Rectángulo_406185" data-name="Rectángulo 406185" width="11.36" height="2.452" transform="translate(42.042 138.612)" fill="#fff"/>
        <rect id="Rectángulo_406186" data-name="Rectángulo 406186" width="11.36" height="2.452" transform="translate(42.042 170.62)" fill="#fff"/>
        <rect id="Rectángulo_406187" data-name="Rectángulo 406187" width="13.128" height="39.919" transform="translate(55.152 136.264)" fill="#d9a171"/>
        <rect id="Rectángulo_406188" data-name="Rectángulo 406188" width="11.36" height="2.452" transform="translate(56.01 138.612)" fill="#fff"/>
        <rect id="Rectángulo_406189" data-name="Rectángulo 406189" width="11.36" height="2.452" transform="translate(56.01 170.62)" fill="#fff"/>
        <rect id="Rectángulo_406190" data-name="Rectángulo 406190" width="13.128" height="39.919" transform="translate(69.111 136.264)" fill="#d9a171"/>
        <rect id="Rectángulo_406191" data-name="Rectángulo 406191" width="11.36" height="2.452" transform="translate(69.969 138.612)" fill="#fff"/>
        <rect id="Rectángulo_406192" data-name="Rectángulo 406192" width="11.36" height="2.452" transform="translate(69.969 170.62)" fill="#fff"/>
        <rect id="Rectángulo_406193" data-name="Rectángulo 406193" width="13.128" height="39.919" transform="translate(56.131 219.36)" fill="#d9a171"/>
        <rect id="Rectángulo_406194" data-name="Rectángulo 406194" width="11.36" height="2.452" transform="translate(56.989 221.709)" fill="#fff"/>
        <rect id="Rectángulo_406195" data-name="Rectángulo 406195" width="11.36" height="2.452" transform="translate(56.989 253.726)" fill="#fff"/>
        <rect id="Rectángulo_406196" data-name="Rectángulo 406196" width="13.128" height="39.919" transform="translate(70.09 219.36)" fill="#d9a171"/>
        <rect id="Rectángulo_406197" data-name="Rectángulo 406197" width="11.36" height="2.452" transform="translate(70.948 221.709)" fill="#fff"/>
        <rect id="Rectángulo_406198" data-name="Rectángulo 406198" width="11.36" height="2.452" transform="translate(70.948 253.726)" fill="#fff"/>
        <rect id="Rectángulo_406199" data-name="Rectángulo 406199" width="13.128" height="39.919" transform="translate(84.058 219.36)" fill="#d9a171"/>
        <rect id="Rectángulo_406200" data-name="Rectángulo 406200" width="11.36" height="2.452" transform="translate(84.916 221.709)" fill="#fff"/>
        <rect id="Rectángulo_406201" data-name="Rectángulo 406201" width="11.36" height="2.452" transform="translate(84.916 253.726)" fill="#fff"/>
        <rect id="Rectángulo_406202" data-name="Rectángulo 406202" width="13.128" height="39.919" transform="translate(98.026 219.36)" fill="#d9a171"/>
        <rect id="Rectángulo_406203" data-name="Rectángulo 406203" width="11.36" height="2.452" transform="translate(98.884 221.709)" fill="#fff"/>
        <rect id="Rectángulo_406204" data-name="Rectángulo 406204" width="11.36" height="2.452" transform="translate(98.884 253.726)" fill="#fff"/>
        <rect id="Rectángulo_406205" data-name="Rectángulo 406205" width="13.128" height="39.919" transform="translate(111.994 219.36)" fill="#d9a171"/>
        <rect id="Rectángulo_406206" data-name="Rectángulo 406206" width="11.36" height="2.452" transform="translate(112.852 221.709)" fill="#fff"/>
        <rect id="Rectángulo_406207" data-name="Rectángulo 406207" width="11.36" height="2.452" transform="translate(112.852 253.726)" fill="#fff"/>
        <rect id="Rectángulo_406208" data-name="Rectángulo 406208" width="13.128" height="39.919" transform="translate(83.079 136.264)" fill="#d9a171"/>
        <rect id="Rectángulo_406209" data-name="Rectángulo 406209" width="11.36" height="2.452" transform="translate(83.937 138.612)" fill="#fff"/>
        <rect id="Rectángulo_406210" data-name="Rectángulo 406210" width="11.36" height="2.452" transform="translate(83.937 170.62)" fill="#fff"/>
        <rect id="Rectángulo_406211" data-name="Rectángulo 406211" width="13.128" height="39.919" transform="translate(97.047 136.264)" fill="#d9a171"/>
        <rect id="Rectángulo_406212" data-name="Rectángulo 406212" width="11.36" height="2.452" transform="translate(97.904 138.612)" fill="#fff"/>
        <rect id="Rectángulo_406213" data-name="Rectángulo 406213" width="11.36" height="2.452" transform="translate(97.904 170.62)" fill="#fff"/>
        <rect id="Rectángulo_406214" data-name="Rectángulo 406214" width="13.128" height="39.919" transform="translate(110.885 136.264)" fill="#d9a171"/>
        <rect id="Rectángulo_406215" data-name="Rectángulo 406215" width="11.36" height="2.452" transform="translate(111.742 138.612)" fill="#fff"/>
        <rect id="Rectángulo_406216" data-name="Rectángulo 406216" width="11.36" height="2.452" transform="translate(111.742 170.62)" fill="#fff"/>
        <rect id="Rectángulo_406217" data-name="Rectángulo 406217" width="13.128" height="39.919" transform="translate(124.723 136.264)" fill="#d9a171"/>
        <rect id="Rectángulo_406218" data-name="Rectángulo 406218" width="11.36" height="2.452" transform="translate(125.58 138.612)" fill="#fff"/>
        <rect id="Rectángulo_406219" data-name="Rectángulo 406219" width="11.36" height="2.452" transform="translate(125.58 170.62)" fill="#fff"/>
        <path id="Trazado_908922" data-name="Trazado 908922" d="M280.734,260.21l-12.573,3.509L255.84,225.492l12.573-3.509Z" transform="translate(-105.998 -86.626)" fill="#d9a171"/>
        <path id="Trazado_908923" data-name="Trazado 908923" d="M269.257,227.2l-10.883,3.041-.754-2.348,10.875-3.041Z" transform="translate(-106.235 -87.009)" fill="#fff"/>
        <path id="Trazado_908924" data-name="Trazado 908924" d="M280.658,262.588l-10.875,3.033-.754-2.348L279.9,260.24Z" transform="translate(-107.759 -91.733)" fill="#fff"/>
        <rect id="Rectángulo_406220" data-name="Rectángulo 406220" width="13.128" height="39.919" transform="translate(138.561 136.264)" fill="#d9a171"/>
        <rect id="Rectángulo_406221" data-name="Rectángulo 406221" width="11.36" height="2.452" transform="translate(139.418 138.612)" fill="#fff"/>
        <rect id="Rectángulo_406222" data-name="Rectángulo 406222" width="11.36" height="2.452" transform="translate(139.418 170.62)" fill="#fff"/>
        <rect id="Rectángulo_406223" data-name="Rectángulo 406223" width="13.128" height="39.919" transform="translate(54.805 177.812)" fill="#d9a171"/>
        <rect id="Rectángulo_406224" data-name="Rectángulo 406224" width="11.36" height="2.452" transform="translate(55.663 180.161)" fill="#fff"/>
        <rect id="Rectángulo_406225" data-name="Rectángulo 406225" width="11.36" height="2.452" transform="translate(55.663 212.169)" fill="#fff"/>
        <rect id="Rectángulo_406226" data-name="Rectángulo 406226" width="13.128" height="39.919" transform="translate(68.765 177.812)" fill="#d9a171"/>
        <rect id="Rectángulo_406227" data-name="Rectángulo 406227" width="11.36" height="2.452" transform="translate(69.622 180.161)" fill="#fff"/>
        <rect id="Rectángulo_406228" data-name="Rectángulo 406228" width="11.36" height="2.452" transform="translate(69.622 212.169)" fill="#fff"/>
        <rect id="Rectángulo_406229" data-name="Rectángulo 406229" width="13.128" height="39.919" transform="translate(82.732 177.812)" fill="#d9a171"/>
        <rect id="Rectángulo_406230" data-name="Rectángulo 406230" width="11.36" height="2.452" transform="translate(83.59 180.161)" fill="#fff"/>
        <rect id="Rectángulo_406231" data-name="Rectángulo 406231" width="11.36" height="2.452" transform="translate(83.59 212.169)" fill="#fff"/>
        <rect id="Rectángulo_406232" data-name="Rectángulo 406232" width="13.128" height="39.919" transform="translate(96.7 177.812)" fill="#d9a171"/>
        <rect id="Rectángulo_406233" data-name="Rectángulo 406233" width="11.36" height="2.452" transform="translate(97.559 180.161)" fill="#fff"/>
        <rect id="Rectángulo_406234" data-name="Rectángulo 406234" width="11.36" height="2.452" transform="translate(97.559 212.169)" fill="#fff"/>
        <rect id="Rectángulo_406235" data-name="Rectángulo 406235" width="13.128" height="39.919" transform="translate(110.668 177.812)" fill="#d9a171"/>
        <rect id="Rectángulo_406236" data-name="Rectángulo 406236" width="11.36" height="2.452" transform="translate(111.526 180.161)" fill="#fff"/>
        <rect id="Rectángulo_406237" data-name="Rectángulo 406237" width="11.36" height="2.452" transform="translate(111.526 212.169)" fill="#fff"/>
        <rect id="Rectángulo_406238" data-name="Rectángulo 406238" width="13.128" height="39.919" transform="translate(124.628 177.812)" fill="#d9a171"/>
        <rect id="Rectángulo_406239" data-name="Rectángulo 406239" width="11.36" height="2.452" transform="translate(125.485 180.161)" fill="#fff"/>
        <rect id="Rectángulo_406240" data-name="Rectángulo 406240" width="11.36" height="2.452" transform="translate(125.485 212.169)" fill="#fff"/>
        <rect id="Rectángulo_406241" data-name="Rectángulo 406241" width="13.128" height="39.919" transform="translate(138.595 177.812)" fill="#d9a171"/>
        <rect id="Rectángulo_406242" data-name="Rectángulo 406242" width="11.36" height="2.452" transform="translate(139.453 180.161)" fill="#fff"/>
        <rect id="Rectángulo_406243" data-name="Rectángulo 406243" width="11.36" height="2.452" transform="translate(139.453 212.169)" fill="#fff"/>
        <rect id="Rectángulo_406244" data-name="Rectángulo 406244" width="13.128" height="39.919" transform="translate(187.413 177.812)" fill="#d9a171"/>
        <rect id="Rectángulo_406245" data-name="Rectángulo 406245" width="11.36" height="2.452" transform="translate(188.271 180.161)" fill="#fff"/>
        <rect id="Rectángulo_406246" data-name="Rectángulo 406246" width="11.36" height="2.452" transform="translate(188.271 212.169)" fill="#fff"/>
        <rect id="Rectángulo_406247" data-name="Rectángulo 406247" width="13.128" height="39.919" transform="translate(201.372 177.812)" fill="#d9a171"/>
        <rect id="Rectángulo_406248" data-name="Rectángulo 406248" width="11.36" height="2.452" transform="translate(202.239 180.161)" fill="#fff"/>
        <rect id="Rectángulo_406249" data-name="Rectángulo 406249" width="11.36" height="2.452" transform="translate(202.239 212.169)" fill="#fff"/>
        <rect id="Rectángulo_406250" data-name="Rectángulo 406250" width="13.128" height="39.919" transform="translate(215.34 177.812)" fill="#d9a171"/>
        <rect id="Rectángulo_406251" data-name="Rectángulo 406251" width="11.36" height="2.452" transform="translate(216.198 180.161)" fill="#fff"/>
        <rect id="Rectángulo_406252" data-name="Rectángulo 406252" width="11.36" height="2.452" transform="translate(216.198 212.169)" fill="#fff"/>
        <rect id="Rectángulo_406253" data-name="Rectángulo 406253" width="13.128" height="39.919" transform="translate(229.308 177.812)" fill="#d9a171"/>
        <rect id="Rectángulo_406254" data-name="Rectángulo 406254" width="11.36" height="2.452" transform="translate(230.166 180.161)" fill="#fff"/>
        <rect id="Rectángulo_406255" data-name="Rectángulo 406255" width="11.36" height="2.452" transform="translate(230.166 212.169)" fill="#fff"/>
        <rect id="Rectángulo_406256" data-name="Rectángulo 406256" width="13.128" height="39.919" transform="translate(243.276 177.812)" fill="#d9a171"/>
        <rect id="Rectángulo_406257" data-name="Rectángulo 406257" width="11.36" height="2.452" transform="translate(244.133 180.161)" fill="#fff"/>
        <rect id="Rectángulo_406258" data-name="Rectángulo 406258" width="11.36" height="2.452" transform="translate(244.133 212.169)" fill="#fff"/>
        <rect id="Rectángulo_406259" data-name="Rectángulo 406259" width="13.128" height="39.919" transform="translate(257.235 177.812)" fill="#d9a171"/>
        <rect id="Rectángulo_406260" data-name="Rectángulo 406260" width="11.36" height="2.452" transform="translate(258.102 180.161)" fill="#fff"/>
        <rect id="Rectángulo_406261" data-name="Rectángulo 406261" width="11.36" height="2.452" transform="translate(258.102 212.169)" fill="#fff"/>
        <rect id="Rectángulo_406262" data-name="Rectángulo 406262" width="13.128" height="39.919" transform="translate(271.203 177.812)" fill="#d9a171"/>
        <rect id="Rectángulo_406263" data-name="Rectángulo 406263" width="11.36" height="2.452" transform="translate(272.061 180.161)" fill="#fff"/>
        <rect id="Rectángulo_406264" data-name="Rectángulo 406264" width="11.36" height="2.452" transform="translate(272.061 212.169)" fill="#fff"/>
        <rect id="Rectángulo_406265" data-name="Rectángulo 406265" width="13.128" height="39.919" transform="translate(118.856 51.522)" fill="#d9a171"/>
        <rect id="Rectángulo_406266" data-name="Rectángulo 406266" width="11.36" height="2.452" transform="translate(119.714 53.87)" fill="#fff"/>
        <rect id="Rectángulo_406267" data-name="Rectángulo 406267" width="11.36" height="2.452" transform="translate(119.714 85.878)" fill="#fff"/>
        <rect id="Rectángulo_406268" data-name="Rectángulo 406268" width="13.128" height="39.919" transform="translate(133.751 51.522)" fill="#d9a171"/>
        <rect id="Rectángulo_406269" data-name="Rectángulo 406269" width="11.36" height="2.452" transform="translate(134.609 53.87)" fill="#fff"/>
        <rect id="Rectángulo_406270" data-name="Rectángulo 406270" width="11.36" height="2.452" transform="translate(134.609 85.878)" fill="#fff"/>
        <rect id="Rectángulo_406271" data-name="Rectángulo 406271" width="13.128" height="39.919" transform="translate(148.646 51.522)" fill="#d9a171"/>
        <rect id="Rectángulo_406272" data-name="Rectángulo 406272" width="11.36" height="2.452" transform="translate(149.504 53.87)" fill="#fff"/>
        <rect id="Rectángulo_406273" data-name="Rectángulo 406273" width="11.36" height="2.452" transform="translate(149.504 85.878)" fill="#fff"/>
        <rect id="Rectángulo_406274" data-name="Rectángulo 406274" width="13.128" height="39.919" transform="translate(163.541 51.522)" fill="#d9a171"/>
        <rect id="Rectángulo_406275" data-name="Rectángulo 406275" width="11.36" height="2.452" transform="translate(164.399 53.87)" fill="#fff"/>
        <rect id="Rectángulo_406276" data-name="Rectángulo 406276" width="11.36" height="2.452" transform="translate(164.399 85.878)" fill="#fff"/>
        <path id="Trazado_908925" data-name="Trazado 908925" d="M163.839,213.252l-5.294,1.317-10.934-37.952,5.294-1.317Z" transform="translate(-91.548 -80.394)" fill="#d9a171"/>
        <path id="Trazado_908926" data-name="Trazado 908926" d="M154,180.311l-4.577,1.135-.667-2.331,4.577-1.135Z" transform="translate(-91.701 -80.751)" fill="#fff"/>
        <path id="Trazado_908927" data-name="Trazado 908927" d="M164.122,215.431l-4.577,1.143-.667-2.331,4.566-1.143Z" transform="translate(-93.052 -85.44)" fill="#fff"/>
        <rect id="Rectángulo_406277" data-name="Rectángulo 406277" width="5.476" height="39.295" transform="translate(71.685 94.898)" fill="#d9a171"/>
        <rect id="Rectángulo_406278" data-name="Rectángulo 406278" width="4.74" height="2.409" transform="translate(72.04 97.203)" fill="#fff"/>
        <rect id="Rectángulo_406279" data-name="Rectángulo 406279" width="4.74" height="2.409" transform="translate(72.04 128.717)" fill="#fff"/>
        <rect id="Rectángulo_406280" data-name="Rectángulo 406280" width="5.476" height="39.295" transform="translate(77.577 94.898)" fill="#d9a171"/>
        <rect id="Rectángulo_406281" data-name="Rectángulo 406281" width="4.74" height="2.409" transform="translate(77.932 97.203)" fill="#fff"/>
        <rect id="Rectángulo_406282" data-name="Rectángulo 406282" width="4.74" height="2.409" transform="translate(77.932 128.717)" fill="#fff"/>
        <path id="Trazado_908928" data-name="Trazado 908928" d="M101,204.32a15.008,15.008,0,0,1,0,11.429h38.03s4.7-1.213,4.7-5.71a8.249,8.249,0,0,0-4.577-5.594Z" transform="translate(-85.325 -84.268)" fill="#fff"/>
        <path id="Trazado_908929" data-name="Trazado 908929" d="M140.891,205.3c-1.655-.954-3.172-.866-5.078-.866h-13l-18.2-.061c-.295,0-3.25.26-3.379,0a11.672,11.672,0,0,1,.745,2.339h38.041v8.665a5.97,5.97,0,0,0,3.778-5.346,4.974,4.974,0,0,0-2.522-4.532Z" transform="translate(-85.358 -84.274)" opacity="0.25"/>
        <path id="Trazado_908930" data-name="Trazado 908930" d="M137.17,217.148h-38.2a1.221,1.221,0,0,1,0-2.435h38.2a4.688,4.688,0,1,0,.407-9.367H99.313a1.213,1.213,0,0,1,0-2.426H137.17a7.114,7.114,0,0,1,0,14.228Z" transform="translate(-84.903 -84.081)" fill="#d9a171"/>
        <path id="Trazado_908931" data-name="Trazado 908931" d="M141.607,188.07a15.087,15.087,0,0,0,0,11.429h-38.03s-4.7-1.213-4.7-5.71a8.275,8.275,0,0,1,4.577-5.594Z" transform="translate(-85.042 -82.098)" fill="#fff"/>
        <path id="Trazado_908932" data-name="Trazado 908932" d="M101.756,189.049c1.655-.954,3.172-.866,5.078-.866h13l18.2-.052c.295,0,3.25.26,3.379,0a12.364,12.364,0,0,0-.754,2.348h-38V199.2a5.987,5.987,0,0,1-3.778-5.346,4.991,4.991,0,0,1,2.522-4.532Z" transform="translate(-85.041 -82.107)" opacity="0.25"/>
        <path id="Trazado_908933" data-name="Trazado 908933" d="M104.9,200.9h38.125a1.221,1.221,0,0,0,0-2.435H104.9a4.679,4.679,0,1,1,0-9.358h37.857a1.221,1.221,0,0,0,0-2.435H104.9a7.114,7.114,0,0,0,0,14.228Z" transform="translate(-84.896 -81.911)" fill="#d9a171"/>
        <path id="Trazado_908934" data-name="Trazado 908934" d="M361.67,253.22a15.087,15.087,0,0,1,0,11.429H399.7s4.714-1.221,4.714-5.71a8.249,8.249,0,0,0-4.577-5.594Z" transform="translate(-120.127 -90.797)" fill="#fff"/>
        <path id="Trazado_908935" data-name="Trazado 908935" d="M401.551,254.2c-1.655-.954-3.172-.866-5.078-.866h-13l-18.2-.052c-.295,0-3.25.254-3.379,0a11.67,11.67,0,0,1,.745,2.339h37.979v8.665a5.97,5.97,0,0,0,3.778-5.346,4.974,4.974,0,0,0-2.522-4.531Z" transform="translate(-120.158 -90.804)" opacity="0.25"/>
        <path id="Trazado_908936" data-name="Trazado 908936" d="M397.852,266.048H359.657a1.221,1.221,0,0,1,0-2.435h38.2a4.679,4.679,0,1,0,0-9.358H359.994a1.221,1.221,0,0,1,0-2.435h37.857a7.114,7.114,0,1,1,0,14.228Z" transform="translate(-119.708 -90.61)" fill="#d9a171"/>
        <path id="Trazado_908937" data-name="Trazado 908937" d="M402.254,237a15.087,15.087,0,0,0,0,11.429H364.277s-4.7-1.213-4.7-5.71a8.275,8.275,0,0,1,4.577-5.594Z" transform="translate(-119.848 -88.631)" fill="#fff"/>
        <path id="Trazado_908938" data-name="Trazado 908938" d="M362.436,237.949c1.655-.954,3.172-.866,5.078-.866h13l18.2-.052c.295,0,3.25.26,3.379,0a12.369,12.369,0,0,0-.754,2.348h-38V248.1a5.987,5.987,0,0,1-3.778-5.346,4.991,4.991,0,0,1,2.522-4.532Z" transform="translate(-119.845 -88.635)" opacity="0.25"/>
        <path id="Trazado_908939" data-name="Trazado 908939" d="M365.534,249.808h38.2a1.221,1.221,0,0,0,0-2.435h-38.2a4.679,4.679,0,0,1,0-9.358h37.857a1.221,1.221,0,0,0,0-2.435H365.534a7.114,7.114,0,0,0,0,14.228Z" transform="translate(-119.694 -88.441)" fill="#d9a171"/>
        <path id="Trazado_908940" data-name="Trazado 908940" d="M360.65,346.75a15.008,15.008,0,0,1,0,11.429h38.03s4.7-1.213,4.7-5.71a8.24,8.24,0,0,0-4.584-5.594Z" transform="translate(-119.991 -103.284)" fill="#fff"/>
        <path id="Trazado_908941" data-name="Trazado 908941" d="M400.531,347.727c-1.655-.954-3.172-.866-5.078-.866h-13l-18.2-.061c-.3,0-3.25.26-3.379,0a11.673,11.673,0,0,1,.745,2.339H399.6v8.725a5.971,5.971,0,0,0,3.839-5.346,4.974,4.974,0,0,0-2.522-4.532Z" transform="translate(-120.022 -103.291)" opacity="0.25"/>
        <path id="Trazado_908942" data-name="Trazado 908942" d="M396.834,359.578H358.657a1.221,1.221,0,0,1,0-2.435h38.2a4.688,4.688,0,1,0,.407-9.367h-38.29a1.213,1.213,0,1,1,0-2.426h37.857a7.114,7.114,0,1,1,0,14.228Z" transform="translate(-119.574 -103.097)" fill="#d9a171"/>
        <path id="Trazado_908943" data-name="Trazado 908943" d="M401.254,330.5a15.087,15.087,0,0,0,0,11.429H363.277s-4.7-1.213-4.7-5.71a8.257,8.257,0,0,1,4.584-5.554Z" transform="translate(-119.715 -101.114)" fill="#fff"/>
        <path id="Trazado_908944" data-name="Trazado 908944" d="M361.388,331.479c1.655-.954,3.172-.866,5.078-.866H379.42l18.2-.052c.295,0,3.25.26,3.379,0a12.276,12.276,0,0,0-.754,2.339H362.32v8.725a5.988,5.988,0,0,1-3.778-5.346,4.991,4.991,0,0,1,2.522-4.532Z" transform="translate(-119.709 -101.122)" opacity="0.25"/>
        <path id="Trazado_908945" data-name="Trazado 908945" d="M364.514,343.328h38.2a1.221,1.221,0,0,0,0-2.435h-38.2a4.679,4.679,0,0,1,0-9.358H402.38a1.221,1.221,0,0,0,0-2.435H364.514a7.114,7.114,0,0,0,0,14.228Z" transform="translate(-119.557 -100.927)" fill="#d9a171"/>
        <path id="Trazado_908946" data-name="Trazado 908946" d="M282.71,346.75a15.008,15.008,0,0,1,0,11.429h38.03s4.7-1.213,4.7-5.71a8.24,8.24,0,0,0-4.584-5.594Z" transform="translate(-109.585 -103.284)" fill="#fff"/>
        <path id="Trazado_908947" data-name="Trazado 908947" d="M322.591,347.727c-1.655-.954-3.172-.866-5.078-.866h-13l-18.2-.061c-.3,0-3.25.26-3.379,0a11.676,11.676,0,0,1,.745,2.339h37.979v8.725a5.971,5.971,0,0,0,3.786-5.346,4.965,4.965,0,0,0-2.53-4.532Z" transform="translate(-109.616 -103.291)" opacity="0.25"/>
        <path id="Trazado_908948" data-name="Trazado 908948" d="M318.93,359.578H280.657a1.221,1.221,0,0,1,0-2.435h38.2a4.688,4.688,0,1,0,.407-9.367H281.031a1.213,1.213,0,0,1,0-2.426h37.9a7.114,7.114,0,1,1,0,14.228Z" transform="translate(-109.161 -103.097)" fill="#d9a171"/>
        <path id="Trazado_908949" data-name="Trazado 908949" d="M282.71,330.5a15.087,15.087,0,0,1,0,11.429h38.03s4.7-1.213,4.7-5.71a8.258,8.258,0,0,0-4.584-5.554Z" transform="translate(-109.585 -101.114)" fill="#fff"/>
        <path id="Trazado_908950" data-name="Trazado 908950" d="M322.591,331.479c-1.655-.954-3.172-.866-5.078-.866h-13l-18.2-.052c-.3,0-3.25.26-3.379,0a11.673,11.673,0,0,1,.745,2.339h37.979v8.725a5.97,5.97,0,0,0,3.778-5.346,4.965,4.965,0,0,0-2.53-4.532Z" transform="translate(-109.616 -101.122)" opacity="0.25"/>
        <path id="Trazado_908951" data-name="Trazado 908951" d="M318.93,343.328H280.657a1.221,1.221,0,0,1,0-2.435h38.2a4.679,4.679,0,0,0,0-9.358H281.031a1.221,1.221,0,0,1,0-2.435h37.9a7.114,7.114,0,1,1,0,14.228Z" transform="translate(-109.161 -100.927)" fill="#d9a171"/>
        <path id="Trazado_908952" data-name="Trazado 908952" d="M97.42,346.75a15.008,15.008,0,0,1,0,11.429h38.03s4.7-1.213,4.7-5.71a8.24,8.24,0,0,0-4.584-5.594Z" transform="translate(-84.847 -103.284)" fill="#fff"/>
        <path id="Trazado_908953" data-name="Trazado 908953" d="M137.3,347.727c-1.655-.954-3.172-.866-5.078-.866h-13l-18.2-.061c-.3,0-3.25.26-3.379,0a11.673,11.673,0,0,1,.745,2.339h37.979v8.725a5.971,5.971,0,0,0,3.778-5.346,4.974,4.974,0,0,0-2.522-4.532Z" transform="translate(-84.878 -103.291)" opacity="0.25"/>
        <path id="Trazado_908954" data-name="Trazado 908954" d="M133.6,359.578H95.4a1.221,1.221,0,0,1,0-2.435h38.2a4.688,4.688,0,1,0,.407-9.367H95.769a1.213,1.213,0,1,1,0-2.426h37.856a7.114,7.114,0,1,1,0,14.228Z" transform="translate(-84.427 -103.097)" fill="#d9a171"/>
        <path id="Trazado_908955" data-name="Trazado 908955" d="M138.037,330.5a15.087,15.087,0,0,0,0,11.429h-38.03s-4.7-1.213-4.7-5.71a8.275,8.275,0,0,1,4.577-5.594Z" transform="translate(-84.566 -101.114)" fill="#fff"/>
        <path id="Trazado_908956" data-name="Trazado 908956" d="M98.183,331.479c1.655-.954,3.172-.866,5.078-.866h13l18.2-.052c.295,0,3.25.26,3.379,0a12.277,12.277,0,0,0-.754,2.339H99.087v8.725a5.988,5.988,0,0,1-3.778-5.346,4.991,4.991,0,0,1,2.522-4.532Z" transform="translate(-84.565 -101.122)" opacity="0.25"/>
        <path id="Trazado_908957" data-name="Trazado 908957" d="M101.284,343.328h38.2a1.221,1.221,0,0,0,0-2.435h-38.2a4.679,4.679,0,1,1,0-9.358H139.15a1.221,1.221,0,0,0,0-2.435H101.284a7.114,7.114,0,1,0,0,14.228Z" transform="translate(-84.413 -100.927)" fill="#d9a171"/>
        <path id="Trazado_908958" data-name="Trazado 908958" d="M307.09,253.22a15.087,15.087,0,0,1,0,11.429h38.047s4.7-1.213,4.7-5.71a8.284,8.284,0,0,0-4.584-5.594Z" transform="translate(-112.84 -90.797)" fill="#fff"/>
        <path id="Trazado_908959" data-name="Trazado 908959" d="M346.979,254.2c-1.664-.954-3.18-.866-5.086-.866H328.937l-18.2-.052c-.295,0-3.24.254-3.371,0a12.252,12.252,0,0,1,.745,2.339h37.979v8.665a5.987,5.987,0,0,0,3.778-5.346,5,5,0,0,0-2.53-4.532Z" transform="translate(-112.878 -90.804)" opacity="0.25"/>
        <path id="Trazado_908960" data-name="Trazado 908960" d="M343.27,266.048h-38.2a1.221,1.221,0,0,1,0-2.435h38.2a4.679,4.679,0,1,0,0-9.358H305.4a1.221,1.221,0,0,1,0-2.435H343.27a7.114,7.114,0,1,1,0,14.228Z" transform="translate(-112.42 -90.61)" fill="#d9a171"/>
        <path id="Trazado_908961" data-name="Trazado 908961" d="M347.7,237a15.164,15.164,0,0,0,0,11.429h-38.03s-4.7-1.213-4.7-5.71a8.284,8.284,0,0,1,4.584-5.594Z" transform="translate(-112.557 -88.631)" fill="#fff"/>
        <path id="Trazado_908962" data-name="Trazado 908962" d="M307.846,237.949c1.664-.954,3.18-.866,5.086-.866h12.954l18.2-.052c.295,0,3.24.26,3.371,0a13,13,0,0,0-.745,2.348H308.747V248.1a5.987,5.987,0,0,1-3.778-5.346,5.017,5.017,0,0,1,2.53-4.532Z" transform="translate(-112.556 -88.635)" opacity="0.25"/>
        <path id="Trazado_908963" data-name="Trazado 908963" d="M310.9,249.808h38.2a1.221,1.221,0,0,0,0-2.435H310.9a4.679,4.679,0,1,1,0-9.358H348.77a1.221,1.221,0,0,0,0-2.435H310.9a7.114,7.114,0,0,0,0,14.228Z" transform="translate(-112.4 -88.441)" fill="#d9a171"/>
        <path id="Trazado_908964" data-name="Trazado 908964" d="M375.715,113.69H82.91v10.918h3.96V391.019h6.372v-3.6H367.807v3.6h6.326V124.582h1.586ZM134.345,251.566H367.8V287.75H134.345Zm-41.109-5.459V209.923H367.8v36.184Zm0-41.644V168.279H367.8v36.184Zm171.715-79.882V162.82H93.242V124.582ZM93.242,329.394V293.209H367.807v36.184Z" transform="translate(-82.91 -72.168)" fill="#344154"/>
        <path id="Trazado_908965" data-name="Trazado 908965" d="M375.715,113.69H82.91v10.918h3.96V391.019h6.372v-3.6H367.807v3.6h6.326V124.582h1.586ZM134.345,251.566H367.8V287.75H134.345Zm-41.109-5.459V209.923H367.8v36.184Zm0-41.644V168.279H367.8v36.184Zm171.715-79.882V162.82H93.242V124.582ZM93.242,329.394V293.209H367.807v36.184Z" transform="translate(-82.91 -72.168)" fill="#fff" opacity="0.9"/>
        <ellipse id="Elipse_13481" data-name="Elipse 13481" cx="4.358" cy="4.055" rx="4.358" ry="4.055" transform="translate(223.598 66.659)" fill="#fff"/>
        <ellipse id="Elipse_13482" data-name="Elipse 13482" cx="4.358" cy="4.055" rx="4.358" ry="4.055" transform="translate(240.408 66.659)" fill="#fff"/>
      </g>
      <g id="Grupo_1117635" data-name="Grupo 1117635" transform="translate(132.234 117.353)">
        <path id="Trazado_908966" data-name="Trazado 908966" d="M208.921,411.812l-1.447,2.166,2.166,1.447-1.441,2.409,1.923,1.681-3.613,2.409,1.923,1.2-.472,1.69,1.923.962-1.923,2.882H148.967l-1.2-2.882,1.447-1.689-2.166-1.2,3.371-.962-2.166-1.447,2.4-.962-3.128-1.2,7.945-2.409-8.907-1.441,2.882-21.913L208,402.617Z" transform="translate(-144.567 -159.515)" fill="#fff" stroke="#263238" stroke-linecap="round" stroke-miterlimit="10" stroke-width="1"/>
        <path id="Trazado_908967" data-name="Trazado 908967" d="M207.063,418.26s-27.728,2.981-44.711.866l8.665,2.089-16.1.866,15.233,2.383-16.091,1.49,12.816,2.686L151.657,429.9h55.135l-12.495-3,7.452-1.187-6.866-1.2,12.521-1.187-12.816-.6,11.889-1.231-12.816-.6S200.209,419.768,207.063,418.26Z" transform="translate(-145.247 -162.948)" opacity="0.25"/>
        <path id="Trazado_908968" data-name="Trazado 908968" d="M144.26,414.267s35.7,1.586,64.354-2.5l-.92-13.959-60.2-5.754Z" transform="translate(-144.26 -159.449)" fill="#fff"/>
        <g id="Grupo_1117628" data-name="Grupo 1117628" transform="translate(0 232.601)" clip-path="url(#clip-path)">
          <path id="Trazado_908969" data-name="Trazado 908969" d="M144.26,414.267s35.7,1.586,64.354-2.5l-.92-13.959-60.2-5.754Z" transform="translate(-144.26 -392.05)" opacity="0.1"/>
        </g>
        <path id="Trazado_908971" data-name="Trazado 908971" d="M144.26,414.267s35.7,1.586,64.354-2.5l-.92-13.959-60.2-5.754Z" transform="translate(-144.26 -159.449)" fill="none" stroke="#263238" stroke-linecap="round" stroke-miterlimit="10" stroke-width="1"/>
        <line id="Línea_573" data-name="Línea 573" x1="1.075" y2="11.377" transform="translate(13.058 236.466)" fill="none" stroke="#263238" stroke-linecap="round" stroke-linejoin="round" stroke-width="1"/>
        <line id="Línea_574" data-name="Línea 574" x1="0.355" y2="11.741" transform="translate(22.668 237.177)" fill="none" stroke="#263238" stroke-linecap="round" stroke-linejoin="round" stroke-width="1"/>
        <line id="Línea_575" data-name="Línea 575" x1="0.355" y2="11.386" transform="translate(31.557 238.242)" fill="none" stroke="#263238" stroke-linecap="round" stroke-linejoin="round" stroke-width="1"/>
        <line id="Línea_576" data-name="Línea 576" y2="9.254" transform="translate(40.101 240.729)" fill="none" stroke="#263238" stroke-linecap="round" stroke-linejoin="round" stroke-width="1"/>
        <line id="Línea_577" data-name="Línea 577" x2="0.355" y2="7.114" transform="translate(49.702 242.869)" fill="none" stroke="#263238" stroke-linecap="round" stroke-linejoin="round" stroke-width="1"/>
        <line id="Línea_578" data-name="Línea 578" x2="0.355" y2="5.693" transform="translate(58.246 244.291)" fill="none" stroke="#263238" stroke-linecap="round" stroke-linejoin="round" stroke-width="1"/>
        <path id="Trazado_908972" data-name="Trazado 908972" d="M208.877,384.53s-47.51,20.969-64.6,26.662l3.221-22.243,47.917-19.826Z" transform="translate(-144.263 -156.388)" fill="#fff"/>
        <g id="Grupo_1117629" data-name="Grupo 1117629" transform="translate(0.017 212.736)" clip-path="url(#clip-path-2)">
          <path id="Trazado_908973" data-name="Trazado 908973" d="M172.726,401.128c18.829-6.109,39.114-16.6,39.114-16.6L198.357,369.12,166.6,380.28Z" transform="translate(-147.26 -369.123)" opacity="0.1"/>
        </g>
        <path id="Trazado_908975" data-name="Trazado 908975" d="M208.877,384.53s-47.51,20.969-64.6,26.662l3.221-22.243,47.917-19.826Z" transform="translate(-144.263 -156.388)" fill="none" stroke="#263238" stroke-linecap="round" stroke-linejoin="round" stroke-width="1"/>
        <path id="Trazado_908976" data-name="Trazado 908976" d="M164.433,385.745l45.994-1.923-9.154-19.981-45.262.242Z" transform="translate(-145.829 -155.682)" fill="#fff"/>
        <g id="Grupo_1117630" data-name="Grupo 1117630" transform="translate(10.181 208.158)" clip-path="url(#clip-path-3)">
          <path id="Trazado_908977" data-name="Trazado 908977" d="M164.433,385.745l45.994-1.923-9.154-19.981-45.262.242Z" transform="translate(-156.01 -363.84)" opacity="0.1"/>
        </g>
        <path id="Trazado_908979" data-name="Trazado 908979" d="M164.433,385.745l45.994-1.923-9.154-19.981-45.262.242Z" transform="translate(-145.829 -155.682)" fill="none" stroke="#263238" stroke-linecap="round" stroke-linejoin="round" stroke-width="1"/>
        <line id="Línea_579" data-name="Línea 579" x2="4.272" y2="14.228" transform="translate(22.312 211.563)" fill="none" stroke="#263238" stroke-linecap="round" stroke-linejoin="round" stroke-width="1"/>
        <line id="Línea_580" data-name="Línea 580" x2="4.272" y2="14.947" transform="translate(30.492 210.844)" fill="none" stroke="#263238" stroke-linecap="round" stroke-linejoin="round" stroke-width="1"/>
        <line id="Línea_581" data-name="Línea 581" x2="3.907" y2="14.236" transform="translate(38.68 210.489)" fill="none" stroke="#263238" stroke-linecap="round" stroke-linejoin="round" stroke-width="1"/>
        <line id="Línea_582" data-name="Línea 582" x2="4.272" y2="13.881" transform="translate(47.215 210.489)" fill="none" stroke="#263238" stroke-linecap="round" stroke-linejoin="round" stroke-width="1"/>
        <path id="Trazado_908980" data-name="Trazado 908980" d="M218.552,298.437l13.777,48-5.509,1.82-25.13-54.485A16.983,16.983,0,0,1,218.552,298.437Z" transform="translate(-151.927 -146.246)" fill="#344154" stroke="#263238" stroke-linecap="round" stroke-linejoin="round" stroke-width="1"/>
        <path id="Trazado_908981" data-name="Trazado 908981" d="M234.244,354.69s3.56,6,3.56,8-6.447,1.78-9.332,2.218-9.154,4.636-11.749,3.527c0,0-1.551-.866,0-2.669s8.76-5.255,12.044-9.289Z" transform="translate(-153.842 -154.461)" fill="#fff" stroke="#263238" stroke-linecap="round" stroke-linejoin="round" stroke-width="1"/>
        <path id="Trazado_908982" data-name="Trazado 908982" d="M281.464,148.686c0,.866-1.005,1.681-1.092,2.543s.728,1.865.546,2.7-1.326,1.441-1.594,2.253.32,1.976,0,2.764-1.6,1.126-2.027,1.872-.1,1.993-.607,2.695-1.8.763-2.383,1.4-.509,1.933-1.153,2.513-1.915.373-2.6.866-.866,1.785-1.646,2.218-1.949,0-2.738.32-1.248,1.56-2.071,1.828-1.906-.442-2.756-.269-1.543,1.265-2.409,1.356-1.733-.866-2.6-.866-1.785.919-2.6.866-1.577-1.178-2.409-1.356-1.941.529-2.756.26-1.282-1.473-2.071-1.82-2,.1-2.747-.32-.944-1.733-1.646-2.218-1.976-.312-2.6-.866-.572-1.872-1.143-2.513-1.872-.71-2.383-1.4-.17-1.95-.607-2.695-1.681-1.083-2.027-1.872.234-1.941,0-2.764-1.421-1.4-1.594-2.253.632-1.837.546-2.7-1.092-1.664-1.092-2.543,1.005-1.733,1.092-2.543-.728-1.872-.546-2.712,1.326-1.43,1.594-2.253-.32-1.976,0-2.756,1.6-1.126,2.027-1.872.1-2,.607-2.695,1.8-.763,2.383-1.4.509-1.933,1.153-2.513,1.915-.373,2.6-.866.866-1.785,1.646-2.218,1.949,0,2.738-.32,1.248-1.56,2.071-1.828,1.906.442,2.756.26,1.543-1.265,2.409-1.352,1.733.866,2.6.866,1.785-.919,2.6-.866,1.551,1.2,2.417,1.352,1.941-.52,2.756-.26,1.282,1.482,2.071,1.828,2-.113,2.747.32.944,1.733,1.646,2.218,1.976.3,2.6.866.572,1.872,1.143,2.513,1.872.7,2.383,1.4.17,1.949.607,2.695,1.681,1.075,2.027,1.872-.234,1.933,0,2.764,1.421,1.4,1.594,2.253-.632,1.837-.546,2.7S281.464,147.811,281.464,148.686Z" transform="translate(-155.869 -123.609)" fill="#344154"/>
        <path id="Trazado_908983" data-name="Trazado 908983" d="M235.443,190.053s-8.665,19.219-13,29.608-1.065,19.271,1.733,20.258c2.938,1.04,24.2-6.527,29.253-8.483,4.8-1.865,4.853-1.733,4.853-1.733s.347,16.1.347,18.006-3.466,8.829-3.119,10.91,5.025,6.065,18.872,7.443,21.818-1.906,23.2-3.814,1.387-4.332,1.387-8.137-1.906-25.449-4.67-42.458-10.042-24.262-13.508-26.142-9.349.693-15.233,4.67-9.176,11.776-10.042,13.863-17.486,15.927-18.7,17.139,2.426-29.781,2.426-29.781Z" transform="translate(-154.418 -131.789)" fill="#fff" stroke="#263238" stroke-linecap="round" stroke-linejoin="round" stroke-width="1"/>
        <line id="Línea_583" data-name="Línea 583" x2="4.766" y2="1.672" transform="translate(79.587 61.513)" fill="none" stroke="#263238" stroke-linecap="round" stroke-linejoin="round" stroke-width="1"/>
        <path id="Trazado_908984" data-name="Trazado 908984" d="M239.157,226.82a58.556,58.556,0,0,1-1.387,8.307" transform="translate(-156.745 -137.389)" fill="#fff" stroke="#263238" stroke-linecap="round" stroke-linejoin="round" stroke-width="1"/>
        <line id="Línea_584" data-name="Línea 584" x1="2.079" y1="14.375" transform="translate(101.804 83.539)" fill="none" stroke="#263238" stroke-linecap="round" stroke-linejoin="round" stroke-width="1"/>
        <path id="Trazado_908985" data-name="Trazado 908985" d="M267.705,191.694s-5.017,12.131-3.977,12.131,3.293-3.814,3.293-3.814l2.938,5.893s.52-13.863.17-14.375S268.4,189.822,267.705,191.694Z" transform="translate(-160.191 -132.563)" fill="#fff" stroke="#263238" stroke-linecap="round" stroke-linejoin="round" stroke-width="1"/>
        <path id="Trazado_908986" data-name="Trazado 908986" d="M262.35,184.223s5.364,7.443,5.883,9.531,1.04,12.131,1.56,10.4,10.563-19.392,10.736-20.258-2.946-6.4-2.946-6.4-6.932,5.017-10.207,5.883A21.94,21.94,0,0,1,262.35,184.223Z" transform="translate(-160.026 -130.803)" fill="#ff9a6c"/>
        <path id="Trazado_908987" data-name="Trazado 908987" d="M262.35,184.223s5.364,7.443,5.883,9.531,1.04,12.131,1.56,10.4,10.563-19.392,10.736-20.258-2.946-6.4-2.946-6.4-6.932,5.017-10.207,5.883A21.94,21.94,0,0,1,262.35,184.223Z" transform="translate(-160.026 -130.803)" fill="none" stroke="#263238" stroke-linecap="round" stroke-linejoin="round" stroke-width="1"/>
        <path id="Trazado_908988" data-name="Trazado 908988" d="M271.806,199.04l-.866,7.967,4.159-5.546Z" transform="translate(-161.173 -133.68)" fill="#fff" stroke="#263238" stroke-linecap="round" stroke-linejoin="round" stroke-width="1"/>
        <path id="Trazado_908989" data-name="Trazado 908989" d="M271.94,196.56l3.466,5.025,12.121-17.139-4.679-3.984Z" transform="translate(-161.306 -131.2)" fill="#fff" stroke="#263238" stroke-linecap="round" stroke-linejoin="round" stroke-width="1"/>
        <path id="Trazado_908990" data-name="Trazado 908990" d="M276.91,161.907s.866-4.5,2.764-4.153,1.733,3.8.693,6.23a22.725,22.725,0,0,1-1.387,2.938Z" transform="translate(-161.97 -128.165)" fill="#fff"/>
        <g id="Grupo_1117631" data-name="Grupo 1117631" transform="translate(114.94 29.57)" clip-path="url(#clip-path-4)">
          <path id="Trazado_908991" data-name="Trazado 908991" d="M276.91,161.907s.866-4.5,2.764-4.153,1.733,3.8.693,6.23a22.725,22.725,0,0,1-1.387,2.938Z" transform="translate(-276.91 -157.735)" opacity="0.1"/>
        </g>
        <path id="Trazado_908993" data-name="Trazado 908993" d="M276.91,161.907s.866-4.5,2.764-4.153,1.733,3.8.693,6.23a22.725,22.725,0,0,1-1.387,2.938Z" transform="translate(-161.97 -128.165)" fill="none" stroke="#263238" stroke-linecap="round" stroke-linejoin="round" stroke-width="1"/>
        <path id="Trazado_908994" data-name="Trazado 908994" d="M249.819,170.2s-2.764-2.6-3.284,1.04,5.364,4.332,5.364,4.332Z" transform="translate(-157.91 -129.71)" fill="#fff"/>
        <g id="Grupo_1117632" data-name="Grupo 1117632" transform="translate(88.592 39.592)" clip-path="url(#clip-path-5)">
          <path id="Trazado_908995" data-name="Trazado 908995" d="M249.819,170.2s-2.764-2.6-3.284,1.04,5.364,4.332,5.364,4.332Z" transform="translate(-246.503 -169.302)" opacity="0.1"/>
        </g>
        <path id="Trazado_908997" data-name="Trazado 908997" d="M249.819,170.2s-2.764-2.6-3.284,1.04,5.364,4.332,5.364,4.332Z" transform="translate(-157.91 -129.71)" fill="none" stroke="#263238" stroke-linecap="round" stroke-linejoin="round" stroke-width="1"/>
        <path id="Trazado_908998" data-name="Trazado 908998" d="M245.631,156.246s7.617,20.952,10.4,24.072,10.207,4.844,16.274.17,4.153-9.87,2.764-14.029-7.1-18.525-7.963-20.427-5.017-2.946-7.1-1.387-1.213,3.466-4.67,4.332-7.617-.52-9.531,2.079a4.662,4.662,0,0,0-.175,5.19Z" transform="translate(-157.7 -126.317)" fill="#ffbf9d"/>
        <path id="Trazado_908999" data-name="Trazado 908999" d="M245.631,156.246s7.617,20.952,10.4,24.072,10.207,4.844,16.274.17,4.153-9.87,2.764-14.029-7.1-18.525-7.963-20.427-5.017-2.946-7.1-1.387-1.213,3.466-4.67,4.332-7.617-.52-9.531,2.079a4.662,4.662,0,0,0-.175,5.19Z" transform="translate(-157.7 -126.317)" fill="none" stroke="#263238" stroke-linecap="round" stroke-linejoin="round" stroke-width="1"/>
        <path id="Trazado_909000" data-name="Trazado 909000" d="M249.21,165.06l8.257-3.033a1.309,1.309,0,0,1,1.681.78h0l.866,2.435a2.7,2.7,0,0,1-1.6,3.466l-5.632,2.062a2.695,2.695,0,0,1-3.466-1.6l-.866-2.444a1.309,1.309,0,0,1,.771-1.681Z" transform="translate(-158.159 -128.727)" fill="#fff" stroke="#263238" stroke-linecap="round" stroke-linejoin="round" stroke-width="1"/>
        <path id="Trazado_909001" data-name="Trazado 909001" d="M264.69,159.381l8.257-3.033a1.317,1.317,0,0,1,1.681.78h0l.866,2.444a2.695,2.695,0,0,1-1.6,3.466l-5.632,2.071a2.7,2.7,0,0,1-3.466-1.61l-.866-2.435a1.309,1.309,0,0,1,.771-1.681h0Z" transform="translate(-160.226 -127.97)" fill="#fff" stroke="#263238" stroke-linecap="round" stroke-linejoin="round" stroke-width="1"/>
        <line id="Línea_585" data-name="Línea 585" y1="5.961" x2="2.409" transform="translate(94.153 36.281)" fill="none" stroke="#263238" stroke-linecap="round" stroke-linejoin="round" stroke-width="0.5"/>
        <line id="Línea_586" data-name="Línea 586" x1="1.845" y2="4.679" transform="translate(96.562 34.444)" fill="none" stroke="#263238" stroke-linecap="round" stroke-linejoin="round" stroke-width="0.5"/>
        <line id="Línea_587" data-name="Línea 587" y1="5.953" x2="2.417" transform="translate(107.765 31.038)" fill="none" stroke="#263238" stroke-linecap="round" stroke-linejoin="round" stroke-width="0.5"/>
        <line id="Línea_588" data-name="Línea 588" x1="1.837" y2="4.679" transform="translate(110.183 29.193)" fill="none" stroke="#263238" stroke-linecap="round" stroke-linejoin="round" stroke-width="0.5"/>
        <line id="Línea_589" data-name="Línea 589" y1="2.001" x2="5.45" transform="translate(99.17 31.35)" fill="none" stroke="#263238" stroke-linecap="round" stroke-linejoin="round" stroke-width="1"/>
        <path id="Trazado_909002" data-name="Trazado 909002" d="M260.83,162.945a5.745,5.745,0,0,1,2.729-1.005" transform="translate(-159.823 -128.727)" fill="none" stroke="#263238" stroke-linecap="round" stroke-linejoin="round" stroke-width="1"/>
        <path id="Trazado_909003" data-name="Trazado 909003" d="M264.31,157.251a6.716,6.716,0,0,1,6.75-2.729" transform="translate(-160.288 -127.721)" fill="none" stroke="#263238" stroke-linecap="round" stroke-linejoin="round" stroke-width="1"/>
        <path id="Trazado_909004" data-name="Trazado 909004" d="M257.435,160.226a5.34,5.34,0,0,0-7.235.32" transform="translate(-158.404 -128.33)" fill="none" stroke="#263238" stroke-linecap="round" stroke-linejoin="round" stroke-width="1"/>
        <path id="Trazado_909005" data-name="Trazado 909005" d="M261.83,171.02s.433,1.733.815,1.88c1.326.554,5.641-.537,5.563-2.478a6.066,6.066,0,0,0-.632-1.8" transform="translate(-159.956 -129.619)" fill="none" stroke="#263238" stroke-linecap="round" stroke-linejoin="round" stroke-width="1"/>
        <path id="Trazado_909006" data-name="Trazado 909006" d="M264.47,177.874a6.724,6.724,0,0,0,5.459-2.244" transform="translate(-160.309 -130.555)" fill="none" stroke="#263238" stroke-linecap="round" stroke-linejoin="round" stroke-width="1"/>
        <path id="Trazado_909007" data-name="Trazado 909007" d="M222.217,228.79s-2.409,26.965-12.278,53.939S156,346.052,156,346.052l8.423,21.662s31.54-23.829,46.47-58.982,15.415-79.215,15.415-79.215Z" transform="translate(-145.827 -137.652)" fill="#fff"/>
        <g id="Grupo_1117633" data-name="Grupo 1117633" transform="translate(10.173 91.138)" clip-path="url(#clip-path-6)">
          <path id="Trazado_909008" data-name="Trazado 909008" d="M216.25,286.845l6.569,11.723c11.16-32.927,11.559-69.051,11.559-69.051l-4.1-.728S227.871,255.754,218,282.728C217.489,284.081,216.9,285.458,216.25,286.845Z" transform="translate(-164.044 -228.79)" opacity="0.1"/>
        </g>
        <path id="Trazado_909010" data-name="Trazado 909010" d="M222.217,228.79s-2.409,26.965-12.278,53.939S156,346.052,156,346.052l8.423,21.662s31.54-23.829,46.47-58.982,15.415-79.215,15.415-79.215Z" transform="translate(-145.827 -137.652)" fill="none" stroke="#263238" stroke-linecap="round" stroke-linejoin="round" stroke-width="1"/>
        <path id="Trazado_909011" data-name="Trazado 909011" d="M186.45,284.384s-3.778,3.6-1.976,8.284,32.762,56.53,32.762,56.53l7.2-1.621s-14.4-47.172-17.1-52.934-4.861-9.358-6.655-10.623" transform="translate(-149.564 -145.026)" fill="#344154" stroke="#263238" stroke-linecap="round" stroke-linejoin="round" stroke-width="1"/>
        <path id="Trazado_909012" data-name="Trazado 909012" d="M219.966,358.912s-9.176,6.3-13.145,7.92-2.695,3.6,0,3.6,13-1.266,17.33-1.8,6.663-.182,6.845-2.522-3.786-9.358-3.786-9.358Z" transform="translate(-152.276 -154.736)" fill="#fff" stroke="#263238" stroke-linecap="round" stroke-linejoin="round" stroke-width="1"/>
        <path id="Trazado_909013" data-name="Trazado 909013" d="M242,170.605s0-4.5,1.04-5.364,6.065-3.293,7.1-2.773.17,1.213-.52,1.733-3.942,2.678-3.942,2.678l.485,4.939Z" transform="translate(-157.309 -128.787)" fill="#ffbf9d"/>
        <path id="Trazado_909014" data-name="Trazado 909014" d="M242,170.605s0-4.5,1.04-5.364,6.065-3.293,7.1-2.773.17,1.213-.52,1.733-3.942,2.678-3.942,2.678l.485,4.939Z" transform="translate(-157.309 -128.787)" fill="none" stroke="#263238" stroke-linecap="round" stroke-linejoin="round" stroke-width="1"/>
        <path id="Trazado_909015" data-name="Trazado 909015" d="M251,177.819s2.6,0,3.111-.685,3.64-4.332,3.814-5.025,0-1.387-1.906-.693a4.068,4.068,0,0,0-2.426,2.426l-2.417.17Z" transform="translate(-158.511 -129.953)" fill="#fff"/>
        <g id="Grupo_1117634" data-name="Grupo 1117634" transform="translate(92.489 41.175)" clip-path="url(#clip-path-7)">
          <path id="Trazado_909016" data-name="Trazado 909016" d="M251,177.819s2.6,0,3.111-.685,3.64-4.332,3.814-5.025,0-1.387-1.906-.693a4.068,4.068,0,0,0-2.426,2.426l-2.417.17Z" transform="translate(-251 -171.128)" opacity="0.1"/>
        </g>
        <path id="Trazado_909018" data-name="Trazado 909018" d="M251,177.819s2.6,0,3.111-.685,3.64-4.332,3.814-5.025,0-1.387-1.906-.693a4.068,4.068,0,0,0-2.426,2.426l-2.417.17Z" transform="translate(-158.511 -129.953)" fill="none" stroke="#263238" stroke-linecap="round" stroke-linejoin="round" stroke-width="1"/>
        <path id="Trazado_909019" data-name="Trazado 909019" d="M237.77,188.316s1.906-9.87,2.253-12.46,0-3.814,1.387-3.984a44.137,44.137,0,0,1,6.932.52c1.213.17,2.426.17,2.079,2.079s.693,6.065-.52,7.27a4.922,4.922,0,0,1-3.119,1.213,2.206,2.206,0,0,1-1.377,2.773,16.8,16.8,0,0,1-2.773,1.213l-1.04,2.764Z" transform="translate(-156.745 -130.052)" fill="#ffbf9d"/>
        <path id="Trazado_909020" data-name="Trazado 909020" d="M237.77,188.316s1.906-9.87,2.253-12.46,0-3.814,1.387-3.984a44.137,44.137,0,0,1,6.932.52c1.213.17,2.426.17,2.079,2.079s.693,6.065-.52,7.27a4.922,4.922,0,0,1-3.119,1.213,2.206,2.206,0,0,1-1.377,2.773,16.8,16.8,0,0,1-2.773,1.213l-1.04,2.764Z" transform="translate(-156.745 -130.052)" fill="none" stroke="#263238" stroke-linecap="round" stroke-linejoin="round" stroke-width="1"/>
        <path id="Trazado_909021" data-name="Trazado 909021" d="M247.77,184.1l-.347-3.293-2.253-.347" transform="translate(-157.733 -131.199)" fill="none" stroke="#263238" stroke-linecap="round" stroke-linejoin="round" stroke-width="1"/>
        <path id="Trazado_909022" data-name="Trazado 909022" d="M245.39,176.81s4.6.234,5.2.593.71,3.882.71,3.882" transform="translate(-157.762 -130.712)" fill="none" stroke="#263238" stroke-linecap="round" stroke-linejoin="round" stroke-width="1"/>
        <line id="Línea_590" data-name="Línea 590" x2="6.152" y2="0.554" transform="translate(87.515 43.862)" fill="none" stroke="#263238" stroke-linecap="round" stroke-linejoin="round" stroke-width="1"/>
        <path id="Trazado_909023" data-name="Trazado 909023" d="M269.6,277.635c-11.16-1.118-16.359-3.917-18.139-6.065l-1.56,1.958.182,1.441s-21.428-3.24-38.125-1.256-26.861,7.018-27.547,13.145l8.665,3.96c12.781,7.565,41.228,9.185,51.123,9.9s28.811,0,36.011-1.083,10.441-4.142,11.16-10.087c.6-4.9.7-12.5.719-15.008C289.438,276.448,281.822,278.875,269.6,277.635Z" transform="translate(-149.621 -143.363)" fill="#344154" stroke="#263238" stroke-linecap="round" stroke-linejoin="round" stroke-width="1"/>
        <line id="Línea_591" data-name="Línea 591" x2="11.16" y2="9.904" transform="translate(101.18 132.513)" fill="none" stroke="#fff" stroke-linecap="round" stroke-linejoin="round" stroke-width="1"/>
        <line id="Línea_592" data-name="Línea 592" x2="8.101" y2="3.059" transform="translate(102.982 133.059)" fill="none" stroke="#fff" stroke-linecap="round" stroke-linejoin="round" stroke-width="1"/>
        <path id="Trazado_909024" data-name="Trazado 909024" d="M212.176,225.987s-13.863,4.5-18.2,10.4L177,206.291a82.613,82.613,0,0,1,25.622-2.426c13.327,1.04,22.156,10.4,25.8,16.463Z" transform="translate(-148.632 -134.303)" fill="#fff" stroke="#263238" stroke-linecap="round" stroke-linejoin="round" stroke-width="1"/>
        <line id="Línea_593" data-name="Línea 593" x2="8.535" y2="15.648" transform="translate(41.522 74.953)" fill="none" stroke="#263238" stroke-linecap="round" stroke-linejoin="round" stroke-width="1"/>
        <line id="Línea_594" data-name="Línea 594" x2="7.469" y2="14.228" transform="translate(49.702 73.531)" fill="none" stroke="#263238" stroke-linecap="round" stroke-linejoin="round" stroke-width="1"/>
        <line id="Línea_595" data-name="Línea 595" x2="6.404" y2="12.451" transform="translate(57.891 73.176)" fill="none" stroke="#263238" stroke-linecap="round" stroke-linejoin="round" stroke-width="1"/>
        <path id="Trazado_909025" data-name="Trazado 909025" d="M278.715,204.895s-1.906,4.844-1.56,7.8,1.387,22.338,1.387,22.338-15.753-1.04-21.991-3.293-11.594-4.853-11.594-4.853l-1.387,5.546S254.653,242.3,264,246.1s27.346,7.443,29.461,6.577,3.984-20.076,3.814-27.52.17-15.415-3.293-20.952" transform="translate(-157.519 -134.37)" fill="#fff" stroke="#263238" stroke-linecap="round" stroke-linejoin="round" stroke-width="1"/>
        <line id="Línea_596" data-name="Línea 596" x1="1.43" y2="6.672" transform="translate(89.829 94.387)" fill="none" stroke="#263238" stroke-linecap="round" stroke-linejoin="round" stroke-width="1"/>
        <path id="Trazado_909026" data-name="Trazado 909026" d="M283.93,239.81s4.153,5.017,6.4,6.4" transform="translate(-162.907 -139.123)" fill="#fff" stroke="#263238" stroke-linecap="round" stroke-linejoin="round" stroke-width="1"/>
        <path id="Trazado_909027" data-name="Trazado 909027" d="M241.491,228.836a28.881,28.881,0,0,1-5.546-4.67c-2.244-2.6-3.63-2.6-6.75-2.773s-6.4-2.938-7.27-2.764-1.04,1.733-.17,2.6a40.692,40.692,0,0,0,5.2,3.119l-9.341,3.64a4.384,4.384,0,0,0,1.733,1.2c1.213.52,2.426,0,2.946.52s3.64,1.56,5.537,2.253,8.137-.347,8.137-.347l4.159,2.773Z" transform="translate(-154.054 -136.294)" fill="#ffbf9d"/>
        <path id="Trazado_909028" data-name="Trazado 909028" d="M241.491,228.836a28.881,28.881,0,0,1-5.546-4.67c-2.244-2.6-3.63-2.6-6.75-2.773s-6.4-2.938-7.27-2.764-1.04,1.733-.17,2.6a40.692,40.692,0,0,0,5.2,3.119l-9.341,3.64a4.384,4.384,0,0,0,1.733,1.2c1.213.52,2.426,0,2.946.52s3.64,1.56,5.537,2.253,8.137-.347,8.137-.347l4.159,2.773Z" transform="translate(-154.054 -136.294)" fill="none" stroke="#263238" stroke-linecap="round" stroke-linejoin="round" stroke-width="1"/>
      </g>
      <g id="Grupo_1117636" data-name="Grupo 1117636" transform="translate(205.11 274.41)">
        <path id="Trazado_909029" data-name="Trazado 909029" d="M235.2,307.69a28.247,28.247,0,0,1,0,22.631h79.933s9.861-2.444,9.861-11.368a16.48,16.48,0,0,0-9.636-11.074Z" transform="translate(-229.278 -305.243)" fill="#fff" stroke="#263238" stroke-linecap="round" stroke-linejoin="round" stroke-width="1"/>
        <path id="Trazado_909030" data-name="Trazado 909030" d="M319,309.579c-3.466-1.889-6.663-1.689-10.676-1.733h-7.556l-19.678-.061-38.247-.095c-.624,0-6.828.509-7.1,0a22.476,22.476,0,0,1,1.568,4.636H317.14v17.291a12.044,12.044,0,0,0,7.928-10.645c.329-3.925-2.14-6.993-5.312-8.959A4.271,4.271,0,0,0,319,309.579Z" transform="translate(-229.351 -305.243)" opacity="0.25"/>
        <line id="Línea_597" data-name="Línea 597" y2="17.789" transform="translate(87.806 4.986)" fill="none" stroke="#263238" stroke-linecap="round" stroke-linejoin="round" stroke-width="1"/>
        <line id="Línea_598" data-name="Línea 598" x2="12.269" transform="translate(8.097 7.949)" fill="none" stroke="#263238" stroke-linecap="round" stroke-linejoin="round" stroke-width="1"/>
        <line id="Línea_599" data-name="Línea 599" x2="13.725" transform="translate(11.944 9.639)" fill="none" stroke="#263238" stroke-linecap="round" stroke-linejoin="round" stroke-width="1"/>
        <line id="Línea_600" data-name="Línea 600" x2="22.875" transform="translate(8.088 17.827)" fill="none" stroke="#263238" stroke-linecap="round" stroke-linejoin="round" stroke-width="1"/>
        <line id="Línea_601" data-name="Línea 601" x1="10.354" transform="translate(77.191 8.911)" fill="none" stroke="#263238" stroke-linecap="round" stroke-linejoin="round" stroke-width="1"/>
        <line id="Línea_602" data-name="Línea 602" x1="22.633" transform="translate(64.428 11.805)" fill="none" stroke="#263238" stroke-linecap="round" stroke-linejoin="round" stroke-width="1"/>
        <line id="Línea_603" data-name="Línea 603" x1="7.703" transform="translate(54.316 11.805)" fill="none" stroke="#263238" stroke-linecap="round" stroke-linejoin="round" stroke-width="1"/>
        <line id="Línea_604" data-name="Línea 604" x2="14.21" transform="translate(73.335 16.622)" fill="none" stroke="#263238" stroke-linecap="round" stroke-linejoin="round" stroke-width="1"/>
        <line id="Línea_605" data-name="Línea 605" x2="9.15" transform="translate(7.612 20.955)" fill="none" stroke="#263238" stroke-linecap="round" stroke-linejoin="round" stroke-width="1"/>
        <path id="Trazado_909031" data-name="Trazado 909031" d="M311.232,333.035H230.917a2.409,2.409,0,1,1-.286-4.809h80.583c5.509,0,9.991-4.159,9.991-9.271s-4.48-9.271-9.991-9.271H231.636a2.409,2.409,0,0,1,0-4.818h79.6c8.162,0,14.809,6.326,14.809,14.089S319.377,333.035,311.232,333.035Z" transform="translate(-228.365 -304.866)" fill="#344154"/>
        <path id="Trazado_909032" data-name="Trazado 909032" d="M320.562,339.89a28.326,28.326,0,0,0,0,22.631H240.626s-9.87-2.409-9.87-11.316a16.477,16.477,0,0,1,9.627-11.082Z" transform="translate(-228.685 -309.542)" fill="#fff" stroke="#263238" stroke-linecap="round" stroke-linejoin="round" stroke-width="1"/>
        <path id="Trazado_909033" data-name="Trazado 909033" d="M236.806,341.806c3.466-1.889,6.672-1.733,10.675-1.733h7.556l19.678-.061,38.273-.113c.624,0,6.828.509,7.105,0a22.333,22.333,0,0,0-1.577,4.636H238.692V361.8a12.036,12.036,0,0,1-7.937-10.554c-.339-3.925,2.132-7,5.312-8.969a5.041,5.041,0,0,1,.739-.476Z" transform="translate(-228.68 -309.544)" opacity="0.25"/>
        <line id="Línea_606" data-name="Línea 606" y2="15.632" transform="translate(9.778 34.16)" fill="none" stroke="#263238" stroke-linecap="round" stroke-linejoin="round" stroke-width="1"/>
        <line id="Línea_607" data-name="Línea 607" x1="12.278" transform="translate(77.434 35.885)" fill="none" stroke="#263238" stroke-linecap="round" stroke-linejoin="round" stroke-width="1"/>
        <line id="Línea_608" data-name="Línea 608" x1="13.717" transform="translate(72.139 37.566)" fill="none" stroke="#263238" stroke-linecap="round" stroke-linejoin="round" stroke-width="1"/>
        <line id="Línea_609" data-name="Línea 609" x1="22.875" transform="translate(66.837 45.754)" fill="none" stroke="#263238" stroke-linecap="round" stroke-linejoin="round" stroke-width="1"/>
        <line id="Línea_610" data-name="Línea 610" x2="10.354" transform="translate(10.255 36.846)" fill="none" stroke="#263238" stroke-linecap="round" stroke-linejoin="round" stroke-width="1"/>
        <line id="Línea_611" data-name="Línea 611" x2="22.633" transform="translate(10.74 39.732)" fill="none" stroke="#263238" stroke-linecap="round" stroke-linejoin="round" stroke-width="1"/>
        <line id="Línea_612" data-name="Línea 612" x2="7.703" transform="translate(35.781 39.732)" fill="none" stroke="#263238" stroke-linecap="round" stroke-linejoin="round" stroke-width="1"/>
        <line id="Línea_613" data-name="Línea 613" x1="14.21" transform="translate(10.255 44.549)" fill="none" stroke="#263238" stroke-linecap="round" stroke-linejoin="round" stroke-width="1"/>
        <line id="Línea_614" data-name="Línea 614" x1="9.15" transform="translate(81.047 48.882)" fill="none" stroke="#263238" stroke-linecap="round" stroke-linejoin="round" stroke-width="1"/>
        <path id="Trazado_909034" data-name="Trazado 909034" d="M243.338,365.279h80.3a2.409,2.409,0,1,0,0-4.818h-80.3c-5.509,0-9.991-4.159-9.991-9.271s4.481-9.271,9.991-9.271h79.578a2.409,2.409,0,0,0,.295-4.809H243.338c-8.162,0-14.809,6.316-14.809,14.08S235.176,365.279,243.338,365.279Z" transform="translate(-228.387 -309.171)" fill="#d9a171" stroke="#263238" stroke-linecap="round" stroke-linejoin="round" stroke-width="1"/>
        <path id="Trazado_909035" data-name="Trazado 909035" d="M235.2,372.27a28.247,28.247,0,0,1,0,22.631h79.933s9.878-2.409,9.878-11.316a16.645,16.645,0,0,0-9.636-11.082Z" transform="translate(-229.278 -313.865)" fill="#fff" stroke="#263238" stroke-linecap="round" stroke-linejoin="round" stroke-width="1"/>
        <path id="Trazado_909036" data-name="Trazado 909036" d="M319,374.186c-3.466-1.889-6.663-1.733-10.676-1.733h-7.556l-19.678-.052-38.273-.121c-.624,0-6.828.52-7.1,0a22.475,22.475,0,0,1,1.568,4.636h79.821v17.269a12.053,12.053,0,0,0,7.955-10.6c.329-3.925-2.14-6.993-5.312-8.969C319.519,374.463,319.277,374.368,319,374.186Z" transform="translate(-229.347 -313.866)" opacity="0.25"/>
        <line id="Línea_615" data-name="Línea 615" y2="17.798" transform="translate(87.806 60.97)" fill="none" stroke="#263238" stroke-linecap="round" stroke-linejoin="round" stroke-width="1"/>
        <line id="Línea_616" data-name="Línea 616" x2="12.269" transform="translate(8.097 63.942)" fill="none" stroke="#263238" stroke-linecap="round" stroke-linejoin="round" stroke-width="1"/>
        <line id="Línea_617" data-name="Línea 617" x2="13.725" transform="translate(11.944 65.622)" fill="none" stroke="#263238" stroke-linecap="round" stroke-linejoin="round" stroke-width="1"/>
        <line id="Línea_618" data-name="Línea 618" x2="22.875" transform="translate(8.088 73.811)" fill="none" stroke="#263238" stroke-linecap="round" stroke-linejoin="round" stroke-width="1"/>
        <line id="Línea_619" data-name="Línea 619" x1="10.354" transform="translate(77.191 64.904)" fill="none" stroke="#263238" stroke-linecap="round" stroke-linejoin="round" stroke-width="1"/>
        <line id="Línea_620" data-name="Línea 620" x1="22.633" transform="translate(64.428 67.789)" fill="none" stroke="#263238" stroke-linecap="round" stroke-linejoin="round" stroke-width="1"/>
        <line id="Línea_621" data-name="Línea 621" x1="7.703" transform="translate(54.316 67.789)" fill="none" stroke="#263238" stroke-linecap="round" stroke-linejoin="round" stroke-width="1"/>
        <line id="Línea_622" data-name="Línea 622" x2="14.21" transform="translate(73.335 72.607)" fill="none" stroke="#263238" stroke-linecap="round" stroke-linejoin="round" stroke-width="1"/>
        <line id="Línea_623" data-name="Línea 623" x2="9.15" transform="translate(7.612 76.939)" fill="none" stroke="#263238" stroke-linecap="round" stroke-linejoin="round" stroke-width="1"/>
        <path id="Trazado_909037" data-name="Trazado 909037" d="M311.254,397.659H230.939a2.409,2.409,0,1,1,0-4.818h80.315c5.509,0,9.991-4.159,9.991-9.271s-4.48-9.263-9.991-9.263h-79.6a2.409,2.409,0,0,1,0-4.818h79.6c8.162,0,14.809,6.316,14.809,14.08S319.4,397.659,311.254,397.659Z" transform="translate(-228.387 -313.494)" fill="#344154"/>
        <path id="Trazado_909038" data-name="Trazado 909038" d="M320.562,404.5a28.326,28.326,0,0,0,0,22.631H240.626s-9.87-2.409-9.87-11.316a16.455,16.455,0,0,1,9.627-11.074Z" transform="translate(-228.685 -318.168)" fill="#fff" stroke="#263238" stroke-linecap="round" stroke-linejoin="round" stroke-width="1"/>
        <path id="Trazado_909039" data-name="Trazado 909039" d="M236.806,406.4c3.466-1.889,6.672-1.689,10.675-1.733h7.556l19.678-.061,38.273-.113c.624,0,6.828.509,7.105,0a22.527,22.527,0,0,0-1.577,4.636H238.692v17.327a12.044,12.044,0,0,1-7.937-10.6c-.339-3.925,2.132-6.993,5.312-8.969Z" transform="translate(-228.68 -318.166)" opacity="0.25"/>
        <line id="Línea_624" data-name="Línea 624" y2="15.632" transform="translate(9.778 90.145)" fill="none" stroke="#263238" stroke-linecap="round" stroke-linejoin="round" stroke-width="1"/>
        <line id="Línea_625" data-name="Línea 625" x1="12.278" transform="translate(77.434 91.869)" fill="none" stroke="#263238" stroke-linecap="round" stroke-linejoin="round" stroke-width="1"/>
        <line id="Línea_626" data-name="Línea 626" x1="13.717" transform="translate(72.139 93.559)" fill="none" stroke="#263238" stroke-linecap="round" stroke-linejoin="round" stroke-width="1"/>
        <line id="Línea_627" data-name="Línea 627" x1="22.875" transform="translate(66.837 101.738)" fill="none" stroke="#263238" stroke-linecap="round" stroke-linejoin="round" stroke-width="1"/>
        <line id="Línea_628" data-name="Línea 628" x2="10.354" transform="translate(10.255 92.831)" fill="none" stroke="#263238" stroke-linecap="round" stroke-linejoin="round" stroke-width="1"/>
        <line id="Línea_629" data-name="Línea 629" x2="22.633" transform="translate(10.74 95.724)" fill="none" stroke="#263238" stroke-linecap="round" stroke-linejoin="round" stroke-width="1"/>
        <line id="Línea_630" data-name="Línea 630" x2="7.703" transform="translate(35.781 95.724)" fill="none" stroke="#263238" stroke-linecap="round" stroke-linejoin="round" stroke-width="1"/>
        <line id="Línea_631" data-name="Línea 631" x1="14.21" transform="translate(10.255 100.534)" fill="none" stroke="#263238" stroke-linecap="round" stroke-linejoin="round" stroke-width="1"/>
        <line id="Línea_632" data-name="Línea 632" x1="9.15" transform="translate(81.047 104.875)" fill="none" stroke="#263238" stroke-linecap="round" stroke-linejoin="round" stroke-width="1"/>
        <path id="Trazado_909040" data-name="Trazado 909040" d="M243.338,429.889h80.3a2.409,2.409,0,0,0,0-4.818h-80.3c-5.509,0-9.991-4.153-9.991-9.263s4.481-9.275,9.991-9.275h79.578a2.409,2.409,0,0,0,0-4.818H243.338c-8.162,0-14.809,6.316-14.809,14.089S235.176,429.889,243.338,429.889Z" transform="translate(-228.387 -317.796)" fill="#d9a171" stroke="#263238" stroke-linecap="round" stroke-linejoin="round" stroke-width="1"/>
      </g>
      <g id="Grupo_1117637" data-name="Grupo 1117637" transform="translate(54.744 386.503)">
        <line id="Línea_633" data-name="Línea 633" x2="342.264" fill="none" stroke="#263238" stroke-linecap="round" stroke-linejoin="round" stroke-width="2"/>
      </g>
    </g>
  </g>
</svg>
