<svg xmlns="http://www.w3.org/2000/svg" width="295" height="267" viewBox="0 0 295 267">
  <g id="Grupo_1118350" data-name="Grupo 1118350" transform="translate(-390 -7278)">
    <rect id="Rectángulo_406303" data-name="Rectángulo 406303" width="295" height="267" transform="translate(390 7278)" fill="#ddeffd"/>
    <g id="calculadora12" transform="translate(325.182 7180.718)">
      <g id="Grupo_1117664" data-name="Grupo 1117664" transform="translate(181.734 148.414)">
        <g id="Grupo_1117638" data-name="Grupo 1117638" transform="translate(0.003)">
          <rect id="Rectángulo_406286" data-name="Rectángulo 406286" width="117.946" height="170.18" rx="18.087" fill="#344154"/>
        </g>
        <g id="Grupo_1117639" data-name="Grupo 1117639" transform="translate(13.904 14.322)">
          <rect id="Rectángulo_406287" data-name="Rectángulo 406287" width="90.145" height="32.857" rx="6.46" fill="#fff"/>
        </g>
        <g id="Grupo_1117640" data-name="Grupo 1117640" transform="translate(0 55.605)">
          <path id="Trazado_909047" data-name="Trazado 909047" d="M335.842,249.117V351.9a11.792,11.792,0,0,1-.922,4.587.006.006,0,0,1,0,0l0,0a12.474,12.474,0,0,1-.773,1.521.006.006,0,0,1,0,0l0,0a12.209,12.209,0,0,1-1.353,1.809.006.006,0,0,1,0,0l0,0c-.126.138-.258.275-.389.407a11.729,11.729,0,0,1-8.336,3.456H229.693c-.216,0-.432-.007-.647-.018-.156-.006-.3-.018-.455-.036-.078-.006-.156-.012-.228-.023-.156-.012-.312-.037-.467-.06s-.342-.054-.515-.09l-.18-.036c-.149-.03-.293-.066-.443-.1-.006-.007-.012-.007-.024-.012-.186-.048-.365-.1-.545-.157a11.014,11.014,0,0,1-1.084-.4,9.546,9.546,0,0,1-1.036-.5c-.162-.09-.33-.185-.491-.281s-.336-.21-.5-.323-.293-.2-.431-.3c-.162-.114-.311-.24-.461-.359s-.288-.246-.425-.372q-.279-.251-.539-.521c-.1-.1-.2-.209-.3-.323a11.734,11.734,0,0,1-1.767-2.575c-.06-.12-.12-.24-.174-.359q-.1-.207-.179-.413c-.06-.132-.114-.276-.168-.413a11.8,11.8,0,0,1-.743-4.126V249.117Z" transform="translate(-217.896 -249.117)" fill="#5d6776"/>
        </g>
        <g id="Grupo_1117648" data-name="Grupo 1117648" transform="translate(13.061 64.028)">
          <g id="Grupo_1117641" data-name="Grupo 1117641">
            <path id="Trazado_909048" data-name="Trazado 909048" d="M251.913,274.2h-7.906a6.082,6.082,0,0,1-6.082-6.082h0a6.082,6.082,0,0,1,6.082-6.082h7.906a6.082,6.082,0,0,1,6.082,6.082h0a6.082,6.082,0,0,1-6.082,6.082Z" transform="translate(-237.925 -262.034)" fill="#fff"/>
          </g>
          <g id="Grupo_1117642" data-name="Grupo 1117642" transform="translate(24.56)">
            <path id="Trazado_909049" data-name="Trazado 909049" d="M289.576,274.2H281.67a6.082,6.082,0,0,1-6.082-6.082h0a6.081,6.081,0,0,1,6.083-6.082h7.905a6.082,6.082,0,0,1,6.082,6.082h0a6.082,6.082,0,0,1-6.082,6.082Z" transform="translate(-275.588 -262.034)" fill="#fff"/>
          </g>
          <g id="Grupo_1117643" data-name="Grupo 1117643" transform="translate(49.121)">
            <path id="Trazado_909050" data-name="Trazado 909050" d="M327.238,274.2h-7.906a6.082,6.082,0,0,1-6.082-6.082h0a6.081,6.081,0,0,1,6.083-6.082h7.905a6.082,6.082,0,0,1,6.082,6.082h0A6.082,6.082,0,0,1,327.238,274.2Z" transform="translate(-313.251 -262.034)" fill="#fff"/>
          </g>
          <g id="Grupo_1117644" data-name="Grupo 1117644" transform="translate(74.802)">
            <rect id="Rectángulo_406288" data-name="Rectángulo 406288" width="16.42" height="31.015" rx="3.859" fill="#fff"/>
          </g>
          <g id="Grupo_1117645" data-name="Grupo 1117645" transform="translate(74.802 33.97)">
            <rect id="Rectángulo_406289" data-name="Rectángulo 406289" width="16.42" height="17.028" rx="5.489" fill="#fff"/>
          </g>
          <g id="Grupo_1117646" data-name="Grupo 1117646" transform="translate(74.802 52.862)">
            <rect id="Rectángulo_406290" data-name="Rectángulo 406290" width="16.42" height="17.028" rx="5.489" fill="#fff"/>
          </g>
          <g id="Grupo_1117647" data-name="Grupo 1117647" transform="translate(74.802 73.015)">
            <rect id="Rectángulo_406291" data-name="Rectángulo 406291" width="16.42" height="17.028" rx="5.489" fill="#fff"/>
          </g>
        </g>
        <g id="Grupo_1117649" data-name="Grupo 1117649" transform="translate(13.898 82.925)">
          <rect id="Rectángulo_406292" data-name="Rectángulo 406292" width="20.069" height="20.069" rx="10.034" fill="#fff"/>
        </g>
        <g id="Grupo_1117650" data-name="Grupo 1117650" transform="translate(37.829 82.925)">
          <rect id="Rectángulo_406293" data-name="Rectángulo 406293" width="20.068" height="20.069" rx="10.034" fill="#fff"/>
        </g>
        <g id="Grupo_1117651" data-name="Grupo 1117651" transform="translate(61.759 82.925)">
          <rect id="Rectángulo_406294" data-name="Rectángulo 406294" width="20.069" height="20.069" rx="10.034" fill="#fff"/>
        </g>
        <g id="Grupo_1117652" data-name="Grupo 1117652" transform="translate(13.898 110.005)">
          <rect id="Rectángulo_406295" data-name="Rectángulo 406295" width="20.069" height="20.069" rx="10.034" fill="#fff"/>
        </g>
        <g id="Grupo_1117653" data-name="Grupo 1117653" transform="translate(37.829 110.005)">
          <rect id="Rectángulo_406296" data-name="Rectángulo 406296" width="20.068" height="20.069" rx="10.034" fill="#fff"/>
        </g>
        <g id="Grupo_1117654" data-name="Grupo 1117654" transform="translate(61.759 110.005)">
          <rect id="Rectángulo_406297" data-name="Rectángulo 406297" width="20.069" height="20.069" rx="10.034" fill="#fff"/>
        </g>
        <g id="Grupo_1117656" data-name="Grupo 1117656" transform="translate(13.898 137.084)">
          <g id="Grupo_1117655" data-name="Grupo 1117655">
            <rect id="Rectángulo_406298" data-name="Rectángulo 406298" width="20.069" height="20.069" rx="10.034" fill="#fff"/>
          </g>
        </g>
        <g id="Grupo_1117658" data-name="Grupo 1117658" transform="translate(37.829 137.084)">
          <g id="Grupo_1117657" data-name="Grupo 1117657">
            <rect id="Rectángulo_406299" data-name="Rectángulo 406299" width="20.068" height="20.069" rx="10.034" fill="#fff"/>
          </g>
        </g>
        <g id="Grupo_1117660" data-name="Grupo 1117660" transform="translate(61.759 137.084)">
          <g id="Grupo_1117659" data-name="Grupo 1117659">
            <rect id="Rectángulo_406300" data-name="Rectángulo 406300" width="20.069" height="20.069" rx="10.034" fill="#fff"/>
          </g>
        </g>
        <g id="Grupo_1117661" data-name="Grupo 1117661" transform="translate(76.216 4.213)">
          <path id="Trazado_909051" data-name="Trazado 909051" d="M358.361,175.363H337.3a2.527,2.527,0,0,1-2.528-2.528h0a2.527,2.527,0,0,1,2.528-2.527h21.062a2.528,2.528,0,0,1,2.528,2.527h0a2.528,2.528,0,0,1-2.529,2.528Z" transform="translate(-334.772 -170.308)" fill="#fff"/>
        </g>
        <g id="Grupo_1117662" data-name="Grupo 1117662" transform="translate(0.276 55.603)">
          <rect id="Rectángulo_406301" data-name="Rectángulo 406301" width="110.749" height="4.223" fill="#e1b48d"/>
        </g>
        <g id="Grupo_1117663" data-name="Grupo 1117663" transform="translate(26.776 22.995)">
          <path id="Trazado_909052" data-name="Trazado 909052" d="M268.08,199.11V215.3H263.6V204.692a13.656,13.656,0,0,1-2.1,1.336,16.4,16.4,0,0,1-2.548.977v-3.628a10.744,10.744,0,0,0,3.508-1.748,7.139,7.139,0,0,0,1.956-2.519Z" transform="translate(-258.956 -199.11)" fill="#839eb6"/>
          <path id="Trazado_909053" data-name="Trazado 909053" d="M293.1,215.3H279.825a8.308,8.308,0,0,1,1.385-3.7,18.654,18.654,0,0,1,4.338-4.089,12.91,12.91,0,0,0,2.487-2.194,2.458,2.458,0,0,0,.543-1.423,1.663,1.663,0,0,0-.537-1.244,2.049,2.049,0,0,0-2.737.016,3.255,3.255,0,0,0-.723,1.879l-4.431-.359a7.044,7.044,0,0,1,.956-2.916,4.434,4.434,0,0,1,1.96-1.607,8.869,8.869,0,0,1,3.5-.559,9.883,9.883,0,0,1,3.633.531,4.419,4.419,0,0,1,2.042,1.635,4.316,4.316,0,0,1,.744,2.471,5.064,5.064,0,0,1-.852,2.781,11.71,11.71,0,0,1-3.1,2.911q-1.336.922-1.787,1.292t-1.059.966H293.1Z" transform="translate(-266.216 -199.11)" fill="#839eb6"/>
          <path id="Trazado_909054" data-name="Trazado 909054" d="M307.3,203.986l-4.182-.749a5.25,5.25,0,0,1,2-3.062,7.117,7.117,0,0,1,4.2-1.064,7.008,7.008,0,0,1,4.508,1.162,3.649,3.649,0,0,1,1.39,2.921,3.259,3.259,0,0,1-.565,1.868,4.792,4.792,0,0,1-1.705,1.467,5.009,5.009,0,0,1,1.412.532,3.446,3.446,0,0,1,1.233,1.287,3.894,3.894,0,0,1,.44,1.907,5.308,5.308,0,0,1-.728,2.666,4.874,4.874,0,0,1-2.1,1.965,8.016,8.016,0,0,1-3.6.689,9.315,9.315,0,0,1-3.426-.511,5.113,5.113,0,0,1-2.064-1.493,6.865,6.865,0,0,1-1.244-2.471l4.421-.587a3.446,3.446,0,0,0,.809,1.852,1.96,1.96,0,0,0,1.4.516,1.919,1.919,0,0,0,1.482-.651,2.487,2.487,0,0,0,.592-1.738,2.416,2.416,0,0,0-.57-1.716,2.021,2.021,0,0,0-1.548-.608,5.584,5.584,0,0,0-1.433.262l.228-3.161a4.179,4.179,0,0,0,.576.054,2.018,2.018,0,0,0,1.45-.554,1.757,1.757,0,0,0,.582-1.315,1.571,1.571,0,0,0-.435-1.162,1.612,1.612,0,0,0-1.194-.434,1.752,1.752,0,0,0-1.272.473,2.865,2.865,0,0,0-.657,1.655Z" transform="translate(-274.235 -199.11)" fill="#839eb6"/>
          <path id="Trazado_909055" data-name="Trazado 909055" d="M333.187,212.328h-8.059v-3.639l8.059-9.579h3.856v9.79h2v3.432h-2V215.3h-3.856Zm0-3.432v-5.011l-4.258,5.011Z" transform="translate(-281.977 -199.11)" fill="#839eb6"/>
          <path id="Trazado_909056" data-name="Trazado 909056" d="M350.272,199.526h10.5v3.529h-7.114l-.381,2.39a7.659,7.659,0,0,1,1.461-.522,6.117,6.117,0,0,1,1.429-.173,5.333,5.333,0,0,1,3.877,1.444,4.861,4.861,0,0,1,1.487,3.639,6.171,6.171,0,0,1-.766,2.964,5.188,5.188,0,0,1-2.172,2.172,7.625,7.625,0,0,1-3.6.749,10.639,10.639,0,0,1-2.7-.3,5.488,5.488,0,0,1-1.911-.89,5.316,5.316,0,0,1-1.276-1.341,7,7,0,0,1-.814-1.868l4.475-.489a2.714,2.714,0,0,0,.76,1.635,2.01,2.01,0,0,0,1.423.56,1.928,1.928,0,0,0,1.527-.7,3.133,3.133,0,0,0,.6-2.091,3.014,3.014,0,0,0-.608-2.085,2.089,2.089,0,0,0-1.618-.663,2.62,2.62,0,0,0-1.238.315,3.585,3.585,0,0,0-.978.826l-3.768-.543Z" transform="translate(-290.036 -199.255)" fill="#839eb6"/>
        </g>
      </g>
      <g id="Grupo_1117692" data-name="Grupo 1117692" transform="translate(113.949 119.483)">
        <g id="Grupo_1117665" data-name="Grupo 1117665" transform="translate(24.717 82.979)">
          <path id="Trazado_909057" data-name="Trazado 909057" d="M183.159,311.76A120.881,120.881,0,0,0,190,354.089q1.327,3.818,2.942,7.637l-1.234,8.19h23.665L200.1,360.8c-.349-2.176-.636-4.427-.885-6.714-1.607-15.483-.922-32.589-.461-40.3a19.77,19.77,0,0,0-1.272-8.19c-4.114-10.723-15.17-40.472-18.735-58.869H152.769C148.319,276.171,160.31,288.862,183.159,311.76Z" transform="translate(-151.852 -246.73)" fill="#ffbf9d"/>
        </g>
        <g id="Grupo_1117666" data-name="Grupo 1117666" transform="translate(24.717 82.979)">
          <path id="Trazado_909058" data-name="Trazado 909058" d="M164.274,291.432c4.974,6.309,11.33,12.765,18.884,20.328-.162,15.114.876,32.274,5.637,45.826l11.833-.616c-1.608-15.483,1.109-41.346-1.311-51.136-2.756-11.15-17.006-40.707-20.571-59.1H152.769C149.79,266.443,154.178,278.655,164.274,291.432Z" transform="translate(-151.851 -246.73)" fill="#6595bf"/>
        </g>
        <g id="Grupo_1117667" data-name="Grupo 1117667" transform="translate(37.127 103.311)">
          <path id="Trazado_909059" data-name="Trazado 909059" d="M170.883,302.23l.012.049c4.974,6.309,11.33,12.765,18.884,20.328-.162,15.114.876,32.274,5.637,45.826l3.509-.183c-4.938-12.762-6.312-29.481-5.748-46.523-25.8-21.017-8.675-28.588-16.7-43.819Z" transform="translate(-170.883 -277.909)" fill="#334b60"/>
        </g>
        <g id="Grupo_1117668" data-name="Grupo 1117668" transform="translate(64.453 197.053)">
          <path id="Trazado_909060" data-name="Trazado 909060" d="M221.3,421.66c5.694,2.916,15.626,2.109,16.211,9.113h-24.6a21.832,21.832,0,0,1,.85-9.113,22.816,22.816,0,0,0,7.539,0Z" transform="translate(-212.787 -421.66)" fill="#344154"/>
        </g>
        <g id="Grupo_1117673" data-name="Grupo 1117673" transform="translate(0 82.058)">
          <g id="Grupo_1117669" data-name="Grupo 1117669" transform="translate(0.376 0.003)">
            <path id="Trazado_909061" data-name="Trazado 909061" d="M117.508,359.237c-1.023,2.219-1.988,4.277-2.983,6.437q9.912,2.365,19.82,4.743c-4-3.32-8.023-6.576-12-9.938,1.523-3.09,3.379-7.448,5.032-10.245,6.622-11.2,14.111-21.13,21.691-31.59a18.406,18.406,0,0,0,3.523-8.138c3.534-20.6,3.088-41.851,6.8-62.492q-8.8-1.369-17.577-2.691c-16.333,25.512-12.877,39.117-6.029,66.5-8.129,11-12.611,23.433-15.872,36.725C119.24,351.284,118.1,356.185,117.508,359.237Z" transform="translate(-114.525 -245.323)" fill="#ffbf9d"/>
          </g>
          <g id="Grupo_1117670" data-name="Grupo 1117670" transform="translate(2.252)">
            <path id="Trazado_909062" data-name="Trazado 909062" d="M153.572,310.531a18.01,18.01,0,0,1-3.559,8.2c-8.592,12.025-15.324,25.709-22.884,38.466-3.266-.743-6.481-1.519-9.726-2.275,3.755-14.882,10.056-30.638,19.379-43.1-6.839-27.4-10.3-40.977,6.022-66.492a.051.051,0,0,1,.011-.02l19.985,3.053c-.093.505-.184,1.011-.278,1.517v.045C158.97,270.047,157.119,290.434,153.572,310.531Z" transform="translate(-117.403 -245.318)" fill="#4c708f"/>
          </g>
          <g id="Grupo_1117671" data-name="Grupo 1117671" transform="translate(2.247 0.021)">
            <path id="Trazado_909063" data-name="Trazado 909063" d="M158.752,250.733c-2.139,3.011-.124,9.041-2.471,12.322-6.075,8.494-14.247,2.2-19.505,5.622-8.947,5.823.991,32.369,2.959,39.555.059.217,1.44,5,2.348,4.9-4.127.5-2.664-2.413-7.938,6.533-2.379,4.036-14.69,27.6-15.153,35.074-1.054,1.023-.987,0-1.6.209,3.767-14.907,10.057-30.641,19.385-43.108-6.838-27.4-10.306-40.977,6.023-66.49,6.494,1.487,14.607.49,20.948,1.962C164.5,247.485,160.145,248.773,158.752,250.733Z" transform="translate(-117.395 -245.35)" fill="#6595bf"/>
          </g>
          <g id="Grupo_1117672" data-name="Grupo 1117672" transform="translate(0 111.875)">
            <path id="Trazado_909064" data-name="Trazado 909064" d="M123.176,418.166c5.561,3.892,13.268,5.055,13.778,12.605l-23-5.506a23.893,23.893,0,0,1,3.753-8.388,5.656,5.656,0,0,0,5.469,1.289Z" transform="translate(-113.949 -416.877)" fill="#344154"/>
          </g>
        </g>
        <g id="Grupo_1117678" data-name="Grupo 1117678" transform="translate(47.554 25.903)">
          <g id="Grupo_1117674" data-name="Grupo 1117674" transform="translate(49.208 1.68)">
            <path id="Trazado_909065" data-name="Trazado 909065" d="M266.655,172.742s-1.723.9-2.26,1.262c-.989-1.74-1.134-3.394-2.063-5.039,0,0,2.433-.651,2.666-1.133.767-1.589,1.461-4.522,3.068-4.912,1.632-.4.31,3.531.31,3.531a17.542,17.542,0,0,0,6.085-3.2C280.483,157.657,278.523,169.584,266.655,172.742Z" transform="translate(-262.332 -161.781)" fill="#ffbf9d"/>
          </g>
          <g id="Grupo_1117675" data-name="Grupo 1117675">
            <path id="Trazado_909066" data-name="Trazado 909066" d="M239.787,172.856c-3.924,2.631-20.807,13.127-27.116,13.619-7.175.564-25.8-7-25.8-7l.777-20.256c3.453-.519,24.8,16.728,24.8,16.728l24.415-9.3C237.795,168.294,238.8,171.116,239.787,172.856Z" transform="translate(-186.872 -159.205)" fill="#d9a171"/>
          </g>
          <g id="Grupo_1117676" data-name="Grupo 1117676" transform="translate(0.775)">
            <path id="Trazado_909067" data-name="Trazado 909067" d="M198.82,165.261c-4.8-3.407-9.323-6.26-10.758-6.044v.038C190.5,160.139,194.651,162.591,198.82,165.261Z" transform="translate(-188.06 -159.205)" fill="#384c78"/>
          </g>
          <g id="Grupo_1117677" data-name="Grupo 1117677" transform="translate(0 11.628)">
            <path id="Trazado_909068" data-name="Trazado 909068" d="M238.794,177.037c-4.335,3.227-20.283,13.072-26.375,13.9-6.374.865-22.243-4.235-25.544-5.33v.073s18.624,7.566,25.8,7c6.309-.492,23.192-10.988,27.116-13.619a20.82,20.82,0,0,1-1-2.024Z" transform="translate(-186.872 -177.037)" fill="#a37955"/>
          </g>
        </g>
        <g id="Grupo_1117679" data-name="Grupo 1117679" transform="translate(24.256 25.91)">
          <path id="Trazado_909069" data-name="Trazado 909069" d="M185.706,184.523l-7.2,31.788H152.523s-4.3-30.558,2.293-46.566c2.968-7.212,12.714-10.326,13.325-10.519l.027-.012,7.244.417Z" transform="translate(-151.146 -159.215)" fill="#ffbf9d"/>
        </g>
        <g id="Grupo_1117680" data-name="Grupo 1117680" transform="translate(24.257 25.91)">
          <path id="Trazado_909070" data-name="Trazado 909070" d="M185.406,185.827l-6.072,26.8a4.7,4.7,0,0,1-4.565,3.69c-3.767,1.734-9.124,1.139-14.854,0a8.269,8.269,0,0,1-8.194-7.662c-.824-10.117-1.421-27.932,3.1-38.912,2.324-5.639,8.8-8.778,11.791-9.966a8.011,8.011,0,0,1,2.959-.559l5.6.013c.86,0,10.4,23.969,10.4,23.969a8.463,8.463,0,0,1-.165,2.627Z" transform="translate(-151.147 -159.216)" fill="#fff"/>
        </g>
        <g id="Grupo_1117681" data-name="Grupo 1117681" transform="translate(30.154 80.579)">
          <rect id="Rectángulo_406302" data-name="Rectángulo 406302" width="27.567" height="4.091" fill="#182f57"/>
        </g>
        <g id="Grupo_1117682" data-name="Grupo 1117682" transform="translate(46.184 25.901)">
          <path id="Trazado_909071" data-name="Trazado 909071" d="M185.45,232.061a3.825,3.825,0,0,0,2.667,2.645,11.822,11.822,0,0,0,5.049.265l.212-.038a21.939,21.939,0,0,0,4.014-1.076l.012-39.633s.17-7.285,0-9.705c-.75-10.683.314-23.248-9.843-25.254a2.054,2.054,0,0,0-.7-.055C194.609,192.014,181.772,218.445,185.45,232.061Z" transform="translate(-184.771 -159.202)" fill="#d9a171"/>
        </g>
        <g id="Grupo_1117683" data-name="Grupo 1117683" transform="translate(16.038 25.91)">
          <path id="Trazado_909072" data-name="Trazado 909072" d="M140.446,235.98c5.452,1.187,11.551.645,16.24-.019a7.615,7.615,0,0,0,6.452-8.159c-1.632-22.552,4.854-44.643.645-68.586l-.025.012c-.611.19-10.4,3.285-13.325,10.516-5.5,13.6-7.642,43.712-11.833,63.283a2.479,2.479,0,0,0,1.846,2.953Z" transform="translate(-138.544 -159.216)" fill="#d9a171"/>
        </g>
        <g id="Grupo_1117684" data-name="Grupo 1117684" transform="translate(22.175 82.202)">
          <path id="Trazado_909073" data-name="Trazado 909073" d="M147.954,247.421a32.647,32.647,0,0,0,12.31,0v-1.882a45.017,45.017,0,0,1-12.31,0Z" transform="translate(-147.954 -245.539)" fill="#e1b48d"/>
        </g>
        <g id="Grupo_1117687" data-name="Grupo 1117687" transform="translate(28.527 30.694)">
          <g id="Grupo_1117685" data-name="Grupo 1117685" transform="translate(60.816 37.45)">
            <path id="Trazado_909074" data-name="Trazado 909074" d="M254.825,233.55a22.162,22.162,0,0,0-3.871,0l.171-6.41s2.933.738,3.7.219c1.26-.852,3.259-3.053,5.417-3.36s-1.155,3.512-1.155,3.512a18.965,18.965,0,0,0,8.511,0C271.455,226.365,270.635,235.864,254.825,233.55Z" transform="translate(-250.954 -223.982)" fill="#ffbf9d"/>
          </g>
          <path id="Trazado_909075" data-name="Trazado 909075" d="M220.306,206.864v7.893c-7.757.728-28.317,1.193-35.335-1.185-8.869-3.009-27.277-30.075-27.277-30.075l9.763-16.945c7.57,8.86,23.514,35.343,23.514,35.343Z" transform="translate(-157.694 -166.552)" fill="#d9a171"/>
          <g id="Grupo_1117686" data-name="Grupo 1117686" transform="translate(0 16.945)">
            <path id="Trazado_909076" data-name="Trazado 909076" d="M186.106,218.757c-8.059-2.451-28.412-26.22-28.412-26.22S176.1,219.6,184.971,222.612c7.018,2.378,27.578,1.913,35.335,1.185v-2.836C212.244,221.92,193.056,220.869,186.106,218.757Z" transform="translate(-157.694 -192.537)" fill="#a37955"/>
          </g>
        </g>
        <g id="Grupo_1117688" data-name="Grupo 1117688" transform="translate(36.133)">
          <path id="Trazado_909077" data-name="Trazado 909077" d="M177.285,140.337s-6.2-.02-7.692-7.238,4.428-9.783,8.313-9.733a10.235,10.235,0,0,0,8.171-3.884s3.448,4.7,1.464,8.822C185.823,131.88,177.285,140.337,177.285,140.337Z" transform="translate(-169.359 -119.483)" fill="#344154"/>
        </g>
        <g id="Grupo_1117689" data-name="Grupo 1117689" transform="translate(41.279 15.205)">
          <path id="Trazado_909078" data-name="Trazado 909078" d="M184.816,145.039l-.138,2.083-.366,5.589-.056.851c-.112,4.435-6.667,2.6-7.007-.056l1.079-4.412.792-3.233.277-1.135.47-1.926Z" transform="translate(-177.249 -142.799)" fill="#ffbf9d"/>
        </g>
        <g id="Grupo_1117690" data-name="Grupo 1117690" transform="translate(42.357 17.131)">
          <path id="Trazado_909079" data-name="Trazado 909079" d="M185.253,148.15l-.366,5.589c-1.65-.34-4.151-1.109-5.42-2.829-.2-.265-.385-.526-.564-.788l.792-3.233.276-1.135Z" transform="translate(-178.903 -145.753)" fill="#f0b4b4"/>
        </g>
        <g id="Grupo_1117691" data-name="Grupo 1117691" transform="translate(40.025 7.722)">
          <path id="Trazado_909080" data-name="Trazado 909080" d="M186.515,131.564a1.665,1.665,0,0,1,2.5,1.382c.225,4.55.018,11.937-3.544,13.143-5.208,1.763-8.928-5.12-8.928-5.12s-2.232-3.186-.661-4.277,3.058,1.592,3.058,1.592C179.2,133.228,183.4,133.491,186.515,131.564Z" transform="translate(-175.327 -131.324)" fill="#ffbf9d"/>
        </g>
        <path id="Trazado_909081" data-name="Trazado 909081" d="M192,143.267a2.186,2.186,0,0,0,1.808-.335,14.2,14.2,0,0,1-1.935-3.293Z" transform="translate(-141.057 -126.495)" fill="#ff9a6c"/>
        <path id="Trazado_909082" data-name="Trazado 909082" d="M187.557,138.818c.251,0,.469.357.475.7s-.206.652-.437.662-.434-.316-.477-.7S187.3,138.815,187.557,138.818Z" transform="translate(-139.402 -126.209)" fill="#344154"/>
        <path id="Trazado_909083" data-name="Trazado 909083" d="M194.18,138.51c.256,0,.464.312.473.7s-.183.7-.434.7-.462-.316-.471-.7S193.93,138.5,194.18,138.51Z" transform="translate(-141.71 -126.102)" fill="#344154"/>
        <path id="Trazado_909084" data-name="Trazado 909084" d="M193.347,135.859a.23.23,0,0,0,.2.086,1.9,1.9,0,0,1,1.591.5.217.217,0,0,0,.306.031l.006,0h0a.231.231,0,0,0,.018-.319h0a2.335,2.335,0,0,0-1.983-.628.232.232,0,0,0-.2.252.3.3,0,0,0,.062.083Z" transform="translate(-141.547 -125.055)" fill="#344154"/>
        <path id="Trazado_909085" data-name="Trazado 909085" d="M192.767,148.511a.231.231,0,0,0-.213-.014,1.9,1.9,0,0,1-1.667.074.217.217,0,0,0-.3.076v.007h0a.232.232,0,0,0,.092.306h0a2.334,2.334,0,0,0,2.078-.092.231.231,0,0,0,.1-.305A.3.3,0,0,0,192.767,148.511Z" transform="translate(-140.601 -129.57)" fill="#344154"/>
        <path id="Trazado_909086" data-name="Trazado 909086" d="M185.846,137.042a.23.23,0,0,0,.2-.052,1.911,1.911,0,0,1,1.559-.588.217.217,0,0,0,.261-.162v-.007h0a.232.232,0,0,0-.184-.262h0a2.311,2.311,0,0,0-1.956.71.227.227,0,0,0,0,.32A.215.215,0,0,0,185.846,137.042Z" transform="translate(-138.899 -125.213)" fill="#344154"/>
      </g>
    </g>
  </g>
</svg>
