<svg xmlns="http://www.w3.org/2000/svg" width="505" height="536.815" viewBox="0 0 505 536.815">
  <g id="Grupo_1118346" data-name="Grupo 1118346" transform="translate(-915 -5450.7)">
    <g id="Grupo_1116902" data-name="Grupo 1116902" transform="translate(0 2379.7)">
      <rect id="Rectángulo_405611" data-name="Rectángulo 405611" width="505" height="536.815" transform="translate(915 3071)" fill="#dcecf7"/>
    </g>
    <g id="REVER" transform="translate(767.264 114.919)">
      <g id="Grupo_1117018" data-name="Grupo 1117018" transform="translate(143.643 5352.888)">
        <g id="Grupo_1116907" data-name="Grupo 1116907" transform="translate(119.361 41.112)">
          <g id="Grupo_1116904" data-name="Grupo 1116904" transform="translate(191.475 3.777)">
            <path id="Trazado_908112" data-name="Trazado 908112" d="M335.53,83.542h31.325a31.324,31.324,0,1,1-32.048-31.315Z" transform="translate(-304.207 -44.582)" fill="#cdb9f8"/>
            <path id="Trazado_908113" data-name="Trazado 908113" d="M342.923,76.113l-.707-31.325a33.043,33.043,0,0,1,22.553,8.875,32.2,32.2,0,0,1,9.467,21.963Z" transform="translate(-303.156 -44.788)" fill="#8454ee"/>
          </g>
        </g>
        <g id="Grupo_1116925" data-name="Grupo 1116925" transform="translate(177.009 73.129)">
          <g id="Grupo_1116912" data-name="Grupo 1116912" transform="translate(161.016 51.568)">
            <path id="Trazado_908118" data-name="Trazado 908118" d="M380.7,195.575a3.631,3.631,0,0,0,.617-.123,2.032,2.032,0,0,0,1.258-1.236,3.613,3.613,0,0,0,.114-1.338q-.006-.76-.013-1.656c-.006-1.2-.015-2.581-.024-4.134-.021-6.239-.049-15.234-.086-26.341-.009-5.562-.02-11.652-.032-18.189q-.006-4.9-.013-10.134,0-2.613-.006-5.3c-.013-.876.027-1.84-.032-2.662a1.809,1.809,0,0,0-1.664-1.492l-47.82.014a1.8,1.8,0,0,0-1.791,1.735v21.595c-.005,8-.01,15.72-.015,23.074s-.017,14.34-.025,20.88V192.7a9.354,9.354,0,0,0,.031,1.158,1.838,1.838,0,0,0,1.377,1.453,5.3,5.3,0,0,0,1.112.054h2.3l8.728.017,26.34.085,7.161.05,1.862.027c.42.008.635.027.635.027s-.215.019-.635.028l-1.862.027-7.161.049c-6.239.022-15.233.049-26.34.085l-8.728.017h-2.3a5.611,5.611,0,0,1-1.211-.063,2.269,2.269,0,0,1-1.7-1.788,9.3,9.3,0,0,1-.042-1.236q0-1.2,0-2.431c-.007-6.54-.016-13.527-.025-20.88s-.01-15.072-.015-23.074v-21.61a2.332,2.332,0,0,1,2.326-2.255l47.853.029a2.3,2.3,0,0,1,2.113,1.9c.07.987.017,1.83.032,2.744q0,2.687-.005,5.3Q383,137.636,383,142.546c-.012,6.537-.023,12.628-.033,18.189-.036,11.108-.065,20.1-.085,26.341-.009,1.553-.017,2.934-.025,4.134q-.006.9-.012,1.656a3.665,3.665,0,0,1-.147,1.376,2.071,2.071,0,0,1-1.342,1.251,1.6,1.6,0,0,1-.657.082Z" transform="translate(-330.664 -122.448)" fill="#263238"/>
            <g id="Grupo_1116908" data-name="Grupo 1116908" transform="translate(12.507 14.236)">
              <path id="Trazado_908119" data-name="Trazado 908119" d="M359.887,136.717c-6.99-1.551-14.66,2.246-16.624,9.448-1.888,6.918,2.678,14.99,9.619,16.872a14.349,14.349,0,0,0,16.786-8.992c2.493-7.39-2.248-15.349-9.394-17.705-.829-.273-1.159,1-.358,1.3,6.092,2.232,10.47,8.809,8.649,15.4-1.732,6.263-9.074,10.459-15.35,8.791-6.03-1.6-9.922-8.075-9.156-14.106.938-7.386,8.76-11.811,15.718-10.6.257.044.372-.339.11-.4Z" transform="translate(-342.835 -136.302)" fill="#263238"/>
            </g>
            <g id="Grupo_1116909" data-name="Grupo 1116909" transform="translate(22.324 13.557)">
              <path id="Trazado_908120" data-name="Trazado 908120" d="M352.675,162.846a14.14,14.14,0,0,0,17.5-9.279c2.181-7.51-2.676-15.621-9.988-17.857-1.687-.515-2.29,1.975-.715,2.592,6.2,2.423,10.3,9.136,7.849,15.724-2.177,5.859-8.6,8.686-14.539,8.011-.476-.054-.535.678-.109.809Z" transform="translate(-352.388 -135.64)" fill="#d9a171"/>
            </g>
            <g id="Grupo_1116910" data-name="Grupo 1116910" transform="translate(12.059 52.78)">
              <path id="Trazado_908121" data-name="Trazado 908121" d="M370.809,174.076c0,.148-6.36.268-14.2.268s-14.206-.12-14.206-.268,6.359-.267,14.206-.267S370.809,173.929,370.809,174.076Z" transform="translate(-342.399 -173.809)" fill="#6595bf"/>
            </g>
            <g id="Grupo_1116911" data-name="Grupo 1116911" transform="translate(12.059 57.089)">
              <path id="Trazado_908122" data-name="Trazado 908122" d="M370.809,178.27c0,.148-6.36.267-14.2.267s-14.206-.119-14.206-.267,6.359-.268,14.206-.268S370.809,178.122,370.809,178.27Z" transform="translate(-342.399 -178.002)" fill="#6595bf"/>
            </g>
          </g>
          <g id="Grupo_1116921" data-name="Grupo 1116921" transform="translate(7.833)">
            <path id="Trazado_908123" data-name="Trazado 908123" d="M181.6,79.392v95.017a3.822,3.822,0,0,0,3.822,3.822H311.987a3.821,3.821,0,0,0,3.821-3.822V76.089a3.82,3.82,0,0,0-3.921-3.82l-126.563,3.3A3.823,3.823,0,0,0,181.6,79.392Z" transform="translate(-181.601 -72.268)" fill="#e0e0e0"/>
            <g id="Grupo_1116913" data-name="Grupo 1116913" transform="translate(7.673 20.002)">
              <path id="Trazado_908124" data-name="Trazado 908124" d="M304.3,95.481c-.048.1-1.612-.808-4.683-1.78a30.114,30.114,0,0,0-13.428-1,29.342,29.342,0,0,0-8.856,2.846,41.7,41.7,0,0,0-8.708,6.263c-2.856,2.52-5.69,5.381-8.96,8.026a30.894,30.894,0,0,1-11.436,6.189,17.289,17.289,0,0,1-6.678.4,21.618,21.618,0,0,1-6.186-1.909A108.121,108.121,0,0,1,225,108.359a32.341,32.341,0,0,0-9.748-4.371,28.962,28.962,0,0,0-9.272-.711,29.88,29.88,0,0,0-12.8,4.167c-2.746,1.679-4.042,2.941-4.115,2.853a6.371,6.371,0,0,1,.93-.915,22.271,22.271,0,0,1,2.979-2.266,29.211,29.211,0,0,1,22.47-3.931,32.842,32.842,0,0,1,10.033,4.389,111.022,111.022,0,0,0,10.295,6.061,17.639,17.639,0,0,0,12.211,1.429,30.22,30.22,0,0,0,11.07-5.986c3.218-2.586,6.065-5.428,8.962-7.953a41.931,41.931,0,0,1,8.944-6.312,29.65,29.65,0,0,1,22.778-1.481,23.774,23.774,0,0,1,3.439,1.48,6.454,6.454,0,0,1,1.124.669Z" transform="translate(-189.068 -91.732)" fill="#455a64"/>
            </g>
            <g id="Grupo_1116914" data-name="Grupo 1116914" transform="translate(13.87 26.409)">
              <rect id="Rectángulo_405989" data-name="Rectángulo 405989" width="12.379" height="33.481" transform="translate(16.02 19.662)" fill="#a66d58"/>
              <rect id="Rectángulo_405990" data-name="Rectángulo 405990" width="12.379" height="33.481" transform="translate(68.551 19.662)" fill="#a66d58"/>
              <rect id="Rectángulo_405991" data-name="Rectángulo 405991" width="12.379" height="53.143" transform="translate(86.061)" fill="#a66d58"/>
              <rect id="Rectángulo_405992" data-name="Rectángulo 405992" width="12.379" height="11.268" transform="translate(0 42.603)" fill="#a66d58"/>
              <rect id="Rectángulo_405993" data-name="Rectángulo 405993" width="12.38" height="18.362" transform="translate(33.53 34.781)" fill="#a66d58"/>
              <rect id="Rectángulo_405994" data-name="Rectángulo 405994" width="12.379" height="22.577" transform="translate(51.041 30.566)" fill="#a66d58"/>
            </g>
            <g id="Grupo_1116920" data-name="Grupo 1116920" transform="translate(13.987 83.001)">
              <g id="Grupo_1116915" data-name="Grupo 1116915" transform="translate(15.405)">
                <path id="Trazado_908125" data-name="Trazado 908125" d="M223.579,153.533c0,.274-2.995.5-6.688.5s-6.688-.223-6.688-.5,2.994-.5,6.688-.5S223.579,153.258,223.579,153.533Z" transform="translate(-210.203 -153.036)" fill="#263238"/>
              </g>
              <path id="Trazado_908126" data-name="Trazado 908126" d="M208.589,153.533c0,.274-3,.5-6.688.5s-6.689-.223-6.689-.5,2.995-.5,6.689-.5S208.589,153.258,208.589,153.533Z" transform="translate(-195.212 -153.036)" fill="#263238"/>
              <g id="Grupo_1116916" data-name="Grupo 1116916" transform="translate(85.642)">
                <path id="Trazado_908127" data-name="Trazado 908127" d="M293.672,153.533c0,.274-3.385.5-7.56.5s-7.56-.223-7.56-.5,3.384-.5,7.56-.5S293.672,153.258,293.672,153.533Z" transform="translate(-278.551 -153.036)" fill="#263238"/>
              </g>
              <g id="Grupo_1116917" data-name="Grupo 1116917" transform="translate(67.251)">
                <ellipse id="Elipse_13473" data-name="Elipse 13473" cx="7.561" cy="0.497" rx="7.561" ry="0.497" transform="translate(0 0)" fill="#263238"/>
              </g>
              <g id="Grupo_1116918" data-name="Grupo 1116918" transform="translate(49.927)">
                <path id="Trazado_908128" data-name="Trazado 908128" d="M257.173,153.533c0,.275-3,.5-6.689.5s-6.688-.223-6.688-.5,2.993-.5,6.688-.5S257.173,153.259,257.173,153.533Z" transform="translate(-243.796 -153.036)" fill="#263238"/>
              </g>
              <g id="Grupo_1116919" data-name="Grupo 1116919" transform="translate(31.834)">
                <path id="Trazado_908129" data-name="Trazado 908129" d="M239.568,153.533c0,.275-3,.5-6.689.5s-6.689-.223-6.689-.5,3-.5,6.689-.5S239.568,153.259,239.568,153.533Z" transform="translate(-226.19 -153.036)" fill="#263238"/>
              </g>
            </g>
          </g>
          <g id="Grupo_1116924" data-name="Grupo 1116924" transform="translate(0 124.976)">
            <path id="Trazado_908130" data-name="Trazado 908130" d="M281.365,194.137a1.232,1.232,0,0,1,.213,0,1.69,1.69,0,0,1,.606.177,1.769,1.769,0,0,1,.741.729,2.741,2.741,0,0,1,.212,1.418c.012,2.182.03,5.37.051,9.475.012,4.121.028,9.156.046,15q.009,4.389.021,9.372,0,1.244.005,2.525v1.288a2.421,2.421,0,0,1-.248,1.356,1.908,1.908,0,0,1-1.121.886,6.071,6.071,0,0,1-1.385.078h-2.73l.192-.192c.005,2.964.009,6.164.015,9.479v.546l-.363-.408-8.394-9.469.167.075-86.551.045H176.8c-.345,0-.643.01-1.027-.009a1.983,1.983,0,0,1-1.7-1.369,2.048,2.048,0,0,1-.094-.567V212.6q0-7.642.007-14.986v-1.842a1.969,1.969,0,0,1,1.078-1.676,2.022,2.022,0,0,1,.992-.214h2.706l7.1.005,49.7.058,33.507.085,9.109.05,2.37.027c.533.008.807.027.807.027s-.273.018-.807.028l-2.37.027-9.109.049-33.507.085-49.7.058h-9.8a1.521,1.521,0,0,0-.762.16,1.458,1.458,0,0,0-.8,1.244V197.6q0,7.345.006,14.986t.005,15.528v5.946a2.927,2.927,0,0,0,.07.906,1.454,1.454,0,0,0,1.241,1c.283.013.654,0,.976.006h6.045l86.551.045h.1l.067.076,8.37,9.489-.362.137c.005-3.315.01-6.515.014-9.479v-.192H280.5a5.972,5.972,0,0,0,1.282-.059,1.54,1.54,0,0,0,.906-.711,2.069,2.069,0,0,0,.206-1.176v-1.288q0-1.281.005-2.525.011-4.977.021-9.372c.018-5.847.033-10.883.046-15,.022-4.1.039-7.293.05-9.475a2.669,2.669,0,0,0-.176-1.379,1.721,1.721,0,0,0-.693-.718A2.066,2.066,0,0,0,281.365,194.137Z" transform="translate(-173.979 -193.883)" fill="#263238"/>
            <path id="Trazado_908131" data-name="Trazado 908131" d="M179.591,228.508c.864-3.011,1.866-6.08,3.874-8.482s5.262-4.016,8.3-3.236c4.792,1.233,7.11,7.617,12.014,8.274,2.711.362,5.352-1.261,7.1-3.366s2.824-4.668,4.161-7.054c2.008-3.58,4.759-6.9,8.449-8.7s8.431-1.807,11.657.732c5.53,4.354,4.759,13.968,10.653,17.816a8.531,8.531,0,0,0,9.5-.283c2.612-1.936,3.956-5.287,6.705-7.024,3.184-2.011,7.61-1.223,10.491,1.2s4.392,6.158,4.94,9.884" transform="translate(-173.824 -193.584)" fill="#6595bf"/>
            <g id="Grupo_1116922" data-name="Grupo 1116922" transform="translate(7.751 15.515)">
              <path id="Trazado_908132" data-name="Trazado 908132" d="M275.389,211.106a.92.92,0,0,1-.242-.094l-.681-.319a18.058,18.058,0,0,0-2.729-.92,21.87,21.87,0,0,0-10.482.306,40.044,40.044,0,0,0-6.854,2.549c-2.393,1.112-4.874,2.461-7.517,3.836a59.926,59.926,0,0,1-8.563,3.8,25,25,0,0,1-9.964,1.389,33.033,33.033,0,0,1-9.762-2.465c-3.024-1.211-5.812-2.647-8.469-3.981-5.282-2.709-10.228-4.877-14.671-5.541a20.975,20.975,0,0,0-10.445.763,20.062,20.062,0,0,0-3.488,1.715.961.961,0,0,1,.2-.163l.618-.437a14.389,14.389,0,0,1,2.6-1.31,20.724,20.724,0,0,1,10.575-.94c4.518.626,9.534,2.787,14.834,5.472,2.666,1.324,5.445,2.745,8.442,3.936a32.74,32.74,0,0,0,9.607,2.419,24.6,24.6,0,0,0,9.758-1.353,60.491,60.491,0,0,0,8.5-3.738c2.642-1.36,5.14-2.7,7.557-3.8a39.8,39.8,0,0,1,6.949-2.514,21.565,21.565,0,0,1,10.624-.14,12.02,12.02,0,0,1,3.6,1.53Z" transform="translate(-181.522 -208.98)" fill="#263238"/>
            </g>
            <g id="Grupo_1116923" data-name="Grupo 1116923" transform="translate(14.878 10.01)">
              <path id="Trazado_908133" data-name="Trazado 908133" d="M228.3,204.7a1.081,1.081,0,1,1-1.081-1.08,1.081,1.081,0,0,1,1.081,1.08Z" transform="translate(-187.415 -203.623)" fill="#455a64"/>
              <path id="Trazado_908134" data-name="Trazado 908134" d="M190.618,209.149a1.081,1.081,0,1,1-1.08-1.081A1.081,1.081,0,0,1,190.618,209.149Z" transform="translate(-188.457 -203.5)" fill="#455a64"/>
              <path id="Trazado_908135" data-name="Trazado 908135" d="M265.593,209.155a1.08,1.08,0,1,1-1.08-1.081,1.08,1.08,0,0,1,1.08,1.081Z" transform="translate(-186.385 -203.5)" fill="#455a64"/>
            </g>
          </g>
        </g>
        <g id="Grupo_1116981" data-name="Grupo 1116981" transform="translate(196.201 205.672)">
          <path id="Trazado_908136" data-name="Trazado 908136" d="M338.6,357.7h9.634c4.487,0,14.117-11.813-38.133-10.463-34.345.887-36.6,5.955-34.861,8.917a4.268,4.268,0,0,0,4.019,2.006c.837-.06,1.947-.073,3.263-.067l-.822,3.623h0l-19.12,84.49,3.333-.289,14.116-46.525,26.938-1.033,1.54,49.449h4.226l1.018-49.708.129-.005,2.847-.11,23.879-.916,14.145,50.739h4.054Zm-56.559,35.08,9.424-31.066,1.068-3.518h0c3.952,0,8.565-.091,13.184-.091l1.056,33.9Zm35.517-1.113h0l-1.045.032-2.628.083.7-34.084h15.052l9.284,33.3Z" transform="translate(-190.722 -197.214)" fill="#455a64"/>
          <g id="Grupo_1116979" data-name="Grupo 1116979" transform="translate(48.62)">
            <g id="Grupo_1116932" data-name="Grupo 1116932" transform="translate(0 233.736)">
              <path id="Trazado_908137" data-name="Trazado 908137" d="M253.169,439.749V428.828l19.57-.132.162,16.332-1.214.09c-5.4.348-27.472,1.025-31.088-.1C236.566,443.775,253.169,439.749,253.169,439.749Z" transform="translate(-239.967 -428.696)" fill="#636363"/>
              <g id="Grupo_1116926" data-name="Grupo 1116926" transform="translate(0.169 14.994)">
                <path id="Trazado_908138" data-name="Trazado 908138" d="M240.132,443.62c0,.184,7.32.333,16.349.333s16.35-.149,16.35-.333-7.319-.333-16.35-.333S240.132,443.437,240.132,443.62Z" transform="translate(-240.132 -443.287)" fill="#263238"/>
              </g>
              <g id="Grupo_1116927" data-name="Grupo 1116927" transform="translate(11.367 11.277)">
                <path id="Trazado_908139" data-name="Trazado 908139" d="M252.519,441.675c.16-.085.023-.662-.4-1.23s-.93-.875-1.058-.746.138.612.523,1.14S252.355,441.762,252.519,441.675Z" transform="translate(-251.029 -439.67)" fill="#263238"/>
              </g>
              <g id="Grupo_1116928" data-name="Grupo 1116928" transform="translate(10.228 11.612)">
                <path id="Trazado_908140" data-name="Trazado 908140" d="M251.3,442.384c.17-.063.082-.71-.3-1.39s-.892-1.092-1.035-.979.1.671.455,1.3S251.127,442.452,251.3,442.384Z" transform="translate(-249.92 -439.996)" fill="#263238"/>
              </g>
              <g id="Grupo_1116929" data-name="Grupo 1116929" transform="translate(26.953 11.42)">
                <path id="Trazado_908141" data-name="Trazado 908141" d="M266.214,443.643c.077.053.368-.233.791-.714a12.8,12.8,0,0,1,1.716-1.719,4.5,4.5,0,0,1,2.118-.925c.6-.08.986.012,1.018-.084.034-.071-.329-.344-1.034-.386a3.9,3.9,0,0,0-2.508.867,7.141,7.141,0,0,0-1.689,1.97C266.291,443.214,266.14,443.592,266.214,443.643Z" transform="translate(-266.195 -439.809)" fill="#263238"/>
              </g>
              <g id="Grupo_1116930" data-name="Grupo 1116930" transform="translate(12.782 11.148)">
                <path id="Trazado_908142" data-name="Trazado 908142" d="M252.421,439.625c-.1.154.239.533.8.738s1.061.135,1.086-.045-.367-.4-.857-.579S252.518,439.467,252.421,439.625Z" transform="translate(-252.405 -439.544)" fill="#263238"/>
              </g>
              <g id="Grupo_1116931" data-name="Grupo 1116931" transform="translate(13.105 9.857)">
                <path id="Trazado_908143" data-name="Trazado 908143" d="M252.72,438.6c-.018.182.5.34,1.164.347s1.186-.133,1.174-.315-.534-.339-1.165-.348S252.738,438.422,252.72,438.6Z" transform="translate(-252.72 -438.288)" fill="#263238"/>
              </g>
            </g>
            <g id="Grupo_1116939" data-name="Grupo 1116939" transform="translate(41.311 233.736)">
              <path id="Trazado_908144" data-name="Trazado 908144" d="M293.369,439.749V428.828l19.57-.132.161,16.332-1.213.09c-5.4.348-27.472,1.025-31.089-.1C276.766,443.775,293.369,439.749,293.369,439.749Z" transform="translate(-280.167 -428.696)" fill="#636363"/>
              <g id="Grupo_1116933" data-name="Grupo 1116933" transform="translate(0.169 14.994)">
                <path id="Trazado_908145" data-name="Trazado 908145" d="M280.332,443.62c0,.184,7.321.333,16.349.333s16.35-.149,16.35-.333-7.319-.333-16.35-.333S280.332,443.437,280.332,443.62Z" transform="translate(-280.332 -443.287)" fill="#263238"/>
              </g>
              <g id="Grupo_1116934" data-name="Grupo 1116934" transform="translate(11.367 11.277)">
                <path id="Trazado_908146" data-name="Trazado 908146" d="M292.719,441.675c.16-.085.023-.662-.4-1.23s-.931-.875-1.058-.746.137.612.523,1.14S292.556,441.762,292.719,441.675Z" transform="translate(-291.229 -439.67)" fill="#263238"/>
              </g>
              <g id="Grupo_1116935" data-name="Grupo 1116935" transform="translate(10.229 11.612)">
                <path id="Trazado_908147" data-name="Trazado 908147" d="M291.5,442.384c.17-.063.082-.71-.3-1.39s-.892-1.092-1.034-.979.1.671.454,1.3S291.327,442.452,291.5,442.384Z" transform="translate(-290.121 -439.996)" fill="#263238"/>
              </g>
              <g id="Grupo_1116936" data-name="Grupo 1116936" transform="translate(26.953 11.42)">
                <path id="Trazado_908148" data-name="Trazado 908148" d="M306.414,443.643c.077.053.368-.233.791-.714a12.879,12.879,0,0,1,1.717-1.719,4.492,4.492,0,0,1,2.117-.925c.6-.08.986.012,1.018-.084.034-.071-.329-.344-1.034-.386a3.9,3.9,0,0,0-2.507.867,7.146,7.146,0,0,0-1.69,1.97C306.492,443.214,306.34,443.592,306.414,443.643Z" transform="translate(-306.395 -439.809)" fill="#263238"/>
              </g>
              <g id="Grupo_1116937" data-name="Grupo 1116937" transform="translate(12.782 11.148)">
                <path id="Trazado_908149" data-name="Trazado 908149" d="M292.621,439.625c-.1.154.24.533.8.738s1.061.135,1.087-.045-.368-.4-.857-.579S292.718,439.467,292.621,439.625Z" transform="translate(-292.605 -439.544)" fill="#263238"/>
              </g>
              <g id="Grupo_1116938" data-name="Grupo 1116938" transform="translate(13.105 9.857)">
                <path id="Trazado_908150" data-name="Trazado 908150" d="M292.92,438.6c-.017.182.5.34,1.164.347s1.187-.133,1.174-.315-.534-.339-1.165-.348S292.938,438.422,292.92,438.6Z" transform="translate(-292.92 -438.288)" fill="#263238"/>
              </g>
            </g>
            <path id="Trazado_908151" data-name="Trazado 908151" d="M348.382,249.758c-.806-.178-1.8-.075-2.285-.746-.438-.611-.132-1.45.123-2.159a10.234,10.234,0,0,0,.071-7.074,7.971,7.971,0,0,0-2.944-3.711,3.315,3.315,0,0,0,.5-.638,4.431,4.431,0,0,0,.555-2.244,4.95,4.95,0,0,0-1.5-3.746,2.38,2.38,0,0,0-3.216-.041,1.636,1.636,0,0,0-.046,2.392,1.491,1.491,0,0,0,1.562.2.729.729,0,0,0,.395-.392,1.842,1.842,0,0,1-.439.294,1.313,1.313,0,0,1-1.258-2.282,2.058,2.058,0,0,1,2.76.123,4.589,4.589,0,0,1,1.3,3.454,3.986,3.986,0,0,1-.515,2.007,2.918,2.918,0,0,1-.5.611,6.685,6.685,0,0,0-1.765-.721c-1.328-.323-2.774-.243-3.986-.871a4.839,4.839,0,0,1-2.161-2.592c-.006-.119-.021-.238-.018-.359a50.911,50.911,0,0,1,.739-5.328,16.347,16.347,0,0,0-.14-5.106,9.581,9.581,0,0,0-4.9-6.885,6.7,6.7,0,0,0-5.708-.1,5.208,5.208,0,0,0-1.32.876c-.1.1-.154.16-.213.224A4.691,4.691,0,0,0,321.9,216.2l-3.171,28.546,23.222,14.192a17.314,17.314,0,0,0,5.293-1.072,5.85,5.85,0,0,0,3.534-3.846,3.587,3.587,0,0,0-2.4-4.263Zm-15.248-29.894a8.955,8.955,0,0,0-4.717-5.129,6.133,6.133,0,0,0-4.7.08,6.058,6.058,0,0,1,1.362-.788,6.586,6.586,0,0,1,5.455.252,9.257,9.257,0,0,1,4.58,6.642,16.073,16.073,0,0,1,.1,4.949c-.127,1.281-.487,2.58-.659,3.962a27.493,27.493,0,0,1-.218-2.94A21.4,21.4,0,0,0,333.134,219.864Z" transform="translate(-237.79 -200.915)" fill="#263238"/>
            <g id="Grupo_1116944" data-name="Grupo 1116944" transform="translate(58.276)">
              <path id="Trazado_908152" data-name="Trazado 908152" d="M326.847,220.146a2.492,2.492,0,0,0-.907-1.377,3.76,3.76,0,0,0-2.779-.124l-.054-6.552-12.81-10.38-6.866,3.565a10.748,10.748,0,0,0-5.8,9.642c.05,5.281.183,12.446.53,16.509.6,6.985,7.669,7.56,7.669,7.56s.3,2.518.516,5.021c0,.014-1.555,20.688,5.724,20.5,5.363-.137,8.967-11.41,10.494-17.34l.8-3.258v-.169l.028-.137h-.029l-.16-19.62.221.225a1.521,1.521,0,0,0,1.691.207,3.134,3.134,0,0,0,1.681-1.791,3.907,3.907,0,0,0,.051-2.481Z" transform="translate(-296.649 -201.233)" fill="#ffbe9d"/>
              <g id="Grupo_1116940" data-name="Grupo 1116940" transform="translate(1.733 16.71)">
                <path id="Trazado_908153" data-name="Trazado 908153" d="M299.245,219.56a.9.9,0,1,0,.873-.918.9.9,0,0,0-.873.918Z" transform="translate(-298.338 -217.475)" fill="#263238"/>
                <path id="Trazado_908154" data-name="Trazado 908154" d="M298.378,218.635c.119.113.767-.464,1.73-.54s1.7.371,1.794.239c.048-.059-.077-.269-.4-.479a2.383,2.383,0,0,0-2.813.24C298.409,218.358,298.322,218.586,298.378,218.635Z" transform="translate(-298.362 -217.507)" fill="#263238"/>
              </g>
              <g id="Grupo_1116941" data-name="Grupo 1116941" transform="translate(12.429 16.394)">
                <path id="Trazado_908155" data-name="Trazado 908155" d="M309.351,219.26a.9.9,0,1,0,.873-.917A.9.9,0,0,0,309.351,219.26Z" transform="translate(-308.755 -217.168)" fill="#263238"/>
                <path id="Trazado_908156" data-name="Trazado 908156" d="M308.787,218.329c.118.113.766-.466,1.728-.542s1.7.372,1.794.24c.048-.059-.076-.269-.4-.479a2.383,2.383,0,0,0-2.812.239C308.817,218.051,308.73,218.279,308.787,218.329Z" transform="translate(-308.771 -217.2)" fill="#263238"/>
              </g>
              <g id="Grupo_1116942" data-name="Grupo 1116942" transform="translate(6.657 17.394)">
                <path id="Trazado_908157" data-name="Trazado 908157" d="M305.651,226.584a6.1,6.1,0,0,1-1.586.125,1.633,1.633,0,0,1-.421-.028.61.61,0,0,1-.425-.342,1.566,1.566,0,0,1,.069-1.018q.277-.965.582-2.022a35.3,35.3,0,0,1,1.735-5.126,35.263,35.263,0,0,1-1.336,5.244q-.321,1.054-.612,2.013a1.362,1.362,0,0,0-.119.774c.051.172.287.2.533.211A6.054,6.054,0,0,1,305.651,226.584Z" transform="translate(-303.154 -218.173)" fill="#263238"/>
              </g>
              <path id="Trazado_908158" data-name="Trazado 908158" d="M308.955,227.124c.067-.08-2.781,1.717-4.748,1.764a2.666,2.666,0,0,0,3.216.829A2.214,2.214,0,0,0,308.955,227.124Z" transform="translate(-296.468 -200.531)" fill="#fafafa"/>
              <path id="Trazado_908159" data-name="Trazado 908159" d="M305.61,238.076a17.468,17.468,0,0,0,9.191-3.354s-1.976,5.186-9,5.066Z" transform="translate(-296.429 -200.321)" fill="#eb996e"/>
              <path id="Trazado_908160" data-name="Trazado 908160" d="M296.676,215.774c3.045.422,5.293-.411,8.276-1.162S310.765,211.9,311.8,209a10.521,10.521,0,0,0,2.549,5.132c.286.312.82.6,1.074.263a.765.765,0,0,0,.031-.642l-.617-2.44a19.736,19.736,0,0,0,4.06,5.086c1.7,1.364,6.887,3.481,6.1,1.446-.2-.511,1.539-16.361-13.524-16.6S296.676,215.774,296.676,215.774Z" transform="translate(-296.676 -201.246)" fill="#263238"/>
              <g id="Grupo_1116943" data-name="Grupo 1116943" transform="translate(26.688 18.698)">
                <path id="Trazado_908161" data-name="Trazado 908161" d="M322.655,219.783c-.042-.044.261-.361.907-.341a1.685,1.685,0,0,1-.006,3.366c-.647.016-.949-.3-.906-.345.037-.075.365.075.862-.031a1.328,1.328,0,0,0,.005-2.613C323.02,219.71,322.691,219.859,322.655,219.783Z" transform="translate(-322.646 -219.441)" fill="#eb996e"/>
              </g>
            </g>
            <g id="Grupo_1116967" data-name="Grupo 1116967" transform="translate(36.67 42.374)">
              <path id="Trazado_908162" data-name="Trazado 908162" d="M349.015,268.369l2.589-.525s-5.642-25.363-25.247-25.363c-.823,0-1.6,0-2.356.005,0,.007-.011.057-.027.132v.169l-.8,3.258c-1.527,5.931-5.131,17.2-10.494,17.34-6.791.174-5.895-17.8-5.742-20.225a1.69,1.69,0,0,0-.5.132s-21.326,1.187-30.787,19.888l16.44,12.014,4.023-2.43s1.31,26.456-.947,33.654c-2.555,8.145-6.5,17.16-6.5,17.16,18.083-1.41,38.64-.6,60.563,1.422l-14.65-53.7a49.917,49.917,0,0,0,14.435-2.931Z" transform="translate(-275.651 -242.481)" fill="#636363"/>
              <g id="Grupo_1116964" data-name="Grupo 1116964" transform="translate(12.227 6.504)">
                <g id="Grupo_1116945" data-name="Grupo 1116945" transform="translate(27.153 31.473)">
                  <path id="Trazado_908163" data-name="Trazado 908163" d="M330.315,280.035c.024.023-.129.234-.456.571a9.186,9.186,0,0,1-1.555,1.25,10.842,10.842,0,0,1-12.456-.452,9.145,9.145,0,0,1-1.458-1.36c-.3-.36-.44-.582-.414-.6.07-.064.733.739,2.092,1.655a11.228,11.228,0,0,0,12.04.439C329.529,280.718,330.249,279.965,330.315,280.035Z" transform="translate(-313.972 -279.437)" fill="#263238"/>
                </g>
                <g id="Grupo_1116946" data-name="Grupo 1116946" transform="translate(42.712 13.727)">
                  <path id="Trazado_908164" data-name="Trazado 908164" d="M339.4,294.618a6.446,6.446,0,0,1-.447-1.265c-.278-.928-.63-2.1-1.048-3.495-.877-2.952-2.1-7.028-3.513-11.505s-2.77-8.514-3.754-11.432c-.461-1.382-.848-2.542-1.155-3.46a6.331,6.331,0,0,1-.362-1.292,6.485,6.485,0,0,1,.558,1.22c.328.8.778,1.962,1.315,3.406,1.077,2.889,2.485,6.911,3.907,11.4s2.585,8.583,3.368,11.565c.393,1.491.694,2.7.885,3.542a6.4,6.4,0,0,1,.246,1.316Z" transform="translate(-329.112 -262.168)" fill="#263238"/>
                </g>
                <g id="Grupo_1116947" data-name="Grupo 1116947" transform="translate(41.672 3.484)">
                  <path id="Trazado_908165" data-name="Trazado 908165" d="M333.059,254.34a9.666,9.666,0,0,1-4.955-2.117,23.819,23.819,0,0,1,4.955,2.117Z" transform="translate(-328.101 -252.2)" fill="#263238"/>
                </g>
                <g id="Grupo_1116948" data-name="Grupo 1116948" transform="translate(51.654 8.576)">
                  <path id="Trazado_908166" data-name="Trazado 908166" d="M337.847,263a17.837,17.837,0,0,1,1.941-5.844A17.815,17.815,0,0,1,337.847,263Z" transform="translate(-337.814 -257.155)" fill="#263238"/>
                </g>
                <g id="Grupo_1116949" data-name="Grupo 1116949" transform="translate(34.066 15.551)">
                  <path id="Trazado_908167" data-name="Trazado 908167" d="M320.719,269.136a24.42,24.42,0,0,1,2.517-5.192,11.613,11.613,0,0,1-2.517,5.192Z" transform="translate(-320.699 -263.942)" fill="#263238"/>
                </g>
                <g id="Grupo_1116950" data-name="Grupo 1116950" transform="translate(26.816 21.803)">
                  <path id="Trazado_908168" data-name="Trazado 908168" d="M317.726,274.54a11.3,11.3,0,0,1-4.068-4.509A38.576,38.576,0,0,1,317.726,274.54Z" transform="translate(-313.644 -270.026)" fill="#263238"/>
                </g>
                <g id="Grupo_1116951" data-name="Grupo 1116951" transform="translate(38.165 25.475)">
                  <path id="Trazado_908169" data-name="Trazado 908169" d="M330.191,273.6a9.57,9.57,0,0,1-2.2,2.938,15.4,15.4,0,0,1-2.54,2.2l-.761.465.6-.608c.143-.145.235-.213.267-.191s0,.133-.092.315l-.157-.144c.36-.439,1.27-1.333,2.3-2.406a18.823,18.823,0,0,1,2.583-2.569Z" transform="translate(-324.688 -273.599)" fill="#263238"/>
                </g>
                <g id="Grupo_1116952" data-name="Grupo 1116952" transform="translate(41.164 40.715)">
                  <path id="Trazado_908170" data-name="Trazado 908170" d="M332.827,291.531a10.871,10.871,0,0,1-5.215-3.089,43.667,43.667,0,0,1,5.215,3.089Z" transform="translate(-327.607 -288.429)" fill="#263238"/>
                </g>
                <g id="Grupo_1116953" data-name="Grupo 1116953" transform="translate(29.988 39.625)">
                  <path id="Trazado_908171" data-name="Trazado 908171" d="M320.259,287.374a18.041,18.041,0,0,1-3.514,5.1,18.1,18.1,0,0,1,3.514-5.1Z" transform="translate(-316.731 -287.369)" fill="#263238"/>
                </g>
                <g id="Grupo_1116954" data-name="Grupo 1116954" transform="translate(21.092 37.339)">
                  <path id="Trazado_908172" data-name="Trazado 908172" d="M312.048,288.262a6.158,6.158,0,0,1-2.149-1.341c-1.1-.857-1.909-1.645-1.818-1.762a6.171,6.171,0,0,1,2.148,1.341C311.324,287.357,312.138,288.145,312.048,288.262Z" transform="translate(-308.074 -285.144)" fill="#263238"/>
                </g>
                <g id="Grupo_1116955" data-name="Grupo 1116955" transform="translate(16.587 27.971)">
                  <path id="Trazado_908173" data-name="Trazado 908173" d="M307.594,276.046c.086.12-.717.84-1.793,1.607s-2.018,1.292-2.1,1.172.717-.84,1.794-1.608S307.509,275.926,307.594,276.046Z" transform="translate(-303.69 -276.029)" fill="#263238"/>
                </g>
                <g id="Grupo_1116956" data-name="Grupo 1116956" transform="translate(15.841 17.784)">
                  <path id="Trazado_908174" data-name="Trazado 908174" d="M305.872,269.938c-.118.089-.86-.693-1.659-1.746s-1.35-1.98-1.233-2.07.861.693,1.66,1.746S305.99,269.848,305.872,269.938Z" transform="translate(-302.965 -266.115)" fill="#263238"/>
                </g>
                <g id="Grupo_1116957" data-name="Grupo 1116957" transform="translate(37.046)">
                  <path id="Trazado_908175" data-name="Trazado 908175" d="M323.621,253.56a13.665,13.665,0,0,1,2.541-4.747,13.688,13.688,0,0,1-2.541,4.747Z" transform="translate(-323.599 -248.81)" fill="#263238"/>
                </g>
                <g id="Grupo_1116958" data-name="Grupo 1116958" transform="translate(9.187 2.732)">
                  <path id="Trazado_908176" data-name="Trazado 908176" d="M301.475,254.552a16.123,16.123,0,0,1-4.982-3.066,16.175,16.175,0,0,1,4.982,3.066Z" transform="translate(-296.489 -251.469)" fill="#263238"/>
                </g>
                <g id="Grupo_1116959" data-name="Grupo 1116959" transform="translate(0 2.739)">
                  <path id="Trazado_908177" data-name="Trazado 908177" d="M289.734,251.48c.126.076-.254.952-.85,1.957s-1.183,1.759-1.31,1.683.254-.951.85-1.957S289.606,251.4,289.734,251.48Z" transform="translate(-287.549 -251.475)" fill="#263238"/>
                </g>
                <g id="Grupo_1116960" data-name="Grupo 1116960" transform="translate(9.962 69.009)">
                  <path id="Trazado_908178" data-name="Trazado 908178" d="M301.931,319.109a14.938,14.938,0,0,1-4.683-3.13A14.938,14.938,0,0,1,301.931,319.109Z" transform="translate(-297.243 -315.962)" fill="#263238"/>
                </g>
                <g id="Grupo_1116961" data-name="Grupo 1116961" transform="translate(45.246 68.444)">
                  <path id="Trazado_908179" data-name="Trazado 908179" d="M335.334,315.421a7.371,7.371,0,0,1-1.675,2.216c-1.034,1.124-1.961,1.955-2.07,1.854a7.386,7.386,0,0,1,1.676-2.216C334.3,316.151,335.225,315.321,335.334,315.421Z" transform="translate(-331.579 -315.413)" fill="#263238"/>
                </g>
                <g id="Grupo_1116962" data-name="Grupo 1116962" transform="translate(25.586 68.186)">
                  <path id="Trazado_908180" data-name="Trazado 908180" d="M312.522,319.277c-.148-.037-.031-.946-.035-2.057s-.113-2.019.035-2.056.5.867.5,2.056S312.659,319.317,312.522,319.277Z" transform="translate(-312.447 -315.162)" fill="#263238"/>
                </g>
                <g id="Grupo_1116963" data-name="Grupo 1116963" transform="translate(33.065 69.604)">
                  <path id="Trazado_908181" data-name="Trazado 908181" d="M324.463,319.435a14.437,14.437,0,0,1-4.734-2.875A14.437,14.437,0,0,1,324.463,319.435Z" transform="translate(-319.725 -316.541)" fill="#263238"/>
                </g>
              </g>
              <g id="Grupo_1116965" data-name="Grupo 1116965" transform="translate(13.016 79.918)">
                <path id="Trazado_908182" data-name="Trazado 908182" d="M348.88,322.849a2.554,2.554,0,0,1-.619-.012L346.5,322.7l-6.476-.582c-5.467-.476-13.022-1.148-21.389-1.286-8.372-.159-15.953.049-21.436.262l-6.495.277-1.767.067a2.652,2.652,0,0,1-.619-.012,2.67,2.67,0,0,1,.611-.095l1.76-.167c1.53-.129,3.747-.293,6.49-.448,5.483-.309,13.076-.579,21.464-.419,8.39.139,15.956.874,21.417,1.445,2.73.292,4.937.556,6.461.75l1.752.237A2.869,2.869,0,0,1,348.88,322.849Z" transform="translate(-288.317 -320.25)" fill="#263238"/>
              </g>
              <g id="Grupo_1116966" data-name="Grupo 1116966" transform="translate(54.945 20.231)" opacity="0.2">
                <path id="Trazado_908183" data-name="Trazado 908183" d="M329.118,262.168l5.141,34.166s4.762-.04,5.628-1.415Z" transform="translate(-329.118 -262.168)"/>
                <path id="Trazado_908184" data-name="Trazado 908184" d="M329.118,262.168l5.141,34.166s4.762-.04,5.628-1.415Z" transform="translate(-329.118 -262.168)"/>
              </g>
            </g>
            <g id="Grupo_1116978" data-name="Grupo 1116978" transform="translate(10.836 122.483)">
              <path id="Trazado_908185" data-name="Trazado 908185" d="M301.453,320.771c-12.094.936-18.7.1-32.006,1.35a19,19,0,0,0-16.5,18.393l-2.332,100.511H275.06l3.861-90.115,7.209.913c-.927,33.747,2.6,89.2,2.6,89.2l27.14-1.323-1.551-86.548s36.514,2.479,35.6-30.308C349.922,322.844,321.167,319.36,301.453,320.771Z" transform="translate(-250.509 -320.435)" fill="#263238"/>
              <g id="Grupo_1116968" data-name="Grupo 1116968" transform="translate(35.4 0.06)">
                <path id="Trazado_908186" data-name="Trazado 908186" d="M307.815,320.507a13.978,13.978,0,0,1-1.85.315c-1.192.179-2.917.436-5.035.825a31.083,31.083,0,0,0-7.248,1.926,14.512,14.512,0,0,0-3.69,2.358,11.893,11.893,0,0,0-2.8,3.741,20.934,20.934,0,0,0-1.743,8.919c.031,2.839.107,5.419.082,7.578s-.094,3.907-.176,5.113c-.043.6-.082,1.07-.118,1.387a1.669,1.669,0,0,1-.08.481,13.889,13.889,0,0,1-.01-1.876c.019-1.206.04-2.949.006-5.1-.057-2.184-.123-4.747-.2-7.578a21.012,21.012,0,0,1,1.754-9.153,12.3,12.3,0,0,1,2.929-3.9,14.762,14.762,0,0,1,3.837-2.416,29.836,29.836,0,0,1,7.386-1.85c2.134-.342,3.872-.544,5.074-.659.6-.056,1.07-.094,1.387-.11A1.663,1.663,0,0,1,307.815,320.507Z" transform="translate(-284.96 -320.493)" fill="#455a64"/>
              </g>
              <g id="Grupo_1116969" data-name="Grupo 1116969" transform="translate(26.209 24.175)">
                <path id="Trazado_908187" data-name="Trazado 908187" d="M276.06,343.96a19.759,19.759,0,0,1,1.327,3.052,7.279,7.279,0,0,1,.829,3.248,20.115,20.115,0,0,1-1.327-3.052,7.28,7.28,0,0,1-.829-3.248Z" transform="translate(-276.016 -343.96)" fill="#455a64"/>
              </g>
              <g id="Grupo_1116970" data-name="Grupo 1116970" transform="translate(28.174 22.172)">
                <path id="Trazado_908188" data-name="Trazado 908188" d="M277.989,342.01a12.459,12.459,0,0,1,.71,4.135,8.945,8.945,0,0,1-.535,4.169c-.156-.031.119-1.87,0-4.144a24.577,24.577,0,0,1-.175-4.16Z" transform="translate(-277.928 -342.01)" fill="#455a64"/>
              </g>
              <g id="Grupo_1116973" data-name="Grupo 1116973" transform="translate(61.934 24.046)">
                <g id="Grupo_1116971" data-name="Grupo 1116971" transform="translate(0 0.014)">
                  <path id="Trazado_908189" data-name="Trazado 908189" d="M310.808,343.848a14.241,14.241,0,0,1,1.187,4.278,26.384,26.384,0,0,1,.662,4.379,14.364,14.364,0,0,1-1.187-4.28A26.654,26.654,0,0,1,310.808,343.848Z" transform="translate(-310.78 -343.847)" fill="#455a64"/>
                </g>
                <g id="Grupo_1116972" data-name="Grupo 1116972" transform="translate(1.961)">
                  <path id="Trazado_908190" data-name="Trazado 908190" d="M313.2,343.834a16.733,16.733,0,0,1-.473,8.671,40.8,40.8,0,0,1,.274-4.334,40.763,40.763,0,0,1,.2-4.337Z" transform="translate(-312.688 -343.834)" fill="#455a64"/>
                </g>
              </g>
              <g id="Grupo_1116974" data-name="Grupo 1116974" transform="translate(0 114.451)">
                <path id="Trazado_908191" data-name="Trazado 908191" d="M274.43,432.074c0,.148-5.355.267-11.959.267s-11.96-.119-11.96-.267,5.354-.267,11.96-.267S274.43,431.927,274.43,432.074Z" transform="translate(-250.512 -431.807)" fill="#455a64"/>
              </g>
              <g id="Grupo_1116975" data-name="Grupo 1116975" transform="translate(37.82 114.002)">
                <path id="Trazado_908192" data-name="Trazado 908192" d="M314.521,431.638c0,.147-6.09.267-13.6.267s-13.6-.12-13.6-.267,6.09-.268,13.6-.268S314.521,431.49,314.521,431.638Z" transform="translate(-287.315 -431.37)" fill="#455a64"/>
              </g>
              <g id="Grupo_1116976" data-name="Grupo 1116976" transform="translate(54.142 17.212)">
                <path id="Trazado_908193" data-name="Trazado 908193" d="M345.223,337.426a1.475,1.475,0,0,1-.346.027l-1.016.027c-.927.009-2.237.026-3.906.045l-14.368.07-9.918.033a23.429,23.429,0,0,0-5.423.627,8.575,8.575,0,0,0-4.759,2.948,9.865,9.865,0,0,0-1.748,5.646c-.1,2.073.116,4.207.2,6.4.119,4.363.243,8.88.369,13.506.516,18.51.947,35.267,1.1,47.4.082,6.066.108,10.976.1,14.368-.012,1.67-.021,2.98-.028,3.907-.008.422-.015.759-.021,1.016a1.691,1.691,0,0,1-.026.345,1.6,1.6,0,0,1-.029-.345c-.008-.257-.019-.593-.033-1.016-.016-.927-.041-2.236-.073-3.906-.065-3.425-.158-8.323-.274-14.362-.253-12.129-.745-28.883-1.261-47.392-.122-4.625-.242-9.142-.359-13.5-.075-2.168-.293-4.315-.183-6.441A10.332,10.332,0,0,1,305.1,340.9a9.042,9.042,0,0,1,5.028-3.1,23.8,23.8,0,0,1,5.535-.613l9.926.032,14.368.1,3.907.053,1.015.028A1.67,1.67,0,0,1,345.223,337.426Z" transform="translate(-303.197 -337.184)" fill="#455a64"/>
              </g>
              <path id="Trazado_908194" data-name="Trazado 908194" d="M282.356,351.138s-.95-12.18,3.621-19.182l-.725,19.549Z" transform="translate(-249.634 -320.116)" opacity="0.2"/>
              <g id="Grupo_1116977" data-name="Grupo 1116977" transform="translate(17.091 18.425)">
                <path id="Trazado_908195" data-name="Trazado 908195" d="M284.747,339.378a1.117,1.117,0,0,1-.276-.033l-.8-.146c-.7-.128-1.736-.336-3.078-.485a13.163,13.163,0,0,0-4.857.284,8.317,8.317,0,0,0-2.724,1.28,6.842,6.842,0,0,0-2.112,2.586c-1.047,2.159-1.155,4.862-1.213,7.693-.071,2.855-.147,5.9-.226,9.1-.17,6.416-.357,13.462-.553,20.86-.438,14.784-.833,28.165-1.121,37.9-.169,4.818-.3,8.73-.4,11.483-.058,1.324-.1,2.368-.137,3.122-.02.331-.036.6-.048.812a1.167,1.167,0,0,1-.035.275,1.054,1.054,0,0,1-.021-.277v-.812c.009-.756.021-1.8.036-3.125.055-2.755.135-6.669.231-11.487.248-9.737.589-23.118.965-37.9.211-7.4.412-14.442.594-20.859.1-3.2.19-6.249.275-9.1.079-2.831.2-5.6,1.317-7.847a7.166,7.166,0,0,1,2.251-2.7,8.549,8.549,0,0,1,2.848-1.294,13.1,13.1,0,0,1,4.958-.2,30.842,30.842,0,0,1,3.076.586l.789.2a1.034,1.034,0,0,1,.261.084Z" transform="translate(-267.143 -338.364)" fill="#455a64"/>
              </g>
            </g>
            <path id="Trazado_908196" data-name="Trazado 908196" d="M283.319,263.925s-25.811,25.877-30.736,31.669c-4.2,4.94-1.46,14.265,2.057,14.666s60.41-.373,60.41-.373l-.75-11.637s-36.845.165-37.928-.514S297.68,274.42,297.68,274.42Z" transform="translate(-239.677 -199.514)" fill="#ffbe9d"/>
            <path id="Trazado_908197" data-name="Trazado 908197" d="M350.367,267.215s7.841,23.764,8.79,26.574,5.817,14.69-3.43,15.686-58.889,0-58.889,0l-3.693-12.011s47.98-.121,47.737-2.684-7.288-24.029-7.288-24.029Z" transform="translate(-238.498 -199.423)" fill="#ffbe9d"/>
          </g>
          <g id="Grupo_1116980" data-name="Grupo 1116980" transform="translate(55.744 59.617)">
            <path id="Trazado_908198" data-name="Trazado 908198" d="M246.9,260.018l17.832,49.393,82.08-.035-.57-2.414-30.8-1.132-15.159-46.57Z" transform="translate(-246.899 -259.26)" fill="#263238"/>
            <path id="Trazado_908199" data-name="Trazado 908199" d="M282.654,281.957a2.9,2.9,0,1,1-3.413-2.809A3.145,3.145,0,0,1,282.654,281.957Z" transform="translate(-246.069 -258.711)" fill="#fafafa"/>
          </g>
          <path id="Trazado_908200" data-name="Trazado 908200" d="M390.762,307.015H192.655v141.8h4.2V315.369h193.9V448.915h49.56v-141.9Z" transform="translate(-192.655 -198.323)" fill="#455a64"/>
        </g>
        <g id="Grupo_1117017" data-name="Grupo 1117017" transform="translate(64.357 113.258)">
          <g id="Grupo_1116989" data-name="Grupo 1116989" transform="translate(72.208 326.629)">
            <g id="Grupo_1116982" data-name="Grupo 1116982">
              <path id="Trazado_908201" data-name="Trazado 908201" d="M153.8,439.9V429.287l-19.02-.126-.157,15.871,1.179.087c5.246.34,26.7,1,30.214-.09C169.936,443.814,153.8,439.9,153.8,439.9Z" transform="translate(-134.623 -429.161)" fill="#d9a171"/>
            </g>
            <g id="Grupo_1116983" data-name="Grupo 1116983" transform="translate(0.064 14.572)">
              <path id="Trazado_908202" data-name="Trazado 908202" d="M166.463,443.664c0,.179-7.113.325-15.888.325s-15.889-.146-15.889-.325,7.112-.323,15.889-.323S166.463,443.486,166.463,443.664Z" transform="translate(-134.685 -443.341)" fill="#263238"/>
            </g>
            <g id="Grupo_1116984" data-name="Grupo 1116984" transform="translate(19.447 10.959)">
              <path id="Trazado_908203" data-name="Trazado 908203" d="M153.611,441.773c-.156-.082-.023-.643.386-1.2s.9-.85,1.029-.725-.134.6-.508,1.107S153.77,441.859,153.611,441.773Z" transform="translate(-153.547 -439.825)" fill="#263238"/>
            </g>
            <g id="Grupo_1116985" data-name="Grupo 1116985" transform="translate(20.644 11.284)">
              <path id="Trazado_908204" data-name="Trazado 908204" d="M154.791,442.463c-.164-.062-.079-.691.295-1.351s.867-1.062,1.005-.953-.1.653-.442,1.27S154.961,442.529,154.791,442.463Z" transform="translate(-154.711 -440.142)" fill="#263238"/>
            </g>
            <g id="Grupo_1116986" data-name="Grupo 1116986" transform="translate(0.307 11.098)">
              <path id="Trazado_908205" data-name="Trazado 908205" d="M140.409,443.686c-.074.052-.358-.227-.769-.7a12.518,12.518,0,0,0-1.669-1.67,4.353,4.353,0,0,0-2.057-.9c-.578-.077-.958.012-.99-.081-.034-.069.32-.334,1.005-.375a3.782,3.782,0,0,1,2.437.843,6.944,6.944,0,0,1,1.643,1.913C140.334,443.27,140.48,443.637,140.409,443.686Z" transform="translate(-134.922 -439.961)" fill="#263238"/>
            </g>
            <g id="Grupo_1116987" data-name="Grupo 1116987" transform="translate(17.735 10.833)">
              <path id="Trazado_908206" data-name="Trazado 908206" d="M153.714,439.781c.092.151-.233.519-.776.718s-1.031.129-1.056-.045.358-.385.832-.561S153.621,439.628,153.714,439.781Z" transform="translate(-151.881 -439.703)" fill="#263238"/>
            </g>
            <g id="Grupo_1116988" data-name="Grupo 1116988" transform="translate(16.997 9.578)">
              <path id="Trazado_908207" data-name="Trazado 908207" d="M153.435,438.789c.019.178-.489.331-1.131.339s-1.152-.13-1.141-.308.519-.33,1.132-.338S153.419,438.612,153.435,438.789Z" transform="translate(-151.163 -438.482)" fill="#263238"/>
            </g>
          </g>
          <path id="Trazado_908208" data-name="Trazado 908208" d="M207,132.085l.176-3.211a27.418,27.418,0,0,0,.406-5.393,7.922,7.922,0,0,0-.474-2.638,12.113,12.113,0,0,0-1.444-3.013,1.037,1.037,0,0,1,.9-1.739c.9.232,2.759,2.381,3.6,5.587s3-1.54,3.818-3.256,3.6-6.9,4.325-7.071c1.067-.244,1.524.853.667,2.548-.868,1.715-3.071,6.956-2.143,7.346a4.92,4.92,0,0,1,2.025-.087.536.536,0,0,1,.42.451,6.221,6.221,0,0,0,.3,1.475s1.276-.408,1.6.134A5.621,5.621,0,0,1,221.59,125s.97-.432,1.481-.1c1.1.718-.084,2.229-.084,2.229a108.209,108.209,0,0,1-8.563,10.779l-7.472-6.013" transform="translate(-60.459 -111.317)" fill="#ffbe9d"/>
          <g id="Grupo_1116990" data-name="Grupo 1116990" transform="translate(47.358 8.945)">
            <path id="Trazado_908209" data-name="Trazado 908209" d="M118.053,131.456l-.125,40.989,17.586.839.508-9.97s6.246,1.24,7.857-4.561c1.03-3.706.773-32.342.773-32.342Z" transform="translate(-110.235 -119.845)" fill="#ffbe9d"/>
            <path id="Trazado_908210" data-name="Trazado 908210" d="M143.849,120.233c-5.349,1.733-6.641,2.31-9.038,2.5-2.3.184-18.688.2-20.175,9.383a6.717,6.717,0,0,1-.462-1.35,23.1,23.1,0,0,1-.2-2.713,3.408,3.408,0,0,0-.321,2.834,4.828,4.828,0,0,0,.176.593c-.106-.11-.21-.221-.331-.326a5.176,5.176,0,0,0-2.078-1.106c-.59-.144-.968-.113-.976-.047a14.1,14.1,0,0,1,2.7,1.557,6.944,6.944,0,0,1,1.382,1.64c0,.042-.008.081-.008.123,0,0-3.5-1.54-2.583,4.813s5.072,11.745,5.58,22.143c0,0,14.526,1.733,17.109-3.852l2.17-6.4s-3.495-.568-3.088-3.379c.562-3.89,3.534-3.989,5.748-2.256L142,137.561s6.457-4.236,6.825-6.931S149.2,118.5,143.849,120.233Z" transform="translate(-110.441 -120.022)" fill="#263238"/>
          </g>
          <g id="Grupo_1116993" data-name="Grupo 1116993" transform="translate(3.956 329.437)">
            <path id="Trazado_908211" data-name="Trazado 908211" d="M70.784,431.893l-2.577,11.466,17.754,2.194.636-11.36Z" transform="translate(-68.206 -431.893)" fill="#d9a171"/>
            <g id="Grupo_1116991" data-name="Grupo 1116991" transform="translate(8.855 0.561)">
              <path id="Trazado_908212" data-name="Trazado 908212" d="M78.561,432.44a26.393,26.393,0,0,1-.585,5.265,26.5,26.5,0,0,1-1.112,5.178,52.318,52.318,0,0,1,1.7-10.443Z" transform="translate(-76.824 -432.44)" fill="#263238"/>
            </g>
            <g id="Grupo_1116992" data-name="Grupo 1116992" transform="translate(0.45 9.221)">
              <path id="Trazado_908213" data-name="Trazado 908213" d="M86.018,444.057a13.915,13.915,0,0,1-2.571-.324c-1.767-.286-3.854-.624-6.159-1-2.406-.4-4.58-.8-6.142-1.154a11.5,11.5,0,0,1-2.5-.694,13.652,13.652,0,0,1,2.571.322c1.768.288,3.854.626,6.161,1,2.4.4,4.579.806,6.141,1.155a11.287,11.287,0,0,1,2.5.7Z" transform="translate(-68.645 -440.867)" fill="#263238"/>
            </g>
          </g>
          <g id="Grupo_1117000" data-name="Grupo 1117000" transform="translate(0 146.827)">
            <path id="Trazado_908214" data-name="Trazado 908214" d="M97.21,256.546,64.357,441.189l28.14,1.6s29.886-159.161,34.274-159.559c1.837-.167,2.575,158.3,4.052,157.963s30.4.514,30.4.514-3.913-187.5-3.844-187.508S97.21,256.546,97.21,256.546Z" transform="translate(-64.357 -254.195)" fill="#263238"/>
            <g id="Grupo_1116999" data-name="Grupo 1116999" transform="translate(1.802 25.141)">
              <g id="Grupo_1116994" data-name="Grupo 1116994" transform="translate(50.726)">
                <path id="Trazado_908215" data-name="Trazado 908215" d="M137.366,278.674c.031.144-4.846,1.3-10.891,2.587s-10.972,2.209-11,2.065,4.844-1.3,10.891-2.587S137.335,278.53,137.366,278.674Z" transform="translate(-115.473 -278.659)" fill="#455a64"/>
              </g>
              <g id="Grupo_1116995" data-name="Grupo 1116995" transform="translate(0 151.653)">
                <path id="Trazado_908216" data-name="Trazado 908216" d="M94.5,427.188c0,.148-6.364.07-14.2-.172s-14.193-.56-14.188-.707,6.363-.071,14.2.173S94.507,427.041,94.5,427.188Z" transform="translate(-66.111 -426.234)" fill="#455a64"/>
              </g>
              <g id="Grupo_1116996" data-name="Grupo 1116996" transform="translate(64.196 151.636)">
                <path id="Trazado_908217" data-name="Trazado 908217" d="M159.234,427.2c0,.147-6.871.063-15.334-.19s-15.325-.577-15.32-.725,6.869-.063,15.335.19S159.239,427.056,159.234,427.2Z" transform="translate(-128.58 -426.217)" fill="#455a64"/>
              </g>
              <g id="Grupo_1116997" data-name="Grupo 1116997" transform="translate(13.472 5.126)">
                <path id="Trazado_908218" data-name="Trazado 908218" d="M110.838,283.648c.145.032-6.816,32.971-15.545,73.563S79.367,430.7,79.223,430.667,86.038,397.7,94.769,357.1,110.695,283.617,110.838,283.648Z" transform="translate(-79.221 -283.648)" fill="#455a64"/>
              </g>
              <g id="Grupo_1116998" data-name="Grupo 1116998" transform="translate(77.928 4.335)">
                <path id="Trazado_908219" data-name="Trazado 908219" d="M143.658,430.708a2.012,2.012,0,0,1-.039-.381c-.015-.278-.036-.648-.062-1.119-.044-1.014-.106-2.459-.186-4.3-.153-3.739-.336-9.148-.531-15.835-.39-13.374-.773-31.853-.873-52.267s.109-38.9.371-52.281c.131-6.687.262-12.1.379-15.839l.144-4.3c.022-.47.038-.84.051-1.119a2.165,2.165,0,0,1,.035-.38,1.938,1.938,0,0,1,.02.381v1.121c-.01,1.015-.025,2.46-.044,4.307-.049,3.771-.12,9.176-.209,15.84-.164,13.377-.309,31.857-.214,52.274s.422,38.884.716,52.259c.152,6.663.275,12.067.362,15.838.036,1.846.065,3.29.085,4.308,0,.471.006.841.008,1.12a2.024,2.024,0,0,1-.013.373Z" transform="translate(-141.943 -282.878)" fill="#455a64"/>
              </g>
            </g>
          </g>
          <g id="Grupo_1117016" data-name="Grupo 1117016" transform="translate(10.749 19.843)">
            <path id="Trazado_908220" data-name="Trazado 908220" d="M207.706,130.626s-21.786,32.863-23.632,34.709-35.967,5.433-35.968,5.433c-10.475-2.366-44.344-1.585-50.743,3.126h0c-5.534,3.062-12.261,10.23-15.724,27.265-5.908,29.059-11.817,39.767,0,43.829a77.708,77.708,0,0,0,14.547,3.427l-.327,13.154,61.243-3.8L153.968,225.1c-.368-9.17-.54-18.73-.766-27.2,3.83-1.451,39.448-14.933,41.894-15.282,2.585-.369,25.9-43.5,25.9-43.5C221.738,133.948,207.706,130.626,207.706,130.626Z" transform="translate(-74.817 -130.626)" fill="#d9a171"/>
            <g id="Grupo_1117001" data-name="Grupo 1117001" transform="translate(21.007 59.476)">
              <path id="Trazado_908221" data-name="Trazado 908221" d="M97.295,188.5c.148,0-.181,16.009-.733,35.74s-1.119,35.733-1.267,35.729.18-16,.733-35.743S97.147,188.5,97.295,188.5Z" transform="translate(-95.259 -188.502)" fill="#263238"/>
            </g>
            <g id="Grupo_1117002" data-name="Grupo 1117002" transform="translate(109.244 34.706)">
              <path id="Trazado_908222" data-name="Trazado 908222" d="M184.2,171.8c-.143.08-1.043-1.517-1.784-3.6a26.925,26.925,0,0,1-1.282-3.793,10.674,10.674,0,0,1,1.784,3.606A26.891,26.891,0,0,1,184.2,171.8Z" transform="translate(-181.123 -164.398)" fill="#263238"/>
            </g>
            <g id="Grupo_1117003" data-name="Grupo 1117003" transform="translate(109.249 34.702)">
              <path id="Trazado_908223" data-name="Trazado 908223" d="M186.645,169a18.38,18.38,0,0,1-2.921-2.09,9.255,9.255,0,0,1-2.589-2.512,18.288,18.288,0,0,1,2.92,2.091A9.291,9.291,0,0,1,186.645,169Z" transform="translate(-181.128 -164.395)" fill="#263238"/>
            </g>
            <g id="Grupo_1117004" data-name="Grupo 1117004" transform="translate(130.572 3.338)">
              <path id="Trazado_908224" data-name="Trazado 908224" d="M216.306,141.609a13.067,13.067,0,0,1-2.065-1.241c-1.25-.8-2.993-1.866-4.982-2.932s-3.847-1.924-5.2-2.521a13.22,13.22,0,0,1-2.179-1.03,9.17,9.17,0,0,1,2.32.678,43.331,43.331,0,0,1,10.256,5.492,9.282,9.282,0,0,1,1.85,1.554Z" transform="translate(-201.877 -133.874)" fill="#263238"/>
            </g>
            <g id="Grupo_1117005" data-name="Grupo 1117005" transform="translate(14.907 93.741)">
              <path id="Trazado_908225" data-name="Trazado 908225" d="M96.725,223.479a12.063,12.063,0,0,1-3.788-.388,10.128,10.128,0,0,1-3.613-1.216,21.083,21.083,0,0,1,3.722.692,15.731,15.731,0,0,1,3.679.912Z" transform="translate(-89.323 -221.845)" fill="#263238"/>
            </g>
            <g id="Grupo_1117006" data-name="Grupo 1117006" transform="translate(66.446 39.632)">
              <path id="Trazado_908226" data-name="Trazado 908226" d="M151.914,169.236a30.512,30.512,0,0,0-3.284.772,12.73,12.73,0,0,0-8.758,12.277,30.255,30.255,0,0,0,.339,3.356,2.713,2.713,0,0,1-.331-.861,10.982,10.982,0,0,1-.386-2.487,12.5,12.5,0,0,1,9.021-12.646,10.934,10.934,0,0,1,2.478-.443,2.715,2.715,0,0,1,.921.032Z" transform="translate(-139.476 -169.192)" fill="#263238"/>
            </g>
            <g id="Grupo_1117007" data-name="Grupo 1117007" transform="translate(21.043 127.118)">
              <path id="Trazado_908227" data-name="Trazado 908227" d="M156.537,254.344c.009.147-13.694,1.12-30.6,2.17S95.3,258.3,95.294,258.15s13.691-1.119,30.606-2.171S156.528,254.2,156.537,254.344Z" transform="translate(-95.294 -254.325)" fill="#263238"/>
            </g>
            <g id="Grupo_1117008" data-name="Grupo 1117008" transform="translate(6.76 39.032)">
              <path id="Trazado_908228" data-name="Trazado 908228" d="M132.525,168.608a4.192,4.192,0,0,1,.181.761c.045.253.123.563.169.936s.075.816.119,1.295a20.066,20.066,0,0,1-1.326,8.135,19.227,19.227,0,0,1-7.629,9.45,12.32,12.32,0,0,1-1.561.838,14.372,14.372,0,0,1-1.67.693c-1.141.413-2.321.76-3.492,1.177a15.817,15.817,0,0,0-3.392,1.586,12.183,12.183,0,0,0-2.781,2.626,70.793,70.793,0,0,0-4.049,6.564,13.869,13.869,0,0,1-5.03,5.237,11.62,11.62,0,0,1-6.464,1.2,15.47,15.47,0,0,1-5.511-1.574,24.862,24.862,0,0,1-6.64-4.9c-.692-.687-1.2-1.243-1.55-1.622a4.324,4.324,0,0,1-.5-.6,4.114,4.114,0,0,1,.581.525l1.616,1.547a25.942,25.942,0,0,0,6.66,4.706,15.222,15.222,0,0,0,5.384,1.473,11.2,11.2,0,0,0,6.193-1.188,13.456,13.456,0,0,0,4.819-5.077,69.036,69.036,0,0,1,4.074-6.62,12.658,12.658,0,0,1,2.912-2.741,16.17,16.17,0,0,1,3.507-1.635l3.5-1.162a14.147,14.147,0,0,0,1.631-.668,12.083,12.083,0,0,0,1.516-.8,19.022,19.022,0,0,0,7.533-9.167,20.672,20.672,0,0,0,1.471-7.99q-.039-.712-.07-1.285c-.028-.371-.089-.681-.116-.935A4.377,4.377,0,0,1,132.525,168.608Z" transform="translate(-81.395 -168.608)" fill="#263238"/>
            </g>
            <g id="Grupo_1117009" data-name="Grupo 1117009" transform="translate(50.561 73.752)">
              <path id="Trazado_908229" data-name="Trazado 908229" d="M154.539,243.235c-.015.021-.234-.158-.683-.438a6.273,6.273,0,0,0-2.12-.868,30.449,30.449,0,0,0-3.658-.326c-1.427-.116-3.062-.126-4.878-.193a24.03,24.03,0,0,1-5.9-.826,19.834,19.834,0,0,1-6.169-2.968,17.243,17.243,0,0,1-5.043-5.637,16.446,16.446,0,0,1-2.068-7.846,14.221,14.221,0,0,1,7.8-12.878,12.924,12.924,0,0,1,3.373-1.125,20.638,20.638,0,0,1,3.323-.273,48.933,48.933,0,0,0,5.895-.174,8.535,8.535,0,0,0,6.872-4.282,6.5,6.5,0,0,0,.637-2.2c.063-.526.054-.807.081-.807.01,0,.018.069.026.206a4.5,4.5,0,0,1,0,.61,6.14,6.14,0,0,1-.557,2.281,7.3,7.3,0,0,1-2.407,2.827,10.049,10.049,0,0,1-4.6,1.74,47.591,47.591,0,0,1-5.939.243,20.208,20.208,0,0,0-3.247.293,12.481,12.481,0,0,0-3.236,1.1,13.774,13.774,0,0,0-7.49,12.434,16.03,16.03,0,0,0,1.993,7.6,16.835,16.835,0,0,0,4.873,5.49,19.539,19.539,0,0,0,6,2.941,24.045,24.045,0,0,0,5.8.875c1.8.09,3.447.128,4.886.273a27.831,27.831,0,0,1,3.679.421,5.96,5.96,0,0,1,2.132.98,5.072,5.072,0,0,1,.478.38C154.5,243.178,154.545,243.228,154.539,243.235Z" transform="translate(-124.018 -202.394)" fill="#263238"/>
            </g>
            <g id="Grupo_1117010" data-name="Grupo 1117010" transform="translate(22.608 90.868)">
              <path id="Trazado_908230" data-name="Trazado 908230" d="M121.253,257.826a10.588,10.588,0,0,0-.119-2.2,7.71,7.71,0,0,0-3.164-4.87,7.164,7.164,0,0,0-1.751-.854,10.921,10.921,0,0,0-2.1-.388,22.488,22.488,0,0,1-4.814-.652,6.144,6.144,0,0,1-2.3-1.4,7.477,7.477,0,0,1-1.565-2.324,10.754,10.754,0,0,1-.669-5.746c.572-3.953,2.308-7.357,2.611-10.706a10.545,10.545,0,0,0-.418-4.653,6.7,6.7,0,0,0-2.385-3.224,7.815,7.815,0,0,0-5.634-1.442,11.23,11.23,0,0,0-2.121.6,5.1,5.1,0,0,1,2.089-.8,7.881,7.881,0,0,1,5.887,1.34,7.06,7.06,0,0,1,2.579,3.38,10.89,10.89,0,0,1,.493,4.856c-.3,3.463-2.028,6.9-2.572,10.725a10.3,10.3,0,0,0,.621,5.467,6.969,6.969,0,0,0,1.441,2.166,5.637,5.637,0,0,0,2.108,1.292,22.776,22.776,0,0,0,4.7.678,11.208,11.208,0,0,1,2.179.436,7.46,7.46,0,0,1,1.842.938,7.774,7.774,0,0,1,3.154,5.144,6.294,6.294,0,0,1,.033,1.667,2.39,2.39,0,0,1-.12.566Z" transform="translate(-96.817 -219.05)" fill="#263238"/>
            </g>
            <g id="Grupo_1117011" data-name="Grupo 1117011" transform="translate(43.274 72.287)">
              <path id="Trazado_908231" data-name="Trazado 908231" d="M118.648,201.458c-.014-.022.213-.218.723-.371a3.44,3.44,0,0,1,2.221.148,3.484,3.484,0,0,1,1.294.9,3.123,3.123,0,0,1,.747,1.671,3.6,3.6,0,0,1-1.778,3.593,3.557,3.557,0,0,1-3.958-.618,3.012,3.012,0,0,1-.906-1.593,3.329,3.329,0,0,1,.073-1.579,3.274,3.274,0,0,1,1.28-1.821c.447-.294.746-.334.752-.309.02.044-.249.152-.626.475a3.3,3.3,0,0,0-1.04,1.75,2.72,2.72,0,0,0,.8,2.715,3.1,3.1,0,0,0,3.377.506,3.141,3.141,0,0,0,1.536-3.059,2.848,2.848,0,0,0-1.7-2.287,3.5,3.5,0,0,0-2.024-.292A7.426,7.426,0,0,1,118.648,201.458Z" transform="translate(-116.928 -200.968)" fill="#263238"/>
            </g>
            <g id="Grupo_1117012" data-name="Grupo 1117012" transform="translate(2.979 87.902)">
              <path id="Trazado_908232" data-name="Trazado 908232" d="M88.923,244.853c-.114-.024.369-1.807.482-4.746a20.849,20.849,0,0,0-.027-2.4,27.308,27.308,0,0,0-.272-2.74,28.5,28.5,0,0,0-4.553-11.657,27.494,27.494,0,0,0-1.657-2.2,20.972,20.972,0,0,0-1.607-1.783c-2.076-2.084-3.639-3.066-3.571-3.161a5.821,5.821,0,0,1,1.1.669,10.408,10.408,0,0,1,1.218.9,17.339,17.339,0,0,1,1.515,1.32,19.822,19.822,0,0,1,1.681,1.767,26.194,26.194,0,0,1,1.724,2.207A27.422,27.422,0,0,1,89.594,234.9a25.843,25.843,0,0,1,.228,2.791,19.663,19.663,0,0,1-.039,2.439,17.552,17.552,0,0,1-.218,2,10.593,10.593,0,0,1-.285,1.489,5.921,5.921,0,0,1-.357,1.234Z" transform="translate(-77.716 -216.164)" fill="#263238"/>
            </g>
            <g id="Grupo_1117013" data-name="Grupo 1117013" transform="translate(88.766 46.736)">
              <path id="Trazado_908233" data-name="Trazado 908233" d="M193.244,180.911a11.746,11.746,0,0,1-1.53-.678c-.975-.452-2.392-1.1-4.192-1.755a31.355,31.355,0,0,0-6.5-1.641,21.471,21.471,0,0,0-8.123.4A16.243,16.243,0,0,0,165.767,181a13.714,13.714,0,0,0-3.668,5.477,11.074,11.074,0,0,0-.62,4.423c.078,1.065.247,1.641.19,1.654a1.292,1.292,0,0,1-.146-.411,7.718,7.718,0,0,1-.252-1.224,10.564,10.564,0,0,1,.469-4.564,13.773,13.773,0,0,1,3.688-5.716,16.438,16.438,0,0,1,7.342-3.921,21.414,21.414,0,0,1,8.321-.371,29.919,29.919,0,0,1,6.564,1.776,38.685,38.685,0,0,1,4.151,1.924c.475.258.84.463,1.081.615S193.253,180.9,193.244,180.911Z" transform="translate(-161.196 -176.105)" fill="#263238"/>
            </g>
            <g id="Grupo_1117014" data-name="Grupo 1117014" transform="translate(114.581 5.505)">
              <path id="Trazado_908234" data-name="Trazado 908234" d="M200.963,135.984c.013-.012.109.07.28.24a8.04,8.04,0,0,1,.708.783,11.99,11.99,0,0,1,1.9,3.39,13.751,13.751,0,0,1,.814,5.712,14,14,0,0,1-2.234,6.7,13.609,13.609,0,0,1-5.33,4.628,14.24,14.24,0,0,1-5.575,1.48,12.543,12.543,0,0,1-3.869-.357,7.921,7.921,0,0,1-1.006-.321c-.226-.084-.341-.138-.335-.155a17.7,17.7,0,0,0,5.182.455A14.4,14.4,0,0,0,196.88,157a13.412,13.412,0,0,0,5.1-4.484,13.9,13.9,0,0,0,1.511-11.987,16.852,16.852,0,0,0-2.528-4.54Z" transform="translate(-186.317 -135.983)" fill="#263238"/>
            </g>
            <g id="Grupo_1117015" data-name="Grupo 1117015" transform="translate(44.277 38.687)">
              <path id="Trazado_908235" data-name="Trazado 908235" d="M135.758,168.48a74.569,74.569,0,0,1-8.925.337,74.826,74.826,0,0,1-8.93-.2,74.7,74.7,0,0,1,8.926-.336,74.983,74.983,0,0,1,8.929.2Z" transform="translate(-117.903 -168.272)" fill="#263238"/>
            </g>
          </g>
        </g>
      </g>
      <g id="Grupo_1117029" data-name="Grupo 1117029" transform="translate(200.736 5419.002)">
        <path id="Trazado_908236" data-name="Trazado 908236" d="M-480.491,2403.3a29.994,29.994,0,0,1-9.941,41.237,29.994,29.994,0,0,1-41.237-9.941,29.993,29.993,0,0,1,9.941-41.238A29.994,29.994,0,0,1-480.491,2403.3Z" transform="translate(536.08 -2388.947)" fill="#fd9826"/>
        <g id="Grupo_1117019" data-name="Grupo 1117019" transform="translate(0 4.409)" opacity="0.1">
          <path id="Trazado_908237" data-name="Trazado 908237" d="M-521.728,2394a29.993,29.993,0,0,0-9.941,41.238s18.472-10.19,18.37-20.078S-521.728,2394-521.728,2394Z" transform="translate(536.08 -2393.998)" fill="#fff"/>
        </g>
        <g id="Grupo_1117020" data-name="Grupo 1117020" transform="translate(6.54 7.036)">
          <path id="Trazado_908238" data-name="Trazado 908238" d="M-486.33,2407.916a22.8,22.8,0,0,1-7.557,31.349,22.8,22.8,0,0,1-31.349-7.557,22.8,22.8,0,0,1,7.557-31.349,22.8,22.8,0,0,1,31.349,7.557Z" transform="translate(528.588 -2397.007)" fill="#e1e1e1"/>
        </g>
        <g id="Grupo_1117021" data-name="Grupo 1117021" transform="translate(8.153 7.657)">
          <path id="Trazado_908239" data-name="Trazado 908239" d="M-485.05,2408.481a22.5,22.5,0,0,1-7.456,30.928,22.5,22.5,0,0,1-30.928-7.456,22.5,22.5,0,0,1,7.457-30.928,22.5,22.5,0,0,1,30.927,7.456Z" transform="translate(526.741 -2397.718)" fill="#fed401"/>
        </g>
        <g id="Grupo_1117023" data-name="Grupo 1117023" transform="translate(19.243 17.618)">
          <g id="Grupo_1117022" data-name="Grupo 1117022" transform="translate(1.235 0.002)">
            <path id="Trazado_908240" data-name="Trazado 908240" d="M-502.7,2419.535l-3-4.91.024-.015a11.825,11.825,0,0,1,3.025-.916,9.6,9.6,0,0,1,1.694.024l-.028-.192-.324-2.231-.074-.512-1.437-.384-.3.447a10.789,10.789,0,0,0-4.185,1.148l-1.651-2.7-1.255-.164.415.678-1.154.705,1.681,2.749c-3.572,2.685-4.048,5.951-2.53,8.433,2.067,3.381,5.5,2.486,8.6,1.492l2.975,4.865a10.96,10.96,0,0,1-6,1.127l.409,3.125a12.478,12.478,0,0,0,7.2-1.625l1.247,2.039-.939.6,1.344.065,1.995-1.221-1.666-2.725c3.581-2.725,4.1-5.981,2.579-8.462C-496.136,2417.592-499.6,2418.54-502.7,2419.535Zm-2.307.709c-1.664.449-3.037.554-3.751-.614-.655-1.071-.46-2.392,1.1-3.716ZM-505.707,2414.621Zm7.437,12.163-2.633-4.306c1.713-.48,3.125-.574,3.854.618.641,1.047.392,2.335-1.221,3.688Z" transform="translate(512.623 -2409.13)" fill="#e1e1e1"/>
          </g>
          <path id="Trazado_908241" data-name="Trazado 908241" d="M-498.06,2429.273l1.667,2.725-1.995,1.221-1.652-2.7a12.494,12.494,0,0,1-7.2,1.625l-.408-3.126a10.961,10.961,0,0,0,6-1.127l-2.976-4.866c-3.1,1-6.533,1.889-8.6-1.492-1.517-2.482-1.042-5.748,2.531-8.435l-1.681-2.749,1.995-1.219,1.651,2.7a12.238,12.238,0,0,1,5.848-1.536l.5,3.068a11.806,11.806,0,0,0-4.745,1.1l3,4.916c3.1-1,6.568-1.944,8.636,1.438C-493.962,2423.291-494.479,2426.548-498.06,2429.273Zm-8.364-9.193-2.648-4.331c-1.564,1.323-1.758,2.646-1.1,3.718.711,1.167,2.085,1.062,3.749.613Zm7.963,2.853c-.729-1.193-2.142-1.1-3.854-.618l2.633,4.307c1.614-1.354,1.861-2.643,1.222-3.689Z" transform="translate(514.038 -2409.128)" fill="#ececec"/>
        </g>
        <g id="Grupo_1117024" data-name="Grupo 1117024" transform="translate(1.263 33.923)">
          <path id="Trazado_908242" data-name="Trazado 908242" d="M-520.347,2449.211a1.233,1.233,0,0,1-.24-.125l-.667-.4a12.163,12.163,0,0,1-1.029-.668c-.39-.278-.849-.575-1.313-.961l-.742-.589c-.256-.207-.5-.444-.771-.678-.541-.46-1.067-1.008-1.63-1.572a32.284,32.284,0,0,1-3.244-4.047,32.326,32.326,0,0,1-2.493-4.551c-.305-.738-.609-1.433-.827-2.109-.114-.336-.238-.656-.329-.973l-.259-.91c-.179-.576-.277-1.115-.383-1.582s-.177-.873-.223-1.208c-.045-.313-.081-.569-.11-.768a1.175,1.175,0,0,1-.023-.27,1.336,1.336,0,0,1,.067.263l.151.759c.059.331.137.735.259,1.2s.225.994.413,1.565q.13.433.271.9c.1.313.224.63.34.962.224.67.532,1.358.84,2.088a33.747,33.747,0,0,0,2.491,4.51,33.607,33.607,0,0,0,3.208,4.03c.556.565,1.073,1.114,1.6,1.577.263.235.505.474.758.683l.728.6c.455.392.905.7,1.287.983s.721.517,1,.7l.643.431a1.273,1.273,0,0,1,.222.16Z" transform="translate(534.633 -2427.804)" fill="#fff"/>
        </g>
        <g id="Grupo_1117025" data-name="Grupo 1117025" transform="translate(19.928 26.218)">
          <path id="Trazado_908243" data-name="Trazado 908243" d="M-510.218,2423.8a1.881,1.881,0,0,1-.908-.216,3.583,3.583,0,0,1-1.674-1.506,3.582,3.582,0,0,1-.422-2.211,1.9,1.9,0,0,1,.286-.889c.037.012-.091.346-.129.9a3.8,3.8,0,0,0,.459,2.087,3.787,3.787,0,0,0,1.547,1.472C-510.561,2423.7-510.209,2423.762-510.218,2423.8Z" transform="translate(513.253 -2418.978)" fill="#fff"/>
        </g>
        <g id="Grupo_1117026" data-name="Grupo 1117026" transform="translate(21.766 19.332)">
          <path id="Trazado_908244" data-name="Trazado 908244" d="M-510.161,2412.692c-.053.032-.315-.3-.585-.741s-.446-.826-.394-.858.314.3.585.741S-510.108,2412.659-510.161,2412.692Z" transform="translate(511.149 -2411.091)" fill="#fff"/>
        </g>
        <g id="Grupo_1117027" data-name="Grupo 1117027" transform="translate(6.764 8.812)">
          <path id="Trazado_908245" data-name="Trazado 908245" d="M-516.193,2399.042a4.8,4.8,0,0,1-.641.358c-.21.106-.465.239-.753.409s-.625.346-.974.581-.744.47-1.142.763c-.409.276-.819.609-1.255.952a25.824,25.824,0,0,0-2.614,2.485,25.778,25.778,0,0,0-2.2,2.858c-.3.47-.585.912-.818,1.347-.251.426-.456.837-.642,1.214s-.338.726-.476,1.029-.247.571-.331.791a4.691,4.691,0,0,1-.289.674,4.467,4.467,0,0,1,.208-.7,7.956,7.956,0,0,1,.3-.809c.135-.309.26-.67.45-1.049s.376-.8.622-1.236c.227-.444.513-.892.807-1.37a24.293,24.293,0,0,1,2.21-2.9,24.408,24.408,0,0,1,2.65-2.5c.445-.341.862-.672,1.279-.943.406-.291.8-.531,1.166-.748s.7-.4,1-.556.557-.283.773-.377a4.545,4.545,0,0,1,.67-.273Z" transform="translate(528.332 -2399.041)" fill="#fff"/>
        </g>
        <g id="Grupo_1117028" data-name="Grupo 1117028" transform="translate(35.476 52.358)">
          <path id="Trazado_908246" data-name="Trazado 908246" d="M-482.966,2448.921a2.658,2.658,0,0,1-.381.4c-.253.251-.64.593-1.135,1a21.813,21.813,0,0,1-4.215,2.649,21.826,21.826,0,0,1-4.708,1.619c-.623.133-1.133.22-1.488.26a2.648,2.648,0,0,1-.552.043,2.6,2.6,0,0,1,.538-.13c.349-.065.851-.175,1.466-.327a24.811,24.811,0,0,0,4.648-1.666,24.887,24.887,0,0,0,4.213-2.573c.5-.383.9-.7,1.174-.935A2.651,2.651,0,0,1-482.966,2448.921Z" transform="translate(495.444 -2448.92)" fill="#fff"/>
        </g>
      </g>
      <g id="Grupo_1117043" data-name="Grupo 1117043" transform="translate(245.389 5370.781)">
        <g id="Grupo_1117042" data-name="Grupo 1117042">
          <g id="Grupo_1117036" data-name="Grupo 1117036">
            <circle id="Elipse_13474" data-name="Elipse 13474" cx="23.366" cy="23.366" r="23.366" transform="translate(0 8.015) rotate(-9.875)" fill="#fd9826"/>
            <g id="Grupo_1117030" data-name="Grupo 1117030" transform="translate(3.656 4.148)" opacity="0.1">
              <path id="Trazado_908247" data-name="Trazado 908247" d="M-463.263,2338.465a23.365,23.365,0,0,0-18.135,27.624s16.226-2.614,18.751-9.891S-463.263,2338.465-463.263,2338.465Z" transform="translate(481.89 -2338.465)" fill="#fff"/>
            </g>
            <g id="Grupo_1117031" data-name="Grupo 1117031" transform="translate(8.823 8.973)">
              <path id="Trazado_908248" data-name="Trazado 908248" d="M-440.812,2358.153a17.764,17.764,0,0,1-13.787,21,17.763,17.763,0,0,1-21-13.788,17.763,17.763,0,0,1,13.787-21,17.763,17.763,0,0,1,21,13.788Z" transform="translate(475.972 -2343.992)" fill="#e1e1e1"/>
            </g>
            <g id="Grupo_1117032" data-name="Grupo 1117032" transform="translate(9.937 9.787)">
              <path id="Trazado_908249" data-name="Trazado 908249" d="M-440.009,2358.894a17.525,17.525,0,0,1-13.6,20.718,17.524,17.524,0,0,1-20.718-13.6,17.523,17.523,0,0,1,13.6-20.718,17.523,17.523,0,0,1,20.718,13.6Z" transform="translate(474.696 -2344.924)" fill="#fed401"/>
            </g>
            <g id="Grupo_1117035" data-name="Grupo 1117035" transform="translate(19.637 16.078)">
              <g id="Grupo_1117033" data-name="Grupo 1117033" transform="translate(0.863)">
                <path id="Trazado_908250" data-name="Trazado 908250" d="M-455.257,2361.737l-.911-4.39h.021a9.193,9.193,0,0,1,2.46.124,7.53,7.53,0,0,1,1.235.462l.031-.148.349-1.72.08-.4-.952-.66-.341.248a8.376,8.376,0,0,0-3.371-.259l-.5-2.414-.877-.451.126.606-1.032.214.51,2.459c-3.326,1.029-4.534,3.3-4.074,5.517.627,3.023,3.378,3.27,5.914,3.357l.9,4.35a8.535,8.535,0,0,1-4.693-.75l-.523,2.4a9.724,9.724,0,0,0,5.7.7l.378,1.823-.847.191.969.4,1.784-.37-.505-2.436c3.343-1.056,4.577-3.308,4.117-5.527C-449.931,2362.04-452.72,2361.824-455.257,2361.737Zm-1.879-.087c-1.338-.108-2.373-.393-2.589-1.437-.2-.957.293-1.875,1.787-2.435ZM-456.169,2357.343Zm2.255,10.876-.8-3.849c1.382.1,2.443.4,2.664,1.467.2.935-.325,1.814-1.863,2.382Z" transform="translate(462.598 -2352.13)" fill="#e1e1e1"/>
              </g>
              <g id="Grupo_1117034" data-name="Grupo 1117034" transform="translate(0 0.004)">
                <path id="Trazado_908251" data-name="Trazado 908251" d="M-454.408,2370.147l.505,2.437-1.784.369-.5-2.415a9.716,9.716,0,0,1-5.7-.7l.523-2.4a8.543,8.543,0,0,0,4.694.751l-.9-4.351c-2.536-.087-5.287-.334-5.915-3.357-.46-2.219.748-4.489,4.075-5.519l-.51-2.458,1.784-.37.5,2.415a9.527,9.527,0,0,1,4.692.411l-.436,2.382a9.212,9.212,0,0,0-3.768-.444l.912,4.394c2.537.087,5.327.3,5.954,3.326C-449.83,2366.839-451.065,2369.091-454.408,2370.147Zm-3.715-8.941-.8-3.873c-1.495.56-1.984,1.479-1.786,2.436.209,1.044,1.248,1.331,2.586,1.438Zm5.088,4.187c-.221-1.066-1.282-1.367-2.664-1.467l.8,3.851c1.538-.569,2.059-1.448,1.865-2.384Z" transform="translate(463.586 -2352.135)" fill="#ececec"/>
              </g>
            </g>
          </g>
          <g id="Grupo_1117037" data-name="Grupo 1117037" transform="translate(4.393 22.348)">
            <path id="Trazado_908252" data-name="Trazado 908252" d="M-475.671,2378.765a.97.97,0,0,1-.143-.154l-.385-.466c-.168-.2-.368-.454-.579-.761s-.471-.645-.71-1.05l-.389-.627c-.134-.219-.252-.459-.387-.7-.276-.48-.517-1.02-.782-1.582a25.274,25.274,0,0,1-1.314-3.821,25.2,25.2,0,0,1-.631-3.992c-.03-.621-.07-1.211-.051-1.764.005-.277,0-.543.014-.8s.033-.5.049-.737c.021-.469.091-.89.135-1.26a9.334,9.334,0,0,1,.154-.943c.049-.242.09-.439.121-.592a1.037,1.037,0,0,1,.053-.2.942.942,0,0,1-.019.21c-.023.154-.052.353-.089.6s-.093.574-.124.945-.1.789-.109,1.257l-.038.732c-.011.254,0,.52,0,.795-.012.549.033,1.135.066,1.751a26.352,26.352,0,0,0,.64,3.963,26.34,26.34,0,0,0,1.292,3.8c.259.561.494,1.1.763,1.578.131.243.246.482.376.7l.377.629c.23.406.48.748.685,1.059s.393.569.553.776l.358.485a.917.917,0,0,1,.114.169Z" transform="translate(481.047 -2359.312)" fill="#fff"/>
          </g>
          <g id="Grupo_1117038" data-name="Grupo 1117038" transform="translate(20.117 21.689)">
            <path id="Trazado_908253" data-name="Trazado 908253" d="M-461.557,2362.809a1.468,1.468,0,0,1-.609-.4,2.8,2.8,0,0,1-.831-1.544,2.8,2.8,0,0,1,.272-1.733,1.473,1.473,0,0,1,.443-.576c.024.019-.158.229-.333.63a2.948,2.948,0,0,0-.211,1.651,2.954,2.954,0,0,0,.746,1.487C-461.782,2362.644-461.541,2362.784-461.557,2362.809Z" transform="translate(463.035 -2358.557)" fill="#fff"/>
          </g>
          <g id="Grupo_1117039" data-name="Grupo 1117039" transform="translate(23.779 17.043)">
            <path id="Trazado_908254" data-name="Trazado 908254" d="M-458.522,2354.667a1.611,1.611,0,0,1-.234-.7,1.617,1.617,0,0,1-.063-.733,1.609,1.609,0,0,1,.234.7,1.6,1.6,0,0,1,.063.733Z" transform="translate(458.841 -2353.236)" fill="#fff"/>
          </g>
          <g id="Grupo_1117040" data-name="Grupo 1117040" transform="translate(12.021 8.568)">
            <path id="Trazado_908255" data-name="Trazado 908255" d="M-459.867,2343.533a3.434,3.434,0,0,1-.563.094c-.182.022-.4.052-.66.1s-.55.09-.868.169-.669.15-1.038.26c-.373.095-.76.233-1.171.369a20.019,20.019,0,0,0-2.57,1.135,20.217,20.217,0,0,0-2.367,1.516c-.341.267-.669.515-.954.774s-.554.493-.79.722-.438.443-.62.629-.331.353-.45.492a3.483,3.483,0,0,1-.39.418,3.56,3.56,0,0,1,.338-.461c.112-.147.252-.323.43-.515s.367-.423.605-.652.487-.49.781-.743.612-.519.952-.792a18.974,18.974,0,0,1,2.382-1.542,19.062,19.062,0,0,1,2.6-1.133c.416-.132.808-.265,1.187-.355.374-.106.727-.178,1.051-.241s.619-.1.877-.145.483-.062.667-.073a3.488,3.488,0,0,1,.571-.026Z" transform="translate(472.309 -2343.528)" fill="#fff"/>
          </g>
          <g id="Grupo_1117041" data-name="Grupo 1117041" transform="translate(23.593 48.144)">
            <path id="Trazado_908256" data-name="Trazado 908256" d="M-448.334,2388.861a1.969,1.969,0,0,1-.385.2c-.252.118-.625.266-1.094.43a16.933,16.933,0,0,1-3.787.835,16.994,16.994,0,0,1-3.879-.052c-.492-.065-.888-.136-1.159-.2a2.153,2.153,0,0,1-.416-.113,2.011,2.011,0,0,1,.429.046c.273.045.67.1,1.16.146a19.477,19.477,0,0,0,3.847,0,19.453,19.453,0,0,0,3.766-.779c.471-.147.849-.278,1.107-.376a2.015,2.015,0,0,1,.411-.137Z" transform="translate(459.054 -2388.86)" fill="#fff"/>
          </g>
        </g>
      </g>
      <g id="Grupo_1117063" data-name="Grupo 1117063" transform="translate(513.599 5621)">
        <g id="Grupo_1117061" data-name="Grupo 1117061">
          <g id="Grupo_1117054" data-name="Grupo 1117054">
            <g id="Grupo_1117050" data-name="Grupo 1117050">
              <g id="Grupo_1117049" data-name="Grupo 1117049">
                <circle id="Elipse_13475" data-name="Elipse 13475" cx="36.531" cy="36.531" r="36.531" transform="translate(0 70.699) rotate(-75.408)" fill="#fd9826"/>
                <g id="Grupo_1117044" data-name="Grupo 1117044" transform="translate(9.203 8.024)" opacity="0.1">
                  <path id="Trazado_908257" data-name="Trazado 908257" d="M-169.609,2339.857a36.529,36.529,0,0,0-44.529,26.194s24.56,7.553,33.132-.9S-169.609,2339.857-169.609,2339.857Z" transform="translate(214.138 -2338.679)" fill="#fff"/>
                </g>
                <g id="Grupo_1117045" data-name="Grupo 1117045" transform="translate(16.371 16.081)">
                  <path id="Trazado_908258" data-name="Trazado 908258" d="M-151.267,2382.654a27.769,27.769,0,0,1-33.851,19.913,27.769,27.769,0,0,1-19.913-33.851,27.769,27.769,0,0,1,33.852-19.913,27.769,27.769,0,0,1,19.912,33.851Z" transform="translate(205.927 -2347.907)" fill="#d9a171"/>
                </g>
                <g id="Grupo_1117046" data-name="Grupo 1117046" transform="translate(16.371 16.081)" opacity="0.2">
                  <path id="Trazado_908259" data-name="Trazado 908259" d="M-151.267,2382.654a27.769,27.769,0,0,1-33.851,19.913,27.769,27.769,0,0,1-19.913-33.851,27.769,27.769,0,0,1,33.852-19.913,27.769,27.769,0,0,1,19.912,33.851Z" transform="translate(205.927 -2347.907)"/>
                </g>
                <g id="Grupo_1117047" data-name="Grupo 1117047" transform="translate(17.574 17.865)">
                  <path id="Trazado_908260" data-name="Trazado 908260" d="M-150.624,2384.23a27.4,27.4,0,0,1-33.4,19.645,27.4,27.4,0,0,1-19.646-33.4,27.4,27.4,0,0,1,33.4-19.645,27.4,27.4,0,0,1,19.646,33.4Z" transform="translate(204.549 -2349.95)" fill="#d9a171"/>
                </g>
                <g id="Grupo_1117048" data-name="Grupo 1117048" transform="translate(17.574 17.865)">
                  <path id="Trazado_908261" data-name="Trazado 908261" d="M-150.624,2384.23a27.4,27.4,0,0,1-33.4,19.645,27.4,27.4,0,0,1-19.646-33.4,27.4,27.4,0,0,1,33.4-19.645,27.4,27.4,0,0,1,19.646,33.4Z" transform="translate(204.549 -2349.95)" fill="#fed401"/>
                </g>
              </g>
            </g>
            <g id="Grupo_1117053" data-name="Grupo 1117053" transform="translate(31.903 27.155)">
              <g id="Grupo_1117051" data-name="Grupo 1117051" transform="translate(0.903 0.698)">
                <path id="Trazado_908262" data-name="Trazado 908262" d="M-173.277,2376.782l1.759-6.785.033.009a14.407,14.407,0,0,1,3.362,1.874,11.753,11.753,0,0,1,1.413,1.5l.144-.187,1.681-2.171.386-.5-.879-1.584-.65.111a13.088,13.088,0,0,0-4.547-2.693l.967-3.731-.919-1.238-.243.937-1.6-.414-.985,3.8c-5.375-.855-8.639,1.492-9.527,4.921-1.212,4.673,2.476,6.92,5.972,8.8l-1.743,6.723a13.327,13.327,0,0,1-6.061-4.3l-2.393,3c1.356,1.966,4.271,3.87,7.512,4.926l-.73,2.818-1.318-.318,1.081,1.231,2.757.715.976-3.765c5.417.83,8.706-1.473,9.6-4.9C-166.018,2380.887-169.78,2378.657-173.277,2376.782Zm-2.574-1.42c-1.8-1.077-3.056-2.191-2.637-3.806.383-1.478,1.706-2.427,4.189-2.178Zm4.335-5.37Zm-4.358,16.809,1.543-5.951c1.869,1.1,3.147,2.251,2.72,3.9-.374,1.443-1.713,2.316-4.263,2.05Z" transform="translate(187.102 -2361.391)" fill="#d9a171"/>
              </g>
              <g id="Grupo_1117052" data-name="Grupo 1117052" transform="translate(0.903 0.698)" opacity="0.3">
                <path id="Trazado_908263" data-name="Trazado 908263" d="M-173.277,2376.782l1.759-6.785.033.009a14.407,14.407,0,0,1,3.362,1.874,11.753,11.753,0,0,1,1.413,1.5l.144-.187,1.681-2.171.386-.5-.879-1.584-.65.111a13.088,13.088,0,0,0-4.547-2.693l.967-3.731-.919-1.238-.243.937-1.6-.414-.985,3.8c-5.375-.855-8.639,1.492-9.527,4.921-1.212,4.673,2.476,6.92,5.972,8.8l-1.743,6.723a13.327,13.327,0,0,1-6.061-4.3l-2.393,3c1.356,1.966,4.271,3.87,7.512,4.926l-.73,2.818-1.318-.318,1.081,1.231,2.757.715.976-3.765c5.417.83,8.706-1.473,9.6-4.9C-166.018,2380.887-169.78,2378.657-173.277,2376.782Zm-2.574-1.42c-1.8-1.077-3.056-2.191-2.637-3.806.383-1.478,1.706-2.427,4.189-2.178Zm4.335-5.37Zm-4.358,16.809,1.543-5.951c1.869,1.1,3.147,2.251,2.72,3.9-.374,1.443-1.713,2.316-4.263,2.05Z" transform="translate(187.102 -2361.391)"/>
              </g>
              <path id="Trazado_908264" data-name="Trazado 908264" d="M-177.856,2389.145l-.977,3.766-2.757-.714.968-3.732c-3.242-1.056-6.158-2.961-7.514-4.927l2.393-3a13.345,13.345,0,0,0,6.062,4.3l1.743-6.724c-3.5-1.875-7.184-4.124-5.972-8.8.89-3.429,4.153-5.777,9.529-4.921l.985-3.8,2.757.715-.968,3.732a14.892,14.892,0,0,1,6.295,3.82l-2.259,3.038a14.379,14.379,0,0,0-4.975-3.228l-1.761,6.792c3.5,1.876,7.26,4.107,6.048,8.78C-169.148,2387.672-172.438,2389.976-177.856,2389.145Zm.973-15.1,1.551-5.985c-2.483-.249-3.8.7-4.189,2.178-.417,1.611.836,2.725,2.638,3.8Zm4.24,9.388c.427-1.647-.852-2.8-2.721-3.9l-1.543,5.952c2.552.262,3.89-.61,4.265-2.056Z" transform="translate(188.136 -2360.591)" fill="#d9a171"/>
            </g>
          </g>
          <g id="Grupo_1117055" data-name="Grupo 1117055" transform="translate(37.547 18.157)">
            <path id="Trazado_908265" data-name="Trazado 908265" d="M-181.671,2404.052a1.54,1.54,0,0,1,.224.032l.652.121,1.056.205a10.4,10.4,0,0,0,1.448.227l1.828.177a7.474,7.474,0,0,0,1.048.035h1.134c.391-.013.8.024,1.214-.028l1.288-.129c.441-.053.9-.069,1.36-.156l1.414-.281a29.2,29.2,0,0,0,6.106-2.013q.769-.4,1.564-.821c.264-.142.535-.274.8-.426s.511-.333.768-.5c.512-.344,1.051-.663,1.56-1.041q.742-.6,1.506-1.2l.382-.3c.123-.108.237-.227.356-.34l.713-.693.721-.7a10.134,10.134,0,0,0,.673-.761c.435-.524.9-1.034,1.322-1.584q.593-.858,1.2-1.731a29.67,29.67,0,0,0,3.511-7.992,29.7,29.7,0,0,0,.815-8.694q-.1-1.057-.206-2.1c-.1-.687-.261-1.358-.386-2.028-.076-.331-.111-.671-.218-.992s-.2-.643-.291-.962l-.287-.952c-.05-.157-.092-.317-.147-.47l-.186-.453q-.371-.9-.732-1.784c-.261-.577-.577-1.119-.857-1.669l-.428-.812c-.155-.261-.328-.508-.49-.76l-.968-1.478a29.189,29.189,0,0,0-4.359-4.727l-1.1-.933c-.361-.3-.753-.536-1.113-.8l-1.063-.738c-.338-.248-.712-.414-1.048-.615s-.672-.374-.99-.552a7.689,7.689,0,0,0-.934-.478l-1.683-.734a10.447,10.447,0,0,0-1.376-.506q-.6-.2-1.023-.334l-.628-.21a1.45,1.45,0,0,1-.211-.081,1.5,1.5,0,0,1,.219.054l.636.185,1.033.31a10.115,10.115,0,0,1,1.389.483l1.7.715a7.46,7.46,0,0,1,.943.471l1,.545c.34.2.717.362,1.059.609l1.075.733c.363.259.76.5,1.125.794l1.113.933a29.1,29.1,0,0,1,4.417,4.74l.981,1.486c.164.253.339.5.5.765l.434.818c.284.553.6,1.1.87,1.681l.743,1.8.189.457c.056.154.1.315.149.474l.292.96q.147.483.3.971c.108.323.146.666.223,1,.127.676.289,1.354.393,2.047q.1,1.047.211,2.115a29.825,29.825,0,0,1-.819,8.78,29.832,29.832,0,0,1-3.55,8.068l-1.212,1.746c-.428.555-.9,1.069-1.338,1.6-.23.255-.429.536-.681.766l-.73.706-.721.7c-.121.113-.236.234-.361.342l-.387.307-1.523,1.21c-.514.38-1.06.7-1.577,1.046l-.777.5c-.265.153-.54.285-.806.427l-1.58.821a29.068,29.068,0,0,1-6.162,2l-1.427.274c-.464.084-.925.1-1.37.148l-1.3.118c-.419.05-.829.009-1.221.018l-1.14-.01a7.3,7.3,0,0,1-1.053-.047l-1.833-.2a10.152,10.152,0,0,1-1.449-.253l-1.054-.23-.646-.147A1.22,1.22,0,0,1-181.671,2404.052Z" transform="translate(181.671 -2350.285)" fill="#344154"/>
          </g>
          <g id="Grupo_1117056" data-name="Grupo 1117056" transform="translate(9.082 22.72)">
            <path id="Trazado_908266" data-name="Trazado 908266" d="M-213.209,2386.138a1.445,1.445,0,0,1-.094-.316l-.217-.919a14.915,14.915,0,0,1-.285-1.469c-.087-.576-.216-1.229-.271-1.962q-.053-.55-.112-1.148c-.04-.4-.038-.817-.059-1.248-.055-.864-.02-1.787,0-2.759a39.4,39.4,0,0,1,.8-6.267,39.524,39.524,0,0,1,1.875-6.034c.389-.892.74-1.746,1.149-2.51.2-.383.374-.763.572-1.111l.579-1c.354-.644.742-1.185,1.061-1.673s.615-.9.869-1.217l.58-.746a1.447,1.447,0,0,1,.216-.248,1.54,1.54,0,0,1-.173.282l-.538.774c-.24.331-.526.741-.827,1.239s-.681,1.04-1.022,1.687l-.56,1c-.193.349-.362.729-.554,1.112-.4.762-.739,1.614-1.118,2.5a41.075,41.075,0,0,0-1.842,6,40.958,40.958,0,0,0-.815,6.22c-.024.965-.067,1.882-.023,2.74.017.43.013.845.044,1.242s.064.778.093,1.143c.042.731.156,1.382.229,1.958s.157,1.069.238,1.471c.069.38.124.687.168.928a1.575,1.575,0,0,1,.037.331Z" transform="translate(214.276 -2355.512)" fill="#fff"/>
          </g>
          <g id="Grupo_1117057" data-name="Grupo 1117057" transform="translate(36.847 32.819)">
            <path id="Trazado_908267" data-name="Trazado 908267" d="M-181.622,2373.544a2.319,2.319,0,0,1-.58-.978,4.365,4.365,0,0,1-.1-2.741,4.367,4.367,0,0,1,1.58-2.24,2.277,2.277,0,0,1,1.02-.5c.02.042-.38.214-.9.652a4.615,4.615,0,0,0-1.438,2.168,4.614,4.614,0,0,0,.018,2.6C-181.824,2373.157-181.582,2373.519-181.622,2373.544Z" transform="translate(182.474 -2367.079)" fill="#fff"/>
          </g>
          <g id="Grupo_1117058" data-name="Grupo 1117058" transform="translate(46.342 28.334)">
            <path id="Trazado_908268" data-name="Trazado 908268" d="M-171.568,2364.153a2.52,2.52,0,0,1,.155-1.14c.159-.611.346-1.09.419-1.072a2.517,2.517,0,0,1-.155,1.141A2.514,2.514,0,0,1-171.568,2364.153Z" transform="translate(171.597 -2361.941)" fill="#fff"/>
          </g>
          <g id="Grupo_1117059" data-name="Grupo 1117059" transform="translate(31.665 14.864)">
            <path id="Trazado_908269" data-name="Trazado 908269" d="M-166.347,2348.564a5.66,5.66,0,0,1-.856-.259c-.27-.094-.6-.206-1-.312s-.832-.255-1.332-.364-1.042-.253-1.635-.353c-.589-.124-1.227-.2-1.9-.294a31.527,31.527,0,0,0-4.389-.186,31.3,31.3,0,0,0-4.367.489c-.661.14-1.293.26-1.872.424-.585.142-1.119.31-1.606.466s-.921.318-1.3.454-.709.267-.973.38a5.647,5.647,0,0,1-.836.317,5.549,5.549,0,0,1,.793-.414c.258-.128.577-.277.959-.424s.807-.34,1.3-.5,1.022-.35,1.61-.5c.581-.176,1.216-.3,1.882-.453a29.611,29.611,0,0,1,4.4-.515,29.391,29.391,0,0,1,4.43.209c.674.1,1.317.186,1.908.322.6.11,1.143.253,1.64.388s.94.28,1.331.4.72.247.987.358a5.489,5.489,0,0,1,.826.367Z" transform="translate(188.409 -2346.513)" fill="#fff"/>
          </g>
          <g id="Grupo_1117060" data-name="Grupo 1117060" transform="translate(24.388 73.335)">
            <path id="Trazado_908270" data-name="Trazado 908270" d="M-180.954,2419.365a3.183,3.183,0,0,1-.675.008c-.435-.009-1.062-.057-1.833-.152a26.536,26.536,0,0,1-5.888-1.448,26.548,26.548,0,0,1-5.4-2.754c-.645-.433-1.152-.806-1.486-1.084a3.215,3.215,0,0,1-.506-.446,3.184,3.184,0,0,1,.569.362c.352.25.873.6,1.527,1.006a30.3,30.3,0,0,0,5.393,2.66,30.3,30.3,0,0,0,5.82,1.514c.762.118,1.383.2,1.813.236a3.389,3.389,0,0,1,.666.1Z" transform="translate(196.744 -2413.487)" fill="#fff"/>
          </g>
        </g>
        <g id="Grupo_1117062" data-name="Grupo 1117062" transform="translate(7.895 7.909)">
          <path id="Trazado_908271" data-name="Trazado 908271" d="M-143.606,2384.369s.037-.2.121-.581.234-.947.358-1.7a36.86,36.86,0,0,0,.641-6.64,36.039,36.039,0,0,0-.3-4.811,35.206,35.206,0,0,0-1.172-5.611,36.916,36.916,0,0,0-6.372-12.348,35.565,35.565,0,0,0-5.7-5.771,35.51,35.51,0,0,0-7.447-4.66,36.269,36.269,0,0,0-8.961-2.856,36.543,36.543,0,0,0-4.9-.563,38.737,38.737,0,0,0-5.061.123,36.5,36.5,0,0,0-19.568,8.042,35.827,35.827,0,0,0-4.071,3.878,33.989,33.989,0,0,0-3.476,4.536,36.678,36.678,0,0,0-4.686,10.654,36.682,36.682,0,0,0-1.083,11.592c.051.96.179,1.909.3,2.857.161.94.312,1.878.536,2.8a35.81,35.81,0,0,0,1.674,5.371,36.507,36.507,0,0,0,13.2,16.541,38.954,38.954,0,0,0,4.363,2.566,36.463,36.463,0,0,0,4.553,1.885,36.268,36.268,0,0,0,9.221,1.858,35.542,35.542,0,0,0,8.773-.456,35.638,35.638,0,0,0,7.783-2.279,36.9,36.9,0,0,0,11.569-7.7,35.289,35.289,0,0,0,3.75-4.333,36.232,36.232,0,0,0,2.6-4.058,36.951,36.951,0,0,0,2.665-6.114c.258-.719.391-1.289.513-1.66s.176-.566.176-.566-.181.783-.637,2.242a35.854,35.854,0,0,1-2.625,6.149,36.011,36.011,0,0,1-2.59,4.084,35.235,35.235,0,0,1-3.747,4.365,36.98,36.98,0,0,1-11.6,7.768,35.846,35.846,0,0,1-7.821,2.307,35.7,35.7,0,0,1-8.825.474,36.444,36.444,0,0,1-9.281-1.856,36.588,36.588,0,0,1-4.586-1.894,39.075,39.075,0,0,1-4.4-2.579,36.733,36.733,0,0,1-13.3-16.649,36.086,36.086,0,0,1-1.688-5.41c-.227-.927-.379-1.873-.541-2.819-.119-.955-.249-1.911-.3-2.878a36.885,36.885,0,0,1,1.09-11.678,36.881,36.881,0,0,1,4.721-10.732,34.125,34.125,0,0,1,3.5-4.569,36,36,0,0,1,4.1-3.907,36.734,36.734,0,0,1,19.713-8.085,39.12,39.12,0,0,1,5.1-.119,36.669,36.669,0,0,1,4.927.573,36.468,36.468,0,0,1,9.014,2.887,35.73,35.73,0,0,1,7.484,4.7,35.806,35.806,0,0,1,5.716,5.816,36.98,36.98,0,0,1,6.367,12.425,35.274,35.274,0,0,1,1.155,5.635,36.194,36.194,0,0,1,.28,4.829,35.969,35.969,0,0,1-.693,6.65C-143.383,2383.6-143.606,2384.369-143.606,2384.369Z" transform="translate(215.636 -2338.547)" fill="#344154"/>
        </g>
      </g>
      <g id="Grupo_1117090" data-name="Grupo 1117090" transform="translate(285.736 5620.336)">
        <g id="Grupo_1117064" data-name="Grupo 1117064">
          <rect id="Rectángulo_405995" data-name="Rectángulo 405995" width="87.023" height="83.786" rx="8.41" fill="#cdb9f8"/>
        </g>
        <g id="Grupo_1117086" data-name="Grupo 1117086" transform="translate(6.082 8.851)">
          <g id="Grupo_1117065" data-name="Grupo 1117065" transform="translate(0 48.548)">
            <rect id="Rectángulo_405996" data-name="Rectángulo 405996" width="2.856" height="0.823" fill="#263238"/>
          </g>
          <g id="Grupo_1117066" data-name="Grupo 1117066" transform="translate(6.461 52.948)">
            <rect id="Rectángulo_405997" data-name="Rectángulo 405997" width="3.652" height="0.823" fill="#263238"/>
          </g>
          <g id="Grupo_1117067" data-name="Grupo 1117067" transform="translate(19.176 52.948)">
            <rect id="Rectángulo_405998" data-name="Rectángulo 405998" width="3.652" height="0.823" fill="#263238"/>
          </g>
          <g id="Grupo_1117068" data-name="Grupo 1117068" transform="translate(31.891 52.948)">
            <rect id="Rectángulo_405999" data-name="Rectángulo 405999" width="3.652" height="0.823" fill="#263238"/>
          </g>
          <g id="Grupo_1117069" data-name="Grupo 1117069" transform="translate(44.605 52.948)">
            <rect id="Rectángulo_406000" data-name="Rectángulo 406000" width="3.652" height="0.823" fill="#263238"/>
          </g>
          <g id="Grupo_1117070" data-name="Grupo 1117070" transform="translate(57.32 52.948)">
            <rect id="Rectángulo_406001" data-name="Rectángulo 406001" width="3.652" height="0.823" fill="#263238"/>
          </g>
          <g id="Grupo_1117071" data-name="Grupo 1117071" transform="translate(70.035 52.948)">
            <rect id="Rectángulo_406002" data-name="Rectángulo 406002" width="3.652" height="0.823" fill="#263238"/>
          </g>
          <g id="Grupo_1117072" data-name="Grupo 1117072" transform="translate(0 37.556)">
            <rect id="Rectángulo_406003" data-name="Rectángulo 406003" width="2.856" height="0.823" fill="#263238"/>
          </g>
          <g id="Grupo_1117073" data-name="Grupo 1117073" transform="translate(0 16.867)">
            <rect id="Rectángulo_406004" data-name="Rectángulo 406004" width="2.856" height="0.823" fill="#263238"/>
          </g>
          <g id="Grupo_1117074" data-name="Grupo 1117074" transform="translate(0 6.471)">
            <rect id="Rectángulo_406005" data-name="Rectángulo 406005" width="2.856" height="0.823" fill="#263238"/>
          </g>
          <g id="Grupo_1117075" data-name="Grupo 1117075" transform="translate(0.145 27.211)">
            <rect id="Rectángulo_406006" data-name="Rectángulo 406006" width="2.856" height="0.823" fill="#263238"/>
          </g>
          <g id="Grupo_1117076" data-name="Grupo 1117076" transform="translate(4.212)">
            <path id="Trazado_908272" data-name="Trazado 908272" d="M438.457,316.1s-.1.009-.306.014l-.9.013-3.456.025-12.709.043-41.932.04H369.083V316.1c.018-14.021.034-26.36.046-35.2.017-4.411.031-7.949.04-10.4.01-1.21.018-2.15.023-2.8.005-.311.009-.552.012-.725s.012-.246.012-.246.008.083.012.246.007.413.012.725c.005.648.013,1.588.023,2.8.01,2.447.023,5.986.041,10.4.011,8.845.028,21.184.046,35.205l-.134-.134h9.937l41.932.04,12.709.043,3.456.025.9.013C438.353,316.09,438.457,316.1,438.457,316.1Z" transform="translate(-369.084 -266.729)" fill="#263238"/>
          </g>
          <g id="Grupo_1117077" data-name="Grupo 1117077" transform="translate(7.108 27.488)">
            <path id="Trazado_908273" data-name="Trazado 908273" d="M441.936,319.738c0,.075-15.062.136-33.639.136s-33.642-.061-33.642-.136,15.059-.135,33.642-.135S441.936,319.663,441.936,319.738Z" transform="translate(-374.655 -319.603)" fill="#263238"/>
          </g>
          <g id="Grupo_1117078" data-name="Grupo 1117078" transform="translate(7.108 17.143)">
            <path id="Trazado_908274" data-name="Trazado 908274" d="M441.936,299.841c0,.075-15.062.135-33.639.135s-33.642-.06-33.642-.135,15.059-.136,33.642-.136S441.936,299.766,441.936,299.841Z" transform="translate(-374.655 -299.705)" fill="#263238"/>
          </g>
          <g id="Grupo_1117079" data-name="Grupo 1117079" transform="translate(7.108 6.747)">
            <path id="Trazado_908275" data-name="Trazado 908275" d="M441.936,279.842c0,.075-15.062.136-33.639.136s-33.642-.061-33.642-.136,15.059-.135,33.642-.135S441.936,279.768,441.936,279.842Z" transform="translate(-374.655 -279.707)" fill="#263238"/>
          </g>
          <g id="Grupo_1117080" data-name="Grupo 1117080" transform="translate(7.108 37.832)">
            <path id="Trazado_908276" data-name="Trazado 908276" d="M441.936,339.636c0,.074-15.062.135-33.639.135s-33.642-.061-33.642-.135,15.059-.136,33.642-.136S441.936,339.561,441.936,339.636Z" transform="translate(-374.655 -339.5)" fill="#263238"/>
          </g>
          <g id="Grupo_1117081" data-name="Grupo 1117081" transform="translate(7.802 0.763)">
            <path id="Trazado_908277" data-name="Trazado 908277" d="M375.989,314.578V305.4l5.72-8.88,3.882,2.978,7.967-12.376,4.7,3.309,6.537-11.417,5.312,4.327,7.968-15.145,8.58,16.928,6.946-8.47,8.172-2.338v40.262Z" transform="translate(-375.989 -268.196)" fill="#fed6a8"/>
          </g>
          <g id="Grupo_1117082" data-name="Grupo 1117082" transform="translate(7.802 3.548)">
            <path id="Trazado_908278" data-name="Trazado 908278" d="M442.576,273.629a.709.709,0,0,1-.144.01l-.426.01-1.658.019-6.271.035.06-.029-6.719,8.783-.032.042h-.053l-16.824.023.112-.063-7.073,11.775L396.6,305.776l-.1.169-.115-.16-9.113-12.531.182-.006L379.143,306.2l-2.319,3.58-.615.935c-.14.21-.22.314-.22.314s.06-.115.191-.332l.588-.952,2.268-3.613,8.234-13,.087-.137.1.131,9.145,12.508-.217.009,6.936-11.547,7.082-11.77.038-.063h.073l16.824.023-.085.042,6.769-8.744.023-.03h.036l6.271.035,1.658.019.426.01a.827.827,0,0,1,.14.011Z" transform="translate(-375.989 -273.554)" fill="#263238"/>
          </g>
          <g id="Grupo_1117083" data-name="Grupo 1117083" transform="translate(20.643 25.505)">
            <path id="Trazado_908279" data-name="Trazado 908279" d="M401.98,316.411a.646.646,0,1,1-.646-.621.634.634,0,0,1,.646.621Z" transform="translate(-400.689 -315.79)" fill="#263238"/>
          </g>
          <g id="Grupo_1117084" data-name="Grupo 1117084" transform="translate(40.048 14.476)">
            <path id="Trazado_908280" data-name="Trazado 908280" d="M439.307,295.2a.646.646,0,1,1-.646-.621.634.634,0,0,1,.646.621Z" transform="translate(-438.016 -294.574)" fill="#263238"/>
          </g>
          <g id="Grupo_1117085" data-name="Grupo 1117085" transform="translate(55.134 11.766)">
            <path id="Trazado_908281" data-name="Trazado 908281" d="M468.325,289.983a.646.646,0,1,1-.646-.622A.634.634,0,0,1,468.325,289.983Z" transform="translate(-467.034 -289.361)" fill="#263238"/>
          </g>
        </g>
        <g id="Grupo_1117087" data-name="Grupo 1117087" transform="translate(12.543 68.777)">
          <ellipse id="Elipse_13476" data-name="Elipse 13476" cx="4.174" cy="4.019" rx="4.174" ry="4.019" transform="translate(0 0)" fill="#fff"/>
        </g>
        <g id="Grupo_1117088" data-name="Grupo 1117088" transform="translate(27.084 70.104)">
          <rect id="Rectángulo_406007" data-name="Rectángulo 406007" width="49.032" height="1.504" fill="#fff"/>
        </g>
        <g id="Grupo_1117089" data-name="Grupo 1117089" transform="translate(27.084 73.86)">
          <rect id="Rectángulo_406008" data-name="Rectángulo 406008" width="20.359" height="1.504" fill="#fff"/>
        </g>
      </g>
    </g>
  </g>
</svg>
