<svg xmlns="http://www.w3.org/2000/svg" width="505" height="383" viewBox="0 0 505 383">
  <g id="Grupo_1115450" data-name="Grupo 1115450" transform="translate(-180.051 -3574)">
    <rect id="Rectángulo_405216" data-name="Rectángulo 405216" width="505" height="383" transform="translate(180.051 3574)" fill="#ddeffd"/>
    <g id="nic" transform="translate(8872.193 11320.414)">
      <g id="Grupo_1113875" data-name="Grupo 1113875" transform="translate(-8611.515 -7698.011)">
        <g id="Grupo_1113871" data-name="Grupo 1113871" transform="translate(0.279 0.264)">
          <path id="Trazado_904113" data-name="Trazado 904113" d="M9.717,0H329.106a9.716,9.716,0,0,1,9.716,9.716V226.383a9.716,9.716,0,0,1-9.716,9.716H9.716A9.716,9.716,0,0,1,0,226.383V9.717A9.717,9.717,0,0,1,9.717,0Z" fill="#e0e0e0"/>
        </g>
        <path id="Trazado_904114" data-name="Trazado 904114" d="M452.261,58.7s-.023-.246-.051-.732a11.44,11.44,0,0,0-.329-2.145,12.015,12.015,0,0,0-1.339-3.3,12.268,12.268,0,0,0-3.277-3.653,11.838,11.838,0,0,0-5.743-2.327,28.625,28.625,0,0,0-3.628-.11l-3.964.007-18.977.026-120.939.088L210.5,46.58l-46.525.014-24.33.007H127.23a21.422,21.422,0,0,0-3.089.126,12.041,12.041,0,0,0-2.961.789,12.245,12.245,0,0,0-4.872,3.688,11.919,11.919,0,0,0-2.452,5.632,18.718,18.718,0,0,0-.157,3.143V76.064q0,12.964,0,26.218,0,26.5.008,54.076c0,36.731,0,74.761.005,113.713a13.3,13.3,0,0,0,.517,3.518,13.056,13.056,0,0,0,1.514,3.21,13.432,13.432,0,0,0,2.381,2.627,12.058,12.058,0,0,0,6.463,2.679c1.168.084,2.39.055,3.593.06h35.891l56.039,0,105.938.016,95.862.026h16.668a25.112,25.112,0,0,0,2.706-.084,12.356,12.356,0,0,0,2.6-.6,12.109,12.109,0,0,0,7.348-7.111,13.317,13.317,0,0,0,.809-5.125q0-2.638,0-5.252.009-20.9.018-40.074c.037-51.056.067-92.377.084-120.931.024-14.274.04-25.357.052-32.879.013-3.755.021-6.619.028-8.55s.029-2.913.029-2.913.019.987.028,2.913.016,4.8.028,8.55c.012,7.521.03,18.606.052,32.879.021,28.558.051,69.875.088,120.931q.008,19.149.018,40.074V269.3a13.78,13.78,0,0,1-.834,5.281,12.551,12.551,0,0,1-7.609,7.388,12.788,12.788,0,0,1-2.692.62,25.434,25.434,0,0,1-2.757.084H421.91l-95.862.027-105.938.016-56.039,0H128.186c-1.209-.007-2.4.028-3.648-.063a12.62,12.62,0,0,1-6.762-2.8,13.992,13.992,0,0,1-2.49-2.749,13.622,13.622,0,0,1-1.586-3.358,13.869,13.869,0,0,1-.541-3.68c0-38.953,0-76.981.005-113.713q.005-27.549.008-54.076,0-13.251,0-26.218V59.979a19.2,19.2,0,0,1,.163-3.219,12.442,12.442,0,0,1,2.559-5.872,12.757,12.757,0,0,1,5.081-3.841,12.565,12.565,0,0,1,3.088-.822,21.991,21.991,0,0,1,3.158-.13h12.416l24.33.007,46.525.014,83.515.033,120.939.088,18.977.026,3.964.007a28.972,28.972,0,0,1,3.645.125,11.946,11.946,0,0,1,5.792,2.376,12.319,12.319,0,0,1,3.281,3.7,12,12,0,0,1,1.322,3.332,10.827,10.827,0,0,1,.3,2.157C452.258,58.45,452.261,58.7,452.261,58.7Z" transform="translate(-113.159 -46.084)" fill="#263238"/>
        <g id="Grupo_1113872" data-name="Grupo 1113872" transform="translate(24.452 8.584)">
          <rect id="Rectángulo_405404" data-name="Rectángulo 405404" width="221.209" height="282.958" transform="translate(0 221.209) rotate(-90)" fill="#fff"/>
        </g>
        <g id="Grupo_1113873" data-name="Grupo 1113873" transform="translate(313.016 108.299)">
          <circle id="Elipse_13268" data-name="Elipse 13268" cx="9.059" cy="9.059" r="9.059" transform="translate(0 0)" fill="#263238"/>
        </g>
        <g id="Grupo_1113874" data-name="Grupo 1113874" transform="translate(10.037 82.758)">
          <rect id="Rectángulo_405405" data-name="Rectángulo 405405" width="71.11" height="3.743" rx="1.215" transform="translate(0 71.11) rotate(-90)" fill="#263238"/>
        </g>
      </g>
      <g id="Grupo_1113876" data-name="Grupo 1113876" transform="translate(-8587.063 -7690.188)">
        <rect id="Rectángulo_405406" data-name="Rectángulo 405406" width="26.502" height="221.971" fill="#d9a171"/>
      </g>
      <g id="Grupo_1113877" data-name="Grupo 1113877" transform="translate(-8587.063 -7593.608)">
        <path id="Trazado_904115" data-name="Trazado 904115" d="M1.991,0h25.66V22.069H1.991A1.991,1.991,0,0,1,0,20.078V1.991A1.991,1.991,0,0,1,1.991,0Z" transform="translate(0 0)" fill="#fff"/>
      </g>
      <g id="Grupo_1113878" data-name="Grupo 1113878" transform="translate(-8578.644 -7667.954)">
        <path id="Trazado_904116" data-name="Trazado 904116" d="M148.739,83.9h0a4.84,4.84,0,0,1-4.833-4.849h0a4.84,4.84,0,0,1,4.833-4.852h0a4.841,4.841,0,0,1,4.833,4.849h0A4.841,4.841,0,0,1,148.739,83.9Z" transform="translate(-143.906 -74.2)" fill="#fff"/>
      </g>
      <path id="Trazado_904117" data-name="Trazado 904117" d="M152.75,99.567a17.313,17.313,0,0,1-4.358.278,17.323,17.323,0,0,1-4.359-.278,17.313,17.313,0,0,1,4.359-.278A17.3,17.3,0,0,1,152.75,99.567Z" transform="translate(-8722.541 -7740.422)" fill="#fff"/>
      <path id="Trazado_904118" data-name="Trazado 904118" d="M153.474,122.548a17.254,17.254,0,0,1-4.357.279,17.264,17.264,0,0,1-4.358-.279,17.3,17.3,0,0,1,4.358-.278A17.154,17.154,0,0,1,153.474,122.548Z" transform="translate(-8722.49 -7738.835)" fill="#fff"/>
      <path id="Trazado_904119" data-name="Trazado 904119" d="M153.474,180.987a17.254,17.254,0,0,1-4.357.279,17.263,17.263,0,0,1-4.358-.279,17.3,17.3,0,0,1,4.358-.278A17.293,17.293,0,0,1,153.474,180.987Z" transform="translate(-8722.49 -7734.796)" fill="#fff"/>
      <path id="Trazado_904120" data-name="Trazado 904120" d="M153.474,211.128a17.254,17.254,0,0,1-4.357.279,17.264,17.264,0,0,1-4.358-.279,17.3,17.3,0,0,1,4.358-.278A17.434,17.434,0,0,1,153.474,211.128Z" transform="translate(-8722.49 -7732.714)" fill="#fff"/>
      <path id="Trazado_904121" data-name="Trazado 904121" d="M153.474,154.384a17.254,17.254,0,0,1-4.357.279,17.264,17.264,0,0,1-4.358-.279,17.3,17.3,0,0,1,4.358-.278A17.387,17.387,0,0,1,153.474,154.384Z" transform="translate(-8722.49 -7736.634)" fill="#263238"/>
      <path id="Trazado_904122" data-name="Trazado 904122" d="M419.006,275.393c0-1.919-.092-88.071-.231-221.971l.231.231L136.071,53.7h-.024l.279-.278c-.011,80.056-.02,155.753-.029,221.97l-.252-.252c168,.147,280.765.248,282.958.252-2.187,0-114.953.1-282.958.252h-.252v-.252c-.008-66.216-.019-141.914-.028-221.97v-.279h.3L419,53.191h.231v.231C419.1,187.322,419.008,273.476,419.006,275.393Z" transform="translate(-8723.11 -7743.61)" fill="#263238"/>
      <g id="Grupo_1113879" data-name="Grupo 1113879" transform="translate(-8394.041 -7507.475)">
        <rect id="Rectángulo_405407" data-name="Rectángulo 405407" width="3.812" height="12.769" fill="#6595bf"/>
      </g>
      <g id="Grupo_1113880" data-name="Grupo 1113880" transform="translate(-8425.881 -7509.324)">
        <rect id="Rectángulo_405408" data-name="Rectángulo 405408" width="3.812" height="14.619" fill="#6595bf"/>
      </g>
      <g id="Grupo_1113881" data-name="Grupo 1113881" transform="translate(-8417.921 -7512.372)">
        <rect id="Rectángulo_405409" data-name="Rectángulo 405409" width="3.812" height="17.666" fill="#6595bf"/>
      </g>
      <g id="Grupo_1113882" data-name="Grupo 1113882" transform="translate(-8409.962 -7511.402)">
        <rect id="Rectángulo_405410" data-name="Rectángulo 405410" width="3.812" height="16.697" fill="#6595bf"/>
      </g>
      <g id="Grupo_1113883" data-name="Grupo 1113883" transform="translate(-8402.002 -7517.051)">
        <rect id="Rectángulo_405411" data-name="Rectángulo 405411" width="3.812" height="22.345" fill="#6595bf"/>
      </g>
      <g id="Grupo_1113884" data-name="Grupo 1113884" transform="translate(-8386.083 -7516.942)">
        <rect id="Rectángulo_405412" data-name="Rectángulo 405412" width="3.812" height="22.236" fill="#6595bf"/>
      </g>
      <g id="Grupo_1113885" data-name="Grupo 1113885" transform="translate(-8378.122 -7509.639)">
        <rect id="Rectángulo_405413" data-name="Rectángulo 405413" width="3.812" height="14.933" fill="#6595bf"/>
      </g>
      <g id="Grupo_1113886" data-name="Grupo 1113886" transform="translate(-8370.162 -7515.962)">
        <rect id="Rectángulo_405414" data-name="Rectángulo 405414" width="3.812" height="21.257" fill="#6595bf"/>
      </g>
      <g id="Grupo_1113887" data-name="Grupo 1113887" transform="translate(-8362.203 -7520.751)">
        <rect id="Rectángulo_405415" data-name="Rectángulo 405415" width="3.812" height="26.046" fill="#6595bf"/>
      </g>
      <g id="Grupo_1113888" data-name="Grupo 1113888" transform="translate(-8354.243 -7516.072)">
        <rect id="Rectángulo_405416" data-name="Rectángulo 405416" width="3.812" height="21.365" fill="#6595bf"/>
      </g>
      <path id="Trazado_904123" data-name="Trazado 904123" d="M371.382,255.686H277.62a7.749,7.749,0,0,1-7.74-7.74V191.889a7.749,7.749,0,0,1,7.74-7.74h93.761a7.75,7.75,0,0,1,7.74,7.74v56.057a7.75,7.75,0,0,1-7.74,7.74ZM277.62,184.914a6.983,6.983,0,0,0-6.976,6.976v56.057a6.983,6.983,0,0,0,6.976,6.975h93.761a6.983,6.983,0,0,0,6.976-6.975V191.89a6.983,6.983,0,0,0-6.976-6.976Z" transform="translate(-8713.846 -7734.559)" fill="#e0e0e0"/>
      <path id="Trazado_904124" data-name="Trazado 904124" d="M330.176,201.6c0,.109-10.846.2-24.222.2s-24.225-.09-24.225-.2,10.844-.2,24.225-.2S330.176,201.483,330.176,201.6Z" transform="translate(-8713.027 -7733.367)" fill="#e0e0e0"/>
      <path id="Trazado_904125" data-name="Trazado 904125" d="M180.9,184.739v69.234h73.67V184.739Z" transform="translate(-8719.992 -7734.518)" fill="#f5f5f5"/>
      <g id="Grupo_1113889" data-name="Grupo 1113889" transform="translate(-8525.313 -7541.933)">
        <path id="Trazado_904126" data-name="Trazado 904126" d="M216.521,192.078a22.731,22.731,0,1,0,22.732,22.732,22.731,22.731,0,0,0-22.732-22.732Zm.343,36.351a13.966,13.966,0,1,1,13.966-13.966,13.966,13.966,0,0,1-13.966,13.966Z" transform="translate(-193.791 -192.078)" fill="#263238"/>
      </g>
      <g id="Grupo_1113890" data-name="Grupo 1113890" transform="translate(-8502.233 -7541.926)">
        <path id="Trazado_904127" data-name="Trazado 904127" d="M215.379,192.086V200.5a13.966,13.966,0,0,1,13.3,18.2l8.237,2.235a22.72,22.72,0,0,0-21.538-28.847Z" transform="translate(-215.379 -192.083)" fill="#d9a171"/>
      </g>
      <g id="Grupo_1113891" data-name="Grupo 1113891" transform="translate(-8525.314 -7540.149)">
        <path id="Trazado_904128" data-name="Trazado 904128" d="M202.9,214.351a13.961,13.961,0,0,1,8.277-12.752l-3.5-7.853a22.737,22.737,0,0,0-13.891,20.949c0,.32.012.637.024.953h9.148C202.923,215.22,202.9,214.788,202.9,214.351Z" transform="translate(-193.789 -193.746)" fill="#5e6178"/>
      </g>
      <g id="Grupo_1113892" data-name="Grupo 1113892" transform="translate(-8506.729 -7515.312)">
        <path id="Trazado_904129" data-name="Trazado 904129" d="M215.663,226.709a13.991,13.991,0,0,1-2.954-.316c-.352,2.026-1.015,5.951-1.536,9.042a22.716,22.716,0,0,0,26.035-16.221l-8.237-2.235A13.966,13.966,0,0,1,215.663,226.709Z" transform="translate(-211.173 -216.979)" fill="#6595bf"/>
      </g>
      <g id="Grupo_1113893" data-name="Grupo 1113893" transform="translate(-8510.046 -7522.497)">
        <path id="Trazado_904130" data-name="Trazado 904130" d="M212.861,214.339h-.841v1.085h-1.165v-1.085h-2.783v-.8l2.436-3.277h1.255l-2.259,3.107h1.387V212.4h1.129v.967h.841Z" transform="translate(-208.071 -210.258)" fill="#263238"/>
      </g>
      <g id="Grupo_1113894" data-name="Grupo 1113894" transform="translate(-8504.903 -7522.584)">
        <path id="Trazado_904131" data-name="Trazado 904131" d="M212.881,212.848c0-1.7.945-2.672,2.214-2.672s2.214.968,2.214,2.672-.937,2.672-2.214,2.672S212.881,214.552,212.881,212.848Zm3.226,0c0-1.173-.414-1.66-1.01-1.66s-1,.487-1,1.66.412,1.66,1,1.66S216.107,214.021,216.107,212.848Z" transform="translate(-212.881 -210.176)" fill="#263238"/>
      </g>
      <g id="Grupo_1113895" data-name="Grupo 1113895" transform="translate(-8499.99 -7522.493)">
        <path id="Trazado_904132" data-name="Trazado 904132" d="M217.483,211.642a1.286,1.286,0,1,1,.323,1,1.287,1.287,0,0,1-.323-1Zm1.824,0c0-.554-.215-.819-.54-.819s-.538.273-.538.819.221.819.538.819S219.307,212.194,219.307,211.642Zm2.538-1.365h.877l-3.527,5.166h-.879Zm-.849,3.8a1.283,1.283,0,1,1,.319,1,1.288,1.288,0,0,1-.319-1Zm1.816,0c0-.546-.214-.819-.538-.819s-.538.265-.538.819.221.819.538.819.538-.274.538-.821Z" transform="translate(-217.475 -210.277)" fill="#263238"/>
      </g>
      <g id="Grupo_1113896" data-name="Grupo 1113896" transform="translate(-8521.393 -7490.952)">
        <path id="Trazado_904133" data-name="Trazado 904133" d="M235.076,239.98c0,.119-8.422.216-18.808.216s-18.811-.1-18.811-.216,8.42-.216,18.811-.216S235.076,239.862,235.076,239.98Z" transform="translate(-197.457 -239.764)" fill="#263238"/>
      </g>
      <g id="Grupo_1113897" data-name="Grupo 1113897" transform="translate(-8513.015 -7487.497)">
        <path id="Trazado_904134" data-name="Trazado 904134" d="M226.159,243.211c0,.119-4.671.215-10.432.215s-10.432-.1-10.432-.215,4.67-.216,10.432-.216S226.159,243.091,226.159,243.211Z" transform="translate(-205.294 -242.995)" fill="#263238"/>
      </g>
      <path id="Trazado_904135" data-name="Trazado 904135" d="M400.391,89.841s-.371.017-1.1.025l-3.234.024-12.5.047-46.489.084-157.93.1.387-.278c0,12.411.005,25.282.008,38.454,0,13.572-.005,26.825-.008,39.622l-.387-.278,156.833.1,46.124.084,12.4.047,3.207.024c.72.008,1.09.025,1.09.025s-.368.017-1.09.026l-3.207.024-12.4.047-46.124.084-156.833.1h-.386v-.278c0-12.8,0-26.05-.008-39.622,0-13.173.005-26.043.008-38.454v-.278h.387l157.93.1,46.489.084,12.5.048,3.234.024C400.02,89.824,400.391,89.841,400.391,89.841Z" transform="translate(-8720.143 -7741.094)" fill="#e0e0e0"/>
      <path id="Trazado_904136" data-name="Trazado 904136" d="M400.369,102.137c0,.156-49.532.284-110.619.284-61.108,0-110.633-.127-110.633-.284s49.522-.284,110.633-.284C350.833,101.853,400.369,101.977,400.369,102.137Z" transform="translate(-8720.117 -7740.245)" fill="#e0e0e0"/>
      <path id="Trazado_904137" data-name="Trazado 904137" d="M400.369,112.2c0,.157-49.532.284-110.619.284-61.108,0-110.633-.126-110.633-.284s49.522-.284,110.633-.284C350.833,111.912,400.369,112.039,400.369,112.2Z" transform="translate(-8720.117 -7739.549)" fill="#e0e0e0"/>
      <path id="Trazado_904138" data-name="Trazado 904138" d="M400.369,122.255c0,.157-49.532.284-110.619.284-61.108,0-110.633-.127-110.633-.284s49.522-.284,110.633-.284C350.833,121.971,400.369,122.1,400.369,122.255Z" transform="translate(-8720.117 -7738.854)" fill="#e0e0e0"/>
      <path id="Trazado_904139" data-name="Trazado 904139" d="M400.369,132.315c0,.156-49.532.284-110.619.284-61.108,0-110.633-.127-110.633-.284s49.522-.284,110.633-.284C350.833,132.031,400.369,132.158,400.369,132.315Z" transform="translate(-8720.117 -7738.159)" fill="#e0e0e0"/>
      <path id="Trazado_904140" data-name="Trazado 904140" d="M400.369,142.374c0,.157-49.532.284-110.619.284-61.108,0-110.633-.126-110.633-.284s49.522-.284,110.633-.284C350.833,142.09,400.369,142.217,400.369,142.374Z" transform="translate(-8720.117 -7737.464)" fill="#e0e0e0"/>
      <path id="Trazado_904141" data-name="Trazado 904141" d="M179.117,152.434c0-.157,49.532-.284,110.619-.284,61.108,0,110.633.126,110.633.284s-49.522.284-110.633.284C228.649,152.716,179.117,152.589,179.117,152.434Z" transform="translate(-8720.117 -7736.769)" fill="#e0e0e0"/>
      <path id="Trazado_904142" data-name="Trazado 904142" d="M208.47,169.087c-.156,0-.284-17.745-.284-39.626s.127-39.634.284-39.634.284,17.742.284,39.634S208.627,169.087,208.47,169.087Z" transform="translate(-8718.108 -7741.076)" fill="#e0e0e0"/>
      <path id="Trazado_904143" data-name="Trazado 904143" d="M238.276,169.087c-.156,0-.284-17.745-.284-39.626s.127-39.634.284-39.634.284,17.742.284,39.634S238.431,169.087,238.276,169.087Z" transform="translate(-8716.05 -7741.076)" fill="#e0e0e0"/>
      <path id="Trazado_904144" data-name="Trazado 904144" d="M268.081,169.087c-.157,0-.284-17.745-.284-39.626s.127-39.634.284-39.634.284,17.742.284,39.634S268.238,169.087,268.081,169.087Z" transform="translate(-8713.99 -7741.076)" fill="#e0e0e0"/>
      <path id="Trazado_904145" data-name="Trazado 904145" d="M297.887,169.087c-.156,0-.284-17.745-.284-39.626s.127-39.634.284-39.634.284,17.742.284,39.634S298.044,169.087,297.887,169.087Z" transform="translate(-8711.931 -7741.076)" fill="#e0e0e0"/>
      <path id="Trazado_904146" data-name="Trazado 904146" d="M327.693,169.087c-.157,0-.284-17.745-.284-39.626s.126-39.634.284-39.634.284,17.742.284,39.634S327.848,169.087,327.693,169.087Z" transform="translate(-8709.872 -7741.076)" fill="#e0e0e0"/>
      <path id="Trazado_904147" data-name="Trazado 904147" d="M356.547,169.087c-.157,0-.284-17.745-.284-39.626s.126-39.634.284-39.634.284,17.742.284,39.634S356.7,169.087,356.547,169.087Z" transform="translate(-8707.879 -7741.076)" fill="#e0e0e0"/>
      <path id="Trazado_904148" data-name="Trazado 904148" d="M386.347,169.087c-.156,0-.284-17.745-.284-39.626s.127-39.634.284-39.634.284,17.742.284,39.634S386.507,169.087,386.347,169.087Z" transform="translate(-8705.819 -7741.076)" fill="#e0e0e0"/>
      <path id="Trazado_904149" data-name="Trazado 904149" d="M210.516,152.54a1.94,1.94,0,1,1-1.94-1.94,1.94,1.94,0,0,1,1.94,1.94Z" transform="translate(-8718.215 -7736.876)" fill="#d9a171"/>
      <path id="Trazado_904150" data-name="Trazado 904150" d="M240.321,132.421a1.935,1.935,0,1,1-.567-1.372A1.939,1.939,0,0,1,240.321,132.421Z" transform="translate(-8716.157 -7738.267)" fill="#d9a171"/>
      <path id="Trazado_904151" data-name="Trazado 904151" d="M270.127,142.308a1.935,1.935,0,1,1-.566-1.373A1.94,1.94,0,0,1,270.127,142.308Z" transform="translate(-8714.098 -7737.583)" fill="#d9a171"/>
      <path id="Trazado_904152" data-name="Trazado 904152" d="M299.712,121.022a2.011,2.011,0,0,1-2.842,2.843h0a2.011,2.011,0,0,1,2.842-2.843Z" transform="translate(-8712.012 -7738.95)" fill="#d9a171"/>
      <path id="Trazado_904153" data-name="Trazado 904153" d="M329.861,121.022a2.011,2.011,0,0,1-2.842,2.843h0a2.011,2.011,0,0,1,2.842-2.843Z" transform="translate(-8709.929 -7738.95)" fill="#d9a171"/>
      <path id="Trazado_904154" data-name="Trazado 904154" d="M358.063,140.772a2.011,2.011,0,0,1-2.84,2.843h0a2.011,2.011,0,0,1,2.84-2.843Z" transform="translate(-8707.982 -7737.588)" fill="#d9a171"/>
      <path id="Trazado_904155" data-name="Trazado 904155" d="M240.321,112.3a1.935,1.935,0,1,1-.567-1.372A1.939,1.939,0,0,1,240.321,112.3Z" transform="translate(-8716.157 -7739.656)" fill="#455a64"/>
      <path id="Trazado_904156" data-name="Trazado 904156" d="M210.516,142.48a1.94,1.94,0,1,1-1.94-1.939,1.94,1.94,0,0,1,1.94,1.939Z" transform="translate(-8718.215 -7737.571)" fill="#455a64"/>
      <path id="Trazado_904157" data-name="Trazado 904157" d="M358.069,151.115a2.011,2.011,0,1,1-2.794.048A2.011,2.011,0,0,1,358.069,151.115Z" transform="translate(-8707.98 -7736.872)" fill="#455a64"/>
      <path id="Trazado_904158" data-name="Trazado 904158" d="M329.738,132.421a1.935,1.935,0,1,1-.567-1.372A1.939,1.939,0,0,1,329.738,132.421Z" transform="translate(-8709.979 -7738.267)" fill="#455a64"/>
      <path id="Trazado_904159" data-name="Trazado 904159" d="M300.236,132.156a1.94,1.94,0,1,1-1.94-1.939,1.94,1.94,0,0,1,1.94,1.939Z" transform="translate(-8712.018 -7738.284)" fill="#455a64"/>
      <path id="Trazado_904160" data-name="Trazado 904160" d="M196.4,171.2a16.744,16.744,0,0,1-6.137,0,16.743,16.743,0,0,1,6.137,0Z" transform="translate(-8719.347 -7735.473)" fill="#e0e0e0"/>
      <path id="Trazado_904161" data-name="Trazado 904161" d="M226.867,171.2a16.74,16.74,0,0,1-6.136,0,16.739,16.739,0,0,1,6.136,0Z" transform="translate(-8717.243 -7735.473)" fill="#e0e0e0"/>
      <path id="Trazado_904162" data-name="Trazado 904162" d="M257.332,171.2a16.744,16.744,0,0,1-6.137,0,16.743,16.743,0,0,1,6.137,0Z" transform="translate(-8715.138 -7735.473)" fill="#e0e0e0"/>
      <path id="Trazado_904163" data-name="Trazado 904163" d="M287.8,171.2a16.744,16.744,0,0,1-6.137,0,16.743,16.743,0,0,1,6.137,0Z" transform="translate(-8713.032 -7735.473)" fill="#e0e0e0"/>
      <path id="Trazado_904164" data-name="Trazado 904164" d="M318.26,171.2a16.74,16.74,0,0,1-6.136,0,16.739,16.739,0,0,1,6.136,0Z" transform="translate(-8710.928 -7735.473)" fill="#e0e0e0"/>
      <path id="Trazado_904165" data-name="Trazado 904165" d="M345.5,171.2a16.74,16.74,0,0,1-6.136,0,16.739,16.739,0,0,1,6.136,0Z" transform="translate(-8709.046 -7735.473)" fill="#e0e0e0"/>
      <path id="Trazado_904166" data-name="Trazado 904166" d="M372.743,171.2a16.74,16.74,0,0,1-6.136,0,16.739,16.739,0,0,1,6.136,0Z" transform="translate(-8707.163 -7735.473)" fill="#e0e0e0"/>
      <path id="Trazado_904167" data-name="Trazado 904167" d="M175.133,162.466a10.975,10.975,0,0,1-4.957,0,10.975,10.975,0,0,1,4.957,0Z" transform="translate(-8720.734 -7736.077)" fill="#e0e0e0"/>
      <path id="Trazado_904168" data-name="Trazado 904168" d="M175.133,150.766a10.975,10.975,0,0,1-4.957,0,10.975,10.975,0,0,1,4.957,0Z" transform="translate(-8720.734 -7736.885)" fill="#e0e0e0"/>
      <path id="Trazado_904169" data-name="Trazado 904169" d="M175.133,139.066a10.975,10.975,0,0,1-4.957,0,10.975,10.975,0,0,1,4.957,0Z" transform="translate(-8720.734 -7737.692)" fill="#e0e0e0"/>
      <path id="Trazado_904170" data-name="Trazado 904170" d="M175.133,127.366a10.975,10.975,0,0,1-4.957,0,10.975,10.975,0,0,1,4.957,0Z" transform="translate(-8720.734 -7738.501)" fill="#e0e0e0"/>
      <path id="Trazado_904171" data-name="Trazado 904171" d="M175.133,115.666a10.975,10.975,0,0,1-4.957,0,10.975,10.975,0,0,1,4.957,0Z" transform="translate(-8720.734 -7739.309)" fill="#e0e0e0"/>
      <path id="Trazado_904172" data-name="Trazado 904172" d="M175.133,103.966a10.976,10.976,0,0,1-4.957,0,10.975,10.975,0,0,1,4.957,0Z" transform="translate(-8720.734 -7740.118)" fill="#e0e0e0"/>
      <path id="Trazado_904173" data-name="Trazado 904173" d="M175.133,92.265a10.943,10.943,0,0,1-4.957,0,10.976,10.976,0,0,1,4.957,0Z" transform="translate(-8720.734 -7740.926)" fill="#e0e0e0"/>
      <path id="Trazado_904174" data-name="Trazado 904174" d="M178.944,166.2l-.355-1.01,31.682-11.137L242.3,132.429,274.165,143l32.106-21.176,32.154-.094.139.1,30.548,21.581,29.6-19.558.589.892L369.1,144.7l-.3-.211L338.09,122.8l-31.494.092-32.271,21.285-31.862-10.569-31.771,21.429Z" transform="translate(-8720.153 -7738.87)" fill="#d9a171"/>
      <path id="Trazado_904175" data-name="Trazado 904175" d="M369.246,156.186l-31.189-21.2H305.912l-32.161-21.227-31.186-.28L210.7,145.738H179.117v-1.069h31.137L242.117,112.4l31.954.287,32.163,21.222h32.152l30.5,20.736,30.466-53.535.925.528Z" transform="translate(-8720.117 -7740.295)" fill="#455a64"/>
      <path id="Trazado_904176" data-name="Trazado 904176" d="M389.229,75.211c0,.154-12.014.278-26.831.278s-26.833-.124-26.833-.278,12.012-.279,26.833-.279S389.229,75.057,389.229,75.211Z" transform="translate(-8709.309 -7742.104)" fill="#263238"/>
      <path id="Trazado_904177" data-name="Trazado 904177" d="M7.745-1.6H5.738L2.77-6.814V-1.6H.752V-9.977H2.771l2.961,5.21v-5.21H7.745Zm3.428,0H9.16V-9.977h2.013Zm8.178-2.835a3.058,3.058,0,0,1-.47,1.544,2.846,2.846,0,0,1-1.211,1.039,4.122,4.122,0,0,1-1.78.368,3.288,3.288,0,0,1-2.6-1.075A4.44,4.44,0,0,1,12.34-5.6v-.414a5.069,5.069,0,0,1,.428-2.154A3.247,3.247,0,0,1,14-9.6a3.442,3.442,0,0,1,1.864-.5,3.609,3.609,0,0,1,2.45.8,3.17,3.17,0,0,1,1.054,2.214H17.355a1.5,1.5,0,0,0-.385-1.1,1.585,1.585,0,0,0-1.1-.337,1.206,1.206,0,0,0-1.1.564,3.623,3.623,0,0,0-.368,1.8v.589a4.008,4.008,0,0,0,.337,1.915,1.231,1.231,0,0,0,1.158.575A1.55,1.55,0,0,0,16.954-3.4a1.392,1.392,0,0,0,.391-1.041Zm1.53,3.554H19.507l2.86-9.093h1.381ZM31.435-1.6H29.427L26.46-6.814V-1.6H24.441V-9.977H26.46l2.961,5.21v-5.21h2.013Zm3.431,0H32.847V-9.977h2.019Zm3.555,0H36.4V-9.977h2.013ZM45.1-4.939H41.839V-1.6H39.819V-9.977h5.6v1.559H41.839v1.927h3.255Z" transform="translate(-8541.372 -7661.68)" fill="#12263f"/>
      <path id="Trazado_904178" data-name="Trazado 904178" d="M125.165,206.66l-2.148,2.686v-4.62h-6.766s-.752,10.581-.589,12.836,2.685,8.7,2.685,8.7a24.925,24.925,0,0,0,6.82-5.961c3.007-3.87,8-13.284,8-13.284l-5.211-3.147Z" transform="translate(-8678.717 -7772.719)" fill="#ffbe9d"/>
      <path id="Trazado_904179" data-name="Trazado 904179" d="M127.653,207.625a7.685,7.685,0,0,1-.884,1.178c-.57.708-1.361,1.683-2.266,2.737s-1.758,1.982-2.42,2.608a4.864,4.864,0,0,1-1.149.931,11.391,11.391,0,0,1,.989-1.09c.617-.664,1.437-1.61,2.34-2.661A33.222,33.222,0,0,1,127.653,207.625Z" transform="translate(-8680.777 -7774.18)" fill="#eb996e"/>
      <path id="Trazado_904180" data-name="Trazado 904180" d="M123.007,169.045s-1.927-15.789-9.549-17.4l-3.947,15.176,3.281,10.946,10.882-1.485Z" transform="translate(-8676.333 -7752.401)" fill="#6595bf"/>
      <path id="Trazado_904181" data-name="Trazado 904181" d="M49.188,177.706l.36,1.127L57.036,202.3s18.459,7.018,25.092,4.24a25.282,25.282,0,0,0,9.7-6.725l-1.48-49.949-10.525-1.6-18.151-1.333-12.159,3.9Z" transform="translate(-8652.864 -7750.57)" fill="#6595bf"/>
      <path id="Trazado_904182" data-name="Trazado 904182" d="M72.1,204.775a78.122,78.122,0,0,1-19.191-11.769l-3.718,1.983c2.795,5.637,5.119,10.784,8.97,15.76a13.125,13.125,0,0,0,5.128,4.115,8.575,8.575,0,0,0,8.613-1.752c2.212-2.059,3.87-8.1,3.142-13.035C73.8,200.145,73.247,205.25,72.1,204.775Z" transform="translate(-8652.864 -7768.493)"/>
      <path id="Trazado_904183" data-name="Trazado 904183" d="M115.826,182.65A18.282,18.282,0,0,0,112,173.235a5.093,5.093,0,0,1,1.043,1.115,13.815,13.815,0,0,1,2.754,6.773,5.06,5.06,0,0,1,.029,1.528Z" transform="translate(-8677.3 -7760.801)" fill="#263238"/>
      <path id="Trazado_904184" data-name="Trazado 904184" d="M105.149,112.285a2.706,2.706,0,0,1-2.541-1.136,3.222,3.222,0,0,0,1.954-.108c.589-.3.925-1.173.463-1.647-.362-.371-.958-.307-1.474-.345a3.189,3.189,0,0,1-2.713-2.082c-.437-1.257-.038-2.627.119-3.948A10.874,10.874,0,0,0,96.4,92.982L88.126,88.2c-3,3.841-3.938,9.019-3.316,13.854a36.495,36.495,0,0,0,5.14,13.586,16.135,16.135,0,0,0,2.5,3.437,6.4,6.4,0,0,0,3.719,1.909,3.836,3.836,0,0,0-.612-3.464,8.353,8.353,0,0,0,6.155-2.2l-1.774-1.36A6.478,6.478,0,0,0,105.149,112.285Z" transform="translate(-8666.652 -7727.717)" fill="#263238"/>
      <g id="Grupo_1113898" data-name="Grupo 1113898" transform="translate(-8593.401 -7639.248)">
        <path id="Trazado_904185" data-name="Trazado 904185" d="M66.03,98.955a7.756,7.756,0,0,1,5.628-7.305l10.376-2.959c4.5-.617,7.678,4.854,8.1,9.378.472,5.028.827,10.337.345,14.113-.968,7.595-6.731,8.735-6.731,8.735s.1,3.6.161,5.805l-1.691,9.892-13.68-11.683L66.007,99.051C66,98.922,66.023,99.132,66.03,98.955Z" transform="translate(-66.006 -88.643)" fill="#ffbe9d"/>
      </g>
      <g id="Grupo_1113899" data-name="Grupo 1113899" transform="translate(-8572.514 -7624.895)">
        <path id="Trazado_904186" data-name="Trazado 904186" d="M102.126,112.983a.969.969,0,0,1-.9,1.01.925.925,0,0,1-1.026-.841.97.97,0,0,1,.9-1.01.925.925,0,0,1,1.026.841Z" transform="translate(-100.195 -112.136)" fill="#263238"/>
      </g>
      <g id="Grupo_1113900" data-name="Grupo 1113900" transform="translate(-8574.153 -7627.791)">
        <path id="Trazado_904187" data-name="Trazado 904187" d="M101.344,108.357c-.116.13-.867-.39-1.91-.356-1.042.019-1.791.58-1.909.456-.057-.055.059-.287.384-.54a2.659,2.659,0,0,1,1.523-.521,2.552,2.552,0,0,1,1.525.441C101.288,108.072,101.4,108.3,101.344,108.357Z" transform="translate(-97.511 -107.395)" fill="#263238"/>
      </g>
      <g id="Grupo_1113901" data-name="Grupo 1113901" transform="translate(-8581.647 -7624.882)">
        <path id="Trazado_904188" data-name="Trazado 904188" d="M87.176,113a.969.969,0,0,1-.9,1.01.925.925,0,0,1-1.026-.841.971.971,0,0,1,.9-1.01.925.925,0,0,1,1.026.841Z" transform="translate(-85.245 -112.156)" fill="#263238"/>
      </g>
      <g id="Grupo_1113902" data-name="Grupo 1113902" transform="translate(-8584.059 -7627.51)">
        <path id="Trazado_904189" data-name="Trazado 904189" d="M85.131,108.819c-.117.13-.869-.39-1.911-.356-1.042.019-1.79.58-1.908.456-.057-.055.057-.287.384-.54a2.664,2.664,0,0,1,1.523-.521,2.557,2.557,0,0,1,1.525.441C85.072,108.537,85.188,108.762,85.131,108.819Z" transform="translate(-81.298 -107.856)" fill="#263238"/>
      </g>
      <g id="Grupo_1113903" data-name="Grupo 1113903" transform="translate(-8577.479 -7627.123)">
        <path id="Trazado_904190" data-name="Trazado 904190" d="M92.813,117.164a6.948,6.948,0,0,1,1.683-.358c.266-.036.517-.1.555-.28a1.356,1.356,0,0,0-.2-.784l-.85-2a34.861,34.861,0,0,1-1.935-5.25,35,35,0,0,1,2.35,5.082q.428,1.056.818,2.019a1.545,1.545,0,0,1,.168,1.041.668.668,0,0,1-.427.4,1.813,1.813,0,0,1-.45.077,6.787,6.787,0,0,1-1.71.054Z" transform="translate(-92.064 -108.488)" fill="#263238"/>
      </g>
      <g id="Grupo_1113904" data-name="Grupo 1113904" transform="translate(-8585.757 -7609.377)">
        <path id="Trazado_904191" data-name="Trazado 904191" d="M78.519,137.534s2.608,5.121,10.151,4.181l-.049-1.778a19.049,19.049,0,0,1-10.1-2.4Z" transform="translate(-78.519 -137.534)" fill="#eb996e"/>
      </g>
      <g id="Grupo_1113905" data-name="Grupo 1113905" transform="translate(-8585.402 -7631.026)">
        <path id="Trazado_904192" data-name="Trazado 904192" d="M83.839,102.819c-.094.287-1.139.184-2.356.369-1.222.161-2.2.549-2.368.3-.077-.119.084-.391.479-.679a4.154,4.154,0,0,1,3.6-.51C83.642,102.467,83.878,102.684,83.839,102.819Z" transform="translate(-79.096 -102.099)" fill="#263238"/>
      </g>
      <g id="Grupo_1113906" data-name="Grupo 1113906" transform="translate(-8574.309 -7631.039)">
        <path id="Trazado_904193" data-name="Trazado 904193" d="M100.814,103.106c-.176.242-.9.019-1.767.034-.865-.015-1.591.209-1.767-.034-.077-.118.03-.358.343-.593a2.557,2.557,0,0,1,2.847,0C100.784,102.751,100.891,102.992,100.814,103.106Z" transform="translate(-97.256 -102.079)" fill="#263238"/>
      </g>
      <path id="Trazado_904194" data-name="Trazado 904194" d="M86.875,125.338a1.361,1.361,0,0,1,1.377-1.074,1.424,1.424,0,0,1,1.116.746,1.749,1.749,0,0,1,.1,1.36l-.019.1a1.551,1.551,0,0,1-1.734.421,1.45,1.45,0,0,1-.841-1.551Z" transform="translate(-8667.519 -7741.749)" fill="#eb996e"/>
      <g id="Grupo_1113907" data-name="Grupo 1113907" transform="translate(-8580.289 -7618.17)">
        <path id="Trazado_904195" data-name="Trazado 904195" d="M90.446,126.034c0-.159-1.057-.078-1.874-.92s-.791-1.974-.938-1.97c-.067-.009-.185.267-.161.741a2.629,2.629,0,0,0,.724,1.649,2.29,2.29,0,0,0,1.567.7C90.206,126.243,90.457,126.105,90.446,126.034Z" transform="translate(-87.469 -123.143)" fill="#263238"/>
      </g>
      <path id="Trazado_904196" data-name="Trazado 904196" d="M71.755,83.066A10.524,10.524,0,0,1,77.839,78.9,5.733,5.733,0,0,1,83.4,80.368a6.126,6.126,0,0,0,2.44,1.445c1.178.229,2.167.035,3.575.757,1.923.983,2.766,3.555,3.657,5.523,1.108,2.445,2.685,4.7,3.408,7.281s.337,5.761-1.841,7.33c.416-2.207.757-4.662-.453-6.551-.925-1.442-2.57-2.24-3.756-3.476-1.43-1.491-1.616-3.486-3.113-4.908-3.421-3.247-9.445,2.467-15.56-4.7" transform="translate(-8661.644 -7724.038)" fill="#263238"/>
      <path id="Trazado_904197" data-name="Trazado 904197" d="M94.744,96.209A22.111,22.111,0,0,0,91.372,90.1a11.877,11.877,0,0,0-15.788-2.023l-.6.05a10.02,10.02,0,0,0,7.789,3.754c1.777-.008,3.7-.464,5.229.449,1.465.878,2.019,2.723,3.226,3.932.82.824,1.922,1.329,2.718,2.176a8.907,8.907,0,0,1,1.683,3.262C96.163,99.885,95.465,97.959,94.744,96.209Z" transform="translate(-8662.9 -7726.846)" fill="#263238"/>
      <path id="Trazado_904198" data-name="Trazado 904198" d="M70.2,89.127l-4.845-4.26c-3.777-.2-6.2,3.372-7.5,6.127-.964,2.048-1.262,4.34-1.989,6.483-.745,2.2-1.935,4.236-2.615,6.459s-.771,4.806.567,6.706l.841-1.554a9.392,9.392,0,0,0,2.541,5.8l.325-1.619a9.107,9.107,0,0,0,3.645,3.927l2.272,6.067C66.8,113.054,58.169,112.28,70.2,89.127Z" transform="translate(-8654.258 -7726.418)" fill="#263238"/>
      <path id="Trazado_904199" data-name="Trazado 904199" d="M71.027,90.128a21.946,21.946,0,0,1-1.138,4.055A7.8,7.8,0,0,1,67.4,97.521c-1.657,1.2-3.792,1.449-5.782,1.927s-4.112,1.4-4.932,3.274a46.887,46.887,0,0,1,1.7-8.128c.888-2.924,2.168-5.9,4.6-7.749a8.44,8.44,0,0,1,7.955-1.186" transform="translate(-8655.778 -7726.531)" fill="#263238"/>
      <g id="Grupo_1113908" data-name="Grupo 1113908" transform="translate(-8594.629 -7623.476)">
        <path id="Trazado_904200" data-name="Trazado 904200" d="M68.72,114.883c-.1-.252-4.8-1.8-4.723,3.148.077,4.807,4.9,3.723,4.9,3.584S68.72,114.883,68.72,114.883Z" transform="translate(-63.996 -114.456)" fill="#ffbe9d"/>
      </g>
      <g id="Grupo_1113909" data-name="Grupo 1113909" transform="translate(-8593.423 -7621.897)">
        <path id="Trazado_904201" data-name="Trazado 904201" d="M68.152,120.829c-.022-.014-.084.061-.223.128a.836.836,0,0,1-.626.025,2.072,2.072,0,0,1-.994-1.84,2.762,2.762,0,0,1,.211-1.2.97.97,0,0,1,.618-.655.427.427,0,0,1,.5.22c.066.133.039.23.064.237s.1-.084.059-.28a.532.532,0,0,0-.2-.3.629.629,0,0,0-.465-.113,1.178,1.178,0,0,0-.861.762,2.844,2.844,0,0,0-.264,1.346,2.175,2.175,0,0,0,1.262,2.052.9.9,0,0,0,.764-.141C68.145,120.946,68.168,120.838,68.152,120.829Z" transform="translate(-65.97 -117.042)" fill="#eb996e"/>
      </g>
      <g id="Grupo_1113910" data-name="Grupo 1113910" transform="translate(-8592.853 -7617.256)">
        <path id="Trazado_904202" data-name="Trazado 904202" d="M67.994,124.649a.946.946,0,1,0,.226.065" transform="translate(-66.903 -124.638)" fill="#fff"/>
      </g>
      <g id="Grupo_1113911" data-name="Grupo 1113911" transform="translate(-8592.953 -7617.294)">
        <path id="Trazado_904203" data-name="Trazado 904203" d="M68.155,124.691a1.292,1.292,0,0,1,.45.634.814.814,0,0,1-.168.757.841.841,0,0,1-1.491-.428.814.814,0,0,1,.262-.733,1.294,1.294,0,0,1,.718-.3c0-.013-.075-.048-.227-.046a.981.981,0,0,0-.593.226.96.96,0,0,0-.36.878,1.032,1.032,0,0,0,1.846.531.962.962,0,0,0,.161-.936.982.982,0,0,0-.383-.5C68.243,124.69,68.159,124.68,68.155,124.691Z" transform="translate(-66.739 -124.577)" fill="#263238"/>
      </g>
      <path id="Trazado_904204" data-name="Trazado 904204" d="M62.409,116.391c-.008.008-.057-.029-.147-.108a3.254,3.254,0,0,1-.367-.37,5.757,5.757,0,0,1-1-1.638,5.645,5.645,0,0,1-.382-2.828,4.823,4.823,0,0,1,1.7-3.035,11.694,11.694,0,0,1,3-1.767c.976-.421,1.851-.791,2.551-1.172a10.391,10.391,0,0,0,2.081-1.5,2.081,2.081,0,0,1-.439.548,7.471,7.471,0,0,1-1.532,1.152,27.285,27.285,0,0,1-2.54,1.243,12,12,0,0,0-2.915,1.736,4.6,4.6,0,0,0-1.621,2.838,5.609,5.609,0,0,0,.3,2.706,8.393,8.393,0,0,0,1.3,2.2Z" transform="translate(-8657.253 -7733.854)" fill="#455a64"/>
      <path id="Trazado_904205" data-name="Trazado 904205" d="M62.7,113.883a1.228,1.228,0,0,1-.215-.469,3.911,3.911,0,0,1-.173-1.4A4.474,4.474,0,0,1,62.9,110a4.4,4.4,0,0,1,1.88-1.748,24.627,24.627,0,0,1,2.349-.95,6.544,6.544,0,0,0,1.757-.974,3.877,3.877,0,0,0,1.1-1.471,1.058,1.058,0,0,1-.115.5,3.143,3.143,0,0,1-.841,1.138,6.25,6.25,0,0,1-1.793,1.074c-.719.3-1.535.559-2.313.961a4.227,4.227,0,0,0-1.775,1.614,4.47,4.47,0,0,0-.618,1.882,6.529,6.529,0,0,0,.168,1.851Z" transform="translate(-8657.968 -7734.198)" fill="#455a64"/>
      <path id="Trazado_904206" data-name="Trazado 904206" d="M77.678,90.384a14.05,14.05,0,0,0-1.879-3.1A14.107,14.107,0,0,0,72.978,85a2.682,2.682,0,0,1,1.01.406,7.788,7.788,0,0,1,3.421,3.919A2.674,2.674,0,0,1,77.678,90.384Z" transform="translate(-8662.118 -7726.472)" fill="#455a64"/>
      <path id="Trazado_904207" data-name="Trazado 904207" d="M111.766,115.676a2.363,2.363,0,0,1-.617-.084,12.4,12.4,0,0,1-1.64-.44,7.056,7.056,0,0,1-1.084-.481,2.914,2.914,0,0,1-1.054-.9,1.841,1.841,0,0,1-.286-.724l-.055-.367a2.605,2.605,0,0,1-.045-.4,5.007,5.007,0,0,1,.294-1.6,6.006,6.006,0,0,0,.337-1.505,2.324,2.324,0,0,0-.374-1.316,10.067,10.067,0,0,0-1.663-1.807,14.052,14.052,0,0,0-1.27-1.094,4.338,4.338,0,0,1-.5-.367,5.539,5.539,0,0,1,1.919,1.292,9.378,9.378,0,0,1,1.762,1.82,2.594,2.594,0,0,1,.437,1.481,6.089,6.089,0,0,1-.342,1.588,4.855,4.855,0,0,0-.285,1.5,2.252,2.252,0,0,0,.035.353l.051.373a1.549,1.549,0,0,0,.233.616,2.709,2.709,0,0,0,.941.836,7.471,7.471,0,0,0,1.03.5C110.909,115.442,111.782,115.618,111.766,115.676Z" transform="translate(-8674.114 -7734.091)" fill="#455a64"/>
      <g id="Grupo_1113912" data-name="Grupo 1113912" transform="translate(-8579.479 -7421.332)">
        <path id="Trazado_904208" data-name="Trazado 904208" d="M88.795,452.517l.266-6.743,11.752-.443-.178,8.252-4.274,2.574Z" transform="translate(-88.795 -445.331)" fill="#ffbe9d"/>
      </g>
      <g id="Grupo_1113913" data-name="Grupo 1113913" transform="translate(-8580.232 -7415)">
        <path id="Trazado_904209" data-name="Trazado 904209" d="M100.41,456.08l0,.773s13.047,5.384,13.162,7.872l-26.007-.382.481-8.649A14.879,14.879,0,0,0,100.41,456.08Z" transform="translate(-87.561 -455.695)" fill="#6595bf"/>
      </g>
      <g id="Grupo_1113914" data-name="Grupo 1113914" transform="translate(-8577.926 -7412.213)">
        <path id="Trazado_904210" data-name="Trazado 904210" d="M92.1,460.264a1.062,1.062,0,0,0-.752,1.2,1.021,1.021,0,0,0,1.184.757,1.121,1.121,0,0,0,.79-1.276A1.059,1.059,0,0,0,92,460.3" transform="translate(-91.334 -460.246)" fill="#fff"/>
      </g>
      <g id="Grupo_1113915" data-name="Grupo 1113915" transform="translate(-8580.231 -7408.432)">
        <path id="Trazado_904211" data-name="Trazado 904211" d="M87.562,468.527l.115-2.081,24.884,1.127s1.15.521,1.01,1.334Z" transform="translate(-87.562 -466.446)" fill="#fff"/>
      </g>
      <g id="Grupo_1113916" data-name="Grupo 1113916" transform="translate(-8569.69 -7413.889)">
        <path id="Trazado_904212" data-name="Trazado 904212" d="M107.209,457.634c-.006.127-.642.175-1.273.575-.641.383-.972.925-1.088.876-.117-.026.084-.782.856-1.253S107.243,457.518,107.209,457.634Z" transform="translate(-104.817 -457.513)" fill="#263238"/>
      </g>
      <g id="Grupo_1113917" data-name="Grupo 1113917" transform="translate(-8566.336 -7412.652)">
        <path id="Trazado_904213" data-name="Trazado 904213" d="M112.055,459.59c.028.124-.526.331-.965.862-.455.517-.572,1.094-.7,1.09-.119.018-.2-.727.363-1.376S112.054,459.469,112.055,459.59Z" transform="translate(-110.306 -459.537)" fill="#263238"/>
      </g>
      <g id="Grupo_1113918" data-name="Grupo 1113918" transform="translate(-8563.23 -7411.489)">
        <path id="Trazado_904214" data-name="Trazado 904214" d="M115.535,463.618c-.116.026-.284-.612.053-1.3s.934-.959.986-.852c.07.105-.321.473-.589,1.044S115.661,463.608,115.535,463.618Z" transform="translate(-115.389 -461.442)" fill="#263238"/>
      </g>
      <g id="Grupo_1113919" data-name="Grupo 1113919" transform="translate(-8590.045 -7421.179)">
        <path id="Trazado_904215" data-name="Trazado 904215" d="M71.5,452.768l.266-6.743,11.752-.443-.178,8.252-4.273,2.578Z" transform="translate(-71.5 -445.582)" fill="#ffbe9d"/>
      </g>
      <g id="Grupo_1113920" data-name="Grupo 1113920" transform="translate(-8590.796 -7414.851)">
        <path id="Trazado_904216" data-name="Trazado 904216" d="M83.118,456.327l0,.773s13.047,5.384,13.163,7.872L70.27,464.59l.48-8.649A14.881,14.881,0,0,0,83.118,456.327Z" transform="translate(-70.27 -455.941)" fill="#6595bf"/>
      </g>
      <g id="Grupo_1113921" data-name="Grupo 1113921" transform="translate(-8588.49 -7412.059)">
        <path id="Trazado_904217" data-name="Trazado 904217" d="M74.81,460.516a1.062,1.062,0,0,0-.752,1.2,1.021,1.021,0,0,0,1.184.757,1.121,1.121,0,0,0,.79-1.276,1.06,1.06,0,0,0-1.319-.649" transform="translate(-74.042 -460.498)" fill="#fff"/>
      </g>
      <g id="Grupo_1113922" data-name="Grupo 1113922" transform="translate(-8590.796 -7408.279)">
        <path id="Trazado_904218" data-name="Trazado 904218" d="M70.27,468.777l.115-2.081,24.884,1.128s1.15.521,1.01,1.334Z" transform="translate(-70.27 -466.696)" fill="#fff"/>
      </g>
      <g id="Grupo_1113923" data-name="Grupo 1113923" transform="translate(-8580.255 -7413.735)">
        <path id="Trazado_904219" data-name="Trazado 904219" d="M89.916,457.885c-.006.127-.641.175-1.273.575-.641.383-.972.925-1.088.876-.117-.026.084-.782.856-1.253S89.944,457.769,89.916,457.885Z" transform="translate(-87.524 -457.764)" fill="#263238"/>
      </g>
      <g id="Grupo_1113924" data-name="Grupo 1113924" transform="translate(-8576.899 -7412.499)">
        <path id="Trazado_904220" data-name="Trazado 904220" d="M94.763,459.841c.028.124-.526.332-.965.862-.454.518-.572,1.094-.7,1.09-.119.018-.2-.726.363-1.376S94.762,459.72,94.763,459.841Z" transform="translate(-93.015 -459.788)" fill="#263238"/>
      </g>
      <g id="Grupo_1113925" data-name="Grupo 1113925" transform="translate(-8573.795 -7411.336)">
        <path id="Trazado_904221" data-name="Trazado 904221" d="M98.242,463.869c-.115.025-.283-.612.053-1.3s.935-.958.987-.852c.071.106-.321.473-.589,1.044S98.368,463.858,98.242,463.869Z" transform="translate(-98.096 -461.692)" fill="#263238"/>
      </g>
      <path id="Trazado_904222" data-name="Trazado 904222" d="M42.609,176.356s9.776,15.154,14.909,21.263,13.565.733,14.543-7.577.733-23.707.733-23.707l-6.828-4.064-4.414,21.021-5.5-10.235Z" transform="translate(-8650.305 -7756.536)" fill="#ffbe9d"/>
      <path id="Trazado_904223" data-name="Trazado 904223" d="M87.667,155.759l2.933-7.332a11.685,11.685,0,0,0,1.732-1c.43-.4.345-3.029.223-3.52s.475-1.833.055-2.078-1.6,0-1.643-.489c-.01-.1.608-1.346-.247-1.965a3.721,3.721,0,0,0-1.353-.244L88.89,136.7s-1.955-2.559-3.056-1.222c0,0-4.155,5.01-4.521,5.744s-.474,9.226-.474,10.814" transform="translate(-8665.179 -7745.959)" fill="#ffbe9d"/>
      <path id="Trazado_904224" data-name="Trazado 904224" d="M80.809,151.936a2.332,2.332,0,0,1-.03-.443c0-.321-.009-.742-.016-1.27,0-1.1,0-2.7.056-4.679.029-.989.061-2.074.149-3.241.028-.293.05-.589.1-.9a1.907,1.907,0,0,1,.427-.865c.366-.5.757-1.01,1.165-1.53.813-1.032,1.683-2.1,2.59-3.212a3.765,3.765,0,0,1,.783-.818,1.294,1.294,0,0,1,1.2.013,5.312,5.312,0,0,1,1.752,1.507l.022.027.008.039c.046.236.1.49.146.745q.168.856.331,1.69l-.152-.128a5.981,5.981,0,0,1,.954.1,1.332,1.332,0,0,1,.494.183,1.243,1.243,0,0,1,.345.391,1.543,1.543,0,0,1,.142.98,3.028,3.028,0,0,1-.1.461l-.068.215-.013.045c0-.008,0-.026,0-.01a.068.068,0,0,0,.017.04c.025.052.16.1.289.119s.277.032.421.044.292.019.444.043a.835.835,0,0,1,.487.2.714.714,0,0,1,.128.512,3.3,3.3,0,0,1-.056.44c-.051.282-.118.551-.153.811a1.044,1.044,0,0,0,0,.358,3.643,3.643,0,0,1,.055.421c.022.273.032.541.037.807a10.615,10.615,0,0,1-.078,1.555,1.909,1.909,0,0,1-.231.757,2.3,2.3,0,0,1-.615.454c-.411.239-.819.445-1.217.638l.059-.064-2.192,5.34-.611,1.455a3.315,3.315,0,0,1-.236.5,3.259,3.259,0,0,1,.168-.524l.555-1.474,2.094-5.379.017-.042.043-.021c.39-.2.793-.406,1.191-.642a2.241,2.241,0,0,0,.532-.39,1.754,1.754,0,0,0,.177-.644,10.476,10.476,0,0,0,.064-1.514c-.007-.26-.019-.523-.041-.787a3.4,3.4,0,0,0-.05-.382,1.337,1.337,0,0,1-.008-.459c.037-.285.1-.556.151-.827a3,3,0,0,0,.049-.4.465.465,0,0,0-.055-.3.673.673,0,0,0-.305-.1c-.133-.02-.275-.028-.421-.039s-.3-.019-.452-.045a.722.722,0,0,1-.49-.247.373.373,0,0,1-.067-.162.242.242,0,0,1,0-.119l.018-.061.066-.211a2.7,2.7,0,0,0,.093-.415,1.236,1.236,0,0,0-.109-.784.925.925,0,0,0-.252-.29,1.085,1.085,0,0,0-.369-.127,5.79,5.79,0,0,0-.9-.09l-.128,0-.024-.124c-.109-.554-.221-1.12-.337-1.689-.05-.252-.1-.51-.146-.745l.029.066a5.048,5.048,0,0,0-1.629-1.412.984.984,0,0,0-.913-.028,3.755,3.755,0,0,0-.7.742c-.911,1.1-1.784,2.171-2.6,3.2-.408.512-.8,1.015-1.169,1.514a1.651,1.651,0,0,0-.387.751c-.052.287-.078.581-.108.869-.1,1.155-.144,2.239-.188,3.226-.065,1.95-.118,3.534-.156,4.674-.018.527-.032.948-.043,1.269a2.379,2.379,0,0,1-.029.438Z" transform="translate(-8665.148 -7745.865)" fill="#eb996e"/>
      <path id="Trazado_904225" data-name="Trazado 904225" d="M90.06,141.7c.01.054-.5.129-1.284.386a9.619,9.619,0,0,0-1.3.628,6.5,6.5,0,0,1-1.777.421,3.449,3.449,0,0,0-2.6,1.546,3.7,3.7,0,0,0-.432,1.231,1.7,1.7,0,0,1,.237-1.346,3.353,3.353,0,0,1,1.01-1.119,3.768,3.768,0,0,1,1.731-.629,6.962,6.962,0,0,0,1.705-.373,7.823,7.823,0,0,1,1.359-.575,3.577,3.577,0,0,1,1.352-.17Z" transform="translate(-8665.869 -7748.526)" fill="#eb996e"/>
      <path id="Trazado_904226" data-name="Trazado 904226" d="M91.568,141.3c-.066.055-.337-.193-.4-.617s.105-.745.184-.714.07.321.13.662S91.641,141.248,91.568,141.3Z" transform="translate(-8669.188 -7747.858)" fill="#eb996e"/>
      <path id="Trazado_904227" data-name="Trazado 904227" d="M93.63,145.4a11.263,11.263,0,0,1-3.858.565,3.858,3.858,0,0,0-1.43.14,1.55,1.55,0,0,0-.766.8,9.268,9.268,0,0,0-.28,1.074,1.732,1.732,0,0,1,.071-1.159,1.712,1.712,0,0,1,.856-.983,3.747,3.747,0,0,1,1.551-.191C91.9,145.628,93.612,145.308,93.63,145.4Z" transform="translate(-8667.663 -7749.966)" fill="#eb996e"/>
      <path id="Trazado_904228" data-name="Trazado 904228" d="M96.12,148.883a2.084,2.084,0,0,1-.931.216c-.589.066-1.4.044-2.277.071a5.068,5.068,0,0,0-1.2.149,1.442,1.442,0,0,0-.776.5,1.38,1.38,0,0,0-.244.833c-.017.008-.084-.07-.11-.244a1.094,1.094,0,0,1,.168-.715,1.587,1.587,0,0,1,.872-.65,4.6,4.6,0,0,1,1.277-.188c.9-.026,1.7.032,2.277.024a4.628,4.628,0,0,1,.943.008Z" transform="translate(-8668.966 -7751.313)" fill="#eb996e"/>
      <path id="Trazado_904229" data-name="Trazado 904229" d="M97.08,152.432c.061.028-.263.572-1.049.749l.125-.168.045.416a4.5,4.5,0,0,1,0,1.683,4.543,4.543,0,0,1-.321-1.646l-.035-.415-.013-.146.137-.023a5.479,5.479,0,0,0,1.111-.45Z" transform="translate(-8671.013 -7752.706)" fill="#eb996e"/>
      <path id="Trazado_904230" data-name="Trazado 904230" d="M92.058,232.026s8.7,19.195,8.7,31.2-8.576,51.258-8.576,51.258-1.143,10.862-2.286,25.344A173.021,173.021,0,0,1,85.509,366.7H76.935l-13.91.381s-5.907-24.2-5.526-33.347S59.405,314.1,59.405,314.1s-7.433-30.3-8.767-35.827a58.392,58.392,0,0,1-.8-10.681,70.09,70.09,0,0,1,4.907-26.409l2.427-6.161Z" transform="translate(-8653.114 -7783.674)" fill="#344154"/>
      <path id="Trazado_904231" data-name="Trazado 904231" d="M95.236,294.846c-.094,0-1.127,21.484-2.308,47.99s-2.061,48.006-1.967,48.01,1.125-21.481,2.309-48S95.331,294.85,95.236,294.846Z" transform="translate(-8669.114 -7808.115)" fill="#455a64"/>
      <path id="Trazado_904232" data-name="Trazado 904232" d="M99.842,263.508a6.518,6.518,0,0,0,.189-1.062c.105-.686.218-1.683.321-2.922a64.971,64.971,0,0,0-1.324-19.292c-.272-1.211-.52-2.187-.718-2.85a6.473,6.473,0,0,0-.337-1.026,6.529,6.529,0,0,0,.2,1.058c.157.673.368,1.654.609,2.867a75.074,75.074,0,0,1,1.32,19.226c-.072,1.235-.148,2.234-.213,2.923A6.445,6.445,0,0,0,99.842,263.508Z" transform="translate(-8671.845 -7785.359)" fill="#455a64"/>
      <path id="Trazado_904233" data-name="Trazado 904233" d="M53.2,256.65a1.7,1.7,0,0,0,.6.361,4.435,4.435,0,0,0,1.878.314,10.878,10.878,0,0,0,5.739-2.341,13.412,13.412,0,0,0,3.968-4.778,11.49,11.49,0,0,0,.7-1.757,2.692,2.692,0,0,0,.148-.677c-.066-.022-.309.939-1.062,2.324a14.235,14.235,0,0,1-3.959,4.617,11.307,11.307,0,0,1-5.546,2.372,5.2,5.2,0,0,1-2.462-.435Z" transform="translate(-8654.425 -7789.8)" fill="#455a64"/>
      <path id="Trazado_904234" data-name="Trazado 904234" d="M111.988,243.593a2.214,2.214,0,0,0,.141.612,12.129,12.129,0,0,0,.6,1.6,17.13,17.13,0,0,0,7.6,8.107,12.156,12.156,0,0,0,1.558.7,2.209,2.209,0,0,0,.6.18c.024-.057-.807-.382-2.043-1.094a18.862,18.862,0,0,1-7.5-8C112.316,244.422,112.046,243.574,111.988,243.593Z" transform="translate(-8677.295 -7788.174)" fill="#455a64"/>
      <path id="Trazado_904235" data-name="Trazado 904235" d="M91.893,241.836c.028,0,.039-.133.111-.348a1.5,1.5,0,0,1,.551-.742,1.381,1.381,0,0,1,1.284-.163,1.339,1.339,0,0,1,0,2.506,1.38,1.38,0,0,1-1.284-.164,1.492,1.492,0,0,1-.551-.742c-.072-.215-.084-.348-.111-.347s-.056.133-.018.38a1.487,1.487,0,0,0,.534.9,1.6,1.6,0,0,0,1.538.267,1.641,1.641,0,0,0,0-3.1,1.6,1.6,0,0,0-1.538.267,1.487,1.487,0,0,0-.534.9C91.834,241.7,91.871,241.837,91.893,241.836Z" transform="translate(-8669.465 -7786.854)" fill="#455a64"/>
      <path id="Trazado_904236" data-name="Trazado 904236" d="M72.5,365.458a42.335,42.335,0,0,0,4.61,2.754,42.408,42.408,0,0,0,4.776,2.455,42.3,42.3,0,0,0-4.61-2.754A42.467,42.467,0,0,0,72.5,365.458Z" transform="translate(-8661.932 -7835.586)" fill="#455a64"/>
      <path id="Trazado_904237" data-name="Trazado 904237" d="M121.816,166.525c-2.655,4.038-13.4,20.378-16.581,25.211a.747.747,0,0,0,.719,1.15l19.1-2.4a.75.75,0,0,0,.51-.3L143.8,165.276a.748.748,0,0,0-.659-1.187l-19.646,1.454A2.2,2.2,0,0,0,121.816,166.525Z" transform="translate(-8674.621 -7757.242)" fill="#e0e0e0"/>
      <path id="Trazado_904238" data-name="Trazado 904238" d="M121.722,166.444a1.293,1.293,0,0,1,.152-.229,2.139,2.139,0,0,1,.618-.521,2.681,2.681,0,0,1,1.272-.309l1.777-.146,11.325-.888,3.754-.288,2-.153c.177-.01.325-.032.527-.032a.85.85,0,0,1,.549.228.877.877,0,0,1,.146,1.121l-5.309,7.282-12.18,16.654c-.278.374-.523.726-.824,1.115a.91.91,0,0,1-.337.23,1.533,1.533,0,0,1-.371.073l-.673.084-2.672.337-5.223.655-9.875,1.233c-.2.022-.374.055-.606.067a.877.877,0,0,1-.633-.263.906.906,0,0,1-.261-.628,1.049,1.049,0,0,1,.23-.612l1.262-1.908,2.409-3.647,4.327-6.544,6.285-9.463,1.721-2.564.454-.662a1.674,1.674,0,0,1,.168-.22,1.816,1.816,0,0,1-.137.237l-.428.679-1.673,2.6-6.2,9.519L109,186.038l-2.4,3.656-1.253,1.911a.751.751,0,0,0-.181.454.613.613,0,0,0,.179.421.584.584,0,0,0,.425.176c.162-.009.382-.045.57-.066l9.873-1.252,5.222-.66,2.672-.337.673-.084a1.251,1.251,0,0,0,.3-.055.584.584,0,0,0,.22-.149l.8-1.087,12.2-16.639,5.324-7.252a.613.613,0,0,0-.1-.787.589.589,0,0,0-.385-.162c-.141,0-.337.021-.5.029l-2,.144-3.755.267-11.333.788-1.779.117a2.651,2.651,0,0,0-1.249.271,2.509,2.509,0,0,0-.81.7Z" transform="translate(-8674.528 -7757.161)" fill="#263238"/>
      <path id="Trazado_904239" data-name="Trazado 904239" d="M144.68,166.028a2.293,2.293,0,0,1-.4.059l-1.159.117-4.315.383-14.673,1.2.117-.068c-.918,1.365-1.866,2.781-2.818,4.245-3.87,5.952-7.255,11.423-9.809,15.316-1.27,1.951-2.325,3.512-3.061,4.586l-.862,1.23a3.128,3.128,0,0,1-.318.416,3.205,3.205,0,0,1,.265-.451l.811-1.262,2.975-4.639c2.5-3.921,5.856-9.409,9.732-15.368.952-1.465,1.9-2.882,2.826-4.246l.043-.062.075-.006,14.682-1.09,4.323-.289,1.164-.064a2.142,2.142,0,0,1,.4,0Z" transform="translate(-8675.504 -7757.995)" fill="#263238"/>
      <path id="Trazado_904240" data-name="Trazado 904240" d="M149.055,171.86Z" transform="translate(-8691.718 -7760.266)" fill="#fff"/>
      <path id="Trazado_904241" data-name="Trazado 904241" d="M149.091,172.144a.385.385,0,0,0-.472-.284,1.022,1.022,0,0,0-.512.288.511.511,0,0,0-.093.655c.191.236.583.149.813-.049A.668.668,0,0,0,149.091,172.144Z" transform="translate(-8691.28 -7760.262)" fill="#fff"/>
      <path id="Trazado_904242" data-name="Trazado 904242" d="M133.164,194.1s-.757-1.8,1.159-2.028a66.287,66.287,0,0,1,6.933,0s2.745.289,2.166,2.261c0,0,1.623,1.449.757,3.013s-1.217,1.1-1.217,1.1.232,1.912-1.217,2.2c0,0-1.571,1.851-3.016,1.739s-7.589-3.072-7.993-3.651-.985-.909-.637-1.556c0,0-.757-1.7.869-1.954C130.962,195.228,131.081,193.811,133.164,194.1Z" transform="translate(-8684.272 -7768.092)" fill="#ffbe9d"/>
      <path id="Trazado_904243" data-name="Trazado 904243" d="M143.985,196.019a5.253,5.253,0,0,1-1.292.093c-.8.017-1.9.018-3.113,0a18.442,18.442,0,0,1-3.129-.186c-.824-.191-1.148-.673-1.11-.686a3.281,3.281,0,0,0,1.156.465,30.186,30.186,0,0,0,3.088.084c1.217.019,2.317.053,3.113.094a5.306,5.306,0,0,1,1.287.135Z" transform="translate(-8686.381 -7769.362)" fill="#eb996e"/>
      <path id="Trazado_904244" data-name="Trazado 904244" d="M141.111,199.387a.954.954,0,0,1-.416.144,4.452,4.452,0,0,1-1.195.074,8.417,8.417,0,0,1-1.743-.315c-.641-.178-1.324-.421-2.044-.644a9.133,9.133,0,0,0-2.057-.421,3.16,3.16,0,0,1-1.752-.353,1,1,0,0,1-.421-.6.825.825,0,0,1,.072-.544c.151-.276.357-.292.352-.276.016.024-.148.084-.238.326a.749.749,0,0,0,.358.9,3.146,3.146,0,0,0,1.641.247,8.567,8.567,0,0,1,2.134.413l2.033.667a9.714,9.714,0,0,0,1.683.374A10.928,10.928,0,0,0,141.111,199.387Z" transform="translate(-8684.875 -7769.833)" fill="#eb996e"/>
      <path id="Trazado_904245" data-name="Trazado 904245" d="M138.484,203.5a5.155,5.155,0,0,1-1.291-.252c-.785-.2-1.862-.5-3.035-.889s-2.224-.773-2.975-1.078a5.182,5.182,0,0,1-1.188-.561c.032-.084,1.92.572,4.262,1.337A44.607,44.607,0,0,1,138.484,203.5Z" transform="translate(-8684.302 -7771.491)" fill="#eb996e"/>
      <path id="Trazado_904246" data-name="Trazado 904246" d="M140.4,207.272a2.817,2.817,0,0,1-1.07-.124,12.766,12.766,0,0,1-2.447-.861c-.925-.421-1.725-.847-2.307-1.156a3.87,3.87,0,0,1-.917-.554,20.119,20.119,0,0,1,3.354,1.42C138.826,206.868,140.414,207.188,140.4,207.272Z" transform="translate(-8685.729 -7772.993)" fill="#eb996e"/>
      <path id="Trazado_904247" data-name="Trazado 904247" d="M45.769,153.326s-7.856,3.272-5.907,13.667,2.965,13.867,2.965,13.867l15.488-8.149Z" transform="translate(-8649.114 -7753.056)" fill="#6595bf"/>
      <path id="Trazado_904248" data-name="Trazado 904248" d="M60.073,185.338a2.776,2.776,0,0,1-.565.368c-.374.218-.925.525-1.6.9-1.358.747-3.245,1.76-5.338,2.86s-4,2.083-5.384,2.776c-.692.348-1.255.625-1.648.81a2.738,2.738,0,0,1-.624.258,2.727,2.727,0,0,1,.567-.368c.374-.219.925-.526,1.6-.9,1.358-.747,3.245-1.76,5.338-2.86s3.995-2.083,5.384-2.776c.692-.347,1.255-.625,1.648-.81A2.768,2.768,0,0,1,60.073,185.338Z" transform="translate(-8651.2 -7765.51)" fill="#263238"/>
      <path id="Trazado_904249" data-name="Trazado 904249" d="M66.193,179.007a10.113,10.113,0,0,1-.846-1.44l-1.967-3.509c-.746-1.32-1.422-2.513-1.982-3.5a8.758,8.758,0,0,1-.752-1.493,8.652,8.652,0,0,1,.946,1.378c.549.873,1.286,2.092,2.065,3.46s1.443,2.63,1.89,3.56a7.664,7.664,0,0,1,.646,1.546Z" transform="translate(-8657.32 -7759.179)" fill="#263238"/>
    </g>
  </g>
</svg>
