<svg xmlns="http://www.w3.org/2000/svg" width="505" height="466" viewBox="0 0 505 466">
  <g id="Grupo_1118345" data-name="Grupo 1118345" transform="translate(-915 -6299.636)">
    <g id="Grupo_1118344" data-name="Grupo 1118344">
      <g id="Grupo_1115984" data-name="Grupo 1115984" transform="translate(0 1305.17)">
        <rect id="Rectángulo_405611" data-name="Rectángulo 405611" width="505" height="466" transform="translate(915 4994.466)" fill="#dcecf7"/>
      </g>
      <g id="aspecyos45" transform="translate(774.372 -884.291)">
        <g id="Grupo_1115985" data-name="Grupo 1115985" transform="translate(198.999 7265.462)">
          <path id="Trazado_906843" data-name="Trazado 906843" d="M10667.1-1568l-7.806,5.025-14.147-16.453,7.806-5.025Z" transform="translate(-10476.309 1833.94)" fill="#ff8b7b"/>
          <path id="Trazado_906844" data-name="Trazado 906844" d="M10652.966-1584.457l-7.817,5.025,7.306,8.489,7.807-5.037Z" transform="translate(-10476.309 1833.94)" fill="#d9a171" opacity="0.2" style="isolation: isolate"/>
          <path id="Trazado_906845" data-name="Trazado 906845" d="M10617.535-1545.123l-8.978.878-9.329-21.344,8.976-.878Z" transform="translate(-10486.396 1837.891)" fill="#ff8b7b"/>
          <path id="Trazado_906846" data-name="Trazado 906846" d="M10599.238-1565.579l4.8,11h9.355l-5.2-11.879Z" transform="translate(-10486.394 1837.894)" fill="#d9a171" opacity="0.2" style="isolation: isolate"/>
          <path id="Trazado_906847" data-name="Trazado 906847" d="M10568.191-1784.384c-4.512.4-4.635-7.257-12.562-3.659-10.074,4.586-6.67,11.7-14.537,11.4s-13.135,5.842-11.381,10.416,4.477,8.9-1.084,10.745-9.344,3.464-8.537,8.074,4.744,6.464-1.891,9.4-5.965,15.648.535,15.66.268,6.342,6.1,12.782,14.7,7.318,18.393,4.147,7.816-5.793,14.77-.915,18.721,6.1,18.186-1.635-7.318-12.806-.928-16.831,14.637-6.013,12.051-13.843c-1.646-4.879-6.623-9.123-2.611-12.77,6.525-5.927,6.563-19.344-1.437-22.747C10578.607-1776.115,10583.084-1785.726,10568.191-1784.384Z" transform="translate(-10505.22 1789.008)" fill="#344154"/>
          <path id="Trazado_906848" data-name="Trazado 906848" d="M10560.018-1735.681c-.219,3.659-.682,6.916-1.22,10.343a98.414,98.414,0,0,1-2.205,10.124,74.651,74.651,0,0,1-3.307,9.952c-.659,1.634-1.415,3.257-2.221,4.879-.4.8-.841,1.6-1.292,2.378-.207.4-.463.793-.7,1.22l-.354.573a8.683,8.683,0,0,1-.806,1.085,7.138,7.138,0,0,1-2.439,1.793,7.767,7.767,0,0,1-2.633.671,10.435,10.435,0,0,1-3.952-.537,23.948,23.948,0,0,1-5.366-2.635,66.167,66.167,0,0,1-8.331-6.452,139.64,139.64,0,0,1-13.988-14.721l3.462-3.33c2.439,2.147,4.879,4.33,7.428,6.4s5.037,4.159,7.636,6.1a64.165,64.165,0,0,0,7.807,5.147,15.677,15.677,0,0,0,3.659,1.5,2.276,2.276,0,0,0,.951.086h-.244a1.808,1.808,0,0,0-.44.3l-.06.061h0l.27-.5c.17-.329.365-.646.523-.988q.514-1.012.988-2.049c.609-1.39,1.22-2.805,1.708-4.281,1.023-2.927,1.878-5.952,2.634-9.025s1.33-6.208,1.842-9.367.9-6.391,1.22-9.391Z" transform="translate(-10505.73 1800.577)" fill="#ff8b7b"/>
          <path id="Trazado_906849" data-name="Trazado 906849" d="M10561.239-1733.193c-.488,2.951-2.939,8.538-4.878,12.684-1.439,3-2.61,5.257-2.61,5.257l-1.708-.756-14.136-6.293c1.073-7.623,2.817-15.856,11.222-19.6C10554.373-1744.222,10562.105-1738.511,10561.239-1733.193Z" transform="translate(-10499.864 1799.238)" fill="#d9a171"/>
          <path id="Trazado_906850" data-name="Trazado 906850" d="M10561.239-1733.193c-.488,2.951-2.939,8.538-4.878,12.684-1.439,3-2.61,5.257-2.61,5.257l-1.708-.756-14.136-6.293c1.073-7.623,2.817-15.856,11.222-19.6C10554.373-1744.222,10562.105-1738.511,10561.239-1733.193Z" transform="translate(-10499.864 1799.238)" fill="#d9a171" opacity="0.6" style="isolation: isolate"/>
          <path id="Trazado_906851" data-name="Trazado 906851" d="M10553.785-1723.486c-1.438,3-2.609,5.257-2.609,5.257l-1.708-.756c.231-3.012.83-7.757,2.438-9.891A13.37,13.37,0,0,1,10553.785-1723.486Z" transform="translate(-10497.326 1802.216)" fill="#d9a171" opacity="0.3" style="isolation: isolate"/>
          <path id="Trazado_906852" data-name="Trazado 906852" d="M10515.943-1719.448l1.123-8.208-9.209,2.976s1.465,4.964,4.744,7Z" transform="translate(-10506.465 1802.484)" fill="#ff8b7b"/>
          <path id="Trazado_906853" data-name="Trazado 906853" d="M10513.146-1733.407l-6.43,3.525,1.392,6.513,9.208-3.025Z" transform="translate(-10506.716 1801.221)" fill="#ff8b7b"/>
          <path id="Trazado_906854" data-name="Trazado 906854" d="M10655.887-1567.743l8.477-6.1a.744.744,0,0,1,.976.086l5.77,6.012a1.478,1.478,0,0,1,.381,1.074,1.481,1.481,0,0,1-.491,1.028,1.6,1.6,0,0,1-.134.105c-2.988,2.073-4.537,2.915-8.27,5.586-2.293,1.646-7.123,5.623-10.293,7.891s-5.574-.732-4.465-1.964c5-5.513,6.33-9.269,7.123-12.367a2.445,2.445,0,0,1,.927-1.354Z" transform="translate(-10475.778 1836.24)" fill="#344154"/>
          <path id="Trazado_906855" data-name="Trazado 906855" d="M10608.869-1550.517h10.977a.914.914,0,0,1,.866.671l2.439,8.708a1.366,1.366,0,0,1-.935,1.691,1.358,1.358,0,0,1-.409.052h-25.367c-4.024,0-4.879-4.073-3.208-4.439,7.465-1.647,11.771-3.927,14.075-6.1a2.271,2.271,0,0,1,1.561-.585Z" transform="translate(-10487.889 1841.395)" fill="#344154"/>
          <path id="Trazado_906856" data-name="Trazado 906856" d="M10602.514-1697.723l-35.941,11.367c-24.883-49.25-21.334-51.86-21.334-51.86s5.746-3.281,11.723-6.013c.9-.415,1.816-.817,2.717-1.219a120.145,120.145,0,0,1,16.32-5.171c.816-.22,1.633-.415,2.439-.61a114.743,114.743,0,0,1,13.416-2.208c.537,6.818,1.072,12.587,1.658,17.6.758,6.537,1.574,11.77,2.439,16.295a142.583,142.583,0,0,0,6.564,21.82Z" transform="translate(-10498.292 1796.821)" fill="#d9a171"/>
          <path id="Trazado_906857" data-name="Trazado 906857" d="M10602.514-1697.723l-35.941,11.367c-24.883-49.25-21.334-51.86-21.334-51.86s5.746-3.281,11.723-6.013c.9-.415,1.816-.817,2.717-1.219a120.145,120.145,0,0,1,16.32-5.171c.816-.22,1.633-.415,2.439-.61a114.743,114.743,0,0,1,13.416-2.208c.537,6.818,1.072,12.587,1.658,17.6.758,6.537,1.574,11.77,2.439,16.295a142.583,142.583,0,0,0,6.564,21.82Z" transform="translate(-10498.292 1796.821)" fill="#d9a171" opacity="0.6" style="isolation: isolate"/>
          <path id="Trazado_906858" data-name="Trazado 906858" d="M10587.955-1721.937c-3.451-4.879-6.757-16.234-5.9-20.49l3.414,4.2C10586.224-1731.694,10587.041-1726.462,10587.955-1721.937Z" transform="translate(-10490.197 1799.24)" fill="#d9a171" opacity="0.3" style="isolation: isolate"/>
          <path id="Trazado_906859" data-name="Trazado 906859" d="M10563.748-1729.3s9.062-1.964,11.978,1.976c4-3.939,2.586-19.332.658-24.82a23.783,23.783,0,0,0-4.476,1.219l-6.4,9.9Z" transform="translate(-10494.189 1797.104)" fill="#ffbf9d"/>
          <path id="Trazado_906860" data-name="Trazado 906860" d="M10566.262-1730.462s-6.1,1.366-6.745,6.354c-8.538-6.354-7.94-15.66-6.013-21.149a21.632,21.632,0,0,1,4.586-1.61l6.4,7.05Z" transform="translate(-10496.702 1798.264)" fill="#ffbf9d"/>
          <path id="Trazado_906861" data-name="Trazado 906861" d="M10567.381-1759.223c1.219,4.488,3.072,8.928,6.1,10.391,0,0,2.818,8.074-8.16,21.576-11.488-8.184-8.172-16.4-8.172-16.4,5.416-3.257,3.891-7.55,1.586-11.306l3.182-5.11a3.031,3.031,0,0,1,4.184-.906,3.023,3.023,0,0,1,1.283,1.759Z" transform="translate(-10495.735 1795.058)" fill="#ff8b7b"/>
          <path id="Trazado_906862" data-name="Trazado 906862" d="M10566.633-1759.216a3.023,3.023,0,0,0-3.673-2.188,3.025,3.025,0,0,0-1.831,1.334l-1.024,1.635h0c.085,1.085.134,1.976.122,2.439-.1,3.171,4.354,3.025,7.977,1.5a31.972,31.972,0,0,1-1.571-4.72Z" transform="translate(-10494.988 1795.051)" fill="#d9a171" opacity="0.2" style="isolation: isolate"/>
          <path id="Trazado_906863" data-name="Trazado 906863" d="M10547.516-1766.61c3.17,8.647,4.318,12.38,10.123,15.575,8.721,4.818,18.648-.964,18.137-10.392-.463-8.477-5.562-21.21-15.234-22.149a12.575,12.575,0,0,0-13.781,11.244,12.579,12.579,0,0,0,.756,5.721Z" transform="translate(-10497.935 1790.186)" fill="#ff8b7b"/>
          <path id="Trazado_906864" data-name="Trazado 906864" d="M10570.617-1779.323c-2.976-2.866-6.1-6.2-12.075-5.55-6.61.72-9.222,4.72-9.222,4.72l-5.684,12.428s3.525,16,9.343,8.538c3.354-4.318,3.439-10.843,2.22-15.721a39.334,39.334,0,0,0,6.732-1.561c2.684,1,5.7,1,7.928-1.049.488-.451.842-.8,1.1-1.085l.207-.232C10571.825-1779.677,10571.278-1779.591,10570.617-1779.323Zm-7.684,2.586a64.007,64.007,0,0,1,6.342-1.7,6.252,6.252,0,0,1-6.342,1.695Z" transform="translate(-10498.606 1789.898)" fill="#344154"/>
          <path id="Trazado_906865" data-name="Trazado 906865" d="M10547.826-1761.609a6.757,6.757,0,0,0,4.136,3.086c2.293.573,3.378-1.488,2.684-3.659-.623-1.915-2.562-4.525-4.879-4.159a3.038,3.038,0,0,0-2.439,3.537,3.023,3.023,0,0,0,.5,1.2Z" transform="translate(-10497.808 1793.979)" fill="#ff8b7b"/>
          <path id="Trazado_906866" data-name="Trazado 906866" d="M10562.709-1696.935s-1.22,73.655,8.4,100.268c9.269,25.515,36.921,69.375,36.921,69.375l16.025-.4s-25.466-55.556-29.625-77.51c-6.928-36.431-5.4-100.012-5.4-100.012Z" transform="translate(-10494.429 1807.413)" fill="#d9a171"/>
          <path id="Trazado_906867" data-name="Trazado 906867" d="M10574.5-1690.581l4.3-12.2,7.623-2.439s-.7,28.943.977,58.958C10580.486-1659.581,10574.5-1683.974,10574.5-1690.581Z" transform="translate(-10491.827 1807.413)" fill="#d9a171" opacity="0.3" style="isolation: isolate"/>
          <path id="Trazado_906868" data-name="Trazado 906868" d="M10598.541-1557.471l19.8-.5-1.147-6.086-21.612,1.025Z" transform="translate(-10487.196 1838.421)" fill="#344154"/>
          <path id="Trazado_906869" data-name="Trazado 906869" d="M10569.118-1698.756s25,57.19,41.163,89.743c13.051,26.3,53.665,61.569,53.665,61.569l11.136-7.72s-30.564-41.786-39.578-59.617c-28.845-57.056-21.735-80.571-38.322-92.975Z" transform="translate(-10493.01 1806.855)" fill="#d9a171"/>
          <path id="Trazado_906870" data-name="Trazado 906870" d="M10648.175-1570.6l13.074-9.306-2.963-5.708-14.368,10.867Z" transform="translate(-10476.579 1833.687)" fill="#344154"/>
          <path id="Trazado_906871" data-name="Trazado 906871" d="M10598.886-1709.6l2.635,2.708c.207.208,0,.561-.428.7l-37.7,11.916a.624.624,0,0,1-.719-.159l-1.342-3.122c-.1-.207.122-.488.476-.6l36.408-11.526a.684.684,0,0,1,.67.085Z" transform="translate(-10494.725 1806.42)" fill="#344154"/>
          <path id="Trazado_906872" data-name="Trazado 906872" d="M10589.52-1704.15l.977-.3c.2,0,.316-.219.256-.329l-1.77-4.037a.376.376,0,0,0-.449-.11l-.977.317c-.2.061-.316.208-.256.329l1.779,4.025C10589.117-1704.138,10589.313-1704.089,10589.52-1704.15Z" transform="translate(-10489.019 1806.59)" fill="#d9a171"/>
          <path id="Trazado_906873" data-name="Trazado 906873" d="M10565.712-1696.623l.975-.3c.194-.061.306-.208.257-.329l-1.781-4.037c0-.122-.256-.158-.451-.1l-.976.3c-.184.061-.3.207-.257.329l1.781,4.037A.388.388,0,0,0,10565.712-1696.623Z" transform="translate(-10494.251 1808.247)" fill="#d9a171"/>
          <path id="Trazado_906874" data-name="Trazado 906874" d="M10577.609-1700.353l.975-.3c.2-.061.318-.207.256-.329l-1.779-4.037c0-.11-.244-.158-.439-.1l-.975.3a.265.265,0,0,0-.213.1.262.262,0,0,0-.045.23l1.77,4.037C10577.219-1700.353,10577.414-1700.353,10577.609-1700.353Z" transform="translate(-10491.633 1807.428)" fill="#d9a171"/>
          <path id="Trazado_906875" data-name="Trazado 906875" d="M10559.822-1770.932c.221.72.77,1.22,1.219,1.049a1.222,1.222,0,0,0,.453-1.549c-.221-.708-.758-1.22-1.221-1.049S10559.615-1771.676,10559.822-1770.932Z" transform="translate(-10495.069 1792.63)" fill="#344154"/>
          <path id="Trazado_906876" data-name="Trazado 906876" d="M10566.472-1772.932c.22.719.769,1.22,1.22,1.049s.671-.829.464-1.549-.769-1.22-1.22-1.049S10566.265-1773.651,10566.472-1772.932Z" transform="translate(-10493.608 1792.191)" fill="#344154"/>
          <path id="Trazado_906877" data-name="Trazado 906877" d="M10566.678-1774.225l1.573-1.012S10567.775-1773.627,10566.678-1774.225Z" transform="translate(-10493.546 1792.032)" fill="#344154"/>
          <path id="Trazado_906878" data-name="Trazado 906878" d="M10564.8-1771.687a20.4,20.4,0,0,0,3.928,3.818,3.259,3.259,0,0,1-2.441,1.219Z" transform="translate(-10493.957 1792.812)" fill="#ff5652"/>
          <path id="Trazado_906879" data-name="Trazado 906879" d="M10565.094-1764.085a.218.218,0,0,0,.072-.231.235.235,0,0,0-.27-.159,5.875,5.875,0,0,1-5.291-.841.225.225,0,0,0-.316.024.227.227,0,0,0-.055.164.217.217,0,0,0,.078.154,6.316,6.316,0,0,0,5.709.927Z" transform="translate(-10495.181 1794.2)" fill="#344154"/>
          <path id="Trazado_906880" data-name="Trazado 906880" d="M10557.432-1772.255a.465.465,0,0,0,.122-.195,3.525,3.525,0,0,1,2.28-2.208.437.437,0,0,0,.3-.162.436.436,0,0,0,.093-.326.437.437,0,0,0-.161-.3.439.439,0,0,0-.327-.093.492.492,0,0,0-.092.019,4.323,4.323,0,0,0-2.917,2.805.441.441,0,0,0,.246.57h.009a.5.5,0,0,0,.448-.112Z" transform="translate(-10495.738 1791.966)" fill="#344154"/>
          <path id="Trazado_906881" data-name="Trazado 906881" d="M10569.272-1776.862a.313.313,0,0,1,0-.085.465.465,0,0,0-.354-.512,4.405,4.405,0,0,0-3.88,1.049.44.44,0,0,0,.014.622.438.438,0,0,0,.313.123.439.439,0,0,0,.309-.135h0a3.491,3.491,0,0,1,3.074-.793.453.453,0,0,0,.524-.268Z" transform="translate(-10493.933 1791.523)" fill="#344154"/>
          <path id="Trazado_906882" data-name="Trazado 906882" d="M10589-1746.357c1.451,1.085,2.671,2.1,3.938,3.2s2.439,2.2,3.659,3.342c2.379,2.293,4.672,4.683,6.843,7.2a81.026,81.026,0,0,1,6.1,7.964c.488.684.915,1.427,1.366,2.135s.9,1.427,1.3,2.183.83,1.427,1.22,2.269l.647,1.354.524,1.366a32.121,32.121,0,0,1,1.561,10.733,59.068,59.068,0,0,1-1.085,10.074,89.067,89.067,0,0,1-2.439,9.562,92.856,92.856,0,0,1-3.439,9.208l-4.415-1.634c.756-2.927,1.476-6,2.013-9.038a86.3,86.3,0,0,0,1.306-9.1,59.051,59.051,0,0,0,.208-8.9,35.64,35.64,0,0,0-.514-4.2,24.409,24.409,0,0,0-1.109-3.756l-.379-.842-.415-.768c-.328-.561-.78-1.22-1.22-1.842s-.8-1.219-1.22-1.842-.841-1.22-1.3-1.805c-1.781-2.439-3.793-4.659-5.794-6.916s-4.194-4.379-6.427-6.452c-1.1-1.049-2.232-2.073-3.366-3.073s-2.354-2-3.4-2.854Z" transform="translate(-10489.926 1798.376)" fill="#ff8b7b"/>
          <path id="Trazado_906883" data-name="Trazado 906883" d="M10603.242-1692.217l-6.685,4.879,8.537,4.513s2.551-4.513,1.732-8.281Z" transform="translate(-10486.982 1810.269)" fill="#ff8b7b"/>
          <path id="Trazado_906884" data-name="Trazado 906884" d="M10594.828-1680.306l6.989,2.159,3.72-5.537-8.6-4.513Z" transform="translate(-10487.362 1811.152)" fill="#ff8b7b"/>
          <path id="Trazado_906885" data-name="Trazado 906885" d="M10584.791-1753.416c4.672-.208,13.857,11.27,13.857,11.27l-9.539,13.49s-10.709-8.538-11.537-14.478C10576.877-1748.2,10578.84-1753.172,10584.791-1753.416Z" transform="translate(-10491.182 1796.825)" fill="#d9a171"/>
          <path id="Trazado_906886" data-name="Trazado 906886" d="M10584.791-1753.416c4.672-.208,13.857,11.27,13.857,11.27l-9.539,13.49s-10.709-8.538-11.537-14.478C10576.877-1748.2,10578.84-1753.172,10584.791-1753.416Z" transform="translate(-10491.182 1796.825)" fill="#d9a171" opacity="0.6" style="isolation: isolate"/>
          <path id="Trazado_906887" data-name="Trazado 906887" d="M10651.977-1565.247h-.146a1.217,1.217,0,0,1-.974-.744.778.778,0,0,1,0-.756c.6-1.024,3.953-1.219,4.331-1.219a.231.231,0,0,1,.208.122.216.216,0,0,1,0,.244C10654.574-1566.7,10653.126-1565.247,10651.977-1565.247Zm2.684-2.232c-1.341.1-3.122.415-3.427.951a.294.294,0,0,0,0,.329.816.816,0,0,0,.635.512c.646.073,1.67-.6,2.792-1.793Z" transform="translate(-10475.075 1837.562)" fill="#d9a171"/>
          <path id="Trazado_906888" data-name="Trazado 906888" d="M10654.886-1567.089c-1.122,0-3.331-.622-3.745-1.525a.793.793,0,0,1,.244-.927,1.22,1.22,0,0,1,.938-.3c1.331.146,2.9,2.305,2.965,2.439a.2.2,0,0,1,0,.22.233.233,0,0,1-.172.122Zm-2.709-2.317a.7.7,0,0,0-.488.195c-.207.183-.184.33-.146.427.268.585,2,1.22,3.135,1.22-.561-.7-1.61-1.793-2.439-1.878Z" transform="translate(-10475.004 1837.148)" fill="#d9a171"/>
          <path id="Trazado_906889" data-name="Trazado 906889" d="M10602.389-1548.608a3.658,3.658,0,0,1-2.147-.512,1.383,1.383,0,0,1-.561-1.061.666.666,0,0,1,.281-.6c1-.671,4.743,1.024,5.487,1.378a.209.209,0,0,1,.121.219.219.219,0,0,1-.169.2,15.1,15.1,0,0,1-3.013.378Zm-1.745-1.9a.843.843,0,0,0-.438.1.219.219,0,0,0-.086.207.937.937,0,0,0,.391.732c.646.488,2.17.561,4.135.2a13.414,13.414,0,0,0-4-1.232Z" transform="translate(-10486.297 1841.303)" fill="#d9a171"/>
          <path id="Trazado_906890" data-name="Trazado 906890" d="M10605-1548.59h-.074c-1.22-.512-3.756-2.525-3.659-3.562,0-.22.184-.512.745-.573,2.194-.268,3.122,3.659,3.158,3.879a.229.229,0,0,1-.072.22A.193.193,0,0,1,10605-1548.59Zm-2.7-3.72h-.146c-.232,0-.354.1-.378.207-.074.6,1.658,2.2,2.928,2.891-.33-.964-1.123-3.1-2.4-3.1Z" transform="translate(-10485.947 1840.908)" fill="#d9a171"/>
          <path id="Trazado_906891" data-name="Trazado 906891" d="M10560.028-1772.245l1.573-1.012S10561.125-1771.647,10560.028-1772.245Z" transform="translate(-10495.006 1792.467)" fill="#344154"/>
        </g>
        <g id="Grupo_1115992" data-name="Grupo 1115992" transform="translate(541.898 7412.06)">
          <g id="Grupo_1115988" data-name="Grupo 1115988" transform="translate(6.497 0)">
            <g id="Grupo_1115986" data-name="Grupo 1115986" transform="translate(0.46 0.171)">
              <path id="Trazado_906892" data-name="Trazado 906892" d="M135.965,197.4a26.97,26.97,0,0,1,6.923,1.83l5.088-4.269,8.74,6.652-2.754,6.041a26.858,26.858,0,0,1,3.607,6.185l6.612.584,1.476,10.883-6.22,2.325a26.893,26.893,0,0,1-1.829,6.923l4.269,5.09-6.651,8.739-6.041-2.753A26.916,26.916,0,0,1,143,249.231l-.582,6.612-10.884,1.478-2.325-6.22a26.921,26.921,0,0,1-6.923-1.829L117.2,253.54l-8.74-6.652,2.75-6.043a26.99,26.99,0,0,1-3.607-6.186l-6.609-.582-1.478-10.884,6.22-2.317a26.763,26.763,0,0,1,1.83-6.925l-4.269-5.088,6.651-8.74,6.042,2.754a26.954,26.954,0,0,1,6.186-3.607l.581-6.609,10.884-1.477,2.325,6.22ZM131.5,212.508a11.783,11.783,0,1,0,13.26,10.091,11.783,11.783,0,0,0-13.26-10.091Z" transform="translate(-99.512 -191.182)" fill="#d9a171"/>
            </g>
            <g id="Grupo_1115987" data-name="Grupo 1115987" transform="translate(21.864 21.247)">
              <path id="Trazado_906893" data-name="Trazado 906893" d="M122.594,203.736a2.282,2.282,0,0,1,.742-.16,9.176,9.176,0,0,1,2.178-.046,11.727,11.727,0,0,1,7.224,3.321,12.178,12.178,0,1,1-19.093,2.592,11.721,11.721,0,0,1,6.076-5.123,9.161,9.161,0,0,1,2.112-.537,2.327,2.327,0,0,1,.759-.044c.018.1-1.031.2-2.732.925a11.75,11.75,0,0,0-5.631,5.11,11.465,11.465,0,0,0-.09,10.9,11.354,11.354,0,0,0,21.114-2.863,11.465,11.465,0,0,0-2.992-10.489,11.754,11.754,0,0,0-6.79-3.427C123.642,203.658,122.6,203.838,122.594,203.736Z" transform="translate(-112.011 -203.486)" fill="#344154"/>
            </g>
            <path id="Trazado_906894" data-name="Trazado 906894" d="M136.161,197.466a1.749,1.749,0,0,1-.174-.366l-.474-1.161-1.817-4.635.162.1-10.872,1.564.209-.217c-.166,2.008-.349,4.232-.545,6.614l-.013.166-.157.067a26.769,26.769,0,0,0-6.1,3.6l-.149.122-.173-.079L110,200.505l.41-.1-6.622,8.761-.012-.466,4.279,5.076.154.182-.09.221A26.565,26.565,0,0,0,106.335,221l-.029.244-.234.088-6.213,2.339.272-.454c.47,3.415.976,7.1,1.5,10.881l-.4-.382,6.609.573.272.024.106.254a26.7,26.7,0,0,0,3.553,6.076l.171.22-.115.254c-.861,1.894-1.8,3.958-2.75,6.045l-.14-.563,8.744,6.646-.589.016,5.087-4.269.221-.185.266.11a26.546,26.546,0,0,0,6.795,1.8h0l.389.306h0v.013l.009.024.018.048.035.1.073.2.145.39.291.783.584,1.559,1.156,3.1-.509-.3,10.887-1.473-.406.424q.3-3.337.585-6.612l.026-.281.26-.107a26.529,26.529,0,0,0,6.084-3.537l.221-.171.251.122,6.04,2.759-.55.139q3.415-4.47,6.664-8.73l.012.546-4.254-5.1-.166-.2.1-.244a26.532,26.532,0,0,0,1.814-6.812l.033-.244.233-.085,6.22-2.309-.254.423c-.509-3.83-.988-7.44-1.444-10.888l.327.313-6.608-.61-.207-.018-.079-.19a26.626,26.626,0,0,0-3.537-6.125l-.122-.152.079-.17c1.011-2.189,1.922-4.161,2.782-6.028l.085.339c-3.365-2.593-6.236-4.805-8.7-6.708l.267-.007-5.123,4.219-.072.06-.084-.037a28.463,28.463,0,0,0-5.123-1.614l-1.306-.259a1.858,1.858,0,0,1-.432-.1,2.47,2.47,0,0,1,.444.018c.293.031.732.082,1.325.183a25.653,25.653,0,0,1,5.214,1.486l-.156.024,5.049-4.312.128-.11.137.1,8.782,6.6.178.134-.093.207c-.843,1.873-1.736,3.855-2.725,6.053l-.038-.321a27.2,27.2,0,0,1,3.676,6.246l-.284-.209,6.613.56.289.024.039.289c.476,3.441.976,7.053,1.507,10.879l.043.313-.3.111-6.211,2.338.263-.334a27.294,27.294,0,0,1-1.843,7.034l-.067-.435,4.269,5.08.226.267-.212.279-6.639,8.749-.22.289-.331-.151-6.045-2.747.474-.055a27.383,27.383,0,0,1-6.291,3.674l.287-.39q-.285,3.274-.577,6.612l-.033.376-.373.051-10.884,1.479-.376.051-.134-.355q-.578-1.544-1.157-3.1l-.584-1.559-.291-.781-.148-.393-.072-.2-.038-.1-.017-.05-.01-.024v-.02l.385.3h0a27.433,27.433,0,0,1-7.037-1.86l.488-.076-5.091,4.269-.289.244-.3-.228-8.736-6.658-.3-.226.154-.339c.953-2.084,1.9-4.147,2.761-6.037l.055.473a27.521,27.521,0,0,1-3.659-6.295l.377.276-6.609-.592-.352-.033-.046-.349c-.507-3.781-1-7.468-1.464-10.888l-.045-.335.317-.122,6.22-2.309-.263.332a27.274,27.274,0,0,1,1.873-7.023l.062.4-4.251-5.1-.191-.232.182-.237,6.68-8.718.165-.217.244.113c2.117.976,4.147,1.914,6.031,2.778l-.321.038a27.276,27.276,0,0,1,6.27-3.618l-.171.233c.224-2.38.432-4.6.62-6.606l.018-.194.19-.026,10.9-1.387.122-.016.039.113,1.647,4.635c.17.5.3.9.412,1.21a2.463,2.463,0,0,1,.124.427Z" transform="translate(-99.245 -191.081)" fill="#344154"/>
          </g>
          <g id="Grupo_1115991" data-name="Grupo 1115991" transform="translate(0 75.828)">
            <g id="Grupo_1115989" data-name="Grupo 1115989" transform="translate(0.318 0.102)">
              <path id="Trazado_906895" data-name="Trazado 906895" d="M118.521,239.314a16.97,16.97,0,0,1,4.347,1.148l3.2-2.677,5.488,4.177-1.728,3.793a16.965,16.965,0,0,1,2.266,3.885l4.147.366.927,6.83-3.9,1.464a16.915,16.915,0,0,1-1.149,4.349l2.683,3.2-4.177,5.488-3.793-1.729a16.92,16.92,0,0,1-3.886,2.266l-.366,4.147-6.837.928-1.464-3.9a16.924,16.924,0,0,1-4.348-1.148l-3.2,2.677-5.488-4.177,1.729-3.794a17.033,17.033,0,0,1-2.255-3.882l-4.147-.366-.928-6.83,3.9-1.464a16.932,16.932,0,0,1,1.149-4.349l-2.683-3.2,4.177-5.488,3.8,1.729a16.833,16.833,0,0,1,3.885-2.266l.366-4.147,6.83-.927,1.464,3.9Zm-2.805,9.49a7.4,7.4,0,1,0,8.328,6.342,7.4,7.4,0,0,0-8.328-6.342Z" transform="translate(-95.639 -235.414)" fill="none"/>
            </g>
            <g id="Grupo_1115990" data-name="Grupo 1115990" transform="translate(13.751 13.336)">
              <path id="Trazado_906896" data-name="Trazado 906896" d="M110.127,243.3a1.441,1.441,0,0,1,.466-.1,5.71,5.71,0,0,1,1.368-.029,7.365,7.365,0,0,1,4.537,2.084,7.647,7.647,0,1,1-11.992,1.623,7.363,7.363,0,0,1,3.818-3.219,5.658,5.658,0,0,1,1.326-.335,1.42,1.42,0,0,1,.476-.029c.012.063-.648.128-1.716.581a7.373,7.373,0,0,0-3.537,3.211,7.2,7.2,0,0,0-.059,6.846,7.133,7.133,0,0,0,13.261-1.805,7.2,7.2,0,0,0-1.881-6.586,7.375,7.375,0,0,0-4.269-2.153C110.787,243.247,110.133,243.362,110.127,243.3Z" transform="translate(-103.48 -243.14)" fill="#263238"/>
            </g>
            <path id="Trazado_906897" data-name="Trazado 906897" d="M118.652,239.358a1.07,1.07,0,0,1-.111-.233l-.3-.732q-.409-1.035-1.143-2.91l.1.061-6.83.983.132-.137c-.1,1.261-.22,2.658-.343,4.153l-.009.1-.1.043a16.833,16.833,0,0,0-3.831,2.258l-.093.073-.11-.05-3.8-1.708.257-.065q-1.965,2.6-4.159,5.5l-.007-.293c.831.988,1.747,2.073,2.683,3.189l.1.113-.059.14a16.67,16.67,0,0,0-1.12,4.286l-.018.154-.148.055-3.9,1.464.17-.287c.3,2.147.61,4.462.94,6.83l-.251-.244,4.147.366.171.013.065.16a16.777,16.777,0,0,0,2.232,3.816l.107.139-.072.16-1.727,3.8-.089-.355,5.488,4.174-.366.009,3.194-2.683.139-.122.168.071a16.659,16.659,0,0,0,4.269,1.127h0c.107.085-.244-.191.244.191h0V273l.012.03.022.062.046.122.09.244.183.488.366.976.732,1.951-.318-.191,6.83-.924-.254.267q.185-2.1.366-4.147l.017-.178.162-.067a16.619,16.619,0,0,0,3.821-2.223l.139-.108.16.073,3.792,1.733-.346.085q2.145-2.805,4.186-5.488l.007.344-2.672-3.2-.1-.122.062-.149a16.652,16.652,0,0,0,1.14-4.279l.018-.156.148-.055,3.9-1.449-.16.266c-.318-2.405-.62-4.676-.907-6.837l.207.2-4.147-.381-.131-.012-.05-.122a16.77,16.77,0,0,0-2.223-3.847l-.072-.094.048-.107c.635-1.373,1.207-2.614,1.749-3.781l.054.215c-2.114-1.629-3.915-3.02-5.464-4.212h.168l-3.22,2.648-.046.038-.054-.022a17.732,17.732,0,0,0-3.219-1.012l-.821-.162a1.072,1.072,0,0,1-.271-.062,1.546,1.546,0,0,1,.278.012c.185.02.462.051.832.115a16.162,16.162,0,0,1,3.274.932l-.1.016,3.171-2.706.082-.068.085.065,5.515,4.147.111.084-.059.13-1.708,3.8-.024-.2a17.084,17.084,0,0,1,2.309,3.922l-.178-.13,4.147.351.182.016.026.182c.3,2.16.61,4.43.948,6.83l.026.2-.185.071-3.9,1.464.166-.209a17.075,17.075,0,0,1-1.157,4.418l-.041-.274L135.1,265.7l.14.168-.134.177-4.169,5.495-.137.179-.207-.094-3.8-1.725.3-.034a17.211,17.211,0,0,1-3.949,2.308l.178-.244q-.177,2.055-.366,4.147l-.021.234-.234.033-6.83.931-.237.033-.084-.223c-.244-.648-.488-1.3-.732-1.951l-.366-.976-.183-.488-.093-.244-.046-.122-.022-.062-.012-.03v-.023h0l.244.192h0a17.218,17.218,0,0,1-4.42-1.168l.3-.048-3.2,2.683-.182.152-.188-.144-5.488-4.181-.187-.143.1-.212c.6-1.309,1.192-2.605,1.736-3.792l.034.3a17.184,17.184,0,0,1-2.3-3.953l.237.174-4.147-.366-.223-.021-.029-.22c-.318-2.373-.628-4.69-.916-6.837l-.027-.212.2-.073,3.9-1.45-.166.211a17.188,17.188,0,0,1,1.177-4.412l.039.254-2.648-3.208-.122-.145.113-.149,4.194-5.474.1-.137.154.072,3.781,1.744-.2.024a17.076,17.076,0,0,1,3.94-2.271l-.107.145.389-4.147.012-.122.122-.016,6.842-.87.077-.01.024.071q.668,1.876,1.034,2.908l.259.759a1.618,1.618,0,0,1,.087.266Z" transform="translate(-95.447 -235.355)" fill="#263238"/>
          </g>
        </g>
        <g id="Grupo_1116013" data-name="Grupo 1116013" transform="translate(304.405 7276.766) rotate(-6.024)">
          <g id="Grupo_1116012" data-name="Grupo 1116012" transform="translate(0 0)">
            <g id="Grupo_1115993" data-name="Grupo 1115993" transform="translate(46.672 20.939)">
              <path id="Trazado_906898" data-name="Trazado 906898" d="M145.14,1.828,188.128.013a13.94,13.94,0,0,1,14.524,13.609l1.517,66.4A13.938,13.938,0,0,1,191.684,94.2h0a4.633,4.633,0,0,0-4.146,4.785l5.4,140.241a17.4,17.4,0,0,1-16.612,18.051L12.1,264.57a4.634,4.634,0,0,1-4.836-4.488L0,16.637A4.633,4.633,0,0,1,4.3,11.88Z" transform="translate(0 0)" fill="#d9a171"/>
            </g>
            <g id="Grupo_1115994" data-name="Grupo 1115994" transform="translate(53.802 21.267)" opacity="0.3">
              <path id="Trazado_906899" data-name="Trazado 906899" d="M0,255.147l.138,4.6,176.783-16.256L173.541,0s-42.913,6.5-43.693,6.5S0,255.147,0,255.147Z" fill="#d9a171"/>
            </g>
            <g id="Grupo_1115996" data-name="Grupo 1115996" transform="translate(18.675 6.456)">
              <g id="Grupo_1115995" data-name="Grupo 1115995" transform="translate(0.206 0.115)">
                <path id="Trazado_906900" data-name="Trazado 906900" d="M150.556,3.128,201.858,0l5.3,252.378L26.588,270.691,0,19.638Z" fill="#aed3f2"/>
              </g>
              <path id="Trazado_906901" data-name="Trazado 906901" d="M150.757,3.243s-.9.122-2.659.317l-7.807.881L110.3,7.775.213,19.925l.155-.191C7.508,87,16.785,174.375,27.018,270.78l-.254-.2,40.474-4.107,140.095-14.2-.2.223C204.868,142.148,203.01,51.644,201.952.116l.113.1L163.89,2.5l-9.81.571c-2.2.122-3.32.174-3.32.174s1.116-.088,3.317-.231l9.8-.626L202.057.006,202.169,0V.111c1.105,51.527,3.049,142.031,5.41,252.375v.2l-.2.021L67.283,266.931l-40.474,4.1-.229.023-.026-.229C16.365,174.419,7.129,87.039.02,19.77L0,19.6l.173-.018,110.108-12,30-3.242,7.807-.832C149.854,3.323,150.757,3.243,150.757,3.243Z" transform="translate(0)" fill="#344154"/>
            </g>
            <g id="Grupo_1115998" data-name="Grupo 1115998" transform="translate(9.898)">
              <g id="Grupo_1115997" data-name="Grupo 1115997" transform="translate(0 0.195)">
                <path id="Trazado_906902" data-name="Trazado 906902" d="M0,17.63l24.444,254,189.111-17.814L186.285,0Z" fill="#fff"/>
              </g>
              <path id="Trazado_906903" data-name="Trazado 906903" d="M0,17.825,186.267.018,186.453,0l.021.187c7.667,71.25,17.112,159.009,27.314,253.8l.026.234-.235.022-1.341.122L24.466,272.033l-.209.02-.02-.21C9.888,121.449.178,19.678,0,17.827.182,19.676,10.058,121.433,24.655,271.8l-.229-.189L212.2,253.9l1.341-.122-.208.257C203.157,159.242,193.742,71.48,186.1.226l.206.168Z" fill="#344154"/>
            </g>
            <g id="Grupo_1116002" data-name="Grupo 1116002" transform="translate(154.931 182.653)">
              <path id="Trazado_906904" data-name="Trazado 906904" d="M0,27.808a27.873,27.873,0,1,1,27.808,27.94A27.906,27.906,0,0,1,0,27.808Zm55.236.129a27.362,27.362,0,1,0-27.427,27.3A27.39,27.39,0,0,0,55.235,27.938Z" fill="#839eb6"/>
              <g id="Grupo_1115999" data-name="Grupo 1115999" transform="translate(3.178 3.563)">
                <path id="Trazado_906905" data-name="Trazado 906905" d="M0,24.253A24.311,24.311,0,1,1,24.254,48.621,24.337,24.337,0,0,1,0,24.253Zm45.033.106A20.724,20.724,0,1,0,24.261,45.036,20.745,20.745,0,0,0,45.033,24.359Z" fill="#839eb6"/>
              </g>
              <g id="Grupo_1116000" data-name="Grupo 1116000" transform="translate(9.161 20.109)">
                <path id="Trazado_906906" data-name="Trazado 906906" d="M0,8.065A17.826,17.826,0,0,1,1.925,0l3.2,1.619a14.227,14.227,0,0,0-1.54,6.454A14.4,14.4,0,0,0,25.486,20.4l1.871,3.059A17.988,17.988,0,0,1,0,8.065Z" fill="#839eb6"/>
              </g>
              <g id="Grupo_1116001" data-name="Grupo 1116001" transform="translate(18.846 10.231)">
                <path id="Trazado_906907" data-name="Trazado 906907" d="M0,2.026A17.992,17.992,0,0,1,23.523,27.567l-3.036-1.914A14.4,14.4,0,0,0,8.332,3.586a14.255,14.255,0,0,0-6.679,1.62Z" fill="#839eb6"/>
              </g>
            </g>
            <g id="Grupo_1116003" data-name="Grupo 1116003" transform="translate(31.577 63.54)">
              <path id="Trazado_906908" data-name="Trazado 906908" d="M73.6.008C73.617.13,57.148,1.8,36.826,3.713S.012,7.086,0,6.956,16.452,5.17,36.782,3.25,73.594-.12,73.6.008Z" fill="#344154"/>
            </g>
            <g id="Grupo_1116004" data-name="Grupo 1116004" transform="translate(50.778 233.072)">
              <path id="Trazado_906909" data-name="Trazado 906909" d="M57.839.011c.011.128-12.928,1.332-28.9,2.683S.011,5.046,0,4.918,12.928,3.587,28.906,2.234,57.828-.116,57.839.011Z" fill="#d9a171"/>
            </g>
            <g id="Grupo_1116005" data-name="Grupo 1116005" transform="translate(51.297 242.945)">
              <path id="Trazado_906910" data-name="Trazado 906910" d="M32.466.019c.01.128-7.25.854-16.213,1.61S.011,2.9,0,2.776s7.246-.854,16.213-1.61S32.454-.108,32.466.019Z" fill="#d9a171"/>
            </g>
            <g id="Grupo_1116006" data-name="Grupo 1116006" transform="translate(43.572 170.113)">
              <path id="Trazado_906911" data-name="Trazado 906911" d="M38.2.015c.012.122-8.529,1.073-19.076,2.113S.013,3.905,0,3.778,8.526,2.705,19.076,1.665,38.185-.114,38.2.015Z" fill="#d9a171"/>
            </g>
            <g id="Grupo_1116007" data-name="Grupo 1116007" transform="translate(29.847 210.854)" opacity="0.3">
              <path id="Trazado_906912" data-name="Trazado 906912" d="M.6,17.991l17.358-3.355L27.664,0,0,9.085Z" fill="#d9a171"/>
            </g>
            <g id="Grupo_1116008" data-name="Grupo 1116008" transform="translate(0 205.75)">
              <path id="Trazado_906913" data-name="Trazado 906913" d="M0,4.391,46.347,0,57.508,5.1,48.6,15.123,1.525,20.2Z" fill="#d9a171"/>
            </g>
            <g id="Grupo_1116009" data-name="Grupo 1116009" transform="translate(55.716 211.715)">
              <path id="Trazado_906914" data-name="Trazado 906914" d="M74.42,0s.055.015.159.052a2.158,2.158,0,0,1,.452.214,6.417,6.417,0,0,1,1.491,1.261A21.372,21.372,0,0,1,80.278,8a27.145,27.145,0,0,1,1.95,11.662A17.565,17.565,0,0,1,81.6,23.22a23.656,23.656,0,0,1-1.426,3.567,23.936,23.936,0,0,1-4.949,6.687,24.726,24.726,0,0,1-7.657,5.009,20.981,20.981,0,0,1-9.781,1.54A21.455,21.455,0,0,1,40.609,27.756a17.586,17.586,0,0,1-1.554-5.677,13.368,13.368,0,0,1,.626-5.99,9.616,9.616,0,0,1,3.567-5,6.919,6.919,0,0,1,2.975-1.112,7.12,7.12,0,0,1,3.181.373,9.392,9.392,0,0,1,4.9,4.066,15.074,15.074,0,0,1,1.945,6.192,27.063,27.063,0,0,1-1.908,13,25.6,25.6,0,0,1-7.855,10.525,23.569,23.569,0,0,1-11.831,4.756,22.168,22.168,0,0,1-12.139-1.976A20.732,20.732,0,0,1,13.884,38.9a20.117,20.117,0,0,1-2.93-10.832A14.686,14.686,0,0,1,12,22.733a10.564,10.564,0,0,1,3.05-4.289,6.32,6.32,0,0,1,4.845-1.433,7.255,7.255,0,0,1,4.269,2.38,9.1,9.1,0,0,1,2.146,4.193,11.82,11.82,0,0,1-.01,4.507,23.362,23.362,0,0,1-3.177,7.684,36.766,36.766,0,0,1-4.465,5.935,40.5,40.5,0,0,1-4.75,4.378,40.844,40.844,0,0,1-4.521,3.007,34.9,34.9,0,0,1-6.863,3.028c-1.635.521-2.521.7-2.521.7s.215-.076.634-.2,1.057-.286,1.859-.587a36.162,36.162,0,0,0,6.8-3.1,41.284,41.284,0,0,0,4.474-3.025,40.442,40.442,0,0,0,4.693-4.378,36.592,36.592,0,0,0,4.4-5.91,23.159,23.159,0,0,0,3.111-7.595,11.468,11.468,0,0,0-.008-4.379A8.785,8.785,0,0,0,23.9,19.625a6.9,6.9,0,0,0-4.057-2.25,5.935,5.935,0,0,0-4.555,1.366,10.172,10.172,0,0,0-2.928,4.138,14.294,14.294,0,0,0-1,5.191,19.715,19.715,0,0,0,2.88,10.6,20.309,20.309,0,0,0,8.46,7.841,21.729,21.729,0,0,0,11.893,1.924,23.146,23.146,0,0,0,11.587-4.67,25.143,25.143,0,0,0,7.71-10.334,26.618,26.618,0,0,0,1.879-12.777,14.58,14.58,0,0,0-1.878-6,8.925,8.925,0,0,0-4.655-3.873,6.64,6.64,0,0,0-2.978-.354,6.452,6.452,0,0,0-2.776,1.035,9.173,9.173,0,0,0-3.4,4.769,12.891,12.891,0,0,0-.61,5.8,17.111,17.111,0,0,0,1.51,5.544A21.071,21.071,0,0,0,57.8,39.632a20.639,20.639,0,0,0,9.61-1.487,24.444,24.444,0,0,0,7.563-4.916,23.59,23.59,0,0,0,4.912-6.586A23.354,23.354,0,0,0,81.3,23.129a17.352,17.352,0,0,0,.642-3.5A27.156,27.156,0,0,0,80.089,8.058a21.761,21.761,0,0,0-3.659-6.48A6.729,6.729,0,0,0,74.983.294C74.8.187,74.612.089,74.419,0Z" transform="translate(0)" fill="#d9a171"/>
            </g>
            <g id="Grupo_1116010" data-name="Grupo 1116010" transform="translate(55.458 18.778)">
              <path id="Trazado_906915" data-name="Trazado 906915" d="M99.364,25.221s-.026-.152-.06-.438-.084-.721-.147-1.27c-.121-1.129-.309-2.775-.548-4.91-.466-4.288-1.145-10.532-2-18.429L96.761.3.286,10.466H.278l.208-.256c.9,8.6,1.771,16.991,2.613,25.064l-.251-.2L71.7,27.983l20.281-2.054,5.469-.541,1.422-.133c.321-.029.494-.037.494-.037s-.151.026-.462.062l-1.391.16-5.414.6L71.888,28.213,2.9,35.524l-.227.023-.023-.227C1.8,27.248.924,18.855.022,10.257L0,10.027.229,10H.237L96.737.015,96.878,0l.014.139c.8,7.941,1.426,14.219,1.857,18.529l.477,4.886c.05.54.088.954.121,1.249A2.023,2.023,0,0,1,99.364,25.221Z" fill="#5e6178"/>
            </g>
            <g id="Grupo_1116011" data-name="Grupo 1116011" transform="translate(42.026 77.554)">
              <rect id="Rectángulo_405691" data-name="Rectángulo 405691" width="134.714" height="10.362" transform="matrix(0.995, -0.096, 0.096, 0.995, 2.75, 32.784)" fill="#ffbf9d"/>
              <rect id="Rectángulo_405692" data-name="Rectángulo 405692" width="134.714" height="10.362" transform="matrix(0.995, -0.096, 0.096, 0.995, 1.755, 22.471)" fill="#d9a171"/>
              <rect id="Rectángulo_405693" data-name="Rectángulo 405693" width="134.714" height="10.362" transform="matrix(0.995, -0.096, 0.096, 0.995, 3.746, 43.088)" fill="#dbdbdb"/>
              <rect id="Rectángulo_405694" data-name="Rectángulo 405694" width="134.714" height="10.362" transform="matrix(0.995, -0.096, 0.096, 0.995, 4.741, 53.402)" fill="#ffbf9d"/>
              <rect id="Rectángulo_405695" data-name="Rectángulo 405695" width="134.714" height="10.362" transform="matrix(0.995, -0.096, 0.096, 0.995, 5.735, 63.716)" fill="#dbdbdb"/>
              <rect id="Rectángulo_405696" data-name="Rectángulo 405696" width="134.714" height="10.362" transform="matrix(0.995, -0.096, 0.096, 0.995, 6.73, 74.019)" fill="#ffbf9d"/>
              <rect id="Rectángulo_405697" data-name="Rectángulo 405697" width="134.714" height="10.362" transform="matrix(0.995, -0.096, 0.096, 0.995, 7.725, 84.334)" fill="#dbdbdb"/>
              <rect id="Rectángulo_405698" data-name="Rectángulo 405698" width="94.325" height="10.362" transform="matrix(0.995, -0.096, 0.096, 0.995, 48.923, 90.767)" fill="#d9a171"/>
              <rect id="Rectángulo_405699" data-name="Rectángulo 405699" width="40.389" height="72.511" transform="matrix(0.995, -0.096, 0.096, 0.995, 1.755, 22.471)" fill="#c7c7c7"/>
              <path id="Trazado_906916" data-name="Trazado 906916" d="M0,12.937,67.032,6.342,134.091,0,67.059,6.606Z" transform="translate(3.745 30.151)" fill="#344154"/>
              <path id="Trazado_906917" data-name="Trazado 906917" d="M0,12.937,67.032,6.342,134.09,0,67.057,6.606Z" transform="translate(4.74 40.465)" fill="#344154"/>
              <path id="Trazado_906918" data-name="Trazado 906918" d="M0,12.941,67.031,6.335,134.091,0,67.058,6.595Z" transform="translate(5.736 50.776)" fill="#344154"/>
              <path id="Trazado_906919" data-name="Trazado 906919" d="M0,12.937,67.032,6.342,134.091,0,67.058,6.606Z" transform="translate(6.73 61.082)" fill="#344154"/>
              <path id="Trazado_906920" data-name="Trazado 906920" d="M0,12.937,67.032,6.342,134.09,0,67.057,6.606Z" transform="translate(7.725 71.395)" fill="#344154"/>
              <path id="Trazado_906921" data-name="Trazado 906921" d="M0,12.941,67.031,6.335,134.09,0,67.058,6.595Z" transform="translate(8.722 81.706)" fill="#344154"/>
              <path id="Trazado_906922" data-name="Trazado 906922" d="M0,2.476C4.256,1.855,8.538,1.42,12.807.976S21.368.149,25.68,0c-4.269.633-8.537,1.056-12.823,1.5S4.293,2.3,0,2.476Z" transform="translate(9.442 24.432)" fill="#344154"/>
              <path id="Trazado_906923" data-name="Trazado 906923" d="M0,1.876c3.211-.531,6.453-.854,9.683-1.2S16.159.053,19.428,0c-3.221.532-6.453.854-9.693,1.2S3.252,1.78,0,1.876Z" transform="translate(10.434 35.366)" fill="#344154"/>
              <path id="Trazado_906924" data-name="Trazado 906924" d="M0,2.475C4.254,1.843,8.537,1.42,12.806.976S21.37.149,25.681,0c-4.27.633-8.538,1.055-12.823,1.5S4.3,2.271,0,2.475Z" transform="translate(11.428 45.082)" fill="#344154"/>
              <path id="Trazado_906925" data-name="Trazado 906925" d="M0,2.039c3.5-.548,7.02-.909,10.54-1.279S17.589.079,21.14,0c-3.5.559-7.028.91-10.551,1.281S3.537,1.919,0,2.039Z" transform="translate(12.417 55.82)" fill="#344154"/>
              <path id="Trazado_906926" data-name="Trazado 906926" d="M0,2.476C4.254,1.844,8.537,1.42,12.806.976S21.367.149,25.68,0c-4.27.633-8.538,1.056-12.823,1.5S4.3,2.282,0,2.476Z" transform="translate(13.419 65.698)" fill="#344154"/>
              <path id="Trazado_906927" data-name="Trazado 906927" d="M0,2.476c4.255-.632,8.538-1.055,12.814-1.5S21.375.15,25.686,0c-4.27.632-8.538,1.055-12.822,1.5S4.295,2.272,0,2.476Z" transform="translate(14.413 76.012)" fill="#344154"/>
              <path id="Trazado_906928" data-name="Trazado 906928" d="M0,1.5C2.577,1.051,5.19.746,7.764.488S12.984.048,15.591,0C13.013.46,10.4.754,7.814,1.015S2.615,1.459,0,1.5Z" transform="translate(15.408 87.291)" fill="#344154"/>
              <path id="Trazado_906929" data-name="Trazado 906929" d="M0,1.864C3.192,1.345,6.413,1.01,9.621.672S16.066.05,19.3,0c-3.189.529-6.411.854-9.636,1.192S3.261,1.792,0,1.864Z" transform="translate(51.845 20.951)" fill="#344154"/>
              <path id="Trazado_906930" data-name="Trazado 906930" d="M0,1.864C3.191,1.336,6.412,1.01,9.621.672S16.066.05,19.3,0c-3.19.529-6.412.854-9.636,1.193S3.253,1.77,0,1.864Z" transform="translate(52.846 31.287)" fill="#344154"/>
              <path id="Trazado_906931" data-name="Trazado 906931" d="M0,1.863C3.19,1.334,6.412,1.009,9.621.671S16.065.05,19.3,0c-3.191.529-6.412.854-9.636,1.192S3.253,1.759,0,1.863Z" transform="translate(53.841 41.601)" fill="#344154"/>
              <path id="Trazado_906932" data-name="Trazado 906932" d="M0,1.863c3.192-.518,6.413-.854,9.62-1.192S16.064.05,19.3,0c-3.19.529-6.411.854-9.636,1.192S3.253,1.771,0,1.863Z" transform="translate(54.837 51.905)" fill="#344154"/>
              <path id="Trazado_906933" data-name="Trazado 906933" d="M0,1.862c3.192-.529,6.413-.854,9.622-1.19S16.067.05,19.3,0c-3.19.529-6.412.854-9.636,1.192S3.254,1.77,0,1.862Z" transform="translate(55.832 62.219)" fill="#344154"/>
              <path id="Trazado_906934" data-name="Trazado 906934" d="M0,1.864C3.192,1.334,6.414,1.01,9.621.672S16.067.05,19.3,0c-3.191.529-6.411.854-9.636,1.193S3.254,1.761,0,1.864Z" transform="translate(56.826 72.531)" fill="#344154"/>
              <path id="Trazado_906935" data-name="Trazado 906935" d="M0,1.864C3.192,1.345,6.413,1.01,9.622.672S16.066.05,19.3,0c-3.189.529-6.411.854-9.636,1.193S3.254,1.771,0,1.864Z" transform="translate(57.822 82.835)" fill="#344154"/>
              <path id="Trazado_906936" data-name="Trazado 906936" d="M0,1.863c3.2-.52,6.413-.854,9.636-1.192S16.071.05,19.309,0C16.118.529,12.9.854,9.686,1.192S3.246,1.792,0,1.863Z" transform="translate(79.745 18.261)" fill="#344154"/>
              <path id="Trazado_906937" data-name="Trazado 906937" d="M0,.643A18.422,18.422,0,0,1,6.164.049,18.445,18.445,0,0,1,0,.643Z" transform="translate(92.338 80.725)" fill="#344154"/>
              <path id="Trazado_906938" data-name="Trazado 906938" d="M0,.643A18.424,18.424,0,0,1,6.162.049,18.422,18.422,0,0,1,0,.643Z" transform="translate(91.345 70.421)" fill="#344154"/>
              <path id="Trazado_906939" data-name="Trazado 906939" d="M0,.655A17.229,17.229,0,0,1,3.1.093,16.223,16.223,0,0,1,6.2.058,18.43,18.43,0,0,1,.041.651Z" transform="translate(90.348 60.095)" fill="#344154"/>
              <path id="Trazado_906940" data-name="Trazado 906940" d="M0,.644a18.421,18.421,0,0,1,6.165-.6A18.43,18.43,0,0,1,0,.644Z" transform="translate(89.353 49.793)" fill="#344154"/>
              <path id="Trazado_906941" data-name="Trazado 906941" d="M0,.644a18.406,18.406,0,0,1,6.162-.6A18.427,18.427,0,0,1,0,.644Z" transform="translate(88.36 39.489)" fill="#344154"/>
              <path id="Trazado_906942" data-name="Trazado 906942" d="M0,.656A17.358,17.358,0,0,1,3.1.093,16.212,16.212,0,0,1,6.2.058,16.148,16.148,0,0,1,3.155.615,17.126,17.126,0,0,1,0,.656Z" transform="translate(87.364 29.163)" fill="#344154"/>
              <path id="Trazado_906943" data-name="Trazado 906943" d="M0,1.054A52.992,52.992,0,0,1,5.416.267,50.654,50.654,0,0,1,10.9,0,57.258,57.258,0,0,1,0,1.054Z" transform="translate(95.119 90.456)" fill="#344154"/>
              <path id="Trazado_906944" data-name="Trazado 906944" d="M0,1.863c3.2-.52,6.412-.854,9.636-1.192S16.071.05,19.307,0c-3.19.528-6.412.854-9.62,1.192S3.24,1.792,0,1.863Z" transform="translate(107.641 15.568)" fill="#344154"/>
              <path id="Trazado_906945" data-name="Trazado 906945" d="M0,1.864C3.2,1.334,6.413,1.01,9.636.671S16.07.05,19.31,0C16.118.529,12.9.854,9.686,1.192S3.245,1.771,0,1.864Z" transform="translate(108.639 25.902)" fill="#344154"/>
              <path id="Trazado_906946" data-name="Trazado 906946" d="M0,1.862C3.2,1.333,6.41,1.009,9.636.67S16.069.05,19.307,0c-3.191.529-6.412.854-9.621,1.192S3.241,1.755,0,1.862Z" transform="translate(109.634 36.222)" fill="#344154"/>
              <path id="Trazado_906947" data-name="Trazado 906947" d="M0,1.862C3.2,1.343,6.413,1.009,9.636.67S16.071.05,19.309,0C16.117.528,12.9.854,9.688,1.19S3.243,1.77,0,1.862Z" transform="translate(110.629 46.52)" fill="#344154"/>
              <path id="Trazado_906948" data-name="Trazado 906948" d="M0,1.863C3.2,1.333,6.412,1.009,9.636.671S16.07.05,19.309,0C16.116.529,12.9.854,9.688,1.192S3.243,1.77,0,1.863Z" transform="translate(111.624 56.834)" fill="#344154"/>
              <path id="Trazado_906949" data-name="Trazado 906949" d="M0,1.863c3.2-.529,6.41-.854,9.636-1.192S16.069.05,19.308,0c-3.191.529-6.414.854-9.622,1.192S3.24,1.761,0,1.863Z" transform="translate(112.621 67.148)" fill="#344154"/>
              <path id="Trazado_906950" data-name="Trazado 906950" d="M0,1.864C3.2,1.344,6.412,1.01,9.636.671S16.07.05,19.308,0c-3.192.528-6.413.854-9.622,1.192S3.243,1.771,0,1.864Z" transform="translate(113.615 77.451)" fill="#344154"/>
              <path id="Trazado_906951" data-name="Trazado 906951" d="M0,1.864C3.2,1.334,6.412,1.01,9.636.671S16.07.05,19.307,0c-3.19.529-6.413.854-9.621,1.192S3.243,1.774,0,1.864Z" transform="translate(114.609 87.762)" fill="#344154"/>
              <path id="Trazado_906952" data-name="Trazado 906952" d="M0,4.283C3.686,3.76,7.37,3.33,11.067,2.911s7.4-.715,11.1-1.156,7.4-.713,11.105-.987S40.678.19,44.4,0c-3.686.525-7.37.954-11.067,1.373s-7.4.715-11.087,1.154-7.406.715-11.115.989S3.716,4.082,0,4.283Z" transform="translate(0 0)" fill="#344154"/>
              <path id="Trazado_906953" data-name="Trazado 906953" d="M0,2.686C2.3,2.305,4.616,2,6.927,1.71s4.635-.448,6.959-.756S18.52.506,20.849.366s4.654-.3,7-.366c-2.309.392-4.616.688-6.936.976s-4.635.51-6.952.765-4.635.449-6.976.579S2.332,2.619,0,2.686Z" transform="translate(0.424 5.988)" fill="#344154"/>
              <path id="Trazado_906954" data-name="Trazado 906954" d="M0,3.739c3.217-.468,6.432-.854,9.659-1.227s6.448-.686,9.679-1.029,6.464-.624,9.7-.84S35.514.155,38.753,0c-3.208.477-6.435.862-9.66,1.237s-6.449.685-9.679,1.029-6.455.623-9.7.84S3.248,3.594,0,3.739Z" transform="translate(0.848 9.324)" fill="#344154"/>
              <path id="Trazado_906955" data-name="Trazado 906955" d="M0,2.752c2.36-.4,4.723-.7,7.094-.99s4.749-.522,7.113-.782S18.964.521,21.349.385,26.105.063,28.5,0c-2.362.387-4.732.7-7.093.99s-4.757.511-7.125.772-4.747.457-7.133.594S2.4,2.72,0,2.752Z" transform="translate(10.484 110.166)" fill="#344154"/>
              <path id="Trazado_906956" data-name="Trazado 906956" d="M0,3.176c2.727-.432,5.473-.771,8.209-1.1s5.488-.529,8.229-.889,5.488-.529,8.248-.7S30.186.094,32.955,0c-2.738.433-5.475.77-8.21,1.1s-5.489.582-8.23.879-5.5.529-8.247.711S2.791,3.086,0,3.176Z" transform="translate(10.907 114.112)" fill="#344154"/>
            </g>
            <text id="Estados_financieros" data-name="Estados financieros" transform="translate(112.089 84.173) rotate(-5)" fill="#12263f" font-size="7" font-family="SegoeUI, Segoe UI"><tspan x="0" y="0">Estados financieros</tspan></text>
          </g>
        </g>
        <g id="Grupo_1116017" data-name="Grupo 1116017" transform="translate(285.241 7283.201)">
          <path id="Trazado_906957" data-name="Trazado 906957" d="M615.878,99.188A29.272,29.272,0,1,1,582.7,74.5a29.272,29.272,0,0,1,33.175,24.691Z" transform="translate(-557.644 -74.184)" fill="#8454ee"/>
          <g id="Grupo_1116014" data-name="Grupo 1116014" transform="translate(6.96 6.945)">
            <path id="Trazado_906958" data-name="Trazado 906958" d="M607.729,98.932a22.308,22.308,0,1,1-25.277-18.817A22.308,22.308,0,0,1,607.729,98.932Z" transform="translate(-563.35 -79.876)" fill="#fed401"/>
          </g>
          <g id="Grupo_1116015" data-name="Grupo 1116015" transform="translate(6.547 6.111)">
            <path id="Trazado_906959" data-name="Trazado 906959" d="M607.7,98.4a13.247,13.247,0,0,1-.968-2.571,23.68,23.68,0,0,0-3.53-6.4,22.792,22.792,0,0,0-3.507-3.587,22.362,22.362,0,0,0-4.879-3.014,21.838,21.838,0,0,0-24.321,4.316,22.4,22.4,0,0,0-3.537,4.513,22.848,22.848,0,0,0-2.056,4.574,23.653,23.653,0,0,0-1.11,7.219,13.083,13.083,0,0,1-.026,2.747,6.565,6.565,0,0,1-.639-2.711,20.612,20.612,0,0,1,.61-7.592,22.342,22.342,0,0,1,5.639-9.852,22.786,22.786,0,0,1,16-6.848,22.914,22.914,0,0,1,3.6.237,21.921,21.921,0,0,1,3.393.766,21.566,21.566,0,0,1,3.1,1.21,22.353,22.353,0,0,1,8.7,7.308,20.67,20.67,0,0,1,3.193,6.918A6.554,6.554,0,0,1,607.7,98.4Z" transform="translate(-563.011 -79.192)" fill="#e0e0e0"/>
          </g>
          <g id="Grupo_1116016" data-name="Grupo 1116016" transform="translate(19.356 13.649)">
            <path id="Trazado_906960" data-name="Trazado 906960" d="M587.829,113.742l.61,3.837-3.426.548-.6-3.733a16.452,16.452,0,0,1-8.968-1.375l1.22-4.481A14.026,14.026,0,0,0,583.7,109.9l-.916-5.721c-3.951-.315-8.4-.9-9.185-5.8-.581-3.632,1.557-7.172,6.872-8.66l-.61-3.8,3.426-.548.6,3.735a15.679,15.679,0,0,1,7.289.976l-1.038,4.488a14.2,14.2,0,0,0-5.527-.943l.933,5.825c3.944.281,8.327.881,9.1,5.709C595.208,108.73,593.1,112.23,587.829,113.742Zm-5.854-14.595-.781-4.864c-1.749.7-2.309,1.81-2.128,2.942.2,1.2,1.329,1.686,2.914,1.923Zm7.214,7.318c-.193-1.2-1.289-1.689-2.845-1.97l.756,4.727c1.659-.654,2.27-1.665,2.094-2.763Z" transform="translate(-573.509 -85.371)" fill="#e0e0e0"/>
          </g>
        </g>
        <g id="Grupo_1116044" data-name="Grupo 1116044" transform="translate(265.238 7364.628)">
          <g id="Grupo_1116018" data-name="Grupo 1116018">
            <rect id="Rectángulo_405700" data-name="Rectángulo 405700" width="98.535" height="94.87" rx="8.41" fill="#e6e6e6"/>
          </g>
          <g id="Grupo_1116040" data-name="Grupo 1116040" transform="translate(6.886 10.022)">
            <g id="Grupo_1116019" data-name="Grupo 1116019" transform="translate(0 54.97)">
              <rect id="Rectángulo_405701" data-name="Rectángulo 405701" width="3.233" height="0.932" fill="#263238"/>
            </g>
            <g id="Grupo_1116020" data-name="Grupo 1116020" transform="translate(7.316 59.953)">
              <rect id="Rectángulo_405702" data-name="Rectángulo 405702" width="4.136" height="0.932" fill="#263238"/>
            </g>
            <g id="Grupo_1116021" data-name="Grupo 1116021" transform="translate(21.712 59.953)">
              <rect id="Rectángulo_405703" data-name="Rectángulo 405703" width="4.136" height="0.932" fill="#263238"/>
            </g>
            <g id="Grupo_1116022" data-name="Grupo 1116022" transform="translate(36.109 59.953)">
              <rect id="Rectángulo_405704" data-name="Rectángulo 405704" width="4.136" height="0.932" fill="#263238"/>
            </g>
            <g id="Grupo_1116023" data-name="Grupo 1116023" transform="translate(50.506 59.953)">
              <rect id="Rectángulo_405705" data-name="Rectángulo 405705" width="4.136" height="0.932" fill="#263238"/>
            </g>
            <g id="Grupo_1116024" data-name="Grupo 1116024" transform="translate(64.903 59.953)">
              <rect id="Rectángulo_405706" data-name="Rectángulo 405706" width="4.136" height="0.932" fill="#263238"/>
            </g>
            <g id="Grupo_1116025" data-name="Grupo 1116025" transform="translate(79.3 59.953)">
              <rect id="Rectángulo_405707" data-name="Rectángulo 405707" width="4.136" height="0.932" fill="#263238"/>
            </g>
            <g id="Grupo_1116026" data-name="Grupo 1116026" transform="translate(0 42.524)">
              <rect id="Rectángulo_405708" data-name="Rectángulo 405708" width="3.233" height="0.932" fill="#263238"/>
            </g>
            <g id="Grupo_1116027" data-name="Grupo 1116027" transform="translate(0 19.099)">
              <rect id="Rectángulo_405709" data-name="Rectángulo 405709" width="3.233" height="0.932" fill="#263238"/>
            </g>
            <g id="Grupo_1116028" data-name="Grupo 1116028" transform="translate(0 7.327)">
              <rect id="Rectángulo_405710" data-name="Rectángulo 405710" width="3.233" height="0.932" fill="#263238"/>
            </g>
            <g id="Grupo_1116029" data-name="Grupo 1116029" transform="translate(0.163 30.811)">
              <rect id="Rectángulo_405711" data-name="Rectángulo 405711" width="3.233" height="0.932" fill="#263238"/>
            </g>
            <g id="Grupo_1116030" data-name="Grupo 1116030" transform="translate(4.769)">
              <path id="Trazado_906961" data-name="Trazado 906961" d="M447.634,322.631s-.122.011-.346.016l-1.017.016-3.913.028-14.392.049-47.479.045h-11.4v-.151c.021-15.876.039-29.848.051-39.862.02-4.995.035-9,.045-11.772.011-1.371.02-2.439.027-3.171,0-.352.01-.624.013-.821s.015-.278.015-.278.01.094.015.278.007.468.013.821c0,.732.015,1.8.026,3.171.011,2.771.027,6.778.046,11.772.013,10.015.032,23.986.051,39.862l-.151-.151h11.251l47.479.045,14.392.049,3.913.029,1.017.015C447.517,322.62,447.634,322.631,447.634,322.631Z" transform="translate(-369.084 -266.729)" fill="#263238"/>
            </g>
            <g id="Grupo_1116031" data-name="Grupo 1116031" transform="translate(8.049 31.125)">
              <path id="Trazado_906962" data-name="Trazado 906962" d="M450.836,319.755c0,.084-17.055.154-38.089.154s-38.093-.068-38.093-.154,17.051-.152,38.093-.152S450.836,319.671,450.836,319.755Z" transform="translate(-374.655 -319.603)" fill="#263238"/>
            </g>
            <g id="Grupo_1116032" data-name="Grupo 1116032" transform="translate(8.049 19.411)">
              <path id="Trazado_906963" data-name="Trazado 906963" d="M450.836,299.859c0,.084-17.055.152-38.089.152s-38.093-.068-38.093-.152,17.051-.154,38.093-.154S450.836,299.773,450.836,299.859Z" transform="translate(-374.655 -299.705)" fill="#263238"/>
            </g>
            <g id="Grupo_1116033" data-name="Grupo 1116033" transform="translate(8.049 7.64)">
              <path id="Trazado_906964" data-name="Trazado 906964" d="M450.836,279.859c0,.085-17.055.154-38.089.154s-38.093-.068-38.093-.154,17.051-.152,38.093-.152S450.836,279.775,450.836,279.859Z" transform="translate(-374.655 -279.707)" fill="#263238"/>
            </g>
            <g id="Grupo_1116034" data-name="Grupo 1116034" transform="translate(8.049 42.836)">
              <path id="Trazado_906965" data-name="Trazado 906965" d="M450.836,339.654c0,.084-17.055.152-38.089.152s-38.093-.068-38.093-.152,17.051-.154,38.093-.154S450.836,339.568,450.836,339.654Z" transform="translate(-374.655 -339.5)" fill="#263238"/>
            </g>
            <g id="Grupo_1116035" data-name="Grupo 1116035" transform="translate(8.834 0.862)">
              <path id="Trazado_906966" data-name="Trazado 906966" d="M375.989,320.714V310.322l6.476-10.055,4.391,3.372,9.025-14.014,5.32,3.747,7.4-12.928,6.014,4.9,9.026-17.148,9.716,19.167,7.864-9.59,9.252-2.648v45.589Z" transform="translate(-375.989 -268.195)" fill="#aed3f2"/>
            </g>
            <g id="Grupo_1116036" data-name="Grupo 1116036" transform="translate(8.827 4.021)">
              <path id="Trazado_906967" data-name="Trazado 906967" d="M451.386,273.639a.8.8,0,0,1-.163.012l-.488.012-1.878.022-7.1.04.067-.033-7.608,9.945-.037.048h-.06l-19.049.027.122-.071-8.01,13.333-7.863,13.069-.115.191-.13-.181-10.318-14.188.206-.006-9.413,14.665-2.626,4.054-.7,1.059c-.159.238-.244.355-.244.355s.068-.13.217-.376l.666-1.078,2.567-4.091,9.323-14.724.1-.155.109.149,10.355,14.163-.244.011,7.853-13.075,8.018-13.327.044-.072h.083l19.049.027-.1.048,7.664-9.9.027-.034h.041l7.1.04,1.878.022.488.011A.939.939,0,0,1,451.386,273.639Z" transform="translate(-375.983 -273.557)" fill="#263238"/>
            </g>
            <g id="Grupo_1116037" data-name="Grupo 1116037" transform="translate(23.372 28.879)">
              <path id="Trazado_906968" data-name="Trazado 906968" d="M402.15,316.494a.732.732,0,1,1-.732-.7.718.718,0,0,1,.732.7Z" transform="translate(-400.687 -315.79)" fill="#263238"/>
            </g>
            <g id="Grupo_1116038" data-name="Grupo 1116038" transform="translate(45.344 16.391)">
              <path id="Trazado_906969" data-name="Trazado 906969" d="M439.477,295.278a.732.732,0,1,1-.732-.7.717.717,0,0,1,.732.7Z" transform="translate(-438.014 -294.574)" fill="#263238"/>
            </g>
            <g id="Grupo_1116039" data-name="Grupo 1116039" transform="translate(62.425 13.322)">
              <path id="Trazado_906970" data-name="Trazado 906970" d="M468.5,290.065a.732.732,0,1,1-.732-.7.717.717,0,0,1,.732.7Z" transform="translate(-467.032 -289.361)" fill="#263238"/>
            </g>
          </g>
          <g id="Grupo_1116041" data-name="Grupo 1116041" transform="translate(14.202 77.876)">
            <ellipse id="Elipse_13451" data-name="Elipse 13451" cx="4.726" cy="4.551" rx="4.726" ry="4.551" transform="translate(0 0)" fill="#fff"/>
          </g>
          <g id="Grupo_1116042" data-name="Grupo 1116042" transform="translate(30.667 79.378)">
            <rect id="Rectángulo_405712" data-name="Rectángulo 405712" width="55.519" height="1.703" fill="#fff"/>
          </g>
          <g id="Grupo_1116043" data-name="Grupo 1116043" transform="translate(30.667 83.632)">
            <rect id="Rectángulo_405713" data-name="Rectángulo 405713" width="23.052" height="1.703" fill="#fff"/>
          </g>
        </g>
      </g>
    </g>
  </g>
</svg>
