<svg xmlns="http://www.w3.org/2000/svg" xmlns:xlink="http://www.w3.org/1999/xlink" width="113" height="113" viewBox="0 0 113 113">
  <defs>
    <filter id="Trazado_896985" x="0" y="0" width="113" height="113" filterUnits="userSpaceOnUse">
      <feOffset dy="3" input="SourceAlpha"/>
      <feGaussianBlur stdDeviation="3" result="blur"/>
      <feFlood flood-opacity="0.161"/>
      <feComposite operator="in" in2="blur"/>
      <feComposite in="SourceGraphic"/>
    </filter>
  </defs>
  <g id="Grupo_1117703" data-name="Grupo 1117703" transform="translate(-323 -7561.611)">
    <g id="Grupo_1117693" data-name="Grupo 1117693" transform="translate(-1.872 5250)">
      <g id="Grupo_1111349" data-name="Grupo 1111349" transform="translate(-1.019 -1534.389)">
        <g id="Grupo_1111318" data-name="Grupo 1111318" transform="translate(-5.891)">
          <g id="Grupo_1109826" data-name="Grupo 1109826" transform="translate(340.781 3852)">
            <g id="Grupo_1098742" data-name="Grupo 1098742">
              <g transform="matrix(1, 0, 0, 1, -9, -6)" filter="url(#Trazado_896985)">
                <g id="Trazado_896985-2" data-name="Trazado 896985" transform="translate(9 6)" fill="#fd9826" opacity="0.859">
                  <path d="M 47.49993515014648 93.5 C 41.28932189941406 93.5 35.26528167724609 92.28397369384766 29.59514808654785 89.88571929931641 C 24.1176815032959 87.56894683837891 19.1981086730957 84.25197601318359 14.97306823730469 80.02693176269531 C 10.74802875518799 75.80189514160156 7.431055068969727 70.88231658935547 5.11428165435791 65.40485382080078 C 2.716028451919556 59.73471832275391 1.500001788139343 53.71067810058594 1.500001788139343 47.50006484985352 C 1.500001788139343 41.28932189941406 2.716028451919556 35.26528167724609 5.11428165435791 29.59514617919922 C 7.431055068969727 24.11767959594727 10.74802875518799 19.19810676574707 14.97306823730469 14.97306632995605 C 19.1981086730957 10.74802684783936 24.1176815032959 7.431053161621094 29.59514808654785 5.114280223846436 C 35.26528167724609 2.716026782989502 41.28932189941406 1.5 47.49993515014648 1.5 C 53.71054840087891 1.5 59.73458862304688 2.716026782989502 65.40472412109375 5.114280223846436 C 70.88218688964844 7.431053161621094 75.80176544189453 10.74802684783936 80.02680206298828 14.97306632995605 C 84.25183868408203 19.19810676574707 87.56881713867188 24.11767959594727 89.88558959960938 29.59514617919922 C 92.28384399414062 35.26528167724609 93.49987030029297 41.28932189941406 93.49987030029297 47.49993515014648 C 93.49987030029297 53.71067810058594 92.28384399414062 59.73471832275391 89.88558959960938 65.40485382080078 C 87.56881713867188 70.88231658935547 84.25183868408203 75.80189514160156 80.02680206298828 80.02693176269531 C 75.80176544189453 84.25197601318359 70.88218688964844 87.56894683837891 65.40472412109375 89.88571929931641 C 59.73458862304688 92.28397369384766 53.71054840087891 93.5 47.49993515014648 93.5 Z" stroke="none"/>
                  <path d="M 47.49993515014648 3 C 41.49116516113281 3 35.66371917724609 4.176155090332031 30.17947387695312 6.495796203613281 C 24.88081359863281 8.7369384765625 20.12149047851562 11.94596862792969 16.03372192382812 16.03372192382812 C 11.94596862792969 20.12149047851562 8.7369384765625 24.88081359863281 6.495796203613281 30.17947387695312 C 4.1761474609375 35.66372299194336 3 41.49116897583008 3 47.50006103515625 C 3 53.50883102416992 4.1761474609375 59.33627700805664 6.495796203613281 64.82052612304688 C 8.7369384765625 70.11918640136719 11.94596862792969 74.87850952148438 16.03372192382812 78.96627807617188 C 20.12149047851562 83.05403137207031 24.88081359863281 86.2630615234375 30.17947387695312 88.50419616699219 C 35.66371917724609 90.82384490966797 41.49116516113281 92 47.49993515014648 92 C 53.50870513916016 92 59.33615112304688 90.82384490966797 64.82039642333984 88.50419616699219 C 70.11905670166016 86.2630615234375 74.87837982177734 83.05403137207031 78.96614837646484 78.96627807617188 C 83.05390167236328 74.87850952148438 86.26293182373047 70.11918640136719 88.50407409667969 64.82052612304688 C 90.82372283935547 59.33627700805664 91.99987030029297 53.50883102416992 91.99987030029297 47.49993896484375 C 91.99987030029297 41.49116897583008 90.82372283935547 35.66372299194336 88.50407409667969 30.17947387695312 C 86.26293182373047 24.88081359863281 83.05390167236328 20.12149047851562 78.96614837646484 16.03372192382812 C 74.87837982177734 11.94596862792969 70.11905670166016 8.7369384765625 64.82039642333984 6.495796203613281 C 59.33615112304688 4.176155090332031 53.50870513916016 3 47.49993515014648 3 M 47.49993515014648 0 C 73.73342895507812 0 94.99987030029297 21.26644897460938 94.99987030029297 47.49993896484375 L 94.99987030029297 47.50006103515625 C 94.99987030029297 73.73355102539062 73.73342895507812 95 47.49993515014648 95 C 21.26644134521484 95 0 73.73355102539062 0 47.50006103515625 L 0 47.49993896484375 C 0 21.26644897460938 21.26644134521484 0 47.49993515014648 0 Z" stroke="none" fill="#fff"/>
                </g>
              </g>
              <g id="Rectángulo_400907" data-name="Rectángulo 400907" transform="translate(0 0)" fill="none" stroke="#fff" stroke-width="3">
                <rect width="95" height="95" rx="47.5" stroke="none"/>
                <rect x="1.5" y="1.5" width="92" height="92" rx="46" fill="none"/>
              </g>
            </g>
          </g>
        </g>
      </g>
    </g>
    <g id="presupuesto" transform="translate(348.305 7583.898)">
      <path id="Trazado_909099" data-name="Trazado 909099" d="M139.781,17.741v33.8c0,.067,0,.135,0,.2a4.364,4.364,0,0,1-4.359,4.16H110.887a4.363,4.363,0,0,1-4.364-4.363V12.408a4.357,4.357,0,0,1,4.364-4.364h19.486a4.349,4.349,0,0,1,1.9.434c1.179.567,1.511,1.284,3.629,3.45,2.437,2.646,3.019,2.918,3.516,4.063A4.315,4.315,0,0,1,139.781,17.741Z" transform="translate(-94.119 -7.144)" fill="#ffc477"/>
      <path id="Trazado_909100" data-name="Trazado 909100" d="M166.569,17.74v33.8c0,.067,0,.135,0,.2a4.377,4.377,0,0,1-.985.111H141.049a4.363,4.363,0,0,1-4.364-4.363V8.358c0-.069,0-.136,0-.2a4.383,4.383,0,0,1,.985-.111H157.16a4.37,4.37,0,0,1,3.188,1.386l2.336,2.5,2.674,2.8a4.391,4.391,0,0,1,1.21,3.014Z" transform="translate(-120.907 -7.143)" fill="#ffdaaa"/>
      <path id="Trazado_909101" data-name="Trazado 909101" d="M278.771,181.063V205.6a6.167,6.167,0,0,1-6.166,6.166H256.58a6.167,6.167,0,0,1-6.166-6.166V181.063a6.164,6.164,0,0,1,6.166-6.167H272.6A6.166,6.166,0,0,1,278.771,181.063Z" transform="translate(-221.914 -155.331)" fill="#4cba68"/>
      <path id="Trazado_909102" data-name="Trazado 909102" d="M299.013,181.063V205.6a3.165,3.165,0,0,1-3.617,4.142H279.372a6.167,6.167,0,0,1-6.167-6.166V179.038a6.134,6.134,0,0,1,1.194-3.647,6.14,6.14,0,0,1,2.423-.495h16.024A6.166,6.166,0,0,1,299.013,181.063Z" transform="translate(-242.156 -155.331)" fill="#7ccc92"/>
      <path id="Trazado_909103" data-name="Trazado 909103" d="M360.765,366.891v2.881a.922.922,0,0,1-.921.922h-2.883a.922.922,0,0,1-.922-.922v-2.881a.922.922,0,0,1,.922-.922h2.883A.922.922,0,0,1,360.765,366.891Z" transform="translate(-315.723 -325.03)" fill="#2c733f"/>
      <path id="Trazado_909104" data-name="Trazado 909104" d="M308.179,209.066v3.087a1.988,1.988,0,0,1-1.988,1.988h-15.9a1.989,1.989,0,0,1-1.988-1.988v-3.087a1.989,1.989,0,0,1,1.988-1.988h15.9A1.988,1.988,0,0,1,308.179,209.066Z" transform="translate(-255.559 -183.913)" fill="#1e81ce"/>
      <path id="Trazado_909105" data-name="Trazado 909105" d="M334.966,209.066v3.087a1.988,1.988,0,0,1-1.988,1.988H320.446a1.989,1.989,0,0,1-1.988-1.988v-3.087a1.989,1.989,0,0,1,1.988-1.988h12.531A1.988,1.988,0,0,1,334.966,209.066Z" transform="translate(-282.346 -183.913)" fill="#3d9ae2"/>
      <g id="Grupo_1117699" data-name="Grupo 1117699" transform="translate(32.738 33.403)">
        <path id="Trazado_909106" data-name="Trazado 909106" d="M293.024,366.891v2.881a.922.922,0,0,1-.922.922h-2.882a.923.923,0,0,1-.922-.922v-2.881a.923.923,0,0,1,.922-.922H292.1A.922.922,0,0,1,293.024,366.891Z" transform="translate(-288.297 -358.434)" fill="#2c733f"/>
        <path id="Trazado_909107" data-name="Trazado 909107" d="M360.765,299.53v2.881a.922.922,0,0,1-.921.922h-2.883a.922.922,0,0,1-.922-.922V299.53a.922.922,0,0,1,.922-.922h2.883A.922.922,0,0,1,360.765,299.53Z" transform="translate(-348.461 -298.608)" fill="#2c733f"/>
      </g>
      <path id="Trazado_909108" data-name="Trazado 909108" d="M429.322,299.53v2.881a.922.922,0,0,1-.922.922h-2.881a.922.922,0,0,1-.922-.922V299.53a.922.922,0,0,1,.922-.922H428.4A.922.922,0,0,1,429.322,299.53Z" transform="translate(-376.611 -265.205)" fill="#ee8700"/>
      <g id="Grupo_1117700" data-name="Grupo 1117700" transform="translate(32.738 33.403)">
        <path id="Trazado_909109" data-name="Trazado 909109" d="M293.024,299.53v2.881a.922.922,0,0,1-.922.922h-2.882a.923.923,0,0,1-.922-.922V299.53a.923.923,0,0,1,.922-.922H292.1A.922.922,0,0,1,293.024,299.53Z" transform="translate(-288.297 -298.608)" fill="#2c733f"/>
        <path id="Trazado_909110" data-name="Trazado 909110" d="M360.765,430.952v2.882a.922.922,0,0,1-.921.922h-2.883a.922.922,0,0,1-.922-.922v-2.882a.922.922,0,0,1,.922-.921h2.883A.922.922,0,0,1,360.765,430.952Z" transform="translate(-348.461 -415.33)" fill="#2c733f"/>
        <path id="Trazado_909111" data-name="Trazado 909111" d="M293.024,430.952v2.882a.922.922,0,0,1-.922.922h-2.882a.923.923,0,0,1-.922-.922v-2.882a.923.923,0,0,1,.922-.921H292.1A.922.922,0,0,1,293.024,430.952Z" transform="translate(-288.297 -415.33)" fill="#2c733f"/>
      </g>
      <path id="Trazado_909112" data-name="Trazado 909112" d="M429.322,367.338v8.949a1.573,1.573,0,0,1-1.572,1.573h-1.581a1.573,1.573,0,0,1-1.572-1.573v-8.949a1.37,1.37,0,0,1,1.37-1.37h1.986A1.369,1.369,0,0,1,429.322,367.338Z" transform="translate(-376.612 -325.029)" fill="#ee8700"/>
      <g id="Grupo_1117701" data-name="Grupo 1117701" transform="translate(32.738 33.403)">
        <path id="Trazado_909113" data-name="Trazado 909113" d="M360.765,366.891v.857a.922.922,0,0,1-.921.922h-2.883a.922.922,0,0,1-.922-.922v-.857a.922.922,0,0,1,.922-.922h2.883A.922.922,0,0,1,360.765,366.891Z" transform="translate(-348.461 -358.434)" fill="#317f46"/>
        <path id="Trazado_909114" data-name="Trazado 909114" d="M293.024,366.891v.857a.922.922,0,0,1-.922.922h-2.882a.923.923,0,0,1-.922-.922v-.857a.923.923,0,0,1,.922-.922H292.1A.922.922,0,0,1,293.024,366.891Z" transform="translate(-288.297 -358.434)" fill="#317f46"/>
        <path id="Trazado_909115" data-name="Trazado 909115" d="M360.765,299.53v.857a.922.922,0,0,1-.921.922h-2.883a.922.922,0,0,1-.922-.922v-.857a.922.922,0,0,1,.922-.922h2.883A.922.922,0,0,1,360.765,299.53Z" transform="translate(-348.461 -298.608)" fill="#317f46"/>
      </g>
      <path id="Trazado_909116" data-name="Trazado 909116" d="M429.322,299.53v.857a.922.922,0,0,1-.922.922h-2.881a.922.922,0,0,1-.922-.922v-.857a.922.922,0,0,1,.922-.922H428.4A.922.922,0,0,1,429.322,299.53Z" transform="translate(-376.611 -265.205)" fill="#ff9811"/>
      <g id="Grupo_1117702" data-name="Grupo 1117702" transform="translate(32.738 33.403)">
        <path id="Trazado_909117" data-name="Trazado 909117" d="M293.024,299.53v.857a.922.922,0,0,1-.922.922h-2.882a.923.923,0,0,1-.922-.922v-.857a.923.923,0,0,1,.922-.922H292.1A.922.922,0,0,1,293.024,299.53Z" transform="translate(-288.297 -298.608)" fill="#317f46"/>
        <path id="Trazado_909118" data-name="Trazado 909118" d="M360.765,430.952v.858a.922.922,0,0,1-.921.922h-2.883a.922.922,0,0,1-.922-.922v-.858a.922.922,0,0,1,.922-.921h2.883A.922.922,0,0,1,360.765,430.952Z" transform="translate(-348.461 -415.33)" fill="#317f46"/>
        <path id="Trazado_909119" data-name="Trazado 909119" d="M293.024,430.952v.858a.922.922,0,0,1-.922.922h-2.882a.923.923,0,0,1-.922-.922v-.858a.923.923,0,0,1,.922-.921H292.1A.922.922,0,0,1,293.024,430.952Z" transform="translate(-288.297 -415.33)" fill="#317f46"/>
      </g>
      <path id="Trazado_909120" data-name="Trazado 909120" d="M429.322,367.338v6.924a1.573,1.573,0,0,1-1.572,1.573h-1.581a1.573,1.573,0,0,1-1.572-1.573v-6.924a1.37,1.37,0,0,1,1.37-1.37h1.986A1.369,1.369,0,0,1,429.322,367.338Z" transform="translate(-376.612 -325.029)" fill="#ff9811"/>
      <path id="Trazado_909121" data-name="Trazado 909121" d="M343.806,19.438h-5.468a1.678,1.678,0,0,1-1.678-1.678V11.924a4.358,4.358,0,0,1,1.293.951l2.337,2.5,2.674,2.8A4.321,4.321,0,0,1,343.806,19.438Z" transform="translate(-298.513 -10.59)" fill="#ffb655"/>
      <path id="Trazado_909122" data-name="Trazado 909122" d="M86.821,463.788a2.143,2.143,0,0,1-2.137,2.137H71.593a2.137,2.137,0,0,1,0-4.274H84.684A2.143,2.143,0,0,1,86.821,463.788Z" transform="translate(-61.199 -410.009)" fill="#aa6100"/>
      <path id="Trazado_909123" data-name="Trazado 909123" d="M86.821,425.583a2.143,2.143,0,0,1-2.137,2.137H71.593a2.137,2.137,0,0,1,0-4.274H84.684A2.143,2.143,0,0,1,86.821,425.583Z" transform="translate(-61.199 -376.078)" fill="#cc7400"/>
      <path id="Trazado_909124" data-name="Trazado 909124" d="M86.821,387.379a2.143,2.143,0,0,1-2.137,2.137H71.593a2.137,2.137,0,0,1,0-4.274H84.684A2.143,2.143,0,0,1,86.821,387.379Z" transform="translate(-61.199 -342.147)" fill="#ee8700"/>
      <path id="Trazado_909125" data-name="Trazado 909125" d="M86.821,349.173a2.143,2.143,0,0,1-2.137,2.137H71.593a2.143,2.143,0,0,1-2.137-2.137,2.143,2.143,0,0,1,2.137-2.137H84.684A2.143,2.143,0,0,1,86.821,349.173Z" transform="translate(-61.199 -308.215)" fill="#ff9811"/>
      <path id="Trazado_909126" data-name="Trazado 909126" d="M84.683,313.108H71.593a2.143,2.143,0,0,1-2.137-2.137h0a2.143,2.143,0,0,1,2.137-2.137H84.683a2.143,2.143,0,0,1,2.137,2.137h0A2.143,2.143,0,0,1,84.683,313.108Z" transform="translate(-61.199 -274.287)" fill="#ffa733"/>
      <path id="Trazado_909127" data-name="Trazado 909127" d="M25.275,384.283a6.952,6.952,0,0,0-7.246-6.658H15.3a6.962,6.962,0,0,0,.6,13.911h2.129v0c.194.008.39.01.588,0a7.075,7.075,0,0,0,1.293-.177,6.962,6.962,0,0,0,5.366-6.526v-.008C25.283,384.645,25.283,384.465,25.275,384.283Z" transform="translate(-7.17 -335.377)" fill="#cc7400"/>
      <path id="Trazado_909128" data-name="Trazado 909128" d="M72.291,386.277v.008a6.962,6.962,0,0,1-5.366,6.526,6.965,6.965,0,0,1-5.359-6.48c0-.016,0-.03,0-.046v-.008a6.964,6.964,0,0,1,5.365-7.022,6.964,6.964,0,0,1,5.361,6.481C72.3,385.919,72.3,386.1,72.291,386.277Z" transform="translate(-54.186 -336.83)" fill="#ee8700"/>
      <path id="Trazado_909129" data-name="Trazado 909129" d="M50.69,18.721H46.562V10.6A5.277,5.277,0,0,0,45.1,6.96L42.435,4.169c-2.264-2.333-2.55-2.992-3.9-3.646A5.276,5.276,0,0,0,36.253,0H16.768A5.269,5.269,0,0,0,11.5,5.263V33.647h-1.11a3.035,3.035,0,0,0-2.155,5.173,3.026,3.026,0,0,0-.882,2.137,3.115,3.115,0,0,0,.06.6A7.655,7.655,0,0,0,8.511,56.821l14.974-.006a3.035,3.035,0,0,0,2.155-5.173,3.021,3.021,0,0,0,.877-1.986h1.139v.608a7.018,7.018,0,0,0,7.01,7.01H50.69a7.018,7.018,0,0,0,7.01-7.01V25.731A7.018,7.018,0,0,0,50.69,18.721ZM39.048,3.182l4.479,4.736s0,0,0,0h0l0,.006h0a.019.019,0,0,0,.007.007l0,0s0,0,0,0,0,0,0,0,0,0,0,0H39.048V3.182ZM10.394,35.447H23.485a1.237,1.237,0,1,1,0,2.474H10.394a1.237,1.237,0,1,1,0-2.474Zm0,4.274H23.485a1.237,1.237,0,1,1,0,2.474H14.443a7.327,7.327,0,0,0-1.139-.412,7.585,7.585,0,0,0-1.8-.264c-.177,0-.353,0-.53,0H9.3a1.216,1.216,0,0,1-.138-.566A1.239,1.239,0,0,1,10.394,39.721Zm14.328,5.511a1.239,1.239,0,0,1-1.237,1.237H18.45a7.569,7.569,0,0,0-1.527-2.474h6.562A1.239,1.239,0,0,1,24.722,45.231ZM6.017,43.616A7.764,7.764,0,0,0,4.6,45.434H3.552A5.942,5.942,0,0,1,6.017,43.616Zm-3.422,3.5H3.9a7.767,7.767,0,0,0-.245,1.349H2.275A5.912,5.912,0,0,1,2.595,47.121ZM2.74,51.58a5.9,5.9,0,0,1-.423-1.424H3.691a6.789,6.789,0,0,0,.322,1.424Zm1.122,1.687c.552,0,.873,0,.948,0a7.6,7.6,0,0,0,1.21,1.464A5.944,5.944,0,0,1,3.862,53.267Zm7.677,1.868A5.968,5.968,0,1,1,15.32,44.776,5.963,5.963,0,0,1,11.539,55.135Zm11.946-.119H16.223a7.707,7.707,0,0,0,1.933-2.474h5.329a1.237,1.237,0,0,1,0,2.474Zm1.227-5.36a1.238,1.238,0,0,1-1.227,1.086H18.777a7.73,7.73,0,0,0,.109-2.474h4.6A1.238,1.238,0,0,1,24.712,49.656Zm2.944-1.8H26.032a2.985,2.985,0,0,0-.393-.488,3.03,3.03,0,0,0,0-4.274,3.03,3.03,0,0,0,0-4.274,3.039,3.039,0,0,0-2.155-5.173H13.3V5.263A3.468,3.468,0,0,1,16.767,1.8H37.249V8.848a.9.9,0,0,0,.9.9h6.507c.188.729.072.488.107,8.974h-10.1a7.018,7.018,0,0,0-7.01,7.01V47.856Zm28.357,2.408a5.329,5.329,0,0,1-5.323,5.323H34.666a5.329,5.329,0,0,1-5.323-5.323V25.731a5.329,5.329,0,0,1,5.323-5.323H50.691a5.329,5.329,0,0,1,5.323,5.323V50.264Z" transform="translate(0)"/>
      <path id="Trazado_909130" data-name="Trazado 909130" d="M286.649,206.6h-3.06a1.148,1.148,0,0,1-1.145-1.145V202.37a1.148,1.148,0,0,1,1.145-1.145h15.9a1.146,1.146,0,0,1,1.145,1.145v3.087a1.146,1.146,0,0,1-1.145,1.145h-9.208a.843.843,0,0,0,0,1.687h9.208a2.835,2.835,0,0,0,2.832-2.832V202.37a2.835,2.835,0,0,0-2.832-2.832h-15.9a2.832,2.832,0,0,0-2.832,2.832v3.087a2.832,2.832,0,0,0,2.832,2.832h3.06a.843.843,0,0,0,0-1.687Z" transform="translate(-248.863 -177.217)"/>
      <path id="Trazado_909131" data-name="Trazado 909131" d="M282.523,364.842h2.883a1.767,1.767,0,0,0,1.766-1.766v-2.881a1.767,1.767,0,0,0-1.766-1.766h-2.883a1.768,1.768,0,0,0-1.766,1.766v2.881A1.768,1.768,0,0,0,282.523,364.842Zm-.079-4.647a.079.079,0,0,1,.079-.079h2.883a.079.079,0,0,1,.079.079v2.881a.079.079,0,0,1-.079.079h-2.883a.079.079,0,0,1-.079-.079Z" transform="translate(-248.863 -318.334)"/>
      <path id="Trazado_909132" data-name="Trazado 909132" d="M421.7,291.068h-2.881a1.767,1.767,0,0,0-1.766,1.766v2.881a1.767,1.767,0,0,0,1.766,1.766H421.7a1.767,1.767,0,0,0,1.766-1.766v-2.881A1.767,1.767,0,0,0,421.7,291.068Zm.079,4.647a.078.078,0,0,1-.079.079h-2.881a.079.079,0,0,1-.079-.079c.035-2.851-.073-2.96.079-2.96H421.7a.078.078,0,0,1,.079.079Z" transform="translate(-369.915 -258.508)"/>
      <path id="Trazado_909133" data-name="Trazado 909133" d="M282.523,297.481h2.883a1.767,1.767,0,0,0,1.766-1.766v-2.881a1.767,1.767,0,0,0-1.766-1.766h-2.883a1.768,1.768,0,0,0-1.766,1.766v2.881A1.768,1.768,0,0,0,282.523,297.481Zm-.079-4.647a.079.079,0,0,1,.079-.079h2.883a.079.079,0,0,1,.079.079v2.881a.079.079,0,0,1-.079.079h-2.883a.079.079,0,0,1-.079-.079Z" transform="translate(-248.863 -258.508)"/>
      <path id="Trazado_909134" data-name="Trazado 909134" d="M286.7,423.086a1.765,1.765,0,0,0-1.321-.595H282.5a1.76,1.76,0,0,0-1.32.595,2.412,2.412,0,0,0-.445,1.8v2.253A1.768,1.768,0,0,0,282.5,428.9h2.883a1.767,1.767,0,0,0,1.766-1.766v-2.253A2.432,2.432,0,0,0,286.7,423.086Zm-1.321,4.131c-2.848-.035-2.961.073-2.961-.079,0-3.051-.034-2.96.079-2.96h2.883c.138,0,.053.192.079.707A12,12,0,0,1,285.381,427.217Z" transform="translate(-248.839 -375.23)"/>
      <path id="Trazado_909135" data-name="Trazado 909135" d="M421.254,358.428h-1.986a2.216,2.216,0,0,0-2.213,2.213v8.949a2.419,2.419,0,0,0,2.416,2.417h1.581a2.419,2.419,0,0,0,2.416-2.417v-8.949A2.215,2.215,0,0,0,421.254,358.428Zm.526,11.162a.73.73,0,0,1-.729.73h-1.581a.73.73,0,0,1-.729-.73v-8.949a.527.527,0,0,1,.526-.526h1.986a.527.527,0,0,1,.526.526v8.949Z" transform="translate(-369.914 -318.333)"/>
      <path id="Trazado_909136" data-name="Trazado 909136" d="M166.28,173.076h0c-1.028-.378-1.771-.651-1.771-1.6,0-.868.577-1.309,1.714-1.309,1.207,0,1.532.531,1.958.531a.81.81,0,0,0,.719-.831c0-.7-1.146-1.051-2.171-1.143v-.634a.8.8,0,0,0-1.6,0v.735a2.614,2.614,0,0,0-2.171,2.734c0,1.963,1.445,2.506,2.607,2.943,1.137.427,2.036.765,2.036,2.063,0,1.072-.6,1.616-1.77,1.616-1.719,0-1.735-1.161-2.391-1.161a.843.843,0,0,0-.733.831c0,.665.99,1.538,2.423,1.765v.612a.8.8,0,0,0,1.6,0V179.6a2.887,2.887,0,0,0,2.423-3.119C169.151,174.131,167.559,173.546,166.28,173.076Z" transform="translate(-144.018 -148.575)"/>
      <path id="Trazado_909137" data-name="Trazado 909137" d="M353.125,422.491h-2.882a1.764,1.764,0,0,0-1.321.595,2.422,2.422,0,0,0-.444,1.8v2.253a1.767,1.767,0,0,0,1.766,1.766h2.882a1.767,1.767,0,0,0,1.765-1.766v-2.883a1.767,1.767,0,0,0-1.765-1.765Zm0,4.726c-2.848-.035-2.961.073-2.961-.079v-2.883a.079.079,0,0,1,.079-.078h2.882a.078.078,0,0,1,.078.078C353.169,427.11,353.275,427.217,353.125,427.217Z" transform="translate(-309.005 -375.23)"/>
      <path id="Trazado_909138" data-name="Trazado 909138" d="M353.147,291.068h-2.882a1.767,1.767,0,0,0-1.766,1.766v2.881a1.767,1.767,0,0,0,1.766,1.766h2.882a1.738,1.738,0,0,0,.642-.121,1.768,1.768,0,0,0,1.122-1.644v-2.881A1.768,1.768,0,0,0,353.147,291.068Zm.078,4.647a.078.078,0,0,1-.078.079h-2.882a.079.079,0,0,1-.079-.079v-2.881c0-.152.1-.045,2.961-.079a.078.078,0,0,1,.078.079v2.881Z" transform="translate(-309.027 -258.508)"/>
      <path id="Trazado_909139" data-name="Trazado 909139" d="M353.789,358.55a1.738,1.738,0,0,0-.642-.121h-2.882a1.767,1.767,0,0,0-1.766,1.766v2.881a1.767,1.767,0,0,0,1.766,1.766h2.882a1.767,1.767,0,0,0,1.765-1.766v-2.881A1.768,1.768,0,0,0,353.789,358.55Zm-.565,4.526a.078.078,0,0,1-.078.079h-2.882a.079.079,0,0,1-.079-.079v-2.881a.079.079,0,0,1,.079-.079h2.882a.078.078,0,0,1,.078.079Z" transform="translate(-309.027 -318.333)"/>
      <path id="Trazado_909140" data-name="Trazado 909140" d="M320.89,104.729h2.119a.843.843,0,1,0,0-1.687H320.89a.843.843,0,1,0,0,1.687Z" transform="translate(-283.758 -91.515)"/>
      <path id="Trazado_909141" data-name="Trazado 909141" d="M157.013,104.729h14.958a.843.843,0,0,0,0-1.687H157.013a.843.843,0,1,0,0,1.687Z" transform="translate(-138.213 -91.515)"/>
      <path id="Trazado_909142" data-name="Trazado 909142" d="M159.695,142.159a.843.843,0,0,0,0-1.687h-2.681a.843.843,0,0,0,0,1.687Z" transform="translate(-138.213 -124.758)"/>
      <path id="Trazado_909143" data-name="Trazado 909143" d="M226.382,141.315a.844.844,0,0,0-.843-.843h-14.4a.843.843,0,1,0,0,1.687h14.4A.844.844,0,0,0,226.382,141.315Z" transform="translate(-186.286 -124.758)"/>
      <path id="Trazado_909144" data-name="Trazado 909144" d="M79.2,401.229c0-.212.078-.273.151-.313a1.449,1.449,0,0,1,1.223.083.964.964,0,0,0,.457.139c.832,0,1.49-1.546-.5-1.888V399.2a.855.855,0,1,0-1.709,0v.162a1.918,1.918,0,0,0-1.3,1.921c0,1.439,1.045,1.831,1.809,2.118.728.273.98.393.98.888,0,.31-.083.6-.688.6-.882,0-.776-.7-1.436-.7a.881.881,0,0,0-.815.874c0,.584.608,1.139,1.455,1.364v.064a.855.855,0,0,0,1.709,0V406.4a2.113,2.113,0,0,0,1.455-2.165C81.989,401.673,79.2,402.058,79.2,401.229Z" transform="translate(-68.227 -353.782)"/>
    </g>
  </g>
</svg>
