<svg xmlns="http://www.w3.org/2000/svg" width="58" height="58" viewBox="0 0 58 58">
  <g id="Grupo_1118342" data-name="Grupo 1118342" transform="translate(-222.051 -4544)">
    <path id="Trazado_911305" data-name="Trazado 911305" d="M29,0A29,29,0,1,1,0,29,29,29,0,0,1,29,0Z" transform="translate(222.051 4544)" fill="#fd9826"/>
    <path id="Trazado_911306" data-name="Trazado 911306" d="M12.949,0H1.043V-2.578L6.527-8.344q2.027-2.309,2.027-3.668a2.551,2.551,0,0,0-.48-1.676,1.715,1.715,0,0,0-1.395-.574,1.737,1.737,0,0,0-1.465.768,3.155,3.155,0,0,0-.562,1.916H.691a5.6,5.6,0,0,1,.785-2.9,5.506,5.506,0,0,1,2.18-2.08,6.475,6.475,0,0,1,3.117-.75,6.369,6.369,0,0,1,4.26,1.277,4.56,4.56,0,0,1,1.494,3.668,5.326,5.326,0,0,1-.375,1.963,8.608,8.608,0,0,1-1.166,2A29.372,29.372,0,0,1,8.438-5.59l-2.2,2.543h6.715Z" transform="translate(244.051 4581)" fill="#12263f"/>
  </g>
</svg>
