<svg xmlns="http://www.w3.org/2000/svg" xmlns:xlink="http://www.w3.org/1999/xlink" width="113" height="113" viewBox="0 0 113 113">
  <defs>
    <filter id="Trazado_896985" x="0" y="0" width="113" height="113" filterUnits="userSpaceOnUse">
      <feOffset dy="3" input="SourceAlpha"/>
      <feGaussianBlur stdDeviation="3" result="blur"/>
      <feFlood flood-opacity="0.161"/>
      <feComposite operator="in" in2="blur"/>
      <feComposite in="SourceGraphic"/>
    </filter>
  </defs>
  <g id="Grupo_1117704" data-name="Grupo 1117704" transform="translate(-753.5 -7561.611)">
    <g id="Grupo_1117698" data-name="Grupo 1117698" transform="translate(428.628 5250)">
      <g id="Grupo_1111349" data-name="Grupo 1111349" transform="translate(-1.019 -1534.389)">
        <g id="Grupo_1111318" data-name="Grupo 1111318" transform="translate(-5.891)">
          <g id="Grupo_1109826" data-name="Grupo 1109826" transform="translate(340.781 3852)">
            <g id="Grupo_1098742" data-name="Grupo 1098742">
              <g transform="matrix(1, 0, 0, 1, -9, -6)" filter="url(#Trazado_896985)">
                <g id="Trazado_896985-2" data-name="Trazado 896985" transform="translate(9 6)" fill="#fd9826" opacity="0.859">
                  <path d="M 47.49993515014648 93.5 C 41.28932189941406 93.5 35.26528167724609 92.28397369384766 29.59514808654785 89.88571929931641 C 24.1176815032959 87.56894683837891 19.1981086730957 84.25197601318359 14.97306823730469 80.02693176269531 C 10.74802875518799 75.80189514160156 7.431055068969727 70.88231658935547 5.11428165435791 65.40485382080078 C 2.716028451919556 59.73471832275391 1.500001788139343 53.71067810058594 1.500001788139343 47.50006484985352 C 1.500001788139343 41.28932189941406 2.716028451919556 35.26528167724609 5.11428165435791 29.59514617919922 C 7.431055068969727 24.11767959594727 10.74802875518799 19.19810676574707 14.97306823730469 14.97306632995605 C 19.1981086730957 10.74802684783936 24.1176815032959 7.431053161621094 29.59514808654785 5.114280223846436 C 35.26528167724609 2.716026782989502 41.28932189941406 1.5 47.49993515014648 1.5 C 53.71054840087891 1.5 59.73458862304688 2.716026782989502 65.40472412109375 5.114280223846436 C 70.88218688964844 7.431053161621094 75.80176544189453 10.74802684783936 80.02680206298828 14.97306632995605 C 84.25183868408203 19.19810676574707 87.56881713867188 24.11767959594727 89.88558959960938 29.59514617919922 C 92.28384399414062 35.26528167724609 93.49987030029297 41.28932189941406 93.49987030029297 47.49993515014648 C 93.49987030029297 53.71067810058594 92.28384399414062 59.73471832275391 89.88558959960938 65.40485382080078 C 87.56881713867188 70.88231658935547 84.25183868408203 75.80189514160156 80.02680206298828 80.02693176269531 C 75.80176544189453 84.25197601318359 70.88218688964844 87.56894683837891 65.40472412109375 89.88571929931641 C 59.73458862304688 92.28397369384766 53.71054840087891 93.5 47.49993515014648 93.5 Z" stroke="none"/>
                  <path d="M 47.49993515014648 3 C 41.49116516113281 3 35.66371917724609 4.176155090332031 30.17947387695312 6.495796203613281 C 24.88081359863281 8.7369384765625 20.12149047851562 11.94596862792969 16.03372192382812 16.03372192382812 C 11.94596862792969 20.12149047851562 8.7369384765625 24.88081359863281 6.495796203613281 30.17947387695312 C 4.1761474609375 35.66372299194336 3 41.49116897583008 3 47.50006103515625 C 3 53.50883102416992 4.1761474609375 59.33627700805664 6.495796203613281 64.82052612304688 C 8.7369384765625 70.11918640136719 11.94596862792969 74.87850952148438 16.03372192382812 78.96627807617188 C 20.12149047851562 83.05403137207031 24.88081359863281 86.2630615234375 30.17947387695312 88.50419616699219 C 35.66371917724609 90.82384490966797 41.49116516113281 92 47.49993515014648 92 C 53.50870513916016 92 59.33615112304688 90.82384490966797 64.82039642333984 88.50419616699219 C 70.11905670166016 86.2630615234375 74.87837982177734 83.05403137207031 78.96614837646484 78.96627807617188 C 83.05390167236328 74.87850952148438 86.26293182373047 70.11918640136719 88.50407409667969 64.82052612304688 C 90.82372283935547 59.33627700805664 91.99987030029297 53.50883102416992 91.99987030029297 47.49993896484375 C 91.99987030029297 41.49116897583008 90.82372283935547 35.66372299194336 88.50407409667969 30.17947387695312 C 86.26293182373047 24.88081359863281 83.05390167236328 20.12149047851562 78.96614837646484 16.03372192382812 C 74.87837982177734 11.94596862792969 70.11905670166016 8.7369384765625 64.82039642333984 6.495796203613281 C 59.33615112304688 4.176155090332031 53.50870513916016 3 47.49993515014648 3 M 47.49993515014648 0 C 73.73342895507812 0 94.99987030029297 21.26644897460938 94.99987030029297 47.49993896484375 L 94.99987030029297 47.50006103515625 C 94.99987030029297 73.73355102539062 73.73342895507812 95 47.49993515014648 95 C 21.26644134521484 95 0 73.73355102539062 0 47.50006103515625 L 0 47.49993896484375 C 0 21.26644897460938 21.26644134521484 0 47.49993515014648 0 Z" stroke="none" fill="#fff"/>
                </g>
              </g>
              <g id="Rectángulo_400907" data-name="Rectángulo 400907" transform="translate(0 0)" fill="none" stroke="#fff" stroke-width="3">
                <rect width="95" height="95" rx="47.5" stroke="none"/>
                <rect x="1.5" y="1.5" width="92" height="92" rx="46" fill="none"/>
              </g>
            </g>
          </g>
        </g>
      </g>
    </g>
    <g id="ganador" transform="translate(773.456 7585.306)">
      <g id="Grupo_1117697" data-name="Grupo 1117697" transform="translate(9.501 1.904)">
        <g id="Grupo_1117694" data-name="Grupo 1117694" transform="translate(0 34.921)">
          <path id="Trazado_909087" data-name="Trazado 909087" d="M48.08,323.812l3.558,13.278a22.192,22.192,0,0,1,2.345-1.741,7.335,7.335,0,0,1,2.6-1.134,6.736,6.736,0,0,1,3.018.078h0l7.222,1.656a6.172,6.172,0,0,0,4.651-.612l18.06-10.427a3.383,3.383,0,1,0-3.383-5.859l-12.576,7.26.027-.095a3.757,3.757,0,0,0-2.629-4.594l-12.608-3.433a5.924,5.924,0,0,0-4.532,1.21Z" transform="translate(-44.524 -318.131)" fill="#ffd6bd" fill-rule="evenodd"/>
          <path id="Trazado_909088" data-name="Trazado 909088" d="M170.974,382.522a3.759,3.759,0,0,0,4.279-1.839,3.664,3.664,0,0,1-.129.868,3.754,3.754,0,0,1-4.594,2.629c-2.454-.67-4.912-1.316-7.37-1.975a.861.861,0,1,1,.445-1.663C166.059,381.2,168.51,381.852,170.974,382.522Z" transform="translate(-146.039 -373.466)" fill="#f9c6aa" fill-rule="evenodd"/>
          <path id="Trazado_909089" data-name="Trazado 909089" d="M74.86,350.932l.533,1.99a22.189,22.189,0,0,1,2.345-1.741,7.334,7.334,0,0,1,2.6-1.134,6.736,6.736,0,0,1,3.018.078h0l7.222,1.656a6.172,6.172,0,0,0,4.651-.612l18.06-10.427a3.393,3.393,0,0,0,1.238-4.621c-.028-.049-.056-.1-.087-.142a3.388,3.388,0,0,1-1.684,2.773L94.7,349.18a6.173,6.173,0,0,1-4.651.612l-7.222-1.656h0a6.736,6.736,0,0,0-3.018-.078,7.306,7.306,0,0,0-2.6,1.134A22.072,22.072,0,0,0,74.86,350.932Z" transform="translate(-68.279 -333.964)" fill="#f9c6aa" fill-rule="evenodd"/>
          <path id="Trazado_909090" data-name="Trazado 909090" d="M21.07,339.187l4.349,16.231a.748.748,0,0,1-.526.913l-3,.8a.748.748,0,0,1-.913-.526l-4.349-16.231a.747.747,0,0,1,.526-.913l3-.8a.747.747,0,0,1,.913.526Z" transform="translate(-16.606 -336.319)" fill="#64b5f6" fill-rule="evenodd"/>
          <path id="Trazado_909091" data-name="Trazado 909091" d="M21.07,339.182l.051.189-2.809.752a.747.747,0,0,0-.526.913l4.3,16.042-.191.051a.748.748,0,0,1-.913-.526l-4.349-16.231a.747.747,0,0,1,.526-.913l3-.8a.748.748,0,0,1,.913.528Z" transform="translate(-16.606 -336.313)" fill="#42a5f5" fill-rule="evenodd"/>
        </g>
        <g id="Grupo_1117695" data-name="Grupo 1117695" transform="translate(16.186 0)">
          <path id="Trazado_909092" data-name="Trazado 909092" d="M179.074,15.893V18.16c5.768,5.382,10.822,13.16,5.876,19.637a9.844,9.844,0,0,1-8.058,3.985h-6.943a9.845,9.845,0,0,1-8.058-3.987c-4.943-6.476.11-14.254,5.878-19.636V15.893a9.573,9.573,0,0,0-1.51-2.682c-1.7-2.424-1.354-3.245,2.795-1.711,1.741.643,1.008-2.5,4.367-2.5s2.628,3.143,4.368,2.5c4.148-1.533,4.493-.712,2.795,1.711a9.591,9.591,0,0,0-1.51,2.683Z" transform="translate(-159.886 -9)" fill="#72d561" fill-rule="evenodd"/>
          <path id="Trazado_909093" data-name="Trazado 909093" d="M222.852,15.893V18.16c5.768,5.382,10.822,13.16,5.876,19.637a9.844,9.844,0,0,1-8.058,3.985h-1.617a9.845,9.845,0,0,0,8.058-3.985c4.945-6.476-.108-14.255-5.876-19.637V15.893a9.573,9.573,0,0,1,1.51-2.682c.847-1.21,1.186-2.021.8-2.338,2.23-.534,2.193.378.819,2.338a9.573,9.573,0,0,0-1.51,2.682Zm-13.612-5.02c.352-.288,1.3-.172,3.009.418a.84.84,0,0,1-1.035.208A18.108,18.108,0,0,0,209.24,10.873Zm7.152-1.8c2.44.462,1.975,3.014,3.56,2.428.2-.075.4-.145.582-.208C219.913,10.612,219.607,9,217.2,9A4.348,4.348,0,0,0,216.392,9.071Z" transform="translate(-203.665 -9)" fill="#57ca5a" fill-rule="evenodd"/>
          <path id="Trazado_909094" data-name="Trazado 909094" d="M212.754,66.75H225.21a1.5,1.5,0,0,1,0,3.007H212.754a1.5,1.5,0,1,1,0-3.007Z" transform="translate(-205.448 -60.226)" fill="#ffda2d" fill-rule="evenodd"/>
          <path id="Trazado_909095" data-name="Trazado 909095" d="M212.754,66.75H225.21a1.508,1.508,0,0,1,1.412.991,1.488,1.488,0,0,0-.564-.111H213.6a1.508,1.508,0,0,0-1.5,1.5,1.489,1.489,0,0,0,.09.513,1.5,1.5,0,0,1,.564-2.9Z" transform="translate(-205.448 -60.226)" fill="#ffc700" fill-rule="evenodd"/>
        </g>
        <g id="Grupo_1117696" data-name="Grupo 1117696" transform="translate(5.355 6.077)">
          <path id="Trazado_909096" data-name="Trazado 909096" d="M70.76,69.228h2.035a.552.552,0,0,0,.437-.891L69.116,63.01a.553.553,0,0,0-.875,0l-4.116,5.327a.553.553,0,0,0,.438.891H66.6V79.44a.726.726,0,0,0,.724.724h2.715a.726.726,0,0,0,.724-.724Zm39.389,0h2.035a.552.552,0,0,0,.437-.891L108.5,63.01a.553.553,0,0,0-.875,0l-4.116,5.327a.553.553,0,0,0,.438.891h2.035V79.44a.726.726,0,0,0,.724.724h2.715a.726.726,0,0,0,.724-.724Z" transform="translate(-64.006 -62.795)" fill="#ffda2d" fill-rule="evenodd"/>
          <path id="Trazado_909097" data-name="Trazado 909097" d="M102.3,69.228h1.458a.552.552,0,0,0,.437-.891l-4.116-5.326a.553.553,0,0,0-.875,0l-.291.377,3.825,4.95A.552.552,0,0,1,102.3,69.228ZM99.54,80.163a.727.727,0,0,0,.723-.724V69.228h1.458V79.439a.726.726,0,0,1-.724.724Zm42.145-10.935h1.458a.552.552,0,0,0,.437-.891l-4.116-5.326a.553.553,0,0,0-.875,0l-.291.377,3.825,4.95a.551.551,0,0,1-.437.89Zm-2.757,10.935a.727.727,0,0,0,.723-.724V69.228h1.458V79.439a.726.726,0,0,1-.724.724Z" transform="translate(-94.967 -62.795)" fill="#ffc700" fill-rule="evenodd"/>
        </g>
      </g>
      <path id="Trazado_909098" data-name="Trazado 909098" d="M19.528,9.108l3.4,4.4H21.61a.9.9,0,0,0-.9.9V24.445H18.35V14.414a.9.9,0,0,0-.9-.9H16.126Zm-4.118,6.21h1.132v9.306a1.631,1.631,0,0,0,1.628,1.629h2.715a1.63,1.63,0,0,0,1.628-1.629V15.317h1.131A1.456,1.456,0,0,0,24.8,12.97L20.679,7.642a1.456,1.456,0,0,0-2.3,0L14.259,12.97a1.456,1.456,0,0,0,1.152,2.347ZM61,13.51a.9.9,0,0,0-.9.9V24.445H57.738V14.414a.9.9,0,0,0-.9-.9H55.514l3.4-4.4,3.4,4.4Zm3.188-.54L60.069,7.642a1.456,1.456,0,0,0-2.3,0L53.648,12.97A1.456,1.456,0,0,0,54.8,15.317h1.132v9.306a1.631,1.631,0,0,0,1.628,1.629h2.715A1.63,1.63,0,0,0,61.9,24.623V15.317h1.131a1.456,1.456,0,0,0,1.152-2.347ZM35.807,20.615a3.169,3.169,0,0,1,2.511-3.1V16.425a.9.9,0,1,1,1.807,0v1.058a3.18,3.18,0,0,1,2.119,1.283.9.9,0,1,1-1.465,1.058,1.362,1.362,0,0,0-1.1-.566h-.712a1.356,1.356,0,0,0,0,2.711h.5a3.163,3.163,0,0,1,.652,6.258v1.094a.9.9,0,1,1-1.807,0V28.264A3.18,3.18,0,0,1,36.2,26.981a.9.9,0,1,1,1.464-1.06,1.362,1.362,0,0,0,1.1.566h.712a1.356,1.356,0,0,0,0-2.711h-.5a3.163,3.163,0,0,1-3.162-3.161Zm-8.439.41c-1.307,3.438-.956,6.507,1.043,9.125a8.931,8.931,0,0,0,7.341,3.632h6.943a8.93,8.93,0,0,0,7.339-3.631c2-2.619,2.35-5.688,1.044-9.126A26.006,26.006,0,0,0,44.9,12.336H33.544a26.018,26.018,0,0,0-6.176,8.689ZM34.54,5.25a2.139,2.139,0,0,0,.748.146A2.178,2.178,0,0,0,37.053,4.1a2.464,2.464,0,0,1,4.339,0A1.963,1.963,0,0,0,43.9,5.25a12.6,12.6,0,0,1,2.386-.7A8.423,8.423,0,0,1,45.645,5.6a14.957,14.957,0,0,0-1.216,1.927H34.015A14.753,14.753,0,0,0,32.8,5.6a8.424,8.424,0,0,1-.645-1.043,12.6,12.6,0,0,1,2.386.7Zm-1.547,5.28a.6.6,0,0,1,0-1.2H45.452a.6.6,0,0,1,0,1.2Zm-6.02,20.718c-2.4-3.148-2.839-6.8-1.3-10.865a26.591,26.591,0,0,1,5.829-8.564,2.4,2.4,0,0,1,.543-4.1c-.173-.273-.4-.612-.731-1.083-.844-1.205-1.531-2.445-.84-3.339.735-.953,2.338-.607,4.688.262a.556.556,0,0,0,.063.02,4.067,4.067,0,0,0,.286-.424A3.9,3.9,0,0,1,39.222,1a3.9,3.9,0,0,1,3.705,2.151,3.949,3.949,0,0,0,.286.424.493.493,0,0,0,.063-.02c2.35-.869,3.953-1.216,4.688-.262.691.9,0,2.134-.839,3.339-.33.47-.559.809-.731,1.083a2.4,2.4,0,0,1,.543,4.1,26.578,26.578,0,0,1,5.829,8.564c1.543,4.061,1.107,7.717-1.3,10.865a10.817,10.817,0,0,1-8.776,4.34H35.75A10.81,10.81,0,0,1,26.974,31.248ZM54.068,42.864,36.008,53.291a5.29,5.29,0,0,1-4,.514L24.788,52.15a7.612,7.612,0,0,0-6.257,1.136L15.465,41.842l3.9-2.988A4.278,4.278,0,0,1,23.113,37.8l12.608,3.431a2.839,2.839,0,0,1-1.491,5.479l-6.735-1.833a.9.9,0,1,0-.474,1.744l6.735,1.833a4.642,4.642,0,0,0,5.547-2.79l12.286-7.093a2.48,2.48,0,0,1,2.48,4.3Zm-39.361,13.9,2.693-.722L13.133,40.122l-2.693.722ZM53.935,36.58A4.253,4.253,0,0,0,50.683,37l-11.1,6.406A4.654,4.654,0,0,0,36.2,39.486L23.587,36.054a6.047,6.047,0,0,0-5.32,1.365l-3.309,2.534-.121-.451a1.651,1.651,0,0,0-2.019-1.167l-3,.8a1.649,1.649,0,0,0-1.166,2.019L13,57.389A1.653,1.653,0,0,0,14.6,58.611a1.676,1.676,0,0,0,.426-.055l3-.8a1.652,1.652,0,0,0,1.166-2.02l-.158-.591a6.027,6.027,0,0,1,5.356-1.231l7.222,1.655a8.211,8.211,0,0,0,1.84.217,6.826,6.826,0,0,0,3.466-.927l18.06-10.427a4.281,4.281,0,0,0-1.037-7.848Z" fill-rule="evenodd"/>
    </g>
  </g>
</svg>
