<svg xmlns="http://www.w3.org/2000/svg" width="610" height="372" viewBox="0 0 610 372">
  <g id="Grupo_1116131" data-name="Grupo 1116131" transform="translate(-180.371 -7747)">
    <g id="Grupo_1116047" data-name="Grupo 1116047" transform="translate(180.371 7747)">
      <rect id="Rectángulo_405501" data-name="Rectángulo 405501" width="610" height="372" fill="#f3f9ff"/>
    </g>
    <g id="zz" transform="translate(119.248 1950.405)">
      <g id="Grupo_1116094" data-name="Grupo 1116094" transform="translate(183.793 5841)">
        <rect id="Rectángulo_405725" data-name="Rectángulo 405725" width="24.45" height="48.467" transform="translate(180.656 44.788)" fill="#aed3f2"/>
        <rect id="Rectángulo_405726" data-name="Rectángulo 405726" width="26.419" height="48.467" transform="translate(206.049 44.788)" fill="#aed3f2"/>
        <rect id="Rectángulo_405727" data-name="Rectángulo 405727" width="26.419" height="46.833" transform="translate(206.049 96.644)" fill="#aed3f2"/>
        <path id="Trazado_906980" data-name="Trazado 906980" d="M2471.9,5313.907h27.818v-43h.944v43H2523.3v-43.951h-51.4Z" transform="translate(-2236.045 -5269.955)" fill="#aed3f2"/>
        <rect id="Rectángulo_405728" data-name="Rectángulo 405728" width="22.644" height="48.467" transform="translate(264.619 44.788)" fill="#aed3f2"/>
        <rect id="Rectángulo_405729" data-name="Rectángulo 405729" width="22.644" height="46.833" transform="translate(264.619 96.644)" fill="#aed3f2"/>
        <rect id="Rectángulo_405730" data-name="Rectángulo 405730" width="24.45" height="46.833" transform="translate(180.656 96.644)" fill="#aed3f2"/>
        <rect id="Rectángulo_405731" data-name="Rectángulo 405731" width="27.825" height="46.833" transform="translate(235.857 96.644)" fill="#aed3f2"/>
        <rect id="Rectángulo_405732" data-name="Rectángulo 405732" width="24.45" height="42.203" transform="translate(180.656 144.314)" fill="#aed3f2"/>
        <rect id="Rectángulo_405733" data-name="Rectángulo 405733" width="22.644" height="42.203" transform="translate(264.619 144.314)" fill="#aed3f2"/>
        <path id="Trazado_906981" data-name="Trazado 906981" d="M2409.2,5313.907v-43h.945v43h26.42v-43.951h-51.812v43.951Z" transform="translate(-2204.097 -5269.955)" fill="#aed3f2"/>
        <rect id="Rectángulo_405734" data-name="Rectángulo 405734" width="27.825" height="42.203" transform="translate(235.857 144.314)" fill="#aed3f2"/>
        <rect id="Rectángulo_405735" data-name="Rectángulo 405735" width="26.419" height="42.203" transform="translate(206.049 144.314)" fill="#aed3f2"/>
        <rect id="Rectángulo_405736" data-name="Rectángulo 405736" width="27.825" height="48.467" transform="translate(235.857 44.788)" fill="#aed3f2"/>
        <path id="Trazado_906982" data-name="Trazado 906982" d="M2109.421,5437.846a2.489,2.489,0,0,1-3.046-1.729l-5.593-20.9a2.064,2.064,0,0,1,1.533-2.47l1.963-.525a2.136,2.136,0,0,0,1.564-1.616l.19-.97a2.146,2.146,0,0,1,1.564-1.616l9.317-2.489a2.165,2.165,0,0,1,2.021.475l.633.6a2.166,2.166,0,0,0,2.021.47l11.87-3.168a2.06,2.06,0,0,1,2.534,1.374l5.7,21.333a2.481,2.481,0,0,1-1.754,3.04Z" transform="translate(-2099.972 -5319.033)" fill="#e0e0e0"/>
        <path id="Trazado_906983" data-name="Trazado 906983" d="M2119.992,5407.34l-7.557,2.015-1.026-1.082a2.686,2.686,0,0,0-2.653-.7l-7.38,1.982a2.39,2.39,0,0,0-1.78,2.863l.228.861,6.08,22.649a2.709,2.709,0,0,0,3.385,1.8h0l29.991-8.056a2.7,2.7,0,0,0,2.023-3.246v-.01l-5.751-21.383a1.786,1.786,0,0,0-2.184-1.269h-.008Z" transform="translate(-2099.534 -5318.987)" fill="#ebebeb"/>
        <path id="Trazado_906984" data-name="Trazado 906984" d="M2273,5386.2a3.01,3.01,0,0,1-2.218-3.629l6.132-25.385a2.489,2.489,0,0,1,3.059-1.736l2.389.577a2.583,2.583,0,0,0,2.6-.816l.767-.913a2.59,2.59,0,0,1,2.588-.81l11.332,2.736a2.605,2.605,0,0,1,1.9,1.666l.341,1.021a2.612,2.612,0,0,0,1.9,1.665l14.441,3.489a2.489,2.489,0,0,1,1.932,2.94l-6.271,25.969a3,3,0,0,1-3.621,2.218h0Z" transform="translate(-2162.284 -5300.549)" fill="#e0e0e0"/>
        <path id="Trazado_906985" data-name="Trazado 906985" d="M2302.345,5359.219l-9.185-2.242-.45-1.735a3.257,3.257,0,0,0-2.419-2.3l-8.982-2.2a2.887,2.887,0,0,0-3.547,2.014l-.253,1.044-6.657,27.564a3.284,3.284,0,0,0,2.533,3.877l36.483,8.812a3.285,3.285,0,0,0,4.029-2.29l6.29-26.04a2.158,2.158,0,0,0-1.593-2.607h-.006Z" transform="translate(-2162.315 -5299.534)" fill="#ebebeb"/>
        <path id="Trazado_906986" data-name="Trazado 906986" d="M2158.658,5328.093a3.374,3.374,0,0,1-3.723-2.986l-3.168-29.136a2.793,2.793,0,0,1,2.569-3h0l2.736-.305a2.887,2.887,0,0,0,2.432-1.844l.456-1.266a2.908,2.908,0,0,1,2.432-1.843l13.01-1.43a2.908,2.908,0,0,1,2.609,1.044l.754.944a2.938,2.938,0,0,0,2.609,1.053l16.582-1.825a2.793,2.793,0,0,1,3.167,2.362v.007l3.275,29.8a3.369,3.369,0,0,1-2.973,3.724h-.01Z" transform="translate(-2118.679 -5275.932)" fill="#e0e0e0"/>
        <path id="Trazado_906987" data-name="Trazado 906987" d="M2179.445,5290.191l-10.526,1.132-1.134-1.653a3.664,3.664,0,0,0-3.432-1.513l-10.337,1.132a3.244,3.244,0,0,0-2.986,3.479l.133,1.2,3.477,31.67a3.684,3.684,0,0,0,4.142,3.086l41.881-4.6a3.684,3.684,0,0,0,3.385-3.95h0l-3.285-29.889a2.426,2.426,0,0,0-2.676-2.148h0Z" transform="translate(-2118.411 -5276.615)" fill="#fed401"/>
        <path id="Trazado_906988" data-name="Trazado 906988" d="M2194.427,5316.39a4.09,4.09,0,0,0,2.008-4.028,3.845,3.845,0,1,0-7.689-.034,3.937,3.937,0,0,0,.088.837,4.082,4.082,0,0,0,2.844,3.527c-5.764,1.526-4.8,7.874-4.8,7.874l13.878-1.456S2200.339,5316.629,2194.427,5316.39Z" transform="translate(-2131.531 -5284.085)" fill="#e0e0e0"/>
        <path id="Trazado_906989" data-name="Trazado 906989" d="M2115.9,5343.955a7.3,7.3,0,0,1,1.825-.551l.558-1.679,2.914.291.215,1.754a7.1,7.1,0,0,1,1.678.906l1.584-.791,1.85,2.261-1.083,1.394a7.259,7.259,0,0,1,.552,1.825l1.672.563-.292,2.907-1.754.222a7.167,7.167,0,0,1-.9,1.678l.8,1.608-2.261,1.855-1.394-1.089a7.27,7.27,0,0,1-1.831.55l-.558,1.68-2.933-.324-.221-1.755a7.472,7.472,0,0,1-1.678-.919l-1.584.785-1.849-2.26,1.089-1.394a7.069,7.069,0,0,1-.551-1.825l-1.679-.563.292-2.906,1.754-.216a7.129,7.129,0,0,1,.9-1.685l-.786-1.578,2.261-1.854Zm1.089,4.047a3.167,3.167,0,1,0,4.455.47l-.021-.025a3.168,3.168,0,0,0-4.434-.444Z" transform="translate(-2103.394 -5296.266)" fill="#6595bf"/>
        <path id="Trazado_906990" data-name="Trazado 906990" d="M2130.526,5520.527a2.122,2.122,0,0,0,.76-.126,1.548,1.548,0,0,0,.71-.576,1.45,1.45,0,0,0,.22-.54c.038-.208.057-.442.089-.683.247-1.965.6-4.77,1.032-8.234l.349-2.724c.057-.475.121-.956.185-1.451l.094-.741a3.663,3.663,0,0,0,.058-.729,1.442,1.442,0,0,0-.772-1.132,1.9,1.9,0,0,0-.728-.185l-.81-.108-3.35-.43-14.933-1.944a1.43,1.43,0,0,0-1.457.8,1.7,1.7,0,0,0-.127.423l-.063.49c-.044.323-.083.634-.126.969q-.252,1.938-.5,3.8c-.335,2.5-.633,4.9-.957,7.2-.075.571-.151,1.134-.221,1.693a1.415,1.415,0,0,0,.633,1.266,1.434,1.434,0,0,0,.7.249l.8.107,1.559.208,5.7.767,8.234,1.136,2.229.322.577.1a.662.662,0,0,1,.2.044h-.2l-.584-.058-2.242-.267-8.233-1.025-5.7-.728-1.558-.2-.8-.1a1.73,1.73,0,0,1-1.577-1.855c.069-.563.139-1.134.216-1.71.3-2.289.633-4.7.938-7.2q.247-1.9.5-3.8c.038-.322.082-.633.126-.969l.063-.487a1.965,1.965,0,0,1,.151-.52,1.753,1.753,0,0,1,1.8-.981l14.923,1.971,3.351.45.81.108a2.286,2.286,0,0,1,.817.216,1.72,1.72,0,0,1,.919,1.355,3.407,3.407,0,0,1-.062.8,4.92,4.92,0,0,1-.1.748c-.064.5-.126.975-.2,1.45-.126.945-.247,1.85-.367,2.717-.476,3.452-.861,6.252-1.134,8.234-.038.241-.058.462-.1.684a1.626,1.626,0,0,1-.254.571,1.592,1.592,0,0,1-.766.588,1.378,1.378,0,0,1-.582.09A1.1,1.1,0,0,1,2130.526,5520.527Z" transform="translate(-2103.266 -5354.499)" fill="#e0e0e0"/>
        <path id="Trazado_906991" data-name="Trazado 906991" d="M2131.866,5522.388a1.386,1.386,0,0,1-.19-.241l-.488-.728c-.437-.685-1.027-1.593-1.742-2.7l-1.194-1.9-.323-.505a.467.467,0,0,0-.418-.2c-.171,0-.286.113-.463.267l-.507.437-1.045.9a2.31,2.31,0,0,1-.311.234.741.741,0,0,1-.437.083.709.709,0,0,1-.412-.178.745.745,0,0,1-.151-.166l-.1-.151c-.538-.816-1.089-1.665-1.659-2.534l-.842-1.267-.411-.633a.453.453,0,0,0-.469-.215.428.428,0,0,0-.235.121l-.254.252-.507.5-.981.969-3.4,3.345-2.318,2.254-.633.6a1.256,1.256,0,0,1-.241.188,1.32,1.32,0,0,1,.191-.239l.633-.634,2.236-2.307c.962-.975,2.1-2.121,3.344-3.395l.975-.975.5-.507.259-.253a.749.749,0,0,1,.4-.209.778.778,0,0,1,.8.354l.412.634.842,1.267,1.659,2.533a.52.52,0,0,0,.938.115l1.051-.888.512-.424a2.814,2.814,0,0,1,.266-.215.728.728,0,0,1,.375-.122.741.741,0,0,1,.633.336c.115.178.222.348.323.52l1.159,1.9,1.653,2.756.437.76A2.189,2.189,0,0,1,2131.866,5522.388Z" transform="translate(-2104.156 -5358.9)" fill="#e0e0e0"/>
        <path id="Trazado_906992" data-name="Trazado 906992" d="M2134.018,5510.216a2.284,2.284,0,0,0-.064-.455,1.9,1.9,0,0,0-.563-1.039,1.775,1.775,0,0,0-1.609-.43,1.73,1.73,0,0,0-.424,3.212,1.77,1.77,0,0,0,1.671,0,1.858,1.858,0,0,0,.81-.856c.121-.266.146-.431.177-.424a.865.865,0,0,1-.064.469,1.842,1.842,0,0,1-.81,1.014,1.991,1.991,0,0,1-1.9.076,2.019,2.019,0,0,1,.5-3.8,1.976,1.976,0,0,1,1.836.563,1.855,1.855,0,0,1,.5,1.21.851.851,0,0,1-.057.459Z" transform="translate(-2110.742 -5357.201)" fill="#e0e0e0"/>
        <path id="Trazado_906993" data-name="Trazado 906993" d="M2288.16,5319.613a2.019,2.019,0,0,0,.747.2,1.571,1.571,0,0,0,.881-.24,1.421,1.421,0,0,0,.424-.4c.121-.171.235-.379.362-.582l4.313-7.081,1.431-2.344c.253-.405.507-.823.766-1.266l.392-.634a3.336,3.336,0,0,0,.349-.634,1.443,1.443,0,0,0-.241-1.355,1.985,1.985,0,0,0-.589-.462l-.7-.425-2.876-1.773-12.833-7.893a1.408,1.408,0,0,0-1.931.475h0l-.26.418-.526.849c-.685,1.1-1.363,2.19-2.021,3.263-1.33,2.141-2.609,4.2-3.8,6.172l-.9,1.45a1.445,1.445,0,0,0,.563,1.957l.684.424,1.33.823,4.833,3.008,7.03,4.434,1.9,1.21.488.315.158.121-.177-.088-.507-.292-1.931-1.158-7.082-4.353-4.858-2.986-1.343-.816-.684-.424a1.789,1.789,0,0,1-.633-.634,1.7,1.7,0,0,1-.044-1.735c.291-.489.589-.976.9-1.471l3.8-6.181,2.021-3.275.513-.83.253-.418a2.013,2.013,0,0,1,.354-.411,1.762,1.762,0,0,1,2.052-.159l12.8,7.917,2.869,1.786.7.431a2.1,2.1,0,0,1,.633.533,1.7,1.7,0,0,1,.279,1.608,3.126,3.126,0,0,1-.38.7l-.4.634c-.26.423-.52.836-.772,1.267-.5.811-.988,1.592-1.45,2.33l-4.357,7.018c-.139.209-.247.405-.38.589a1.485,1.485,0,0,1-.469.411,1.569,1.569,0,0,1-.937.223,1.433,1.433,0,0,1-.57-.158A.789.789,0,0,1,2288.16,5319.613Z" transform="translate(-2162.273 -5278.829)" fill="#6595bf"/>
        <path id="Trazado_906994" data-name="Trazado 906994" d="M2292.452,5311.5l1.172,2.343a.633.633,0,0,1-.633.956l-2.666-.082-2.588-.077a.665.665,0,0,1-.512-1.025l1.463-2.236,1.476-2.255a.633.633,0,0,1,1.146.07Z" transform="translate(-2168.302 -5284.192)" fill="#6595bf"/>
        <g id="Grupo_1116048" data-name="Grupo 1116048" transform="translate(11.875 288.341)">
          <path id="Trazado_906995" data-name="Trazado 906995" d="M2391.909,5725.349c0,.1-61.249.164-136.812.164s-136.814-.069-136.814-.164,61.236-.164,136.814-.164S2391.909,5725.261,2391.909,5725.349Z" transform="translate(-2118.282 -5725.185)" fill="#263238"/>
        </g>
        <g id="Grupo_1116062" data-name="Grupo 1116062" transform="translate(25.873 63.544)">
          <rect id="Rectángulo_405737" data-name="Rectángulo 405737" width="96.263" height="224.964" fill="#455a64"/>
          <g id="Grupo_1116049" data-name="Grupo 1116049" opacity="0.3">
            <rect id="Rectángulo_405738" data-name="Rectángulo 405738" width="26.317" height="224.964" fill="#344154"/>
          </g>
          <path id="Trazado_906996" data-name="Trazado 906996" d="M2222.061,5383.306V5381.5l-.874,1.469h-.424l-.874-1.418v1.755H2219V5379.9h.81l1.195,1.965,1.159-1.965h.791v3.4Z" transform="translate(-2169.205 -5373.805)" fill="#fff"/>
          <path id="Trazado_906997" data-name="Trazado 906997" d="M2227.882,5382.084v1.224h-.963v-1.235l-1.266-2.167h1.014l.8,1.349.8-1.349h.931Z" transform="translate(-2171.643 -5373.805)" fill="#fff"/>
          <path id="Trazado_906998" data-name="Trazado 906998" d="M2234.8,5380.653v.747h1.5v.742h-1.5v1.166h-.963V5379.9h2.667v.748Z" transform="translate(-2174.642 -5373.805)" fill="#fff"/>
          <path id="Trazado_906999" data-name="Trazado 906999" d="M2238.752,5379.9h.968v3.4h-.962Z" transform="translate(-2176.446 -5373.805)" fill="#fff"/>
          <path id="Trazado_907000" data-name="Trazado 907000" d="M2241.352,5379.9h.957v2.635h1.621v.767h-2.578Z" transform="translate(-2177.399 -5373.805)" fill="#fff"/>
          <path id="Trazado_907001" data-name="Trazado 907001" d="M2248.706,5382.559v.747h-2.724V5379.9h2.66v.748h-1.71v.571h1.507v.716h-1.507v.633Z" transform="translate(-2179.095 -5373.805)" fill="#fff"/>
          <path id="Trazado_907002" data-name="Trazado 907002" d="M2250.792,5382.979l.317-.7a2.145,2.145,0,0,0,1.121.33c.393,0,.551-.107.551-.271,0-.539-1.931-.145-1.931-1.407,0-.634.5-1.1,1.507-1.1a2.6,2.6,0,0,1,1.229.291l-.3.717a1.941,1.941,0,0,0-.938-.261c-.405,0-.551.133-.551.3,0,.519,1.9.132,1.9,1.381,0,.6-.5,1.095-1.5,1.095a2.622,2.622,0,0,1-1.4-.373Z" transform="translate(-2180.859 -5373.775)" fill="#fff"/>
          <path id="Trazado_907003" data-name="Trazado 907003" d="M2250.516,5438.879v-12.193c0-7.765-.045-18.9-.07-32.437l.132.133-62.794.032h0l.164-.165v44.63l-.145-.152,45.268.078,12.909.039h.064l-12.871.043-45.37.076h-.151v-44.876h.17l62.8.032h.133v.132c-.032,13.567-.057,24.7-.07,32.525,0,3.871,0,6.9-.038,8.968v2.343A1.925,1.925,0,0,1,2250.516,5438.879Z" transform="translate(-2157.712 -5379.004)" fill="#263238"/>
          <g id="Grupo_1116050" data-name="Grupo 1116050" transform="translate(49.209 42.703)" opacity="0.3">
            <rect id="Rectángulo_405739" data-name="Rectángulo 405739" width="25.563" height="4.326" fill="#344154"/>
          </g>
          <g id="Grupo_1116051" data-name="Grupo 1116051" transform="translate(29.269 63.257)" opacity="0.4">
            <rect id="Rectángulo_405740" data-name="Rectángulo 405740" width="54.745" height="42.533" fill="#344154"/>
          </g>
          <path id="Trazado_907004" data-name="Trazado 907004" d="M2221.162,5471.438H2210.73l-.633-1.046a2.289,2.289,0,0,0-1.97-1.126h-7.659a2.291,2.291,0,0,0-2.29,2.174h-2.729a2.141,2.141,0,0,0-2.141,2.141h0v5.308h29.965v-5.306a2.141,2.141,0,0,0-2.109-2.143Z" transform="translate(-2159.786 -5406.565)" fill="#e0e0e0"/>
          <path id="Trazado_907005" data-name="Trazado 907005" d="M2229.8,5471.438h-10.4l-.633-1.046a2.279,2.279,0,0,0-1.97-1.127h-7.658a2.281,2.281,0,0,0-2.281,2.173h-2.737a2.142,2.142,0,0,0-2.134,2.141v5.308h29.954v-5.307a2.14,2.14,0,0,0-2.141-2.14Z" transform="translate(-2162.968 -5406.565)" fill="#ebebeb"/>
          <path id="Trazado_907006" data-name="Trazado 907006" d="M2241.08,5471.438h-10.407l-.633-1.046a2.3,2.3,0,0,0-1.976-1.127h-7.651a2.282,2.282,0,0,0-2.281,2.173H2215.4a2.141,2.141,0,0,0-2.14,2.141h0v5.308h29.954v-5.306A2.141,2.141,0,0,0,2241.08,5471.438Z" transform="translate(-2167.101 -5406.565)" fill="#aed3f2"/>
          <path id="Trazado_907007" data-name="Trazado 907007" d="M2219.072,5498.443v-25.507a2.2,2.2,0,0,1,2.3-2.1h2.2a2.32,2.32,0,0,0,2.084-1.228l.475-.937a2.326,2.326,0,0,1,2.085-1.224h10.432a2.349,2.349,0,0,1,1.982,1.039l.513.8a2.353,2.353,0,0,0,1.977,1.038h13.3a2.2,2.2,0,0,1,2.3,2.1v26.027Z" transform="translate(-2169.23 -5405.898)" fill="#d9a171"/>
          <g id="Grupo_1116052" data-name="Grupo 1116052" transform="translate(49.842 61.547)" opacity="0.3">
            <path id="Trazado_907008" data-name="Trazado 907008" d="M2219.072,5498.443v-25.507a2.2,2.2,0,0,1,2.3-2.1h2.2a2.32,2.32,0,0,0,2.084-1.228l.475-.937a2.326,2.326,0,0,1,2.085-1.224h10.432a2.349,2.349,0,0,1,1.982,1.039l.513.8a2.353,2.353,0,0,0,1.977,1.038h13.3a2.2,2.2,0,0,1,2.3,2.1v26.027Z" transform="translate(-2219.072 -5467.445)" fill="#344154"/>
          </g>
          <path id="Trazado_907009" data-name="Trazado 907009" d="M2232.222,5470.2v-20.129a3,3,0,0,1,3-3.01h32.094a3.01,3.01,0,0,1,3.009,3.01h0v19.571Z" transform="translate(-2174.052 -5398.422)" fill="#fff"/>
          <path id="Trazado_907010" data-name="Trazado 907010" d="M2234.2,5474.924v-25.5a2.21,2.21,0,0,1,2.3-2.11h2.19a2.324,2.324,0,0,0,2.091-1.223l.469-.936a2.331,2.331,0,0,1,2.091-1.23h10.432a2.347,2.347,0,0,1,1.976,1.039l.514.8a2.336,2.336,0,0,0,1.982,1.039h13.3a2.2,2.2,0,0,1,2.3,2.1v26.027Z" transform="translate(-2174.778 -5397.276)" fill="#d9a171"/>
          <path id="Trazado_907011" data-name="Trazado 907011" d="M2234.2,5474.847h2.933l8.152-.039,28.56-.076-.153.151v-25.409a7.027,7.027,0,0,0,0-.913,1.931,1.931,0,0,0-.995-1.362,2.291,2.291,0,0,0-.767-.261,6.146,6.146,0,0,0-.848,0h-12.761a2.527,2.527,0,0,1-.861-.133,2.423,2.423,0,0,1-1.344-1.052l-.437-.684a2.134,2.134,0,0,0-.507-.551,2.287,2.287,0,0,0-1.4-.45h-10.7a2.244,2.244,0,0,0-1.222.558c-.672.577-.74,1.742-1.615,2.319a2.531,2.531,0,0,1-1.369.475h-1.375a11.5,11.5,0,0,0-1.317,0,2.18,2.18,0,0,0-1.121.5,1.936,1.936,0,0,0-.633,1.007,6.542,6.542,0,0,0-.057,1.236v4.8c0,6.125-.044,11.084-.063,14.534v.075c0-3.452-.038-8.424-.064-14.568v-4.833a6.58,6.58,0,0,1,.058-1.3,2.183,2.183,0,0,1,.588-1.165,2.525,2.525,0,0,1,1.267-.565,12.679,12.679,0,0,1,1.362-.038h1.362a2.235,2.235,0,0,0,1.215-.425c.774-.487.8-1.57,1.584-2.3a2.547,2.547,0,0,1,1.38-.635c.52-.044.989,0,1.493,0h9.248a2.545,2.545,0,0,1,1.593.506,2.327,2.327,0,0,1,.583.633l.444.684a2.128,2.128,0,0,0,1.172.919,2.152,2.152,0,0,0,.761.112h12.756a5.43,5.43,0,0,1,.9.032,2.6,2.6,0,0,1,.88.3,2.279,2.279,0,0,1,1.153,1.593,7.158,7.158,0,0,1,.032.965V5475h-.153l-28.655-.076-8.12-.039h-2.688Z" transform="translate(-2174.778 -5397.198)" fill="#263238"/>
          <path id="Trazado_907012" data-name="Trazado 907012" d="M2257.946,5447.458a53.908,53.908,0,0,1-8.424,0,53.791,53.791,0,0,1,8.424,0Z" transform="translate(-2180.393 -5398.501)" fill="#fff"/>
          <path id="Trazado_907013" data-name="Trazado 907013" d="M2253.682,5491.866v-25.519a2.4,2.4,0,0,1,2.6-2.1h2.484a2.7,2.7,0,0,0,2.356-1.222l.538-.926a2.7,2.7,0,0,1,2.356-1.222h11.788a2.753,2.753,0,0,1,2.241,1.038l.577.8a2.772,2.772,0,0,0,2.236,1.038h15a2.39,2.39,0,0,1,2.6,2.1v26.02Z" transform="translate(-2181.918 -5403.489)" fill="#d9a171"/>
          <path id="Trazado_907014" data-name="Trazado 907014" d="M2253.639,5491.774h3.332l9.247-.045,32.22-.07-.152.151v-26.252a1.9,1.9,0,0,0-.944-1.356,2.981,2.981,0,0,0-1.716-.406h-14.568a3.271,3.271,0,0,1-1.767-.4,2.412,2.412,0,0,1-.715-.582c-.2-.249-.348-.47-.525-.71a2.406,2.406,0,0,0-1.267-1,4.36,4.36,0,0,0-1.628-.178H2263.8a2.822,2.822,0,0,0-1.375.438,2.152,2.152,0,0,0-.532.481,6.012,6.012,0,0,0-.38.632c-.126.222-.241.431-.381.634a2.3,2.3,0,0,1-.539.569,2.97,2.97,0,0,1-1.406.57c-1.007.063-1.9,0-2.875,0a2.622,2.622,0,0,0-2.274,1.078,1.9,1.9,0,0,0-.273,1.208v3.839c0,6.581-.051,11.9-.063,15.6,0,1.838,0,3.275-.032,4.257v.052c0-.983,0-2.408-.032-4.239,0-3.706-.038-9.044-.063-15.638v-3.852a2.213,2.213,0,0,1,.3-1.349,2.894,2.894,0,0,1,2.489-1.2c.925,0,1.9,0,2.837-.038a2.683,2.683,0,0,0,1.266-.519,3.166,3.166,0,0,0,.843-1.146,6.863,6.863,0,0,1,.4-.634,2.294,2.294,0,0,1,.6-.539,3.071,3.071,0,0,1,1.514-.5h11.37a4.452,4.452,0,0,1,1.735.2,2.7,2.7,0,0,1,1.394,1.109c.171.227.343.474.507.688a2.313,2.313,0,0,0,.633.507,3.005,3.005,0,0,0,1.616.354h14.568a3.286,3.286,0,0,1,1.9.45,2.2,2.2,0,0,1,1.089,1.608v26.387h-.152l-32.3-.076-9.286-.088h-3.268Z" transform="translate(-2181.876 -5403.396)" fill="#263238"/>
          <path id="Trazado_907015" data-name="Trazado 907015" d="M2281.365,5464.917a94.242,94.242,0,0,1-11.123,0,93.928,93.928,0,0,1,11.123,0Z" transform="translate(-2187.99 -5404.903)" fill="#fff"/>
          <rect id="Rectángulo_405741" data-name="Rectángulo 405741" width="39.841" height="34.343" transform="translate(29.269 71.757)" fill="#455a64"/>
          <g id="Grupo_1116053" data-name="Grupo 1116053" transform="translate(29.269 71.757)" opacity="0.3">
            <rect id="Rectángulo_405742" data-name="Rectángulo 405742" width="39.841" height="34.343" fill="#344154"/>
          </g>
          <rect id="Rectángulo_405743" data-name="Rectángulo 405743" width="62.801" height="44.629" transform="translate(69.11 62.7)" fill="#455a64"/>
          <path id="Trazado_907016" data-name="Trazado 907016" d="M2312.216,5513.753v-3.186c0-2.078,0-5.119-.032-9,0-7.765-.044-18.908-.07-32.437l.134.133-62.8.031h0l.164-.165v44.623l-.152-.146,45.269.071,12.909.043h.064l-12.87.038-45.37.076h-.184V5468.9h63.1v.139c-.032,13.566-.057,24.7-.07,32.518,0,3.871,0,6.9-.038,8.968v2.343a6.046,6.046,0,0,1-.056.884Z" transform="translate(-2180.305 -5406.432)" fill="#263238"/>
          <g id="Grupo_1116054" data-name="Grupo 1116054" transform="translate(89.334 92.096)" opacity="0.3">
            <rect id="Rectángulo_405744" data-name="Rectángulo 405744" width="29.136" height="4.326" fill="#344154"/>
          </g>
          <path id="Trazado_907017" data-name="Trazado 907017" d="M2250.516,5592.228v-12.193c0-7.765-.045-18.907-.07-32.436l.132.132-62.794.032h0l.164-.166v44.628l-.145-.151,45.268.077,12.909.038h.064l-12.871.038-45.37.077h-.151v-44.939h.17l62.8.031h.133v.133c-.032,13.567-.057,24.734-.07,32.518,0,3.876,0,6.9-.038,8.977v2.343a2.554,2.554,0,0,1-.126.86Z" transform="translate(-2157.712 -5435.198)" fill="#263238"/>
          <g id="Grupo_1116055" data-name="Grupo 1116055" transform="translate(49.209 139.835)" opacity="0.3">
            <rect id="Rectángulo_405745" data-name="Rectángulo 405745" width="26.565" height="4.326" fill="#344154"/>
          </g>
          <path id="Trazado_907018" data-name="Trazado 907018" d="M2250.506,5668.9v-12.193c0-7.765-.044-18.9-.07-32.436l.133.132-62.794.032h0l.166-.164V5668.9l-.146-.151,45.268.076,12.909.039h.044l-12.871.038-45.37.076h-.153v-44.944h63.1v.132c-.032,13.568-.056,24.735-.069,32.525,0,3.87,0,6.9-.038,8.968v2.344a3.444,3.444,0,0,1-.107.9Z" transform="translate(-2157.7 -5463.306)" fill="#263238"/>
          <g id="Grupo_1116056" data-name="Grupo 1116056" transform="translate(49.209 188.404)" opacity="0.3">
            <rect id="Rectángulo_405746" data-name="Rectángulo 405746" width="26.565" height="4.326" fill="#344154"/>
          </g>
          <g id="Grupo_1116061" data-name="Grupo 1116061" transform="translate(42.115 23.454)">
            <rect id="Rectángulo_405747" data-name="Rectángulo 405747" width="41.671" height="12.515" rx="2.49" transform="translate(0.539)" fill="#fff"/>
            <rect id="Rectángulo_405748" data-name="Rectángulo 405748" width="41.671" height="12.515" rx="2.49" transform="translate(38.251 51.9)" fill="#fff"/>
            <rect id="Rectángulo_405749" data-name="Rectángulo 405749" width="41.671" height="12.515" rx="2.49" transform="translate(0 99.563)" fill="#fff"/>
            <rect id="Rectángulo_405750" data-name="Rectángulo 405750" width="41.671" height="12.515" rx="2.49" transform="translate(0 147.974)" fill="#fff"/>
            <g id="Grupo_1116057" data-name="Grupo 1116057" transform="translate(9.477 2.375)">
              <path id="Trazado_907019" data-name="Trazado 907019" d="M2227.552,5419.283H2222v-1.1l2.622-2.794a6.57,6.57,0,0,0,.8-1.032,1.656,1.656,0,0,0,.257-.834,1.24,1.24,0,0,0-.271-.849.987.987,0,0,0-.78-.309,1.064,1.064,0,0,0-.861.374,1.5,1.5,0,0,0-.313.989h-1.615a2.656,2.656,0,0,1,.354-1.352,2.487,2.487,0,0,1,1-.961,3.043,3.043,0,0,1,1.464-.348,2.88,2.88,0,0,1,1.946.6,2.128,2.128,0,0,1,.7,1.7,2.722,2.722,0,0,1-.312,1.225,6.774,6.774,0,0,1-1.069,1.452l-1.843,1.944h3.484Z" transform="translate(-2221.835 -5411.059)" fill="#344154"/>
              <path id="Trazado_907020" data-name="Trazado 907020" d="M2237.86,5415.931a4.1,4.1,0,0,1-.7,2.572,2.78,2.78,0,0,1-4.064.017,3.986,3.986,0,0,1-.718-2.5v-1.493a4.06,4.06,0,0,1,.7-2.577,2.788,2.788,0,0,1,4.056-.007,3.977,3.977,0,0,1,.718,2.5Zm-1.609-1.64a2.971,2.971,0,0,0-.276-1.47.93.93,0,0,0-.86-.458.914.914,0,0,0-.839.437,2.781,2.781,0,0,0-.287,1.369v1.971a3.129,3.129,0,0,0,.27,1.474.92.92,0,0,0,.866.481.9.9,0,0,0,.851-.461,3.044,3.044,0,0,0,.273-1.416Z" transform="translate(-2225.702 -5411.06)" fill="#344154"/>
              <path id="Trazado_907021" data-name="Trazado 907021" d="M2248.206,5419.283h-5.556v-1.1l2.622-2.794a6.6,6.6,0,0,0,.8-1.032,1.668,1.668,0,0,0,.259-.834,1.242,1.242,0,0,0-.272-.85.985.985,0,0,0-.779-.309,1.064,1.064,0,0,0-.86.375,1.493,1.493,0,0,0-.313.987h-1.615a2.659,2.659,0,0,1,.354-1.352,2.488,2.488,0,0,1,1-.961,3.045,3.045,0,0,1,1.463-.347,2.874,2.874,0,0,1,1.946.6,2.125,2.125,0,0,1,.7,1.7,2.732,2.732,0,0,1-.312,1.225,6.761,6.761,0,0,1-1.068,1.452l-1.843,1.944h3.484Z" transform="translate(-2229.406 -5411.059)" fill="#344154"/>
              <path id="Trazado_907022" data-name="Trazado 907022" d="M2257.2,5419.34h-1.607v-6.2l-1.92.6v-1.308l3.357-1.2h.172Z" transform="translate(-2233.505 -5411.118)" fill="#344154"/>
            </g>
            <g id="Grupo_1116058" data-name="Grupo 1116058" transform="translate(47.406 54.638)">
              <path id="Trazado_907023" data-name="Trazado 907023" d="M2287.437,5501.8h-5.557v-1.1l2.622-2.794a6.551,6.551,0,0,0,.8-1.029,1.665,1.665,0,0,0,.259-.837,1.243,1.243,0,0,0-.273-.849.985.985,0,0,0-.778-.309,1.06,1.06,0,0,0-.86.375,1.491,1.491,0,0,0-.315.987h-1.615a2.658,2.658,0,0,1,.353-1.352,2.488,2.488,0,0,1,1-.959,3.036,3.036,0,0,1,1.465-.349,2.885,2.885,0,0,1,1.945.6,2.131,2.131,0,0,1,.7,1.7,2.735,2.735,0,0,1-.312,1.226,6.8,6.8,0,0,1-1.068,1.453l-1.843,1.941h3.484Z" transform="translate(-2281.717 -5493.574)" fill="#344154"/>
              <path id="Trazado_907024" data-name="Trazado 907024" d="M2297.744,5498.446a4.1,4.1,0,0,1-.7,2.571,2.779,2.779,0,0,1-4.063.018,3.991,3.991,0,0,1-.718-2.5v-1.493a4.061,4.061,0,0,1,.7-2.577,2.788,2.788,0,0,1,4.056-.008,3.984,3.984,0,0,1,.718,2.5Zm-1.609-1.641a2.977,2.977,0,0,0-.277-1.468.93.93,0,0,0-.86-.458.912.912,0,0,0-.839.437,2.78,2.78,0,0,0-.287,1.367v1.972a3.12,3.12,0,0,0,.27,1.473.919.919,0,0,0,.866.482.9.9,0,0,0,.852-.462,3.05,3.05,0,0,0,.273-1.415Z" transform="translate(-2285.584 -5493.574)" fill="#344154"/>
              <path id="Trazado_907025" data-name="Trazado 907025" d="M2308.091,5501.8h-5.556v-1.1l2.622-2.794a6.586,6.586,0,0,0,.8-1.03,1.667,1.667,0,0,0,.259-.835,1.243,1.243,0,0,0-.272-.848.988.988,0,0,0-.779-.31,1.061,1.061,0,0,0-.861.375,1.494,1.494,0,0,0-.314.987h-1.614a2.658,2.658,0,0,1,.354-1.352,2.484,2.484,0,0,1,1-.959,3.034,3.034,0,0,1,1.464-.349,2.887,2.887,0,0,1,1.945.6,2.132,2.132,0,0,1,.7,1.7,2.727,2.727,0,0,1-.311,1.225,6.786,6.786,0,0,1-1.07,1.453l-1.843,1.941h3.485Z" transform="translate(-2289.289 -5493.574)" fill="#344154"/>
              <path id="Trazado_907026" data-name="Trazado 907026" d="M2318.4,5498.446a4.1,4.1,0,0,1-.7,2.571,2.779,2.779,0,0,1-4.063.018,3.988,3.988,0,0,1-.718-2.5v-1.493a4.054,4.054,0,0,1,.7-2.577,2.788,2.788,0,0,1,4.056-.008,3.987,3.987,0,0,1,.719,2.5Zm-1.609-1.641a2.973,2.973,0,0,0-.276-1.468.93.93,0,0,0-.86-.458.915.915,0,0,0-.838.437,2.788,2.788,0,0,0-.287,1.367v1.972a3.123,3.123,0,0,0,.27,1.474.918.918,0,0,0,.865.481.9.9,0,0,0,.852-.462,3.046,3.046,0,0,0,.272-1.415Z" transform="translate(-2293.155 -5493.574)" fill="#344154"/>
            </g>
            <g id="Grupo_1116059" data-name="Grupo 1116059" transform="translate(9.227 102.147)">
              <path id="Trazado_907027" data-name="Trazado 907027" d="M2227.16,5576.8h-5.555v-1.1l2.621-2.8a6.418,6.418,0,0,0,.8-1.03,1.657,1.657,0,0,0,.258-.835,1.236,1.236,0,0,0-.273-.85.984.984,0,0,0-.778-.309,1.055,1.055,0,0,0-.86.375,1.5,1.5,0,0,0-.314.989h-1.614a2.662,2.662,0,0,1,.352-1.353,2.491,2.491,0,0,1,1-.96,3.026,3.026,0,0,1,1.464-.348,2.874,2.874,0,0,1,1.945.6,2.126,2.126,0,0,1,.7,1.7,2.718,2.718,0,0,1-.312,1.224,6.7,6.7,0,0,1-1.069,1.452l-1.843,1.944h3.484Z" transform="translate(-2221.442 -5568.579)" fill="#344154"/>
              <path id="Trazado_907028" data-name="Trazado 907028" d="M2237.468,5573.452a4.1,4.1,0,0,1-.7,2.572,2.781,2.781,0,0,1-4.064.017,3.983,3.983,0,0,1-.718-2.506v-1.494a4.049,4.049,0,0,1,.7-2.577,2.788,2.788,0,0,1,4.055-.007,3.971,3.971,0,0,1,.718,2.5Zm-1.609-1.641a2.971,2.971,0,0,0-.276-1.469.931.931,0,0,0-.86-.459.918.918,0,0,0-.838.437,2.79,2.79,0,0,0-.287,1.369v1.972a3.122,3.122,0,0,0,.27,1.474.919.919,0,0,0,.866.482.9.9,0,0,0,.851-.462,3.039,3.039,0,0,0,.273-1.416Z" transform="translate(-2225.309 -5568.579)" fill="#344154"/>
              <path id="Trazado_907029" data-name="Trazado 907029" d="M2246.484,5576.864h-1.609v-6.2l-1.92.6v-1.307l3.357-1.2h.173Z" transform="translate(-2229.328 -5568.637)" fill="#344154"/>
              <path id="Trazado_907030" data-name="Trazado 907030" d="M2256.4,5573.562a2.029,2.029,0,0,1-1.469.619,2.175,2.175,0,0,1-1.721-.736,2.919,2.919,0,0,1-.645-1.991,3.111,3.111,0,0,1,.347-1.462,2.561,2.561,0,0,1,.972-1.035,2.693,2.693,0,0,1,1.4-.371,2.575,2.575,0,0,1,1.425.4,2.632,2.632,0,0,1,.968,1.152,4.139,4.139,0,0,1,.35,1.721v.6a4.689,4.689,0,0,1-1.007,3.186,3.812,3.812,0,0,1-2.855,1.235l-.4.007v-1.343l.355,0a2.056,2.056,0,0,0,2.276-1.971Zm-1.074-.611a1.124,1.124,0,0,0,.671-.2,1.339,1.339,0,0,0,.426-.483v-.663a2.21,2.21,0,0,0-.313-1.269.971.971,0,0,0-.835-.452.939.939,0,0,0-.8.443,1.883,1.883,0,0,0-.311,1.111,1.835,1.835,0,0,0,.3,1.089.988.988,0,0,0,.861.424Z" transform="translate(-2232.851 -5568.579)" fill="#344154"/>
            </g>
            <g id="Grupo_1116060" data-name="Grupo 1116060" transform="translate(9.217 150.062)">
              <path id="Trazado_907031" data-name="Trazado 907031" d="M2227.145,5652.448h-5.556v-1.1l2.622-2.8a6.4,6.4,0,0,0,.8-1.03,1.651,1.651,0,0,0,.259-.833,1.236,1.236,0,0,0-.273-.848.978.978,0,0,0-.778-.31,1.064,1.064,0,0,0-.861.376,1.492,1.492,0,0,0-.314.988h-1.614a2.661,2.661,0,0,1,.353-1.353,2.482,2.482,0,0,1,1-.961,3.045,3.045,0,0,1,1.465-.349,2.881,2.881,0,0,1,1.946.6,2.128,2.128,0,0,1,.7,1.7,2.722,2.722,0,0,1-.311,1.225,6.836,6.836,0,0,1-1.07,1.453l-1.843,1.942h3.484Z" transform="translate(-2221.426 -5644.224)" fill="#344154"/>
              <path id="Trazado_907032" data-name="Trazado 907032" d="M2237.453,5649.1a4.1,4.1,0,0,1-.7,2.57,2.779,2.779,0,0,1-4.063.017,3.979,3.979,0,0,1-.718-2.5v-1.493a4.045,4.045,0,0,1,.7-2.576,2.787,2.787,0,0,1,4.055-.01,3.978,3.978,0,0,1,.719,2.5Zm-1.609-1.64a2.967,2.967,0,0,0-.276-1.47.932.932,0,0,0-.86-.458.913.913,0,0,0-.838.437,2.782,2.782,0,0,0-.288,1.369v1.973a3.138,3.138,0,0,0,.271,1.475.919.919,0,0,0,.865.48.9.9,0,0,0,.853-.463,3.045,3.045,0,0,0,.272-1.415Z" transform="translate(-2225.292 -5644.224)" fill="#344154"/>
              <path id="Trazado_907033" data-name="Trazado 907033" d="M2246.464,5652.505h-1.609v-6.2l-1.921.6V5645.6l3.357-1.2h.173Z" transform="translate(-2229.31 -5644.284)" fill="#344154"/>
              <path id="Trazado_907034" data-name="Trazado 907034" d="M2257.934,5646.5a1.889,1.889,0,0,1-.3,1.048,2.13,2.13,0,0,1-.812.729,2.343,2.343,0,0,1,.935.781,2.01,2.01,0,0,1,.345,1.173,2.124,2.124,0,0,1-.736,1.7,3.5,3.5,0,0,1-4,0,2.119,2.119,0,0,1-.741-1.7,2.018,2.018,0,0,1,.346-1.176,2.3,2.3,0,0,1,.929-.779,2.118,2.118,0,0,1-.809-.729,1.9,1.9,0,0,1-.292-1.047,2.1,2.1,0,0,1,.69-1.65,3.172,3.172,0,0,1,3.75,0,2.088,2.088,0,0,1,.7,1.649Zm-1.442,3.613a1.17,1.17,0,0,0-.306-.847,1.226,1.226,0,0,0-1.642,0,1.321,1.321,0,0,0-.006,1.685,1.255,1.255,0,0,0,1.657.012A1.162,1.162,0,0,0,2256.492,5650.109Zm-.166-3.535a1.118,1.118,0,0,0-.25-.761,1.021,1.021,0,0,0-1.408-.008,1.107,1.107,0,0,0-.25.77,1.166,1.166,0,0,0,.25.779,1,1,0,0,0,1.412,0A1.178,1.178,0,0,0,2256.325,5646.575Z" transform="translate(-2232.864 -5644.223)" fill="#344154"/>
            </g>
          </g>
        </g>
        <g id="Grupo_1116063" data-name="Grupo 1116063" transform="translate(206.54 24.317)">
          <path id="Trazado_907035" data-name="Trazado 907035" d="M2430.068,5357.708a2.1,2.1,0,1,1-2.1-2.1,2.1,2.1,0,0,1,2.1,2.1Z" transform="translate(-2425.707 -5325.67)" fill="#fff"/>
          <path id="Trazado_907036" data-name="Trazado 907036" d="M2429.98,5357.643a4.535,4.535,0,0,0-.126-.5,2.116,2.116,0,0,0-.772-1.083,1.99,1.99,0,0,0-1.868-.254,1.958,1.958,0,0,0,0,3.668,2,2,0,0,0,1.869-.254,2.115,2.115,0,0,0,.772-1.083c.1-.31.1-.5.126-.5a.975.975,0,0,1,0,.533,2.089,2.089,0,0,1-.76,1.267,2.192,2.192,0,0,1-2.11.354,2.248,2.248,0,0,1,0-4.237,2.179,2.179,0,0,1,2.109.354,2.094,2.094,0,0,1,.76,1.266.754.754,0,0,1,0,.462Z" transform="translate(-2425.615 -5325.607)" fill="#263238"/>
          <circle id="Elipse_13452" data-name="Elipse 13452" cx="17.399" cy="17.399" r="17.399" transform="translate(5.197 0.134)" fill="#fff"/>
          <path id="Trazado_907037" data-name="Trazado 907037" d="M2468.513,5325.882a1.411,1.411,0,0,1-.032-.278l-.062-.83a5.968,5.968,0,0,0-.039-.634,5.581,5.581,0,0,0-.107-.722,13.117,13.117,0,0,0-.367-1.792,16.73,16.73,0,0,0-1.9-4.6,17.278,17.278,0,0,0-20.743-7.367,18.674,18.674,0,0,0-2.249.987c-.362.2-.709.432-1.07.635a8.586,8.586,0,0,0-1.045.717,19.221,19.221,0,0,0-1.983,1.716,18.723,18.723,0,0,0-1.692,1.991,16.765,16.765,0,0,0-2.463,4.75,17.128,17.128,0,0,0,0,10.882,16.623,16.623,0,0,0,2.463,4.751,19.153,19.153,0,0,0,1.692,2,19.578,19.578,0,0,0,1.951,1.666,8.9,8.9,0,0,0,1.045.715c.362.216.709.451,1.07.632a18.489,18.489,0,0,0,2.249.99,17.24,17.24,0,0,0,20.719-7.361,16.8,16.8,0,0,0,1.9-4.61,13.087,13.087,0,0,0,.367-1.792c.038-.259.089-.5.108-.721s.032-.425.038-.634l.063-.824a1.5,1.5,0,0,1,.031-.285v1.748a6.467,6.467,0,0,1-.095.734,12.081,12.081,0,0,1-.342,1.8,16.377,16.377,0,0,1-1.9,4.668,17.457,17.457,0,0,1-21,7.557,18.33,18.33,0,0,1-2.29-1c-.374-.2-.729-.436-1.1-.634a9.252,9.252,0,0,1-1.058-.728,19.515,19.515,0,0,1-1.99-1.692,19.054,19.054,0,0,1-1.722-2.034,16.81,16.81,0,0,1-2.534-4.839,17.418,17.418,0,0,1,0-11.083,16.993,16.993,0,0,1,2.534-4.839,20.564,20.564,0,0,1,1.722-2.034,19.551,19.551,0,0,1,2.008-1.679,9.635,9.635,0,0,1,1.058-.729c.367-.215.729-.449,1.095-.634a19.417,19.417,0,0,1,2.29-1,17.3,17.3,0,0,1,21,7.493,16.394,16.394,0,0,1,1.9,4.667,12.075,12.075,0,0,1,.341,1.812c.032.26.077.506.1.727a5.774,5.774,0,0,1,0,.634v.83A.6.6,0,0,0,2468.513,5325.882Z" transform="translate(-2428.511 -5308.351)" fill="#263238"/>
          <path id="Trazado_907038" data-name="Trazado 907038" d="M2456.762,5335.616a5.269,5.269,0,1,1,5.27-5.27,5.269,5.269,0,0,1-5.27,5.27Zm0-9.9a4.636,4.636,0,1,0,4.636,4.636v-.005A4.636,4.636,0,0,0,2456.762,5325.716Z" transform="translate(-2435.103 -5314.478)" fill="#6595bf"/>
          <rect id="Rectángulo_405751" data-name="Rectángulo 405751" width="0.633" height="5.137" transform="matrix(0.809, -0.587, 0.587, 0.809, 24.147, 20.189)" fill="#6595bf"/>
          <path id="Trazado_907039" data-name="Trazado 907039" d="M2455.479,5330.325a3.033,3.033,0,0,0,.52,4.258,2.821,2.821,0,0,0,.385.258" transform="translate(-2436.328 -5316.403)" fill="#fff"/>
          <path id="Trazado_907040" data-name="Trazado 907040" d="M2456.292,5334.831a1.7,1.7,0,0,1-.691-.373,2.943,2.943,0,0,1-.727-3.529,1.447,1.447,0,0,1,.5-.633c.031,0-.126.277-.28.709a3.268,3.268,0,0,0-.132,1.729,3.308,3.308,0,0,0,.8,1.539C2456.085,5334.622,2456.332,5334.779,2456.292,5334.831Z" transform="translate(-2436.231 -5316.393)" fill="#263238"/>
        </g>
        <g id="Grupo_1116070" data-name="Grupo 1116070" transform="translate(108.508 38.878)">
          <path id="Trazado_907041" data-name="Trazado 907041" d="M2406.585,5391.636c-.944-16.962-8.525-24.848-10.767-38.1-1.115-6.657-.829-13.474-5.549-18.292a14.151,14.151,0,0,0-7.278-3.8,9.674,9.674,0,0,0-4.566.449c-2.236-.329-3.236-.437-4.813,0a12.99,12.99,0,0,0-5.669,3.453c-3.364,4.1-4.054,9.747-4.112,15.056a88.417,88.417,0,0,0,3.541,25.373,3.561,3.561,0,0,0,1.185,2.085,3.489,3.489,0,0,0,2.533.259,50.67,50.67,0,0,0,9.577-2.5,3.191,3.191,0,0,0,1.215-.633c.855-.874.5-2.319.1-3.478l8.6-7.354c-.571,5.118-2.217,10.054-2.945,15.144a42.872,42.872,0,0,0,1.394,18.217,27.746,27.746,0,0,1,10.134-.228c.8.126,2.115,6.506,2.831,6.107C2403.234,5402.688,2406.668,5393.079,2406.585,5391.636Z" transform="translate(-2304.933 -5331.342)" fill="#263238"/>
          <path id="Trazado_907042" data-name="Trazado 907042" d="M2377.75,5337.757l2.439-.273,9.311,3.75a2.6,2.6,0,0,1,2.458,2.534l-.083,30.347a8.5,8.5,0,0,1-1.64,5.475l-1.311,1.728a6.868,6.868,0,0,1-11.477-.727,3.437,3.437,0,0,1-.329-.786,5.212,5.212,0,0,1-.139-.678,21.623,21.623,0,0,1-.291-4.553c-.165-2.688-.222-3.8-.222-3.755s-5.7-.634-7.246-7.981c-.766-3.643-.887-9.672-.823-14.605C2368.451,5343.781,2372.264,5337.75,2377.75,5337.757Z" transform="translate(-2306.602 -5333.589)" fill="#ffbe9d"/>
          <path id="Trazado_907043" data-name="Trazado 907043" d="M2371.192,5363.02a.965.965,0,0,0,.962.914.906.906,0,0,0,.931-.88v-.027a.949.949,0,0,0-.955-.912.912.912,0,0,0-.937.886Z" transform="translate(-2307.634 -5342.619)" fill="#263238"/>
          <path id="Trazado_907044" data-name="Trazado 907044" d="M2386.152,5362.083a.944.944,0,0,0,.962.912.905.905,0,0,0,.931-.878v-.021a.945.945,0,0,0-.957-.912.907.907,0,0,0-.937.873Z" transform="translate(-2313.117 -5342.277)" fill="#263238"/>
          <path id="Trazado_907045" data-name="Trazado 907045" d="M2370.632,5358.614c.12.121.81-.451,1.831-.5s1.792.418,1.9.291-.076-.278-.412-.5a2.623,2.623,0,0,0-1.526-.394,2.546,2.546,0,0,0-1.45.552C2370.663,5358.335,2370.569,5358.561,2370.632,5358.614Z" transform="translate(-2307.421 -5340.935)" fill="#263238"/>
          <path id="Trazado_907046" data-name="Trazado 907046" d="M2385.891,5357.749c.126.113.8-.469,1.818-.552s1.8.373,1.9.241-.083-.271-.43-.48a2.573,2.573,0,0,0-2.97.247C2385.917,5357.472,2385.827,5357.7,2385.891,5357.749Z" transform="translate(-2313.014 -5340.596)" fill="#263238"/>
          <path id="Trazado_907047" data-name="Trazado 907047" d="M2379.815,5366.031a7.1,7.1,0,0,0-1.673-.214c-.26,0-.506-.05-.557-.228a1.277,1.277,0,0,1,.133-.78c.216-.634.438-1.311.672-2.021a33.226,33.226,0,0,0,1.462-5.263,34.765,34.765,0,0,0-1.9,5.136l-.633,2.028a1.494,1.494,0,0,0-.089,1.032.63.63,0,0,0,.45.354,1.6,1.6,0,0,0,.444.04,6.132,6.132,0,0,0,1.69-.084Z" transform="translate(-2309.827 -5340.938)" fill="#263238"/>
          <path id="Trazado_907048" data-name="Trazado 907048" d="M2381.182,5388.235a18.836,18.836,0,0,0,9.756-3.131s-2.229,5.232-9.656,4.91Z" transform="translate(-2311.295 -5351.046)" fill="#eb996e"/>
          <path id="Trazado_907049" data-name="Trazado 907049" d="M2382.167,5374.359a1.839,1.839,0,0,1,1.615-.767,1.655,1.655,0,0,1,1.185.563,1.05,1.05,0,0,1,.146,1.21,1.266,1.266,0,0,1-1.318.406,3.821,3.821,0,0,1-1.342-.717,1,1,0,0,1-.3-.286.333.333,0,0,1,0-.378" transform="translate(-2311.627 -5346.826)" fill="#eb996e"/>
          <path id="Trazado_907050" data-name="Trazado 907050" d="M2384.332,5371.807c-.164,0-.113,1.1-1.019,1.937s-2.091.767-2.091.925.273.2.772.19a2.769,2.769,0,0,0,1.748-.709,2.394,2.394,0,0,0,.779-1.622C2384.541,5372.083,2384.427,5371.807,2384.332,5371.807Z" transform="translate(-2311.31 -5346.171)" fill="#263238"/>
          <path id="Trazado_907051" data-name="Trazado 907051" d="M2385.892,5351.856c.152.247,1-.1,2.065-.209s1.982,0,2.058-.279c.032-.126-.171-.347-.576-.524a3.16,3.16,0,0,0-1.628-.222,3.077,3.077,0,0,0-1.514.589C2385.961,5351.476,2385.822,5351.736,2385.892,5351.856Z" transform="translate(-2313.015 -5338.396)" fill="#263238"/>
          <path id="Trazado_907052" data-name="Trazado 907052" d="M2370.266,5352.48c.19.229.881-.049,1.723-.1s1.564.077,1.722-.175c.063-.122-.063-.343-.386-.553a2.526,2.526,0,0,0-2.775.229C2370.266,5352.135,2370.19,5352.373,2370.266,5352.48Z" transform="translate(-2307.283 -5338.668)" fill="#263238"/>
          <path id="Trazado_907053" data-name="Trazado 907053" d="M2403.282,5365.805c0-.544.544-1.9,1.083-1.991,1.438-.3,4.06-.31,4.269,3.371.285,5.03-4.826,4.276-4.845,4.137S2403.4,5367.705,2403.282,5365.805Z" transform="translate(-2319.397 -5343.199)" fill="#ffbe9d"/>
          <path id="Trazado_907054" data-name="Trazado 907054" d="M2406.38,5370.246a1.362,1.362,0,0,0,.24.114.847.847,0,0,0,.634,0,2.19,2.19,0,0,0,.9-2.009,2.83,2.83,0,0,0-.317-1.266,1.024,1.024,0,0,0-.7-.633.456.456,0,0,0-.507.271c-.057.146,0,.24-.045.253s-.114-.082-.089-.291a.576.576,0,0,1,.185-.324.64.64,0,0,1,.475-.16,1.275,1.275,0,0,1,.963.73,2.97,2.97,0,0,1,.379,1.387,2.311,2.311,0,0,1-1.152,2.242.923.923,0,0,1-.811-.089C2406.392,5370.381,2406.36,5370.258,2406.38,5370.246Z" transform="translate(-2320.531 -5344.116)" fill="#eb996e"/>
          <path id="Trazado_907055" data-name="Trazado 907055" d="M2392.359,5347.58c.355-2.007-.4-4.819-.918-6.778a7.361,7.361,0,0,0-3.015-3.958,12.266,12.266,0,0,0-7.6-2.29l-1.007.33a4.153,4.153,0,0,0-3.9,1.4h0v-1.35a9.957,9.957,0,0,0-6.644,4.357,23.529,23.529,0,0,0-3.167,7.5,82.741,82.741,0,0,0,9.7-9.773c2.906,3.8,7.214,6.246,11.141,9.089a14.641,14.641,0,0,1,.868,5.774c0,4.94,1.045,9.407,1.431,14.341.222,2.843.2,5.276,3.11,5.028C2392.74,5362.143,2390.8,5356.53,2392.359,5347.58Z" transform="translate(-2305.77 -5332.512)" fill="#263238"/>
          <path id="Trazado_907056" data-name="Trazado 907056" d="M2407.346,5353.664a4.733,4.733,0,0,1-1.4.253,13.535,13.535,0,0,1-3.421-.133,16.162,16.162,0,0,1-3.285-.951,5.063,5.063,0,0,1-1.266-.635,47.523,47.523,0,0,0,4.611,1.268,26.982,26.982,0,0,0,4.76.2Z" transform="translate(-2317.449 -5338.981)" fill="#455a64"/>
          <path id="Trazado_907057" data-name="Trazado 907057" d="M2400.707,5345.866a4.482,4.482,0,0,1-.8-.05c-.519-.05-1.266-.158-2.172-.33a37.117,37.117,0,0,1-13.358-5.414c-.767-.514-1.381-.956-1.786-1.267a3.419,3.419,0,0,1-.633-.526,4.125,4.125,0,0,1,.684.424c.431.291,1.058.7,1.837,1.184a42.5,42.5,0,0,0,13.276,5.385c.9.2,1.635.341,2.147.431a3.3,3.3,0,0,1,.81.164Z" transform="translate(-2311.578 -5333.88)" fill="#455a64"/>
          <path id="Trazado_907058" data-name="Trazado 907058" d="M2366.875,5351.175a4.908,4.908,0,0,1-1.159,1.349,4.964,4.964,0,0,1-1.388,1.121,9.582,9.582,0,0,1,2.547-2.47Z" transform="translate(-2305.114 -5338.608)" fill="#455a64"/>
          <path id="Trazado_907059" data-name="Trazado 907059" d="M2350.6,5401.021c.564-.981.139-5,.139-5l-1.3,2.351a57.846,57.846,0,0,0-7.6,3.343c-1.593,1.116-3.744,5.815-3.744,5.815l-13.3,16.836-24.862-4.357-2.336,12.484,8.4,1.742,14.77,1.9c4.149.9,8.184,1.224,11.4-1.5l.221-.43c-1.172,16.783.443,35.292,1,52.1a9.114,9.114,0,0,0,.7,3.852c.849,1.659,3.991,2.533,5.835,2.289s1.266-1.425,1.653-3.243c.215-1-.716-2.375-.836-3.384q-2.717-21.916-5.427-43.824c-.057-.9-.12-1.736-.183-2.477-.633-7.722-.729-9.8-.386-13.34C2335.267,5420.727,2346.8,5407.654,2350.6,5401.021Z" transform="translate(-2280.652 -5355.05)" fill="#d9a171"/>
          <path id="Trazado_907060" data-name="Trazado 907060" d="M2356.336,5421.134a3.848,3.848,0,0,1-.381.761c-.266.469-.633,1.165-1.045,2.04a34.445,34.445,0,0,0-3.427,14.625c0,.969,0,1.754.032,2.29a3.618,3.618,0,0,1,0,.849,4.824,4.824,0,0,1-.126-.835q-.127-1.151-.139-2.306a31.1,31.1,0,0,1,3.452-14.751,22.6,22.6,0,0,1,1.147-2.008,4.332,4.332,0,0,1,.486-.664Z" transform="translate(-2300.32 -5364.255)" fill="#263238"/>
          <g id="Grupo_1116064" data-name="Grupo 1116064" transform="translate(49.203 59.786)" opacity="0.3">
            <path id="Trazado_907061" data-name="Trazado 907061" d="M2353.6,5425.726a29.345,29.345,0,0,0-4.586,9.14c-.855,3.319-.317,5.2-.392,8.685l1.991.449C2350.177,5437.754,2350.386,5433.631,2353.6,5425.726Z" transform="translate(-2348.526 -5425.726)" fill="#344154"/>
          </g>
          <path id="Trazado_907062" data-name="Trazado 907062" d="M2355.386,5425.34a1.3,1.3,0,0,1,0-.329c.038-.208.057-.531.153-.932a26.72,26.72,0,0,1,1.019-3.313,97.465,97.465,0,0,1,4.725-10.388c.583-1.126,1.159-2.216,1.729-3.255l.045-.081h.1l2.1-.04-.139.216a2.1,2.1,0,0,0-.817-.918l-.145-.1.115-.127a48.019,48.019,0,0,1,4.5-4.725c.582-.533,1.058-.937,1.387-1.21a.331.331,0,1,1,.064.069l-1.33,1.266a57.629,57.629,0,0,0-4.389,4.778l-.038-.214a2.35,2.35,0,0,1,.938,1.045l.1.208h-.234l-2.1.058.133-.083c-.558,1.031-1.134,2.121-1.717,3.25-2.034,3.959-3.75,7.6-4.8,10.317a31.365,31.365,0,0,0-1.109,3.262,10.848,10.848,0,0,1-.283,1.246Z" transform="translate(-2301.834 -5356.414)" fill="#263238"/>
          <path id="Trazado_907063" data-name="Trazado 907063" d="M2394.539,5673.892l8.163,13.141s-10.616,12.719-9.343,15.29l26.058-14.916L2407.5,5666.4Z" transform="translate(-2315.721 -5454.174)" fill="#d9a171"/>
          <path id="Trazado_907064" data-name="Trazado 907064" d="M2419.331,5689.9a1.222,1.222,0,0,1,1.432.8,1.179,1.179,0,0,1-.773,1.425,1.266,1.266,0,0,1-1.507-.848,1.216,1.216,0,0,1,.969-1.393" transform="translate(-2324.964 -5462.772)" fill="#e0e0e0"/>
          <g id="Grupo_1116065" data-name="Grupo 1116065" transform="translate(77.404 231.163)" opacity="0.6">
            <path id="Trazado_907065" data-name="Trazado 907065" d="M2419.317,5698.366l-1.267-2.071-24.518,15.08s-.874,1.166-.272,1.9Z" transform="translate(-2393.049 -5696.295)" fill="#fff"/>
          </g>
          <path id="Trazado_907066" data-name="Trazado 907066" d="M2407.347,5698.773c.076.125.747-.176,1.6-.126s1.5.392,1.593.273-.52-.742-1.565-.786S2407.252,5698.672,2407.347,5698.773Z" transform="translate(-2320.883 -5465.805)" fill="#263238"/>
          <path id="Trazado_907067" data-name="Trazado 907067" d="M2404.05,5703.236c.044.141.716.039,1.456.33s1.195.8,1.317.71-.209-.843-1.134-1.185S2403.986,5703.11,2404.05,5703.236Z" transform="translate(-2319.677 -5467.569)" fill="#263238"/>
          <path id="Trazado_907068" data-name="Trazado 907068" d="M2403.257,5709.009c.133-.044-.057-.779-.778-1.267s-1.482-.45-1.475-.311.589.3,1.178.722S2403.124,5709.067,2403.257,5709.009Z" transform="translate(-2318.561 -5469.181)" fill="#263238"/>
          <path id="Trazado_907069" data-name="Trazado 907069" d="M2404.919,5693.184c.12.083.633-.424,1.349-.786s1.438-.461,1.444-.633-.8-.292-1.667.145S2404.8,5693.121,2404.919,5693.184Z" transform="translate(-2319.99 -5463.415)" fill="#263238"/>
          <path id="Trazado_907070" data-name="Trazado 907070" d="M2388.556,5686.537l.881,15.454s-15.41,6.08-15.524,8.95l30.016-.633-.38-24.133Z" transform="translate(-2308.63 -5461.42)" fill="#d9a171"/>
          <path id="Trazado_907071" data-name="Trazado 907071" d="M2412.208,5708.8a1.266,1.266,0,0,1,.881,1.387,1.184,1.184,0,0,1-1.362.879,1.3,1.3,0,0,1-.924-1.468,1.228,1.228,0,0,1,1.52-.761" transform="translate(-2322.148 -5469.708)" fill="#e0e0e0"/>
          <g id="Grupo_1116066" data-name="Grupo 1116066" transform="translate(65.266 246.461)" opacity="0.6">
            <path id="Trazado_907072" data-name="Trazado 907072" d="M2403.906,5722.878l-.133-2.433-28.718,1.493s-1.323.634-1.153,1.545Z" transform="translate(-2373.887 -5720.445)" fill="#fff"/>
          </g>
          <path id="Trazado_907073" data-name="Trazado 907073" d="M2397.652,5710.827c0,.145.741.2,1.47.633s1.128,1.064,1.266,1.008-.1-.905-1-1.445S2397.613,5710.693,2397.652,5710.827Z" transform="translate(-2317.333 -5470.402)" fill="#263238"/>
          <path id="Trazado_907074" data-name="Trazado 907074" d="M2392.721,5713.042c-.031.145.633.379,1.121.988s.665,1.266.811,1.266.222-.842-.424-1.583S2392.721,5712.9,2392.721,5713.042Z" transform="translate(-2315.526 -5471.249)" fill="#263238"/>
          <path id="Trazado_907075" data-name="Trazado 907075" d="M2389.316,5717.636c.132.031.323-.709-.07-1.5s-1.089-1.1-1.147-.975.373.539.684,1.194S2389.169,5717.623,2389.316,5717.636Z" transform="translate(-2313.83 -5472.036)" fill="#263238"/>
          <path id="Trazado_907076" data-name="Trazado 907076" d="M2397.948,5705c.064.132.728-.089,1.558-.045s1.482.285,1.558.159-.557-.634-1.54-.672S2397.872,5704.889,2397.948,5705Z" transform="translate(-2317.439 -5468.117)" fill="#263238"/>
          <path id="Trazado_907077" data-name="Trazado 907077" d="M2361.312,5504.515s-1.381,65.754-.139,70.308,26.652,51.091,26.652,51.091l15.331-7.532-20.332-49.138,4.479-63.181Z" transform="translate(-2303.77 -5394.823)" fill="#263238"/>
          <path id="Trazado_907078" data-name="Trazado 907078" d="M2395.393,5498.715s8.817,14.4,7.258,23.031c-.633,3.54-5.466,11.4-5.466,11.4v42.14l3.724,56.271h-17.868l-7.683-49.621a40.537,40.537,0,0,1-3.724-8.48c-1.033-3.927-4.4-50.393-4.4-50.393l-5.346-18.894Z" transform="translate(-2304.223 -5392.697)" fill="#263238"/>
          <path id="Trazado_907079" data-name="Trazado 907079" d="M2420.709,5661.525a7.717,7.717,0,0,0,0,1.183c0,.762.075,1.863.152,3.225.153,2.718.425,6.471.742,10.609s.582,7.893.76,10.611c.083,1.311.158,2.389.209,3.217a7.95,7.95,0,0,0,.12,1.178,6.569,6.569,0,0,0,0-1.184c0-.76-.038-1.863-.1-3.225-.107-2.723-.335-6.479-.633-10.622s-.633-7.827-.842-10.6c-.113-1.311-.2-2.389-.279-3.217A7.3,7.3,0,0,0,2420.709,5661.525Z" transform="translate(-2325.777 -5452.385)" fill="#455a64"/>
          <path id="Trazado_907080" data-name="Trazado 907080" d="M2402.116,5510.333a2.456,2.456,0,0,1-.482.544,10.819,10.819,0,0,1-1.533,1.267,12.221,12.221,0,0,1-12.459.734,10.779,10.779,0,0,1-1.672-1.056,2.708,2.708,0,0,1-.539-.482,25.467,25.467,0,0,0,2.313,1.325,12.6,12.6,0,0,0,12.231-.767A25.115,25.115,0,0,0,2402.116,5510.333Z" transform="translate(-2312.853 -5396.956)" fill="#455a64"/>
          <path id="Trazado_907081" data-name="Trazado 907081" d="M2370.573,5531.226a1.013,1.013,0,0,1,0,.234c0,.17.031.394.056.678.044.633.115,1.5.2,2.628.153,2.3.381,5.593.634,9.657.57,8.147,1.267,19.412,2.375,31.822.153,1.692.323,3.364.513,4.99.108.817.2,1.635.374,2.4a18.8,18.8,0,0,0,.747,2.268c1.1,2.971,2.28,5.774,3.408,8.4v.039c1.194,7.638,2.2,14.105,2.914,18.679l.861,5.3c.107.6.19,1.063.254,1.4s.107.475.1.482a3.191,3.191,0,0,1-.153-.469c-.069-.316-.177-.778-.3-1.394-.24-1.222-.557-3.014-.95-5.289-.779-4.547-1.825-11.008-3.029-18.666v.038c-1.14-2.622-2.324-5.428-3.439-8.4a19.138,19.138,0,0,1-.753-2.29c-.19-.817-.279-1.628-.386-2.446-.2-1.64-.367-3.312-.513-5-1.089-12.421-1.767-23.693-2.28-31.839l-.482-9.672c-.056-1.128-.1-2.009-.126-2.63v-.683A1.139,1.139,0,0,1,2370.573,5531.226Z" transform="translate(-2307.406 -5404.616)" fill="#455a64"/>
          <path id="Trazado_907082" data-name="Trazado 907082" d="M2370.977,5398.478s-.19,2.887,2.154,2.887c3.293,0,10.2-6.333,10.2-6.333l-13.3,31.745V5465.2l-11.28,1.152s-1.324-.189-1.593-2.09c-.526-3.717-.45-10.5-.88-13.3-1.343-8.677-3.982-13.4-3.6-20.268.552-10.218,14.933-27.874,14.933-27.874Z" transform="translate(-2300.83 -5354.685)" fill="#fff"/>
          <path id="Trazado_907083" data-name="Trazado 907083" d="M2388.106,5388.715a86.484,86.484,0,0,1-5.562,9c-2.875,4-21.092,31.9-21.092,31.9l7.278,56.614.81,4.794a2.39,2.39,0,0,0,2.753,1.972c.037-.006.073-.013.109-.021l32.177-5.656a2.919,2.919,0,0,0,2.29-3.731l-14.365-40.347,9.279-35.833s-.342-5.219-5.992-10.514c-1.077-1.007-5.517-4.687-6.252-5.7Z" transform="translate(-2304.062 -5352.372)" fill="#d9a171"/>
          <g id="Grupo_1116067" data-name="Grupo 1116067" transform="translate(59.157 90.853)" opacity="0.3">
            <path id="Trazado_907084" data-name="Trazado 907084" d="M2364.761,5478.962s14.815,11.747,22.023,11.857,10.958-6,10.958-6l-14.5.4-19-10.446Z" transform="translate(-2364.242 -5474.773)" fill="#344154"/>
          </g>
          <path id="Trazado_907085" data-name="Trazado 907085" d="M2347.7,5442.333s13.365,8.83,15.835,10.508,14.131,8.443,15.651,8.932,10.95.551,12.667-2.654,2.9-10.045,2.9-10.045l2.273-32.019a12.887,12.887,0,0,0-2.305-8.374c-1.381-1.95-3.2-3.712-5.177-3.415-4.212.634-13.27,10.812-12.833,16.045s.45,19.8.45,19.8l-23.86-7.9Z" transform="translate(-2299.021 -5358.426)" fill="#d9a171"/>
          <path id="Trazado_907086" data-name="Trazado 907086" d="M2394.627,5410.675a7.233,7.233,0,0,1,.436.635,11.539,11.539,0,0,1,1.014,1.945,12.649,12.649,0,0,1,.874,3.42,26.133,26.133,0,0,1-.108,4.769c-.5,7.132-1.2,17.285-2.046,29.434h0q-.361,2.052-.874,4.148a35.906,35.906,0,0,1-1.266,4.213,8.713,8.713,0,0,1-1.013,2.051,5.012,5.012,0,0,1-1.824,1.451,14.216,14.216,0,0,1-4.517,1.342,19.522,19.522,0,0,1-4.832.127,6.608,6.608,0,0,1-2.4-.633c-.74-.368-1.463-.772-2.19-1.173q-4.351-2.431-8.778-5.065c-3.541-2.053-6.828-4.373-10.1-6.506l-9.5-6.333-.126-.083.083-.126,5.618-9.272.064-.1.115.038,23.828,8.069-.139.1c.488-5.947.874-10.685,1.14-13.937.139-1.615.247-2.862.323-3.718.038-.411.063-.734.089-.957s.038-.33.038-.33v.33c0,.216-.038.545-.064.962-.063.855-.151,2.11-.266,3.726-.241,3.261-.6,7.993-1.045,13.937v.14l-.134-.045-23.872-8.012.177-.063-5.612,9.279-.044-.209,9.5,6.3c3.285,2.14,6.549,4.435,10.077,6.492q4.435,2.642,8.772,5.067c.723.4,1.444.8,2.172,1.165a6.317,6.317,0,0,0,2.29.634,19.194,19.194,0,0,0,4.75-.12,14.032,14.032,0,0,0,4.434-1.293,4.859,4.859,0,0,0,1.723-1.363,8.339,8.339,0,0,0,.975-1.975,35.4,35.4,0,0,0,1.266-4.182c.348-1.387.634-2.77.881-4.117h0c.9-12.146,1.635-22.3,2.16-29.428a26.219,26.219,0,0,0,.146-4.744,12.556,12.556,0,0,0-.823-3.4,12.8,12.8,0,0,0-.969-1.951c-.126-.214-.234-.367-.3-.475Z" transform="translate(-2298.904 -5360.42)" fill="#263238"/>
          <path id="Trazado_907087" data-name="Trazado 907087" d="M2367.863,5424.769a2.486,2.486,0,0,1,.291-.336c.215-.241.507-.551.861-.936l3.167-3.439,4.757-5.067c1.818-1.9,3.763-4.016,6.062-6.03v.241l-.19-.215-1.608-1.78-.266-.3h.4l2.976.151-.145.083,5.992-10.432,1.774-3.028.488-.8c.114-.184.177-.279.19-.272a1.908,1.908,0,0,1-.14.3c-.114.215-.26.5-.443.829l-1.692,3.081-5.9,10.488-.051.083h-.1l-2.977-.152.134-.271,1.6,1.78.2.215.108.12-.126.113c-2.261,1.983-4.225,4.11-6.056,5.987l-4.8,5.028c-1.368,1.431-2.483,2.588-3.262,3.369-.386.4-.691.7-.906.9a1.912,1.912,0,0,1-.339.3Z" transform="translate(-2306.413 -5353.796)" fill="#263238"/>
          <g id="Grupo_1116068" data-name="Grupo 1116068" transform="translate(60.38 51.639)" opacity="0.3">
            <path id="Trazado_907088" data-name="Trazado 907088" d="M2366.173,5433.97l18.118-17.083-1.545-1.693h1.545l.405-2.33-1.021,1.8-2.986-.151,1.761,1.609-15.056,15.916Z" transform="translate(-2366.173 -5412.864)" fill="#344154"/>
          </g>
          <path id="Trazado_907089" data-name="Trazado 907089" d="M2384.282,5514.444l.3-.076.924-.2,3.5-.734,12.212-2.483h.108l.058.095,3.363,5.475.126.2-.234.044-.4.075-17.812,3.345h-.089l-.032-.089-1.52-4.187c-.158-.457-.292-.817-.386-1.1a2.618,2.618,0,0,1-.121-.373,3.756,3.756,0,0,1,.177.4c.107.279.26.634.444,1.108l1.608,4.073-.12-.069,17.786-3.451.4-.077-.108.248-3.357-5.485.164.076-12.123,2.306-3.553.633-.963.165a2.42,2.42,0,0,1-.354.079Z" transform="translate(-2312.431 -5397.186)" fill="#263238"/>
          <g id="Grupo_1116069" data-name="Grupo 1116069" transform="translate(72.022 117.799)" opacity="0.3">
            <path id="Trazado_907090" data-name="Trazado 907090" d="M2384.552,5517.315l1.286,6.644,18.445-3.325-.512-1.539-17.292,3.3Z" transform="translate(-2384.552 -5517.315)" fill="#344154"/>
          </g>
          <path id="Trazado_907091" data-name="Trazado 907091" d="M2398.721,5467.466c-.1.044-.861-1.476-2.236-3.028s-2.781-2.534-2.724-2.6A11.13,11.13,0,0,1,2398.721,5467.466Z" transform="translate(-2315.906 -5379.175)" fill="#263238"/>
          <path id="Trazado_907092" data-name="Trazado 907092" d="M2287.247,5435.434a50.4,50.4,0,0,1-6.471-4.541s-2.688-.85-3.927.849c0,0-2.85.786-3.23,1.318s-2.775,4.224-2.775,4.224,1.267,4.4,1.388,4.624c.228.482.747.989,1.184.456a.924.924,0,0,0,.2-.633v-.291l.69-.488s.311,1.709,1.235,1.444a16.158,16.158,0,0,0,3-1.8,17.247,17.247,0,0,0,4.466,1.835,48.857,48.857,0,0,1,5.067,1.135l1.558-8.362Z" transform="translate(-2270.844 -5367.755)" fill="#ffbe9d"/>
          <path id="Trazado_907093" data-name="Trazado 907093" d="M2274.381,5443.427a.38.38,0,0,1-.361.07.947.947,0,0,1-.634-.762,13.689,13.689,0,0,1,0-3.217,29.6,29.6,0,0,1,.507-3.167,5.443,5.443,0,0,1,.342-1.266c.115,0-.247,2.007-.519,4.434a18.875,18.875,0,0,0-.115,3.167.8.8,0,0,0,.469.679C2274.249,5443.454,2274.375,5443.4,2274.381,5443.427Z" transform="translate(-2271.741 -5369.37)" fill="#eb996e"/>
          <path id="Trazado_907094" data-name="Trazado 907094" d="M2281.922,5436.854a3.684,3.684,0,0,1-2.185,1.014l.133-.121-.038.165a10.364,10.364,0,0,1-.76,2.445,10.088,10.088,0,0,1,.437-2.533l.044-.16v-.108h.107A15.863,15.863,0,0,0,2281.922,5436.854Z" transform="translate(-2273.861 -5370.02)" fill="#eb996e"/>
          <path id="Trazado_907095" data-name="Trazado 907095" d="M2284.562,5437.4a2.275,2.275,0,0,0-2.534-.519l-.48.633-3.648,3.04a5.614,5.614,0,0,0-1.634,1.843,1.9,1.9,0,0,0,.38,2.268,2.179,2.179,0,0,0,2.589-.341c.729-.59,1.266-1.412,2.014-1.964,1.178-.867,2.887-1.1,3.611-2.368A2.273,2.273,0,0,0,2284.562,5437.4Z" transform="translate(-2272.753 -5369.961)" fill="#ffbe9d"/>
          <path id="Trazado_907096" data-name="Trazado 907096" d="M2281.745,5435.955a2.011,2.011,0,0,1-.322,1.323,4.878,4.878,0,0,1-.919,1.184,11.975,11.975,0,0,1-1.425,1.108,8.851,8.851,0,0,0-2.414,2.071,7.944,7.944,0,0,0-.633,1.165,2.142,2.142,0,0,1,.424-1.294,5.471,5.471,0,0,1,.976-1.128,15.539,15.539,0,0,1,1.443-1.083,12.453,12.453,0,0,0,1.407-1.064,5.072,5.072,0,0,0,.925-1.07,6.42,6.42,0,0,0,.537-1.212Z" transform="translate(-2272.747 -5369.689)" fill="#eb996e"/>
          <path id="Trazado_907097" data-name="Trazado 907097" d="M2314.022,5453.875s.133-4.536,1.267-5.884,7.865-3.066,7.865-3.066l16.874,3.915-3.92,6.334-1.185-1.114s-5.308,1.593-7.93,1.019a29.714,29.714,0,0,1-4.573-1.362l-2.749.19s-1.982,2.052-2.622,2.052-1.343-.577-1.026-1.217l-.571-.962S2314.282,5454.451,2314.022,5453.875Z" transform="translate(-2286.673 -5372.978)" fill="#ffbe9d"/>
          <path id="Trazado_907098" data-name="Trazado 907098" d="M2324.02,5454.061a2.83,2.83,0,0,1-1.2.412,20.64,20.64,0,0,0-2.946.576,4.114,4.114,0,0,0-2.115,1.939,7.051,7.051,0,0,1-.633,1.082,3.531,3.531,0,0,1,.43-1.194,5.082,5.082,0,0,1,.766-1.172,3.536,3.536,0,0,1,1.439-.97,14.079,14.079,0,0,1,3.021-.5C2323.557,5454.156,2324,5454.017,2324.02,5454.061Z" transform="translate(-2287.81 -5376.324)" fill="#eb996e"/>
          <path id="Trazado_907099" data-name="Trazado 907099" d="M2322.278,5448.8c0,.044-.539.132-1.375.431a13.842,13.842,0,0,0-1.432.576,7,7,0,0,0-1.593.951,3.657,3.657,0,0,0-.544.767c-.158.272-.3.538-.431.8a7.668,7.668,0,0,0-.552,1.432c-.222.849-.184,1.4-.24,1.406a2.9,2.9,0,0,1,0-1.457,6.7,6.7,0,0,1,.5-1.514c.127-.272.271-.551.431-.829a3.7,3.7,0,0,1,.6-.849,6.773,6.773,0,0,1,1.711-1.014,11.987,11.987,0,0,1,1.493-.525,3.466,3.466,0,0,1,1.437-.17Z" transform="translate(-2287.405 -5374.392)" fill="#eb996e"/>
        </g>
        <text id="Ener" transform="translate(88.752 124.42)" fill="#fff" font-size="10" font-family="SegoeUI, Segoe UI"><tspan x="0" y="0">Ener</tspan></text>
        <g id="Grupo_1116074" data-name="Grupo 1116074" transform="translate(139.636 5.12)">
          <path id="Trazado_907100" data-name="Trazado 907100" d="M340.687,55.565a18.139,18.139,0,1,1-20.557-15.3,18.139,18.139,0,0,1,20.557,15.3Z" transform="translate(-304.601 -40.071)" fill="#fd9826"/>
          <g id="Grupo_1116071" data-name="Grupo 1116071" transform="translate(4.314 4.308)">
            <path id="Trazado_907101" data-name="Trazado 907101" d="M342.549,62.306a13.824,13.824,0,1,1-15.662-11.659,13.824,13.824,0,0,1,15.662,11.659Z" transform="translate(-315.048 -50.499)" fill="#fed401"/>
          </g>
          <g id="Grupo_1116072" data-name="Grupo 1116072" transform="translate(4.063 3.785)">
            <path id="Trazado_907102" data-name="Trazado 907102" d="M342.127,61.131a8.184,8.184,0,0,1-.6-1.593,14.664,14.664,0,0,0-2.19-3.963,14.156,14.156,0,0,0-2.172-2.223,13.85,13.85,0,0,0-3.02-1.867,13.559,13.559,0,0,0-3.758-1.082,13.554,13.554,0,0,0-8.156,1.447,13.546,13.546,0,0,0-3.156,2.31,13.825,13.825,0,0,0-2.19,2.793,14.167,14.167,0,0,0-1.274,2.834,14.68,14.68,0,0,0-.688,4.474,8.106,8.106,0,0,1-.015,1.7,4.061,4.061,0,0,1-.4-1.679,12.789,12.789,0,0,1,.381-4.7,13.85,13.85,0,0,1,3.494-6.1,13.406,13.406,0,0,1,1.546-1.366,13.543,13.543,0,0,1,1.811-1.17,14.13,14.13,0,0,1,12.817-.335,13.851,13.851,0,0,1,5.383,4.529,12.8,12.8,0,0,1,1.978,4.287,4.053,4.053,0,0,1,.205,1.712Z" transform="translate(-314.442 -49.231)" fill="#e0e0e0"/>
          </g>
          <g id="Grupo_1116073" data-name="Grupo 1116073" transform="translate(11.994 8.461)">
            <path id="Trazado_907103" data-name="Trazado 907103" d="M342.521,78.127,342.9,80.5l-2.122.339-.37-2.314a10.188,10.188,0,0,1-5.558-.852L335.6,74.9a8.69,8.69,0,0,0,4.359.848L339.4,72.2c-2.448-.2-5.206-.559-5.691-3.6-.36-2.25.965-4.443,4.258-5.362l-.377-2.356,2.123-.34.37,2.315a9.727,9.727,0,0,1,4.517.6l-.641,2.78a8.822,8.822,0,0,0-3.424-.584l.577,3.609c2.444.174,5.161.547,5.64,3.539C347.1,75.021,345.789,77.19,342.521,78.127ZM338.9,69.083l-.483-3.014c-1.084.435-1.432,1.122-1.319,1.823C337.213,68.633,337.915,68.936,338.9,69.083Zm4.471,4.532c-.119-.744-.8-1.048-1.763-1.22l.469,2.93C343.1,74.92,343.476,74.294,343.367,73.615Z" transform="translate(-333.646 -60.55)" fill="#e0e0e0"/>
          </g>
        </g>
        <g id="Grupo_1116079" data-name="Grupo 1116079" transform="translate(193.091 0)">
          <g id="Grupo_1116077" data-name="Grupo 1116077" transform="translate(0)">
            <path id="Trazado_907104" data-name="Trazado 907104" d="M457.747,40.343A11.871,11.871,0,1,1,446.733,27.7a11.871,11.871,0,0,1,11.014,12.643Z" transform="translate(-434.031 -27.67)" fill="#fd9826"/>
            <g id="Grupo_1116075" data-name="Grupo 1116075" transform="translate(2.827 2.824)">
              <path id="Trazado_907105" data-name="Trazado 907105" d="M458.943,44.156a9.046,9.046,0,1,1-8.393-9.635A9.046,9.046,0,0,1,458.943,44.156Z" transform="translate(-440.871 -34.498)" fill="#fed401"/>
            </g>
            <g id="Grupo_1116076" data-name="Grupo 1116076" transform="translate(2.765 2.469)">
              <path id="Trazado_907106" data-name="Trazado 907106" d="M458.9,43.381a5.331,5.331,0,0,1-.162-1.1,9.6,9.6,0,0,0-.847-2.839,9.288,9.288,0,0,0-1.08-1.723,9.059,9.059,0,0,0-1.672-1.614,8.869,8.869,0,0,0-2.253-1.215,8.739,8.739,0,0,0-1.305-.364,8.852,8.852,0,0,0-6.451,1.193,9.046,9.046,0,0,0-1.792,1.481,9.281,9.281,0,0,0-1.21,1.636,9.612,9.612,0,0,0-1.062,2.765,5.309,5.309,0,0,1-.247,1.085,2.659,2.659,0,0,1-.02-1.129,8.363,8.363,0,0,1,.9-2.956,9.058,9.058,0,0,1,3.086-3.418,8.752,8.752,0,0,1,1.18-.658,8.86,8.86,0,0,1,1.32-.5,9.235,9.235,0,0,1,8.244,1.565,9.065,9.065,0,0,1,2.812,3.646A8.376,8.376,0,0,1,459,42.252a2.653,2.653,0,0,1-.106,1.129Z" transform="translate(-440.743 -33.655)" fill="#e0e0e0"/>
            </g>
          </g>
          <g id="Grupo_1116078" data-name="Grupo 1116078" transform="translate(7.676 5.585)">
            <path id="Trazado_907107" data-name="Trazado 907107" d="M457.452,52.911l-.088,1.574-1.4-.079.085-1.531a6.67,6.67,0,0,1-3.434-1.322l.868-1.671a5.688,5.688,0,0,0,2.67,1.149l.13-2.346c-1.538-.466-3.251-1.082-3.14-3.091.083-1.493,1.235-2.707,3.469-2.836l.087-1.56,1.4.078-.085,1.531a6.36,6.36,0,0,1,2.8,1.015l-.8,1.692a5.774,5.774,0,0,0-2.109-.85l-.132,2.389c1.539.451,3.223,1.067,3.114,3.047C460.811,51.562,459.668,52.767,457.452,52.911Zm-1.059-6.288.11-1.991c-.754.127-1.071.519-1.1.982-.029.488.377.778.985,1.009Zm2.228,3.52c.027-.492-.365-.781-.958-1.026l-.107,1.939c.711-.115,1.04-.463,1.065-.913Z" transform="translate(-452.61 -41.197)" fill="#e0e0e0"/>
          </g>
        </g>
        <g id="Grupo_1116093" data-name="Grupo 1116093" transform="translate(212.21 176.016)">
          <g id="Grupo_1116088" data-name="Grupo 1116088" transform="translate(0.012 1.031)">
            <path id="Trazado_907116" data-name="Trazado 907116" d="M145.987,168.447a1.891,1.891,0,0,1-1.418-2.267l3.688-16.017a1.568,1.568,0,0,1,1.915-1.113l1.506.346a1.627,1.627,0,0,0,1.628-.528l.475-.582a1.628,1.628,0,0,1,1.629-.528l7.149,1.647a1.64,1.64,0,0,1,1.19,1.037l.223.637a1.642,1.642,0,0,0,1.19,1.037l9.114,2.1a1.569,1.569,0,0,1,1.235,1.839l-3.773,16.381a1.891,1.891,0,0,1-2.267,1.419Z" transform="translate(-144.521 -147.713)" fill="#8454ee"/>
          </g>
          <path id="Trazado_907117" data-name="Trazado 907117" d="M164.2,150.458l-5.795-1.348-.3-1.088a2.054,2.054,0,0,0-1.536-1.434l-5.667-1.305a1.818,1.818,0,0,0-2.221,1.294l-.152.661-4,17.391a2.065,2.065,0,0,0,1.628,2.421l23.02,5.3a2.066,2.066,0,0,0,2.527-1.469l3.783-16.426a1.362,1.362,0,0,0-1.021-1.633Z" transform="translate(-144.486 -145.223)" fill="#8454ee"/>
          <g id="Grupo_1116090" data-name="Grupo 1116090" transform="translate(8.43 9.75)">
            <g id="Grupo_1116089" data-name="Grupo 1116089" transform="translate(0 0)">
              <rect id="Rectángulo_405752" data-name="Rectángulo 405752" width="14.058" height="5.915" transform="translate(1.328 0) rotate(12.969)" fill="#8454ee"/>
            </g>
          </g>
          <g id="Grupo_1116091" data-name="Grupo 1116091" transform="translate(11.35 12.784)">
            <path id="Trazado_907118" data-name="Trazado 907118" d="M181.386,178.343c-.012.051-2.128-.393-4.728-1s-4.7-1.125-4.686-1.177,2.128.393,4.729,1S181.4,178.29,181.386,178.343Z" transform="translate(-171.973 -176.167)" fill="#8454ee"/>
          </g>
          <g id="Grupo_1116092" data-name="Grupo 1116092" transform="translate(11.067 14.011)">
            <path id="Trazado_907119" data-name="Trazado 907119" d="M180.7,181.316c-.012.051-2.128-.393-4.728-1s-4.7-1.125-4.686-1.177,2.128.393,4.728,1S180.713,181.265,180.7,181.316Z" transform="translate(-171.288 -179.14)" fill="#8454ee"/>
          </g>
        </g>
      </g>
      <g id="Grupo_1116130" data-name="Grupo 1116130" transform="translate(415.055 6078.89)">
        <g id="Grupo_1116106" data-name="Grupo 1116106" transform="translate(0 16.473)">
          <path id="Trazado_907120" data-name="Trazado 907120" d="M3.738,0h58.22A3.739,3.739,0,0,1,65.7,3.739v9.63a3.739,3.739,0,0,1-3.739,3.739H3.738A3.738,3.738,0,0,1,0,13.37V3.738A3.738,3.738,0,0,1,3.738,0Z" transform="translate(0 0)" fill="#263238"/>
          <g id="Grupo_1116095" data-name="Grupo 1116095" transform="translate(29.568 4.084)">
            <rect id="Rectángulo_405753" data-name="Rectángulo 405753" width="29.13" height="9.66" rx="0.708" fill="#fff"/>
          </g>
          <g id="Grupo_1116096" data-name="Grupo 1116096" transform="translate(10.898 4.834)">
            <circle id="Elipse_13453" data-name="Elipse 13453" cx="3.497" cy="3.497" r="3.497" transform="translate(0.584 0.582)" fill="#263238"/>
            <path id="Trazado_907121" data-name="Trazado 907121" d="M131.776,431.87a4.082,4.082,0,1,1,4.082-4.082A4.081,4.081,0,0,1,131.776,431.87Zm0-6.994a2.911,2.911,0,1,0,2.91,2.911,2.911,2.911,0,0,0-2.91-2.911Z" transform="translate(-127.694 -423.707)" fill="#e0e0e0"/>
          </g>
          <g id="Grupo_1116097" data-name="Grupo 1116097" transform="translate(32.468 5.735)">
            <path id="Trazado_907122" data-name="Trazado 907122" d="M164.6,425.245a34.3,34.3,0,0,1,0,6.476A34.43,34.43,0,0,1,164.6,425.245Z" transform="translate(-164.447 -425.245)" fill="#e0e0e0"/>
          </g>
          <g id="Grupo_1116098" data-name="Grupo 1116098" transform="translate(35.298 5.735)">
            <path id="Trazado_907123" data-name="Trazado 907123" d="M169.424,425.245a34.3,34.3,0,0,1,0,6.476A34.42,34.42,0,0,1,169.424,425.245Z" transform="translate(-169.272 -425.245)" fill="#e0e0e0"/>
          </g>
          <g id="Grupo_1116099" data-name="Grupo 1116099" transform="translate(38.133 5.735)">
            <path id="Trazado_907124" data-name="Trazado 907124" d="M174.253,425.245a34.43,34.43,0,0,1,0,6.476A34.3,34.3,0,0,1,174.253,425.245Z" transform="translate(-174.1 -425.245)" fill="#e0e0e0"/>
          </g>
          <g id="Grupo_1116100" data-name="Grupo 1116100" transform="translate(40.967 5.735)">
            <path id="Trazado_907125" data-name="Trazado 907125" d="M179.082,425.245a34.448,34.448,0,0,1,0,6.476,34.287,34.287,0,0,1,0-6.476Z" transform="translate(-178.929 -425.245)" fill="#e0e0e0"/>
          </g>
          <g id="Grupo_1116101" data-name="Grupo 1116101" transform="translate(43.8 5.735)">
            <path id="Trazado_907126" data-name="Trazado 907126" d="M183.91,425.245a34.3,34.3,0,0,1,0,6.476A34.43,34.43,0,0,1,183.91,425.245Z" transform="translate(-183.758 -425.245)" fill="#e0e0e0"/>
          </g>
          <g id="Grupo_1116102" data-name="Grupo 1116102" transform="translate(46.634 5.735)">
            <path id="Trazado_907127" data-name="Trazado 907127" d="M188.739,425.245a34.433,34.433,0,0,1,0,6.476A34.433,34.433,0,0,1,188.739,425.245Z" transform="translate(-188.587 -425.245)" fill="#e0e0e0"/>
          </g>
          <g id="Grupo_1116103" data-name="Grupo 1116103" transform="translate(49.469 5.735)">
            <path id="Trazado_907128" data-name="Trazado 907128" d="M193.568,425.245a34.428,34.428,0,0,1,0,6.476A34.3,34.3,0,0,1,193.568,425.245Z" transform="translate(-193.415 -425.245)" fill="#e0e0e0"/>
          </g>
          <g id="Grupo_1116104" data-name="Grupo 1116104" transform="translate(52.305 5.735)">
            <path id="Trazado_907129" data-name="Trazado 907129" d="M198.4,425.245a34.446,34.446,0,0,1,0,6.476A34.29,34.29,0,0,1,198.4,425.245Z" transform="translate(-198.246 -425.245)" fill="#e0e0e0"/>
          </g>
          <g id="Grupo_1116105" data-name="Grupo 1116105" transform="translate(55.137 5.735)">
            <path id="Trazado_907130" data-name="Trazado 907130" d="M203.225,425.245a34.3,34.3,0,0,1,0,6.476A34.427,34.427,0,0,1,203.225,425.245Z" transform="translate(-203.073 -425.245)" fill="#e0e0e0"/>
          </g>
        </g>
        <path id="Trazado_907131" data-name="Trazado 907131" d="M3.738,0h58.22A3.739,3.739,0,0,1,65.7,3.739v9.63a3.739,3.739,0,0,1-3.739,3.739H3.738A3.738,3.738,0,0,1,0,13.37V3.738A3.738,3.738,0,0,1,3.738,0Z" transform="translate(0 0)" fill="#455a64"/>
        <g id="Grupo_1116107" data-name="Grupo 1116107" transform="translate(29.568 4.084)">
          <rect id="Rectángulo_405754" data-name="Rectángulo 405754" width="29.13" height="9.659" rx="0.708" fill="#fff"/>
        </g>
        <g id="Grupo_1116108" data-name="Grupo 1116108" transform="translate(10.898 4.834)">
          <circle id="Elipse_13454" data-name="Elipse 13454" cx="3.497" cy="3.497" r="3.497" transform="translate(0.584 0.582)" fill="#263238"/>
          <path id="Trazado_907132" data-name="Trazado 907132" d="M131.776,403.8a4.082,4.082,0,1,1,4.082-4.082,4.082,4.082,0,0,1-4.082,4.082Zm0-6.994a2.91,2.91,0,1,0,2.91,2.91A2.91,2.91,0,0,0,131.776,396.809Z" transform="translate(-127.694 -395.64)" fill="#e0e0e0"/>
        </g>
        <g id="Grupo_1116109" data-name="Grupo 1116109" transform="translate(32.468 5.735)">
          <path id="Trazado_907133" data-name="Trazado 907133" d="M164.6,397.177a34.3,34.3,0,0,1,0,6.476A34.43,34.43,0,0,1,164.6,397.177Z" transform="translate(-164.447 -397.177)" fill="#e0e0e0"/>
        </g>
        <g id="Grupo_1116110" data-name="Grupo 1116110" transform="translate(35.298 5.735)">
          <path id="Trazado_907134" data-name="Trazado 907134" d="M169.424,397.177a34.3,34.3,0,0,1,0,6.476,34.42,34.42,0,0,1,0-6.476Z" transform="translate(-169.272 -397.177)" fill="#e0e0e0"/>
        </g>
        <g id="Grupo_1116111" data-name="Grupo 1116111" transform="translate(38.133 5.735)">
          <path id="Trazado_907135" data-name="Trazado 907135" d="M174.253,397.177a34.43,34.43,0,0,1,0,6.476A34.3,34.3,0,0,1,174.253,397.177Z" transform="translate(-174.1 -397.177)" fill="#e0e0e0"/>
        </g>
        <g id="Grupo_1116112" data-name="Grupo 1116112" transform="translate(40.967 5.735)">
          <path id="Trazado_907136" data-name="Trazado 907136" d="M179.082,397.177a34.448,34.448,0,0,1,0,6.476,34.287,34.287,0,0,1,0-6.476Z" transform="translate(-178.929 -397.177)" fill="#e0e0e0"/>
        </g>
        <g id="Grupo_1116113" data-name="Grupo 1116113" transform="translate(43.8 5.735)">
          <path id="Trazado_907137" data-name="Trazado 907137" d="M183.91,397.177a34.3,34.3,0,0,1,0,6.476A34.43,34.43,0,0,1,183.91,397.177Z" transform="translate(-183.758 -397.177)" fill="#e0e0e0"/>
        </g>
        <g id="Grupo_1116114" data-name="Grupo 1116114" transform="translate(46.634 5.735)">
          <path id="Trazado_907138" data-name="Trazado 907138" d="M188.739,397.177a34.433,34.433,0,0,1,0,6.476A34.433,34.433,0,0,1,188.739,397.177Z" transform="translate(-188.587 -397.177)" fill="#e0e0e0"/>
        </g>
        <g id="Grupo_1116115" data-name="Grupo 1116115" transform="translate(49.469 5.735)">
          <path id="Trazado_907139" data-name="Trazado 907139" d="M193.568,397.177a34.428,34.428,0,0,1,0,6.476A34.3,34.3,0,0,1,193.568,397.177Z" transform="translate(-193.415 -397.177)" fill="#e0e0e0"/>
        </g>
        <g id="Grupo_1116116" data-name="Grupo 1116116" transform="translate(52.305 5.735)">
          <path id="Trazado_907140" data-name="Trazado 907140" d="M198.4,397.177a34.446,34.446,0,0,1,0,6.476,34.29,34.29,0,0,1,0-6.476Z" transform="translate(-198.246 -397.177)" fill="#e0e0e0"/>
        </g>
        <g id="Grupo_1116117" data-name="Grupo 1116117" transform="translate(55.137 5.735)">
          <path id="Trazado_907141" data-name="Trazado 907141" d="M203.225,397.177a34.3,34.3,0,0,1,0,6.476A34.427,34.427,0,0,1,203.225,397.177Z" transform="translate(-203.073 -397.177)" fill="#e0e0e0"/>
        </g>
        <g id="Grupo_1116129" data-name="Grupo 1116129" transform="translate(0 33.672)">
          <path id="Trazado_907142" data-name="Trazado 907142" d="M3.738,0h58.22A3.739,3.739,0,0,1,65.7,3.739v9.63a3.739,3.739,0,0,1-3.739,3.739H3.738A3.738,3.738,0,0,1,0,13.37V3.738A3.738,3.738,0,0,1,3.738,0Z" transform="translate(0 0)" fill="#aed3f2"/>
          <g id="Grupo_1116118" data-name="Grupo 1116118" transform="translate(29.568 4.084)">
            <rect id="Rectángulo_405755" data-name="Rectángulo 405755" width="29.13" height="9.66" rx="0.708" fill="#fff"/>
          </g>
          <g id="Grupo_1116119" data-name="Grupo 1116119" transform="translate(10.898 4.834)">
            <path id="Trazado_907143" data-name="Trazado 907143" d="M135.685,457.505a3.5,3.5,0,1,0-3.5,3.5,3.5,3.5,0,0,0,3.5-3.5Z" transform="translate(-128.107 -453.426)" fill="#263238"/>
            <path id="Trazado_907144" data-name="Trazado 907144" d="M131.776,461.176a4.082,4.082,0,1,1,4.082-4.082,4.082,4.082,0,0,1-4.082,4.082Zm0-6.994a2.91,2.91,0,1,0,2.91,2.91A2.91,2.91,0,0,0,131.776,454.182Z" transform="translate(-127.694 -453.013)" fill="#f5f5f5"/>
          </g>
          <g id="Grupo_1116120" data-name="Grupo 1116120" transform="translate(32.468 5.734)">
            <path id="Trazado_907145" data-name="Trazado 907145" d="M164.6,454.55a34.3,34.3,0,0,1,0,6.477A34.436,34.436,0,0,1,164.6,454.55Z" transform="translate(-164.447 -454.55)" fill="#e0e0e0"/>
          </g>
          <g id="Grupo_1116121" data-name="Grupo 1116121" transform="translate(35.298 5.734)">
            <path id="Trazado_907146" data-name="Trazado 907146" d="M169.424,454.55a34.308,34.308,0,0,1,0,6.477,34.435,34.435,0,0,1,0-6.477Z" transform="translate(-169.272 -454.55)" fill="#e0e0e0"/>
          </g>
          <g id="Grupo_1116122" data-name="Grupo 1116122" transform="translate(38.133 5.734)">
            <path id="Trazado_907147" data-name="Trazado 907147" d="M174.253,454.55a34.44,34.44,0,0,1,0,6.477,34.3,34.3,0,0,1,0-6.477Z" transform="translate(-174.1 -454.55)" fill="#e0e0e0"/>
          </g>
          <g id="Grupo_1116123" data-name="Grupo 1116123" transform="translate(40.967 5.734)">
            <path id="Trazado_907148" data-name="Trazado 907148" d="M179.082,454.55a34.444,34.444,0,0,1,0,6.477,34.3,34.3,0,0,1,0-6.477Z" transform="translate(-178.929 -454.55)" fill="#e0e0e0"/>
          </g>
          <g id="Grupo_1116124" data-name="Grupo 1116124" transform="translate(43.8 5.734)">
            <path id="Trazado_907149" data-name="Trazado 907149" d="M183.91,454.55a34.3,34.3,0,0,1,0,6.477,34.435,34.435,0,0,1,0-6.477Z" transform="translate(-183.758 -454.55)" fill="#e0e0e0"/>
          </g>
          <g id="Grupo_1116125" data-name="Grupo 1116125" transform="translate(46.634 5.734)">
            <path id="Trazado_907150" data-name="Trazado 907150" d="M188.739,454.55a34.436,34.436,0,0,1,0,6.477A34.439,34.439,0,0,1,188.739,454.55Z" transform="translate(-188.587 -454.55)" fill="#e0e0e0"/>
          </g>
          <g id="Grupo_1116126" data-name="Grupo 1116126" transform="translate(49.469 5.734)">
            <path id="Trazado_907151" data-name="Trazado 907151" d="M193.568,454.55a34.433,34.433,0,0,1,0,6.477A34.31,34.31,0,0,1,193.568,454.55Z" transform="translate(-193.415 -454.55)" fill="#e0e0e0"/>
          </g>
          <g id="Grupo_1116127" data-name="Grupo 1116127" transform="translate(52.305 5.734)">
            <path id="Trazado_907152" data-name="Trazado 907152" d="M198.4,454.55a34.446,34.446,0,0,1,0,6.477,34.3,34.3,0,0,1,0-6.477Z" transform="translate(-198.246 -454.55)" fill="#e0e0e0"/>
          </g>
          <g id="Grupo_1116128" data-name="Grupo 1116128" transform="translate(55.137 5.734)">
            <path id="Trazado_907153" data-name="Trazado 907153" d="M203.225,454.55a34.308,34.308,0,0,1,0,6.477A34.433,34.433,0,0,1,203.225,454.55Z" transform="translate(-203.073 -454.55)" fill="#e0e0e0"/>
          </g>
        </g>
      </g>
    </g>
  </g>
</svg>
