<svg xmlns="http://www.w3.org/2000/svg" width="400" height="347.544" viewBox="0 0 400 347.544">
  <g id="Grupo_1118338" data-name="Grupo 1118338" transform="translate(-180.051 -4843.457)">
    <rect id="Rectángulo_405433" data-name="Rectángulo 405433" width="400" height="257" transform="translate(180.051 4934)" fill="#feead4"/>
    <g id="forma" transform="translate(-435.98 144.759)">
      <g id="Grupo_1113993" data-name="Grupo 1113993" transform="translate(672.787 4698.699)">
        <rect id="Rectángulo_405423" data-name="Rectángulo 405423" width="160.215" height="225.569" transform="translate(147.752 11.944)" fill="#344154" opacity="0.15"/>
        <g id="Grupo_1113927" data-name="Grupo 1113927" transform="translate(229.529 240.845)">
          <path id="Trazado_904250" data-name="Trazado 904250" d="M941.371,4996.887a14.012,14.012,0,0,1,3.425-1.489l.705-3.391,5.729-.1.824,3.363a14.042,14.042,0,0,1,3.476,1.368l2.9-1.9,4.121,3.98-1.794,2.959a14,14,0,0,1,1.489,3.426l3.39.706.1,5.728-3.363.824a14.043,14.043,0,0,1-1.367,3.475l1.9,2.9-3.979,4.123-2.959-1.8a14.066,14.066,0,0,1-3.426,1.489l-.706,3.391-5.728.1-.825-3.363a14.057,14.057,0,0,1-3.475-1.367l-2.895,1.9-4.122-3.979,1.8-2.959a14.009,14.009,0,0,1-1.489-3.425l-3.39-.708-.1-5.728,3.363-.824a14.052,14.052,0,0,1,1.367-3.475l-1.9-2.9,3.98-4.123,2.96,1.8Zm3.053,7.63a6.145,6.145,0,1,0,8.69-.153,6.145,6.145,0,0,0-8.69.153Z" transform="translate(-931.599 -4991.907)" fill="#fed401"/>
        </g>
        <g id="Grupo_1113928" data-name="Grupo 1113928" transform="translate(0 279.678)">
          <path id="Trazado_904251" data-name="Trazado 904251" d="M995.874,5035.7s.339-.015,1.03-.022l3.135-.019v.082c-16.2.084-82.154.146-161.007.146l-116.809-.054c-14.942-.026-27.033-.047-35.4-.06l-9.624-.036-2.5-.019c-.564,0-.852-.018-.852-.018s.288-.014.852-.02l2.5-.019,9.624-.035,35.4-.06,116.809-.055c78.853,0,144.811.063,161.007.147v.082l-3.135-.02C996.214,5035.717,995.874,5035.7,995.874,5035.7Z" transform="translate(-673.846 -5035.516)" fill="#1a2e35"/>
        </g>
        <g id="Grupo_1113945" data-name="Grupo 1113945" transform="translate(133.581)">
          <rect id="Rectángulo_405424" data-name="Rectángulo 405424" width="161.333" height="227.641" transform="translate(0.187 0.187)" fill="#fff"/>
          <path id="Trazado_904252" data-name="Trazado 904252" d="M985.373,4949.274c0-1.514-.069-93.16-.17-227.64l.17.169-161.315.017h-.019l.188-.187c-.013,85.3-.026,164.187-.036,227.64l-.152-.151,161.333.151-161.333.152h-.151v-.152c-.01-63.453-.022-142.335-.036-227.64v-.188h.206l161.315.017h.171v.172C985.444,4856.116,985.375,4947.761,985.373,4949.274Z" transform="translate(-823.853 -4721.446)" fill="#1a2e35"/>
          <rect id="Rectángulo_405425" data-name="Rectángulo 405425" width="68.872" height="15.791" rx="6.688" transform="translate(11.055 151.327)" fill="#f5f5f5"/>
          <rect id="Rectángulo_405426" data-name="Rectángulo 405426" width="32.34" height="15.791" rx="6.688" transform="translate(44.81 151.327)" fill="#f5f5f5"/>
          <rect id="Rectángulo_405427" data-name="Rectángulo 405427" width="142.012" height="15.791" rx="6.688" transform="translate(10.73 183.695)" fill="#f5f5f5"/>
          <g id="Grupo_1113929" data-name="Grupo 1113929" transform="translate(12.943 144.787)">
            <path id="Trazado_904253" data-name="Trazado 904253" d="M868.122,4884.224c0,.1-6.657.188-14.866.188s-14.868-.083-14.868-.188,6.656-.187,14.868-.187S868.122,4884.12,868.122,4884.224Z" transform="translate(-838.388 -4884.037)" fill="#1a2e35"/>
          </g>
          <g id="Grupo_1113930" data-name="Grupo 1113930" transform="translate(13.317 176.991)">
            <path id="Trazado_904254" data-name="Trazado 904254" d="M887.036,4920.388c0,.1-10.8.188-24.113.188s-24.116-.084-24.116-.188,10.795-.187,24.116-.187S887.036,4920.284,887.036,4920.388Z" transform="translate(-838.808 -4920.201)" fill="#1a2e35"/>
          </g>
          <rect id="Rectángulo_405428" data-name="Rectángulo 405428" width="69.414" height="17.262" rx="6.508" transform="translate(8.194 115.478)" fill="#e1e1e1"/>
          <rect id="Rectángulo_405429" data-name="Rectángulo 405429" width="144.547" height="17.262" rx="6.508" transform="translate(8.194 10.525)" fill="#e1e1e1"/>
          <g id="Grupo_1113931" data-name="Grupo 1113931" transform="translate(53.97 18.969)">
            <path id="Trazado_904255" data-name="Trazado 904255" d="M941.746,4742.935c0,.1-12.825.188-28.641.188s-28.645-.084-28.645-.187,12.822-.187,28.645-.187S941.746,4742.831,941.746,4742.935Z" transform="translate(-884.46 -4742.748)" fill="#1a2e35"/>
          </g>
          <g id="Grupo_1113932" data-name="Grupo 1113932" transform="translate(0.043 31.779)">
            <path id="Trazado_904256" data-name="Trazado 904256" d="M985.379,4757.321c0,.1-36.151.188-80.735.188-44.6,0-80.742-.084-80.742-.188s36.143-.187,80.742-.187C949.228,4757.134,985.379,4757.218,985.379,4757.321Z" transform="translate(-823.901 -4757.134)" fill="#ececec"/>
          </g>
          <g id="Grupo_1113933" data-name="Grupo 1113933" transform="translate(0.043 108.143)">
            <path id="Trazado_904257" data-name="Trazado 904257" d="M985.379,4843.074c0,.1-36.151.188-80.735.188-44.6,0-80.742-.084-80.742-.188s36.143-.187,80.742-.187C949.228,4842.887,985.379,4842.97,985.379,4843.074Z" transform="translate(-823.901 -4842.887)" fill="#ececec"/>
          </g>
          <rect id="Rectángulo_405430" data-name="Rectángulo 405430" width="68.872" height="15.791" rx="6.688" transform="translate(11.055 49.272)" fill="#f5f5f5"/>
          <rect id="Rectángulo_405431" data-name="Rectángulo 405431" width="32.34" height="15.791" rx="6.688" transform="translate(44.81 49.272)" fill="#f5f5f5"/>
          <rect id="Rectángulo_405432" data-name="Rectángulo 405432" width="68.196" height="15.791" rx="6.688" transform="translate(9.412 81.64)" fill="#f5f5f5"/>
          <g id="Grupo_1113934" data-name="Grupo 1113934" transform="translate(12.943 42.732)">
            <path id="Trazado_904258" data-name="Trazado 904258" d="M868.122,4769.62c0,.1-6.657.188-14.866.188s-14.868-.085-14.868-.188,6.656-.187,14.868-.187S868.122,4769.516,868.122,4769.62Z" transform="translate(-838.388 -4769.433)" fill="#1a2e35"/>
          </g>
          <g id="Grupo_1113935" data-name="Grupo 1113935" transform="translate(89.601 42.732)">
            <path id="Trazado_904259" data-name="Trazado 904259" d="M947.884,4769.62c0,.1-5.241.188-11.7.188s-11.707-.085-11.707-.188,5.241-.187,11.707-.187S947.884,4769.516,947.884,4769.62Z" transform="translate(-924.472 -4769.433)" fill="#1a2e35"/>
          </g>
          <g id="Grupo_1113936" data-name="Grupo 1113936" transform="translate(13.317 74.935)">
            <path id="Trazado_904260" data-name="Trazado 904260" d="M887.036,4805.784c0,.1-10.8.187-24.113.187s-24.116-.084-24.116-.187,10.795-.188,24.116-.188S887.036,4805.68,887.036,4805.784Z" transform="translate(-838.808 -4805.596)" fill="#1a2e35"/>
          </g>
          <g id="Grupo_1113937" data-name="Grupo 1113937" transform="translate(100.716 208.895)">
            <path id="Trazado_904261" data-name="Trazado 904261" d="M984,4956.215c0,.1-10.531.188-23.52.188s-23.523-.083-23.523-.187,10.529-.187,23.523-.187S984,4956.113,984,4956.215Z" transform="translate(-936.954 -4956.028)" fill="#1a2e35"/>
          </g>
          <g id="Grupo_1113938" data-name="Grupo 1113938" transform="translate(83.983 47.945)">
            <path id="Trazado_904262" data-name="Trazado 904262" d="M923.338,4784.954a1.352,1.352,0,0,0-.338-.967,3.029,3.029,0,0,0-1.145-.664,13.512,13.512,0,0,1-1.394-.6,4.462,4.462,0,0,1-1-.689,2.775,2.775,0,0,1-.653-.916,3.081,3.081,0,0,1-.233-1.253,2.779,2.779,0,0,1,.8-2.053,3.379,3.379,0,0,1,2.128-.935v-1.586h1.186v1.609a3.092,3.092,0,0,1,2.053,1.092,3.6,3.6,0,0,1,.741,2.354H923.34a2.041,2.041,0,0,0-.367-1.33,1.209,1.209,0,0,0-.982-.441,1.247,1.247,0,0,0-.941.344,1.312,1.312,0,0,0-.334.953,1.258,1.258,0,0,0,.326.9,3.6,3.6,0,0,0,1.213.7,13.622,13.622,0,0,1,1.456.671,4.23,4.23,0,0,1,.964.712,2.746,2.746,0,0,1,.6.9,3.12,3.12,0,0,1,.208,1.183,2.767,2.767,0,0,1-.786,2.045,3.447,3.447,0,0,1-2.165.926v1.476h-1.179v-1.467a3.571,3.571,0,0,1-2.354-1.079,3.475,3.475,0,0,1-.834-2.435h2.143a1.97,1.97,0,0,0,.419,1.354,1.524,1.524,0,0,0,1.2.471,1.474,1.474,0,0,0,1.031-.345A1.2,1.2,0,0,0,923.338,4784.954Z" transform="translate(-918.163 -4775.287)" fill="#aed3f2"/>
            <path id="Trazado_904263" data-name="Trazado 904263" d="M937.516,4788h-2.142v-8.259l-2.558.793v-1.742l4.47-1.6h.231Z" transform="translate(-919.767 -4775.496)" fill="#aed3f2"/>
            <path id="Trazado_904264" data-name="Trazado 904264" d="M949.293,4783.523a5.465,5.465,0,0,1-.927,3.423,3.7,3.7,0,0,1-5.412.022,5.313,5.313,0,0,1-.957-3.336v-1.987a5.4,5.4,0,0,1,.938-3.433,3.711,3.711,0,0,1,5.4-.01,5.291,5.291,0,0,1,.957,3.332Zm-2.143-2.185a3.949,3.949,0,0,0-.367-1.957,1.241,1.241,0,0,0-1.145-.612,1.219,1.219,0,0,0-1.116.584,3.7,3.7,0,0,0-.382,1.822v2.626a4.152,4.152,0,0,0,.36,1.963,1.224,1.224,0,0,0,1.152.642,1.2,1.2,0,0,0,1.135-.615,4.048,4.048,0,0,0,.363-1.885Z" transform="translate(-920.773 -4775.479)" fill="#aed3f2"/>
            <path id="Trazado_904265" data-name="Trazado 904265" d="M959.075,4783.523a5.466,5.466,0,0,1-.927,3.424,3.7,3.7,0,0,1-5.411.022,5.311,5.311,0,0,1-.956-3.336v-1.987a5.4,5.4,0,0,1,.938-3.433,3.711,3.711,0,0,1,5.4-.01,5.291,5.291,0,0,1,.956,3.332Zm-2.142-2.185a3.949,3.949,0,0,0-.367-1.957,1.241,1.241,0,0,0-1.145-.612,1.219,1.219,0,0,0-1.116.584,3.7,3.7,0,0,0-.382,1.822v2.626a4.151,4.151,0,0,0,.36,1.962,1.224,1.224,0,0,0,1.152.642,1.2,1.2,0,0,0,1.135-.615,4.05,4.05,0,0,0,.363-1.885Z" transform="translate(-921.844 -4775.479)" fill="#aed3f2"/>
            <path id="Trazado_904266" data-name="Trazado 904266" d="M961.82,4788.007a1.079,1.079,0,0,1,.345-.83,1.341,1.341,0,0,1,1.735,0,1.08,1.08,0,0,1,.345.83,1.062,1.062,0,0,1-.341.819,1.362,1.362,0,0,1-1.742,0,1.066,1.066,0,0,1-.342-.82Z" transform="translate(-922.943 -4776.554)" fill="#aed3f2"/>
            <path id="Trazado_904267" data-name="Trazado 904267" d="M973.81,4783.523a5.47,5.47,0,0,1-.926,3.424,3.7,3.7,0,0,1-5.412.022,5.313,5.313,0,0,1-.956-3.336v-1.987a5.393,5.393,0,0,1,.939-3.433,3.71,3.71,0,0,1,5.4-.01,5.28,5.28,0,0,1,.956,3.333Zm-2.142-2.185a3.949,3.949,0,0,0-.367-1.957,1.24,1.24,0,0,0-1.145-.613,1.218,1.218,0,0,0-1.116.584,3.7,3.7,0,0,0-.382,1.822v2.626a4.153,4.153,0,0,0,.36,1.963,1.224,1.224,0,0,0,1.153.642,1.2,1.2,0,0,0,1.134-.615,4.05,4.05,0,0,0,.363-1.885Z" transform="translate(-923.457 -4775.479)" fill="#aed3f2"/>
            <path id="Trazado_904268" data-name="Trazado 904268" d="M982.144,4777.085v1.765h-.207a3.625,3.625,0,0,0-2.339.755,3.067,3.067,0,0,0-1.064,2.039,2.916,2.916,0,0,1,2.173-.875,2.751,2.751,0,0,1,2.239,1.008,4.044,4.044,0,0,1,.83,2.654,3.978,3.978,0,0,1-.456,1.9,3.268,3.268,0,0,1-1.289,1.326,3.751,3.751,0,0,1-1.887.476,3.5,3.5,0,0,1-2.754-1.186,4.607,4.607,0,0,1-1.049-3.167v-.771a6.927,6.927,0,0,1,.663-3.1,4.871,4.871,0,0,1,1.906-2.083,5.582,5.582,0,0,1,2.88-.745Zm-2.091,5.412a1.7,1.7,0,0,0-.941.27,1.628,1.628,0,0,0-.623.714v.65a2.886,2.886,0,0,0,.423,1.676,1.365,1.365,0,0,0,1.186.6,1.35,1.35,0,0,0,1.116-.544,2.55,2.55,0,0,0,0-2.83,1.4,1.4,0,0,0-1.161-.532Z" transform="translate(-924.533 -4775.484)" fill="#aed3f2"/>
            <path id="Trazado_904269" data-name="Trazado 904269" d="M993.374,4783.523a5.471,5.471,0,0,1-.926,3.424,3.7,3.7,0,0,1-5.412.022,5.313,5.313,0,0,1-.956-3.336v-1.987a5.393,5.393,0,0,1,.939-3.434,3.709,3.709,0,0,1,5.4-.01,5.28,5.28,0,0,1,.956,3.333Zm-2.142-2.185a3.949,3.949,0,0,0-.367-1.957,1.24,1.24,0,0,0-1.145-.613,1.218,1.218,0,0,0-1.116.584,3.7,3.7,0,0,0-.382,1.822v2.626a4.15,4.15,0,0,0,.36,1.962,1.225,1.225,0,0,0,1.153.643,1.2,1.2,0,0,0,1.134-.615,4.047,4.047,0,0,0,.363-1.885Z" transform="translate(-925.6 -4775.479)" fill="#aed3f2"/>
          </g>
          <g id="Grupo_1113939" data-name="Grupo 1113939" transform="translate(83.983 67.603)">
            <path id="Trazado_904270" data-name="Trazado 904270" d="M923.338,4807.03a1.361,1.361,0,0,0-.338-.97,3.06,3.06,0,0,0-1.145-.663,13.381,13.381,0,0,1-1.394-.6,4.478,4.478,0,0,1-1-.689,2.772,2.772,0,0,1-.653-.917,3.076,3.076,0,0,1-.233-1.251,2.785,2.785,0,0,1,.8-2.054,3.387,3.387,0,0,1,2.128-.935v-1.586h1.186v1.608a3.1,3.1,0,0,1,2.053,1.093,3.606,3.606,0,0,1,.741,2.355H923.34a2.046,2.046,0,0,0-.367-1.332,1.211,1.211,0,0,0-.982-.44,1.249,1.249,0,0,0-.941.345,1.314,1.314,0,0,0-.334.953,1.252,1.252,0,0,0,.326.9,3.574,3.574,0,0,0,1.213.7,13.511,13.511,0,0,1,1.456.67,4.189,4.189,0,0,1,.964.712,2.765,2.765,0,0,1,.6.9,3.119,3.119,0,0,1,.208,1.183,2.766,2.766,0,0,1-.786,2.045,3.448,3.448,0,0,1-2.165.927v1.475h-1.179V4810a3.566,3.566,0,0,1-2.354-1.079,3.475,3.475,0,0,1-.834-2.437h2.143a1.97,1.97,0,0,0,.419,1.353,1.524,1.524,0,0,0,1.2.471,1.472,1.472,0,0,0,1.031-.345,1.2,1.2,0,0,0,.38-.935Z" transform="translate(-918.163 -4797.362)" fill="#aed3f2"/>
            <path id="Trazado_904271" data-name="Trazado 904271" d="M939.281,4802.137a2.514,2.514,0,0,1-.393,1.394,2.851,2.851,0,0,1-1.083.971,3.128,3.128,0,0,1,1.246,1.041,2.674,2.674,0,0,1,.459,1.561,2.827,2.827,0,0,1-.979,2.272,4.665,4.665,0,0,1-5.331,0,2.82,2.82,0,0,1-.986-2.268,2.69,2.69,0,0,1,.459-1.564,3.065,3.065,0,0,1,1.238-1.037,2.809,2.809,0,0,1-1.078-.971,2.532,2.532,0,0,1-.389-1.394,2.8,2.8,0,0,1,.919-2.2,4.228,4.228,0,0,1,4.993-.008A2.788,2.788,0,0,1,939.281,4802.137Zm-1.92,4.812a1.557,1.557,0,0,0-.408-1.128,1.632,1.632,0,0,0-2.187,0,1.758,1.758,0,0,0-.007,2.244,1.673,1.673,0,0,0,2.2.013,1.545,1.545,0,0,0,.4-1.129Zm-.223-4.708a1.483,1.483,0,0,0-.334-1.012,1.357,1.357,0,0,0-1.875-.013,1.477,1.477,0,0,0-.334,1.024,1.549,1.549,0,0,0,.334,1.039,1.323,1.323,0,0,0,1.879,0,1.561,1.561,0,0,0,.331-1.039Z" transform="translate(-919.702 -4797.555)" fill="#aed3f2"/>
            <path id="Trazado_904272" data-name="Trazado 904272" d="M949.293,4805.6a5.469,5.469,0,0,1-.927,3.425,3.7,3.7,0,0,1-5.412.021,5.312,5.312,0,0,1-.957-3.334v-1.988a5.4,5.4,0,0,1,.938-3.432,3.709,3.709,0,0,1,5.4-.013,5.3,5.3,0,0,1,.957,3.333Zm-2.143-2.186a3.948,3.948,0,0,0-.367-1.955,1.241,1.241,0,0,0-1.145-.612,1.218,1.218,0,0,0-1.116.583,3.7,3.7,0,0,0-.382,1.821v2.626a4.147,4.147,0,0,0,.36,1.963,1.221,1.221,0,0,0,1.152.642,1.2,1.2,0,0,0,1.135-.616,4.041,4.041,0,0,0,.363-1.884Z" transform="translate(-920.773 -4797.555)" fill="#aed3f2"/>
            <path id="Trazado_904273" data-name="Trazado 904273" d="M959.075,4805.6a5.47,5.47,0,0,1-.927,3.425,3.7,3.7,0,0,1-5.411.021,5.312,5.312,0,0,1-.956-3.334v-1.988a5.4,5.4,0,0,1,.938-3.432,3.709,3.709,0,0,1,5.4-.013,5.3,5.3,0,0,1,.956,3.333Zm-2.142-2.186a3.948,3.948,0,0,0-.367-1.955,1.241,1.241,0,0,0-1.145-.612,1.218,1.218,0,0,0-1.116.583,3.7,3.7,0,0,0-.382,1.821v2.626a4.145,4.145,0,0,0,.36,1.962,1.221,1.221,0,0,0,1.152.643,1.2,1.2,0,0,0,1.135-.616,4.042,4.042,0,0,0,.363-1.884Z" transform="translate(-921.844 -4797.555)" fill="#aed3f2"/>
            <path id="Trazado_904274" data-name="Trazado 904274" d="M961.82,4810.083a1.079,1.079,0,0,1,.345-.832,1.341,1.341,0,0,1,1.735,0,1.077,1.077,0,0,1,.345.832,1.063,1.063,0,0,1-.341.818,1.361,1.361,0,0,1-1.742,0,1.067,1.067,0,0,1-.342-.82Z" transform="translate(-922.943 -4798.629)" fill="#aed3f2"/>
            <path id="Trazado_904275" data-name="Trazado 904275" d="M973.81,4805.6a5.473,5.473,0,0,1-.926,3.425,3.7,3.7,0,0,1-5.412.021,5.311,5.311,0,0,1-.956-3.334v-1.988a5.391,5.391,0,0,1,.939-3.432,3.71,3.71,0,0,1,5.4-.012,5.289,5.289,0,0,1,.956,3.333Zm-2.142-2.186a3.948,3.948,0,0,0-.367-1.955,1.24,1.24,0,0,0-1.145-.612,1.218,1.218,0,0,0-1.116.583,3.7,3.7,0,0,0-.382,1.822v2.626a4.148,4.148,0,0,0,.36,1.963,1.223,1.223,0,0,0,1.153.642,1.2,1.2,0,0,0,1.134-.616,4.039,4.039,0,0,0,.363-1.884Z" transform="translate(-923.457 -4797.555)" fill="#aed3f2"/>
            <path id="Trazado_904276" data-name="Trazado 904276" d="M983.592,4805.6a5.473,5.473,0,0,1-.926,3.425,3.7,3.7,0,0,1-5.412.021,5.312,5.312,0,0,1-.956-3.334v-1.988a5.39,5.39,0,0,1,.939-3.432,3.71,3.71,0,0,1,5.4-.012,5.288,5.288,0,0,1,.957,3.333Zm-2.143-2.186a3.946,3.946,0,0,0-.367-1.955,1.24,1.24,0,0,0-1.145-.612,1.22,1.22,0,0,0-1.116.583,3.7,3.7,0,0,0-.382,1.822v2.626a4.146,4.146,0,0,0,.36,1.962,1.224,1.224,0,0,0,1.153.643,1.2,1.2,0,0,0,1.134-.616,4.046,4.046,0,0,0,.363-1.884Z" transform="translate(-924.529 -4797.555)" fill="#aed3f2"/>
            <path id="Trazado_904277" data-name="Trazado 904277" d="M993.374,4805.6a5.472,5.472,0,0,1-.926,3.425,3.7,3.7,0,0,1-5.412.021,5.312,5.312,0,0,1-.956-3.334v-1.988a5.39,5.39,0,0,1,.939-3.432,3.71,3.71,0,0,1,5.4-.012,5.289,5.289,0,0,1,.956,3.333Zm-2.142-2.186a3.952,3.952,0,0,0-.367-1.956,1.24,1.24,0,0,0-1.145-.611,1.218,1.218,0,0,0-1.116.583,3.708,3.708,0,0,0-.382,1.822v2.625a4.145,4.145,0,0,0,.36,1.962,1.223,1.223,0,0,0,1.153.643,1.2,1.2,0,0,0,1.134-.616,4.041,4.041,0,0,0,.363-1.884Z" transform="translate(-925.6 -4797.555)" fill="#aed3f2"/>
          </g>
          <g id="Grupo_1113940" data-name="Grupo 1113940" transform="translate(83.983 84.894)">
            <path id="Trazado_904278" data-name="Trazado 904278" d="M923.338,4826.447a1.353,1.353,0,0,0-.338-.968,3.041,3.041,0,0,0-1.145-.663,13.616,13.616,0,0,1-1.394-.6,4.5,4.5,0,0,1-1-.689,2.772,2.772,0,0,1-.653-.916,3.08,3.08,0,0,1-.233-1.252,2.78,2.78,0,0,1,.8-2.054,3.381,3.381,0,0,1,2.128-.935v-1.587h1.186v1.609a3.089,3.089,0,0,1,2.053,1.094,3.6,3.6,0,0,1,.741,2.354H923.34a2.043,2.043,0,0,0-.367-1.33,1.207,1.207,0,0,0-.982-.442,1.249,1.249,0,0,0-.941.345,1.313,1.313,0,0,0-.334.952,1.256,1.256,0,0,0,.326.9,3.605,3.605,0,0,0,1.213.7,13.413,13.413,0,0,1,1.456.671,4.208,4.208,0,0,1,.964.712,2.742,2.742,0,0,1,.6.9,3.109,3.109,0,0,1,.208,1.183,2.768,2.768,0,0,1-.786,2.045,3.451,3.451,0,0,1-2.165.928v1.477h-1.179v-1.469a3.563,3.563,0,0,1-2.354-1.078,3.475,3.475,0,0,1-.834-2.437h2.143a1.969,1.969,0,0,0,.419,1.353,1.525,1.525,0,0,0,1.2.471,1.471,1.471,0,0,0,1.031-.344,1.2,1.2,0,0,0,.38-.936Z" transform="translate(-918.163 -4816.779)" fill="#344154"/>
            <path id="Trazado_904279" data-name="Trazado 904279" d="M937.516,4829.5h-2.142v-8.26l-2.558.793v-1.742l4.47-1.6h.231Z" transform="translate(-919.767 -4816.988)" fill="#344154"/>
            <path id="Trazado_904280" data-name="Trazado 904280" d="M949.293,4825.016a5.47,5.47,0,0,1-.927,3.425,3.7,3.7,0,0,1-5.412.021,5.314,5.314,0,0,1-.957-3.336v-1.986a5.4,5.4,0,0,1,.938-3.432,3.711,3.711,0,0,1,5.4-.011,5.3,5.3,0,0,1,.957,3.333Zm-2.143-2.185a3.95,3.95,0,0,0-.367-1.955,1.241,1.241,0,0,0-1.145-.612,1.219,1.219,0,0,0-1.116.583,3.7,3.7,0,0,0-.382,1.822v2.626a4.153,4.153,0,0,0,.36,1.963,1.222,1.222,0,0,0,1.152.64,1.2,1.2,0,0,0,1.135-.615,4.041,4.041,0,0,0,.363-1.884Z" transform="translate(-920.773 -4816.972)" fill="#344154"/>
            <path id="Trazado_904281" data-name="Trazado 904281" d="M959.075,4825.016a5.467,5.467,0,0,1-.927,3.425,3.7,3.7,0,0,1-5.411.021,5.31,5.31,0,0,1-.956-3.335v-1.987a5.4,5.4,0,0,1,.938-3.432,3.711,3.711,0,0,1,5.4-.011,5.3,5.3,0,0,1,.956,3.333Zm-2.142-2.185a3.951,3.951,0,0,0-.367-1.955,1.241,1.241,0,0,0-1.145-.612,1.219,1.219,0,0,0-1.116.583,3.7,3.7,0,0,0-.382,1.822v2.626a4.151,4.151,0,0,0,.36,1.963,1.223,1.223,0,0,0,1.152.641,1.2,1.2,0,0,0,1.135-.615,4.052,4.052,0,0,0,.363-1.886Z" transform="translate(-921.844 -4816.972)" fill="#344154"/>
            <path id="Trazado_904282" data-name="Trazado 904282" d="M961.82,4829.5a1.081,1.081,0,0,1,.345-.831,1.34,1.34,0,0,1,1.735,0,1.082,1.082,0,0,1,.345.831,1.059,1.059,0,0,1-.341.817,1.361,1.361,0,0,1-1.742,0,1.063,1.063,0,0,1-.342-.818Z" transform="translate(-922.943 -4818.046)" fill="#344154"/>
            <path id="Trazado_904283" data-name="Trazado 904283" d="M973.81,4825.016a5.472,5.472,0,0,1-.926,3.425,3.7,3.7,0,0,1-5.412.021,5.31,5.31,0,0,1-.956-3.335v-1.987a5.392,5.392,0,0,1,.939-3.432,3.71,3.71,0,0,1,5.4-.011,5.283,5.283,0,0,1,.956,3.333Zm-2.142-2.185a3.951,3.951,0,0,0-.367-1.955,1.24,1.24,0,0,0-1.145-.612,1.219,1.219,0,0,0-1.116.583,3.7,3.7,0,0,0-.382,1.822v2.626a4.154,4.154,0,0,0,.36,1.963,1.225,1.225,0,0,0,1.153.64,1.2,1.2,0,0,0,1.134-.615,4.042,4.042,0,0,0,.363-1.884Z" transform="translate(-923.457 -4816.972)" fill="#344154"/>
            <path id="Trazado_904284" data-name="Trazado 904284" d="M983.592,4825.016a5.474,5.474,0,0,1-.926,3.425,3.7,3.7,0,0,1-5.412.021,5.31,5.31,0,0,1-.956-3.335v-1.987a5.388,5.388,0,0,1,.939-3.432,3.709,3.709,0,0,1,5.4-.011,5.286,5.286,0,0,1,.957,3.333Zm-2.143-2.185a3.95,3.95,0,0,0-.367-1.955,1.239,1.239,0,0,0-1.145-.612,1.218,1.218,0,0,0-1.116.583,3.7,3.7,0,0,0-.382,1.822v2.626a4.15,4.15,0,0,0,.36,1.963,1.224,1.224,0,0,0,1.153.641,1.2,1.2,0,0,0,1.134-.615,4.05,4.05,0,0,0,.363-1.885Z" transform="translate(-924.529 -4816.972)" fill="#344154"/>
            <path id="Trazado_904285" data-name="Trazado 904285" d="M993.374,4825.016a5.472,5.472,0,0,1-.926,3.425,3.7,3.7,0,0,1-5.412.021,5.31,5.31,0,0,1-.956-3.335v-1.987a5.388,5.388,0,0,1,.939-3.432,3.71,3.71,0,0,1,5.4-.011,5.283,5.283,0,0,1,.956,3.333Zm-2.142-2.185a3.95,3.95,0,0,0-.367-1.955,1.24,1.24,0,0,0-1.145-.612,1.218,1.218,0,0,0-1.116.583,3.7,3.7,0,0,0-.382,1.822v2.626a4.15,4.15,0,0,0,.36,1.963,1.224,1.224,0,0,0,1.153.641,1.2,1.2,0,0,0,1.134-.615,4.043,4.043,0,0,0,.363-1.885Z" transform="translate(-925.6 -4816.972)" fill="#344154"/>
          </g>
          <g id="Grupo_1113941" data-name="Grupo 1113941" transform="translate(83.983 101.167)">
            <path id="Trazado_904286" data-name="Trazado 904286" d="M923.338,4844.721a1.354,1.354,0,0,0-.338-.968,3.042,3.042,0,0,0-1.145-.664,13.646,13.646,0,0,1-1.394-.6,4.437,4.437,0,0,1-1-.69,2.76,2.76,0,0,1-.653-.916,3.087,3.087,0,0,1-.233-1.252,2.784,2.784,0,0,1,.8-2.054,3.387,3.387,0,0,1,2.128-.934v-1.586h1.186v1.608a3.1,3.1,0,0,1,2.053,1.094,3.6,3.6,0,0,1,.741,2.354H923.34a2.046,2.046,0,0,0-.367-1.331,1.212,1.212,0,0,0-.982-.44,1.247,1.247,0,0,0-.941.345,1.312,1.312,0,0,0-.334.953,1.251,1.251,0,0,0,.326.9,3.6,3.6,0,0,0,1.213.7,13.3,13.3,0,0,1,1.456.671,4.212,4.212,0,0,1,.964.712,2.742,2.742,0,0,1,.6.9,3.113,3.113,0,0,1,.208,1.183,2.77,2.77,0,0,1-.786,2.046,3.449,3.449,0,0,1-2.165.926v1.476h-1.179v-1.468a3.564,3.564,0,0,1-2.354-1.079,3.473,3.473,0,0,1-.834-2.435h2.143a1.969,1.969,0,0,0,.419,1.354,1.528,1.528,0,0,0,1.2.47,1.474,1.474,0,0,0,1.031-.345A1.2,1.2,0,0,0,923.338,4844.721Z" transform="translate(-918.163 -4835.054)" fill="#aed3f2"/>
            <path id="Trazado_904287" data-name="Trazado 904287" d="M938.547,4843.708h1.224v1.727h-1.224v2.335H936.4v-2.335h-4.426l-.1-1.349,4.5-7.11h2.165Zm-4.529,0H936.4V4839.9l-.141.245Z" transform="translate(-919.665 -4835.264)" fill="#aed3f2"/>
            <path id="Trazado_904288" data-name="Trazado 904288" d="M949.293,4843.29a5.47,5.47,0,0,1-.927,3.425,3.7,3.7,0,0,1-5.412.022A5.314,5.314,0,0,1,942,4843.4v-1.987a5.394,5.394,0,0,1,.938-3.432,3.711,3.711,0,0,1,5.4-.012,5.3,5.3,0,0,1,.957,3.333Zm-2.143-2.186a3.945,3.945,0,0,0-.367-1.954,1.24,1.24,0,0,0-1.145-.613,1.219,1.219,0,0,0-1.116.583,3.7,3.7,0,0,0-.382,1.822v2.626a4.147,4.147,0,0,0,.36,1.962,1.222,1.222,0,0,0,1.152.643,1.2,1.2,0,0,0,1.135-.616,4.046,4.046,0,0,0,.363-1.884Z" transform="translate(-920.773 -4835.246)" fill="#aed3f2"/>
            <path id="Trazado_904289" data-name="Trazado 904289" d="M959.118,4838.172l-4.174,9.6h-2.261l4.181-9.066H951.5v-1.728h7.621Z" transform="translate(-921.813 -4835.264)" fill="#aed3f2"/>
            <path id="Trazado_904290" data-name="Trazado 904290" d="M961.82,4847.774a1.078,1.078,0,0,1,.345-.83,1.339,1.339,0,0,1,1.735,0,1.08,1.08,0,0,1,.345.831,1.064,1.064,0,0,1-.341.818,1.362,1.362,0,0,1-1.742,0,1.067,1.067,0,0,1-.342-.819Z" transform="translate(-922.943 -4836.321)" fill="#aed3f2"/>
            <path id="Trazado_904291" data-name="Trazado 904291" d="M973.81,4843.29a5.474,5.474,0,0,1-.926,3.425,3.7,3.7,0,0,1-5.412.021,5.313,5.313,0,0,1-.956-3.337v-1.986a5.39,5.39,0,0,1,.939-3.433,3.71,3.71,0,0,1,5.4-.011,5.284,5.284,0,0,1,.956,3.333Zm-2.142-2.186a3.945,3.945,0,0,0-.367-1.954,1.238,1.238,0,0,0-1.145-.613,1.218,1.218,0,0,0-1.116.583,3.7,3.7,0,0,0-.382,1.822v2.626a4.148,4.148,0,0,0,.36,1.962,1.223,1.223,0,0,0,1.153.643,1.2,1.2,0,0,0,1.134-.616,4.04,4.04,0,0,0,.363-1.883Z" transform="translate(-923.457 -4835.246)" fill="#aed3f2"/>
            <path id="Trazado_904292" data-name="Trazado 904292" d="M983.592,4843.29a5.472,5.472,0,0,1-.926,3.425,3.7,3.7,0,0,1-5.412.022,5.312,5.312,0,0,1-.956-3.337v-1.986a5.387,5.387,0,0,1,.939-3.432,3.709,3.709,0,0,1,5.4-.012,5.285,5.285,0,0,1,.957,3.333Zm-2.143-2.186a3.944,3.944,0,0,0-.367-1.954,1.238,1.238,0,0,0-1.145-.613,1.217,1.217,0,0,0-1.116.584,3.7,3.7,0,0,0-.382,1.821v2.626a4.145,4.145,0,0,0,.36,1.962,1.223,1.223,0,0,0,1.153.643,1.2,1.2,0,0,0,1.134-.616,4.05,4.05,0,0,0,.363-1.884Z" transform="translate(-924.529 -4835.246)" fill="#aed3f2"/>
            <path id="Trazado_904293" data-name="Trazado 904293" d="M993.374,4843.29a5.474,5.474,0,0,1-.926,3.425,3.7,3.7,0,0,1-5.412.021,5.313,5.313,0,0,1-.956-3.337v-1.986a5.386,5.386,0,0,1,.939-3.432,3.71,3.71,0,0,1,5.4-.012,5.285,5.285,0,0,1,.956,3.333Zm-2.142-2.186a3.946,3.946,0,0,0-.367-1.954,1.238,1.238,0,0,0-1.145-.613,1.217,1.217,0,0,0-1.116.584,3.7,3.7,0,0,0-.382,1.821v2.626a4.145,4.145,0,0,0,.36,1.962,1.223,1.223,0,0,0,1.153.643,1.2,1.2,0,0,0,1.134-.616,4.04,4.04,0,0,0,.363-1.883Z" transform="translate(-925.6 -4835.246)" fill="#aed3f2"/>
          </g>
          <g id="Grupo_1113942" data-name="Grupo 1113942" transform="translate(17.358 52.985)">
            <path id="Trazado_904294" data-name="Trazado 904294" d="M895.334,4786.789a8.336,8.336,0,0,1-1.115.28,13.19,13.19,0,0,1-8.311-1.19,4.789,4.789,0,0,1-1.278-.966,3.048,3.048,0,0,1-.768-1.535,2.272,2.272,0,0,1,.37-1.786,1.734,1.734,0,0,1,1.819-.579,1.313,1.313,0,0,1,.8.674,1.685,1.685,0,0,1,.135,1.05,3.782,3.782,0,0,1-1,1.848,9.035,9.035,0,0,1-3.612,2.467,8.71,8.71,0,0,1-4.664.422,5.213,5.213,0,0,1-2.281-1,2.711,2.711,0,0,1-1.109-2.307,2.528,2.528,0,0,1,.5-1.255,1.966,1.966,0,0,1,1.134-.793,1.412,1.412,0,0,1,1.346.444,2.011,2.011,0,0,1,.483,1.331,2.725,2.725,0,0,1-.331,1.371,3.088,3.088,0,0,1-.978,1.025,8.9,8.9,0,0,1-2.576,1.034,11.34,11.34,0,0,1-5.6.6,5.278,5.278,0,0,1-2.577-1.4,3.7,3.7,0,0,1-1.117-2.754,2.44,2.44,0,0,1,.78-1.748,1.787,1.787,0,0,1,1.9-.2,1.466,1.466,0,0,1,.718.7,1.5,1.5,0,0,1,.085.995,2.833,2.833,0,0,1-1.124,1.482,14.574,14.574,0,0,1-6.479,2.461,6.543,6.543,0,0,1-3.374-.3,3.4,3.4,0,0,1-2.074-2.543,2.318,2.318,0,0,1,1.716-2.588,1.606,1.606,0,0,1,1.536.552,2.448,2.448,0,0,1,.54,1.5,2.985,2.985,0,0,1-.329,1.517,3.552,3.552,0,0,1-1.022,1.118,7.855,7.855,0,0,1-2.641,1.107,8.856,8.856,0,0,1-5.27.189,4.535,4.535,0,0,1-2-1.458,3.25,3.25,0,0,1-.71-2.218,3.11,3.11,0,0,1,.962-1.956,2.117,2.117,0,0,1,1.921-.575l.078.021v.076a5.568,5.568,0,0,1-1.411,3.828,5.827,5.827,0,0,1-2.522,1.719,4.794,4.794,0,0,1-1.89.242,5.5,5.5,0,0,1-.647-.123,4.993,4.993,0,0,0,2.5-.225,5.784,5.784,0,0,0,2.436-1.72,5.411,5.411,0,0,0,1.325-3.711l.08.1a1.9,1.9,0,0,0-1.715.537,2.881,2.881,0,0,0-.873,1.808,3.624,3.624,0,0,0,2.564,3.4,8.6,8.6,0,0,0,5.1-.226,7.6,7.6,0,0,0,2.532-1.067,3.268,3.268,0,0,0,.924-1.016,2.652,2.652,0,0,0,.286-1.347,2.132,2.132,0,0,0-.464-1.293,1.269,1.269,0,0,0-1.217-.437,1.978,1.978,0,0,0-1.435,2.208,3.052,3.052,0,0,0,1.867,2.263,6.229,6.229,0,0,0,3.191.264,14.224,14.224,0,0,0,6.3-2.4,2.489,2.489,0,0,0,.986-1.274,1.068,1.068,0,0,0-.6-1.267,1.418,1.418,0,0,0-1.5.15,2.066,2.066,0,0,0-.648,1.482,3.321,3.321,0,0,0,1.01,2.472,4.916,4.916,0,0,0,2.394,1.3,11.028,11.028,0,0,0,5.416-.586,8.566,8.566,0,0,0,2.474-.981,2.738,2.738,0,0,0,.866-.9,2.381,2.381,0,0,0,.289-1.188,1.666,1.666,0,0,0-.387-1.1,1.056,1.056,0,0,0-1.011-.339,2.018,2.018,0,0,0-1.362,1.739,2.381,2.381,0,0,0,.98,2.008,4.893,4.893,0,0,0,2.13.942,8.409,8.409,0,0,0,4.493-.392,8.752,8.752,0,0,0,3.5-2.37,3.5,3.5,0,0,0,.938-1.7,1.188,1.188,0,0,0-.74-1.425,1.479,1.479,0,0,0-1.543.48,2.036,2.036,0,0,0-.334,1.588,3.449,3.449,0,0,0,1.913,2.359,13.078,13.078,0,0,0,4.932,1.416,13.867,13.867,0,0,0,3.265-.116c.369-.061.652-.112.84-.154a1.683,1.683,0,0,1,.29-.065Z" transform="translate(-843.345 -4780.946)" fill="#d9a171"/>
          </g>
          <g id="Grupo_1113943" data-name="Grupo 1113943" transform="translate(95.369 52.466)">
            <path id="Trazado_904295" data-name="Trazado 904295" d="M975.347,4785.868a4.841,4.841,0,0,1-.9.45,8.284,8.284,0,0,1-2.833.6,8.7,8.7,0,0,1-4.448-1.04,5.542,5.542,0,0,1-2.166-1.9,2.576,2.576,0,0,1-.388-1.563,2.183,2.183,0,0,1,.835-1.484,1.408,1.408,0,0,1,.876-.29,1.348,1.348,0,0,1,.874.371,2.136,2.136,0,0,1,.583,1.774,3.134,3.134,0,0,1-.9,1.711,7.478,7.478,0,0,1-1.575,1.2,9.372,9.372,0,0,1-3.932,1.257,7.512,7.512,0,0,1-4.3-.8,4.207,4.207,0,0,1-1.667-1.613,3.134,3.134,0,0,1-.381-1.147,2.776,2.776,0,0,1,.176-1.217,2.822,2.822,0,0,1,1.714-1.729,1.643,1.643,0,0,1,1.294.129,2,2,0,0,1,.867.968,2.991,2.991,0,0,1-.1,2.521,5.223,5.223,0,0,1-1.714,1.886,9.4,9.4,0,0,1-4.831,1.67,9.589,9.589,0,0,1-5-1.075,7.511,7.511,0,0,1-2.033-1.514,3.439,3.439,0,0,1-1.009-2.313,2.28,2.28,0,0,1,1.386-2.052,1.4,1.4,0,0,1,1.292.154,1.889,1.889,0,0,1,.714,1.051,2.716,2.716,0,0,1-.485,2.329,7.207,7.207,0,0,1-1.657,1.6,10.129,10.129,0,0,1-8.131,1.739,5.488,5.488,0,0,1-3.3-1.976,3.052,3.052,0,0,1-.611-1.75,3.32,3.32,0,0,1,.434-1.722,2.19,2.19,0,0,1,1.33-1.06,1.884,1.884,0,0,1,1.573.352,2.892,2.892,0,0,1,1.062,2.639,3.554,3.554,0,0,1-1.272,2.154,4.775,4.775,0,0,1-1.88.956,9.269,9.269,0,0,1-2.892.181l-.75-.066a1.251,1.251,0,0,1-.255-.039,1.329,1.329,0,0,1,.257,0l.751.028a9.682,9.682,0,0,0,2.85-.246,4.654,4.654,0,0,0,1.8-.949,3.38,3.38,0,0,0,1.18-2.047,2.676,2.676,0,0,0-1-2.419,1.64,1.64,0,0,0-1.371-.3,1.935,1.935,0,0,0-1.16.946,2.9,2.9,0,0,0,.183,3.171,5.2,5.2,0,0,0,3.132,1.841,9.828,9.828,0,0,0,7.859-1.713A6.934,6.934,0,0,0,947,4784a2.358,2.358,0,0,0,.431-2.029,1.535,1.535,0,0,0-.574-.852,1.031,1.031,0,0,0-.964-.11,1.924,1.924,0,0,0-1.144,1.715,3.08,3.08,0,0,0,.915,2.056,7.187,7.187,0,0,0,1.934,1.437,9.249,9.249,0,0,0,4.8,1.03,9.033,9.033,0,0,0,4.636-1.6,4.843,4.843,0,0,0,1.6-1.745,2.62,2.62,0,0,0,.093-2.208,1.437,1.437,0,0,0-1.721-.9,2.481,2.481,0,0,0-1.484,1.51,2.438,2.438,0,0,0-.159,1.055,2.817,2.817,0,0,0,.338,1.013,3.865,3.865,0,0,0,1.528,1.481,7.186,7.186,0,0,0,4.1.775,9.091,9.091,0,0,0,3.8-1.2,7.2,7.2,0,0,0,1.516-1.142,2.844,2.844,0,0,0,.833-1.541,1.858,1.858,0,0,0-.486-1.535,1.062,1.062,0,0,0-1.4-.07,1.939,1.939,0,0,0-.742,1.3,2.339,2.339,0,0,0,.344,1.413,5.338,5.338,0,0,0,2.061,1.84,8.688,8.688,0,0,0,7.154.559C975.037,4786.025,975.336,4785.844,975.347,4785.868Z" transform="translate(-930.949 -4780.364)" fill="#d9a171"/>
          </g>
          <g id="Grupo_1113944" data-name="Grupo 1113944" transform="translate(15.92 85.973)">
            <path id="Trazado_904296" data-name="Trazado 904296" d="M898.661,4821.781a1.768,1.768,0,0,1-.276.14l-.826.375c-.729.323-1.808.794-3.228,1.329a26.213,26.213,0,0,1-5.341,1.421,20.524,20.524,0,0,1-3.453.208,11.7,11.7,0,0,1-3.843-.581,4.572,4.572,0,0,1-2.92-3.041,2.97,2.97,0,0,1,.283-2.3,2.6,2.6,0,0,1,1.989-1.341,2.2,2.2,0,0,1,2.067,1.335,3.4,3.4,0,0,1,.182,2.561,5.009,5.009,0,0,1-1.508,2.163,9.837,9.837,0,0,1-2.261,1.458,7.747,7.747,0,0,1-5.465.639,5.54,5.54,0,0,1-3.8-4.185,4.556,4.556,0,0,1-.01-1.523,2.928,2.928,0,0,1,.619-1.426,1.938,1.938,0,0,1,1.386-.8,1.4,1.4,0,0,1,1.329.93,3.721,3.721,0,0,1-.531,3.059,9.244,9.244,0,0,1-2.018,2.392,8.513,8.513,0,0,1-11.281-.173,4.807,4.807,0,0,1-1.461-2.575,2.949,2.949,0,0,1,.1-1.5,3.027,3.027,0,0,1,.843-1.229,2.5,2.5,0,0,1,1.341-.631,1.779,1.779,0,0,1,1.417.443,2.739,2.739,0,0,1,.644,2.7,5.034,5.034,0,0,1-1.493,2.262,12.138,12.138,0,0,1-6.794,3.162,10.559,10.559,0,0,1-4.619-.415,5.155,5.155,0,0,1-1.9-1.139,3.557,3.557,0,0,1-1.03-1.859,3.243,3.243,0,0,1,.187-2.021,2,2,0,0,1,1.512-1.178,2.263,2.263,0,0,1,1.756.481,1.665,1.665,0,0,1,.558,1.6,2.514,2.514,0,0,1-.831,1.358,5.292,5.292,0,0,1-1.219.81,14.1,14.1,0,0,1-2.364.9,13.4,13.4,0,0,1-3.454.514,8.873,8.873,0,0,1-1.216-.053,1.979,1.979,0,0,1,.309-.005c.2,0,.508,0,.9-.018a14.192,14.192,0,0,0,5.741-1.5,5.112,5.112,0,0,0,1.167-.791,2.336,2.336,0,0,0,.757-1.255,1.443,1.443,0,0,0-.5-1.393,2.036,2.036,0,0,0-1.575-.417,1.747,1.747,0,0,0-1.32,1.048,2.979,2.979,0,0,0-.157,1.857,3.924,3.924,0,0,0,2.768,2.781,10.284,10.284,0,0,0,4.486.377,11.837,11.837,0,0,0,6.6-3.1,4.715,4.715,0,0,0,1.392-2.106,2.4,2.4,0,0,0-.546-2.346,1.7,1.7,0,0,0-2.287.2,2.658,2.658,0,0,0-.739,1.079,2.585,2.585,0,0,0-.079,1.316,4.458,4.458,0,0,0,1.36,2.373,8.149,8.149,0,0,0,10.784.151,8.888,8.888,0,0,0,1.936-2.293,4.282,4.282,0,0,0,.551-1.349,2.526,2.526,0,0,0-.044-1.387,1.02,1.02,0,0,0-.971-.691,1.574,1.574,0,0,0-1.109.66,3.338,3.338,0,0,0-.536,2.651,5.182,5.182,0,0,0,3.537,3.909,7.413,7.413,0,0,0,5.216-.608,6.548,6.548,0,0,0,3.6-3.414,3.067,3.067,0,0,0-.157-2.312,1.885,1.885,0,0,0-1.76-1.167,2.3,2.3,0,0,0-1.75,1.183,2.671,2.671,0,0,0-.262,2.072,4.3,4.3,0,0,0,2.734,2.864,11.515,11.515,0,0,0,3.755.59,20.63,20.63,0,0,0,3.419-.179,26.8,26.8,0,0,0,5.32-1.351c1.423-.511,2.509-.961,3.249-1.261l.841-.34a2.031,2.031,0,0,1,.3-.1Z" transform="translate(-841.731 -4817.991)" fill="#d9a171"/>
          </g>
        </g>
        <g id="Grupo_1113992" data-name="Grupo 1113992" transform="translate(4.582 85.957)">
          <g id="Grupo_1113962" data-name="Grupo 1113962" transform="translate(43.143)">
            <g id="Grupo_1113958" data-name="Grupo 1113958" transform="translate(0 10.035)">
              <g id="Grupo_1113947" data-name="Grupo 1113947" transform="translate(10.31)">
                <path id="Trazado_904297" data-name="Trazado 904297" d="M739.838,4784.785l-.815,65.586c-.139,11.154,1.937,27.566,19.58,26.98h0c15.27-1.662,19.321-16.117,19.441-26.526.056-4.937.113-9.054.152-9.561,0,0,16.716-1.363,18.127-17.874.681-7.978.748-24.526.634-39.5a30.864,30.864,0,0,0-28.626-30.53l-1.595-.118C749.471,4752.994,739.611,4767.518,739.838,4784.785Z" transform="translate(-739.017 -4753.242)" fill="#ffbf9d"/>
                <g id="Grupo_1113946" data-name="Grupo 1113946" transform="translate(18.128 80.09)">
                  <path id="Trazado_904298" data-name="Trazado 904298" d="M780.425,4851.114a40.041,40.041,0,0,1-21.051-7.933s4.367,12.453,20.965,12.168Z" transform="translate(-759.374 -4843.181)" fill="#ff9a6c"/>
                </g>
              </g>
              <g id="Grupo_1113952" data-name="Grupo 1113952" transform="translate(28.549 24.941)">
                <g id="Grupo_1113950" data-name="Grupo 1113950" transform="translate(1.32 9.555)">
                  <path id="Trazado_904299" data-name="Trazado 904299" d="M771.135,4794.9c-.328.334-2.234-1.2-5-1.275-2.762-.116-4.832,1.283-5.122.927-.143-.159.2-.77,1.1-1.4a6.928,6.928,0,0,1,4.113-1.167,6.675,6.675,0,0,1,3.968,1.445C771.026,4794.122,771.3,4794.751,771.135,4794.9Z" transform="translate(-760.981 -4791.98)" fill="#1a2e35"/>
                  <g id="Grupo_1113948" data-name="Grupo 1113948" transform="translate(5.599 6.46)">
                    <path id="Trazado_904300" data-name="Trazado 904300" d="M771.741,4801.417a2.238,2.238,0,0,1-2.317,2.094,2.142,2.142,0,0,1-2.154-2.181,2.24,2.24,0,0,1,2.315-2.1,2.142,2.142,0,0,1,2.156,2.188Z" transform="translate(-767.268 -4799.234)" fill="#1a2e35"/>
                  </g>
                  <g id="Grupo_1113949" data-name="Grupo 1113949" transform="translate(17.084 0.919)">
                    <path id="Trazado_904301" data-name="Trazado 904301" d="M780.165,4814.256c0-.146,1.6-.3,4.179-.443.654-.02,1.276-.1,1.418-.538a3.308,3.308,0,0,0-.292-1.954q-.743-2.42-1.557-5.078c-2.15-7.225-3.656-13.146-3.363-13.23s2.271,5.7,4.42,12.929l1.475,5.1a3.77,3.77,0,0,1,.15,2.57,1.631,1.631,0,0,1-1.135.871,4.408,4.408,0,0,1-1.113.073C781.762,4814.5,780.164,4814.4,780.165,4814.256Z" transform="translate(-780.165 -4793.012)" fill="#1a2e35"/>
                  </g>
                </g>
                <path id="Trazado_904302" data-name="Trazado 904302" d="M769.8,4783.326c-.268.613-2.482.151-5.134.288-2.655.08-4.832.72-5.139.131-.135-.282.277-.848,1.178-1.4a8.679,8.679,0,0,1,7.826-.319C769.464,4782.5,769.913,4783.034,769.8,4783.326Z" transform="translate(-759.499 -4781.25)" fill="#1a2e35"/>
                <g id="Grupo_1113951" data-name="Grupo 1113951" transform="translate(26.421 5.055)">
                  <path id="Trazado_904303" data-name="Trazado 904303" d="M799.316,4789.073c-.29.5-2.449-.055-5.064-.136-2.616-.128-4.787.255-5.063-.269-.121-.249.31-.7,1.222-1.1a9.152,9.152,0,0,1,3.869-.64,9.438,9.438,0,0,1,3.847.949C799.026,4788.352,799.444,4788.834,799.316,4789.073Z" transform="translate(-789.168 -4786.927)" fill="#1a2e35"/>
                </g>
              </g>
              <g id="Grupo_1113953" data-name="Grupo 1113953" transform="translate(0 43.06)">
                <path id="Trazado_904304" data-name="Trazado 904304" d="M739.026,4802.414c-.273-.143-11.109-4.187-11.573,7.136s11,9.454,11.033,9.131S739.026,4802.414,739.026,4802.414Z" transform="translate(-727.44 -4801.597)" fill="#ffbf9d"/>
              </g>
              <g id="Grupo_1113954" data-name="Grupo 1113954" transform="translate(2.875 46.664)">
                <path id="Trazado_904305" data-name="Trazado 904305" d="M735.557,4814.692c-.049-.039-.2.13-.542.269a1.972,1.972,0,0,1-1.476-.028c-1.178-.489-2.108-2.431-2.079-4.474a6.525,6.525,0,0,1,.668-2.8,2.282,2.282,0,0,1,1.547-1.454,1,1,0,0,1,1.142.588c.139.323.058.546.117.568.031.03.251-.179.179-.652a1.261,1.261,0,0,0-.417-.728,1.5,1.5,0,0,0-1.078-.333,2.774,2.774,0,0,0-2.133,1.671,6.706,6.706,0,0,0-.814,3.128c-.021,2.286,1.06,4.468,2.678,5.009a2.114,2.114,0,0,0,1.816-.226C735.525,4814.965,735.6,4814.715,735.557,4814.692Z" transform="translate(-730.669 -4805.645)" fill="#ff9a6c"/>
              </g>
              <g id="Grupo_1113955" data-name="Grupo 1113955" transform="translate(38.287 57.208)">
                <path id="Trazado_904306" data-name="Trazado 904306" d="M776.428,4824.776c.124-.286-2.1-.95-3.655-3.031a12.72,12.72,0,0,1-1.567-2.957c-.33-.823-.581-1.339-.7-1.3s-.087.593.094,1.487a8.368,8.368,0,0,0,1.458,3.312,6.759,6.759,0,0,0,2.892,2.214C775.813,4824.852,776.4,4824.874,776.428,4824.776Z" transform="translate(-770.435 -4817.485)" fill="#1a2e35"/>
              </g>
              <g id="Grupo_1113956" data-name="Grupo 1113956" transform="translate(55.086 35.538)">
                <path id="Trazado_904307" data-name="Trazado 904307" d="M799.454,4796.071c-.329.334-2.234-1.2-5-1.275-2.762-.116-4.832,1.282-5.122.927-.143-.159.2-.77,1.1-1.4a6.926,6.926,0,0,1,4.112-1.167,6.678,6.678,0,0,1,3.969,1.445C799.345,4795.292,799.615,4795.922,799.454,4796.071Z" transform="translate(-789.299 -4793.15)" fill="#1a2e35"/>
              </g>
              <g id="Grupo_1113957" data-name="Grupo 1113957" transform="translate(60.315 41.759)">
                <path id="Trazado_904308" data-name="Trazado 904308" d="M799.643,4802.319a2.239,2.239,0,0,1-2.317,2.1,2.14,2.14,0,0,1-2.153-2.181,2.241,2.241,0,0,1,2.315-2.1,2.144,2.144,0,0,1,2.155,2.181Z" transform="translate(-795.171 -4800.136)" fill="#1a2e35"/>
              </g>
            </g>
            <g id="Grupo_1113959" data-name="Grupo 1113959" transform="translate(0.922)">
              <path id="Trazado_904309" data-name="Trazado 904309" d="M807.321,4760.734a8.933,8.933,0,0,0-11.144-3.526,12.229,12.229,0,0,0-21.067-10.56,5,5,0,0,0-2.435-3.352,9.86,9.86,0,0,0-4.065-1.211,19.438,19.438,0,0,0-17.758,7.743,21.158,21.158,0,0,0-17.93,6.542c-5.32,5.892-6.323,19.548-.5,31.344l1.371,7.4c1.827,0,3.5.125,4.625,1.138,1.531,1.376,2.215,3.965,4.758,2.982,1.295-.5,2.476-3.215,2.909-4.534a64.433,64.433,0,0,0,2.79-27.276,20.7,20.7,0,0,1,6.4-4.615l-.2.175c4.614-1.6,9.834-3.179,14.211-1.012,3.4,1.68,5.392,5.2,7.931,8.017a25.928,25.928,0,0,0,18.476,8.534c.244,4.648-.146,11.22.1,15.869l3.911-7.447v.037c.321-.545.585-1.094.842-1.646l.087-.167v-.026c.715-.581,1.258-1.646,2.467-3.03a9.752,9.752,0,0,0,1.6-9.98,8.937,8.937,0,0,0,2.621-11.4Z" transform="translate(-728.474 -4741.973)" fill="#1a2e35"/>
              <path id="Trazado_904310" data-name="Trazado 904310" d="M811.029,4787.526l-.015-.013h0Z" transform="translate(-737.513 -4746.96)" fill="#1a2e35"/>
            </g>
            <g id="Grupo_1113960" data-name="Grupo 1113960" transform="translate(53.675 18.931)">
              <path id="Trazado_904311" data-name="Trazado 904311" d="M807.039,4763.232a.746.746,0,0,1,.083.244,3.33,3.33,0,0,1,.1.732,4.916,4.916,0,0,1-.659,2.653,5.057,5.057,0,0,1-1.265,1.465,4.521,4.521,0,0,1-2.063.879,5.109,5.109,0,0,1-4.721-1.776l.281-.242a3.12,3.12,0,0,1,.8,2.22,4.1,4.1,0,0,1-1.266,2.854,4.63,4.63,0,0,1-2.678,1.14,7.2,7.2,0,0,1-4.655-1.28,15.2,15.2,0,0,1-2.488-2.115,6.334,6.334,0,0,1-.793-.894,8.49,8.49,0,0,1,.894.789,17.588,17.588,0,0,0,2.53,2,7.023,7.023,0,0,0,4.476,1.162,4.293,4.293,0,0,0,2.463-1.062,3.762,3.762,0,0,0,1.143-2.595,2.762,2.762,0,0,0-.694-1.959l.281-.241a4.806,4.806,0,0,0,4.38,1.683,4.432,4.432,0,0,0,3.167-2.146,5.008,5.008,0,0,0,.737-2.527C807.1,4763.582,807.005,4763.24,807.039,4763.232Z" transform="translate(-787.715 -4763.232)" fill="#375a64"/>
            </g>
            <g id="Grupo_1113961" data-name="Grupo 1113961" transform="translate(47.798 6.52)">
              <path id="Trazado_904312" data-name="Trazado 904312" d="M792.147,4749.3c.006-.011.09.027.243.108a5.043,5.043,0,0,1,.631.426,5.507,5.507,0,0,1,1.708,2.219,4.342,4.342,0,0,1-.389,4.08,3.346,3.346,0,0,1-2.063,1.417,3.4,3.4,0,0,1-2.639-.513,2.928,2.928,0,0,1-.628-.624l.324-.185a3.169,3.169,0,0,1-.085,2.545,3.478,3.478,0,0,1-1.647,1.688,4.588,4.588,0,0,1-3.858-.008,6.144,6.144,0,0,1-2.078-1.566,2.984,2.984,0,0,1-.551-.771c.024-.018.227.25.654.675a6.563,6.563,0,0,0,2.078,1.428,4.368,4.368,0,0,0,3.6-.059,3.163,3.163,0,0,0,1.468-1.536,2.818,2.818,0,0,0,.071-2.246l-.6-1.39.922,1.207a2.609,2.609,0,0,0,.542.538,3.054,3.054,0,0,0,2.344.456,3.007,3.007,0,0,0,1.856-1.253,4.1,4.1,0,0,0,.426-3.786,5.72,5.72,0,0,0-1.555-2.2C792.446,4749.509,792.129,4749.326,792.147,4749.3Z" transform="translate(-781.115 -4749.294)" fill="#375a64"/>
            </g>
          </g>
          <g id="Grupo_1113991" data-name="Grupo 1113991" transform="translate(0 87.344)">
            <g id="Grupo_1113971" data-name="Grupo 1113971" transform="translate(169.074)">
              <g id="Grupo_1113963" data-name="Grupo 1113963" transform="translate(1.536)">
                <path id="Trazado_904313" data-name="Trazado 904313" d="M898.039,4841.795l-26.127,19.951a3.383,3.383,0,0,0-.5,4.908h0a3.383,3.383,0,0,0,4.631.454l25.912-20.136,3.506-6.913Z" transform="translate(-870.581 -4840.058)" fill="#d9a171"/>
                <path id="Trazado_904314" data-name="Trazado 904314" d="M905.45,4840.939l1.853,2.158-2,3.971a1.59,1.59,0,0,1-1.742-1.808,1.4,1.4,0,0,1-1.581-1.814s-1.359-.121-.592-1.555Z" transform="translate(-873.929 -4840.154)" fill="#fff" opacity="0.5"/>
                <path id="Trazado_904315" data-name="Trazado 904315" d="M872.075,4864.261l4.288,5.239,1.439-1.119-4.112-5.354Z" transform="translate(-870.745 -4842.573)" fill="#1a2e35"/>
              </g>
              <g id="Grupo_1113964" data-name="Grupo 1113964" transform="translate(0 3.38)">
                <path id="Trazado_904316" data-name="Trazado 904316" d="M869.8,4912.177l-.94-.169,19.24-33.648-3.042-9.7s-3.527-13.815-.588-17.342c0,0,6.429-7.568,8.515-7.464s3.754.522,4.171,2.085c0,0,3.546-.416,4.484.731a18.072,18.072,0,0,1,1.669,2.5s3.859-.313,4.9,3.023c0,0,3.65,1.877,3.963,4.588s-.73,15.331-1.877,18.563-5.423,10.01-6.674,20.022-5.662,16.51-9.582,31.142l-10.649,4.211Z" transform="translate(-868.856 -4843.853)" fill="#ffbf9d"/>
              </g>
              <g id="Grupo_1113965" data-name="Grupo 1113965" transform="translate(24.462 5.244)">
                <path id="Trazado_904317" data-name="Trazado 904317" d="M899.986,4845.956a11.419,11.419,0,0,0-3.617,5.755,6.532,6.532,0,0,1,3.617-5.754Z" transform="translate(-896.326 -4845.947)" fill="#ff9a6c"/>
              </g>
              <g id="Grupo_1113966" data-name="Grupo 1113966" transform="translate(30.57 8.683)">
                <path id="Trazado_904318" data-name="Trazado 904318" d="M906.865,4849.82a11.173,11.173,0,0,0-3.647,5.186,6.05,6.05,0,0,1,3.647-5.186Z" transform="translate(-903.185 -4849.809)" fill="#ff9a6c"/>
              </g>
              <g id="Grupo_1113967" data-name="Grupo 1113967" transform="translate(35.906 11.61)">
                <path id="Trazado_904319" data-name="Trazado 904319" d="M912.426,4853.1c.082.1-.877.939-1.756,2.21s-1.347,2.452-1.47,2.411a6.792,6.792,0,0,1,3.226-4.621Z" transform="translate(-909.177 -4853.096)" fill="#ff9a6c"/>
              </g>
              <g id="Grupo_1113968" data-name="Grupo 1113968" transform="translate(16.868 11.917)">
                <path id="Trazado_904320" data-name="Trazado 904320" d="M892.009,4854.248a4.611,4.611,0,0,0-4.205.286c-.038-.037.1-.271.452-.532a3.161,3.161,0,0,1,3.233-.218C891.871,4853.993,892.042,4854.206,892.009,4854.248Z" transform="translate(-887.798 -4853.44)" fill="#ff9a6c"/>
              </g>
              <g id="Grupo_1113969" data-name="Grupo 1113969" transform="translate(24.911 14.51)">
                <path id="Trazado_904321" data-name="Trazado 904321" d="M900.673,4859.367a5.593,5.593,0,0,0-3.843-2.932c0-.051.3-.122.781-.059a3.834,3.834,0,0,1,2.914,2.221C900.713,4859.049,900.725,4859.354,900.673,4859.367Z" transform="translate(-896.83 -4856.352)" fill="#ff9a6c"/>
              </g>
              <g id="Grupo_1113970" data-name="Grupo 1113970" transform="translate(31.345 17.349)">
                <path id="Trazado_904322" data-name="Trazado 904322" d="M909.087,4861.344a6.265,6.265,0,0,0-5.031-1.362c-.019-.05.255-.225.762-.346a4.3,4.3,0,0,1,3.786,1.024C908.981,4861.021,909.129,4861.31,909.087,4861.344Z" transform="translate(-904.055 -4859.54)" fill="#ff9a6c"/>
              </g>
            </g>
            <g id="Grupo_1113985" data-name="Grupo 1113985" transform="translate(0 8.186)">
              <g id="Grupo_1113972" data-name="Grupo 1113972" transform="translate(0 47.667)">
                <path id="Trazado_904323" data-name="Trazado 904323" d="M690.239,4902.78s-11.8,67-11.227,73.268,3.707,16.232,10.824,17.94a31.312,31.312,0,0,0,13.667,0l-8.544-82.3Z" transform="translate(-678.992 -4902.78)" fill="#d9a171"/>
              </g>
              <g id="Grupo_1113973" data-name="Grupo 1113973" transform="translate(11.098)">
                <path id="Trazado_904324" data-name="Trazado 904324" d="M726.145,4862.358s-14.118,10.036-17.239,12.987c-13.052,12.344-15.783,17.4-17.3,21.572s9.062,101.185,9.062,101.185l2.143,16.949h0l99.094.255h0v-86.6l-14.888-60.942-9.161-2.607L776,4857.9s-11.382-8.4-30.156-8.646c-5.776-.075-13.945,2.194-18.509,5.735h0Z" transform="translate(-691.455 -4849.25)" fill="#d9a171"/>
              </g>
              <g id="Grupo_1113974" data-name="Grupo 1113974" transform="translate(87.386 18.466)">
                <path id="Trazado_904325" data-name="Trazado 904325" d="M785.312,4870.292s10.184-.458,11.083-.251c3.139.724,11.759,8.626,21.577,18.364,9.366,9.29,27.8,28.618,27.8,28.618s3.313-3.345,7.089,1.119l14.549-21.163s21.837,2.683,25.271,19.165c0,0-6.693,12.778-12.175,21.916,0,0-20.3,33.678-36.325,27.579-14.643-5.57-33-20.468-35.589-23.65l-21.558-15.383s-14.765-28.156-8.242-42.235Z" transform="translate(-777.123 -4869.987)" fill="#d9a171"/>
              </g>
              <g id="Grupo_1113975" data-name="Grupo 1113975" transform="translate(45.789 11.237)">
                <path id="Trazado_904326" data-name="Trazado 904326" d="M782.12,4866.545a2.515,2.515,0,0,1-.523-.107l-1.47-.388c-1.279-.324-3.136-.771-5.454-1.209a152,152,0,0,0-18.289-2.253,125.036,125.036,0,0,0-18.42.054c-2.349.2-4.237.5-5.534.73l-1.491.295a2.472,2.472,0,0,1-.528.075,2.4,2.4,0,0,1,.507-.161c.383-.1.873-.223,1.478-.375a48.52,48.52,0,0,1,5.537-.871,113.125,113.125,0,0,1,18.478-.185,134.915,134.915,0,0,1,18.322,2.388c2.318.478,4.171.972,5.439,1.348l1.452.468A2.438,2.438,0,0,1,782.12,4866.545Z" transform="translate(-730.411 -4861.87)" fill="#1a2e35"/>
              </g>
              <g id="Grupo_1113976" data-name="Grupo 1113976" transform="translate(57.818 3.402)">
                <path id="Trazado_904327" data-name="Trazado 904327" d="M745,4860.54a32.576,32.576,0,0,1-1.037-7.469A32.694,32.694,0,0,1,745,4860.54Z" transform="translate(-743.92 -4853.071)" fill="#1a2e35"/>
              </g>
              <g id="Grupo_1113977" data-name="Grupo 1113977" transform="translate(61.693 3.055)">
                <path id="Trazado_904328" data-name="Trazado 904328" d="M749.177,4860.18a11.822,11.822,0,0,1-.52-7.5c.129.019-.066,1.7.084,3.761S749.3,4860.144,749.177,4860.18Z" transform="translate(-748.271 -4852.681)" fill="#1a2e35"/>
              </g>
              <g id="Grupo_1113978" data-name="Grupo 1113978" transform="translate(46.116 11.519)" opacity="0.3">
                <path id="Trazado_904329" data-name="Trazado 904329" d="M730.778,4863.689c15.508,2.745,31.228.025,47.64,1.967-15.847-3.279-32.35-4.835-47.64-1.967" transform="translate(-730.778 -4862.186)"/>
              </g>
              <g id="Grupo_1113979" data-name="Grupo 1113979" transform="translate(11.616 73.299)" opacity="0.3">
                <path id="Trazado_904330" data-name="Trazado 904330" d="M699.321,4997.267c-8.723-20.429-7.69-43.521-6.508-65.7Z" transform="translate(-692.036 -4931.563)"/>
              </g>
              <g id="Grupo_1113980" data-name="Grupo 1113980" transform="translate(11.242 62.275)">
                <path id="Trazado_904331" data-name="Trazado 904331" d="M691.621,4919.184a1.177,1.177,0,0,1,.046.257c.023.2.053.445.092.76.074.7.177,1.678.31,2.924.255,2.571.618,6.24,1.065,10.761.886,9.088,2.1,21.645,3.54,35.5s2.891,26.391,4.047,35.448c.569,4.529,1.059,8.191,1.4,10.721.165,1.242.293,2.219.386,2.915.036.314.066.564.089.759a1.094,1.094,0,0,1,.015.262,1.177,1.177,0,0,1-.06-.255l-.132-.753c-.111-.692-.268-1.665-.467-2.9-.4-2.523-.932-6.179-1.541-10.705-1.235-9.049-2.729-21.579-4.176-35.443s-2.606-26.42-3.413-35.516c-.389-4.527-.705-8.2-.927-10.775-.1-1.25-.174-2.231-.228-2.932-.02-.316-.036-.568-.048-.764a1.146,1.146,0,0,1,0-.263Z" transform="translate(-691.616 -4919.184)" fill="#1a2e35"/>
              </g>
              <g id="Grupo_1113981" data-name="Grupo 1113981" transform="translate(16.18 51.123)">
                <path id="Trazado_904332" data-name="Trazado 904332" d="M759.318,4906.85a3.4,3.4,0,0,1-.638.035l-1.83.012c-1.589-.007-3.888.017-6.726.083-5.677.127-13.517.544-22.121,1.563s-16.326,2.464-21.874,3.673c-2.775.6-5.015,1.118-6.557,1.5l-1.782.417a3.718,3.718,0,0,1-.629.117,3.525,3.525,0,0,1,.606-.2l1.761-.5c1.531-.43,3.762-.994,6.533-1.634a207.067,207.067,0,0,1,44.057-5.243c2.843-.027,5.144,0,6.733.056l1.83.069a3.616,3.616,0,0,1,.637.052Z" transform="translate(-697.161 -4906.66)" fill="#1a2e35"/>
              </g>
              <g id="Grupo_1113982" data-name="Grupo 1113982" transform="translate(40.251 31.579)">
                <path id="Trazado_904333" data-name="Trazado 904333" d="M724.225,4926.142c-.121,0,.107-9.283.508-20.722s.825-20.712.946-20.708-.107,9.281-.509,20.724S724.345,4926.146,724.225,4926.142Z" transform="translate(-724.192 -4884.712)" fill="#1a2e35"/>
              </g>
              <g id="Grupo_1113983" data-name="Grupo 1113983" transform="translate(79.786 17.244)">
                <path id="Trazado_904334" data-name="Trazado 904334" d="M779.73,4923.233a4.109,4.109,0,0,1-.372-.582c-.247-.426-.578-.993-.993-1.708l-3.656-6.28a54.511,54.511,0,0,1-4.586-9.772,32.03,32.03,0,0,1-1.368-6.248,37.65,37.65,0,0,1-.02-6.865,36.453,36.453,0,0,1,3.272-12.792,21.07,21.07,0,0,1,3.225-4.812,18.3,18.3,0,0,1,3.875-3.235,14.761,14.761,0,0,1,6.875-2.3,9.693,9.693,0,0,1,2.664.148,24.5,24.5,0,0,0-2.651.022,14.99,14.99,0,0,0-6.723,2.395,18.261,18.261,0,0,0-3.769,3.216,20.96,20.96,0,0,0-3.134,4.748,36.6,36.6,0,0,0-3.2,12.654,37.758,37.758,0,0,0,.011,6.778,32.059,32.059,0,0,0,1.325,6.168,56.153,56.153,0,0,0,4.472,9.747l3.535,6.349q.578,1.1.922,1.749A4,4,0,0,1,779.73,4923.233Z" transform="translate(-768.588 -4868.615)" fill="#1a2e35"/>
              </g>
              <g id="Grupo_1113984" data-name="Grupo 1113984" transform="translate(17.412 51.508)" opacity="0.3">
                <path id="Trazado_904335" data-name="Trazado 904335" d="M698.916,4914.244a118.094,118.094,0,0,0,18.621-2.457,28.4,28.4,0,0,0-1.043,8.331,19.115,19.115,0,0,0,4.14-7.62,11.532,11.532,0,0,0,4.7,7.709,25.191,25.191,0,0,0,.419-8.489q13.9-1.673,27.613-4.569a187.264,187.264,0,0,0-54.818,6.824" transform="translate(-698.545 -4907.093)"/>
              </g>
            </g>
            <g id="Grupo_1113986" data-name="Grupo 1113986" transform="translate(97.771 83.842)">
              <path id="Trazado_904336" data-name="Trazado 904336" d="M827.927,4963.4a2.543,2.543,0,0,1-.427-.255l-1.184-.79c-1.024-.691-2.5-1.71-4.3-2.979-3.617-2.538-8.576-6.1-13.982-10.133s-10.237-7.769-13.7-10.513c-1.733-1.37-3.128-2.49-4.082-3.274l-1.1-.909a2.4,2.4,0,0,1-.366-.337,2.6,2.6,0,0,1,.413.277l1.138.854,4.155,3.18c3.506,2.688,8.359,6.391,13.764,10.421s10.335,7.625,13.911,10.219c1.761,1.278,3.2,2.322,4.233,3.075l1.143.847a2.34,2.34,0,0,1,.384.317Z" transform="translate(-788.784 -4934.209)" fill="#1a2e35"/>
            </g>
            <g id="Grupo_1113987" data-name="Grupo 1113987" transform="translate(155.461 72.808)">
              <path id="Trazado_904337" data-name="Trazado 904337" d="M859.208,4939.954c-.065,0-.023-1.088-.15-2.829a29.664,29.664,0,0,0-4.006-12.891c-.883-1.506-1.533-2.376-1.48-2.416a3,3,0,0,1,.508.573,19.138,19.138,0,0,1,1.2,1.705,26.358,26.358,0,0,1,4.045,13.015,18.851,18.851,0,0,1-.021,2.083A3.013,3.013,0,0,1,859.208,4939.954Z" transform="translate(-853.569 -4921.818)" fill="#1a2e35"/>
            </g>
            <g id="Grupo_1113988" data-name="Grupo 1113988" transform="translate(163.84 74.436)">
              <path id="Trazado_904338" data-name="Trazado 904338" d="M864.7,4938.526c-.06-.01.078-.851.182-2.216a27.7,27.7,0,0,0-1.214-10.545c-.411-1.305-.736-2.093-.68-2.118a1.845,1.845,0,0,1,.3.522,15.513,15.513,0,0,1,.632,1.51,23.189,23.189,0,0,1,1.226,10.655,15.58,15.58,0,0,1-.273,1.613,1.856,1.856,0,0,1-.173.578Z" transform="translate(-862.978 -4923.647)" fill="#1a2e35"/>
            </g>
            <g id="Grupo_1113989" data-name="Grupo 1113989" transform="translate(174.458 59.151)">
              <path id="Trazado_904339" data-name="Trazado 904339" d="M899.808,4927.379a.438.438,0,0,0-.167-.271.873.873,0,0,1-.292-.317c-.085-.149-.139-.336-.242-.51-.192-.359-.671-.64-1.018-1.172a7.625,7.625,0,0,1-.868-1.9,12.667,12.667,0,0,0-2.47-4.662,20.638,20.638,0,0,0-2.226-2.219,23.488,23.488,0,0,0-2.685-2.051,21.938,21.938,0,0,0-2.873-1.783l-2.85-1.4c-.911-.429-1.755-.875-2.583-1.23l-2.3-.982a10.192,10.192,0,0,1-1-.457c-.305-.184-.56-.381-.818-.524l-.747-.4c-.235-.125-.425-.287-.6-.4-.354-.22-.668-.343-.867-.451a.964.964,0,0,1-.3-.181,1.474,1.474,0,0,1,.325.113,7.048,7.048,0,0,1,.912.4,9.828,9.828,0,0,0,1.369.732c.278.144.545.337.836.5s.646.273.992.423l2.316.937c.831.341,1.7.782,2.617,1.207l2.86,1.376a21.573,21.573,0,0,1,2.916,1.8,23,23,0,0,1,2.72,2.088,20.228,20.228,0,0,1,2.249,2.273,12.612,12.612,0,0,1,2.457,4.8,7.724,7.724,0,0,0,.791,1.867c.3.5.766.8.971,1.218.1.2.146.388.215.53a.846.846,0,0,0,.243.312C899.876,4927.227,899.812,4927.392,899.808,4927.379Z" transform="translate(-874.902 -4906.482)" fill="#1a2e35"/>
            </g>
            <g id="Grupo_1113990" data-name="Grupo 1113990" transform="translate(106.834 91.214)">
              <path id="Trazado_904340" data-name="Trazado 904340" d="M799.15,5023.839c-.1,0-.188-18.212-.188-40.673s.084-40.677.188-40.677.187,18.208.187,40.677S799.253,5023.839,799.15,5023.839Z" transform="translate(-798.962 -4942.489)" fill="#1a2e35"/>
            </g>
          </g>
        </g>
      </g>
    </g>
  </g>
</svg>
