<svg xmlns="http://www.w3.org/2000/svg" xmlns:xlink="http://www.w3.org/1999/xlink" width="113" height="113" viewBox="0 0 113 113">
  <defs>
    <filter id="Trazado_896985" x="0" y="0" width="113" height="113" filterUnits="userSpaceOnUse">
      <feOffset dy="3" input="SourceAlpha"/>
      <feGaussianBlur stdDeviation="3" result="blur"/>
      <feFlood flood-opacity="0.161"/>
      <feComposite operator="in" in2="blur"/>
      <feComposite in="SourceGraphic"/>
    </filter>
  </defs>
  <g id="Grupo_1117991" data-name="Grupo 1117991" transform="translate(5631 6083)">
    <g id="Grupo_1117974" data-name="Grupo 1117974" transform="translate(-6642.051 -11608)">
      <g id="Grupo_1117971" data-name="Grupo 1117971" transform="translate(515 3362)">
        <g id="Grupo_1113419" data-name="Grupo 1113419" transform="translate(170.16 -1683)">
          <g id="Grupo_1111318" data-name="Grupo 1111318" transform="translate(-5.891)">
            <g id="Grupo_1109826" data-name="Grupo 1109826" transform="translate(340.781 3852)">
              <g id="Grupo_1098742" data-name="Grupo 1098742">
                <g transform="matrix(1, 0, 0, 1, -9, -6)" filter="url(#Trazado_896985)">
                  <g id="Trazado_896985-2" data-name="Trazado 896985" transform="translate(9 6)" fill="#e2dacc" opacity="0.859">
                    <path d="M 47.49993515014648 93.5 C 41.28932189941406 93.5 35.26528167724609 92.28397369384766 29.59514808654785 89.88571929931641 C 24.1176815032959 87.56894683837891 19.1981086730957 84.25197601318359 14.97306823730469 80.02693176269531 C 10.74802875518799 75.80189514160156 7.431055068969727 70.88231658935547 5.11428165435791 65.40485382080078 C 2.716028451919556 59.73471832275391 1.500001788139343 53.71067810058594 1.500001788139343 47.50006484985352 C 1.500001788139343 41.28932189941406 2.716028451919556 35.26528167724609 5.11428165435791 29.59514617919922 C 7.431055068969727 24.11767959594727 10.74802875518799 19.19810676574707 14.97306823730469 14.97306632995605 C 19.1981086730957 10.74802684783936 24.1176815032959 7.431053161621094 29.59514808654785 5.114280223846436 C 35.26528167724609 2.716026782989502 41.28932189941406 1.5 47.49993515014648 1.5 C 53.71054840087891 1.5 59.73458862304688 2.716026782989502 65.40472412109375 5.114280223846436 C 70.88218688964844 7.431053161621094 75.80176544189453 10.74802684783936 80.02680206298828 14.97306632995605 C 84.25183868408203 19.19810676574707 87.56881713867188 24.11767959594727 89.88558959960938 29.59514617919922 C 92.28384399414062 35.26528167724609 93.49987030029297 41.28932189941406 93.49987030029297 47.49993515014648 C 93.49987030029297 53.71067810058594 92.28384399414062 59.73471832275391 89.88558959960938 65.40485382080078 C 87.56881713867188 70.88231658935547 84.25183868408203 75.80189514160156 80.02680206298828 80.02693176269531 C 75.80176544189453 84.25197601318359 70.88218688964844 87.56894683837891 65.40472412109375 89.88571929931641 C 59.73458862304688 92.28397369384766 53.71054840087891 93.5 47.49993515014648 93.5 Z" stroke="none"/>
                    <path d="M 47.49993515014648 3 C 41.49116516113281 3 35.66371917724609 4.176155090332031 30.17947387695312 6.495796203613281 C 24.88081359863281 8.7369384765625 20.12149047851562 11.94596862792969 16.03372192382812 16.03372192382812 C 11.94596862792969 20.12149047851562 8.7369384765625 24.88081359863281 6.495796203613281 30.17947387695312 C 4.1761474609375 35.66372299194336 3 41.49116897583008 3 47.50006103515625 C 3 53.50883102416992 4.1761474609375 59.33627700805664 6.495796203613281 64.82052612304688 C 8.7369384765625 70.11918640136719 11.94596862792969 74.87850952148438 16.03372192382812 78.96627807617188 C 20.12149047851562 83.05403137207031 24.88081359863281 86.2630615234375 30.17947387695312 88.50419616699219 C 35.66371917724609 90.82384490966797 41.49116516113281 92 47.49993515014648 92 C 53.50870513916016 92 59.33615112304688 90.82384490966797 64.82039642333984 88.50419616699219 C 70.11905670166016 86.2630615234375 74.87837982177734 83.05403137207031 78.96614837646484 78.96627807617188 C 83.05390167236328 74.87850952148438 86.26293182373047 70.11918640136719 88.50407409667969 64.82052612304688 C 90.82372283935547 59.33627700805664 91.99987030029297 53.50883102416992 91.99987030029297 47.49993896484375 C 91.99987030029297 41.49116897583008 90.82372283935547 35.66372299194336 88.50407409667969 30.17947387695312 C 86.26293182373047 24.88081359863281 83.05390167236328 20.12149047851562 78.96614837646484 16.03372192382812 C 74.87837982177734 11.94596862792969 70.11905670166016 8.7369384765625 64.82039642333984 6.495796203613281 C 59.33615112304688 4.176155090332031 53.50870513916016 3 47.49993515014648 3 M 47.49993515014648 0 C 73.73342895507812 0 94.99987030029297 21.26644897460938 94.99987030029297 47.49993896484375 L 94.99987030029297 47.50006103515625 C 94.99987030029297 73.73355102539062 73.73342895507812 95 47.49993515014648 95 C 21.26644134521484 95 0 73.73355102539062 0 47.50006103515625 L 0 47.49993896484375 C 0 21.26644897460938 21.26644134521484 0 47.49993515014648 0 Z" stroke="none" fill="#fff"/>
                  </g>
                </g>
                <g id="Rectángulo_400907" data-name="Rectángulo 400907" transform="translate(0 0)" fill="none" stroke="#fff" stroke-width="3">
                  <rect width="95" height="95" rx="47.5" stroke="none"/>
                  <rect x="1.5" y="1.5" width="92" height="92" rx="46" fill="none"/>
                </g>
              </g>
            </g>
          </g>
        </g>
      </g>
    </g>
    <g id="beneficio" transform="translate(-5608 -6060)">
      <g id="Grupo_1117989" data-name="Grupo 1117989">
        <g id="Grupo_1117975" data-name="Grupo 1117975">
          <path id="Trazado_910493" data-name="Trazado 910493" d="M33.18,44.18,35,56l-3,4-3-4,1.82-11.82L32,43Z" fill="#e6e9ed"/>
        </g>
        <g id="Grupo_1117976" data-name="Grupo 1117976">
          <path id="Trazado_910494" data-name="Trazado 910494" d="M50,33,48.43,47.93a15.041,15.041,0,0,0-10.55-9.56L37,48l-3.82-3.82L35,56l-3,4-3-4,1.82-11.82L27,48l-.88-9.63a15.041,15.041,0,0,0-10.55,9.56L14,33H8.08l.69,17.92A6.322,6.322,0,0,0,20.75,53.5L22,51V62H42V51l1.25,2.5a6.274,6.274,0,0,0,2.33,2.56,6.335,6.335,0,0,0,9.65-5.14L55.92,33Z" fill="#b4dd7f"/>
        </g>
        <g id="Grupo_1117977" data-name="Grupo 1117977">
          <path id="Trazado_910495" data-name="Trazado 910495" d="M37.88,38.37,37,48l-3.82-3.82L32,43l4-5,.97.18C37.28,38.24,37.58,38.3,37.88,38.37Z" fill="#a0d468"/>
        </g>
        <g id="Grupo_1117978" data-name="Grupo 1117978">
          <path id="Trazado_910496" data-name="Trazado 910496" d="M28,38l4,5-1.18,1.18L27,48l-.88-9.63c.3-.07.6-.13.91-.19Z" fill="#a0d468"/>
        </g>
        <g id="Grupo_1117979" data-name="Grupo 1117979">
          <path id="Trazado_910497" data-name="Trazado 910497" d="M12,18,8,14,4,18v7H16V14Z" fill="#ff826e"/>
        </g>
        <g id="Grupo_1117980" data-name="Grupo 1117980">
          <path id="Trazado_910498" data-name="Trazado 910498" d="M52,2a10,10,0,1,1-8.06,15.93v-.01A8.722,8.722,0,0,0,44,16.9a8.885,8.885,0,0,0-1.98-5.6A10.007,10.007,0,0,1,52,2Z" fill="#fcd770"/>
        </g>
        <g id="Grupo_1117981" data-name="Grupo 1117981">
          <path id="Trazado_910499" data-name="Trazado 910499" d="M42.02,11.3A8.885,8.885,0,0,1,44,16.9a8.722,8.722,0,0,1-.06,1.02v.01a9.052,9.052,0,0,1-.88,2.95L42,23l-.06.16A2.653,2.653,0,0,0,41,23H40V22a2.006,2.006,0,0,0-2-2h-.34A13.659,13.659,0,0,1,28,16l-3.41,3.41A2.006,2.006,0,0,0,24,20.83V23H23a2.653,2.653,0,0,0-.94.16L22,23l-1.4-2.8a5.748,5.748,0,0,1-.6-2.54,5.688,5.688,0,0,1,4.57-5.57L25,12a10.041,10.041,0,0,1,8-4h2.1a8.885,8.885,0,0,1,6.92,3.3Z" fill="#656d78"/>
        </g>
        <g id="Grupo_1117982" data-name="Grupo 1117982">
          <path id="Trazado_910500" data-name="Trazado 910500" d="M8.08,33H8a3.995,3.995,0,0,1-4-4h8a2.006,2.006,0,0,1,2,2v2Z" fill="#f0d0b4"/>
        </g>
        <g id="Grupo_1117983" data-name="Grupo 1117983">
          <path id="Trazado_910501" data-name="Trazado 910501" d="M35.22,34.88,36,38l-4,5-4-5,.78-3.12A6.082,6.082,0,0,0,30,35h4A6.083,6.083,0,0,0,35.22,34.88Z" fill="#f0d0b4"/>
        </g>
        <g id="Grupo_1117984" data-name="Grupo 1117984">
          <path id="Trazado_910502" data-name="Trazado 910502" d="M55.92,33H50V31a2.006,2.006,0,0,1,2-2h8a3.995,3.995,0,0,1-4,4Z" fill="#f0d0b4"/>
        </g>
        <g id="Grupo_1117985" data-name="Grupo 1117985">
          <path id="Trazado_910503" data-name="Trazado 910503" d="M41.94,23.16A3,3,0,0,1,41,29H40V23h1a2.653,2.653,0,0,1,.94.16Z" fill="#f0d0b4"/>
        </g>
        <g id="Grupo_1117986" data-name="Grupo 1117986">
          <path id="Trazado_910504" data-name="Trazado 910504" d="M40,23v6a6.015,6.015,0,0,1-4.78,5.88A6.082,6.082,0,0,1,34,35H30a6.083,6.083,0,0,1-1.22-.12A6.015,6.015,0,0,1,24,29V20.83a2.006,2.006,0,0,1,.59-1.42L28,16a13.659,13.659,0,0,0,9.66,4H38a2.006,2.006,0,0,1,2,2Z" fill="#f0d0b4"/>
        </g>
        <g id="Grupo_1117987" data-name="Grupo 1117987">
          <path id="Trazado_910505" data-name="Trazado 910505" d="M36,27l-.27,1.09a3.846,3.846,0,0,1-7.46,0L28,27Z" fill="#ff826e"/>
        </g>
        <g id="Grupo_1117988" data-name="Grupo 1117988">
          <path id="Trazado_910506" data-name="Trazado 910506" d="M24,23v6H23a2.995,2.995,0,0,1-.94-5.84A2.653,2.653,0,0,1,23,23Z" fill="#f0d0b4"/>
        </g>
      </g>
      <g id="Grupo_1117990" data-name="Grupo 1117990">
        <path id="Trazado_910507" data-name="Trazado 910507" d="M53,15H51a1,1,0,0,1-1-1H48a3,3,0,0,0,3,3v2h2V17a3,3,0,0,0,0-6H51a1,1,0,0,1,0-2h2a1,1,0,0,1,1,1h2a3,3,0,0,0-3-3V5H51V7a3,3,0,0,0,0,6h2a1,1,0,0,1,0,2Z"/>
        <path id="Trazado_910508" data-name="Trazado 910508" d="M49,31v1.947L47.8,44.379a16.045,16.045,0,0,0-10.651-7.187l-.332-.06-.393-1.572a7.009,7.009,0,0,0,4.5-5.56H41a4,4,0,0,0,2.264-7.292l.691-1.382a9.914,9.914,0,0,0,.531-1.32,10.985,10.985,0,1,0-3.13-10.771A9.853,9.853,0,0,0,35.1,7H33a11.059,11.059,0,0,0-8.561,4.092l-.068.014a6.681,6.681,0,0,0-4.665,9.541l1.03,2.061A4.023,4.023,0,0,0,19.556,24H17V14.414l3.707-3.707L19.293,9.293,12,16.586l-4-4L1.293,19.293l1.414,1.414L3,20.414V24H1v2H19a4,4,0,0,0,4,4h.08a7.011,7.011,0,0,0,4.5,5.56l-.393,1.572-.332.06A16.047,16.047,0,0,0,16.2,44.379L15,32.947V31a3,3,0,0,0-3-3H3v1a5,5,0,0,0,4.111,4.91l.655,17.044A7.321,7.321,0,0,0,21,54.989V63H43V54.989a7.321,7.321,0,0,0,13.233-4.035l.656-17.044A5,5,0,0,0,61,29V28H52a3,3,0,0,0-3,3ZM15,24H13V18.414l2-2ZM9,16.414l2,2V24H9Zm-4,2,2-2V24H5ZM36.8,39.162l-.6,6.621L33.34,42.926l3.068-3.835.38.069.011,0ZM33.948,55.736,32,58.333l-1.948-2.6,1.7-11.079L32,44.414l.243.243ZM41,28V24a2,2,0,0,1,0,4ZM52,3a9,9,0,1,1-7.04,14.585c.016-.229.04-.457.04-.686a9.833,9.833,0,0,0-1.939-5.86A9.016,9.016,0,0,1,52,3ZM21.5,19.752a4.681,4.681,0,0,1,3.269-6.685l.807-.161L25.8,12.6A9.044,9.044,0,0,1,33,9h2.1a7.9,7.9,0,0,1,7.065,11.431l-.8,1.6C41.242,22.026,41.124,22,41,22a3,3,0,0,0-3-3h-.343a12.573,12.573,0,0,1-8.95-3.707L28,14.586l-4.121,4.121A2.978,2.978,0,0,0,23,20.829V22c-.124,0-.242.026-.363.037ZM21,26a2,2,0,0,1,2-2v4A2,2,0,0,1,21,26Zm4,3V20.829a1,1,0,0,1,.293-.708l2.73-2.73A14.554,14.554,0,0,0,37.657,21H38a1,1,0,0,1,1,1v7a5.006,5.006,0,0,1-5,5H30a5.006,5.006,0,0,1-5-5Zm5,7h4c.156,0,.309-.013.463-.023l.447,1.786L32,41.4l-2.91-3.637.447-1.786C29.691,35.987,29.844,36,30,36Zm-2.408,3.091,3.068,3.835L27.8,45.783l-.6-6.621.012,0ZM5.171,30H12a1,1,0,0,1,1,1v1H8a3.006,3.006,0,0,1-2.829-2ZM21,48v2.764l-1.146,2.291A5.328,5.328,0,0,1,9.765,50.877L9.116,34H13.1l1.906,18.1L17,51.9l-.4-3.833a14.038,14.038,0,0,1,8.648-8.388L26.2,50.216l3.168-3.168-1.418,9.215L31.5,61H23V48Zm27.911,8a5.3,5.3,0,0,1-4.765-2.945L43,50.764V48H41V61H32.5l3.552-4.736-1.418-9.215L37.8,50.217l.958-10.542a14.043,14.043,0,0,1,8.648,8.388l-.4,3.832,1.989.209L50.9,34h3.984l-.649,16.877A5.311,5.311,0,0,1,48.911,56ZM56,32H51V31a1,1,0,0,1,1-1h6.829A3.006,3.006,0,0,1,56,32Z"/>
        <circle id="Elipse_13498" data-name="Elipse 13498" cx="1" cy="1" r="1" transform="translate(27 22)"/>
        <circle id="Elipse_13499" data-name="Elipse 13499" cx="1" cy="1" r="1" transform="translate(35 22)"/>
        <path id="Trazado_910509" data-name="Trazado 910509" d="M36.7,28.332,37.281,26H26.719l.583,2.332a4.843,4.843,0,0,0,9.4,0ZM29.286,28h5.429a2.842,2.842,0,0,1-5.429,0Z"/>
      </g>
    </g>
  </g>
</svg>
