<svg xmlns="http://www.w3.org/2000/svg" width="505" height="397" viewBox="0 0 505 397">
  <g id="Grupo_1118355" data-name="Grupo 1118355" transform="translate(-915 -654)">
    <g id="Grupo_1117719" data-name="Grupo 1117719" transform="translate(915 654)">
      <rect id="Rectángulo_405611" data-name="Rectángulo 405611" width="505" height="397" fill="#feead4"/>
    </g>
    <g id="acuerdo" transform="translate(-57 -5852.074)">
      <g id="Grupo_1117744" data-name="Grupo 1117744" transform="translate(1020 6561.075)">
        <g id="Grupo_1117742" data-name="Grupo 1117742">
          <g id="Grupo_1117720" data-name="Grupo 1117720">
            <rect id="Rectángulo_406324" data-name="Rectángulo 406324" width="405.374" height="0.203" transform="translate(0 265.439)" fill="#aed3f2"/>
            <rect id="Rectángulo_406325" data-name="Rectángulo 406325" width="15.218" height="0.203" transform="translate(364.537 272.59)" fill="#aed3f2"/>
            <rect id="Rectángulo_406326" data-name="Rectángulo 406326" width="7.045" height="0.203" transform="translate(302.465 278.152)" fill="#aed3f2"/>
            <rect id="Rectángulo_406327" data-name="Rectángulo 406327" width="15.697" height="0.203" transform="translate(226.978 275.355)" fill="#aed3f2"/>
            <rect id="Rectángulo_406328" data-name="Rectángulo 406328" width="35.017" height="0.203" transform="translate(65.613 275.25)" fill="#aed3f2"/>
            <rect id="Rectángulo_406329" data-name="Rectángulo 406329" width="5.133" height="0.203" transform="translate(53.266 275.25)" fill="#aed3f2"/>
            <rect id="Rectángulo_406330" data-name="Rectángulo 406330" width="75.951" height="0.203" transform="translate(153.474 270.449)" fill="#aed3f2"/>
            <path id="Trazado_909171" data-name="Trazado 909171" d="M5672.3,3070.547H5515.745a4.635,4.635,0,0,1-4.629-4.629V2845.856a4.637,4.637,0,0,1,4.629-4.589H5672.3a4.629,4.629,0,0,1,4.612,4.589v220.062a4.629,4.629,0,0,1-4.614,4.629Zm-156.555-229.111a4.436,4.436,0,0,0-4.428,4.427v220.055a4.434,4.434,0,0,0,4.428,4.426H5672.3a4.435,4.435,0,0,0,4.427-4.427V2845.856a4.434,4.434,0,0,0-4.426-4.427Z" transform="translate(-5304.778 -2841.268)" fill="#aed3f2"/>
            <path id="Trazado_909172" data-name="Trazado 909172" d="M5404.414,2973.139l24.93-107.311H5444.1l-24.931,107.311Z" transform="translate(-5284.585 -2845.917)" fill="#fff" stroke="#5e6178" stroke-miterlimit="10" stroke-width="0"/>
            <path id="Trazado_909173" data-name="Trazado 909173" d="M5516.275,3002.732v-81.294H5504s-24.859,47.879-27.744,81.294Z" transform="translate(-5298.18 -2856.44)" fill="#e0e0e0"/>
            <rect id="Rectángulo_406331" data-name="Rectángulo 406331" width="26.941" height="104.376" transform="translate(187.445 161.063)" fill="#fafafa"/>
            <path id="Trazado_909174" data-name="Trazado 909174" d="M5510.413,3165.853h7.191V3153.8h-14.732Z" transform="translate(-5303.219 -2900.413)" fill="#f4f8ff"/>
            <rect id="Rectángulo_406332" data-name="Rectángulo 406332" width="26.941" height="104.376" transform="translate(58.553 161.063)" fill="#e0e0e0"/>
            <rect id="Rectángulo_406333" data-name="Rectángulo 406333" width="135.168" height="100.225" transform="translate(79.218 161.063)" fill="#fafafa"/>
            <path id="Trazado_909175" data-name="Trazado 909175" d="M5404.414,3018.068c0,9.729,9.373,17.723,20.835,17.723h10.342c11.456,0,20.828-7.977,20.828-17.723Z" transform="translate(-5284.585 -2874.727)" fill="#f2e9e4"/>
            <path id="Trazado_909176" data-name="Trazado 909176" d="M5396.628,2990.6h19.457s-3.381,8.918-3.381,14.172,14.8,25.822-6.349,25.822-6.347-20.576-6.347-25.822S5396.628,2990.6,5396.628,2990.6Z" transform="translate(-5282.799 -2869.529)" fill="#e0e0e0"/>
            <rect id="Rectángulo_406334" data-name="Rectángulo 406334" width="124.013" height="25.271" transform="translate(84.797 167.169)" fill="#f2e9e4"/>
            <path id="Trazado_909177" data-name="Trazado 909177" d="M5361.515,3165.853h-7.19V3153.8h14.739Z" transform="translate(-5275.105 -2900.413)" fill="#fafafa"/>
            <path id="Trazado_909178" data-name="Trazado 909178" d="M5432.983,3062.149a3.81,3.81,0,1,0,3.81-3.809,3.81,3.81,0,0,0-3.81,3.809Z" transform="translate(-5289.991 -2882.349)" fill="#fafafa"/>
            <rect id="Rectángulo_406335" data-name="Rectángulo 406335" width="124.013" height="25.271" transform="translate(84.797 198.544)" fill="#f2e9e4"/>
            <path id="Trazado_909179" data-name="Trazado 909179" d="M5432.983,3100.849a3.81,3.81,0,1,0,3.81-3.81A3.81,3.81,0,0,0,5432.983,3100.849Z" transform="translate(-5289.991 -2889.674)" fill="#fafafa"/>
            <rect id="Rectángulo_406336" data-name="Rectángulo 406336" width="124.013" height="25.271" transform="translate(84.797 229.912)" fill="#f2e9e4"/>
            <circle id="Elipse_13487" data-name="Elipse 13487" cx="3.811" cy="3.811" r="3.811" transform="translate(142.992 238.742)" fill="#fafafa"/>
            <path id="Trazado_909180" data-name="Trazado 909180" d="M5701.2,2948.118H5586.889v22.353H5569.3v22.353H5551.72v22.353h-17.586v22.353h-17.584v22.344h-17.586v22.352h-17.586v22.351h-17.585v22.353h237.4Z" transform="translate(-5295.822 -2861.489)" fill="#fafafa"/>
            <rect id="Rectángulo_406337" data-name="Rectángulo 406337" width="100.233" height="6.704" transform="translate(166.163 243.087)" fill="#f2e9e4"/>
            <rect id="Rectángulo_406338" data-name="Rectángulo 406338" width="100.233" height="6.704" transform="translate(183.748 220.734)" fill="#f2e9e4"/>
            <rect id="Rectángulo_406339" data-name="Rectángulo 406339" width="100.233" height="6.704" transform="translate(201.334 198.382)" fill="#f2e9e4"/>
            <rect id="Rectángulo_406340" data-name="Rectángulo 406340" width="100.233" height="6.704" transform="translate(218.919 176.03)" fill="#f2e9e4"/>
            <rect id="Rectángulo_406341" data-name="Rectángulo 406341" width="100.233" height="6.704" transform="translate(236.504 153.686)" fill="#f2e9e4"/>
            <rect id="Rectángulo_406342" data-name="Rectángulo 406342" width="100.233" height="6.704" transform="translate(254.089 131.334)" fill="#f2e9e4"/>
            <rect id="Rectángulo_406343" data-name="Rectángulo 406343" width="100.233" height="6.704" transform="translate(271.674 108.981)" fill="#f2e9e4"/>
            <rect id="Rectángulo_406344" data-name="Rectángulo 406344" width="100.233" height="6.704" transform="translate(289.259 86.629)" fill="#f2e9e4"/>
            <path id="Trazado_909181" data-name="Trazado 909181" d="M5706.189,2948.118v22.353H5688.6v22.353H5671.02v22.353h-17.585v22.353H5635.85v22.344h-17.586v22.352h-17.585v22.351H5583.1v22.353h140.681v-178.81Z" transform="translate(-5318.401 -2861.489)" fill="#fff" stroke="#5e6178" stroke-miterlimit="10" stroke-width="0"/>
          </g>
          <g id="Grupo_1117741" data-name="Grupo 1117741" transform="translate(70.619 14.43)">
            <path id="Trazado_909182" data-name="Trazado 909182" d="M5443.4,2973.894h0a8.916,8.916,0,0,0-8.691-6.916h-64.859a8.918,8.918,0,0,0-8.918,8.918h0v144.168a8.918,8.918,0,0,0,8.918,8.919h205.925a8.917,8.917,0,0,0,8.918-8.918v-121.1a8.916,8.916,0,0,0-8.919-8.918H5463.687a20.82,20.82,0,0,1-20.289-16.149Z" transform="translate(-5346.975 -2879.49)" fill="#d9a171"/>
            <path id="Trazado_909183" data-name="Trazado 909183" d="M5443.4,2973.894h0a8.916,8.916,0,0,0-8.691-6.916h-64.859a8.918,8.918,0,0,0-8.918,8.918h0v144.168a8.918,8.918,0,0,0,8.918,8.919h205.925a8.917,8.917,0,0,0,8.918-8.918v-121.1a8.916,8.916,0,0,0-8.919-8.918H5463.687a20.82,20.82,0,0,1-20.289-16.149Z" transform="translate(-5346.975 -2879.49)" fill="#344154" opacity="0.6" style="isolation: isolate"/>
            <path id="Trazado_909184" data-name="Trazado 909184" d="M5434.409,2920.128l5.78,18.72a9.414,9.414,0,0,0,11.764,6.211l18.712-5.781Z" transform="translate(-5360.881 -2870.624)" fill="#d9a171" opacity="0.22" style="isolation: isolate"/>
            <path id="Trazado_909185" data-name="Trazado 909185" d="M5417.248,2920.128l-66.888,20.666a9.4,9.4,0,0,0-6.223,11.746v.014l38.186,123.622a9.406,9.406,0,0,0,11.761,6.211h0l85.607-26.447a9.4,9.4,0,0,0,6.213-11.746v-.009l-32.43-104.9Z" transform="translate(-5343.719 -2870.624)" fill="#d9a171"/>
            <path id="Trazado_909186" data-name="Trazado 909186" d="M5417.248,2920.128l-66.888,20.666a9.4,9.4,0,0,0-6.223,11.746v.014l38.186,123.622a9.406,9.406,0,0,0,11.761,6.211h0l85.607-26.447a9.4,9.4,0,0,0,6.213-11.746v-.009l-32.43-104.9Z" transform="translate(-5343.719 -2870.624)" fill="#fff" stroke="#5e6178" stroke-miterlimit="10" stroke-width="0" opacity="0.8" style="isolation: isolate"/>
            <g id="Grupo_1117721" data-name="Grupo 1117721" transform="translate(48.548 171.884)" opacity="0.28">
              <path id="Trazado_909187" data-name="Trazado 909187" d="M5464.567,3079.1l-55.648,17.188a4.119,4.119,0,0,1-5.141-2.708h0a4.119,4.119,0,0,1,2.715-5.131l55.65-17.2a4.117,4.117,0,0,1,5.139,2.714h0a4.117,4.117,0,0,1-2.715,5.133Z" transform="translate(-5403.599 -3071.074)" fill="#d9a171"/>
            </g>
            <g id="Grupo_1117722" data-name="Grupo 1117722" transform="translate(14.878 71.009)" opacity="0.28">
              <path id="Trazado_909188" data-name="Trazado 909188" d="M5396.816,2954.683l-29.431,9.089a4.128,4.128,0,0,1-5.138-2.708h0a4.125,4.125,0,0,1,2.716-5.14l29.431-9.088a4.11,4.11,0,0,1,5.139,2.708h0a4.126,4.126,0,0,1-2.717,5.139Z" transform="translate(-5362.068 -2946.651)" fill="#d9a171"/>
            </g>
            <g id="Grupo_1117723" data-name="Grupo 1117723" transform="translate(19.699 80.651)" opacity="0.28">
              <path id="Trazado_909189" data-name="Trazado 909189" d="M5421.958,2966.573l-48.645,15.024a4.119,4.119,0,0,1-5.115-2.716h0a4.112,4.112,0,0,1,2.708-5.132l48.645-15.023a4.115,4.115,0,0,1,5.138,2.707h0A4.134,4.134,0,0,1,5421.958,2966.573Z" transform="translate(-5368.015 -2958.543)" fill="#d9a171"/>
            </g>
            <g id="Grupo_1117724" data-name="Grupo 1117724" transform="translate(24.504 89.316)" opacity="0.28">
              <path id="Trazado_909190" data-name="Trazado 909190" d="M5450.24,2977.263l-70.989,21.89a4.111,4.111,0,0,1-5.132-2.708h0a4.126,4.126,0,0,1,2.708-5.14l70.989-21.89a4.117,4.117,0,0,1,5.132,2.708h0A4.117,4.117,0,0,1,5450.24,2977.263Z" transform="translate(-5373.938 -2969.234)" fill="#d9a171"/>
            </g>
            <g id="Grupo_1117725" data-name="Grupo 1117725" transform="translate(59.031 104.888)" opacity="0.28">
              <path id="Trazado_909191" data-name="Trazado 909191" d="M5463.105,2996.465l-41.266,12.753a4.119,4.119,0,0,1-5.132-2.715h0a4.12,4.12,0,0,1,2.708-5.134l41.267-12.752a4.135,4.135,0,0,1,5.14,2.715h0A4.12,4.12,0,0,1,5463.105,2996.465Z" transform="translate(-5416.526 -2988.439)" fill="#d9a171"/>
            </g>
            <g id="Grupo_1117726" data-name="Grupo 1117726" transform="translate(29.306 123.484)" opacity="0.28">
              <path id="Trazado_909192" data-name="Trazado 909192" d="M5395.978,3019.4l-10.79,3.333a4.119,4.119,0,0,1-5.141-2.708h0a4.117,4.117,0,0,1,2.716-5.141l10.791-3.332a4.125,4.125,0,0,1,5.14,2.709h0a4.134,4.134,0,0,1-2.717,5.139Z" transform="translate(-5379.864 -3011.375)" fill="#d9a171"/>
            </g>
            <g id="Grupo_1117727" data-name="Grupo 1117727" transform="translate(34.12 120.459)" opacity="0.28">
              <path id="Trazado_909193" data-name="Trazado 909193" d="M5462.107,3015.675l-70.988,21.931a4.119,4.119,0,0,1-5.133-2.716h0a4.109,4.109,0,0,1,2.708-5.133l70.988-21.931a4.117,4.117,0,0,1,5.132,2.708h0A4.117,4.117,0,0,1,5462.107,3015.675Z" transform="translate(-5385.804 -3007.646)" fill="#d9a171"/>
            </g>
            <g id="Grupo_1117728" data-name="Grupo 1117728" transform="translate(38.932 144.491)" opacity="0.28">
              <path id="Trazado_909194" data-name="Trazado 909194" d="M5440.644,3045.313l-43.594,13.468a4.12,4.12,0,0,1-5.133-2.708h0a4.128,4.128,0,0,1,2.708-5.14l43.6-13.467a4.125,4.125,0,0,1,5.139,2.715h0A4.111,4.111,0,0,1,5440.644,3045.313Z" transform="translate(-5391.737 -3037.286)" fill="#d9a171"/>
            </g>
            <g id="Grupo_1117729" data-name="Grupo 1117729" transform="translate(98.28 136.032)" opacity="0.28">
              <path id="Trazado_909195" data-name="Trazado 909195" d="M5481.892,3034.884l-11.635,3.592a4.127,4.127,0,0,1-5.139-2.716h0a4.118,4.118,0,0,1,2.715-5.133l11.634-3.592a4.111,4.111,0,0,1,5.132,2.708h0a4.118,4.118,0,0,1-2.708,5.14Z" transform="translate(-5464.938 -3026.853)" fill="#d9a171"/>
            </g>
            <g id="Grupo_1117730" data-name="Grupo 1117730" transform="translate(43.748 151.579)" opacity="0.28">
              <path id="Trazado_909196" data-name="Trazado 909196" d="M5473.969,3054.094,5403,3075.985a4.118,4.118,0,0,1-5.14-2.716h0a4.11,4.11,0,0,1,2.717-5.131l70.981-21.931a4.134,4.134,0,0,1,5.14,2.716h0a4.118,4.118,0,0,1-2.693,5.163Z" transform="translate(-5397.676 -3046.029)" fill="#d9a171"/>
            </g>
            <path id="Trazado_909197" data-name="Trazado 909197" d="M5470.36,2862.084l21.227,47.3a5.118,5.118,0,0,1-2.561,6.745l-90.042,40.416a5.107,5.107,0,0,1-6.747-2.562l-21.233-47.3a5.108,5.108,0,0,1,2.563-6.753l90.04-40.416A5.123,5.123,0,0,1,5470.36,2862.084Z" transform="translate(-5348.795 -2859.068)" fill="#d9a171"/>
            <path id="Trazado_909198" data-name="Trazado 909198" d="M5470.36,2862.084l21.227,47.3a5.118,5.118,0,0,1-2.561,6.745l-90.042,40.416a5.107,5.107,0,0,1-6.747-2.562l-21.233-47.3a5.108,5.108,0,0,1,2.563-6.753l90.04-40.416A5.123,5.123,0,0,1,5470.36,2862.084Z" transform="translate(-5348.795 -2859.068)" fill="#344154" opacity="0.3" style="isolation: isolate"/>
            <rect id="Rectángulo_406345" data-name="Rectángulo 406345" width="3.154" height="0.811" transform="translate(104.497 1.97) rotate(-24.155)" fill="#d9a171"/>
            <rect id="Rectángulo_406346" data-name="Rectángulo 406346" width="9.835" height="0.811" transform="translate(91.494 7.798) rotate(-24.155)" fill="#d9a171"/>
            <rect id="Rectángulo_406347" data-name="Rectángulo 406347" width="0.811" height="6" transform="translate(21.389 52.714) rotate(-24.18)" fill="#d9a171"/>
            <path id="Trazado_909199" data-name="Trazado 909199" d="M5467.437,2859.344l-23.221,45.484a20.8,20.8,0,0,1-23.748,10.661l-49.411-12.883a5.174,5.174,0,0,1,2.609-2.681l90.042-40.416A5.1,5.1,0,0,1,5467.437,2859.344Z" transform="translate(-5348.888 -2859.068)" fill="#d9a171" opacity="0.6" style="isolation: isolate"/>
            <path id="Trazado_909200" data-name="Trazado 909200" d="M5510.934,2931.208l-69.872,4.313a9.4,9.4,0,0,0-8.83,9.945v.019l7.97,129.136a9.4,9.4,0,0,0,9.958,8.823h.027l89.428-5.521a9.389,9.389,0,0,0,8.81-9.937v-.028l-6.729-109.589Z" transform="translate(-5360.466 -2872.72)" fill="#d9a171"/>
            <path id="Trazado_909201" data-name="Trazado 909201" d="M5510.934,2931.208l-69.872,4.313a9.4,9.4,0,0,0-8.83,9.945v.019l7.97,129.136a9.4,9.4,0,0,0,9.958,8.823h.027l89.428-5.521a9.389,9.389,0,0,0,8.81-9.937v-.028l-6.729-109.589Z" transform="translate(-5360.466 -2872.72)" fill="#fff" stroke="#5e6178" stroke-miterlimit="10" stroke-width="0" opacity="0.8" style="isolation: isolate"/>
            <g id="Grupo_1117731" data-name="Grupo 1117731" transform="translate(92.206 185.491)" opacity="0.22">
              <path id="Trazado_909202" data-name="Trazado 909202" d="M5519.932,3096.063l-58.14,3.592a4.121,4.121,0,0,1-4.341-3.852h0a4.126,4.126,0,0,1,3.843-4.354l58.14-3.583a4.117,4.117,0,0,1,4.354,3.843h0A4.118,4.118,0,0,1,5519.932,3096.063Z" transform="translate(-5457.444 -3087.857)" fill="#d9a171"/>
            </g>
            <g id="Grupo_1117732" data-name="Grupo 1117732" transform="translate(85.171 73.333)" opacity="0.22">
              <path id="Trazado_909203" data-name="Trazado 909203" d="M5483.883,2957.739l-30.752,1.881a4.127,4.127,0,0,1-4.354-3.843h0a4.126,4.126,0,0,1,3.852-4.354l30.753-1.9a4.11,4.11,0,0,1,4.34,3.843h0A4.117,4.117,0,0,1,5483.883,2957.739Z" transform="translate(-5448.77 -2949.518)" fill="#d9a171"/>
            </g>
            <g id="Grupo_1117733" data-name="Grupo 1117733" transform="translate(86.171 88.376)" opacity="0.22">
              <path id="Trazado_909204" data-name="Trazado 909204" d="M5505.182,2976.278l-50.815,3.129a4.111,4.111,0,0,1-4.354-3.842h0a4.119,4.119,0,0,1,3.851-4.355l50.8-3.13a4.11,4.11,0,0,1,4.354,3.844h0A4.118,4.118,0,0,1,5505.182,2976.278Z" transform="translate(-5450.005 -2968.074)" fill="#d9a171"/>
            </g>
            <g id="Grupo_1117734" data-name="Grupo 1117734" transform="translate(87.166 103.208)" opacity="0.22">
              <path id="Trazado_909205" data-name="Trazado 909205" d="M5529.758,2994.571l-74.151,4.572a4.126,4.126,0,0,1-4.371-3.851h0a4.112,4.112,0,0,1,3.844-4.34l74.159-4.581a4.119,4.119,0,0,1,4.341,3.852h0a4.118,4.118,0,0,1-3.822,4.348Z" transform="translate(-5451.23 -2986.364)" fill="#d9a171"/>
            </g>
            <g id="Grupo_1117735" data-name="Grupo 1117735" transform="translate(119.23 119.472)" opacity="0.22">
              <path id="Trazado_909206" data-name="Trazado 909206" d="M5538.249,3014.632l-43.108,2.66a4.119,4.119,0,0,1-4.353-3.843h0a4.111,4.111,0,0,1,3.843-4.354l43.108-2.66a4.109,4.109,0,0,1,4.354,3.843h0a4.118,4.118,0,0,1-3.843,4.354Z" transform="translate(-5490.779 -3006.427)" fill="#d9a171"/>
            </g>
            <g id="Grupo_1117736" data-name="Grupo 1117736" transform="translate(88.191 123.35)" opacity="0.22">
              <path id="Trazado_909207" data-name="Trazado 909207" d="M5468.119,3019.413l-11.277.7a4.112,4.112,0,0,1-4.341-3.843h0a4.121,4.121,0,0,1,3.844-4.354l11.277-.7a4.125,4.125,0,0,1,4.354,3.851h0A4.118,4.118,0,0,1,5468.119,3019.413Z" transform="translate(-5452.493 -3011.209)" fill="#d9a171"/>
            </g>
            <g id="Grupo_1117737" data-name="Grupo 1117737" transform="translate(89.186 135.738)" opacity="0.22">
              <path id="Trazado_909208" data-name="Trazado 909208" d="M5532.241,3034.693l-74.158,4.573a4.12,4.12,0,0,1-4.354-3.844h0a4.126,4.126,0,0,1,3.852-4.353l74.151-4.573a4.12,4.12,0,0,1,4.355,3.851h0A4.11,4.11,0,0,1,5532.241,3034.693Z" transform="translate(-5453.722 -3026.489)" fill="#d9a171"/>
            </g>
            <g id="Grupo_1117738" data-name="Grupo 1117738" transform="translate(90.191 153.774)" opacity="0.22">
              <path id="Trazado_909209" data-name="Trazado 909209" d="M5504.86,3056.932l-45.539,2.809a4.128,4.128,0,0,1-4.354-3.851h0a4.119,4.119,0,0,1,3.851-4.341l45.54-2.809a4.115,4.115,0,0,1,4.341,3.851h0a4.1,4.1,0,0,1-3.839,4.341Z" transform="translate(-5454.961 -3048.733)" fill="#d9a171"/>
            </g>
            <g id="Grupo_1117739" data-name="Grupo 1117739" transform="translate(152.191 152.008)" opacity="0.22">
              <path id="Trazado_909210" data-name="Trazado 909210" d="M5547.943,3054.762l-12.16.746a4.112,4.112,0,0,1-4.342-3.843h0a4.108,4.108,0,0,1,3.842-4.354l12.161-.746a4.11,4.11,0,0,1,4.354,3.843h0a4.127,4.127,0,0,1-3.856,4.353Z" transform="translate(-5531.434 -3046.557)" fill="#d9a171"/>
            </g>
            <g id="Grupo_1117740" data-name="Grupo 1117740" transform="translate(91.195 168.271)" opacity="0.22">
              <path id="Trazado_909211" data-name="Trazado 909211" d="M5534.71,3074.822l-74.151,4.572a4.119,4.119,0,0,1-4.353-3.843h0a4.12,4.12,0,0,1,3.842-4.354l74.159-4.572a4.108,4.108,0,0,1,4.34,3.843h0a4.112,4.112,0,0,1-3.838,4.353Z" transform="translate(-5456.199 -3066.618)" fill="#d9a171"/>
            </g>
            <path id="Trazado_909212" data-name="Trazado 909212" d="M5529.31,2931.208l1.208,19.555a9.4,9.4,0,0,0,9.958,8.81h0l19.579-1.208Z" transform="translate(-5378.84 -2872.72)" fill="#d9a171" opacity="0.22" style="isolation: isolate"/>
            <path id="Trazado_909213" data-name="Trazado 909213" d="M5475.731,2989.761h0a7.012,7.012,0,0,0-7.1-6.919h-65.135a11.336,11.336,0,0,0-10.652,8.92l-25.629,131.3a7.134,7.134,0,0,0,7.176,8.918h205.931a11.364,11.364,0,0,0,10.653-8.919l21.136-108.235a7.129,7.129,0,0,0-7.174-8.917H5492.88C5483.149,3005.914,5476.063,2999.215,5475.731,2989.761Z" transform="translate(-5348.142 -2882.492)" fill="#d9a171" opacity="0.5" style="isolation: isolate"/>
          </g>
        </g>
        <g id="Grupo_1117743" data-name="Grupo 1117743" transform="translate(240.537 57.09)">
          <path id="Trazado_909214" data-name="Trazado 909214" d="M5648.959,2937.388c1.135,3.8,6.989,10.921,7.45,16.1s-9.519,13.466-9.519,13.466-7.458-24.939-2.79-27.849S5648.959,2937.388,5648.959,2937.388Z" transform="translate(-5570.192 -2916.504)" fill="#344154"/>
          <path id="Trazado_909215" data-name="Trazado 909215" d="M5613.805,2969.516c-1.767,1.476-3.5,2.716-5.31,3.989s-3.673,2.432-5.57,3.519a62.9,62.9,0,0,1-5.873,3.074c-1.021.462-2.036.915-3.09,1.312-.52.211-1.045.414-1.581.593l-1.622.567a10.7,10.7,0,0,1-4.264.308,24.339,24.339,0,0,1-3.535-.68,46.911,46.911,0,0,1-6.332-2.253,84.382,84.382,0,0,1-11.505-6.12l1.516-2.822c1.915.811,3.875,1.622,5.822,2.326s3.908,1.452,5.873,2.06a49.269,49.269,0,0,0,5.837,1.524,19,19,0,0,0,2.748.332,5.707,5.707,0,0,0,2.042-.211,52.209,52.209,0,0,0,5.417-2.432c.895-.47,1.788-.948,2.667-1.467s1.767-1.021,2.634-1.556c1.744-1.078,3.447-2.222,5.132-3.4s3.364-2.432,4.865-3.623Z" transform="translate(-5555.537 -2921.69)" fill="#ffd2b1"/>
          <path id="Trazado_909216" data-name="Trazado 909216" d="M5627.451,2959.957c-2.011-1.573-10.328,3.575-12.85,5.724l1.84,11.131s11.96-5.01,12.67-8.427C5629.868,2964.8,5628.951,2961.157,5627.451,2959.957Z" transform="translate(-5564.9 -2920.764)" fill="#d9a171"/>
          <path id="Trazado_909217" data-name="Trazado 909217" d="M5627.451,2959.957c-2.011-1.573-10.328,3.575-12.85,5.724l1.84,11.131s11.96-5.01,12.67-8.427C5629.868,2964.8,5628.951,2961.157,5627.451,2959.957Z" transform="translate(-5564.9 -2920.764)" fill="#344154" opacity="0.2" style="isolation: isolate"/>
          <path id="Trazado_909218" data-name="Trazado 909218" d="M5656.624,2992.566l-25.246,4.922c-13.044-35.324-10.208-36.483-10.208-36.483a50.746,50.746,0,0,1,5.675-2.682l.341-.127c1.622-.593,1.946-.681,4.1-1.314,3.713-.885,7.176-1.623,11.464-2.231l.811-.112c.811-.1,1.547-.179,2.3-.255.5-.056,1-.089,1.485-.122l1.622-.089c2.772-.138,4.759-.1,4.759-.1C5652.95,2976.046,5654.2,2982.378,5656.624,2992.566Z" transform="translate(-5566.095 -2919.691)" fill="#d9a171"/>
          <path id="Trazado_909219" data-name="Trazado 909219" d="M5656.624,2992.566l-25.246,4.922c-13.044-35.324-10.208-36.483-10.208-36.483a50.746,50.746,0,0,1,5.675-2.682l.341-.127c1.622-.593,1.946-.681,4.1-1.314,3.713-.885,7.176-1.623,11.464-2.231l.811-.112c.811-.1,1.547-.179,2.3-.255.5-.056,1-.089,1.485-.122l1.622-.089c2.772-.138,4.759-.1,4.759-.1C5652.95,2976.046,5654.2,2982.378,5656.624,2992.566Z" transform="translate(-5566.095 -2919.691)" fill="#344154" opacity="0.2" style="isolation: isolate"/>
          <path id="Trazado_909220" data-name="Trazado 909220" d="M5640.505,2938.843c-1.62,2.681,4.257,3.924,7.735,1.176,2.781-2.206,2.125-7.3-.255-8.48S5640.505,2938.843,5640.505,2938.843Z" transform="translate(-5569.752 -2915.42)" fill="#d9a171"/>
          <path id="Trazado_909221" data-name="Trazado 909221" d="M5640.505,2938.843c-1.62,2.681,4.257,3.924,7.735,1.176,2.781-2.206,2.125-7.3-.255-8.48S5640.505,2938.843,5640.505,2938.843Z" transform="translate(-5569.752 -2915.42)" fill="#344154" opacity="0.4" style="isolation: isolate"/>
          <path id="Trazado_909222" data-name="Trazado 909222" d="M5668.87,3178.523l-6.316.47-2.311-14.536,6.315-.471Z" transform="translate(-5573.539 -2959.433)" fill="#ffd2b1"/>
          <path id="Trazado_909223" data-name="Trazado 909223" d="M5722.5,3154.211l-5.363,3.374-9.542-11.319,5.362-3.38Z" transform="translate(-5582.503 -2955.44)" fill="#ffd2b1"/>
          <path id="Trazado_909224" data-name="Trazado 909224" d="M5660.242,3164.456l1.277,8.074,6.227-1.046-1.173-7.484Z" transform="translate(-5573.539 -2959.433)" fill="#cf6f64"/>
          <path id="Trazado_909225" data-name="Trazado 909225" d="M5712.968,3142.9l-5.363,3.373,3.958,4.686,5.48-3.234Z" transform="translate(-5582.501 -2955.439)" fill="#cf6f64"/>
          <path id="Trazado_909226" data-name="Trazado 909226" d="M5634.3,3006.8s-.089,50.121,4.005,69c4.263,19.635,16.808,64.308,16.808,64.308l9.1-1.176s-7.11-45.126-10.143-64.64c-3.3-21.266-1.276-71.086-1.276-71.086Z" transform="translate(-5568.631 -2929.005)" fill="#d9a171"/>
          <path id="Trazado_909227" data-name="Trazado 909227" d="M5634.3,3006.8s-.089,50.121,4.005,69c4.263,19.635,16.808,64.308,16.808,64.308l9.1-1.176s-7.11-45.126-10.143-64.64c-3.3-21.266-1.276-71.086-1.276-71.086Z" transform="translate(-5568.631 -2929.005)" fill="#344154" opacity="0.7" style="isolation: isolate"/>
          <path id="Trazado_909228" data-name="Trazado 909228" d="M5655.366,3029.563l-4.46-4.443c.17,19.255,1.249,28.766,4.952,39.126C5655.282,3053.3,5655.238,3040.344,5655.366,3029.563Z" transform="translate(-5571.774 -2933.155)" fill="#344154" opacity="0.5" style="isolation: isolate"/>
          <path id="Trazado_909229" data-name="Trazado 909229" d="M5642.041,3005.2s13.6,41.421,20.342,65.281c7.12,25.174,34.409,53.015,34.409,53.015l7.832-4.524s-18.641-26.429-25.506-49.922c-13.946-47.68-8.212-57.782-18.5-67.479Z" transform="translate(-5570.093 -2928.698)" fill="#d9a171"/>
          <path id="Trazado_909230" data-name="Trazado 909230" d="M5642.041,3005.2s13.6,41.421,20.342,65.281c7.12,25.174,34.409,53.015,34.409,53.015l7.832-4.524s-18.641-26.429-25.506-49.922c-13.946-47.68-8.212-57.782-18.5-67.479Z" transform="translate(-5570.093 -2928.698)" fill="#344154" opacity="0.7" style="isolation: isolate"/>
          <path id="Trazado_909231" data-name="Trazado 909231" d="M5627.216,2922.535c3.617,1.209,6.895,10.184,7.038,13.719s-10.47,8.407-10.47,8.407-4.678-11.35-3.373-18.641C5620.971,2922.842,5627.216,2922.535,5627.216,2922.535Z" transform="translate(-5565.956 -2913.738)" fill="#344154"/>
          <path id="Trazado_909232" data-name="Trazado 909232" d="M5566.323,2971.785l-4.289-4.67-1.4,5.853s3.049,2.691,5.513,1.768Z" transform="translate(-5554.688 -2922.175)" fill="#ffd2b1"/>
          <path id="Trazado_909233" data-name="Trazado 909233" d="M5556.3,2965.465l-3,2.384,5.942,4.809,1.405-5.854Z" transform="translate(-5553.3 -2921.861)" fill="#ffd2b1"/>
          <path id="Trazado_909234" data-name="Trazado 909234" d="M5716.6,3158.311l5.011-5.051a.511.511,0,0,1,.664-.049l4.566,3.389a1.013,1.013,0,0,1,.172,1.422,1.1,1.1,0,0,1-.083.093c-1.787,1.728-2.724,2.474-4.929,4.7-1.354,1.37-3.192,3.5-5.068,5.392s-3.843.128-3.244-.811a12.473,12.473,0,0,0,2.433-8.044,1.62,1.62,0,0,1,.477-1.037Z" transform="translate(-5583.631 -2957.375)" fill="#344154"/>
          <path id="Trazado_909235" data-name="Trazado 909235" d="M5660.234,3181.375h7.12a.533.533,0,0,1,.526.438l1.119,5.627a.956.956,0,0,1-.766,1.112.889.889,0,0,1-.178.015c-2.49-.041-3.689-.186-6.819-.186-1.915,0-5.894.194-8.555.194s-2.944-2.628-1.85-2.863c4.866-1.07,6.767-2.537,8.368-3.948a1.62,1.62,0,0,1,1.034-.39Z" transform="translate(-5571.643 -2962.724)" fill="#344154"/>
          <path id="Trazado_909236" data-name="Trazado 909236" d="M5661.483,2969.755l-3.893,2.32,4.493,16.888C5661.1,2983.845,5661.54,2978.228,5661.483,2969.755Z" transform="translate(-5573.037 -2922.674)" fill="#d9a171" opacity="0.27" style="isolation: isolate"/>
          <path id="Trazado_909237" data-name="Trazado 909237" d="M5635.11,2934.7c2.766,2.311,6.779,5.675,11.505,1.743,4.054-3.39,6.895-12.282-.383-12.608C5642.433,2923.663,5635.11,2934.7,5635.11,2934.7Z" transform="translate(-5568.783 -2913.984)" fill="#344154"/>
          <path id="Trazado_909238" data-name="Trazado 909238" d="M5641.37,2939.185c0,3.83.591,10.725,3.646,12.688,0,0-.275,3.94-7.134,5.27-7.533,1.467-4.33-3.04-4.33-3.04,3.924-1.787,3.242-4.816,1.944-7.541Z" transform="translate(-5568.359 -2916.888)" fill="#ffd2b1"/>
          <path id="Trazado_909239" data-name="Trazado 909239" d="M5639.591,2942.9l-3.47,4.37a12.545,12.545,0,0,1,.745,1.963c1.523-.535,3.348-2.682,3.192-4.354a5.52,5.52,0,0,0-.467-1.979Z" transform="translate(-5568.974 -2917.589)" fill="#f5bc8c"/>
          <path id="Trazado_909240" data-name="Trazado 909240" d="M5639.75,2926.581c.811,6.235,1.305,8.853-1.192,12.624-3.752,5.675-11.587,5.31-14.254-.55-2.432-5.278-3.34-14.593,2.206-18.2a8.569,8.569,0,0,1,13.24,6.128Z" transform="translate(-5566.376 -2913.074)" fill="#ffd2b1"/>
          <path id="Trazado_909241" data-name="Trazado 909241" d="M5630.166,2914.271c-4.213,2.991,4.24,3.876,4.248,8.213,0,1.788,2.943,7.474,7.128,7.15l4.052-7.2C5649.859,2915.544,5639.78,2907.437,5630.166,2914.271Z" transform="translate(-5567.623 -2911.685)" fill="#344154"/>
          <path id="Trazado_909242" data-name="Trazado 909242" d="M5628.121,2914.87c-7.418-.383-10.654,5.513-9.8,10.815a48.347,48.347,0,0,1,15.843-1.257C5644.329,2925.467,5628.121,2914.87,5628.121,2914.87Z" transform="translate(-5565.577 -2912.284)" fill="#344154"/>
          <path id="Trazado_909243" data-name="Trazado 909243" d="M5645.319,2934.5a4.578,4.578,0,0,1-1.062,3.339c-1.046,1.225-2.433.5-2.918-.948-.415-1.313-.366-3.526,1.044-4.224a2.069,2.069,0,0,1,2.937,1.833Z" transform="translate(-5569.919 -2915.62)" fill="#ffd2b1"/>
          <path id="Trazado_909244" data-name="Trazado 909244" d="M5632.407,2932.522c.1.5-.089.956-.414,1.021s-.673-.292-.766-.811.088-.964.413-1.029S5632.31,2932.019,5632.407,2932.522Z" transform="translate(-5568.041 -2915.471)" fill="#344154"/>
          <path id="Trazado_909245" data-name="Trazado 909245" d="M5625.418,2933.886c.1.5-.089.965-.414,1.029s-.673-.291-.767-.811.089-.966.414-1.021S5625.321,2933.375,5625.418,2933.886Z" transform="translate(-5566.718 -2915.734)" fill="#344154"/>
          <path id="Trazado_909246" data-name="Trazado 909246" d="M5624.645,2933.071l-1.277-.106S5624.174,2933.783,5624.645,2933.071Z" transform="translate(-5566.56 -2915.711)" fill="#344154"/>
          <path id="Trazado_909247" data-name="Trazado 909247" d="M5627.488,2934.785a13.892,13.892,0,0,1-1.167,3.543,2.2,2.2,0,0,0,1.858,0Z" transform="translate(-5567.12 -2916.055)" fill="#e8b590"/>
          <path id="Trazado_909248" data-name="Trazado 909248" d="M5631.185,2940.555a.147.147,0,0,1-.028-.291h0a4.05,4.05,0,0,0,2.936-2.189.15.15,0,0,1,.276.114,4.269,4.269,0,0,1-3.153,2.367Z" transform="translate(-5568.011 -2916.657)" fill="#344154"/>
          <path id="Trazado_909249" data-name="Trazado 909249" d="M5633.678,2929.737a.306.306,0,0,1-.2-.073,2.386,2.386,0,0,0-2.076-.615.318.318,0,0,1-.154-.617,3.01,3.01,0,0,1,2.636.755.3.3,0,0,1,0,.421.294.294,0,0,1-.2.129Z" transform="translate(-5568.002 -2914.843)" fill="#344154"/>
          <path id="Trazado_909250" data-name="Trazado 909250" d="M5621.765,2930.928a.257.257,0,0,1-.113,0,.3.3,0,0,1-.165-.391v-.006a2.972,2.972,0,0,1,2.052-1.808.294.294,0,0,1,.347.226v.017a.293.293,0,0,1-.225.346h-.01a2.425,2.425,0,0,0-1.621,1.452A.308.308,0,0,1,5621.765,2930.928Z" transform="translate(-5566.2 -2914.907)" fill="#344154"/>
          <path id="Trazado_909251" data-name="Trazado 909251" d="M5714.789,3162.642a.859.859,0,0,1-.7-.39.51.51,0,0,1-.088-.5c.283-.766,2.52-1.249,2.771-1.3a.152.152,0,0,1,.154.064.138.138,0,0,1,0,.162c-.439.721-1.3,1.929-2.1,1.97Zm1.7-1.824c-.885.227-2.051.638-2.2,1.038a.2.2,0,0,0,.05.218.55.55,0,0,0,.485.267C5715.252,3162.317,5715.859,3161.758,5716.485,3160.817Z" transform="translate(-5583.707 -2958.763)" fill="#d9a171"/>
          <path id="Trazado_909252" data-name="Trazado 909252" d="M5716.1,3160.529a2.955,2.955,0,0,1-2.124-.638.527.527,0,0,1,.055-.656.813.813,0,0,1,.592-.307h.065c.908,0,2.156,1.224,2.205,1.277a.142.142,0,0,1,.041.146.154.154,0,0,1-.106.105,2.873,2.873,0,0,1-.728.074Zm-1.4-1.3h-.048a.494.494,0,0,0-.373.194c-.112.155-.081.242-.039.3.242.373,1.483.583,2.244.494a3.576,3.576,0,0,0-1.788-.988Z" transform="translate(-5583.692 -2958.475)" fill="#d9a171"/>
          <path id="Trazado_909253" data-name="Trazado 909253" d="M5659.267,3182.37a2.428,2.428,0,0,1-1.55-.389.815.815,0,0,1-.306-.721.467.467,0,0,1,.228-.4c.744-.438,3.354.859,3.646,1a.151.151,0,0,1-.033.281,10.741,10.741,0,0,1-1.985.229Zm-1.2-1.314a.533.533,0,0,0-.276.057.155.155,0,0,0-.081.155.564.564,0,0,0,.2.487,4.089,4.089,0,0,0,2.829.178,8.483,8.483,0,0,0-2.675-.876Z" transform="translate(-5573.002 -2962.608)" fill="#d9a171"/>
          <path id="Trazado_909254" data-name="Trazado 909254" d="M5661.567,3181.781h-.056c-.812-.349-2.376-1.728-2.262-2.432,0-.162.147-.373.553-.414h.122c1.4,0,1.776,2.578,1.788,2.691a.119.119,0,0,1-.146.155Zm-1.623-2.562h-.088c-.256,0-.276.128-.276.155-.064.429,1.005,1.506,1.817,1.985-.162-.638-.577-2.125-1.484-2.125Z" transform="translate(-5573.349 -2962.262)" fill="#d9a171"/>
          <path id="Trazado_909255" data-name="Trazado 909255" d="M5631.634,2931.708l-1.277-.114S5631.165,2932.422,5631.634,2931.708Z" transform="translate(-5567.882 -2915.452)" fill="#344154"/>
          <path id="Trazado_909256" data-name="Trazado 909256" d="M5636.512,2965.361c-13.563,3.025-9.371-5.181-8.561-6.989l.341-.128c1.623-.593,1.944-.68,4.1-1.314a81.539,81.539,0,0,1,11.464-2.229l.811-.114c.812-.106,1.55-.187,2.3-.255.5-.056,1.007-.089,1.483-.121l1.623-.1h0C5650.343,2955.38,5651.017,2962.14,5636.512,2965.361Z" transform="translate(-5567.192 -2919.716)" fill="#ffd2b1"/>
          <path id="Trazado_909257" data-name="Trazado 909257" d="M5658.9,2999.627l1.581,2.043c.122.155-.05.373-.341.429l-26.479,5.157c-.228.05-.437,0-.479-.17l-.671-2.214a.417.417,0,0,1,.373-.373l25.571-4.979A.462.462,0,0,1,5658.9,2999.627Z" transform="translate(-5568.291 -2928.305)" fill="#26395a"/>
          <path id="Trazado_909258" data-name="Trazado 909258" d="M5661.233,3003.229l.689-.128c.139,0,.228-.112.2-.2l-.895-2.87c0-.089-.162-.128-.3-.1l-.681.128c-.139,0-.228.128-.2.2l.894,2.878C5660.967,3003.214,5661.1,3003.263,5661.233,3003.229Z" transform="translate(-5573.502 -2928.382)" fill="#d9a171"/>
          <path id="Trazado_909259" data-name="Trazado 909259" d="M5641.144,3015.347l-5.278-1.963.811,5.019s3.831,1.378,5.78-.389Z" transform="translate(-5568.926 -2930.932)" fill="#ffd2b1"/>
          <path id="Trazado_909260" data-name="Trazado 909260" d="M5629.378,3014.715l-1.256,3.292,7.094.4-.811-5.019Z" transform="translate(-5567.46 -2930.931)" fill="#ffd2b1"/>
          <path id="Trazado_909261" data-name="Trazado 909261" d="M5636.084,3008.131l.689-.128c.128,0,.228-.114.194-.2l-.894-2.87c0-.089-.156-.128-.292-.1l-.689.128c-.136,0-.228.121-.194.2l.894,2.878C5635.816,3008.114,5635.945,3008.163,5636.084,3008.131Z" transform="translate(-5568.742 -2929.309)" fill="#d9a171"/>
          <path id="Trazado_909262" data-name="Trazado 909262" d="M5648.659,3005.67l.682-.127c.138,0,.228-.114.2-.2l-.894-2.871c0-.089-.161-.127-.3-.106l-.681.128c-.139,0-.228.128-.2.2l.894,2.877A.255.255,0,0,0,5648.659,3005.67Z" transform="translate(-5571.122 -2928.843)" fill="#d9a171"/>
          <path id="Trazado_909263" data-name="Trazado 909263" d="M5643.7,2950.861c.576-.22,1.3,1.808,1.12,2.067-.414.593-7.987,2.66-8.326,1.5a5.065,5.065,0,0,1,.284-1.849C5636.993,2952.192,5638.673,2952.9,5643.7,2950.861Z" transform="translate(-5569.042 -2919.096)" fill="#d9a171"/>
          <path id="Trazado_909264" data-name="Trazado 909264" d="M5643.785,2950.618c.293-.673,1.127-1.752,1.856-1.135s1.038,1.946.56,2.17S5643.283,2951.744,5643.785,2950.618Z" transform="translate(-5570.411 -2918.803)" fill="#d9a171"/>
          <path id="Trazado_909265" data-name="Trazado 909265" d="M5645.666,2951.164c.5-.535,1.622-1.277,2.132-.446s.324,2.181-.194,2.222S5644.815,2952.048,5645.666,2951.164Z" transform="translate(-5570.744 -2919)" fill="#d9a171"/>
          <path id="Trazado_909266" data-name="Trazado 909266" d="M5646.049,2950.322a2.248,2.248,0,0,1,1.125-2.171c.925-.6,1.825-.989,2.181-1.621a4.483,4.483,0,0,1,.089,1.816c-.187.868-3.064,1.532-2.871,2.287Z" transform="translate(-5570.851 -2918.282)" fill="#d9a171"/>
          <path id="Trazado_909267" data-name="Trazado 909267" d="M5645.788,2950a2.251,2.251,0,0,1-.228-2.426,7.222,7.222,0,0,0,.958-2.531,4.506,4.506,0,0,1,1.062,1.476c.308.811-1.744,2.944-1.168,3.479Z" transform="translate(-5570.71 -2917.994)" fill="#d9a171"/>
          <path id="Trazado_909268" data-name="Trazado 909268" d="M5705.912,3119.94a.1.1,0,0,1-.08-.049c-.187-.255-18.721-26.706-25.515-49.942a340.417,340.417,0,0,1-10.2-45.467c-1.4-8.659-2.254-13.889-5.042-18.177a.1.1,0,0,1-.029-.1.1.1,0,0,1,.068-.072.1.1,0,0,1,.1.022c2.821,4.328,3.672,9.576,5.076,18.258a341.564,341.564,0,0,0,10.214,45.4c6.786,23.2,25.3,49.618,25.489,49.886a.111.111,0,0,1,0,.137.106.106,0,0,1-.08.1Z" transform="translate(-5574.448 -2929.56)" fill="#d9a171"/>
          <path id="Trazado_909269" data-name="Trazado 909269" d="M5705.912,3119.94a.1.1,0,0,1-.08-.049c-.187-.255-18.721-26.706-25.515-49.942a340.417,340.417,0,0,1-10.2-45.467c-1.4-8.659-2.254-13.889-5.042-18.177a.1.1,0,0,1-.029-.1.1.1,0,0,1,.068-.072.1.1,0,0,1,.1.022c2.821,4.328,3.672,9.576,5.076,18.258a341.564,341.564,0,0,0,10.214,45.4c6.786,23.2,25.3,49.618,25.489,49.886a.111.111,0,0,1,0,.137.106.106,0,0,1-.08.1Z" transform="translate(-5574.448 -2929.56)" fill="#344154" opacity="0.4" style="isolation: isolate"/>
          <path id="Trazado_909270" data-name="Trazado 909270" d="M5670.12,3169.506l-12.385,1.6-.811-3.454,12.9-2.731Z" transform="translate(-5572.91 -2959.611)" fill="#d9a171"/>
          <path id="Trazado_909271" data-name="Trazado 909271" d="M5717.189,3145.075l-9.138,5.278-3.081-2.635,10-6.767Z" transform="translate(-5582.003 -2955.076)" fill="#d9a171"/>
          <path id="Trazado_909272" data-name="Trazado 909272" d="M5662.137,2964.575c.438,2.253.688,4.378.931,6.575s.332,4.371.4,6.566a64.908,64.908,0,0,1-.148,6.639c-.088,1.111-.185,2.222-.34,3.34-.065.551-.137,1.111-.243,1.67l-.3,1.719a10.811,10.811,0,0,1-1.787,3.884,24.2,24.2,0,0,1-2.3,2.764,45.871,45.871,0,0,1-5.026,4.46,84.028,84.028,0,0,1-10.914,7.127l-1.735-2.691q2.434-1.934,4.866-3.974c1.623-1.354,3.164-2.723,4.646-4.151a50.648,50.648,0,0,0,4.146-4.37,19.4,19.4,0,0,0,1.62-2.254,5.613,5.613,0,0,0,.81-1.889,53.513,53.513,0,0,0,.461-5.935v-3.041c0-1.013-.039-2.043-.088-3.064-.1-2.043-.285-4.054-.5-6.128s-.511-4.126-.812-6.049Z" transform="translate(-5569.83 -2921.694)" fill="#ffd2b1"/>
          <path id="Trazado_909273" data-name="Trazado 909273" d="M5663.831,2955.677c3.461,2.809,2.635,11.14,2.635,11.14l-11.675,3.843s.535-9.608,1.119-13.062C5656.589,2953.488,5660.42,2952.913,5663.831,2955.677Z" transform="translate(-5572.508 -2919.688)" fill="#d9a171"/>
          <path id="Trazado_909274" data-name="Trazado 909274" d="M5663.831,2955.677c3.461,2.809,2.635,11.14,2.635,11.14l-11.675,3.843s.535-9.608,1.119-13.062C5656.589,2953.488,5660.42,2952.913,5663.831,2955.677Z" transform="translate(-5572.508 -2919.688)" fill="#344154" opacity="0.2" style="isolation: isolate"/>
        </g>
      </g>
      <g id="Grupo_1117749" data-name="Grupo 1117749" transform="translate(1023.83 6683.311)">
        <rect id="Rectángulo_406348" data-name="Rectángulo 406348" width="115.421" height="148.258" fill="#d3d5d6" stroke="#898888" stroke-linecap="round" stroke-linejoin="round" stroke-width="1"/>
        <g id="Grupo_1117748" data-name="Grupo 1117748" transform="translate(12.013 11.066)">
          <rect id="Rectángulo_406349" data-name="Rectángulo 406349" width="46.201" height="3.166" transform="translate(0.622 71.922)" fill="#0076ae" stroke="#000" stroke-linecap="round" stroke-linejoin="round" stroke-width="1.5"/>
          <rect id="Rectángulo_406350" data-name="Rectángulo 406350" width="46.201" height="3.165" transform="translate(0.622 82.015)" fill="#0076ae" stroke="#000" stroke-linecap="round" stroke-linejoin="round" stroke-width="1.5"/>
          <rect id="Rectángulo_406351" data-name="Rectángulo 406351" width="46.201" height="3.166" transform="translate(0.622 92.107)" fill="#0076ae" stroke="#000" stroke-linecap="round" stroke-linejoin="round" stroke-width="1.5"/>
          <rect id="Rectángulo_406352" data-name="Rectángulo 406352" width="46.201" height="3.168" transform="translate(0.622 102.901)" fill="#0076ae" stroke="#000" stroke-linecap="round" stroke-linejoin="round" stroke-width="1.5"/>
          <rect id="Rectángulo_406353" data-name="Rectángulo 406353" width="93.545" height="3.166" fill="#0076ae" stroke="#000" stroke-linecap="round" stroke-linejoin="round" stroke-width="1.5"/>
          <rect id="Rectángulo_406354" data-name="Rectángulo 406354" width="93.545" height="3.166" transform="translate(0 10.092)" fill="#0076ae" stroke="#000" stroke-linecap="round" stroke-linejoin="round" stroke-width="1.5"/>
          <rect id="Rectángulo_406355" data-name="Rectángulo 406355" width="93.548" height="3.166" transform="translate(0.047 115.694)" fill="#0076ae" stroke="#000" stroke-linecap="round" stroke-linejoin="round" stroke-width="1.5"/>
          <rect id="Rectángulo_406356" data-name="Rectángulo 406356" width="93.548" height="3.166" transform="translate(0.047 125.787)" fill="#0076ae" stroke="#000" stroke-linecap="round" stroke-linejoin="round" stroke-width="1.5"/>
          <g id="Grupo_1117745" data-name="Grupo 1117745" transform="translate(3.843 20.511)">
            <path id="Trazado_909275" data-name="Trazado 909275" d="M330.819,280.732v-.2a19.329,19.329,0,0,0-36.242-9.352l16.813,9.55Z" transform="translate(-292.169 -261.209)" fill="#5e6178" stroke="#000" stroke-linecap="round" stroke-linejoin="round" stroke-width="1.5"/>
            <path id="Trazado_909276" data-name="Trazado 909276" d="M312.379,277.739H292.507v.128a19.329,19.329,0,0,0,19.325,19.328c.186,0,.369-.009.553-.015Z" transform="translate(-292.501 -258.55)" fill="#8f9394" stroke="#000" stroke-linecap="round" stroke-linejoin="round" stroke-width="1.5"/>
            <path id="Trazado_909277" data-name="Trazado 909277" d="M328.481,277.739H309.115V297.2h.042a19.328,19.328,0,0,0,19.328-19.328C328.485,277.828,328.482,277.785,328.481,277.739Z" transform="translate(-289.829 -258.55)" fill="#d9a171" stroke="#000" stroke-miterlimit="10" stroke-width="1.5"/>
            <path id="Trazado_909278" data-name="Trazado 909278" d="M309.076,280h19.407a18.873,18.873,0,0,0-8.937-16.182Z" transform="translate(-289.836 -260.789)" fill="#8f9394" stroke="#000" stroke-linecap="round" stroke-linejoin="round" stroke-width="1.5"/>
            <path id="Trazado_909279" data-name="Trazado 909279" d="M295.04,269.6a19.255,19.255,0,0,0-2.538,9.469h19.325Z" transform="translate(-292.502 -259.859)" fill="#aed3f2" stroke="#000" stroke-linecap="round" stroke-linejoin="round" stroke-width="1.5"/>
          </g>
          <g id="Grupo_1117746" data-name="Grupo 1117746" transform="translate(54.817 70.336)">
            <path id="Trazado_909280" data-name="Trazado 909280" d="M374.727,323.655c0-.065.008-.128.008-.2a19.332,19.332,0,0,0-36.246-9.352l16.815,9.549Z" transform="translate(-336.079 -304.131)" fill="#aed3f2" stroke="#000" stroke-linecap="round" stroke-linejoin="round" stroke-width="1.5"/>
            <path id="Trazado_909281" data-name="Trazado 909281" d="M356.289,320.667H336.416v.128a19.328,19.328,0,0,0,19.329,19.329c.184,0,.364-.009.548-.015Z" transform="translate(-336.412 -301.471)" fill="#8f9394" stroke="#000" stroke-linecap="round" stroke-linejoin="round" stroke-width="1.5"/>
            <path id="Trazado_909282" data-name="Trazado 909282" d="M372.393,320.667h-19.37v19.461h.046A19.33,19.33,0,0,0,372.4,320.8C372.4,320.756,372.393,320.709,372.393,320.667Z" transform="translate(-333.741 -301.471)" fill="#5e6178" stroke="#000" stroke-miterlimit="10" stroke-width="1.5"/>
            <path id="Trazado_909283" data-name="Trazado 909283" d="M352.986,322.928h19.407a18.868,18.868,0,0,0-8.944-16.182Z" transform="translate(-333.748 -303.71)" fill="#8f9394" stroke="#000" stroke-linecap="round" stroke-linejoin="round" stroke-width="1.5"/>
            <path id="Trazado_909284" data-name="Trazado 909284" d="M338.95,312.528a19.27,19.27,0,0,0-2.537,9.47h19.325Z" transform="translate(-336.413 -302.78)" fill="#d9a171" stroke="#000" stroke-linecap="round" stroke-linejoin="round" stroke-width="1.5"/>
          </g>
          <g id="Grupo_1117747" data-name="Grupo 1117747" transform="translate(52.406 19.801)">
            <path id="Trazado_909285" data-name="Trazado 909285" d="M372.651,280.121v-.2a19.329,19.329,0,0,0-36.242-9.352l16.814,9.55Z" transform="translate(-334.004 -260.598)" fill="#d9a171" stroke="#000" stroke-linecap="round" stroke-linejoin="round" stroke-width="1.5"/>
            <path id="Trazado_909286" data-name="Trazado 909286" d="M354.207,277.132H334.34v.128a19.329,19.329,0,0,0,19.325,19.329c.186,0,.368-.009.552-.015Z" transform="translate(-334.335 -257.938)" fill="#8f9394" stroke="#000" stroke-linecap="round" stroke-linejoin="round" stroke-width="1.5"/>
            <path id="Trazado_909287" data-name="Trazado 909287" d="M370.314,277.132H350.948v19.462h.042a19.329,19.329,0,0,0,19.328-19.328C370.318,277.219,370.317,277.178,370.314,277.132Z" transform="translate(-331.664 -257.938)" fill="#5e6178" stroke="#000" stroke-miterlimit="10" stroke-width="1.5"/>
            <path id="Trazado_909288" data-name="Trazado 909288" d="M350.91,279.393h19.407a18.871,18.871,0,0,0-8.944-16.182Z" transform="translate(-331.67 -260.177)" fill="#8f9394" stroke="#000" stroke-linecap="round" stroke-linejoin="round" stroke-width="1.5"/>
            <path id="Trazado_909289" data-name="Trazado 909289" d="M336.874,268.994a19.243,19.243,0,0,0-2.538,9.468h19.325Z" transform="translate(-334.336 -259.247)" fill="#aed3f2" stroke="#000" stroke-linecap="round" stroke-linejoin="round" stroke-width="1.5"/>
          </g>
        </g>
      </g>
      <g id="Grupo_1117754" data-name="Grupo 1117754" transform="translate(1064.916 6628.355)">
        <g id="Grupo_1117752" data-name="Grupo 1117752" transform="translate(0 0)">
          <path id="Trazado_909290" data-name="Trazado 909290" d="M423.459,5183.7a37.171,37.171,0,1,1-42.281-31.13,37.17,37.17,0,0,1,42.281,31.13Z" transform="translate(-349.541 -5152.139)" fill="#f5f5f5"/>
          <g id="Grupo_1117750" data-name="Grupo 1117750" transform="translate(8.844 8.827)">
            <path id="Trazado_909291" data-name="Trazado 909291" d="M414.763,5185.065a28.325,28.325,0,1,1-32.222-23.724A28.324,28.324,0,0,1,414.763,5185.065Z" transform="translate(-358.435 -5161.016)" fill="#ececec"/>
          </g>
          <g id="Grupo_1117751" data-name="Grupo 1117751" transform="translate(8.32 7.761)">
            <path id="Trazado_909292" data-name="Trazado 909292" d="M414.623,5184.177a16.615,16.615,0,0,1-1.247-3.255,30.093,30.093,0,0,0-4.525-8.1,29.129,29.129,0,0,0-4.476-4.53,28.406,28.406,0,0,0-6.209-3.791,27.769,27.769,0,0,0-24.409.881,26.5,26.5,0,0,0-3.461,2.2,26.079,26.079,0,0,0-2.982,2.567,28.335,28.335,0,0,0-4.462,5.746,29.07,29.07,0,0,0-2.58,5.823,30.061,30.061,0,0,0-1.361,9.176,16.539,16.539,0,0,1-.013,3.483,8.307,8.307,0,0,1-.83-3.436,26.206,26.206,0,0,1,.729-9.646,28.641,28.641,0,0,1,2.487-6.276A28.937,28.937,0,0,1,399,5162.688a28.407,28.407,0,0,1,11.08,9.223,26.227,26.227,0,0,1,4.1,8.761,8.332,8.332,0,0,1,.439,3.5Z" transform="translate(-357.909 -5159.941)" fill="#e1e1e1"/>
          </g>
        </g>
        <g id="Grupo_1117753" data-name="Grupo 1117753" transform="translate(24.554 17.34)">
          <path id="Trazado_909293" data-name="Trazado 909293" d="M392.53,5205.561l.807,4.868-4.341.718-.784-4.735a20.887,20.887,0,0,1-11.4-1.686l1.512-5.7a17.8,17.8,0,0,0,8.937,1.689l-1.2-7.259c-5.018-.372-10.673-1.089-11.7-7.3-.766-4.606,1.929-9.117,8.667-11.037l-.8-4.823,4.341-.72.785,4.739a19.912,19.912,0,0,1,9.26,1.19l-1.287,5.705a18.077,18.077,0,0,0-7.022-1.159l1.224,7.391c5.01.331,10.579,1.063,11.594,7.188C401.872,5199.146,399.215,5203.605,392.53,5205.561ZM385,5187.069l-1.021-6.171c-2.215.9-2.92,2.314-2.681,3.749.248,1.521,1.688,2.132,3.7,2.422Zm9.209,9.237c-.255-1.522-1.65-2.139-3.626-2.483l.992,6c2.094-.839,2.864-2.128,2.633-3.516Z" transform="translate(-374.234 -5169.574)" fill="#e1e1e1"/>
        </g>
      </g>
      <g id="Grupo_1117759" data-name="Grupo 1117759" transform="translate(1238.557 6769.827)">
        <g id="Grupo_1117757" data-name="Grupo 1117757" transform="translate(0 0)">
          <path id="Trazado_909294" data-name="Trazado 909294" d="M423.459,5183.7a37.171,37.171,0,1,1-42.281-31.13,37.17,37.17,0,0,1,42.281,31.13Z" transform="translate(-349.541 -5152.139)" fill="#f5f5f5"/>
          <g id="Grupo_1117755" data-name="Grupo 1117755" transform="translate(8.844 8.827)">
            <path id="Trazado_909295" data-name="Trazado 909295" d="M414.763,5185.065a28.325,28.325,0,1,1-32.222-23.724A28.324,28.324,0,0,1,414.763,5185.065Z" transform="translate(-358.435 -5161.016)" fill="#ececec"/>
          </g>
          <g id="Grupo_1117756" data-name="Grupo 1117756" transform="translate(8.32 7.761)">
            <path id="Trazado_909296" data-name="Trazado 909296" d="M414.623,5184.177a16.615,16.615,0,0,1-1.247-3.255,30.093,30.093,0,0,0-4.525-8.1,29.129,29.129,0,0,0-4.476-4.53,28.406,28.406,0,0,0-6.209-3.791,27.769,27.769,0,0,0-24.409.881,26.5,26.5,0,0,0-3.461,2.2,26.079,26.079,0,0,0-2.982,2.567,28.335,28.335,0,0,0-4.462,5.746,29.07,29.07,0,0,0-2.58,5.823,30.061,30.061,0,0,0-1.361,9.176,16.539,16.539,0,0,1-.013,3.483,8.307,8.307,0,0,1-.83-3.436,26.206,26.206,0,0,1,.729-9.646,28.641,28.641,0,0,1,2.487-6.276A28.937,28.937,0,0,1,399,5162.688a28.407,28.407,0,0,1,11.08,9.223,26.227,26.227,0,0,1,4.1,8.761,8.332,8.332,0,0,1,.439,3.5Z" transform="translate(-357.909 -5159.941)" fill="#e1e1e1"/>
          </g>
        </g>
        <g id="Grupo_1117758" data-name="Grupo 1117758" transform="translate(24.554 17.34)">
          <path id="Trazado_909297" data-name="Trazado 909297" d="M392.53,5205.561l.807,4.868-4.341.718-.784-4.735a20.887,20.887,0,0,1-11.4-1.686l1.512-5.7a17.8,17.8,0,0,0,8.937,1.689l-1.2-7.259c-5.018-.372-10.673-1.089-11.7-7.3-.766-4.606,1.929-9.117,8.667-11.037l-.8-4.823,4.341-.72.785,4.739a19.912,19.912,0,0,1,9.26,1.19l-1.287,5.705a18.077,18.077,0,0,0-7.022-1.159l1.224,7.391c5.01.331,10.579,1.063,11.594,7.188C401.872,5199.146,399.215,5203.605,392.53,5205.561ZM385,5187.069l-1.021-6.171c-2.215.9-2.92,2.314-2.681,3.749.248,1.521,1.688,2.132,3.7,2.422Zm9.209,9.237c-.255-1.522-1.65-2.139-3.626-2.483l.992,6c2.094-.839,2.864-2.128,2.633-3.516Z" transform="translate(-374.234 -5169.574)" fill="#e1e1e1"/>
        </g>
      </g>
    </g>
  </g>
</svg>
