<svg xmlns="http://www.w3.org/2000/svg" width="505" height="397" viewBox="0 0 505 397">
  <g id="Grupo_1118047" data-name="Grupo 1118047" transform="translate(-915 -1814)">
    <g id="Grupo_1115744" data-name="Grupo 1115744" transform="translate(915 1814)">
      <rect id="Rectángulo_405611" data-name="Rectángulo 405611" width="505" height="397" fill="#dcecf7"/>
    </g>
    <g id="identif" transform="translate(-76.527 360.021)">
      <g id="Grupo_1117182" data-name="Grupo 1117182" transform="translate(1054.96 1535.431)">
        <path id="Trazado_908496" data-name="Trazado 908496" d="M939.987,587.326h66.651a8.827,8.827,0,0,1,8.8,8.8v62.1a.982.982,0,0,1-1.677.694l-15-15H939.987a8.829,8.829,0,0,1-8.8-8.8V596.128a8.829,8.829,0,0,1,8.8-8.8Z" transform="translate(-830.215 -583.93)" fill="#d3ebfa" fill-rule="evenodd"/>
        <path id="Trazado_908501" data-name="Trazado 908501" d="M1200.409,728.672Zm3.639-13.856a7,7,0,1,1-2.05,4.95A7,7,0,0,1,1204.048,714.816Zm1.512-6.939a12.352,12.352,0,0,0-5.149,2.983.429.429,0,0,1-.513.061l-3.254-1.876-.018-.01a.813.813,0,0,0-1.084.3l-.014.021-2.289,3.964a.814.814,0,0,0,.3,1.1l.023.014,3.226,1.863a.426.426,0,0,1,.2.474h0a12.184,12.184,0,0,0-.273,1.479,12.4,12.4,0,0,0,.273,4.5.432.432,0,0,1-.228.489l-3.225,1.863h0a.813.813,0,0,0-.3,1.1l2.3,3.987h0a.81.81,0,0,0,1.1.3l.026-.012,3.231-1.866a.433.433,0,0,1,.511.062,12.275,12.275,0,0,0,5.161,2.989.43.43,0,0,1,.312.414v3.75a.81.81,0,0,0,.805.805h4.6a.81.81,0,0,0,.8-.805v-3.75a.432.432,0,0,1,.332-.418,12.351,12.351,0,0,0,5.151-2.983.429.429,0,0,1,.534-.048l3.231,1.864a.811.811,0,0,0,1.1-.3l.014-.021,2.289-3.966h0a.814.814,0,0,0-.3-1.1l-3.25-1.876a.432.432,0,0,1-.2-.476h0a12.108,12.108,0,0,0,.272-1.477,12.592,12.592,0,0,0,0-3.016,12.209,12.209,0,0,0-.272-1.478.431.431,0,0,1,.228-.487l3.226-1.863a.816.816,0,0,0,.3-1.1l-.014-.024-2.289-3.964h0a.811.811,0,0,0-1.1-.3h0l-3.252,1.878a.43.43,0,0,1-.522-.07,12.448,12.448,0,0,0-2.4-1.8,12.324,12.324,0,0,0-2.761-1.175.43.43,0,0,1-.313-.414v-3.75a.808.808,0,0,0-.8-.8h-4.6a.808.808,0,0,0-.805.8v3.75a.43.43,0,0,1-.321.414Z" transform="translate(-850.045 -592.677)" fill="#cdb9f8" fill-rule="evenodd"/>
        <path id="Trazado_908502" data-name="Trazado 908502" d="M1224.345,654.422a10.413,10.413,0,1,1-2.26,3.384A10.412,10.412,0,0,1,1224.345,654.422Zm3.75-1.371a9.508,9.508,0,1,0,3.616-.714A9.508,9.508,0,0,0,1228.1,653.051Zm-1.152-7.665a17.032,17.032,0,0,0-7.084,4.11,1.086,1.086,0,0,1-1.3.157c-1.53-.883-3.138-1.758-4.636-2.677a.631.631,0,0,0-.225-.069.7.7,0,0,0-.256.02.673.673,0,0,0-.234.114.659.659,0,0,0-.168.192c-1.116,1.688-2.235,3.867-3.267,5.656a.63.63,0,0,0-.081.24.661.661,0,0,0,.021.264.643.643,0,0,0,.306.4c1.375.909,3.15,1.82,4.606,2.663a1.093,1.093,0,0,1,.529.75l.095.031-.108.429q-.124.507-.219,1.012t-.15,1.027c-.043.348-.075.694-.094,1.035s-.031.682-.031,1.05.01.714.031,1.05.051.688.094,1.036.1.7.15,1.027.136.675.219,1.012a1.083,1.083,0,0,1-.562,1.23l-4.078,2.356h0l-.483.279a.645.645,0,0,0-.3.4.654.654,0,0,0-.021.263.63.63,0,0,0,.081.24l3.021,5.233h0l.246.423a.637.637,0,0,0,.168.192.678.678,0,0,0,.234.114.7.7,0,0,0,.262.019.655.655,0,0,0,.239-.081c1.461-.919,3.109-1.8,4.618-2.665a1.087,1.087,0,0,1,1.3.15h0A17.181,17.181,0,0,0,1227,678.2a1.09,1.09,0,0,1,.79,1.05v5.323a.63.63,0,0,0,.05.25.688.688,0,0,0,.36.36.656.656,0,0,0,.25.049h6.532a.661.661,0,0,0,.252-.049.648.648,0,0,0,.215-.15.7.7,0,0,0,.15-.216.653.653,0,0,0,.05-.25V679.24a1.086,1.086,0,0,1,.237-.677,1.1,1.1,0,0,1,.6-.388,16.358,16.358,0,0,0,1.919-.683,16.655,16.655,0,0,0,1.843-.921,17.2,17.2,0,0,0,3.322-2.5,1.092,1.092,0,0,1,1.35-.124l4.558,2.631a.633.633,0,0,0,.241.081.691.691,0,0,0,.264-.019.678.678,0,0,0,.234-.114.654.654,0,0,0,.168-.192c1.083-1.888,2.182-3.768,3.267-5.656a.639.639,0,0,0,.08-.24.677.677,0,0,0-.02-.261.662.662,0,0,0-.113-.235.615.615,0,0,0-.189-.168l-4.611-2.662a1.069,1.069,0,0,1-.459-.516.912.912,0,0,1-.059-.174l-.122-.025.122-.489c.083-.337.15-.675.219-1.012s.111-.67.15-1.027.073-.7.094-1.038.03-.682.03-1.05-.009-.712-.03-1.05-.051-.687-.094-1.035-.1-.706-.15-1.031-.136-.673-.219-1.011a1.088,1.088,0,0,1,.56-1.232l4.566-2.635a.637.637,0,0,0,.192-.168.667.667,0,0,0,.112-.234.685.685,0,0,0,.02-.262.65.65,0,0,0-.079-.241c-1.115-1.65-2.233-3.873-3.267-5.656a.68.68,0,0,0-.666-.326.638.638,0,0,0-.24.082l-4.614,2.663a1.081,1.081,0,0,1-.691.138,1.1,1.1,0,0,1-.624-.308,17.022,17.022,0,0,0-3.311-2.491,16.8,16.8,0,0,0-3.808-1.617,1.093,1.093,0,0,1-.792-1.05V639a.65.65,0,0,0-.049-.249.67.67,0,0,0-.15-.216.657.657,0,0,0-.214-.15.664.664,0,0,0-.252-.05h-6.532a.663.663,0,0,0-.66.66v5.323a1.093,1.093,0,0,1-.841,1.062Zm-2.3-.2a18.026,18.026,0,0,0-5.458,3.625.135.135,0,0,1-.153.018q-2.327-1.35-4.65-2.688a1.581,1.581,0,0,0-.582-.181,1.621,1.621,0,0,0-1.6.8c-1.125,1.821-2.191,3.792-3.268,5.655a1.638,1.638,0,0,0,.122,1.8,1.588,1.588,0,0,0,.476.417c1.483.917,3.093,1.786,4.611,2.662a.135.135,0,0,1,.052.06.128.128,0,0,1,0,.081l-.1.43h0c-.046.208-.09.421-.131.637-.066.367-.123.73-.166,1.087s-.075.719-.1,1.092-.034.75-.034,1.1.01.726.034,1.1.055.741.1,1.093.1.718.168,1.087.15.723.229,1.069a.134.134,0,0,1,0,.084.136.136,0,0,1-.057.062c-1.7.9-3.414,1.969-5.089,2.937l.059.075-.051.063a1.632,1.632,0,0,0-.12,1.8l3.511,6.079.066-.039q.052.047.108.09a1.64,1.64,0,0,0,1.788.129c1.536-.816,3.115-1.8,4.63-2.674a.135.135,0,0,1,.08-.013.13.13,0,0,1,.075.034,17.945,17.945,0,0,0,7.534,4.35.129.129,0,0,1,.066.047.118.118,0,0,1,.026.078v5.323a1.637,1.637,0,0,0,1,1.5,1.6,1.6,0,0,0,.62.124h6.532a1.608,1.608,0,0,0,.62-.124,1.686,1.686,0,0,0,.528-.353,1.652,1.652,0,0,0,.353-.528,1.622,1.622,0,0,0,.125-.621v-5.323a.133.133,0,0,1,.025-.081.129.129,0,0,1,.072-.045l.021-.008a17.915,17.915,0,0,0,5.835-2.917,17.877,17.877,0,0,0,1.674-1.429.13.13,0,0,1,.075-.036.136.136,0,0,1,.084.021L1249,677.4a1.608,1.608,0,0,0,.6.2,1.672,1.672,0,0,0,.633-.042,1.63,1.63,0,0,0,.979-.741c1.211-1.95,2.357-4.081,3.511-6.082l-.062-.036a1.465,1.465,0,0,0,.025-.15,1.63,1.63,0,0,0-.795-1.618l-4.611-2.663a.129.129,0,0,1-.052-.059.151.151,0,0,1,0-.084l.12-.488h0c.041-.189.078-.383.115-.577q.1-.554.168-1.089c.042-.352.076-.719.1-1.093s.034-.75.034-1.1-.012-.726-.034-1.1-.055-.741-.1-1.1-.1-.715-.168-1.087-.15-.721-.229-1.066a.134.134,0,0,1,.008-.086.136.136,0,0,1,.058-.06l4.606-2.659a1.593,1.593,0,0,0,.474-.419,1.62,1.62,0,0,0,.321-1.2,1.575,1.575,0,0,0-.193-.586c-1.1-2.034-2.355-4.083-3.516-6.094l-.066.039c-.036-.031-.072-.062-.109-.09a1.619,1.619,0,0,0-.569-.281,1.67,1.67,0,0,0-.633-.042,1.6,1.6,0,0,0-.6.2l-.342.2h0l-4.276,2.467a.131.131,0,0,1-.083.015.116.116,0,0,1-.072-.036l-.012-.011a18.157,18.157,0,0,0-3.495-2.631,17.844,17.844,0,0,0-4.029-1.711.137.137,0,0,1-.066-.045.122.122,0,0,1-.025-.078V639a1.629,1.629,0,0,0-.479-1.147,1.662,1.662,0,0,0-.526-.353,1.608,1.608,0,0,0-.62-.124h-6.532a1.6,1.6,0,0,0-.619.125,1.683,1.683,0,0,0-.528.352,1.62,1.62,0,0,0-.477,1.147v5.323a.14.14,0,0,1-.026.081.127.127,0,0,1-.072.043h-.021a18.056,18.056,0,0,0-2.069.738Z" transform="translate(-851.224 -587.718)" fill="#d3ebfa" fill-rule="evenodd"/>
        <g id="Grupo_1117169" data-name="Grupo 1117169" transform="translate(105.418 0)">
          <path id="Trazado_908503" data-name="Trazado 908503" d="M944.808,583.653h66.653a8.827,8.827,0,0,1,8.8,8.8v62.1a.982.982,0,0,1-1.677.7l-15-15H944.808A8.829,8.829,0,0,1,936,631.441V592.456a8.829,8.829,0,0,1,8.808-8.8Z" transform="translate(-936 -583.653)" fill="#fed6a8" fill-rule="evenodd"/>
          <g id="Grupo_1117168" data-name="Grupo 1117168" transform="translate(12.96 7.207)">
            <path id="Trazado_908504" data-name="Trazado 908504" d="M952.89,630.053h34.575a2.872,2.872,0,0,0,2.865-2.863V600.941a2.873,2.873,0,0,0-2.865-2.863H986.06v-1.333a.79.79,0,0,0-.789-.789H974.824a.79.79,0,0,0-.789.789v1.333H952.886a2.872,2.872,0,0,0-2.865,2.863V627.19A2.872,2.872,0,0,0,952.89,630.053Z" transform="translate(-950.021 -591.793)" fill="#a66d58" fill-rule="evenodd"/>
            <path id="Trazado_908505" data-name="Trazado 908505" d="M3.787,0H22.729a3.787,3.787,0,0,1,3.787,3.787V23.182a3.786,3.786,0,0,1-3.786,3.786H3.786A3.786,3.786,0,0,1,0,23.18V3.787A3.787,3.787,0,0,1,3.787,0Z" transform="translate(2.815 11.296)" fill="#fff"/>
            <path id="Trazado_908506" data-name="Trazado 908506" d="M956.7,630.326h31.925a5.044,5.044,0,0,0,4.14-2.863l10.063-22.591c.7-1.575-.013-2.863-1.589-2.863h-1.677l.631-1.417c.257-.574,0-1.05-.579-1.05H987.962a1.844,1.844,0,0,0-1.512,1.05l-.631,1.417h-16.5a5.045,5.045,0,0,0-4.14,2.863l-10.063,22.591C954.409,629.037,955.125,630.326,956.7,630.326Z" transform="translate(-950.384 -592.064)" fill="#d9a171" fill-rule="evenodd"/>
            <g id="Grupo_1117167" data-name="Grupo 1117167" transform="translate(19.253 13.407)">
              <path id="Trazado_908507" data-name="Trazado 908507" d="M974.107,609.213a11.122,11.122,0,1,1-3.258,7.864A11.122,11.122,0,0,1,974.107,609.213Zm7.864-1.665a9.528,9.528,0,1,0,6.738,2.79,9.527,9.527,0,0,0-6.738-2.79Z" transform="translate(-970.849 -605.955)" fill="#344154" fill-rule="evenodd"/>
              <path id="Trazado_908508" data-name="Trazado 908508" d="M990.143,626.375a.8.8,0,0,1,1.125-1.125l2.632,2.631a.8.8,0,1,1-1.126,1.126Z" transform="translate(-972.283 -607.389)" fill="#344154" fill-rule="evenodd"/>
              <path id="Trazado_908509" data-name="Trazado 908509" d="M993.078,630.436a1.593,1.593,0,0,1,2.25-2.25l8.484,8.484a1.593,1.593,0,0,1-2.25,2.25Z" transform="translate(-972.479 -607.585)" fill="#344154" fill-rule="evenodd"/>
              <path id="Trazado_908510" data-name="Trazado 908510" d="M987.655,611.97a.53.53,0,1,1,.75-.75,8.8,8.8,0,0,1,2.582,6.24h0a8.85,8.85,0,0,1-.344,2.445.526.526,0,0,1-1.012-.29,7.744,7.744,0,0,0,.3-2.155h0a7.742,7.742,0,0,0-2.278-5.5Zm1.05,9.7a.525.525,0,0,1,.883.567,8.63,8.63,0,0,1-.554.765,8.733,8.733,0,0,1-.633.707.53.53,0,0,1-.75-.75,7.767,7.767,0,0,0,.56-.62,7.63,7.63,0,0,0,.487-.676Zm-12.039,1.3a.53.53,0,1,1-.75.75,8.824,8.824,0,0,1-1.994-9.414.524.524,0,0,1,.978.375,7.759,7.759,0,0,0,1.759,8.295Zm-.814-10.038a.524.524,0,1,1-.85-.612c.141-.2.286-.383.439-.561l.026-.027q.239-.277.458-.5a.53.53,0,1,1,.75.75q-.233.233-.406.434l-.024.029c-.148.158-.277.33-.4.48Z" transform="translate(-971.037 -606.345)" fill="#fff" fill-rule="evenodd"/>
            </g>
            <path id="Trazado_908511" data-name="Trazado 908511" d="M989.178,591.451h25.137a.585.585,0,0,1,.583.584h0a.585.585,0,0,1-.583.583H989.178a.585.585,0,0,1-.583-.583h0A.585.585,0,0,1,989.178,591.451Z" transform="translate(-952.938 -591.451)" fill="#efeef8" fill-rule="evenodd"/>
            <path id="Trazado_908512" data-name="Trazado 908512" d="M989.178,595.41h25.137a.585.585,0,0,1,.583.582h0a.585.585,0,0,1-.583.583H989.178a.585.585,0,0,1-.583-.584h0A.585.585,0,0,1,989.178,595.41Z" transform="translate(-952.938 -591.75)" fill="#efeef8" fill-rule="evenodd"/>
            <path id="Trazado_908513" data-name="Trazado 908513" d="M1011.24,599.77h4.746a.585.585,0,0,1,.583.583h0a.585.585,0,0,1-.583.583h-4.746a.585.585,0,0,1-.584-.583h0a.585.585,0,0,1,.583-.583Z" transform="translate(-954.609 -592.08)" fill="#efeef8" fill-rule="evenodd"/>
            <path id="Trazado_908514" data-name="Trazado 908514" d="M1011.24,604.245h4.746a.585.585,0,0,1,.583.583h0a.585.585,0,0,1-.583.583h-4.746a.585.585,0,0,1-.584-.583h0a.585.585,0,0,1,.583-.583Z" transform="translate(-954.609 -592.419)" fill="#efeef8" fill-rule="evenodd"/>
            <path id="Trazado_908515" data-name="Trazado 908515" d="M1011.24,608.72h4.746a.585.585,0,0,1,.583.583h0a.585.585,0,0,1-.583.583h-4.746a.585.585,0,0,1-.584-.583h0a.585.585,0,0,1,.583-.584Z" transform="translate(-954.609 -592.758)" fill="#efeef8" fill-rule="evenodd"/>
            <path id="Trazado_908516" data-name="Trazado 908516" d="M1011.239,613.2h4.746a.585.585,0,0,1,.583.583h0a.583.583,0,0,1-.583.582h-4.746a.583.583,0,0,1-.583-.582h0a.585.585,0,0,1,.583-.583Z" transform="translate(-954.609 -593.095)" fill="#efeef8" fill-rule="evenodd"/>
            <path id="Trazado_908517" data-name="Trazado 908517" d="M1011.239,617.671h4.746a.585.585,0,0,1,.583.583h0a.583.583,0,0,1-.583.582h-4.746a.583.583,0,0,1-.583-.582h0a.585.585,0,0,1,.583-.583Z" transform="translate(-954.609 -593.435)" fill="#efeef8" fill-rule="evenodd"/>
            <path id="Trazado_908518" data-name="Trazado 908518" d="M1011.24,622.146h4.746a.585.585,0,0,1,.583.583h0a.585.585,0,0,1-.583.583h-4.746a.585.585,0,0,1-.584-.584h0a.585.585,0,0,1,.583-.583Z" transform="translate(-954.609 -593.775)" fill="#efeef8" fill-rule="evenodd"/>
            <rect id="Rectángulo_406015" data-name="Rectángulo 406015" width="13.205" height="1.167" rx="0.389" transform="translate(48.754 32.508)" fill="#efeef8"/>
            <path id="Trazado_908519" data-name="Trazado 908519" d="M1004.641,622.146h3.553a.585.585,0,0,1,.585.583h0a.585.585,0,0,1-.585.583h-3.553a.585.585,0,0,1-.584-.584h0A.585.585,0,0,1,1004.641,622.146Z" transform="translate(-954.109 -593.775)" fill="#efeef8" fill-rule="evenodd"/>
            <path id="Trazado_908520" data-name="Trazado 908520" d="M1006.362,617.671h1.791a.585.585,0,0,1,.584.583h0a.583.583,0,0,1-.583.582h-1.791a.583.583,0,0,1-.583-.582h0a.585.585,0,0,1,.583-.583Z" transform="translate(-954.24 -593.435)" fill="#efeef8" fill-rule="evenodd"/>
            <path id="Trazado_908521" data-name="Trazado 908521" d="M1007.712,613.2h1.309a.587.587,0,0,1,.583.583h0a.585.585,0,0,1-.583.582h-1.309a.583.583,0,0,1-.583-.582h0a.585.585,0,0,1,.583-.583Z" transform="translate(-954.342 -593.095)" fill="#efeef8" fill-rule="evenodd"/>
          </g>
        </g>
        <g id="Grupo_1117170" data-name="Grupo 1117170" transform="translate(121.473 72.062)">
          <path id="Trazado_908522" data-name="Trazado 908522" d="M1.519,0h1.65A1.519,1.519,0,0,1,4.686,1.519v1.65A1.521,1.521,0,0,1,3.166,4.686H1.516A1.521,1.521,0,0,1,0,3.166V1.516A1.519,1.519,0,0,1,1.519,0Z" fill="#80bbe7"/>
          <path id="Trazado_908523" data-name="Trazado 908523" d="M1.519,0h1.65A1.519,1.519,0,0,1,4.686,1.519v1.65A1.521,1.521,0,0,1,3.165,4.686H1.515A1.519,1.519,0,0,1,0,3.166V1.516A1.519,1.519,0,0,1,1.519,0Z" transform="translate(9.607)" fill="#fff"/>
          <path id="Trazado_908524" data-name="Trazado 908524" d="M1.519,0h1.65A1.519,1.519,0,0,1,4.686,1.519v1.65A1.521,1.521,0,0,1,3.165,4.686H1.515A1.521,1.521,0,0,1,0,3.166V1.516A1.519,1.519,0,0,1,1.519,0Z" transform="translate(19.211)" fill="#80bbe7"/>
          <path id="Trazado_908525" data-name="Trazado 908525" d="M1.519,0h1.65A1.519,1.519,0,0,1,4.686,1.519v1.65A1.521,1.521,0,0,1,3.165,4.686H1.515A1.521,1.521,0,0,1,0,3.166V1.516A1.519,1.519,0,0,1,1.519,0Z" transform="translate(28.818)" fill="#80bbe7"/>
        </g>
        <path id="Trazado_908526" data-name="Trazado 908526" d="M873.314,616.73c-.355,0-.644-.411-.644-.918s.288-.918.644-.918h30.1c.355,0,.642.411.642.918s-.288.918-.642.918Zm-4.081-1.836c.355,0,.642.411.642.918s-.288.918-.642.918h-2.518c-.356,0-.642-.411-.642-.918s.288-.918.642-.918Z" transform="translate(-825.288 -586.017)" fill="#80bbe7" fill-rule="evenodd"/>
        <path id="Trazado_908527" data-name="Trazado 908527" d="M912.5,654.219a.388.388,0,0,1,.777,0v1.747a.388.388,0,0,1-.777,0Zm-2.646,1.417a.388.388,0,0,1,.549-.549l1.234,1.234a.389.389,0,1,1-.551.549l-1.234-1.234Zm-.869,2.874a.388.388,0,0,1,0-.777h1.747a.388.388,0,0,1,0,.777Zm1.417,2.646a.388.388,0,0,1-.549-.549l1.234-1.234a.389.389,0,1,1,.55.549l-1.234,1.234Zm2.874.868a.388.388,0,1,1-.777,0v-1.746a.388.388,0,0,1,.777,0Zm2.646-1.417a.388.388,0,1,1-.549.549l-1.234-1.234a.389.389,0,0,1,.547-.549l1.234,1.234Zm.868-2.874a.388.388,0,1,1,0,.777h-1.741a.388.388,0,1,1,0-.777Zm-1.417-2.646a.388.388,0,0,1,.549.549l-1.234,1.234a.388.388,0,0,1-.547-.549Z" transform="translate(-828.505 -588.964)" fill="#80bbe7" fill-rule="evenodd"/>
        <path id="Trazado_908528" data-name="Trazado 908528" d="M1159.832,603.793a.388.388,0,0,1,.777,0v1.746a.388.388,0,1,1-.777,0Zm-2.646,1.417a.388.388,0,1,1,.549-.549l1.234,1.234a.389.389,0,1,1-.55.549l-1.235-1.234Zm-.868,2.872a.388.388,0,1,1,0-.776h1.746a.389.389,0,1,1,0,.776Zm1.417,2.646a.389.389,0,0,1-.549-.548l1.235-1.236a.389.389,0,0,1,.55.55l-1.234,1.234Zm2.874.868a.388.388,0,1,1-.777,0v-1.75a.388.388,0,0,1,.777,0v1.747Zm2.646-1.417a.388.388,0,1,1-.55.547l-1.234-1.234a.389.389,0,0,1,.551-.551l1.234,1.236Zm.869-2.874a.389.389,0,1,1,0,.776h-1.746a.388.388,0,1,1,0-.775Zm-1.417-2.646a.389.389,0,1,1,.55.549l-1.234,1.234a.389.389,0,0,1-.55-.549Z" transform="translate(-847.235 -585.148)" fill="#80bbe7" fill-rule="evenodd"/>
        <path id="Trazado_908529" data-name="Trazado 908529" d="M1191.952,795.651a.388.388,0,0,1,.777,0V797.4a.389.389,0,0,1-.777,0Zm-2.646,1.417a.389.389,0,1,1,.549-.55l1.235,1.234a.388.388,0,0,1-.549.549l-1.236-1.234Zm-.868,2.872a.388.388,0,1,1,0-.777h1.746a.388.388,0,0,1,0,.777Zm1.417,2.646a.389.389,0,0,1-.549-.55l1.236-1.234a.388.388,0,0,1,.549.549l-1.234,1.234Zm2.874.868a.389.389,0,0,1-.777,0V801.71a.388.388,0,0,1,.777,0Zm2.646-1.417a.389.389,0,0,1-.549.55l-1.234-1.234a.388.388,0,0,1,.549-.549l1.234,1.234Zm.869-2.872a.388.388,0,0,1,0,.777H1194.5a.388.388,0,1,1,0-.777Zm-1.417-2.646a.389.389,0,0,1,.549.551l-1.234,1.234a.388.388,0,0,1-.549-.549Z" transform="translate(-849.659 -599.669)" fill="#80bbe7" fill-rule="evenodd"/>
        <path id="Trazado_908530" data-name="Trazado 908530" d="M831.172,728.948a.388.388,0,0,1,.777,0v1.746a.388.388,0,0,1-.777,0Zm-2.646,1.417a.389.389,0,1,1,.549-.551l1.234,1.234a.388.388,0,0,1-.549.549l-1.234-1.234Zm-.868,2.874a.388.388,0,0,1,0-.777H829.4a.388.388,0,1,1,0,.777Zm1.417,2.646a.388.388,0,0,1-.549-.549l1.234-1.234a.388.388,0,0,1,.549.547l-1.234,1.234Zm2.874.868a.388.388,0,0,1-.777,0v-1.747a.388.388,0,0,1,.777,0Zm2.646-1.417a.389.389,0,0,1-.547.549l-1.236-1.235a.389.389,0,1,1,.549-.547l1.234,1.234Zm.868-2.874a.388.388,0,0,1,0,.777h-1.746a.388.388,0,0,1,0-.777Zm-1.417-2.646a.389.389,0,0,1,.547.551l-1.234,1.234a.388.388,0,0,1-.549-.549Z" transform="translate(-822.349 -594.621)" fill="#80bbe7" fill-rule="evenodd"/>
        <path id="Trazado_908531" data-name="Trazado 908531" d="M1245.563,768.538a.388.388,0,1,1,.775,0v1.746a.389.389,0,1,1-.776,0Zm-2.646,1.417a.389.389,0,0,1,.548-.549l1.236,1.235a.389.389,0,0,1-.549.55l-1.235-1.234Zm-.868,2.872a.388.388,0,0,1,0-.777h1.746a.388.388,0,1,1,0,.777Zm1.417,2.646a.389.389,0,0,1-.548-.549l1.235-1.234a.388.388,0,0,1,.549.549Zm2.874.868a.388.388,0,1,1-.775,0V774.6a.389.389,0,1,1,.776,0Zm2.646-1.417a.389.389,0,0,1-.547.549l-1.236-1.235a.389.389,0,0,1,.549-.549Zm.868-2.874a.388.388,0,1,1,0,.777h-1.746a.388.388,0,0,1,0-.777Zm-1.417-2.646a.388.388,0,0,1,.547.549l-1.234,1.234a.389.389,0,1,1-.549-.55Z" transform="translate(-853.716 -597.627)" fill="#80bbe7" fill-rule="evenodd"/>
        <path id="Trazado_908532" data-name="Trazado 908532" d="M829.225,648.268Zm3.64-13.858a7,7,0,1,1-2.05,4.95A7,7,0,0,1,832.865,634.41Zm1.512-6.939a12.343,12.343,0,0,0-5.152,2.979.43.43,0,0,1-.513.063l-3.252-1.879-.018-.011a.813.813,0,0,0-1.083.3l-.013.023-2.289,3.963a.813.813,0,0,0,.3,1.1l.023.013,3.226,1.863a.429.429,0,0,1,.2.474h0a12.179,12.179,0,0,0-.272,1.479,12.48,12.48,0,0,0,0,3.016,12.181,12.181,0,0,0,.272,1.477.43.43,0,0,1-.226.487l-3.226,1.863h0a.812.812,0,0,0-.3,1.1l2.3,3.987h0a.81.81,0,0,0,1.1.3l.024-.013,3.231-1.866a.431.431,0,0,1,.511.062,12.464,12.464,0,0,0,2.4,1.815,12.317,12.317,0,0,0,2.761,1.173.43.43,0,0,1,.312.414v3.75a.81.81,0,0,0,.805.805h4.6a.811.811,0,0,0,.806-.805v-3.75a.43.43,0,0,1,.33-.418,12.3,12.3,0,0,0,2.745-1.168,12.435,12.435,0,0,0,2.4-1.815.43.43,0,0,1,.534-.05l3.231,1.866a.81.81,0,0,0,1.1-.3l.013-.023,2.289-3.966h0a.811.811,0,0,0-.3-1.1L850,642.8a.427.427,0,0,1-.2-.472h0a12.253,12.253,0,0,0,.272-1.479,12.468,12.468,0,0,0,0-3.016,12.157,12.157,0,0,0-.272-1.479.432.432,0,0,1,.226-.487l3.226-1.863a.813.813,0,0,0,.3-1.1l-.014-.024-2.265-3.948h0a.812.812,0,0,0-1.1-.3h0l-3.253,1.879a.431.431,0,0,1-.522-.072,12.458,12.458,0,0,0-2.4-1.8,12.287,12.287,0,0,0-2.761-1.173.431.431,0,0,1-.312-.414v-3.75a.81.81,0,0,0-.805-.806h-4.594a.807.807,0,0,0-.806.805v3.75a.429.429,0,0,1-.336.415Z" transform="translate(-821.95 -586.591)" fill="#d3ebfa" fill-rule="evenodd"/>
        <g id="Grupo_1117172" data-name="Grupo 1117172" transform="translate(200.617 0.076)">
          <path id="Trazado_908533" data-name="Trazado 908533" d="M1068.761,703.917c-4.087,3.724-4.726,4.167-4.726,4.167s-2.7,5.127-1.661,5.121a2.9,2.9,0,0,0,1.868-.942s1.012,1.291,1.923.75a12.874,12.874,0,0,1,1.387-.741s1.05,1.035,1.9.36,4.971-5.11,4.971-5.11l5.431-3.561-2.166-1.95Z" transform="translate(-1040.746 -592.689)" fill="#e98daf" fill-rule="evenodd"/>
          <path id="Trazado_908534" data-name="Trazado 908534" d="M1139.957,822.3c-.084.573-.75,3.457-.741,3.529.119.85.327,2.55.327,2.55a7.378,7.378,0,0,1-3.205,2.19c-1.542.277-8.55.591-8.634.208a19.272,19.272,0,0,1,1.749-3.4,8.067,8.067,0,0,0,2.25-5.526C1131.974,817.993,1139.957,822.3,1139.957,822.3Z" transform="translate(-1045.708 -601.637)" fill="#f3c6d4" fill-rule="evenodd"/>
          <path id="Trazado_908535" data-name="Trazado 908535" d="M1130.819,828.591l.858-.3a5.941,5.941,0,0,0,4.389.189,5.249,5.249,0,0,0,3.108-2.208.462.462,0,0,1,.383-.277h.576a1.236,1.236,0,0,1,1.13.726,13.78,13.78,0,0,1,.063,6.564c-.75,2.118-1.8,1.839-1.8,1.839a13.91,13.91,0,0,0-7-.239c-2.818.995-5.4,2.03-5.4,2.03S1127.261,831.3,1130.819,828.591Z" transform="translate(-1045.665 -602.069)" fill="#0e0226" fill-rule="evenodd"/>
          <path id="Trazado_908536" data-name="Trazado 908536" d="M1110.514,836.324l-.309-.912v-1.105c0-.416.172-1.662,1.378-1.662h4.618c1.071,0,6.861-2.943,11.31-6.562a.612.612,0,0,1,.781-.1c.467.268,1.885,1.4,2.03,1.521a.913.913,0,0,1,.077.777c-.086.168-4.2,8.323-4.2,8.323S1114.07,838.192,1110.514,836.324Z" transform="translate(-1044.384 -602.062)" fill="#1a0f44" fill-rule="evenodd"/>
          <path id="Trazado_908537" data-name="Trazado 908537" d="M1110.183,836.011a.763.763,0,0,0-.273.478v.888a1.74,1.74,0,0,0,1.731,1.131h12.817a10.951,10.951,0,0,0,4.575-1,26.461,26.461,0,0,1,3.3-1.208s.3-.1.3.422v1.018c0,.254-.15.947.89.947h6.235c.474,0,1.018-.27,1.018-1.24v-2.488c0-.6-.367-1.083-.762-1.083h-4.8a13.371,13.371,0,0,0-6.114,1.671,16.348,16.348,0,0,1-7.389,1.528h-7.171A8.136,8.136,0,0,1,1110.183,836.011Z" transform="translate(-1044.362 -602.668)" fill="#0e0226" fill-rule="evenodd"/>
          <path id="Trazado_908538" data-name="Trazado 908538" d="M1169.365,822.3c-.084.573-.75,3.457-.741,3.529.118.85.327,2.55.327,2.55a7.377,7.377,0,0,1-3.205,2.19c-1.543.277-8.55.591-8.634.208a19.2,19.2,0,0,1,1.75-3.406,8.066,8.066,0,0,0,2.25-5.526C1161.384,817.993,1169.365,822.3,1169.365,822.3Z" transform="translate(-1047.934 -601.637)" fill="#f3c6d4" fill-rule="evenodd"/>
          <path id="Trazado_908539" data-name="Trazado 908539" d="M1160.229,828.591l.858-.3a5.941,5.941,0,0,0,4.389.189,5.237,5.237,0,0,0,3.106-2.208.466.466,0,0,1,.383-.278h.577a1.236,1.236,0,0,1,1.13.726,13.773,13.773,0,0,1,.063,6.563c-.75,2.118-1.8,1.839-1.8,1.839a13.9,13.9,0,0,0-6.994-.239c-2.82.995-5.4,2.029-5.4,2.029S1156.668,831.3,1160.229,828.591Z" transform="translate(-1047.889 -602.069)" fill="#0e0226" fill-rule="evenodd"/>
          <path id="Trazado_908540" data-name="Trazado 908540" d="M1139.923,836.324l-.311-.912v-1.105c0-.416.174-1.662,1.378-1.662h4.618c1.069,0,6.859-2.943,11.308-6.562a.61.61,0,0,1,.78-.1c.468.268,1.885,1.4,2.03,1.521a.919.919,0,0,1,.076.777l-4.2,8.323S1143.48,838.192,1139.923,836.324Z" transform="translate(-1046.61 -602.062)" fill="#1a0f44" fill-rule="evenodd"/>
          <path id="Trazado_908541" data-name="Trazado 908541" d="M1139.591,836.011a.763.763,0,0,0-.272.478v.888a1.739,1.739,0,0,0,1.731,1.131h12.815a10.949,10.949,0,0,0,4.576-1,26.481,26.481,0,0,1,3.3-1.207s.3-.1.3.421v1.018c0,.254-.15.947.889.947h6.235c.474,0,1.017-.27,1.017-1.24v-2.488c0-.6-.366-1.083-.76-1.083h-4.8a13.374,13.374,0,0,0-6.112,1.671,16.351,16.351,0,0,1-7.387,1.528h-7.173a8.141,8.141,0,0,1-4.36-1.066Z" transform="translate(-1046.589 -602.668)" fill="#0e0226" fill-rule="evenodd"/>
          <path id="Trazado_908542" data-name="Trazado 908542" d="M1087.946,634.052s-2.889,4.848-1.077,15.871,14.323,53.92,5.826,76.3a2.023,2.023,0,0,0,.936,2.38c1.46.846,22.093,4.426,37.178-2S1119.4,637.322,1087.946,634.052Z" transform="translate(-1042.572 -587.543)" fill="#4c708f" fill-rule="evenodd"/>
          <path id="Trazado_908543" data-name="Trazado 908543" d="M1130.507,812.386a13.085,13.085,0,0,0,9.1.812,3.016,3.016,0,0,0,1.78-2.049c.324-1.51,11.005-91.414,12.3-107.375s-8.457-25.7-23.4-35.951-2.436-1.6-3.6-2.25a136.3,136.3,0,0,1-8.053,22.532l-.034,6.76a5.529,5.529,0,0,0,.341,1.338c4.552,18.094,5.089,32.532,5.773,50.734.029.531-.267-13.663.061,1.59s3.786,59.114,4,60.841S1129.751,812.224,1130.507,812.386Z" transform="translate(-1045.022 -589.718)" fill="#344154" fill-rule="evenodd"/>
          <path id="Trazado_908544" data-name="Trazado 908544" d="M1090.979,650.86l4.317,7.008s18.3,31.43,20.833,35.906,13.378,3.84,13.378,3.84l-23.162-67.322a101.013,101.013,0,0,0-11.227-1.213c-3.139.066-5.154,4.869-5.154,4.869Z" transform="translate(-1042.853 -587.165)" fill="#344154" fill-rule="evenodd"/>
          <path id="Trazado_908545" data-name="Trazado 908545" d="M1087.946,634.052s-2.889,4.848-1.077,15.871c1.4,8.518,9.189,36.077,8.733,58.5h0c3.984-40.8-3.358-66.608-5.922-74.1C1089.107,634.209,1088.528,634.112,1087.946,634.052Z" transform="translate(-1042.572 -587.543)" fill="#428fcd" fill-rule="evenodd"/>
          <path id="Trazado_908546" data-name="Trazado 908546" d="M1157.77,812.358s3.139,1.755,8.85.516a3.018,3.018,0,0,0,1.779-2.049c.324-1.512,4.6-31.649,5.892-47.614s12.142-75.837-16.5-95.476-34.808,14.249-34.808,14.249,26.714,11.25,27.36,41.223,5.473,84.409,5.689,86.136S1157.014,812.2,1157.77,812.358Z" transform="translate(-1045.356 -589.629)" fill="#5d6776" fill-rule="evenodd"/>
          <path id="Trazado_908547" data-name="Trazado 908547" d="M1162.244,815.239a16.563,16.563,0,0,0,6.5-.221,3.016,3.016,0,0,0,1.779-2.047c.324-1.511,4.6-31.649,5.891-47.614.983-12.109,7.459-49.5-1.978-75.414-.129.09-14.869,10.42-23.353,24.911a46.873,46.873,0,0,1,1.39,10.5c.11,5.059.339,10.815.644,16.9,3.639-3.9,8.475-9.162,10.93-12.109,4.242-5.089,9.015-3.288,10.713-.847s-4.774,63.848-5.622,71.7C1168.544,806.509,1164.555,812.3,1162.244,815.239Z" transform="translate(-1047.479 -591.775)" fill="#858d98" fill-rule="evenodd"/>
          <path id="Trazado_908548" data-name="Trazado 908548" d="M1080.569,614.714c.045,0,.17.525.7,1.413l-2.6,2.736a23.1,23.1,0,0,0,1.615,1.8,5.618,5.618,0,0,0-2.85,2.061s-2.79,8.6-1.98,9.43l-.087.105c-5.026,5.934-8.11,3.969-8.737,3.436s-3.715-3.363-4.05-3.429-1.524,1.343-2.328.661a84.1,84.1,0,0,1-8.956-12.162c-4.25-6.709-1.851-14.435-1.851-14.435,10.359-8.41,18.965,7.428,20.008,4.77s4.014-2.9,5.661.047C1075.348,611.555,1080.51,614.277,1080.569,614.714Z" transform="translate(-1039.736 -585.256)" fill="#f3c6d4" fill-rule="evenodd"/>
          <path id="Trazado_908549" data-name="Trazado 908549" d="M1080.573,614.734c.045,0,.171.525.7,1.413l-2.6,2.736a23.077,23.077,0,0,0,1.615,1.8,6.451,6.451,0,0,0-.841.355,2.112,2.112,0,0,0-.264-1.018c-.706-.815-2.114-2.562-2.114-2.562a1.564,1.564,0,0,1-2.34-1.257c-.372-2.173-2.041-4.3-3.792-3.951s-.75,2.622-.75,2.622l4.138,5.97-.688,7.107s-6.471,1.167-5.143-1.59-2.07-4.881-6-9.334-6.1-3.978-7.107-3.288c-.628.43-3.547,2.388-5.655,3.8a19.12,19.12,0,0,1-.844-8.2,51.227,51.227,0,0,1,8.867-5.25c6.346,1.395,10.95,8.934,11.7,7.035,1.041-2.658,4.014-2.9,5.662.047C1075.352,611.575,1080.513,614.293,1080.573,614.734Z" transform="translate(-1039.74 -585.276)" fill="#e98daf" fill-rule="evenodd"/>
          <path id="Trazado_908550" data-name="Trazado 908550" d="M1084.105,615.595s2.017.133,3.553.2,2.8,9.03,2.8,9.03l-2.617,3.979-.61.928-1.981,3.013-.187-.93s-2.074-1.608-3.381.2-4.576-3.036-4.576-3.036S1076.5,618.356,1084.105,615.595Z" transform="translate(-1041.879 -586.146)" fill="#f3c6d4" fill-rule="evenodd"/>
          <path id="Trazado_908551" data-name="Trazado 908551" d="M1084.32,615.595s2.017.133,3.553.2,2.8,9.03,2.8,9.03l-2.617,3.979-.61.928-1.981,3.013-.187-.93s-2.075-1.608-3.381.2a.96.96,0,0,1-1.259.291l.9-3.732s.706-6.874,0-7.689c-.43-.5-1.119-1.338-1.593-1.92a9.11,9.11,0,0,1,4.377-3.373Z" transform="translate(-1042.093 -586.146)" fill="#e98daf" fill-rule="evenodd"/>
          <path id="Trazado_908552" data-name="Trazado 908552" d="M1065.113,613.159s-4.734,2.31-8.476-4.792c0,0-4.848,5.137-8.005,6.421a2.013,2.013,0,0,1-.2.066l.2-.066a7.139,7.139,0,0,1-2.83-.6,10.1,10.1,0,0,1-5.771-5.071c-2.757-5.515.531-8.326,3.5-7.95,0,0,4.455-9.7,6.946-12.568s8.326-1.65,8.326-1.65-.849-2.493.159-3.076,6.468.5,8.59,6.825c0,0,4.243-.693,6.472,1.468s7.171,20.921,7.2,21.02c.108,1.2-.367,2.4-1.573,2.446a6.162,6.162,0,0,1-5.217-2.437s-1.569-5.6-4.327-4.753c0,0-2.346.023-1.248,3.963a12.241,12.241,0,0,0,2.25,2.85,22.438,22.438,0,0,1,7.349,9.3c2.478,5.791-2.758,9.45-4.2,11.148s-3.852,3.019-5.586,1.549-5.649-4.785-6.243-5.284-.73-1.05-.586-1.216c0,0,2.524-2.679,4.441-4.519s3.414-3.036,3.414-5.14a7.444,7.444,0,0,0-1.981-5.919,9.2,9.2,0,0,0-2.605-2.013Z" transform="translate(-1038.994 -583.735)" fill="#344154" fill-rule="evenodd"/>
          <path id="Trazado_908553" data-name="Trazado 908553" d="M1056.636,608.368s-4.848,5.137-8.005,6.421a2.063,2.063,0,0,1-.2.066l.2-.066a7.14,7.14,0,0,1-2.83-.6,10.1,10.1,0,0,1-5.771-5.071c-2.757-5.515.531-8.326,3.5-7.95,0,0,4.455-9.7,6.946-12.568s8.326-1.65,8.326-1.65-.849-2.493.159-3.076,6.468.5,8.59,6.825C1067.551,590.694,1067.568,597.017,1056.636,608.368Z" transform="translate(-1038.994 -583.734)" fill="#27313f" fill-rule="evenodd"/>
          <path id="Trazado_908554" data-name="Trazado 908554" d="M1039.45,607.825c-1.6-4.6,1.374-6.916,4.086-6.576,0,0,17.183,4.05,19.516-16.349a9.5,9.5,0,0,1,.792.531C1064.063,593.87,1061.546,609.481,1039.45,607.825Z" transform="translate(-1038.992 -583.824)" fill="#344154" fill-rule="evenodd"/>
          <path id="Trazado_908555" data-name="Trazado 908555" d="M1060.176,625.717h0a1.1,1.1,0,0,1,1.548.129l.924,1.094a1.1,1.1,0,0,1-.129,1.548h0a1.1,1.1,0,0,1-1.547-.129l-.925-1.095a1.1,1.1,0,0,1,.129-1.547Z" transform="translate(-1040.568 -586.892)" fill="#344154" fill-rule="evenodd"/>
          <path id="Trazado_908556" data-name="Trazado 908556" d="M1063.78,628.786a1.623,1.623,0,1,1-.19,2.287A1.623,1.623,0,0,1,1063.78,628.786Z" transform="translate(-1040.827 -587.116)" fill="#ed7792" fill-rule="evenodd"/>
          <path id="Trazado_908557" data-name="Trazado 908557" d="M1060.2,623.358a.333.333,0,1,0-.15-.649,4.127,4.127,0,0,0-2.9,2.377.333.333,0,1,0,.627.228,3.45,3.45,0,0,1,2.427-1.956Z" transform="translate(-1040.368 -586.684)" fill="#344154" fill-rule="evenodd"/>
          <path id="Trazado_908558" data-name="Trazado 908558" d="M1094.407,699.988s-14,5.223-15.463,5.929-3.071-5.127-3.207-6.076.867-2.062,2.764-3.15,12.449-7.2,12.449-7.2Z" transform="translate(-1041.775 -591.738)" fill="#fff" fill-rule="evenodd"/>
          <path id="Trazado_908559" data-name="Trazado 908559" d="M1096.743,696.462c-5.121,1.923-13.994,5.274-15.256,5.883-1.79.863-3.75-6.259-3.918-7.419s1.059-2.518,3.378-3.846c1.311-.75,6-3.465,9.826-5.68a10.788,10.788,0,0,0,3.93-7.612c.513-5.238,2.316-29.267,2.316-29.267l14.024,6.238,2.489,3.667s-5.259,22.75-7.321,28.038S1101.282,694.752,1096.743,696.462Z" transform="translate(-1041.914 -588.639)" fill="#344154" fill-rule="evenodd"/>
          <path id="Trazado_908560" data-name="Trazado 908560" d="M1169.392,663.369s9.969,17.249,11.85,43.074a1.219,1.219,0,0,1-.835,1.3c-1,.424-9.346.024-19.156,12.065s-25.487,22.862-34.476,21.449c0,0-.972,0-1.092-1.579s-2-72.233-30.879-97.766a8.25,8.25,0,0,1-2.7-6.216C1092.205,631.783,1137.343,615.774,1169.392,663.369Z" transform="translate(-1043.014 -587.233)" fill="#6595bf" fill-rule="evenodd"/>
          <path id="Trazado_908561" data-name="Trazado 908561" d="M1163.977,682.255l-2.091,7s-4.455.217-16.006-22.96c0,0-4.6-8.929-17.867-11.657l5.91-8.412s25.225,4.455,25.094,6.607S1163.977,682.255,1163.977,682.255Z" transform="translate(-1045.733 -588.466)" fill="#4c708f" fill-rule="evenodd"/>
          <path id="Trazado_908562" data-name="Trazado 908562" d="M1103.028,664.775l8.325-5.592a2.2,2.2,0,0,1,2.765.352l14.549,16.078a1.553,1.553,0,0,1-.279,2.4l-8.325,5.59a2.2,2.2,0,0,1-2.764-.351l-14.549-16.079a1.551,1.551,0,0,1,.279-2.4Z" transform="translate(-1043.788 -589.418)" fill="#344154" fill-rule="evenodd"/>
          <path id="Trazado_908563" data-name="Trazado 908563" d="M1101.721,665.651l8.326-5.592a2.2,2.2,0,0,1,2.763.353l14.55,16.078a1.554,1.554,0,0,1-.279,2.4l-8.326,5.59a2.2,2.2,0,0,1-2.766-.351l-14.55-16.078a1.553,1.553,0,0,1,.282-2.4Z" transform="translate(-1043.691 -589.486)" fill="#1a212a" fill-rule="evenodd"/>
          <path id="Trazado_908564" data-name="Trazado 908564" d="M1103.051,668.188l1.341-.9a.354.354,0,0,1,.45.057l3.6,3.978a.251.251,0,0,1-.045.387l-1.341.9a.354.354,0,0,1-.45-.057l-3.6-3.979a.25.25,0,0,1,.045-.385Z" transform="translate(-1043.834 -590.055)" fill="#674f9b" fill-rule="evenodd"/>
          <path id="Trazado_908565" data-name="Trazado 908565" d="M1104.256,668.257a.883.883,0,0,1,1.14.16.67.67,0,0,1-.137,1.017.882.882,0,0,1-1.138-.161.669.669,0,0,1,.135-1.017Z" transform="translate(-1043.911 -590.121)" fill="#d3ebfa" fill-rule="evenodd"/>
          <path id="Trazado_908566" data-name="Trazado 908566" d="M1105.747,669.925a.883.883,0,0,1,1.138.161.67.67,0,0,1-.136,1.017.884.884,0,0,1-1.139-.16.67.67,0,0,1,.136-1.017Z" transform="translate(-1044.024 -590.248)" fill="#d3ebfa" fill-rule="evenodd"/>
          <path id="Trazado_908567" data-name="Trazado 908567" d="M1105.992,670.206a.5.5,0,0,1,.646.09.381.381,0,0,1-.078.578.5.5,0,0,1-.645-.09.38.38,0,0,1,.077-.577Z" transform="translate(-1044.052 -590.274)" fill="#fff" fill-rule="evenodd"/>
          <path id="Trazado_908568" data-name="Trazado 908568" d="M1104.482,668.514a.536.536,0,0,1,.687.1.4.4,0,0,1-.083.614.532.532,0,0,1-.686-.1.4.4,0,0,1,.081-.612Z" transform="translate(-1043.938 -590.146)" fill="#fff" fill-rule="evenodd"/>
          <path id="Trazado_908569" data-name="Trazado 908569" d="M1107.179,671.521a.531.531,0,0,1,.686.1.4.4,0,0,1-.081.612.533.533,0,0,1-.686-.1.4.4,0,0,1,.081-.612Z" transform="translate(-1044.141 -590.374)" fill="#d3ebfa" fill-rule="evenodd"/>
          <path id="Trazado_908570" data-name="Trazado 908570" d="M1092.453,609.16c-.17.1-3.627.995-4.209,1.255s-.766,1.5-.9,3.592-1.833,17.66-1.914,18.547a1.414,1.414,0,0,0,1,1.683c.768.264,9.622,3.45,9.622,3.45Z" transform="translate(-1042.519 -585.66)" fill="#344154" fill-rule="evenodd"/>
          <path id="Trazado_908571" data-name="Trazado 908571" d="M1143.618,656.591s-13.38,8.866-14.918,9.693,2.515,5.907,3.255,6.625,2.34.55,4.485-.414,14.119-6.27,14.119-6.27Z" transform="translate(-1045.758 -589.249)" fill="#fff" fill-rule="evenodd"/>
          <path id="Trazado_908572" data-name="Trazado 908572" d="M1149.7,650.978s-17.5,11.6-19.51,12.678,3.289,7.725,4.257,8.664,3.06.719,5.863-.542,18.469-8.2,18.469-8.2Z" transform="translate(-1045.863 -588.825)" fill="#1a212a" fill-rule="evenodd"/>
          <path id="Trazado_908573" data-name="Trazado 908573" d="M1110,649.257a116.712,116.712,0,0,0,18.052,2.587c9.794.6,30.132,1.95,31.391,34.433,0,0,.15.172.677-.013s14.688-12.749,16.675-18.781-9.513-28.238-15.82-31.107-18.051-5.206-30.878-18.088-30.476-11.34-30.476-11.34l-3.84,14.216S1097.538,645.579,1110,649.257Z" transform="translate(-1043.294 -585.488)" fill="#84aacc" fill-rule="evenodd"/>
          <path id="Trazado_908574" data-name="Trazado 908574" d="M1157.542,669.227a50,50,0,0,1,3.571,17.92s.15.172.677-.013,14.687-12.75,16.675-18.781c.8-2.416-.57-7.425-2.9-12.75-.009,3.892-.522,8.2-2.466,10.35-2.728,3.012-10.686,3.36-15.557,3.267Zm6.15-31.361a6.569,6.569,0,0,0-1.05-.621c-6.309-2.87-18.05-5.206-30.878-18.088q-.4-.4-.8-.78c.094.214,8.281,18.76-12.177,22.873,0,0-1.326.266-.954,1.378s37.614-10.015,45.863-4.762Z" transform="translate(-1044.959 -586.357)" fill="#6595bf" fill-rule="evenodd"/>
          <path id="Trazado_908575" data-name="Trazado 908575" d="M1100.483,606.911c-.476.016-.736.039-.736.039l-2.346,8.683,3.4,23.74,2.988,1.23a15.256,15.256,0,0,1-.231-3.564c.265-.238,6.523-3.315,7.32-3.739a1.133,1.133,0,0,0,.638-1.192C1110.906,630.835,1102.367,611.234,1100.483,606.911Z" transform="translate(-1043.416 -585.489)" fill="#1b7fc2" fill-rule="evenodd"/>
          <path id="Trazado_908576" data-name="Trazado 908576" d="M1093.049,606.175a1.95,1.95,0,0,0-1.05,1.258c-.244.93.108,20.372.192,22.537s8.809,13.233,10.974,15.8a11.219,11.219,0,0,0,6.544,3.425.126.126,0,0,0,.114-.108c.012-.1-3.4-1.509-4.438-3.087s-2.841-8.329-3.051-9.315c0,0,6-2.889,7.032-3.474s1.2-1.06.808-1.732-10.14-23.74-10.843-24.6S1096.075,605.82,1093.049,606.175Z" transform="translate(-1043 -585.422)" fill="#d3ebfa" fill-rule="evenodd"/>
          <path id="Trazado_908577" data-name="Trazado 908577" d="M1061.911,587.419a.3.3,0,1,1-.346.491,11.708,11.708,0,0,0-8.577-1.381.3.3,0,0,1-.106-.589,12.347,12.347,0,0,1,9.03,1.48Z" transform="translate(-1040.022 -583.895)" fill="#201049" fill-rule="evenodd"/>
          <path id="Trazado_908578" data-name="Trazado 908578" d="M1048.321,615.805a.3.3,0,0,1,.265.539c-.018.009-5.632,2.884-9.165-3.684a.3.3,0,1,1,.529-.285C1043.206,618.426,1048.306,615.813,1048.321,615.805Z" transform="translate(-1039.024 -585.89)" fill="#201049" fill-rule="evenodd"/>
          <path id="Trazado_908579" data-name="Trazado 908579" d="M1127.08,667.311c-.885-.317-2.726-1.318-3.213-1.562-.549-.274-5.142-1.3-5.142-1.3l2.468,2.742a80.244,80.244,0,0,0-9.186,4.593c-1.65,1.3-.616,1.918.823,1.918h1.438s-.274,2.467,1.576,2.536a9.9,9.9,0,0,0,1.986,0s.686,2.057,2.2,1.851a20.283,20.283,0,0,0,7.127-2.536,10.863,10.863,0,0,0,3.243-2.321C1129.406,672.109,1126.771,668.658,1127.08,667.311Z" transform="translate(-1044.458 -589.843)" fill="#f2bbc9" fill-rule="evenodd"/>
          <path id="Trazado_908580" data-name="Trazado 908580" d="M1127.08,667.513c-.25-.089-.576-.233-.925-.4-.15,2.715,1.95,4.875-1.4,6.666-3.69,1.972-6.109,1.464-10.309-2.55-.195-.133-.384-.258-.57-.379a14.193,14.193,0,0,0-1.865,1.128c-1.65,1.3-.616,1.918.823,1.918h1.438s-.275,2.467,1.576,2.536a9.907,9.907,0,0,0,1.986,0s.685,2.056,2.2,1.851a20.287,20.287,0,0,0,7.128-2.536,10.872,10.872,0,0,0,3.243-2.32C1129.406,672.311,1126.771,668.858,1127.08,667.513Z" transform="translate(-1044.458 -590.045)" fill="#e98daf" fill-rule="evenodd"/>
        </g>
        <g id="Grupo_1117181" data-name="Grupo 1117181" transform="translate(69.743 87.106)">
          <path id="Trazado_908581" data-name="Trazado 908581" d="M1001.3,677.892H906.03c-4.746,0-8.629,3.247-8.629,7.216V826.715h112.527V685.1C1009.928,681.139,1006.045,677.892,1001.3,677.892Z" transform="translate(-897.401 -677.892)" fill="#6595bf" fill-rule="evenodd"/>
          <path id="Trazado_908582" data-name="Trazado 908582" d="M1019.6,677.892H939.791c-3.978,0-7.231,2.721-7.231,6.045V826.713h94.271V683.937C1026.831,680.613,1023.578,677.892,1019.6,677.892Z" transform="translate(-900.062 -677.892)" fill="#80bbe7" fill-rule="evenodd"/>
          <path id="Trazado_908583" data-name="Trazado 908583" d="M1020.062,681.923H940.253a1.477,1.477,0,0,0-1.585,1.326V827.021h82.98V683.241A1.476,1.476,0,0,0,1020.062,681.923Z" transform="translate(-900.524 -678.198)" fill="#fff" fill-rule="evenodd"/>
          <path id="Trazado_908584" data-name="Trazado 908584" d="M971.634,681.923h21.76a1.719,1.719,0,0,1,1.846,1.542h0a1.719,1.719,0,0,1-1.846,1.543h-21.76a1.72,1.72,0,0,1-1.846-1.543h0a1.72,1.72,0,0,1,1.846-1.542Z" transform="translate(-902.88 -678.198)" fill="#1a212a" fill-rule="evenodd"/>
          <path id="Trazado_908585" data-name="Trazado 908585" d="M940.253,681.923h79.81a1.476,1.476,0,0,1,1.585,1.326v.218H938.668v-.225A1.477,1.477,0,0,1,940.253,681.923Z" transform="translate(-900.524 -678.198)" fill="#1a212a" fill-rule="evenodd"/>
          <path id="Trazado_908586" data-name="Trazado 908586" d="M971.634,800.848h21.76a1.719,1.719,0,0,1,1.846,1.543h0a1.72,1.72,0,0,1-1.846,1.544h-21.76a1.72,1.72,0,0,1-1.846-1.543h0A1.721,1.721,0,0,1,971.634,800.848Z" transform="translate(-902.88 -687.2)" fill="#1a212a" fill-rule="evenodd"/>
          <path id="Trazado_908587" data-name="Trazado 908587" d="M940.253,800.848h79.81a1.476,1.476,0,0,1,1.585,1.324v.22H938.668v-.22a1.478,1.478,0,0,1,1.585-1.324Z" transform="translate(-900.524 -687.2)" fill="#1a212a" fill-rule="evenodd"/>
          <g id="Grupo_1117173" data-name="Grupo 1117173" transform="translate(38.143 26.939)">
            <rect id="Rectángulo_406020" data-name="Rectángulo 406020" width="18.916" height="29.723" fill="#f9b532"/>
            <rect id="Rectángulo_406021" data-name="Rectángulo 406021" width="18.916" height="25.323" transform="translate(0 4.399)" fill="#f59f3a"/>
            <rect id="Rectángulo_406022" data-name="Rectángulo 406022" width="18.916" height="22.645" transform="translate(0 7.08)" fill="#fff"/>
            <rect id="Rectángulo_406023" data-name="Rectángulo 406023" width="18.916" height="22.645" transform="translate(0 7.08)" fill="#fff2d1"/>
            <path id="Trazado_908588" data-name="Trazado 908588" d="M957.585,712.63h-14a5.575,5.575,0,0,0-4.917,3.58v20.974h18.916Z" transform="translate(-938.667 -707.46)" fill="#fcc749" fill-rule="evenodd"/>
          </g>
          <g id="Grupo_1117174" data-name="Grupo 1117174" transform="translate(44.122 26.939)">
            <rect id="Rectángulo_406024" data-name="Rectángulo 406024" width="12.938" height="26.276" fill="#f18d3d"/>
            <rect id="Rectángulo_406025" data-name="Rectángulo 406025" width="12.938" height="21.877" transform="translate(0 4.399)" fill="#ee7e40"/>
            <rect id="Rectángulo_406026" data-name="Rectángulo 406026" width="12.938" height="19.196" transform="translate(0 7.08)" fill="#f2bcc2"/>
            <rect id="Rectángulo_406027" data-name="Rectángulo 406027" width="12.938" height="19.196" transform="translate(0 7.08)" fill="#f2b2a5"/>
            <rect id="Rectángulo_406028" data-name="Rectángulo 406028" width="12.938" height="21.106" transform="translate(0 5.17)" fill="#f39a4c"/>
          </g>
          <g id="Grupo_1117175" data-name="Grupo 1117175" transform="translate(49.021 26.939)">
            <path id="Trazado_908589" data-name="Trazado 908589" d="M983.4,707.037H954.489a4.057,4.057,0,0,0-4.05,4.05v25.677H983.4Z" transform="translate(-950.439 -707.037)" fill="#f9b532" fill-rule="evenodd"/>
            <path id="Trazado_908590" data-name="Trazado 908590" d="M983.584,711.8H956.921a4.057,4.057,0,0,0-4.05,4.05v21.269h30.708Z" transform="translate(-950.623 -707.395)" fill="#f59f3a" fill-rule="evenodd"/>
            <path id="Trazado_908591" data-name="Trazado 908591" d="M954.738,737.341V717.992a3.3,3.3,0,0,1,3.3-3.3h25.689v22.649Z" transform="translate(-950.763 -707.618)" fill="#fff" fill-rule="evenodd"/>
            <path id="Trazado_908592" data-name="Trazado 908592" d="M956.914,737.339l5.146-20.507a5.2,5.2,0,0,1,1.151-2.136h20.681v22.649Z" transform="translate(-950.928 -707.616)" fill="#fff2d1" fill-rule="evenodd"/>
            <path id="Trazado_908593" data-name="Trazado 908593" d="M984.116,712.63h-14a5.55,5.55,0,0,0-5.061,4.05l-5.148,20.5h24.208Z" transform="translate(-951.154 -707.46)" fill="#fcc749" fill-rule="evenodd"/>
          </g>
          <g id="Grupo_1117176" data-name="Grupo 1117176" transform="translate(69.045 26.939)">
            <rect id="Rectángulo_406029" data-name="Rectángulo 406029" width="12.938" height="26.276" fill="#f18d3d"/>
            <rect id="Rectángulo_406030" data-name="Rectángulo 406030" width="12.938" height="21.877" transform="translate(0 4.399)" fill="#ee7e40"/>
            <rect id="Rectángulo_406031" data-name="Rectángulo 406031" width="12.938" height="19.196" transform="translate(0 7.08)" fill="#f2bcc2"/>
            <rect id="Rectángulo_406032" data-name="Rectángulo 406032" width="12.938" height="19.196" transform="translate(0 7.08)" fill="#f2b2a5"/>
            <rect id="Rectángulo_406033" data-name="Rectángulo 406033" width="12.938" height="21.106" transform="translate(0 5.17)" fill="#f39a4c"/>
          </g>
          <g id="Grupo_1117177" data-name="Grupo 1117177" transform="translate(73.94 26.939)">
            <path id="Trazado_908594" data-name="Trazado 908594" d="M1010.367,707.037H981.45a4.057,4.057,0,0,0-4.05,4.05v25.677h32.958Z" transform="translate(-977.4 -707.037)" fill="#f9b532" fill-rule="evenodd"/>
            <path id="Trazado_908595" data-name="Trazado 908595" d="M1010.549,711.8H983.885a4.059,4.059,0,0,0-4.05,4.05v21.269h30.71Z" transform="translate(-977.582 -707.395)" fill="#f59f3a" fill-rule="evenodd"/>
            <path id="Trazado_908596" data-name="Trazado 908596" d="M981.7,737.341V717.992a3.3,3.3,0,0,1,3.3-3.3h25.689v22.649Z" transform="translate(-977.724 -707.618)" fill="#fff" fill-rule="evenodd"/>
            <path id="Trazado_908597" data-name="Trazado 908597" d="M983.878,737.339l5.148-20.507a5.186,5.186,0,0,1,1.149-2.136h20.678v22.649Z" transform="translate(-977.887 -707.616)" fill="#fff2d1" fill-rule="evenodd"/>
            <path id="Trazado_908598" data-name="Trazado 908598" d="M1011.081,712.63h-14a5.55,5.55,0,0,0-5.061,4.05l-5.148,20.5h24.208Z" transform="translate(-978.113 -707.46)" fill="#fcc749" fill-rule="evenodd"/>
          </g>
          <g id="Grupo_1117178" data-name="Grupo 1117178" transform="translate(93.968 26.939)">
            <rect id="Rectángulo_406034" data-name="Rectángulo 406034" width="12.938" height="26.276" fill="#f18d3d"/>
            <rect id="Rectángulo_406035" data-name="Rectángulo 406035" width="12.938" height="21.877" transform="translate(0 4.399)" fill="#ee7e40"/>
            <rect id="Rectángulo_406036" data-name="Rectángulo 406036" width="12.938" height="19.196" transform="translate(0 7.08)" fill="#f2bcc2"/>
            <rect id="Rectángulo_406037" data-name="Rectángulo 406037" width="12.938" height="19.196" transform="translate(0 7.08)" fill="#f2b2a5"/>
            <rect id="Rectángulo_406038" data-name="Rectángulo 406038" width="12.938" height="21.106" transform="translate(0 5.17)" fill="#f39a4c"/>
          </g>
          <g id="Grupo_1117179" data-name="Grupo 1117179" transform="translate(98.132 23.937)">
            <path id="Trazado_908599" data-name="Trazado 908599" d="M1007.616,751.975h48.854a4.059,4.059,0,0,0,4.05-4.05V710.839a4.05,4.05,0,0,0-4.05-4.05h-1.986v-1.884a1.116,1.116,0,0,0-1.113-1.115h-14.759a1.116,1.116,0,0,0-1.113,1.114v1.884h-29.88a4.059,4.059,0,0,0-4.05,4.05v37.09A4.059,4.059,0,0,0,1007.616,751.975Z" transform="translate(-1003.569 -703.791)" fill="#f9b532" fill-rule="evenodd"/>
            <path id="Trazado_908600" data-name="Trazado 908600" d="M1007.8,752.332h48.854a4.059,4.059,0,0,0,4.05-4.05V711.973a4.01,4.01,0,0,0-1.8-.425h-1.986v-1.878a1.116,1.116,0,0,0-1.113-1.113h-14.761a1.116,1.116,0,0,0-1.113,1.113v1.882H1010.05a4.059,4.059,0,0,0-4.05,4.05v36.312A4.006,4.006,0,0,0,1007.8,752.332Z" transform="translate(-1003.753 -704.148)" fill="#f59f3a" fill-rule="evenodd"/>
            <rect id="Rectángulo_406039" data-name="Rectángulo 406039" width="37.466" height="38.103" rx="3.567" transform="translate(3.972 10.081)" fill="#fff"/>
            <path id="Trazado_908601" data-name="Trazado 908601" d="M1042.035,752.8h-30.87a3.3,3.3,0,0,1-3.3-3.3v-4.149l7.158-28.521a5.18,5.18,0,0,1,1.151-2.136h25.859a3.307,3.307,0,0,1,3.3,3.3V749.5A3.307,3.307,0,0,1,1042.035,752.8Z" transform="translate(-1003.895 -704.615)" fill="#fff2d1" fill-rule="evenodd"/>
            <path id="Trazado_908602" data-name="Trazado 908602" d="M1012.972,752.361h45.108a5.558,5.558,0,0,0,5.062-4.05l8.011-31.92a3.06,3.06,0,0,0-3.032-4.05h-2.371l.5-2a1.118,1.118,0,0,0-1.107-1.477h-16.463a2.031,2.031,0,0,0-1.848,1.477l-.5,2h-23.321a5.559,5.559,0,0,0-5.062,4.05l-8.011,31.92a3.06,3.06,0,0,0,3.033,4.05Z" transform="translate(-1004.055 -704.176)" fill="#fcc749" fill-rule="evenodd"/>
            <path id="Trazado_908603" data-name="Trazado 908603" d="M1061,718.155l-6.4,25.511a5.56,5.56,0,0,1-5.062,4.05h-39.448l-.15.6a3.06,3.06,0,0,0,3.031,4.05h45.108a5.557,5.557,0,0,0,5.063-4.05l8.011-31.92a3.059,3.059,0,0,0-3.031-4.05h-2.371l.5-2a1.118,1.118,0,0,0-1.107-1.477h-3.025a3.328,3.328,0,0,1,.49,2.881Z" transform="translate(-1004.055 -704.174)" fill="#f9b532" fill-rule="evenodd"/>
          </g>
          <rect id="Rectángulo_406040" data-name="Rectángulo 406040" width="82.978" height="35.097" transform="translate(93.764 41.908)" fill="#8454ee"/>
          <g id="Grupo_1117180" data-name="Grupo 1117180" transform="translate(38.143 76.996)">
            <path id="Trazado_908604" data-name="Trazado 908604" d="M971.634,761.2h21.76a1.721,1.721,0,0,1,1.847,1.543h0a1.719,1.719,0,0,1-1.846,1.543h-21.76a1.719,1.719,0,0,1-1.846-1.543h0A1.721,1.721,0,0,1,971.634,761.2Z" transform="translate(-941.024 -761.196)" fill="#1a212a" fill-rule="evenodd"/>
            <path id="Trazado_908605" data-name="Trazado 908605" d="M940.253,761.2h79.81a1.476,1.476,0,0,1,1.585,1.324v.22H938.668v-.22A1.478,1.478,0,0,1,940.253,761.2Z" transform="translate(-938.668 -761.196)" fill="#1a212a" fill-rule="evenodd"/>
          </g>
          <path id="Trazado_908606" data-name="Trazado 908606" d="M1000.428,721.563h79.81a1.476,1.476,0,0,1,1.584,1.324v.219h-28.763a1.722,1.722,0,0,1-1.846,1.543h-21.758a1.721,1.721,0,0,1-1.845-1.543H998.844v-.219A1.477,1.477,0,0,1,1000.428,721.563Z" transform="translate(-905.08 -681.199)" fill="#1a212a" fill-rule="evenodd"/>
          <path id="Trazado_908607" data-name="Trazado 908607" d="M994.289,758.33v-35.1H938.668v36.423a1.478,1.478,0,0,1,1.585-1.324Z" transform="translate(-900.524 -681.324)" fill="#d3ebfa" fill-rule="evenodd"/>
        </g>
        <path id="Trazado_908608" data-name="Trazado 908608" d="M1074.694,700.378c-.508.375-.784.62-.784.62s-4.456-.405-5.806,1.147-4.321,5.334-5.6,5.941.134,1.689,2.835.75a25.831,25.831,0,0,0,5.739-3.241,7.465,7.465,0,0,0,4.995-.652,21.377,21.377,0,0,1-1.368-4.272,1.2,1.2,0,0,1-.006-.293Z" transform="translate(-840.119 -592.487)" fill="#f2bbc9" fill-rule="evenodd"/>
      </g>
      <g id="Grupo_1117209" data-name="Grupo 1117209" transform="translate(1029.596 1603.207)">
        <g id="Grupo_1117183" data-name="Grupo 1117183">
          <rect id="Rectángulo_406041" data-name="Rectángulo 406041" width="135.895" height="130.841" rx="8.41" fill="#e6dcfb"/>
        </g>
        <g id="Grupo_1117205" data-name="Grupo 1117205" transform="translate(9.498 13.822)">
          <g id="Grupo_1117184" data-name="Grupo 1117184" transform="translate(0 75.812)">
            <rect id="Rectángulo_406042" data-name="Rectángulo 406042" width="4.459" height="1.285" fill="#263238"/>
          </g>
          <g id="Grupo_1117185" data-name="Grupo 1117185" transform="translate(10.09 82.683)">
            <rect id="Rectángulo_406043" data-name="Rectángulo 406043" width="5.704" height="1.285" fill="#263238"/>
          </g>
          <g id="Grupo_1117186" data-name="Grupo 1117186" transform="translate(29.945 82.683)">
            <rect id="Rectángulo_406044" data-name="Rectángulo 406044" width="5.704" height="1.285" fill="#263238"/>
          </g>
          <g id="Grupo_1117187" data-name="Grupo 1117187" transform="translate(49.801 82.683)">
            <rect id="Rectángulo_406045" data-name="Rectángulo 406045" width="5.704" height="1.285" fill="#263238"/>
          </g>
          <g id="Grupo_1117188" data-name="Grupo 1117188" transform="translate(69.656 82.683)">
            <rect id="Rectángulo_406046" data-name="Rectángulo 406046" width="5.704" height="1.285" fill="#263238"/>
          </g>
          <g id="Grupo_1117189" data-name="Grupo 1117189" transform="translate(89.51 82.683)">
            <rect id="Rectángulo_406047" data-name="Rectángulo 406047" width="5.704" height="1.285" fill="#263238"/>
          </g>
          <g id="Grupo_1117190" data-name="Grupo 1117190" transform="translate(109.367 82.683)">
            <rect id="Rectángulo_406048" data-name="Rectángulo 406048" width="5.704" height="1.285" fill="#263238"/>
          </g>
          <g id="Grupo_1117191" data-name="Grupo 1117191" transform="translate(0 58.646)">
            <rect id="Rectángulo_406049" data-name="Rectángulo 406049" width="4.459" height="1.285" fill="#263238"/>
          </g>
          <g id="Grupo_1117192" data-name="Grupo 1117192" transform="translate(0 26.339)">
            <rect id="Rectángulo_406050" data-name="Rectángulo 406050" width="4.459" height="1.285" fill="#263238"/>
          </g>
          <g id="Grupo_1117193" data-name="Grupo 1117193" transform="translate(0 10.104)">
            <rect id="Rectángulo_406051" data-name="Rectángulo 406051" width="4.459" height="1.285" fill="#263238"/>
          </g>
          <g id="Grupo_1117194" data-name="Grupo 1117194" transform="translate(0.226 42.492)">
            <rect id="Rectángulo_406052" data-name="Rectángulo 406052" width="4.459" height="1.285" fill="#263238"/>
          </g>
          <g id="Grupo_1117195" data-name="Grupo 1117195" transform="translate(6.574 0)">
            <path id="Trazado_908609" data-name="Trazado 908609" d="M477.418,343.827s-.162.015-.479.023l-1.4.021-5.4.039-19.847.068-65.481.061H369.082v-.208c.029-21.9.054-41.164.072-54.977.027-6.888.048-12.413.063-16.235.015-1.89.027-3.358.036-4.371.008-.486.013-.861.018-1.133a3.824,3.824,0,0,1,.02-.384s.013.13.019.384.01.645.018,1.133c.008,1.012.021,2.481.036,4.371.015,3.822.036,9.348.063,16.235.018,13.813.043,33.081.072,54.977l-.208-.208h15.517l65.481.061,19.847.068,5.4.04,1.4.021C477.255,343.812,477.418,343.827,477.418,343.827Z" transform="translate(-369.082 -266.73)" fill="#263238"/>
          </g>
          <g id="Grupo_1117196" data-name="Grupo 1117196" transform="translate(11.098 42.924)">
            <path id="Trazado_908610" data-name="Trazado 908610" d="M479.719,319.814c0,.117-23.521.211-52.531.211s-52.535-.094-52.535-.211,23.516-.211,52.535-.211S479.719,319.7,479.719,319.814Z" transform="translate(-374.653 -319.603)" fill="#263238"/>
          </g>
          <g id="Grupo_1117197" data-name="Grupo 1117197" transform="translate(11.098 26.77)">
            <path id="Trazado_908611" data-name="Trazado 908611" d="M479.719,299.917c0,.117-23.521.211-52.531.211s-52.535-.094-52.535-.211,23.516-.211,52.535-.211S479.719,299.8,479.719,299.917Z" transform="translate(-374.653 -299.705)" fill="#263238"/>
          </g>
          <g id="Grupo_1117198" data-name="Grupo 1117198" transform="translate(11.098 10.534)">
            <path id="Trazado_908612" data-name="Trazado 908612" d="M479.719,279.918c0,.117-23.521.211-52.531.211s-52.535-.094-52.535-.211,23.516-.211,52.535-.211S479.719,279.8,479.719,279.918Z" transform="translate(-374.653 -279.707)" fill="#263238"/>
          </g>
          <g id="Grupo_1117199" data-name="Grupo 1117199" transform="translate(11.098 59.077)">
            <path id="Trazado_908613" data-name="Trazado 908613" d="M479.719,339.711c0,.116-23.521.211-52.531.211s-52.535-.094-52.535-.211,23.516-.211,52.535-.211S479.719,339.594,479.719,339.711Z" transform="translate(-374.653 -339.5)" fill="#263238"/>
          </g>
          <g id="Grupo_1117200" data-name="Grupo 1117200" transform="translate(12.184 1.182)">
            <path id="Trazado_908614" data-name="Trazado 908614" d="M375.989,340.629V326.3l8.932-13.868,6.061,4.65,12.442-19.325,7.338,5.167,10.209-17.828,8.295,6.75,12.45-23.651,13.4,26.433,10.84-13.22,12.761-3.651v62.875Z" transform="translate(-375.989 -268.191)" fill="#d9a171"/>
          </g>
          <g id="Grupo_1117201" data-name="Grupo 1117201" transform="translate(12.184 5.547)">
            <path id="Trazado_908615" data-name="Trazado 908615" d="M479.972,273.67a1.1,1.1,0,0,1-.225.017l-.664.016-2.59.03-9.792.055.093-.045L456.3,287.459l-.051.065h-.082l-26.271.036.174-.1L419.025,305.85c-3.762,6.255-7.405,12.307-10.845,18.025l-.159.264-.18-.249-14.23-19.568.284-.009-12.982,20.227-3.621,5.592-.96,1.459c-.219.328-.343.489-.343.489s.094-.18.3-.517l.918-1.486,3.541-5.641,12.857-20.306.135-.213.15.2,14.281,19.532-.339.015,10.831-18.032,11.059-18.38.06-.1h.114l26.271.036-.132.065,10.572-13.649.036-.047h.057l9.792.055,2.59.03.664.015a1.288,1.288,0,0,1,.225.011Z" transform="translate(-375.989 -273.559)" fill="#263238"/>
          </g>
          <g id="Grupo_1117202" data-name="Grupo 1117202" transform="translate(32.236 39.828)">
            <path id="Trazado_908616" data-name="Trazado 908616" d="M402.7,316.76a1.008,1.008,0,1,1-1.008-.97A.99.99,0,0,1,402.7,316.76Z" transform="translate(-400.689 -315.79)" fill="#263238"/>
          </g>
          <g id="Grupo_1117203" data-name="Grupo 1117203" transform="translate(62.539 22.604)">
            <path id="Trazado_908617" data-name="Trazado 908617" d="M440.032,295.545a1.008,1.008,0,1,1-1.008-.971A.99.99,0,0,1,440.032,295.545Z" transform="translate(-438.016 -294.574)" fill="#263238"/>
          </g>
          <g id="Grupo_1117204" data-name="Grupo 1117204" transform="translate(86.097 18.371)">
            <path id="Trazado_908618" data-name="Trazado 908618" d="M469.05,290.332a1.008,1.008,0,1,1-1.008-.97.99.99,0,0,1,1.008.97Z" transform="translate(-467.034 -289.361)" fill="#263238"/>
          </g>
        </g>
        <g id="Grupo_1117206" data-name="Grupo 1117206" transform="translate(19.586 107.403)">
          <ellipse id="Elipse_13479" data-name="Elipse 13479" cx="6.519" cy="6.276" rx="6.519" ry="6.276" transform="translate(0 0)" fill="#fff"/>
        </g>
        <g id="Grupo_1117207" data-name="Grupo 1117207" transform="translate(42.294 109.475)">
          <rect id="Rectángulo_406053" data-name="Rectángulo 406053" width="76.569" height="2.349" fill="#fff"/>
        </g>
        <g id="Grupo_1117208" data-name="Grupo 1117208" transform="translate(42.294 115.341)">
          <rect id="Rectángulo_406054" data-name="Rectángulo 406054" width="31.793" height="2.349" fill="#fff"/>
        </g>
      </g>
    </g>
  </g>
</svg>
