<svg xmlns="http://www.w3.org/2000/svg" xmlns:xlink="http://www.w3.org/1999/xlink" width="113" height="113" viewBox="0 0 113 113">
  <defs>
    <filter id="Trazado_896985" x="0" y="0" width="113" height="113" filterUnits="userSpaceOnUse">
      <feOffset dy="3" input="SourceAlpha"/>
      <feGaussianBlur stdDeviation="3" result="blur"/>
      <feFlood flood-opacity="0.161"/>
      <feComposite operator="in" in2="blur"/>
      <feComposite in="SourceGraphic"/>
    </filter>
  </defs>
  <g id="Grupo_1117996" data-name="Grupo 1117996" transform="translate(5561 5309)">
    <g id="Grupo_1117994" data-name="Grupo 1117994" transform="translate(70 387)">
      <g id="Grupo_1117992" data-name="Grupo 1117992" transform="translate(0 387)">
        <g id="Grupo_1117974" data-name="Grupo 1117974" transform="translate(-6642.051 -11608)">
          <g id="Grupo_1117971" data-name="Grupo 1117971" transform="translate(515 3362)">
            <g id="Grupo_1113419" data-name="Grupo 1113419" transform="translate(170.16 -1683)">
              <g id="Grupo_1111318" data-name="Grupo 1111318" transform="translate(-5.891)">
                <g id="Grupo_1109826" data-name="Grupo 1109826" transform="translate(340.781 3852)">
                  <g id="Grupo_1098742" data-name="Grupo 1098742">
                    <g transform="matrix(1, 0, 0, 1, -9, -6)" filter="url(#Trazado_896985)">
                      <g id="Trazado_896985-2" data-name="Trazado 896985" transform="translate(9 6)" fill="#e2dacc" opacity="0.859">
                        <path d="M 47.49993515014648 93.5 C 41.28932189941406 93.5 35.26528167724609 92.28397369384766 29.59514808654785 89.88571929931641 C 24.1176815032959 87.56894683837891 19.1981086730957 84.25197601318359 14.97306823730469 80.02693176269531 C 10.74802875518799 75.80189514160156 7.431055068969727 70.88231658935547 5.11428165435791 65.40485382080078 C 2.716028451919556 59.73471832275391 1.500001788139343 53.71067810058594 1.500001788139343 47.50006484985352 C 1.500001788139343 41.28932189941406 2.716028451919556 35.26528167724609 5.11428165435791 29.59514617919922 C 7.431055068969727 24.11767959594727 10.74802875518799 19.19810676574707 14.97306823730469 14.97306632995605 C 19.1981086730957 10.74802684783936 24.1176815032959 7.431053161621094 29.59514808654785 5.114280223846436 C 35.26528167724609 2.716026782989502 41.28932189941406 1.5 47.49993515014648 1.5 C 53.71054840087891 1.5 59.73458862304688 2.716026782989502 65.40472412109375 5.114280223846436 C 70.88218688964844 7.431053161621094 75.80176544189453 10.74802684783936 80.02680206298828 14.97306632995605 C 84.25183868408203 19.19810676574707 87.56881713867188 24.11767959594727 89.88558959960938 29.59514617919922 C 92.28384399414062 35.26528167724609 93.49987030029297 41.28932189941406 93.49987030029297 47.49993515014648 C 93.49987030029297 53.71067810058594 92.28384399414062 59.73471832275391 89.88558959960938 65.40485382080078 C 87.56881713867188 70.88231658935547 84.25183868408203 75.80189514160156 80.02680206298828 80.02693176269531 C 75.80176544189453 84.25197601318359 70.88218688964844 87.56894683837891 65.40472412109375 89.88571929931641 C 59.73458862304688 92.28397369384766 53.71054840087891 93.5 47.49993515014648 93.5 Z" stroke="none"/>
                        <path d="M 47.49993515014648 3 C 41.49116516113281 3 35.66371917724609 4.176155090332031 30.17947387695312 6.495796203613281 C 24.88081359863281 8.7369384765625 20.12149047851562 11.94596862792969 16.03372192382812 16.03372192382812 C 11.94596862792969 20.12149047851562 8.7369384765625 24.88081359863281 6.495796203613281 30.17947387695312 C 4.1761474609375 35.66372299194336 3 41.49116897583008 3 47.50006103515625 C 3 53.50883102416992 4.1761474609375 59.33627700805664 6.495796203613281 64.82052612304688 C 8.7369384765625 70.11918640136719 11.94596862792969 74.87850952148438 16.03372192382812 78.96627807617188 C 20.12149047851562 83.05403137207031 24.88081359863281 86.2630615234375 30.17947387695312 88.50419616699219 C 35.66371917724609 90.82384490966797 41.49116516113281 92 47.49993515014648 92 C 53.50870513916016 92 59.33615112304688 90.82384490966797 64.82039642333984 88.50419616699219 C 70.11905670166016 86.2630615234375 74.87837982177734 83.05403137207031 78.96614837646484 78.96627807617188 C 83.05390167236328 74.87850952148438 86.26293182373047 70.11918640136719 88.50407409667969 64.82052612304688 C 90.82372283935547 59.33627700805664 91.99987030029297 53.50883102416992 91.99987030029297 47.49993896484375 C 91.99987030029297 41.49116897583008 90.82372283935547 35.66372299194336 88.50407409667969 30.17947387695312 C 86.26293182373047 24.88081359863281 83.05390167236328 20.12149047851562 78.96614837646484 16.03372192382812 C 74.87837982177734 11.94596862792969 70.11905670166016 8.7369384765625 64.82039642333984 6.495796203613281 C 59.33615112304688 4.176155090332031 53.50870513916016 3 47.49993515014648 3 M 47.49993515014648 0 C 73.73342895507812 0 94.99987030029297 21.26644897460938 94.99987030029297 47.49993896484375 L 94.99987030029297 47.50006103515625 C 94.99987030029297 73.73355102539062 73.73342895507812 95 47.49993515014648 95 C 21.26644134521484 95 0 73.73355102539062 0 47.50006103515625 L 0 47.49993896484375 C 0 21.26644897460938 21.26644134521484 0 47.49993515014648 0 Z" stroke="none" fill="#fff"/>
                      </g>
                    </g>
                    <g id="Rect치ngulo_400907" data-name="Rect치ngulo 400907" transform="translate(0 0)" fill="none" stroke="#fff" stroke-width="3">
                      <rect width="95" height="95" rx="47.5" stroke="none"/>
                      <rect x="1.5" y="1.5" width="92" height="92" rx="46" fill="none"/>
                    </g>
                  </g>
                </g>
              </g>
            </g>
          </g>
        </g>
      </g>
    </g>
    <g id="ganancias-y-perdidas" transform="translate(-5534.5 -5283.197)">
      <path id="Trazado_910510" data-name="Trazado 910510" d="M11,16V9H9.07a1.069,1.069,0,0,1-.75-1.83l5.82-5.819a1.225,1.225,0,0,1,1.72,0l5.82,5.819A1.069,1.069,0,0,1,20.93,9H19v7Z" fill="#ffc55f"/>
      <path id="Trazado_910511" data-name="Trazado 910511" d="M49,44v7h1.93a1.069,1.069,0,0,1,.75,1.83l-5.82,5.819a1.225,1.225,0,0,1-1.72,0l-5.82-5.819A1.069,1.069,0,0,1,39.07,51H41V44Z" fill="#d35b4f"/>
      <rect id="Rect치ngulo_406623" data-name="Rect치ngulo 406623" width="58" height="32" rx="2" transform="translate(1 14)" fill="#71a555"/>
      <path id="Trazado_910512" data-name="Trazado 910512" d="M55,22.8V37.2A4.677,4.677,0,0,0,50.455,42H9.545A4.677,4.677,0,0,0,5,37.2V22.8A4.677,4.677,0,0,0,9.545,18H50.454A4.677,4.677,0,0,0,55,22.8Z" fill="#96c16c"/>
      <circle id="Elipse_13500" data-name="Elipse 13500" cx="8" cy="8" r="8" transform="translate(22 22)" fill="#71a555"/>
      <circle id="Elipse_13501" data-name="Elipse 13501" cx="3" cy="3" r="3" transform="translate(43 27)" fill="#71a555"/>
      <circle id="Elipse_13502" data-name="Elipse 13502" cx="3" cy="3" r="3" transform="translate(11 27)" fill="#71a555"/>
      <g id="Grupo_1117995" data-name="Grupo 1117995">
        <path id="Trazado_910513" data-name="Trazado 910513" d="M8.546,42a1,1,0,0,0,1,1H50.454a1,1,0,0,0,1-1A3.684,3.684,0,0,1,55,38.2a1,1,0,0,0,1-1V22.8a1,1,0,0,0-1-1A3.684,3.684,0,0,1,51.454,18a1,1,0,0,0-1-1H9.546a1,1,0,0,0-1,1A3.684,3.684,0,0,1,5,21.8a1,1,0,0,0-1,1V37.2a1,1,0,0,0,1,1A3.684,3.684,0,0,1,8.546,42ZM6,23.7A5.7,5.7,0,0,0,10.464,19H49.536A5.7,5.7,0,0,0,54,23.7v12.59A5.7,5.7,0,0,0,49.536,41H10.464A5.7,5.7,0,0,0,6,36.295Z" fill="#141414"/>
        <path id="Trazado_910514" data-name="Trazado 910514" d="M30,39a9,9,0,1,0-9-9A9.01,9.01,0,0,0,30,39Zm0-16a7,7,0,1,1-7,7A7.009,7.009,0,0,1,30,23Z" fill="#141414"/>
        <path id="Trazado_910515" data-name="Trazado 910515" d="M46,34a4,4,0,1,0-4-4A4,4,0,0,0,46,34Zm0-6a2,2,0,1,1-2,2A2,2,0,0,1,46,28Z" fill="#141414"/>
        <path id="Trazado_910516" data-name="Trazado 910516" d="M14,34a4,4,0,1,0-4-4A4,4,0,0,0,14,34Zm0-6a2,2,0,1,1-2,2A2,2,0,0,1,14,28Z" fill="#141414"/>
        <path id="Trazado_910517" data-name="Trazado 910517" d="M57,13H20V10h.93a2.069,2.069,0,0,0,1.457-3.537L16.56.638a2.218,2.218,0,0,0-3.127.008L7.614,6.464A2.069,2.069,0,0,0,9.071,10H10v3H3a3,3,0,0,0-3,3v4a1,1,0,0,0,2,0V16a1,1,0,0,1,1-1H57a1,1,0,0,1,1,1V44a1,1,0,0,1-1,1H3a1,1,0,0,1-1-1V24a1,1,0,0,0-2,0V44a3,3,0,0,0,3,3H40v3h-.93a2.069,2.069,0,0,0-1.457,3.537l5.827,5.826a2.219,2.219,0,0,0,3.127-.007l5.819-5.818A2.069,2.069,0,0,0,50.929,50H50V47h7a3,3,0,0,0,3-3V16a3,3,0,0,0-3-3ZM11,8H9.07l-.043-.123,5.812-5.811a.224.224,0,0,1,.314-.008l5.819,5.818L20.929,8H19a1,1,0,0,0-1,1v4H12V9a1,1,0,0,0-1-1ZM49,52h1.93l.043.123-5.812,5.811a.224.224,0,0,1-.314.008l-5.819-5.818L39.071,52H41a1,1,0,0,0,1-1V47h6v4a1,1,0,0,0,1,1Z" fill="#141414"/>
      </g>
    </g>
  </g>
</svg>
