<svg xmlns="http://www.w3.org/2000/svg" xmlns:xlink="http://www.w3.org/1999/xlink" width="113" height="113" viewBox="0 0 113 113">
  <defs>
    <filter id="Trazado_896985" x="0" y="0" width="113" height="113" filterUnits="userSpaceOnUse">
      <feOffset dy="3" input="SourceAlpha"/>
      <feGaussianBlur stdDeviation="3" result="blur"/>
      <feFlood flood-opacity="0.161"/>
      <feComposite operator="in" in2="blur"/>
      <feComposite in="SourceGraphic"/>
    </filter>
  </defs>
  <g id="Grupo_1118025" data-name="Grupo 1118025" transform="translate(5495 4929)">
    <g id="Grupo_1117997" data-name="Grupo 1117997" transform="translate(66 380)">
      <g id="Grupo_1117994" data-name="Grupo 1117994" transform="translate(70 387)">
        <g id="Grupo_1117992" data-name="Grupo 1117992" transform="translate(0 387)">
          <g id="Grupo_1117974" data-name="Grupo 1117974" transform="translate(-6642.051 -11608)">
            <g id="Grupo_1117971" data-name="Grupo 1117971" transform="translate(515 3362)">
              <g id="Grupo_1113419" data-name="Grupo 1113419" transform="translate(170.16 -1683)">
                <g id="Grupo_1111318" data-name="Grupo 1111318" transform="translate(-5.891)">
                  <g id="Grupo_1109826" data-name="Grupo 1109826" transform="translate(340.781 3852)">
                    <g id="Grupo_1098742" data-name="Grupo 1098742">
                      <g transform="matrix(1, 0, 0, 1, -9, -6)" filter="url(#Trazado_896985)">
                        <g id="Trazado_896985-2" data-name="Trazado 896985" transform="translate(9 6)" fill="#e2dacc" opacity="0.859">
                          <path d="M 47.49993515014648 93.5 C 41.28932189941406 93.5 35.26528167724609 92.28397369384766 29.59514808654785 89.88571929931641 C 24.1176815032959 87.56894683837891 19.1981086730957 84.25197601318359 14.97306823730469 80.02693176269531 C 10.74802875518799 75.80189514160156 7.431055068969727 70.88231658935547 5.11428165435791 65.40485382080078 C 2.716028451919556 59.73471832275391 1.500001788139343 53.71067810058594 1.500001788139343 47.50006484985352 C 1.500001788139343 41.28932189941406 2.716028451919556 35.26528167724609 5.11428165435791 29.59514617919922 C 7.431055068969727 24.11767959594727 10.74802875518799 19.19810676574707 14.97306823730469 14.97306632995605 C 19.1981086730957 10.74802684783936 24.1176815032959 7.431053161621094 29.59514808654785 5.114280223846436 C 35.26528167724609 2.716026782989502 41.28932189941406 1.5 47.49993515014648 1.5 C 53.71054840087891 1.5 59.73458862304688 2.716026782989502 65.40472412109375 5.114280223846436 C 70.88218688964844 7.431053161621094 75.80176544189453 10.74802684783936 80.02680206298828 14.97306632995605 C 84.25183868408203 19.19810676574707 87.56881713867188 24.11767959594727 89.88558959960938 29.59514617919922 C 92.28384399414062 35.26528167724609 93.49987030029297 41.28932189941406 93.49987030029297 47.49993515014648 C 93.49987030029297 53.71067810058594 92.28384399414062 59.73471832275391 89.88558959960938 65.40485382080078 C 87.56881713867188 70.88231658935547 84.25183868408203 75.80189514160156 80.02680206298828 80.02693176269531 C 75.80176544189453 84.25197601318359 70.88218688964844 87.56894683837891 65.40472412109375 89.88571929931641 C 59.73458862304688 92.28397369384766 53.71054840087891 93.5 47.49993515014648 93.5 Z" stroke="none"/>
                          <path d="M 47.49993515014648 3 C 41.49116516113281 3 35.66371917724609 4.176155090332031 30.17947387695312 6.495796203613281 C 24.88081359863281 8.7369384765625 20.12149047851562 11.94596862792969 16.03372192382812 16.03372192382812 C 11.94596862792969 20.12149047851562 8.7369384765625 24.88081359863281 6.495796203613281 30.17947387695312 C 4.1761474609375 35.66372299194336 3 41.49116897583008 3 47.50006103515625 C 3 53.50883102416992 4.1761474609375 59.33627700805664 6.495796203613281 64.82052612304688 C 8.7369384765625 70.11918640136719 11.94596862792969 74.87850952148438 16.03372192382812 78.96627807617188 C 20.12149047851562 83.05403137207031 24.88081359863281 86.2630615234375 30.17947387695312 88.50419616699219 C 35.66371917724609 90.82384490966797 41.49116516113281 92 47.49993515014648 92 C 53.50870513916016 92 59.33615112304688 90.82384490966797 64.82039642333984 88.50419616699219 C 70.11905670166016 86.2630615234375 74.87837982177734 83.05403137207031 78.96614837646484 78.96627807617188 C 83.05390167236328 74.87850952148438 86.26293182373047 70.11918640136719 88.50407409667969 64.82052612304688 C 90.82372283935547 59.33627700805664 91.99987030029297 53.50883102416992 91.99987030029297 47.49993896484375 C 91.99987030029297 41.49116897583008 90.82372283935547 35.66372299194336 88.50407409667969 30.17947387695312 C 86.26293182373047 24.88081359863281 83.05390167236328 20.12149047851562 78.96614837646484 16.03372192382812 C 74.87837982177734 11.94596862792969 70.11905670166016 8.7369384765625 64.82039642333984 6.495796203613281 C 59.33615112304688 4.176155090332031 53.50870513916016 3 47.49993515014648 3 M 47.49993515014648 0 C 73.73342895507812 0 94.99987030029297 21.26644897460938 94.99987030029297 47.49993896484375 L 94.99987030029297 47.50006103515625 C 94.99987030029297 73.73355102539062 73.73342895507812 95 47.49993515014648 95 C 21.26644134521484 95 0 73.73355102539062 0 47.50006103515625 L 0 47.49993896484375 C 0 21.26644897460938 21.26644134521484 0 47.49993515014648 0 Z" stroke="none" fill="#fff"/>
                        </g>
                      </g>
                      <g id="Rectángulo_400907" data-name="Rectángulo 400907" transform="translate(0 0)" fill="none" stroke="#fff" stroke-width="3">
                        <rect width="95" height="95" rx="47.5" stroke="none"/>
                        <rect x="1.5" y="1.5" width="92" height="92" rx="46" fill="none"/>
                      </g>
                    </g>
                  </g>
                </g>
              </g>
            </g>
          </g>
        </g>
      </g>
    </g>
    <g id="patrimonio2" transform="translate(-5469 -4906)">
      <g id="Grupo_1118023" data-name="Grupo 1118023" transform="translate(1.945 1.945)">
        <g id="Grupo_1117998" data-name="Grupo 1117998" transform="translate(17.163 25.504)">
          <path id="Trazado_910518" data-name="Trazado 910518" d="M37.012,32.778l2.834-3.769.746.246a11.308,11.308,0,0,1,6.867,6.357H30.4a.947.947,0,0,0-.945.945v6.65a11.257,11.257,0,0,0-3.778.812V42.224l-2.361,2.361L20.17,41.44A8.823,8.823,0,0,0,21.9,36.179a8.913,8.913,0,0,0-.331-2.4A20.045,20.045,0,0,1,28.511,29l2.834,3.778,2.834-2.834Z" transform="translate(-20.17 -29)" fill="#75b1f2"/>
        </g>
        <g id="Grupo_1117999" data-name="Grupo 1117999" transform="translate(31.171 24.569)">
          <path id="Trazado_910519" data-name="Trazado 910519" d="M40.667,28.955l-2.834,3.769L35,29.89l2.834-1.88Z" transform="translate(-35 -28.01)" fill="#5d9cec"/>
        </g>
        <g id="Grupo_1118000" data-name="Grupo 1118000" transform="translate(25.504 24.559)">
          <path id="Trazado_910520" data-name="Trazado 910520" d="M34.667,29.889l-2.834,2.834L29,28.945a20.734,20.734,0,0,1,2.834-.935V28Z" transform="translate(-29 -28)" fill="#5d9cec"/>
        </g>
        <g id="Grupo_1118001" data-name="Grupo 1118001" transform="translate(16.058)">
          <path id="Trazado_910521" data-name="Trazado 910521" d="M21.834,7.667,20.549,6.383,19,4.834A9.682,9.682,0,0,1,25.839,2H34.17a10.335,10.335,0,0,1,5.507,19.081l-2.73,1.7V18.067l1.219-1.219a2.273,2.273,0,0,0,.671-1.615,1.847,1.847,0,0,0-.557-1.332,1.886,1.886,0,0,0-1.332-.557,3.793,3.793,0,0,0-3.788-3.788H23.723a1.9,1.9,0,0,1-1.889-1.889Z" transform="translate(-19 -2)" fill="#656d78"/>
        </g>
        <g id="Grupo_1118002" data-name="Grupo 1118002" transform="translate(15.113 4.383)">
          <path id="Trazado_910522" data-name="Trazado 910522" d="M23.667,9.814v1.105a6.791,6.791,0,0,1-.047.765L18,9.814A5.965,5.965,0,0,1,20.494,6.64l1.285,1.285a1.9,1.9,0,0,0,1.889,1.889Z" transform="translate(-18 -6.64)" fill="#656d78"/>
        </g>
        <g id="Grupo_1118003" data-name="Grupo 1118003" transform="translate(34.005 47.229)">
          <path id="Trazado_910523" data-name="Trazado 910523" d="M60.67,52v3.778H38V52H60.67Z" transform="translate(-38 -52)" fill="#a0d468"/>
        </g>
        <g id="Grupo_1118004" data-name="Grupo 1118004" transform="translate(33.627 51.007)">
          <path id="Trazado_910524" data-name="Trazado 910524" d="M60.648,56v2.834a.947.947,0,0,1-.945.945H37.6a1.468,1.468,0,0,0,.378-.945V56Z" transform="translate(-37.6 -56)" fill="#b4dd7f"/>
        </g>
        <g id="Grupo_1118005" data-name="Grupo 1118005" transform="translate(41.562 32.116)">
          <path id="Trazado_910525" data-name="Trazado 910525" d="M53.557,43.557A7.555,7.555,0,0,0,46,36H57.335a3.777,3.777,0,0,0,3.778,3.778v7.557a3.777,3.777,0,0,0-3.778,3.778H46A7.555,7.555,0,0,0,53.557,43.557Z" transform="translate(-46 -36)" fill="#b4dd7f"/>
        </g>
        <g id="Grupo_1118006" data-name="Grupo 1118006" transform="translate(26.448 32.116)">
          <path id="Trazado_910526" data-name="Trazado 910526" d="M37.557,43.557a7.555,7.555,0,0,0,7.557,7.557H37.557V46.39c0-1.568-2.957-2.834-6.612-2.834-.321,0-.642.009-.945.038V39.778A3.777,3.777,0,0,0,33.778,36H45.113a7.555,7.555,0,0,0-7.557,7.557Z" transform="translate(-30 -36)" fill="#b4dd7f"/>
        </g>
        <g id="Grupo_1118007" data-name="Grupo 1118007" transform="translate(20.781 46.284)">
          <path id="Trazado_910527" data-name="Trazado 910527" d="M37.224,51.945v2.834c0,1.568-2.957,2.834-6.612,2.834S24,56.346,24,54.778V51c0,1.568,2.957,2.834,6.612,2.834S37.224,52.568,37.224,51Z" transform="translate(-24 -51)" fill="#ffc729"/>
        </g>
        <g id="Grupo_1118008" data-name="Grupo 1118008" transform="translate(20.781 39.672)">
          <path id="Trazado_910528" data-name="Trazado 910528" d="M30.612,44c3.656,0,6.612,1.266,6.612,2.834s-2.957,2.834-6.612,2.834S24,48.4,24,46.834c0-.775.718-1.474,1.889-1.984a11.257,11.257,0,0,1,3.778-.812C29.97,44.009,30.291,44,30.612,44Z" transform="translate(-24 -44)" fill="#ffc729"/>
        </g>
        <g id="Grupo_1118009" data-name="Grupo 1118009" transform="translate(20.781 50.063)">
          <path id="Trazado_910529" data-name="Trazado 910529" d="M37.224,55.945v2.834a1.468,1.468,0,0,1-.378.945c-.907,1.105-3.353,1.889-6.234,1.889-3.656,0-6.612-1.266-6.612-2.834V55c0,1.568,2.957,2.834,6.612,2.834S37.224,56.568,37.224,55Z" transform="translate(-24 -55)" fill="#fcd770"/>
        </g>
        <g id="Grupo_1118010" data-name="Grupo 1118010" transform="translate(20.781 42.506)">
          <path id="Trazado_910530" data-name="Trazado 910530" d="M37.224,47v3.778c0,1.568-2.957,2.834-6.612,2.834S24,52.346,24,50.778V47c0,1.568,2.957,2.834,6.612,2.834S37.224,48.568,37.224,47Z" transform="translate(-24 -47)" fill="#fcd770"/>
        </g>
        <g id="Grupo_1118011" data-name="Grupo 1118011" transform="translate(52.896 43.451)">
          <path id="Trazado_910531" data-name="Trazado 910531" d="M61.778,48v3.778H58A3.777,3.777,0,0,1,61.778,48Z" transform="translate(-58 -48)" fill="#a0d468"/>
        </g>
        <g id="Grupo_1118012" data-name="Grupo 1118012" transform="translate(26.448 32.116)">
          <path id="Trazado_910532" data-name="Trazado 910532" d="M30.945,36h2.834A3.777,3.777,0,0,1,30,39.778V36.945A.947.947,0,0,1,30.945,36Z" transform="translate(-30 -36)" fill="#a0d468"/>
        </g>
        <g id="Grupo_1118013" data-name="Grupo 1118013" transform="translate(52.896 32.116)">
          <path id="Trazado_910533" data-name="Trazado 910533" d="M60.834,36H58a3.777,3.777,0,0,0,3.778,3.778V36.945A.947.947,0,0,0,60.834,36Z" transform="translate(-58 -36)" fill="#a0d468"/>
        </g>
        <g id="Grupo_1118014" data-name="Grupo 1118014" transform="translate(34.005 32.116)">
          <circle id="Elipse_13503" data-name="Elipse 13503" cx="7.5" cy="7.5" r="7.5" transform="translate(0.051 -0.061)" fill="#fcd770"/>
        </g>
        <g id="Grupo_1118015" data-name="Grupo 1118015" transform="translate(9.446 37.944)">
          <path id="Trazado_910534" data-name="Trazado 910534" d="M22.863,45.315,21.229,46.95a5.7,5.7,0,0,1-8.067,0L12,45.788h.567a8.876,8.876,0,0,0,7.15-3.618Z" transform="translate(-12 -42.17)" fill="#f0d0b4"/>
        </g>
        <g id="Grupo_1118016" data-name="Grupo 1118016" transform="translate(18.892 7.557)">
          <path id="Trazado_910535" data-name="Trazado 910535" d="M23.889,10h9.436a3.793,3.793,0,0,1,3.788,3.788,1.886,1.886,0,0,1,1.332.557A1.847,1.847,0,0,1,39,15.677a2.273,2.273,0,0,1-.671,1.615l-1.219,1.219v8.5l-2.834,1.88L31.446,27V24.547l-2.418.482a4.161,4.161,0,0,1-.841.085,4.271,4.271,0,0,1-3.552-1.889h1.143a3.777,3.777,0,0,0,3.778-3.778H23.889V17.557L22,15.667a6.424,6.424,0,0,0,1.842-3.8,6.791,6.791,0,0,0,.047-.765Z" transform="translate(-22 -10)" fill="#f0d0b4"/>
        </g>
        <g id="Grupo_1118017" data-name="Grupo 1118017" transform="translate(20.781 17.002)">
          <path id="Trazado_910536" data-name="Trazado 910536" d="M24,20h5.667a3.777,3.777,0,0,1-3.778,3.778H24.746A4.252,4.252,0,0,1,24,21.37Z" transform="translate(-24 -20)" fill="#ff826e"/>
        </g>
        <g id="Grupo_1118018" data-name="Grupo 1118018" transform="translate(3.778 17.002)">
          <path id="Trazado_910537" data-name="Trazado 910537" d="M8.834,20a2.83,2.83,0,0,1,2.834,2.834,2.618,2.618,0,0,1-.17.945,2.68,2.68,0,0,1-.661,1.058,2.827,2.827,0,0,1-2,.831H6.945a1.046,1.046,0,0,1-.179-.019A.951.951,0,0,1,6,24.723V20.945A.947.947,0,0,1,6.945,20H8.834Z" transform="translate(-6 -20)" fill="#f5e0cd"/>
        </g>
        <g id="Grupo_1118019" data-name="Grupo 1118019" transform="translate(7.557 9.446)">
          <path id="Trazado_910538" data-name="Trazado 910538" d="M17.557,13.889a9.4,9.4,0,0,1-1.568,5.2l-.321.472H11.889l-.2-.4a15.96,15.96,0,0,1-1.577-5.271A15.724,15.724,0,0,1,10,12a15.9,15.9,0,0,1,5.9.945A5.237,5.237,0,0,1,17.557,13.889Z" transform="translate(-10 -12)" fill="#d3a06c"/>
        </g>
        <g id="Grupo_1118020" data-name="Grupo 1118020" transform="translate(3.778 11.335)">
          <path id="Trazado_910539" data-name="Trazado 910539" d="M9.892,14a15.96,15.96,0,0,0,1.577,5.271l.2.4H7.889L6,15.889A3.413,3.413,0,0,1,9.06,14Z" transform="translate(-6 -14)" fill="#cf9e76"/>
        </g>
        <g id="Grupo_1118021" data-name="Grupo 1118021" transform="translate(6.612 17.002)">
          <path id="Trazado_910540" data-name="Trazado 910540" d="M11.834,20h3.778v3.778H11.664a2.618,2.618,0,0,0,.17-.945A2.83,2.83,0,0,0,9,20Z" transform="translate(-9 -20)" fill="#fcd770"/>
        </g>
        <g id="Grupo_1118022" data-name="Grupo 1118022" transform="translate(0 20.781)">
          <path id="Trazado_910541" data-name="Trazado 910541" d="M11.446,44.781h-.567A8.874,8.874,0,0,1,3.266,31.339L6.543,25.87a1.046,1.046,0,0,0,.179.019H8.612a2.827,2.827,0,0,0,2-.831A2.68,2.68,0,0,0,11.276,24h3.948l4.4,7.339a9.139,9.139,0,0,1,.935,2.163,8.913,8.913,0,0,1,.331,2.4,8.883,8.883,0,0,1-8.879,8.879Z" transform="translate(-2 -24)" fill="#cf9e76"/>
        </g>
      </g>
      <g id="Grupo_1118024" data-name="Grupo 1118024" transform="translate(1 1)">
        <path id="Trazado_910542" data-name="Trazado 910542" d="M57.675,33.116H46.987A12.277,12.277,0,0,0,39.823,26.8l-2.929-.974V23.249l2.283-1.426a11.158,11.158,0,0,0,5.274-9.515A11.3,11.3,0,0,0,33.175,1H24.844a10.55,10.55,0,0,0-7.508,3.111l-.669.668L18.12,6.231A6.945,6.945,0,0,0,16.162,9.2l-.3.9,5.728,1.908A5.528,5.528,0,0,1,20.169,14.5l-.669.668,2.28,2.28v2.868a5.245,5.245,0,0,0,6.27,5.141l1.287-.258v.588a20.987,20.987,0,0,0-8.462,4.755,9.677,9.677,0,0,0-.494-.965l-4.268-7.114v-3.23L16.272,19A10.278,10.278,0,0,0,18,13.28v-.391l-.277-.277c-.221-.221-2.336-2.166-8.224-2.166H8.557v.945c0,.319.009.639.028.958a4.332,4.332,0,0,0-3.707,2.4l-.212.423L6.128,18.09a1.886,1.886,0,0,0-1.35,1.8V23.67a1.87,1.87,0,0,0,.444,1.2L2.4,29.577a9.821,9.821,0,0,0,8.422,14.873H11l.887.887a6.646,6.646,0,0,0,9.4,0l.5-.5V55.786c0,2.48,3.8,3.778,7.557,3.778,2.642,0,5.3-.645,6.648-1.889H57.675a1.891,1.891,0,0,0,1.889-1.889V35a1.891,1.891,0,0,0-1.889-1.889Zm0,3.6A2.831,2.831,0,0,1,55.959,35h1.715ZM29.337,42.562c3.516,0,5.667,1.223,5.667,1.889s-2.152,1.889-5.667,1.889-5.667-1.223-5.667-1.889S25.822,42.562,29.337,42.562Zm0-3.874A4.738,4.738,0,0,0,33.02,35h5.154A8.487,8.487,0,0,0,35,41.617c0,.088.01.172.013.259a12.444,12.444,0,0,0-5.681-1.2Zm0-1.968V35h1.715a2.831,2.831,0,0,1-1.715,1.715Zm20.781,4.9A6.612,6.612,0,1,1,43.506,35,6.621,6.621,0,0,1,50.118,41.617ZM36.894,46.949a8.585,8.585,0,0,0,1.28,1.28h-1.28Zm0,3.169H57.675v1.889H36.894Zm19.065-1.889a2.831,2.831,0,0,1,1.715-1.715v1.715Zm-1.968,0H48.838a8.482,8.482,0,0,0,0-13.224h5.154a4.738,4.738,0,0,0,3.683,3.683v5.858a4.738,4.738,0,0,0-3.683,3.683ZM37.236,27.937l-1.389,1.852L34.6,28.542l1.488-.987ZM24.843,2.889h8.331a9.413,9.413,0,0,1,9.387,9.418,9.276,9.276,0,0,1-4.387,7.914l-1.281.8V18.4l.945-.944a3.205,3.205,0,0,0,.945-2.281,2.84,2.84,0,0,0-1.957-2.7,4.741,4.741,0,0,0-4.664-3.926H22.725a.945.945,0,0,1,0-1.889h.945V4.778h-.945a2.823,2.823,0,0,0-2.253,1.133l-1.1-1.1a8.663,8.663,0,0,1,5.469-1.924ZM19.46,7.572l.475.475A2.819,2.819,0,0,0,20.95,9.8l-2.612-.871a5.053,5.053,0,0,1,1.122-1.36Zm5.155,14.208h-.593a3.306,3.306,0,0,1-.351-1.464v-.425h3.617A2.839,2.839,0,0,1,24.615,21.781ZM32.356,24.6l-.371-1.852-4.306.861a3.2,3.2,0,0,1-1.766-.139,4.715,4.715,0,0,0,3.425-4.519V18H23.67V16.667l-1.542-1.542a7.455,7.455,0,0,0,1.542-4.517v-.162h8.492A2.847,2.847,0,0,1,35,13.289v.945h.945a.945.945,0,0,1,.945.945,1.331,1.331,0,0,1-.391.946l-1.5,1.5v8.386l-1.888,1.253L31.227,26V24.822Zm-2.225,2.942,1.5,1-1.249,1.249-1.423-1.9c.385-.13.775-.247,1.169-.353ZM27.146,28.62l3.033,4.046,2.937-2.937,2.936,2.936,3.074-4.1.1.034a10.384,10.384,0,0,1,5.618,4.517H29.337A1.891,1.891,0,0,0,27.448,35v5.782a13.518,13.518,0,0,0-1.889.358V35H23.67v5.276L22.253,41.7l-1.936-1.936a9.5,9.5,0,0,0,1.218-7.219,19.126,19.126,0,0,1,5.612-3.923ZM16.1,13.739a8.4,8.4,0,0,1-1.4,4.208L14.663,18H11.982a15.147,15.147,0,0,1-1.5-5.648A11.406,11.406,0,0,1,16.1,13.739ZM6.667,23.67V19.892H8.557a1.889,1.889,0,1,1,0,3.778Zm7.557-3.778v1.889H12.335a3.75,3.75,0,0,0-.507-1.889ZM8.78,14.224H8.8A17.093,17.093,0,0,0,9.9,18H8.2L6.8,15.213a2.458,2.458,0,0,1,1.979-.989ZM2.889,34.63a7.936,7.936,0,0,1,1.13-4.08l2.994-4.991H8.557a3.781,3.781,0,0,0,3.271-1.889h2.806l4.128,6.879a7.932,7.932,0,0,1-6.8,12.012H10.822A7.942,7.942,0,0,1,2.889,34.63ZM16.586,45.4a4.705,4.705,0,0,1-3-1.091,9.8,9.8,0,0,0,5.575-3.023l1.753,1.753L19.949,44A4.727,4.727,0,0,1,16.586,45.4Zm7.084,1.636a12.452,12.452,0,0,0,5.667,1.2A12.452,12.452,0,0,0,35,47.031v1.2c0,.666-2.152,1.889-5.667,1.889s-5.667-1.223-5.667-1.889Zm0,3.778a12.452,12.452,0,0,0,5.667,1.2A12.452,12.452,0,0,0,35,50.81v1.2c0,.666-2.152,1.889-5.667,1.889s-5.667-1.223-5.667-1.889Zm5.667,6.865c-3.516,0-5.667-1.223-5.667-1.889v-1.2a12.452,12.452,0,0,0,5.667,1.2A12.452,12.452,0,0,0,35,54.588v1.2C35,56.452,32.853,57.675,29.337,57.675Zm7.557-1.889V53.9H57.675v1.889Z" transform="translate(-1 -1)"/>
        <path id="Trazado_910543" data-name="Trazado 910543" d="M12.778,42.224V40.335h1.889V37.5a2.837,2.837,0,0,0-2.834-2.834.945.945,0,0,1-.945-.945v-.945h.945a.945.945,0,0,1,.945.945v.945h1.889v-.945a2.83,2.83,0,0,0-1.889-2.66V29H10.889v1.889H9v2.834a2.837,2.837,0,0,0,2.834,2.834.945.945,0,0,1,.945.945v.945h-.945a.945.945,0,0,1-.945-.945v-.945H9V37.5a2.83,2.83,0,0,0,1.889,2.66v2.063Z" transform="translate(-1.443 -2.552)"/>
        <path id="Trazado_910544" data-name="Trazado 910544" d="M30.778,13.945a.945.945,0,0,1-1.889,0V13H27v.945a2.834,2.834,0,0,0,5.667,0V13H30.778Z" transform="translate(-2.441 -1.665)"/>
      </g>
    </g>
  </g>
</svg>
