<svg xmlns="http://www.w3.org/2000/svg" xmlns:xlink="http://www.w3.org/1999/xlink" width="113" height="113" viewBox="0 0 113 113">
  <defs>
    <filter id="Trazado_896985" x="0" y="0" width="113" height="113" filterUnits="userSpaceOnUse">
      <feOffset dy="3" input="SourceAlpha"/>
      <feGaussianBlur stdDeviation="3" result="blur"/>
      <feFlood flood-opacity="0.161"/>
      <feComposite operator="in" in2="blur"/>
      <feComposite in="SourceGraphic"/>
    </filter>
  </defs>
  <g id="Grupo_1118032" data-name="Grupo 1118032" transform="translate(5495 4548)">
    <g id="Grupo_1118026" data-name="Grupo 1118026" transform="translate(0 381)">
      <g id="Grupo_1117997" data-name="Grupo 1117997" transform="translate(66 380)">
        <g id="Grupo_1117994" data-name="Grupo 1117994" transform="translate(70 387)">
          <g id="Grupo_1117992" data-name="Grupo 1117992" transform="translate(0 387)">
            <g id="Grupo_1117974" data-name="Grupo 1117974" transform="translate(-6642.051 -11608)">
              <g id="Grupo_1117971" data-name="Grupo 1117971" transform="translate(515 3362)">
                <g id="Grupo_1113419" data-name="Grupo 1113419" transform="translate(170.16 -1683)">
                  <g id="Grupo_1111318" data-name="Grupo 1111318" transform="translate(-5.891)">
                    <g id="Grupo_1109826" data-name="Grupo 1109826" transform="translate(340.781 3852)">
                      <g id="Grupo_1098742" data-name="Grupo 1098742">
                        <g transform="matrix(1, 0, 0, 1, -9, -6)" filter="url(#Trazado_896985)">
                          <g id="Trazado_896985-2" data-name="Trazado 896985" transform="translate(9 6)" fill="#e2dacc" opacity="0.859">
                            <path d="M 47.49993515014648 93.5 C 41.28932189941406 93.5 35.26528167724609 92.28397369384766 29.59514808654785 89.88571929931641 C 24.1176815032959 87.56894683837891 19.1981086730957 84.25197601318359 14.97306823730469 80.02693176269531 C 10.74802875518799 75.80189514160156 7.431055068969727 70.88231658935547 5.11428165435791 65.40485382080078 C 2.716028451919556 59.73471832275391 1.500001788139343 53.71067810058594 1.500001788139343 47.50006484985352 C 1.500001788139343 41.28932189941406 2.716028451919556 35.26528167724609 5.11428165435791 29.59514617919922 C 7.431055068969727 24.11767959594727 10.74802875518799 19.19810676574707 14.97306823730469 14.97306632995605 C 19.1981086730957 10.74802684783936 24.1176815032959 7.431053161621094 29.59514808654785 5.114280223846436 C 35.26528167724609 2.716026782989502 41.28932189941406 1.5 47.49993515014648 1.5 C 53.71054840087891 1.5 59.73458862304688 2.716026782989502 65.40472412109375 5.114280223846436 C 70.88218688964844 7.431053161621094 75.80176544189453 10.74802684783936 80.02680206298828 14.97306632995605 C 84.25183868408203 19.19810676574707 87.56881713867188 24.11767959594727 89.88558959960938 29.59514617919922 C 92.28384399414062 35.26528167724609 93.49987030029297 41.28932189941406 93.49987030029297 47.49993515014648 C 93.49987030029297 53.71067810058594 92.28384399414062 59.73471832275391 89.88558959960938 65.40485382080078 C 87.56881713867188 70.88231658935547 84.25183868408203 75.80189514160156 80.02680206298828 80.02693176269531 C 75.80176544189453 84.25197601318359 70.88218688964844 87.56894683837891 65.40472412109375 89.88571929931641 C 59.73458862304688 92.28397369384766 53.71054840087891 93.5 47.49993515014648 93.5 Z" stroke="none"/>
                            <path d="M 47.49993515014648 3 C 41.49116516113281 3 35.66371917724609 4.176155090332031 30.17947387695312 6.495796203613281 C 24.88081359863281 8.7369384765625 20.12149047851562 11.94596862792969 16.03372192382812 16.03372192382812 C 11.94596862792969 20.12149047851562 8.7369384765625 24.88081359863281 6.495796203613281 30.17947387695312 C 4.1761474609375 35.66372299194336 3 41.49116897583008 3 47.50006103515625 C 3 53.50883102416992 4.1761474609375 59.33627700805664 6.495796203613281 64.82052612304688 C 8.7369384765625 70.11918640136719 11.94596862792969 74.87850952148438 16.03372192382812 78.96627807617188 C 20.12149047851562 83.05403137207031 24.88081359863281 86.2630615234375 30.17947387695312 88.50419616699219 C 35.66371917724609 90.82384490966797 41.49116516113281 92 47.49993515014648 92 C 53.50870513916016 92 59.33615112304688 90.82384490966797 64.82039642333984 88.50419616699219 C 70.11905670166016 86.2630615234375 74.87837982177734 83.05403137207031 78.96614837646484 78.96627807617188 C 83.05390167236328 74.87850952148438 86.26293182373047 70.11918640136719 88.50407409667969 64.82052612304688 C 90.82372283935547 59.33627700805664 91.99987030029297 53.50883102416992 91.99987030029297 47.49993896484375 C 91.99987030029297 41.49116897583008 90.82372283935547 35.66372299194336 88.50407409667969 30.17947387695312 C 86.26293182373047 24.88081359863281 83.05390167236328 20.12149047851562 78.96614837646484 16.03372192382812 C 74.87837982177734 11.94596862792969 70.11905670166016 8.7369384765625 64.82039642333984 6.495796203613281 C 59.33615112304688 4.176155090332031 53.50870513916016 3 47.49993515014648 3 M 47.49993515014648 0 C 73.73342895507812 0 94.99987030029297 21.26644897460938 94.99987030029297 47.49993896484375 L 94.99987030029297 47.50006103515625 C 94.99987030029297 73.73355102539062 73.73342895507812 95 47.49993515014648 95 C 21.26644134521484 95 0 73.73355102539062 0 47.50006103515625 L 0 47.49993896484375 C 0 21.26644897460938 21.26644134521484 0 47.49993515014648 0 Z" stroke="none" fill="#fff"/>
                          </g>
                        </g>
                        <g id="Rectángulo_400907" data-name="Rectángulo 400907" transform="translate(0 0)" fill="none" stroke="#fff" stroke-width="3">
                          <rect width="95" height="95" rx="47.5" stroke="none"/>
                          <rect x="1.5" y="1.5" width="92" height="92" rx="46" fill="none"/>
                        </g>
                      </g>
                    </g>
                  </g>
                </g>
              </g>
            </g>
          </g>
        </g>
      </g>
    </g>
    <g id="propuesta-de-valor" transform="translate(-5467.713 -4523.057)">
      <g id="Grupo_1118029" data-name="Grupo 1118029" transform="translate(0.849 0.848)">
        <path id="Trazado_910545" data-name="Trazado 910545" d="M367.221,172.334h-2.061l-4.212,3.834s.028,4.129,0,4.242a20.6,20.6,0,0,0,2.177,3.817c.4.226,1.829,1.442,1.829,1.442l2.267.339a7.23,7.23,0,0,0,0-13.673Z" transform="translate(-320.98 -153.694)" fill="#ffe02f"/>
        <path id="Trazado_910546" data-name="Trazado 910546" d="M336.39,176.085a7.231,7.231,0,0,1,4.878-6.837,7.23,7.23,0,1,0,0,13.673A7.232,7.232,0,0,1,336.39,176.085Z" transform="translate(-295.026 -150.609)" fill="#fbc700"/>
        <path id="Trazado_910547" data-name="Trazado 910547" d="M151.088,317.487c-1.459-3.046-4.815-1.606-5.1-1.5L131.9,320.154a.094.094,0,0,1-.118-.112,3.159,3.159,0,0,0-2.024-3.885c-8.188-3.269-9.165-3.822-11.237-3.854h0c-4.508.015-6.418.045-8.264.559h0l-1.914,1.348L106.768,317l-.377,7.124,3.868,3.769,1.268.556a12.177,12.177,0,0,1,7.157.316l5.284,2.11a8.448,8.448,0,0,0,6.562-.393h0l5.522-2.443,3.62-1.6,9.306-4.116C149.538,322.033,152.347,320.348,151.088,317.487Z" transform="translate(-95.208 -277.835)" fill="#ffcebe"/>
        <g id="Grupo_1118027" data-name="Grupo 1118027" transform="translate(0 35.026)">
          <path id="Trazado_910548" data-name="Trazado 910548" d="M19.413,324.527a10,10,0,0,1,3.137-7.284,17.51,17.51,0,0,0-2.486.94,28.39,28.39,0,0,0-4.729,2.69,10.3,10.3,0,0,1-3.188,1.512l-3.889,1.069a1.031,1.031,0,0,0-.758.994v12.937a1.031,1.031,0,0,0,1.4.964l13.519-5.133c.465-.151.933-.279,1.4-.387A10.016,10.016,0,0,1,19.413,324.527Z" transform="translate(-7.5 -317.243)" fill="#ffb1a0"/>
        </g>
        <g id="Grupo_1118028" data-name="Grupo 1118028" transform="translate(10.913 10.381)">
          <path id="Trazado_910549" data-name="Trazado 910549" d="M112.466,99.821l-.59-.517h-2.5a2.467,2.467,0,0,0-2.067,1.121l-3.3,5.069.717.368h7.746V99.821Z" transform="translate(-104.003 -99.304)" fill="#00c2fb"/>
          <path id="Trazado_910550" data-name="Trazado 910550" d="M214.372,100.425A2.467,2.467,0,0,0,212.3,99.3h-2.5l-.252.456v6.1h6.731l1.393-.368Z" transform="translate(-197.614 -99.304)" fill="#9be8fd"/>
          <path id="Trazado_910551" data-name="Trazado 910551" d="M163.037,99.3h-4.314l-1.9,6.19.773.551h6.58l.761-.551Z" transform="translate(-150.85 -99.304)" fill="#62ddfc"/>
          <path id="Trazado_910552" data-name="Trazado 910552" d="M204.454,154.039l-.578.551-2.5,9.645.361.9,8.688-11.1Z" transform="translate(-190.368 -147.849)" fill="#62ddfc"/>
          <path id="Trazado_910553" data-name="Trazado 910553" d="M112.691,165.139l.151-.8-2.355-9.6-.51-.693H104l8.688,11.1Z" transform="translate(-104.003 -147.849)" fill="#00abf2"/>
          <path id="Trazado_910554" data-name="Trazado 910554" d="M159.6,165.221a1.623,1.623,0,0,0,2.556,0l.064-.082,2.715-11.1h-8.114l2.715,11.1Z" transform="translate(-150.85 -147.849)" fill="#00c2fb"/>
        </g>
        <path id="Trazado_910555" data-name="Trazado 910555" d="M462.542,28.475l-1.057-.2-4.033.76v1.513l2.356,2.356a1.2,1.2,0,0,0,2.035-.632l.7-3.793Z" transform="translate(-406.57 -25.923)" fill="#e1aad4"/>
        <path id="Trazado_910556" data-name="Trazado 910556" d="M442.716,10.8l4.05-.748.209-1.129a1.2,1.2,0,0,0-1.4-1.4l-4.923.909a1.2,1.2,0,0,0-.632,2.035l1.734,1.734A1.2,1.2,0,0,1,442.716,10.8Z" transform="translate(-390.793 -7.5)" fill="#d693c8"/>
      </g>
      <g id="Grupo_1118031" data-name="Grupo 1118031" transform="translate(0.001 0)">
        <path id="Trazado_910557" data-name="Trazado 910557" d="M236.832,377.049a4.07,4.07,0,0,1-.97-.123c-2.455-.6-8.268-2-8.268-2l.4-1.649s5.818,1.4,8.275,2a1.734,1.734,0,0,0,2.158-1.244.848.848,0,0,1,1.625.487A3.445,3.445,0,0,1,236.832,377.049Z" transform="translate(-201.858 -331.065)"/>
        <path id="Trazado_910558" data-name="Trazado 910558" d="M236.832,377.049a4.07,4.07,0,0,1-.97-.123c-2.455-.6-8.268-2-8.268-2l.4-1.649s5.818,1.4,8.275,2a1.734,1.734,0,0,0,2.158-1.244.848.848,0,0,1,1.625.487A3.445,3.445,0,0,1,236.832,377.049Z" transform="translate(-201.858 -331.065)"/>
        <path id="Trazado_910559" data-name="Trazado 910559" d="M102.72,91.8h9.322a3.3,3.3,0,0,1,2.778,1.506l3.3,5.069a.848.848,0,0,1-.711,1.311H97.351a.848.848,0,0,1-.711-1.311l3.3-5.069A3.3,3.3,0,0,1,102.72,91.8Zm13.127,6.19L113.4,94.236a1.614,1.614,0,0,0-1.357-.735H102.72a1.614,1.614,0,0,0-1.357.736l-2.447,3.758Z" transform="translate(-85.59 -81.423)"/>
        <path id="Trazado_910560" data-name="Trazado 910560" d="M97.351,146.539h20.06a.848.848,0,0,1,.668,1.371l-8.752,11.182a2.471,2.471,0,0,1-3.891,0L96.683,147.91a.848.848,0,0,1,.668-1.371Zm18.319,1.7H99.092l7.679,9.811a.775.775,0,0,0,1.22,0Z" transform="translate(-85.59 -129.968)"/>
        <path id="Trazado_910561" data-name="Trazado 910561" d="M154.228,160.04a2.456,2.456,0,0,1-1.946-.948,1.4,1.4,0,0,1-.22-.4l-2.715-11.1a.848.848,0,0,1,.824-1.05h8.114a.848.848,0,0,1,.824,1.05l-2.715,11.1a.848.848,0,0,1-.156.322A2.513,2.513,0,0,1,154.228,160.04Zm-.567-1.953a.764.764,0,0,0,1.13.014l2.413-9.866h-5.953Z" transform="translate(-132.437 -129.968)"/>
        <path id="Trazado_910562" data-name="Trazado 910562" d="M152.071,91.8h4.314a.848.848,0,0,1,.811.6l1.9,6.19a.848.848,0,0,1-.811,1.1h-8.114a.848.848,0,0,1-.811-1.1l1.9-6.19A.848.848,0,0,1,152.071,91.8Zm3.688,1.7H152.7l-1.379,4.493h5.819Z" transform="translate(-132.437 -81.423)"/>
        <path id="Trazado_910563" data-name="Trazado 910563" d="M375.828,206.842a3.109,3.109,0,0,1-2.313-.993.848.848,0,1,1,1.245-1.152,1.409,1.409,0,0,0,1.068.448c.809,0,.986-.413.986-.573,0-.25,0-.486-.732-.679-1.683-.443-2.649-1.315-2.649-2.392a2.374,2.374,0,0,1,2.48-2.244,3.37,3.37,0,0,1,2.256.988.848.848,0,0,1-1.217,1.181,1.692,1.692,0,0,0-1.039-.473.72.72,0,0,0-.784.548c.016.1.388.489,1.385.751a2.3,2.3,0,0,1,2,2.32A2.437,2.437,0,0,1,375.828,206.842Z" transform="translate(-331.077 -176.726)"/>
        <g id="Grupo_1118030" data-name="Grupo 1118030" transform="translate(43.889 21.44)">
          <path id="Línea_634" data-name="Línea 634" d="M-6.652-5.012A.848.848,0,0,1-7.5-5.861v-.791A.848.848,0,0,1-6.652-7.5a.848.848,0,0,1,.848.848v.791A.848.848,0,0,1-6.652-5.012Z" transform="translate(7.5 7.5)"/>
          <path id="Línea_635" data-name="Línea 635" d="M-6.652-5.012A.848.848,0,0,1-7.5-5.861v-.791A.848.848,0,0,1-6.652-7.5a.848.848,0,0,1,.848.848v.791A.848.848,0,0,1-6.652-5.012Z" transform="translate(7.5 14.782)"/>
        </g>
        <path id="Trazado_910564" data-name="Trazado 910564" d="M438.227,9.028a2.036,2.036,0,0,1-1.445-.6l-4.014-4.014A2.052,2.052,0,0,1,433.847.944L438.77.035A2.073,2.073,0,0,1,439.146,0a2.052,2.052,0,0,1,2.013,2.425l-.909,4.923A2.056,2.056,0,0,1,438.227,9.028Zm.919-7.331-4.991.916a.355.355,0,0,0-.187.6l4.013,4.013a.338.338,0,0,0,.246.105h0a.353.353,0,0,0,.355-.292l.909-4.923a.344.344,0,0,0-.075-.291A.352.352,0,0,0,439.146,1.7Z" transform="translate(-383.297 0)"/>
        <path id="Trazado_910565" data-name="Trazado 910565" d="M296.578,49.8a.848.848,0,0,1-.6-1.448l6.461-6.461a.848.848,0,0,1,1.2,0l5.2,5.2,4.623-4.623a.848.848,0,1,1,1.2,1.2l-5.223,5.223a.848.848,0,0,1-1.2,0l-5.2-5.2-5.862,5.862A.846.846,0,0,1,296.578,49.8Z" transform="translate(-262.289 -36.93)"/>
        <path id="Trazado_910566" data-name="Trazado 910566" d="M332.263,179.677a8.078,8.078,0,0,1-2.211-15.848.848.848,0,1,1,.464,1.632,6.382,6.382,0,1,0,3.494,0,.848.848,0,0,1,.464-1.632,8.078,8.078,0,0,1-2.211,15.848Z" transform="translate(-287.526 -145.275)"/>
        <path id="Trazado_910567" data-name="Trazado 910567" d="M1.881,328.232A1.879,1.879,0,0,1,0,326.352V313.415A1.884,1.884,0,0,1,1.382,311.6l3.889-1.069A9.425,9.425,0,0,0,8.2,309.146a29.319,29.319,0,0,1,4.871-2.77c3.351-1.5,4.667-1.551,11.094-1.573,1.68.027,2.726.375,6.133,1.737a.848.848,0,1,1-.63,1.575c-3.424-1.369-4.2-1.6-5.514-1.616-6.226.021-7.349.063-10.391,1.424a27.615,27.615,0,0,0-4.588,2.61,11.116,11.116,0,0,1-3.451,1.636l-3.889,1.069a.184.184,0,0,0-.135.177v12.937a.183.183,0,0,0,.248.171l13.519-5.133a13.594,13.594,0,0,1,9.174-.066l5.284,2.11a7.645,7.645,0,0,0,5.861-.36l9.188-4.066,9.306-4.116c.414-.214,2.65-1.5,1.675-3.715-.918-1.916-2.884-1.493-3.973-1.067-.022.009-.085.032-.108.039L37.62,314.365a.848.848,0,0,1-1.043-1.087,2.306,2.306,0,0,0-1.49-2.985l-1.751-.7a.848.848,0,0,1,.632-1.574l1.748.7a3.9,3.9,0,0,1,2.676,3.65l13-3.846c2.716-1.064,5.008-.338,6.1,1.948,1.328,3.018-.939,5.16-2.487,5.954L36.516,324.6a9.335,9.335,0,0,1-7.183.42L24.01,322.9a12.048,12.048,0,0,0-7.982.089L2.548,328.109A1.878,1.878,0,0,1,1.881,328.232Z" transform="translate(-0.001 -270.335)"/>
      </g>
    </g>
  </g>
</svg>
