<svg xmlns="http://www.w3.org/2000/svg" xmlns:xlink="http://www.w3.org/1999/xlink" width="113" height="113" viewBox="0 0 113 113">
  <defs>
    <filter id="Trazado_896985" x="0" y="0" width="113" height="113" filterUnits="userSpaceOnUse">
      <feOffset dy="3" input="SourceAlpha"/>
      <feGaussianBlur stdDeviation="3" result="blur"/>
      <feFlood flood-opacity="0.161"/>
      <feComposite operator="in" in2="blur"/>
      <feComposite in="SourceGraphic"/>
    </filter>
  </defs>
  <g id="Grupo_1118035" data-name="Grupo 1118035" transform="translate(5495 4155)">
    <g id="Grupo_1118033" data-name="Grupo 1118033" transform="translate(0 393)">
      <g id="Grupo_1118026" data-name="Grupo 1118026" transform="translate(0 381)">
        <g id="Grupo_1117997" data-name="Grupo 1117997" transform="translate(66 380)">
          <g id="Grupo_1117994" data-name="Grupo 1117994" transform="translate(70 387)">
            <g id="Grupo_1117992" data-name="Grupo 1117992" transform="translate(0 387)">
              <g id="Grupo_1117974" data-name="Grupo 1117974" transform="translate(-6642.051 -11608)">
                <g id="Grupo_1117971" data-name="Grupo 1117971" transform="translate(515 3362)">
                  <g id="Grupo_1113419" data-name="Grupo 1113419" transform="translate(170.16 -1683)">
                    <g id="Grupo_1111318" data-name="Grupo 1111318" transform="translate(-5.891)">
                      <g id="Grupo_1109826" data-name="Grupo 1109826" transform="translate(340.781 3852)">
                        <g id="Grupo_1098742" data-name="Grupo 1098742">
                          <g transform="matrix(1, 0, 0, 1, -9, -6)" filter="url(#Trazado_896985)">
                            <g id="Trazado_896985-2" data-name="Trazado 896985" transform="translate(9 6)" fill="#e2dacc" opacity="0.859">
                              <path d="M 47.49993515014648 93.5 C 41.28932189941406 93.5 35.26528167724609 92.28397369384766 29.59514808654785 89.88571929931641 C 24.1176815032959 87.56894683837891 19.1981086730957 84.25197601318359 14.97306823730469 80.02693176269531 C 10.74802875518799 75.80189514160156 7.431055068969727 70.88231658935547 5.11428165435791 65.40485382080078 C 2.716028451919556 59.73471832275391 1.500001788139343 53.71067810058594 1.500001788139343 47.50006484985352 C 1.500001788139343 41.28932189941406 2.716028451919556 35.26528167724609 5.11428165435791 29.59514617919922 C 7.431055068969727 24.11767959594727 10.74802875518799 19.19810676574707 14.97306823730469 14.97306632995605 C 19.1981086730957 10.74802684783936 24.1176815032959 7.431053161621094 29.59514808654785 5.114280223846436 C 35.26528167724609 2.716026782989502 41.28932189941406 1.5 47.49993515014648 1.5 C 53.71054840087891 1.5 59.73458862304688 2.716026782989502 65.40472412109375 5.114280223846436 C 70.88218688964844 7.431053161621094 75.80176544189453 10.74802684783936 80.02680206298828 14.97306632995605 C 84.25183868408203 19.19810676574707 87.56881713867188 24.11767959594727 89.88558959960938 29.59514617919922 C 92.28384399414062 35.26528167724609 93.49987030029297 41.28932189941406 93.49987030029297 47.49993515014648 C 93.49987030029297 53.71067810058594 92.28384399414062 59.73471832275391 89.88558959960938 65.40485382080078 C 87.56881713867188 70.88231658935547 84.25183868408203 75.80189514160156 80.02680206298828 80.02693176269531 C 75.80176544189453 84.25197601318359 70.88218688964844 87.56894683837891 65.40472412109375 89.88571929931641 C 59.73458862304688 92.28397369384766 53.71054840087891 93.5 47.49993515014648 93.5 Z" stroke="none"/>
                              <path d="M 47.49993515014648 3 C 41.49116516113281 3 35.66371917724609 4.176155090332031 30.17947387695312 6.495796203613281 C 24.88081359863281 8.7369384765625 20.12149047851562 11.94596862792969 16.03372192382812 16.03372192382812 C 11.94596862792969 20.12149047851562 8.7369384765625 24.88081359863281 6.495796203613281 30.17947387695312 C 4.1761474609375 35.66372299194336 3 41.49116897583008 3 47.50006103515625 C 3 53.50883102416992 4.1761474609375 59.33627700805664 6.495796203613281 64.82052612304688 C 8.7369384765625 70.11918640136719 11.94596862792969 74.87850952148438 16.03372192382812 78.96627807617188 C 20.12149047851562 83.05403137207031 24.88081359863281 86.2630615234375 30.17947387695312 88.50419616699219 C 35.66371917724609 90.82384490966797 41.49116516113281 92 47.49993515014648 92 C 53.50870513916016 92 59.33615112304688 90.82384490966797 64.82039642333984 88.50419616699219 C 70.11905670166016 86.2630615234375 74.87837982177734 83.05403137207031 78.96614837646484 78.96627807617188 C 83.05390167236328 74.87850952148438 86.26293182373047 70.11918640136719 88.50407409667969 64.82052612304688 C 90.82372283935547 59.33627700805664 91.99987030029297 53.50883102416992 91.99987030029297 47.49993896484375 C 91.99987030029297 41.49116897583008 90.82372283935547 35.66372299194336 88.50407409667969 30.17947387695312 C 86.26293182373047 24.88081359863281 83.05390167236328 20.12149047851562 78.96614837646484 16.03372192382812 C 74.87837982177734 11.94596862792969 70.11905670166016 8.7369384765625 64.82039642333984 6.495796203613281 C 59.33615112304688 4.176155090332031 53.50870513916016 3 47.49993515014648 3 M 47.49993515014648 0 C 73.73342895507812 0 94.99987030029297 21.26644897460938 94.99987030029297 47.49993896484375 L 94.99987030029297 47.50006103515625 C 94.99987030029297 73.73355102539062 73.73342895507812 95 47.49993515014648 95 C 21.26644134521484 95 0 73.73355102539062 0 47.50006103515625 L 0 47.49993896484375 C 0 21.26644897460938 21.26644134521484 0 47.49993515014648 0 Z" stroke="none" fill="#fff"/>
                            </g>
                          </g>
                          <g id="Rectángulo_400907" data-name="Rectángulo 400907" transform="translate(0 0)" fill="none" stroke="#fff" stroke-width="3">
                            <rect width="95" height="95" rx="47.5" stroke="none"/>
                            <rect x="1.5" y="1.5" width="92" height="92" rx="46" fill="none"/>
                          </g>
                        </g>
                      </g>
                    </g>
                  </g>
                </g>
              </g>
            </g>
          </g>
        </g>
      </g>
    </g>
    <g id="Page-1" transform="translate(-5466.988 -4130)">
      <g id="_085---Capital-Gains" data-name="085---Capital-Gains" transform="translate(-0.012 0)">
        <path id="Path" d="M37.759,13.75l-2.366,4.733h-9.82L23.206,13.75a1.894,1.894,0,0,1,2.1-2.7,23.467,23.467,0,0,0,5.181.786,23.467,23.467,0,0,0,5.181-.786,1.894,1.894,0,0,1,2.1,2.7Z" transform="translate(-2.412 -0.712)" fill="#ff9801" fill-rule="evenodd"/>
        <path id="Path-2" data-name="Path" d="M36.327,11.047c-.415.094-.865.192-1.334.294a1.886,1.886,0,0,1,.623,2.409L33.25,18.482h2.806l2.366-4.733a1.894,1.894,0,0,0-2.1-2.7Z" transform="translate(-3.076 -0.712)" fill="#f57c00" fill-rule="evenodd"/>
        <path id="Path-3" data-name="Path" d="M45.8,41.968a24.534,24.534,0,0,1-.224,3.479,15.245,15.245,0,0,1-.963,3.741,10.417,10.417,0,0,1-2.338,3.591C39.851,55.23,35.942,56.67,29.9,56.67s-9.942-1.431-12.374-3.881a1.9,1.9,0,0,0,.6-.412,1.828,1.828,0,0,0,.552-1.319,1.876,1.876,0,0,0-1.871-1.871,1.871,1.871,0,0,0,0-3.741H14a1.871,1.871,0,0,0,0-3.741h.935a1.871,1.871,0,0,0,0-3.741,1.873,1.873,0,0,0,.393-3.7A21.72,21.72,0,0,1,25.158,23h9.484a21.663,21.663,0,0,1,9.811,11.223,20.067,20.067,0,0,1,1,3.741,21.482,21.482,0,0,1,.337,3.741,2.364,2.364,0,0,1,.009.262Z" transform="translate(-1.83 -1.488)" fill="#ff9801" fill-rule="evenodd"/>
        <path id="Path-4" data-name="Path" d="M46.793,41.706a21.481,21.481,0,0,0-.337-3.741,20.067,20.067,0,0,0-1-3.741A21.663,21.663,0,0,0,35.645,23H32.839A21.663,21.663,0,0,1,42.65,34.223a20.068,20.068,0,0,1,1,3.741,21.482,21.482,0,0,1,.337,3.741,2.364,2.364,0,0,1,.009.262,24.535,24.535,0,0,1-.224,3.479,15.245,15.245,0,0,1-.963,3.741,10.417,10.417,0,0,1-2.338,3.591c-2.227,2.252-5.733,3.636-10.971,3.848.462.019.916.043,1.4.043,6.042,0,9.951-1.44,12.374-3.891a10.417,10.417,0,0,0,2.338-3.591,15.245,15.245,0,0,0,.963-3.741,24.534,24.534,0,0,0,.224-3.479,2.364,2.364,0,0,0-.009-.262Z" transform="translate(-2.833 -1.488)" fill="#f57c00" fill-rule="evenodd"/>
        <path id="Path-5" data-name="Path" d="M39.706,20.871a1.885,1.885,0,0,1-1.871,1.871H22.871a1.871,1.871,0,0,1,0-3.741H37.835A1.876,1.876,0,0,1,39.706,20.871Z" transform="translate(-2.283 -1.23)" fill="sienna" fill-rule="evenodd"/>
        <path id="Path-6" data-name="Path" d="M38.806,19H36a1.871,1.871,0,0,1,0,3.741h2.806a1.871,1.871,0,0,0,0-3.741Z" transform="translate(-3.254 -1.23)" fill="#783e22" fill-rule="evenodd"/>
        <path id="Path-7" data-name="Path" d="M17.9,51.835a1.828,1.828,0,0,1-.552,1.319,1.9,1.9,0,0,1-.6.412,1.865,1.865,0,0,1-.72.14H13.223a1.871,1.871,0,0,1,0,3.741H3.871A1.876,1.876,0,0,1,2,55.576a1.884,1.884,0,0,1,1.871-1.871H6.676a1.871,1.871,0,1,1,0-3.741,1.871,1.871,0,0,1,0-3.741H3.871A1.876,1.876,0,0,1,2,44.353a1.884,1.884,0,0,1,1.871-1.871h.935a1.871,1.871,0,0,1,0-3.741,1.871,1.871,0,0,1,0-3.741h9.353a2.664,2.664,0,0,1,.393.037,1.873,1.873,0,0,1-.393,3.7,1.871,1.871,0,0,1,0,3.741h-.935a1.871,1.871,0,1,1,0,3.741h2.806a1.871,1.871,0,0,1,0,3.741A1.876,1.876,0,0,1,17.9,51.835Z" transform="translate(-1.053 -2.265)" fill="#ffdc00" fill-rule="evenodd"/>
        <g id="Grupo_1118034" data-name="Grupo 1118034" transform="translate(9.364 32.735)">
          <path id="Path-8" data-name="Path" d="M15.676,44.353a1.876,1.876,0,0,0-1.871-1.871h.935a1.871,1.871,0,1,0,0-3.741,1.873,1.873,0,0,0,.393-3.7A2.664,2.664,0,0,0,14.741,35H11.935a2.664,2.664,0,0,1,.393.037,1.873,1.873,0,0,1-.393,3.7,1.871,1.871,0,0,1,0,3.741H11a1.871,1.871,0,0,1,0,3.741h2.806A1.885,1.885,0,0,0,15.676,44.353Z" transform="translate(-11 -35)" fill="#fec108" fill-rule="evenodd"/>
          <path id="Path-9" data-name="Path" d="M12.871,56.871A1.885,1.885,0,0,1,11,58.741h2.806a1.871,1.871,0,1,0,0-3.741H11A1.876,1.876,0,0,1,12.871,56.871Z" transform="translate(-11 -36.294)" fill="#fec108" fill-rule="evenodd"/>
          <path id="Path-10" data-name="Path" d="M16.806,50.741a1.871,1.871,0,0,0,0-3.741H14a1.871,1.871,0,1,1,0,3.741,1.876,1.876,0,0,1,1.871,1.871,1.828,1.828,0,0,1-.552,1.319,1.9,1.9,0,0,1-.6.412,1.866,1.866,0,0,1-.72.14h2.806a1.865,1.865,0,0,0,.72-.14,1.9,1.9,0,0,0,.6-.412,1.828,1.828,0,0,0,.552-1.319A1.876,1.876,0,0,0,16.806,50.741Z" transform="translate(-11.194 -35.777)" fill="#fec108" fill-rule="evenodd"/>
        </g>
        <path id="Path-11" data-name="Path" d="M58.428,54.257a1.828,1.828,0,0,1,.552,1.319,1.876,1.876,0,0,1-1.871,1.871H47.756a1.871,1.871,0,1,1,0-3.741H44.95a1.714,1.714,0,0,1-.72-.15,10.417,10.417,0,0,0,2.338-3.591,15.245,15.245,0,0,0,.963-3.741,24.534,24.534,0,0,0,.224-3.479,2.364,2.364,0,0,0-.009-.262,21.481,21.481,0,0,0-.337-3.741,20.067,20.067,0,0,0-1-3.741h9.764a1.871,1.871,0,1,1,0,3.741,1.871,1.871,0,0,1,0,3.741h.935a1.871,1.871,0,1,1,0,3.741H54.3a1.871,1.871,0,1,1,0,3.741,1.871,1.871,0,1,1,0,3.741h2.806A1.828,1.828,0,0,1,58.428,54.257Z" transform="translate(-3.786 -2.265)" fill="#ffdc00" fill-rule="evenodd"/>
        <path id="Path-12" data-name="Path" d="M59.612,44.353a1.885,1.885,0,0,0-1.871-1.871h-.935a1.871,1.871,0,0,0,0-3.741,1.871,1.871,0,0,0,0-3.741H54a1.871,1.871,0,0,1,0,3.741,1.871,1.871,0,0,1,0,3.741h.935a1.871,1.871,0,0,1,0,3.741h2.806A1.876,1.876,0,0,0,59.612,44.353Z" transform="translate(-4.418 -2.265)" fill="#fec108" fill-rule="evenodd"/>
        <path id="Path-13" data-name="Path" d="M57.806,55H55a1.871,1.871,0,0,1,0,3.741h2.806a1.871,1.871,0,0,0,0-3.741Z" transform="translate(-4.483 -3.559)" fill="#fec108" fill-rule="evenodd"/>
        <path id="Path-14" data-name="Path" d="M56.676,52.612a1.885,1.885,0,0,0-1.871-1.871,1.871,1.871,0,0,0,0-3.741H52a1.871,1.871,0,0,1,0,3.741,1.871,1.871,0,0,1,0,3.741h2.806A1.876,1.876,0,0,0,56.676,52.612Z" transform="translate(-4.289 -3.042)" fill="#fec108" fill-rule="evenodd"/>
        <path id="Path-15" data-name="Path" d="M56.181,0H52.44a.935.935,0,1,0,0,1.871h1.483L45.893,9.9l-8.03-8.03a1.871,1.871,0,0,0-2.645,0L31.864,5.224,28.51,1.871a1.871,1.871,0,0,0-2.645,0L22.511,5.224,18.222.935a1.871,1.871,0,0,0-2.645,0l-14.3,14.3A.935.935,0,1,0,2.6,16.561l14.3-14.3,4.289,4.289a1.871,1.871,0,0,0,2.645,0l3.354-3.354,3.354,3.354a1.871,1.871,0,0,0,2.645,0L36.54,3.193l8.03,8.03a1.871,1.871,0,0,0,2.645,0l8.03-8.03V4.676a.935.935,0,0,0,1.871,0V.935A.935.935,0,0,0,56.181,0Z" transform="translate(-0.988 0)" fill-rule="evenodd"/>
        <path id="Path-16" data-name="Path" d="M30.741,35.741a1.871,1.871,0,0,1,1.871,1.871.935.935,0,1,0,1.871,0A3.741,3.741,0,0,0,31.676,34V32.935a.935.935,0,0,0-1.871,0V34a3.734,3.734,0,0,0,.935,7.349,1.871,1.871,0,1,1-1.871,1.871.935.935,0,0,0-1.871,0,3.741,3.741,0,0,0,2.806,3.608V47.9a.935.935,0,0,0,1.871,0V46.832a3.734,3.734,0,0,0-.935-7.349,1.871,1.871,0,1,1,0-3.741Z" transform="translate(-2.671 -2.071)" fill-rule="evenodd"/>
        <path id="Shape" d="M57.117,42.735a2.806,2.806,0,0,0-1.309-2.366,2.768,2.768,0,0,0,.374-1.375,2.73,2.73,0,0,0-.731-1.871,2.785,2.785,0,0,0,.731-1.871,2.82,2.82,0,0,0-2.806-2.806H44.238A22.37,22.37,0,0,0,36.9,23.058a2.8,2.8,0,0,0-.361-5.575H35.482l1.69-3.38a2.83,2.83,0,0,0-3.129-4.035l-.679.152a19.219,19.219,0,0,1-4.3.614,19.219,19.219,0,0,1-4.3-.614l-.68-.152A2.83,2.83,0,0,0,20.951,14.1l1.684,3.378H21.576a2.8,2.8,0,0,0-.368,5.574,22.319,22.319,0,0,0-7.335,9.39H4.741a2.794,2.794,0,0,0-2.076,4.676,2.741,2.741,0,0,0-.355,3.246,2.8,2.8,0,0,0,1.5,5.171h.172a2.72,2.72,0,0,0,.561,2.806,2.72,2.72,0,0,0-.561,2.806H3.806a2.806,2.806,0,0,0,0,5.612h9.353a2.806,2.806,0,0,0,2.806-2.806,2.774,2.774,0,0,0-.172-.935h.172a2.829,2.829,0,0,0,.474-.048c2.78,2.538,6.905,3.789,12.62,3.789s9.908-1.233,12.682-3.783a2.814,2.814,0,0,0,.412.042h.172a2.774,2.774,0,0,0-.172.935,2.806,2.806,0,0,0,2.806,2.806h9.353a2.806,2.806,0,0,0,0-5.612h-.172a2.774,2.774,0,0,0,.172-.935,2.73,2.73,0,0,0-.731-1.871,2.733,2.733,0,0,0,.561-2.806h.17a2.806,2.806,0,0,0,2.806-2.806Zm-2.806.935H45.766q.084-.9.106-1.871h8.439a.914.914,0,0,1,.667.287.9.9,0,0,1,.268.648.935.935,0,0,1-.935.935Zm-.268-5.325a.9.9,0,0,1,.268.648.935.935,0,0,1-.935.935H45.84c-.03-.642-.08-1.266-.156-1.871h7.692A.914.914,0,0,1,54.043,38.346Zm-.667-4.028a.914.914,0,0,1,.667.287.9.9,0,0,1,.268.648.935.935,0,0,1-.935.935h-8q-.2-.97-.475-1.871ZM22.62,13.274A.959.959,0,0,1,23.68,11.9l.662.148a21.018,21.018,0,0,0,4.717.655,21.018,21.018,0,0,0,4.717-.655l.661-.148A.959.959,0,0,1,35.5,13.272l-2.107,4.211H24.726Zm-1.979,7.015a.935.935,0,0,1,.935-.935H36.541a.935.935,0,0,1,0,1.871H21.576a.935.935,0,0,1-.935-.935ZM15.029,38.994a.935.935,0,0,1-.935.935H4.741a.935.935,0,1,1,0-1.871h9.353A.935.935,0,0,1,15.029,38.994ZM4.741,34.318h9.353a.935.935,0,1,1,0,1.871H4.741a.935.935,0,1,1,0-1.871ZM2.87,42.735a.935.935,0,0,1,.935-.935h9.353a.935.935,0,0,1,0,1.871H3.806A.935.935,0,0,1,2.87,42.735Zm10.288,2.806h2.806a.935.935,0,0,1,0,1.871H6.612a.935.935,0,1,1,0-1.871ZM5.676,50.217a.935.935,0,0,1,.935-.935h9.353a.935.935,0,1,1,0,1.871H6.612A.935.935,0,0,1,5.676,50.217Zm8.418,3.741a.935.935,0,0,1-.935.935H3.806a.935.935,0,0,1,0-1.871h9.353A.935.935,0,0,1,14.094,53.959Zm14.965.935c-4.92,0-8.5-.962-10.926-2.917a2.754,2.754,0,0,0-.092-3.63,2.794,2.794,0,0,0-2.076-4.676h-.172a2.678,2.678,0,0,0-.2-2.311,2.779,2.779,0,0,0,.581-4.236,2.782,2.782,0,0,0-.483-4.175,20.782,20.782,0,0,1,8.873-9.854h8.994A20.34,20.34,0,0,1,44.023,41.126c0,9.521-4.616,13.767-14.965,13.767Zm26.188-.935a.935.935,0,0,1-.935.935H44.958a.935.935,0,0,1,0-1.871h9.353A.935.935,0,0,1,55.246,53.959ZM44.958,51.153H43.312a12.007,12.007,0,0,0,1.072-1.871h7.121a.914.914,0,0,1,.667.287.9.9,0,0,1,.268.648.935.935,0,0,1-.935.935Zm7.214-5.325a.9.9,0,0,1,.268.648.935.935,0,0,1-.935.935H45.07a17.378,17.378,0,0,0,.442-1.871h5.993A.914.914,0,0,1,52.172,45.828Z" transform="translate(-0.988 -0.647)"/>
      </g>
    </g>
  </g>
</svg>
