<svg xmlns="http://www.w3.org/2000/svg" xmlns:xlink="http://www.w3.org/1999/xlink" width="113" height="113" viewBox="0 0 113 113">
  <defs>
    <filter id="Trazado_896985" x="0" y="0" width="113" height="113" filterUnits="userSpaceOnUse">
      <feOffset dy="3" input="SourceAlpha"/>
      <feGaussianBlur stdDeviation="3" result="blur"/>
      <feFlood flood-opacity="0.161"/>
      <feComposite operator="in" in2="blur"/>
      <feComposite in="SourceGraphic"/>
    </filter>
    <clipPath id="clip-path">
      <path id="path7209" d="M0-682.665H55.172v55.172H0Z" transform="translate(0 682.665)"/>
    </clipPath>
  </defs>
  <g id="Grupo_1118037" data-name="Grupo 1118037" transform="translate(5495 3749)">
    <g id="Grupo_1118036" data-name="Grupo 1118036" transform="translate(0 406)">
      <g id="Grupo_1118033" data-name="Grupo 1118033" transform="translate(0 393)">
        <g id="Grupo_1118026" data-name="Grupo 1118026" transform="translate(0 381)">
          <g id="Grupo_1117997" data-name="Grupo 1117997" transform="translate(66 380)">
            <g id="Grupo_1117994" data-name="Grupo 1117994" transform="translate(70 387)">
              <g id="Grupo_1117992" data-name="Grupo 1117992" transform="translate(0 387)">
                <g id="Grupo_1117974" data-name="Grupo 1117974" transform="translate(-6642.051 -11608)">
                  <g id="Grupo_1117971" data-name="Grupo 1117971" transform="translate(515 3362)">
                    <g id="Grupo_1113419" data-name="Grupo 1113419" transform="translate(170.16 -1683)">
                      <g id="Grupo_1111318" data-name="Grupo 1111318" transform="translate(-5.891)">
                        <g id="Grupo_1109826" data-name="Grupo 1109826" transform="translate(340.781 3852)">
                          <g id="Grupo_1098742" data-name="Grupo 1098742">
                            <g transform="matrix(1, 0, 0, 1, -9, -6)" filter="url(#Trazado_896985)">
                              <g id="Trazado_896985-2" data-name="Trazado 896985" transform="translate(9 6)" fill="#e2dacc" opacity="0.859">
                                <path d="M 47.49993515014648 93.5 C 41.28932189941406 93.5 35.26528167724609 92.28397369384766 29.59514808654785 89.88571929931641 C 24.1176815032959 87.56894683837891 19.1981086730957 84.25197601318359 14.97306823730469 80.02693176269531 C 10.74802875518799 75.80189514160156 7.431055068969727 70.88231658935547 5.11428165435791 65.40485382080078 C 2.716028451919556 59.73471832275391 1.500001788139343 53.71067810058594 1.500001788139343 47.50006484985352 C 1.500001788139343 41.28932189941406 2.716028451919556 35.26528167724609 5.11428165435791 29.59514617919922 C 7.431055068969727 24.11767959594727 10.74802875518799 19.19810676574707 14.97306823730469 14.97306632995605 C 19.1981086730957 10.74802684783936 24.1176815032959 7.431053161621094 29.59514808654785 5.114280223846436 C 35.26528167724609 2.716026782989502 41.28932189941406 1.5 47.49993515014648 1.5 C 53.71054840087891 1.5 59.73458862304688 2.716026782989502 65.40472412109375 5.114280223846436 C 70.88218688964844 7.431053161621094 75.80176544189453 10.74802684783936 80.02680206298828 14.97306632995605 C 84.25183868408203 19.19810676574707 87.56881713867188 24.11767959594727 89.88558959960938 29.59514617919922 C 92.28384399414062 35.26528167724609 93.49987030029297 41.28932189941406 93.49987030029297 47.49993515014648 C 93.49987030029297 53.71067810058594 92.28384399414062 59.73471832275391 89.88558959960938 65.40485382080078 C 87.56881713867188 70.88231658935547 84.25183868408203 75.80189514160156 80.02680206298828 80.02693176269531 C 75.80176544189453 84.25197601318359 70.88218688964844 87.56894683837891 65.40472412109375 89.88571929931641 C 59.73458862304688 92.28397369384766 53.71054840087891 93.5 47.49993515014648 93.5 Z" stroke="none"/>
                                <path d="M 47.49993515014648 3 C 41.49116516113281 3 35.66371917724609 4.176155090332031 30.17947387695312 6.495796203613281 C 24.88081359863281 8.7369384765625 20.12149047851562 11.94596862792969 16.03372192382812 16.03372192382812 C 11.94596862792969 20.12149047851562 8.7369384765625 24.88081359863281 6.495796203613281 30.17947387695312 C 4.1761474609375 35.66372299194336 3 41.49116897583008 3 47.50006103515625 C 3 53.50883102416992 4.1761474609375 59.33627700805664 6.495796203613281 64.82052612304688 C 8.7369384765625 70.11918640136719 11.94596862792969 74.87850952148438 16.03372192382812 78.96627807617188 C 20.12149047851562 83.05403137207031 24.88081359863281 86.2630615234375 30.17947387695312 88.50419616699219 C 35.66371917724609 90.82384490966797 41.49116516113281 92 47.49993515014648 92 C 53.50870513916016 92 59.33615112304688 90.82384490966797 64.82039642333984 88.50419616699219 C 70.11905670166016 86.2630615234375 74.87837982177734 83.05403137207031 78.96614837646484 78.96627807617188 C 83.05390167236328 74.87850952148438 86.26293182373047 70.11918640136719 88.50407409667969 64.82052612304688 C 90.82372283935547 59.33627700805664 91.99987030029297 53.50883102416992 91.99987030029297 47.49993896484375 C 91.99987030029297 41.49116897583008 90.82372283935547 35.66372299194336 88.50407409667969 30.17947387695312 C 86.26293182373047 24.88081359863281 83.05390167236328 20.12149047851562 78.96614837646484 16.03372192382812 C 74.87837982177734 11.94596862792969 70.11905670166016 8.7369384765625 64.82039642333984 6.495796203613281 C 59.33615112304688 4.176155090332031 53.50870513916016 3 47.49993515014648 3 M 47.49993515014648 0 C 73.73342895507812 0 94.99987030029297 21.26644897460938 94.99987030029297 47.49993896484375 L 94.99987030029297 47.50006103515625 C 94.99987030029297 73.73355102539062 73.73342895507812 95 47.49993515014648 95 C 21.26644134521484 95 0 73.73355102539062 0 47.50006103515625 L 0 47.49993896484375 C 0 21.26644897460938 21.26644134521484 0 47.49993515014648 0 Z" stroke="none" fill="#fff"/>
                              </g>
                            </g>
                            <g id="Rectángulo_400907" data-name="Rectángulo 400907" transform="translate(0 0)" fill="none" stroke="#fff" stroke-width="3">
                              <rect width="95" height="95" rx="47.5" stroke="none"/>
                              <rect x="1.5" y="1.5" width="92" height="92" rx="46" fill="none"/>
                            </g>
                          </g>
                        </g>
                      </g>
                    </g>
                  </g>
                </g>
              </g>
            </g>
          </g>
        </g>
      </g>
    </g>
    <g id="g7203" transform="translate(-5466 -3040.335)">
      <g id="g7205" transform="translate(0 -682.665)">
        <g id="g7207" clip-path="url(#clip-path)">
          <g id="g7213" transform="translate(3.904 0.808)">
            <path id="path7215" d="M-37.863,0a3.329,3.329,0,0,0-3.329,3.329V46.211a3.329,3.329,0,0,0,3.329,3.329h31.3a3.329,3.329,0,0,0,3.329-3.329V10.265a2.522,2.522,0,0,0-.739-1.783L-11.717.739A2.522,2.522,0,0,0-13.5,0Z" transform="translate(41.192)" fill="#f4f8f8"/>
          </g>
          <g id="g7217" transform="translate(31.911 9.948)">
            <path id="path7219" d="M-46.158-.923A3.34,3.34,0,0,1-46.887-1V36.067A3.329,3.329,0,0,1-50.216,39.4h6.621a3.329,3.329,0,0,0,3.329-3.329V.122a2.521,2.521,0,0,0-.227-1.045Z" transform="translate(50.216 1.004)" fill="#e5ecf1"/>
          </g>
          <g id="g7221" transform="translate(32.641 1.035)">
            <path id="path7223" d="M-96.471-93.886l-7.743-7.743a2.522,2.522,0,0,0-.739-.511v5.664a3.329,3.329,0,0,0,3.329,3.329h5.664a2.521,2.521,0,0,0-.511-.739" transform="translate(104.953 102.141)" fill="#fc8086"/>
          </g>
          <g id="g7225" transform="translate(12.063 30.232)">
            <path id="path7227" d="M-369.15-157.8l-11.89-7.041a1.284,1.284,0,0,1-.45-1.758l.608-1.027-2.406-1.423c-1.587-.911-2.329-1.079-3.761-.526l-1.56.6a3.322,3.322,0,0,1-2.891-.24l-4.176-2.462-5.932,10.012,5.348,3.156a3.326,3.326,0,0,1,.937.83l1.8,2.337a20.735,20.735,0,0,0,4.367,3.455l6.878,4.075a1.911,1.911,0,0,0,2.618-.67,1.911,1.911,0,0,0-.67-2.618l2.149,1.273a1.911,1.911,0,0,0,2.618-.67,1.911,1.911,0,0,0-.67-2.618l1.433.849a1.911,1.911,0,0,0,2.618-.67,1.911,1.911,0,0,0-.67-2.618l1.753,1.039a1.91,1.91,0,0,0,2.617-.67,1.91,1.91,0,0,0-.67-2.617" transform="translate(401.607 171.68)" fill="#ffece3"/>
          </g>
          <g id="g7229" transform="translate(26.126 41.68)">
            <path id="path7231" d="M-209.194-27.6l-4.1-2.427a2.192,2.192,0,0,1-.548.985,2.277,2.277,0,0,1-2.8.343l-1.166-.691a.1.1,0,0,0-.128.018.1.1,0,0,0-.008.13,2.224,2.224,0,0,1,.1,2.414,2.225,2.225,0,0,1-3.048.78l-.916-.547a.089.089,0,0,0-.111.016.088.088,0,0,0,0,.113,2.223,2.223,0,0,1,.122,2.512,2.263,2.263,0,0,1-3.077.715l-.752-.445a.44.44,0,0,0-.478.019.438.438,0,0,0-.177.444,2.213,2.213,0,0,1-.264,1.577,2.213,2.213,0,0,1-1.04.909l5.225,3.1a1.951,1.951,0,0,0,2.679-.676,1.911,1.911,0,0,0-.688-2.586l2.106,1.248a1.951,1.951,0,0,0,2.679-.676,1.911,1.911,0,0,0-.688-2.586l1.389.823a1.952,1.952,0,0,0,2.679-.676,1.911,1.911,0,0,0-.688-2.586l1.71,1.013a1.951,1.951,0,0,0,2.679-.676,1.91,1.91,0,0,0-.688-2.586" transform="translate(227.587 30.027)" fill="#ffddce"/>
          </g>
          <g id="g7233" transform="translate(34.579 42.329)">
            <path id="path7235" d="M-70.975-44.987a.8.8,0,0,1-.411-.113l-5.432-3.218a.808.808,0,0,1-.283-1.107.808.808,0,0,1,1.107-.283l5.432,3.218a.808.808,0,0,1,.283,1.107A.808.808,0,0,1-70.975-44.987Z" transform="translate(77.215 49.821)"/>
          </g>
          <g id="g7237" transform="translate(32.628 45.615)">
            <path id="path7239" d="M-54.715-35.354a.8.8,0,0,1-.411-.113l-4-2.371a.808.808,0,0,1-.283-1.107.808.808,0,0,1,1.107-.283l4,2.371a.808.808,0,0,1,.283,1.107A.808.808,0,0,1-54.715-35.354Z" transform="translate(59.525 39.341)"/>
          </g>
          <g id="g7241" transform="translate(30.966 49.072)">
            <path id="path7243" d="M-27.032-18.952a.8.8,0,0,1-.411-.113l-1.568-.929A.808.808,0,0,1-29.3-21.1a.808.808,0,0,1,1.107-.283l1.568.929a.808.808,0,0,1,.283,1.107A.808.808,0,0,1-27.032-18.952Z" transform="translate(29.408 21.498)"/>
          </g>
          <g id="g7245" transform="translate(29.074 30.83)">
            <path id="path7247" d="M-163.964,0l-3.208,1.864a3.322,3.322,0,0,1-2.891.24l-1.76-.691a2.828,2.828,0,0,0-1.728-.109l-2.7.682a2.828,2.828,0,0,0-2.134,2.742v3.6a.923.923,0,0,0,.921.923,2.777,2.777,0,0,0,2.779-2.777V6.321l11.54,6.834a3.323,3.323,0,0,1,.729-.584l4.379-2.558Z" transform="translate(178.381)" fill="#fcd0a3"/>
          </g>
          <g id="g7249" transform="translate(37.675 33.718)">
            <path id="path7251" d="M-85.6,0l-.617,2.287-6.909,4.049,6.639,3.932a3.319,3.319,0,0,1,.728-.584l4.379-2.558Z" transform="translate(93.121)" fill="#ffb983"/>
          </g>
          <g id="g7253" transform="translate(15.21 42.497)">
            <path id="path7255" d="M-51.678-34.394l-1.082,1.507a1.91,1.91,0,0,1-2.665.438,1.91,1.91,0,0,1-.438-2.665l1.082-1.507a1.91,1.91,0,0,1,2.666-.438h0a1.91,1.91,0,0,1,.438,2.665" transform="translate(56.222 37.418)" fill="#fcd0a3"/>
          </g>
          <g id="g7257" transform="translate(18.313 43.061)">
            <path id="path7259" d="M-65.259-34.394l-2.276,3.17a1.91,1.91,0,0,1-2.665.438,1.91,1.91,0,0,1-.438-2.665l2.276-3.17A1.91,1.91,0,0,1-65.7-37.06a1.91,1.91,0,0,1,.438,2.665" transform="translate(70.997 37.418)" fill="#fcd0a3"/>
          </g>
          <g id="g7261" transform="translate(21.417 45.289)">
            <path id="path7263" d="M-65.259-34.394l-2.276,3.17a1.91,1.91,0,0,1-2.665.438,1.91,1.91,0,0,1-.438-2.665l2.276-3.17A1.91,1.91,0,0,1-65.7-37.06a1.91,1.91,0,0,1,.438,2.665" transform="translate(70.997 37.418)" fill="#fcd0a3"/>
          </g>
          <g id="g7265" transform="translate(25.028 48.926)">
            <path id="path7267" d="M-47.98-34.394l-.757,1.054A1.91,1.91,0,0,1-51.4-32.9a1.91,1.91,0,0,1-.438-2.666l.757-1.054a1.91,1.91,0,0,1,2.665-.438,1.91,1.91,0,0,1,.438,2.665" transform="translate(52.198 37.418)" fill="#ffb983"/>
          </g>
          <g id="g7269" transform="translate(10.217 28.064)">
            <path id="path7271" d="M-113.883-12.812l-1.673-.991a.969.969,0,0,0-1.327.34l-6.878,11.609a.969.969,0,0,0,.34,1.327l1.673.991a2.362,2.362,0,0,0,3.235-.828l5.458-9.213a2.361,2.361,0,0,0-.828-3.235" transform="translate(123.896 13.939)" fill="#7c8b96"/>
          </g>
          <g id="g7273" transform="translate(40.096 28.064)">
            <path id="path7275" d="M-32.2-1.54l-1.673.991A2.362,2.362,0,0,0-34.7,2.687l5.458,9.213a2.362,2.362,0,0,0,3.236.828l1.673-.991a.969.969,0,0,0,.34-1.327L-30.873-1.2A.969.969,0,0,0-32.2-1.54" transform="translate(35.031 1.675)" fill="#7c8b96"/>
          </g>
          <g id="g7277" transform="translate(8.862 14.851)">
            <path id="path7279" d="M17.233-8.384H-9.192A.808.808,0,0,1-10-9.192.808.808,0,0,1-9.192-10H17.233a.808.808,0,0,1,.808.808A.808.808,0,0,1,17.233-8.384Z" transform="translate(10 10)"/>
          </g>
          <g id="g7281" transform="translate(8.862 9.221)">
            <path id="path7283" d="M4.021-8.384H-9.192A.808.808,0,0,1-10-9.192.808.808,0,0,1-9.192-10H4.021a.808.808,0,0,1,.808.808A.808.808,0,0,1,4.021-8.384Z" transform="translate(10 10)"/>
          </g>
          <g id="g7285" transform="translate(8.862 19.84)">
            <path id="path7287" d="M17.233-8.384H-9.192A.808.808,0,0,1-10-9.192.808.808,0,0,1-9.192-10H17.233a.808.808,0,0,1,.808.808A.808.808,0,0,1,17.233-8.384Z" transform="translate(10 10)"/>
          </g>
          <g id="g7289" transform="translate(31.832 0.227)">
            <path id="path7291" d="M-.2.61H-5.863A4.142,4.142,0,0,1-10-3.527V-9.192A.808.808,0,0,1-9.192-10a.808.808,0,0,1,.808.808v5.664A2.524,2.524,0,0,0-5.863-1.006H-.2A.808.808,0,0,1,.61-.2.808.808,0,0,1-.2.61Z" transform="translate(10 10)"/>
          </g>
          <g id="g7293" transform="translate(3.096 0)">
            <path id="path7295" d="M-467.062-256.9h-8.457a4.142,4.142,0,0,1-4.137-4.137v-42.882a4.142,4.142,0,0,1,4.137-4.137h24.362a3.309,3.309,0,0,1,2.355.975l7.744,7.744a3.309,3.309,0,0,1,.975,2.355v13.823a.808.808,0,0,1-.808.808.808.808,0,0,1-.808-.808v-13.823a1.7,1.7,0,0,0-.5-1.212l-7.743-7.743a1.7,1.7,0,0,0-1.212-.5h-24.362a2.524,2.524,0,0,0-2.521,2.521v42.882a2.524,2.524,0,0,0,2.521,2.521h8.457a.808.808,0,0,1,.808.808A.808.808,0,0,1-467.062-256.9Z" transform="translate(479.656 308.055)"/>
          </g>
          <g id="g7297" transform="translate(9.409 27.256)">
            <path id="path7299" d="M-125.234-23.939a1.79,1.79,0,0,1,.9.248l1.673.991a3.173,3.173,0,0,1,1.112,4.343L-127-9.144a3.186,3.186,0,0,1-2.729,1.554,3.168,3.168,0,0,1-1.613-.443l-1.673-.991a1.779,1.779,0,0,1-.623-2.434l6.878-11.61A1.785,1.785,0,0,1-125.234-23.939Zm-4.5,14.733a1.542,1.542,0,0,0,1.339-.762l5.458-9.213a1.555,1.555,0,0,0-.545-2.128l-1.673-.991a.146.146,0,0,0-.081-.023.161.161,0,0,0-.139.079l-6.878,11.609a.161.161,0,0,0,.056.22l1.673.991A1.55,1.55,0,0,0-129.732-9.206Z" transform="translate(133.889 23.939)"/>
          </g>
          <g id="g7301" transform="translate(39.287 27.256)">
            <path id="path7303" d="M-41.343-108.195a3.172,3.172,0,0,1-2.732-1.553l-2.558-4.318a.808.808,0,0,1,.283-1.107.808.808,0,0,1,1.107.283l2.558,4.318a1.555,1.555,0,0,0,2.128.545l1.673-.991a.161.161,0,0,0,.056-.22l-6.878-11.609a.18.18,0,0,0-.22-.056l-1.673.991a1.543,1.543,0,0,0-.713.951,1.543,1.543,0,0,0,.168,1.177l.965,1.629a.808.808,0,0,1-.283,1.107.808.808,0,0,1-1.107-.283l-.965-1.629a3.149,3.149,0,0,1-.344-2.4,3.149,3.149,0,0,1,1.455-1.941l1.673-.991a1.765,1.765,0,0,1,1.346-.193,1.765,1.765,0,0,1,1.088.816l6.878,11.609a1.779,1.779,0,0,1-.623,2.434l-1.673.991A3.15,3.15,0,0,1-41.343-108.195Z" transform="translate(49.977 124.544)"/>
          </g>
          <g id="g7305" transform="translate(20.397 31.204)">
            <path id="path7307" d="M-123.5-19.711a4.114,4.114,0,0,1-2.1-.579l-.963-.568a.808.808,0,0,1-.286-1.107.808.808,0,0,1,1.107-.286l.965.569a2.5,2.5,0,0,0,2.189.183l1.56-.6c1.773-.685,2.765-.391,4.454.578l.285.169a.808.808,0,0,1,.284,1.107.808.808,0,0,1-1.107.284l-.276-.163c-1.443-.828-1.93-.9-3.058-.467l-1.56.6A4.139,4.139,0,0,1-123.5-19.711Z" transform="translate(126.964 22.476)"/>
          </g>
          <g id="g7309" transform="translate(14.419 41.304)">
            <path id="path7311" d="M-7.577-7.431a.8.8,0,0,1-.41-.112L-9.6-8.5A.808.808,0,0,1-9.889-9.6a.808.808,0,0,1,1.107-.285l1.617.954A.808.808,0,0,1-6.88-7.828.808.808,0,0,1-7.577-7.431Z" transform="translate(10.002 10.002)"/>
          </g>
          <g id="g7313" transform="translate(27.998 43.298)">
            <path id="path7315" d="M-5.635-102.76a2.7,2.7,0,0,1-1.381-.381l-2.589-1.534a.808.808,0,0,1-.283-1.107.808.808,0,0,1,1.107-.283l2.589,1.534a1.1,1.1,0,0,0,.835.12,1.1,1.1,0,0,0,.675-.506,1.1,1.1,0,0,0,.12-.835,1.1,1.1,0,0,0-.506-.675.808.808,0,0,1-.283-1.107.808.808,0,0,1,1.107-.283l2.149,1.273a1.1,1.1,0,0,0,1.51-.387,1.1,1.1,0,0,0-.387-1.51.808.808,0,0,1-.283-1.107.808.808,0,0,1,1.107-.283h0l1.431.848a1.1,1.1,0,0,0,.835.12,1.1,1.1,0,0,0,.675-.506,1.1,1.1,0,0,0-.386-1.51h0a.808.808,0,0,1-.283-1.107.808.808,0,0,1,1.107-.283l1.753,1.039a1.1,1.1,0,0,0,1.51-.386,1.1,1.1,0,0,0-.386-1.51.808.808,0,0,1-.283-1.107.808.808,0,0,1,1.107-.283,2.722,2.722,0,0,1,.953,3.725,2.723,2.723,0,0,1-3.335,1.144,2.7,2.7,0,0,1-.365,1.105A2.7,2.7,0,0,1,2.52-107.3a2.7,2.7,0,0,1-1.343,0A2.7,2.7,0,0,1,.8-106.109a2.722,2.722,0,0,1-3.725.953l-.009-.005a2.712,2.712,0,0,1-.362,1.067,2.7,2.7,0,0,1-1.665,1.248A2.736,2.736,0,0,1-5.635-102.76Z" transform="translate(10.002 114.635)"/>
          </g>
          <g id="g7317" transform="translate(28.265 31.238)">
            <path id="path7319" d="M-135.429-2.841a.806.806,0,0,1-.411-.113l-10.509-6.223a3.571,3.571,0,0,1-.862,1.382,3.561,3.561,0,0,1-2.537,1.049,1.733,1.733,0,0,1-1.729-1.731v-3.6a3.633,3.633,0,0,1,2.744-3.525l2.7-.682a3.615,3.615,0,0,1,2.222.14l1.76.691a2.5,2.5,0,0,0,2.183-.184l.231-.134a.808.808,0,0,1,1.1.292.808.808,0,0,1-.292,1.1l-.225.131a4.1,4.1,0,0,1-3.589.3l-1.764-.693a2.008,2.008,0,0,0-1.234-.078l-2.7.682a2.018,2.018,0,0,0-1.524,1.958v3.6a.115.115,0,0,0,.115.115,1.956,1.956,0,0,0,1.392-.576,1.956,1.956,0,0,0,.577-1.393v-.152a.808.808,0,0,1,.408-.7.808.808,0,0,1,.812.007l11.03,6.532a4.131,4.131,0,0,1,.415-.282l1.64-.958a.808.808,0,0,1,1.106.29.808.808,0,0,1-.29,1.106l-1.635.955a2.508,2.508,0,0,0-.547.44A.808.808,0,0,1-135.429-2.841Z" transform="translate(151.477 16.396)"/>
          </g>
          <g id="g7321" transform="translate(14.403 41.69)">
            <path id="path7323" d="M-50.107-59.111a2.7,2.7,0,0,1-1.582-.509,2.721,2.721,0,0,1-.623-3.793l1.082-1.507a2.722,2.722,0,0,1,3.793-.623,2.721,2.721,0,0,1,.623,3.793.808.808,0,0,1-1.128.185.808.808,0,0,1-.185-1.128,1.1,1.1,0,0,0,.192-.821,1.1,1.1,0,0,0-.445-.717,1.1,1.1,0,0,0-1.538.253L-51-62.471a1.1,1.1,0,0,0,.253,1.538,1.1,1.1,0,0,0,1.538-.253.808.808,0,0,1,1.128-.185.808.808,0,0,1,.185,1.128A2.717,2.717,0,0,1-50.107-59.111Z" transform="translate(52.821 66.053)"/>
          </g>
          <g id="g7325" transform="translate(17.505 42.253)">
            <path id="path7327" d="M-76.007-47.418a2.7,2.7,0,0,1,1.584.51,2.7,2.7,0,0,1,1.1,1.768,2.7,2.7,0,0,1-.474,2.026l-2.276,3.17a2.726,2.726,0,0,1-2.21,1.133,2.7,2.7,0,0,1-1.584-.51,2.7,2.7,0,0,1-1.1-1.768,2.7,2.7,0,0,1,.474-2.026l2.276-3.17A2.726,2.726,0,0,1-76.007-47.418Zm-2.279,6.991a1.106,1.106,0,0,0,.9-.459l2.276-3.17a1.1,1.1,0,0,0,.192-.821,1.1,1.1,0,0,0-.445-.716,1.093,1.093,0,0,0-.641-.207,1.106,1.106,0,0,0-.9.459l-2.276,3.17a1.1,1.1,0,0,0-.192.821,1.1,1.1,0,0,0,.445.717A1.093,1.093,0,0,0-78.286-40.428Z" transform="translate(81.003 47.418)"/>
          </g>
          <g id="g7329" transform="translate(20.609 44.481)">
            <path id="path7331" d="M-39.872-11.253a2.7,2.7,0,0,1-1.582-.509,2.721,2.721,0,0,1-.623-3.793.808.808,0,0,1,1.128-.185.808.808,0,0,1,.185,1.128,1.1,1.1,0,0,0,.252,1.538,1.1,1.1,0,0,0,1.538-.252L-36.7-16.5a1.1,1.1,0,0,0,.192-.821,1.094,1.094,0,0,0-.445-.716,1.1,1.1,0,0,0-.821-.192,1.1,1.1,0,0,0-.716.445.808.808,0,0,1-1.128.185.808.808,0,0,1-.185-1.128,2.7,2.7,0,0,1,1.768-1.1,2.7,2.7,0,0,1,2.026.474,2.7,2.7,0,0,1,1.1,1.768,2.7,2.7,0,0,1-.474,2.026l-2.276,3.17A2.717,2.717,0,0,1-39.872-11.253Z" transform="translate(42.586 19.859)"/>
          </g>
          <g id="g7333" transform="translate(24.219 48.117)">
            <path id="path7335" d="M-21.092-13.368a2.7,2.7,0,0,1-1.581-.509,2.7,2.7,0,0,1-1.1-1.768,2.7,2.7,0,0,1,.474-2.026.807.807,0,0,1,.643-.337.807.807,0,0,1,.113-.717,2.7,2.7,0,0,1,1.768-1.1,2.7,2.7,0,0,1,2.026.474,2.7,2.7,0,0,1,1.1,1.768,2.7,2.7,0,0,1-.474,2.026L-18.88-14.5A2.717,2.717,0,0,1-21.092-13.368Zm-.778-4.077a.807.807,0,0,1-.113.717,1.1,1.1,0,0,0-.192.821,1.1,1.1,0,0,0,.445.717,1.1,1.1,0,0,0,1.538-.253l.757-1.054a1.094,1.094,0,0,0,.192-.821,1.1,1.1,0,0,0-.445-.717,1.1,1.1,0,0,0-.821-.192,1.1,1.1,0,0,0-.717.445A.807.807,0,0,1-21.87-17.446Z" transform="translate(23.807 19.859)"/>
          </g>
        </g>
      </g>
    </g>
  </g>
</svg>
