<svg xmlns="http://www.w3.org/2000/svg" xmlns:xlink="http://www.w3.org/1999/xlink" width="113" height="113" viewBox="0 0 113 113">
  <defs>
    <filter id="Trazado_896985" x="0" y="0" width="113" height="113" filterUnits="userSpaceOnUse">
      <feOffset dy="3" input="SourceAlpha"/>
      <feGaussianBlur stdDeviation="3" result="blur"/>
      <feFlood flood-opacity="0.161"/>
      <feComposite operator="in" in2="blur"/>
      <feComposite in="SourceGraphic"/>
    </filter>
    <clipPath id="clip-path">
      <path id="path1440" d="M0-682.665H56.128v56.128H0Z" transform="translate(0 682.665)"/>
    </clipPath>
  </defs>
  <g id="Grupo_1117237" data-name="Grupo 1117237" transform="translate(-324.872 -2311.611)">
    <g id="Grupo_1111349" data-name="Grupo 1111349" transform="translate(-1.019 -1534.389)">
      <g id="Grupo_1111318" data-name="Grupo 1111318" transform="translate(-5.891)">
        <g id="Grupo_1109826" data-name="Grupo 1109826" transform="translate(340.781 3852)">
          <g id="Grupo_1098742" data-name="Grupo 1098742">
            <g transform="matrix(1, 0, 0, 1, -9, -6)" filter="url(#Trazado_896985)">
              <g id="Trazado_896985-2" data-name="Trazado 896985" transform="translate(9 6)" fill="#fd9826" opacity="0.859">
                <path d="M 47.49993515014648 93.5 C 41.28932189941406 93.5 35.26528167724609 92.28397369384766 29.59514808654785 89.88571929931641 C 24.1176815032959 87.56894683837891 19.1981086730957 84.25197601318359 14.97306823730469 80.02693176269531 C 10.74802875518799 75.80189514160156 7.431055068969727 70.88231658935547 5.11428165435791 65.40485382080078 C 2.716028451919556 59.73471832275391 1.500001788139343 53.71067810058594 1.500001788139343 47.50006484985352 C 1.500001788139343 41.28932189941406 2.716028451919556 35.26528167724609 5.11428165435791 29.59514617919922 C 7.431055068969727 24.11767959594727 10.74802875518799 19.19810676574707 14.97306823730469 14.97306632995605 C 19.1981086730957 10.74802684783936 24.1176815032959 7.431053161621094 29.59514808654785 5.114280223846436 C 35.26528167724609 2.716026782989502 41.28932189941406 1.5 47.49993515014648 1.5 C 53.71054840087891 1.5 59.73458862304688 2.716026782989502 65.40472412109375 5.114280223846436 C 70.88218688964844 7.431053161621094 75.80176544189453 10.74802684783936 80.02680206298828 14.97306632995605 C 84.25183868408203 19.19810676574707 87.56881713867188 24.11767959594727 89.88558959960938 29.59514617919922 C 92.28384399414062 35.26528167724609 93.49987030029297 41.28932189941406 93.49987030029297 47.49993515014648 C 93.49987030029297 53.71067810058594 92.28384399414062 59.73471832275391 89.88558959960938 65.40485382080078 C 87.56881713867188 70.88231658935547 84.25183868408203 75.80189514160156 80.02680206298828 80.02693176269531 C 75.80176544189453 84.25197601318359 70.88218688964844 87.56894683837891 65.40472412109375 89.88571929931641 C 59.73458862304688 92.28397369384766 53.71054840087891 93.5 47.49993515014648 93.5 Z" stroke="none"/>
                <path d="M 47.49993515014648 3 C 41.49116516113281 3 35.66371917724609 4.176155090332031 30.17947387695312 6.495796203613281 C 24.88081359863281 8.7369384765625 20.12149047851562 11.94596862792969 16.03372192382812 16.03372192382812 C 11.94596862792969 20.12149047851562 8.7369384765625 24.88081359863281 6.495796203613281 30.17947387695312 C 4.1761474609375 35.66372299194336 3 41.49116897583008 3 47.50006103515625 C 3 53.50883102416992 4.1761474609375 59.33627700805664 6.495796203613281 64.82052612304688 C 8.7369384765625 70.11918640136719 11.94596862792969 74.87850952148438 16.03372192382812 78.96627807617188 C 20.12149047851562 83.05403137207031 24.88081359863281 86.2630615234375 30.17947387695312 88.50419616699219 C 35.66371917724609 90.82384490966797 41.49116516113281 92 47.49993515014648 92 C 53.50870513916016 92 59.33615112304688 90.82384490966797 64.82039642333984 88.50419616699219 C 70.11905670166016 86.2630615234375 74.87837982177734 83.05403137207031 78.96614837646484 78.96627807617188 C 83.05390167236328 74.87850952148438 86.26293182373047 70.11918640136719 88.50407409667969 64.82052612304688 C 90.82372283935547 59.33627700805664 91.99987030029297 53.50883102416992 91.99987030029297 47.49993896484375 C 91.99987030029297 41.49116897583008 90.82372283935547 35.66372299194336 88.50407409667969 30.17947387695312 C 86.26293182373047 24.88081359863281 83.05390167236328 20.12149047851562 78.96614837646484 16.03372192382812 C 74.87837982177734 11.94596862792969 70.11905670166016 8.7369384765625 64.82039642333984 6.495796203613281 C 59.33615112304688 4.176155090332031 53.50870513916016 3 47.49993515014648 3 M 47.49993515014648 0 C 73.73342895507812 0 94.99987030029297 21.26644897460938 94.99987030029297 47.49993896484375 L 94.99987030029297 47.50006103515625 C 94.99987030029297 73.73355102539062 73.73342895507812 95 47.49993515014648 95 C 21.26644134521484 95 0 73.73355102539062 0 47.50006103515625 L 0 47.49993896484375 C 0 21.26644897460938 21.26644134521484 0 47.49993515014648 0 Z" stroke="none" fill="#fff"/>
              </g>
            </g>
            <g id="Rectángulo_400907" data-name="Rectángulo 400907" transform="translate(0 0)" fill="none" stroke="#fff" stroke-width="3">
              <rect width="95" height="95" rx="47.5" stroke="none"/>
              <rect x="1.5" y="1.5" width="92" height="92" rx="46" fill="none"/>
            </g>
          </g>
        </g>
      </g>
    </g>
    <g id="g1434" transform="translate(353.308 3018.576)">
      <g id="g1436" transform="translate(0 -682.665)">
        <g id="g1438" clip-path="url(#clip-path)">
          <g id="g1444" transform="translate(4.927 4.926)">
            <path id="path1446" d="M-313.36-156.681A14.036,14.036,0,0,0-327.4-170.717a14.036,14.036,0,0,0-14.036,14.036A14.036,14.036,0,0,0-327.4-142.645a14.036,14.036,0,0,0,14.036-14.036" transform="translate(341.432 170.717)" fill="#ffcb7c"/>
          </g>
          <g id="g1448" transform="translate(3.83 3.83)">
            <path id="path1450" d="M-229.53-313.428a15.15,15.15,0,0,1-15.132-15.132,15.149,15.149,0,0,1,15.132-15.132A15.149,15.149,0,0,1-214.4-328.56a15.065,15.065,0,0,1-1.035,5.512,1.1,1.1,0,0,1-1.42.621,1.1,1.1,0,0,1-.621-1.42,12.881,12.881,0,0,0,.885-4.713,12.954,12.954,0,0,0-12.94-12.94,12.955,12.955,0,0,0-12.94,12.94,12.955,12.955,0,0,0,12.94,12.94,12.888,12.888,0,0,0,4.594-.839,1.1,1.1,0,0,1,1.414.635,1.1,1.1,0,0,1-.635,1.414A15.073,15.073,0,0,1-229.53-313.428Z" transform="translate(244.662 343.692)"/>
          </g>
          <g id="g1452" transform="translate(14.142 10.907)">
            <path id="path1454" d="M-87.4-8.156a6.227,6.227,0,0,1-4.047-1.159,1.1,1.1,0,0,1-.317-1.518,1.1,1.1,0,0,1,1.518-.317,4.261,4.261,0,0,0,3.03.8,2.708,2.708,0,0,0,2.687-2.285,2.159,2.159,0,0,0-1.534-2.5,14.718,14.718,0,0,1-4.212-2.018,3.617,3.617,0,0,1-1.188-3.565,4.088,4.088,0,0,1,2.8-3.206,5.9,5.9,0,0,1,4.938.89,1.1,1.1,0,0,1,.212,1.536,1.1,1.1,0,0,1-1.53.216,3.722,3.722,0,0,0-2.989-.542,1.918,1.918,0,0,0-1.28,1.513,1.474,1.474,0,0,0,.387,1.433,14,14,0,0,0,3.59,1.676,4.309,4.309,0,0,1,2.965,4.932A4.931,4.931,0,0,1-87.2-8.157Z" transform="translate(91.941 24.145)"/>
          </g>
          <g id="g1456" transform="translate(17.867 9.019)">
            <path id="path1458" d="M-12.237,6.554a1.1,1.1,0,0,1-1.1-1.1V-12.237a1.1,1.1,0,0,1,1.1-1.1,1.1,1.1,0,0,1,1.1,1.1V5.458A1.1,1.1,0,0,1-12.237,6.554Z" transform="translate(13.333 13.333)"/>
          </g>
          <g id="g1460" transform="translate(23.129 23.129)">
            <path id="path1462" d="M-313.36-156.681A14.036,14.036,0,0,0-327.4-170.717a14.036,14.036,0,0,0-14.036,14.036A14.036,14.036,0,0,0-327.4-142.645a14.036,14.036,0,0,0,14.036-14.036" transform="translate(341.432 170.717)" fill="#ffcb7c"/>
          </g>
          <g id="g1464" transform="translate(22.033 22.033)">
            <path id="path1466" d="M-329.1-212.959a15.15,15.15,0,0,1-15.132-15.132A15.15,15.15,0,0,1-329.1-243.223a15.193,15.193,0,0,1,14.2,9.894,1.1,1.1,0,0,1-.649,1.408,1.1,1.1,0,0,1-1.408-.649,12.992,12.992,0,0,0-12.144-8.46,12.955,12.955,0,0,0-12.94,12.94,12.955,12.955,0,0,0,12.94,12.94,12.993,12.993,0,0,0,12.142-8.455,1.1,1.1,0,0,1,1.408-.648,1.1,1.1,0,0,1,.648,1.408A15.194,15.194,0,0,1-329.1-212.959Z" transform="translate(344.232 243.223)"/>
          </g>
          <g id="g1468" transform="translate(31.683 36.297)">
            <path id="path1470" d="M-75.992-11.141H-81.7a1.1,1.1,0,0,1-1.1-1.1,1.1,1.1,0,0,1,1.1-1.1h5.711a1.1,1.1,0,0,1,1.1,1.1A1.1,1.1,0,0,1-75.992-11.141Z" transform="translate(82.8 13.333)"/>
          </g>
          <g id="g1472" transform="translate(32.323 29.561)">
            <path id="path1474" d="M-100.206-28.924h-8.133a1.1,1.1,0,0,1-.981-.607,1.1,1.1,0,0,1,.106-1.149l1.05-1.392a3.423,3.423,0,0,0,.952-3.1l-.107-.916a7.915,7.915,0,0,1-1.46-4.07,3.661,3.661,0,0,1,1.948-3.308,5.491,5.491,0,0,1,5.252.016,4.807,4.807,0,0,1,2.2,2.653,1.1,1.1,0,0,1-.755,1.354,1.1,1.1,0,0,1-1.354-.755,2.712,2.712,0,0,0-1.227-1.378,3.369,3.369,0,0,0-3.035.02,1.5,1.5,0,0,0-.833,1.4,6.183,6.183,0,0,0,1.2,3.006,1.1,1.1,0,0,1,.213.532l.139,1.2a5.317,5.317,0,0,1-1.115,4.306h5.943a1.1,1.1,0,0,1,1.1,1.1A1.1,1.1,0,0,1-100.206-28.924Z" transform="translate(109.434 44.128)"/>
          </g>
          <g id="g1476" transform="translate(51.201 37.165)">
            <path id="path1478" transform="translate(0)"/>
          </g>
          <g id="g1480" transform="translate(1.096 31.191)">
            <path id="path1482" d="M-206.277-193.482a22.015,22.015,0,0,1-11.859-11.71l2.156-.891-7.1-4.732-1.681,8.361,2.161-.894a26.812,26.812,0,0,0,14.469,14.322Z" transform="translate(224.757 210.815)" fill="#91def5"/>
          </g>
          <g id="g1484" transform="translate(0 30.094)">
            <path id="path1486" d="M-220.364-200.167a1.1,1.1,0,0,1-.42-.084A27.9,27.9,0,0,1-235.4-214.166l-1.178.487a1.1,1.1,0,0,1-1.115-.167,1.1,1.1,0,0,1-.378-1.063l1.681-8.361a1.1,1.1,0,0,1,.656-.8,1.1,1.1,0,0,1,1.027.1l7.1,4.732a1.1,1.1,0,0,1,.483,1.019,1.1,1.1,0,0,1-.672.906l-1.1.456a20.926,20.926,0,0,0,10.807,10.12,1.1,1.1,0,0,1,.592,1.433l-1.849,4.457a1.1,1.1,0,0,1-.594.593A1.1,1.1,0,0,1-220.364-200.167Zm-14.47-16.515a1.1,1.1,0,0,1,1.009.666,25.719,25.719,0,0,0,12.877,13.3l1.01-2.434A23.107,23.107,0,0,1-231.381-217a1.1,1.1,0,0,1-.008-.846,1.1,1.1,0,0,1,.6-.6l.257-.106-4.025-2.685-.953,4.743.262-.109A1.093,1.093,0,0,1-234.834-216.682Z" transform="translate(238.09 224.149)"/>
          </g>
          <g id="g1488" transform="translate(36.553 3.148)">
            <path id="path1490" d="M0-49.747A22.015,22.015,0,0,1,11.859-38.038L9.7-37.146l7.1,4.732,1.681-8.361-2.161.894A26.812,26.812,0,0,0,1.849-54.2Z" transform="translate(0 54.204)" fill="#91def5"/>
          </g>
          <g id="g1492" transform="translate(35.456 2.051)">
            <path id="path1494" d="M-10.391-67.537a1.1,1.1,0,0,1,.42.084A27.9,27.9,0,0,1,4.642-53.538l1.178-.487a1.1,1.1,0,0,1,1.115.167A1.1,1.1,0,0,1,7.314-52.8L5.633-44.435a1.1,1.1,0,0,1-.656.8,1.1,1.1,0,0,1-1.027-.1l-7.1-4.732a1.1,1.1,0,0,1-.483-1.019,1.1,1.1,0,0,1,.672-.906l1.1-.456A20.926,20.926,0,0,0-12.66-60.972a1.1,1.1,0,0,1-.592-1.433l1.849-4.457a1.1,1.1,0,0,1,.594-.593A1.1,1.1,0,0,1-10.391-67.537ZM4.079-51.022a1.1,1.1,0,0,1-1.009-.666,25.719,25.719,0,0,0-12.877-13.3l-1.01,2.434A23.106,23.106,0,0,1,.626-50.708a1.1,1.1,0,0,1,.008.846,1.1,1.1,0,0,1-.6.6l-.257.106,4.025,2.685.953-4.743-.262.109A1.093,1.093,0,0,1,4.079-51.022Z" transform="translate(13.337 67.537)"/>
          </g>
        </g>
      </g>
    </g>
  </g>
</svg>
