<svg xmlns="http://www.w3.org/2000/svg" xmlns:xlink="http://www.w3.org/1999/xlink" width="113" height="113" viewBox="0 0 113 113">
  <defs>
    <filter id="Trazado_896985" x="0" y="0" width="113" height="113" filterUnits="userSpaceOnUse">
      <feOffset dy="3" input="SourceAlpha"/>
      <feGaussianBlur stdDeviation="3" result="blur"/>
      <feFlood flood-opacity="0.161"/>
      <feComposite operator="in" in2="blur"/>
      <feComposite in="SourceGraphic"/>
    </filter>
  </defs>
  <g id="Grupo_1111349" data-name="Grupo 1111349" transform="translate(-325.891 -3846)">
    <g id="Grupo_1111318" data-name="Grupo 1111318" transform="translate(-5.891)">
      <g id="Grupo_1109826" data-name="Grupo 1109826" transform="translate(340.781 3852)">
        <g id="Grupo_1098742" data-name="Grupo 1098742">
          <g transform="matrix(1, 0, 0, 1, -9, -6)" filter="url(#Trazado_896985)">
            <g id="Trazado_896985-2" data-name="Trazado 896985" transform="translate(9 6)" fill="#fd9826" opacity="0.859">
              <path d="M 47.49993515014648 93.5 C 41.28932189941406 93.5 35.26528167724609 92.28397369384766 29.59514808654785 89.88571929931641 C 24.1176815032959 87.56894683837891 19.1981086730957 84.25197601318359 14.97306823730469 80.02693176269531 C 10.74802875518799 75.80189514160156 7.431055068969727 70.88231658935547 5.11428165435791 65.40485382080078 C 2.716028451919556 59.73471832275391 1.500001788139343 53.71067810058594 1.500001788139343 47.50006484985352 C 1.500001788139343 41.28932189941406 2.716028451919556 35.26528167724609 5.11428165435791 29.59514617919922 C 7.431055068969727 24.11767959594727 10.74802875518799 19.19810676574707 14.97306823730469 14.97306632995605 C 19.1981086730957 10.74802684783936 24.1176815032959 7.431053161621094 29.59514808654785 5.114280223846436 C 35.26528167724609 2.716026782989502 41.28932189941406 1.5 47.49993515014648 1.5 C 53.71054840087891 1.5 59.73458862304688 2.716026782989502 65.40472412109375 5.114280223846436 C 70.88218688964844 7.431053161621094 75.80176544189453 10.74802684783936 80.02680206298828 14.97306632995605 C 84.25183868408203 19.19810676574707 87.56881713867188 24.11767959594727 89.88558959960938 29.59514617919922 C 92.28384399414062 35.26528167724609 93.49987030029297 41.28932189941406 93.49987030029297 47.49993515014648 C 93.49987030029297 53.71067810058594 92.28384399414062 59.73471832275391 89.88558959960938 65.40485382080078 C 87.56881713867188 70.88231658935547 84.25183868408203 75.80189514160156 80.02680206298828 80.02693176269531 C 75.80176544189453 84.25197601318359 70.88218688964844 87.56894683837891 65.40472412109375 89.88571929931641 C 59.73458862304688 92.28397369384766 53.71054840087891 93.5 47.49993515014648 93.5 Z" stroke="none"/>
              <path d="M 47.49993515014648 3 C 41.49116516113281 3 35.66371917724609 4.176155090332031 30.17947387695312 6.495796203613281 C 24.88081359863281 8.7369384765625 20.12149047851562 11.94596862792969 16.03372192382812 16.03372192382812 C 11.94596862792969 20.12149047851562 8.7369384765625 24.88081359863281 6.495796203613281 30.17947387695312 C 4.1761474609375 35.66372299194336 3 41.49116897583008 3 47.50006103515625 C 3 53.50883102416992 4.1761474609375 59.33627700805664 6.495796203613281 64.82052612304688 C 8.7369384765625 70.11918640136719 11.94596862792969 74.87850952148438 16.03372192382812 78.96627807617188 C 20.12149047851562 83.05403137207031 24.88081359863281 86.2630615234375 30.17947387695312 88.50419616699219 C 35.66371917724609 90.82384490966797 41.49116516113281 92 47.49993515014648 92 C 53.50870513916016 92 59.33615112304688 90.82384490966797 64.82039642333984 88.50419616699219 C 70.11905670166016 86.2630615234375 74.87837982177734 83.05403137207031 78.96614837646484 78.96627807617188 C 83.05390167236328 74.87850952148438 86.26293182373047 70.11918640136719 88.50407409667969 64.82052612304688 C 90.82372283935547 59.33627700805664 91.99987030029297 53.50883102416992 91.99987030029297 47.49993896484375 C 91.99987030029297 41.49116897583008 90.82372283935547 35.66372299194336 88.50407409667969 30.17947387695312 C 86.26293182373047 24.88081359863281 83.05390167236328 20.12149047851562 78.96614837646484 16.03372192382812 C 74.87837982177734 11.94596862792969 70.11905670166016 8.7369384765625 64.82039642333984 6.495796203613281 C 59.33615112304688 4.176155090332031 53.50870513916016 3 47.49993515014648 3 M 47.49993515014648 0 C 73.73342895507812 0 94.99987030029297 21.26644897460938 94.99987030029297 47.49993896484375 L 94.99987030029297 47.50006103515625 C 94.99987030029297 73.73355102539062 73.73342895507812 95 47.49993515014648 95 C 21.26644134521484 95 0 73.73355102539062 0 47.50006103515625 L 0 47.49993896484375 C 0 21.26644897460938 21.26644134521484 0 47.49993515014648 0 Z" stroke="none" fill="#fff"/>
            </g>
          </g>
          <g id="Rectángulo_400907" data-name="Rectángulo 400907" transform="translate(0 0)" fill="none" stroke="#fff" stroke-width="3">
            <rect width="95" height="95" rx="47.5" stroke="none"/>
            <rect x="1.5" y="1.5" width="92" height="92" rx="46" fill="none"/>
          </g>
        </g>
      </g>
    </g>
    <g id="ganador" transform="translate(348.48 3871.347)">
      <g id="Grupo_1113184" data-name="Grupo 1113184" transform="translate(9.481 1.883)">
        <g id="Grupo_1113181" data-name="Grupo 1113181" transform="translate(0 34.129)">
          <path id="Trazado_903390" data-name="Trazado 903390" d="M48.08,323.683l3.478,12.977a21.689,21.689,0,0,1,2.292-1.7A7.168,7.168,0,0,1,56.4,333.85a6.583,6.583,0,0,1,2.95.076h0l7.058,1.619a6.032,6.032,0,0,0,4.545-.6l17.65-10.19A3.306,3.306,0,1,0,85.3,319.03L73,326.126l.026-.093a3.672,3.672,0,0,0-2.569-4.49L58.14,318.188a5.79,5.79,0,0,0-4.429,1.182Z" transform="translate(-44.605 -318.131)" fill="#ffd6bd" fill-rule="evenodd"/>
          <path id="Trazado_903391" data-name="Trazado 903391" d="M170.783,382.477a3.674,3.674,0,0,0,4.182-1.8,3.582,3.582,0,0,1-.126.848,3.669,3.669,0,0,1-4.49,2.569c-2.4-.655-4.8-1.286-7.2-1.93a.841.841,0,1,1,.435-1.625C165.979,381.183,168.374,381.822,170.783,382.477Z" transform="translate(-146.413 -373.625)" fill="#f9c6aa" fill-rule="evenodd"/>
          <path id="Trazado_903392" data-name="Trazado 903392" d="M74.86,350.593l.521,1.945a21.689,21.689,0,0,1,2.292-1.7,7.169,7.169,0,0,1,2.546-1.108,6.584,6.584,0,0,1,2.95.076h0l7.058,1.619a6.032,6.032,0,0,0,4.545-.6l17.65-10.19a3.316,3.316,0,0,0,1.21-4.517c-.028-.047-.055-.094-.085-.139a3.312,3.312,0,0,1-1.646,2.71l-17.65,10.19a6.033,6.033,0,0,1-4.545.6l-7.058-1.619h0a6.584,6.584,0,0,0-2.95-.076,7.14,7.14,0,0,0-2.546,1.108,21.577,21.577,0,0,0-2.292,1.7Z" transform="translate(-68.428 -334.009)" fill="#f9c6aa" fill-rule="evenodd"/>
          <path id="Trazado_903393" data-name="Trazado 903393" d="M20.969,339.174l4.251,15.863a.731.731,0,0,1-.514.892l-2.932.786a.731.731,0,0,1-.892-.514L16.63,340.338a.73.73,0,0,1,.514-.892l2.932-.786A.73.73,0,0,1,20.969,339.174Z" transform="translate(-16.606 -336.371)" fill="#64b5f6" fill-rule="evenodd"/>
          <path id="Trazado_903394" data-name="Trazado 903394" d="M20.969,339.169l.05.184-2.746.735a.73.73,0,0,0-.514.892l4.2,15.679-.187.05a.731.731,0,0,1-.892-.515L16.63,340.332a.73.73,0,0,1,.514-.892l2.932-.786A.731.731,0,0,1,20.969,339.169Z" transform="translate(-16.606 -336.366)" fill="#42a5f5" fill-rule="evenodd"/>
        </g>
        <g id="Grupo_1113182" data-name="Grupo 1113182" transform="translate(15.819 0)">
          <path id="Trazado_903395" data-name="Trazado 903395" d="M178.639,15.737v2.216c5.637,5.26,10.577,12.862,5.743,19.192a9.62,9.62,0,0,1-7.875,3.9h-6.785a9.621,9.621,0,0,1-7.875-3.9c-4.831-6.33.107-13.931,5.744-19.191V15.737a9.356,9.356,0,0,0-1.476-2.621c-1.659-2.369-1.324-3.172,2.731-1.673,1.7.628.985-2.443,4.268-2.443s2.568,3.071,4.269,2.442c4.054-1.5,4.391-.7,2.731,1.673a9.373,9.373,0,0,0-1.476,2.622Z" transform="translate(-159.886 -9)" fill="#72d561" fill-rule="evenodd"/>
          <path id="Trazado_903396" data-name="Trazado 903396" d="M222.544,15.737v2.216c5.637,5.26,10.577,12.862,5.743,19.192a9.62,9.62,0,0,1-7.875,3.9h-1.58a9.622,9.622,0,0,0,7.875-3.9c4.832-6.33-.106-13.932-5.743-19.192V15.737a9.355,9.355,0,0,1,1.476-2.621c.828-1.182,1.159-1.975.779-2.285,2.179-.522,2.143.37.8,2.285a9.357,9.357,0,0,0-1.476,2.621Zm-13.3-4.906c.344-.282,1.272-.168,2.941.408a.82.82,0,0,1-1.011.2A17.7,17.7,0,0,0,209.24,10.831Zm6.99-1.761c2.385.452,1.93,2.946,3.479,2.373.2-.073.388-.141.569-.2-.606-.664-.905-2.239-3.258-2.239A4.25,4.25,0,0,0,216.23,9.07Z" transform="translate(-203.791 -9)" fill="#57ca5a" fill-rule="evenodd"/>
          <path id="Trazado_903397" data-name="Trazado 903397" d="M212.719,66.75h12.174a1.469,1.469,0,0,1,0,2.939H212.719a1.469,1.469,0,0,1,0-2.939Z" transform="translate(-205.579 -60.374)" fill="#ffda2d" fill-rule="evenodd"/>
          <path id="Trazado_903398" data-name="Trazado 903398" d="M212.719,66.75h12.174a1.474,1.474,0,0,1,1.38.968,1.454,1.454,0,0,0-.551-.108H213.55a1.474,1.474,0,0,0-1.469,1.469,1.455,1.455,0,0,0,.088.5,1.469,1.469,0,0,1,.551-2.831Z" transform="translate(-205.579 -60.374)" fill="#ffc700" fill-rule="evenodd"/>
        </g>
        <g id="Grupo_1113183" data-name="Grupo 1113183" transform="translate(5.233 5.939)">
          <path id="Trazado_903399" data-name="Trazado 903399" d="M70.606,69.082h1.988a.54.54,0,0,0,.427-.871L69,63.005a.54.54,0,0,0-.856,0l-4.023,5.207a.54.54,0,0,0,.428.871h1.988v9.979a.709.709,0,0,0,.708.708H69.9a.709.709,0,0,0,.708-.708Zm38.5,0h1.988a.54.54,0,0,0,.427-.871l-4.023-5.206a.54.54,0,0,0-.856,0l-4.023,5.207a.54.54,0,0,0,.428.871h1.988v9.979a.709.709,0,0,0,.708.708h2.653a.709.709,0,0,0,.708-.708Z" transform="translate(-64.006 -62.795)" fill="#ffda2d" fill-rule="evenodd"/>
          <path id="Trazado_903400" data-name="Trazado 903400" d="M102.221,69.082h1.425a.54.54,0,0,0,.427-.871l-4.023-5.206a.54.54,0,0,0-.856,0l-.285.369,3.738,4.838A.539.539,0,0,1,102.221,69.082ZM99.526,79.769a.71.71,0,0,0,.707-.708V69.082h1.425v9.979a.709.709,0,0,1-.708.708Zm41.19-10.687h1.425a.54.54,0,0,0,.427-.871l-4.023-5.206a.54.54,0,0,0-.856,0l-.285.369,3.738,4.838A.539.539,0,0,1,140.716,69.082Zm-2.695,10.687a.71.71,0,0,0,.707-.708V69.082h1.425v9.979a.71.71,0,0,1-.708.708Z" transform="translate(-95.056 -62.795)" fill="#ffc700" fill-rule="evenodd"/>
        </g>
      </g>
      <path id="Trazado_903401" data-name="Trazado 903401" d="M19.281,8.924l3.325,4.3H21.315a.883.883,0,0,0-.883.883v9.8h-2.3v-9.8a.884.884,0,0,0-.883-.883H15.955Zm-4.024,6.069h1.106v9.1a1.594,1.594,0,0,0,1.591,1.592h2.653A1.593,1.593,0,0,0,22.2,24.088v-9.1H23.3A1.423,1.423,0,0,0,24.429,12.7L20.406,7.492a1.423,1.423,0,0,0-2.252,0L14.13,12.7a1.423,1.423,0,0,0,1.126,2.294ZM59.81,13.226a.882.882,0,0,0-.883.883v9.8h-2.3v-9.8a.884.884,0,0,0-.883-.883H54.45l3.325-4.3,3.325,4.3Zm3.116-.528L58.9,7.492a1.423,1.423,0,0,0-2.252,0L52.627,12.7a1.423,1.423,0,0,0,1.126,2.294H54.86v9.1a1.594,1.594,0,0,0,1.591,1.592H59.1a1.593,1.593,0,0,0,1.591-1.592v-9.1H61.8A1.423,1.423,0,0,0,62.926,12.7ZM35.19,20.171a3.1,3.1,0,0,1,2.454-3.025v-1.07a.883.883,0,1,1,1.766,0V17.11a3.108,3.108,0,0,1,2.071,1.254A.883.883,0,1,1,40.05,19.4a1.331,1.331,0,0,0-1.074-.553h-.7a1.325,1.325,0,1,0,0,2.65h.494a3.091,3.091,0,0,1,.637,6.116v1.069a.883.883,0,1,1-1.766,0V27.646a3.108,3.108,0,0,1-2.071-1.254A.883.883,0,1,1,37,25.356a1.331,1.331,0,0,0,1.074.553h.7a1.325,1.325,0,1,0,0-2.65H38.28A3.091,3.091,0,0,1,35.19,20.171Zm-8.247.4c-1.277,3.36-.934,6.359,1.019,8.918a8.729,8.729,0,0,0,7.174,3.55h6.785a8.727,8.727,0,0,0,7.173-3.548c1.954-2.559,2.3-5.559,1.02-8.92a25.417,25.417,0,0,0-6.036-8.492h-11.1A25.428,25.428,0,0,0,26.943,20.571Zm7.01-15.418a2.09,2.09,0,0,0,.731.142,2.129,2.129,0,0,0,1.725-1.263,2.408,2.408,0,0,1,4.241,0A1.919,1.919,0,0,0,43.1,5.153a12.315,12.315,0,0,1,2.332-.681,8.232,8.232,0,0,1-.63,1.019,14.618,14.618,0,0,0-1.188,1.884H33.439a14.419,14.419,0,0,0-1.188-1.884,8.233,8.233,0,0,1-.63-1.019,12.315,12.315,0,0,1,2.332.681Zm-1.511,5.16a.586.586,0,1,1,0-1.172H44.616a.586.586,0,0,1,0,1.172ZM26.557,30.562c-2.348-3.077-2.774-6.65-1.266-10.619a25.988,25.988,0,0,1,5.7-8.37,2.349,2.349,0,0,1,.531-4.011c-.169-.267-.393-.6-.714-1.059-.825-1.178-1.5-2.389-.821-3.264.719-.932,2.285-.593,4.582.256a.544.544,0,0,0,.062.02,3.975,3.975,0,0,0,.279-.414A3.816,3.816,0,0,1,38.527,1a3.816,3.816,0,0,1,3.621,2.1,3.86,3.86,0,0,0,.279.414.482.482,0,0,0,.062-.02c2.3-.849,3.863-1.188,4.582-.256.676.876,0,2.086-.82,3.264-.322.459-.547.79-.714,1.059a2.349,2.349,0,0,1,.531,4.011,25.976,25.976,0,0,1,5.7,8.37c1.508,3.969,1.082,7.542-1.267,10.619A10.572,10.572,0,0,1,41.92,34.8H35.135A10.565,10.565,0,0,1,26.557,30.562ZM53.037,41.915l-17.65,10.19a5.17,5.17,0,0,1-3.907.5L24.421,50.99A7.44,7.44,0,0,0,18.306,52.1l-3-11.185L19.123,38a4.181,4.181,0,0,1,3.661-1.032l12.322,3.353a2.775,2.775,0,0,1-1.457,5.355l-6.582-1.792a.883.883,0,0,0-.464,1.7l6.582,1.792a4.537,4.537,0,0,0,5.421-2.727l12.008-6.932a2.424,2.424,0,0,1,2.423,4.2ZM14.568,55.5,17.2,54.8l-4.17-15.564-2.632.705ZM52.908,35.773a4.157,4.157,0,0,0-3.179.415L38.884,42.449a4.549,4.549,0,0,0-3.314-3.835L23.247,35.26a5.91,5.91,0,0,0-5.2,1.334L14.815,39.07l-.118-.441a1.613,1.613,0,0,0-1.973-1.14l-2.932.786a1.612,1.612,0,0,0-1.139,1.973L12.9,56.111a1.615,1.615,0,0,0,1.557,1.195,1.638,1.638,0,0,0,.416-.054l2.932-.786a1.614,1.614,0,0,0,1.139-1.974l-.155-.577a5.891,5.891,0,0,1,5.234-1.2l7.058,1.617a8.025,8.025,0,0,0,1.8.212,6.671,6.671,0,0,0,3.387-.906l17.65-10.19a4.184,4.184,0,0,0-1.014-7.67Z" fill-rule="evenodd"/>
    </g>
  </g>
</svg>
