<svg xmlns="http://www.w3.org/2000/svg" width="72" height="72" viewBox="0 0 72 72">
  <g id="Grupo_1118040" data-name="Grupo 1118040" transform="translate(-419 -1121)">
    <path id="Trazado_824488" data-name="Trazado 824488" d="M36,0A36,36,0,1,1,0,36,36,36,0,0,1,36,0Z" transform="translate(419 1121)" fill="#cdb9f8"/>
    <g id="escel" transform="translate(370.201 1136.302)">
      <path id="Trazado_910557" data-name="Trazado 910557" d="M101.139,10.2H79.554V50.292h28.78v-32.9Z" transform="translate(-9.367 -9.367)" fill="#fff"/>
      <g id="Grupo_1118041" data-name="Grupo 1118041" transform="translate(74.512 13.309)">
        <path id="Trazado_910558" data-name="Trazado 910558" d="M152.72,163.187h-6.928l-13.2,16.3h6.928Z" transform="translate(-132.59 -163.187)" fill="#77bd00"/>
        <path id="Trazado_910559" data-name="Trazado 910559" d="M132.59,163.187h6.928l13.2,16.3h-6.928Z" transform="translate(-132.59 -163.187)" fill="#77bd00"/>
      </g>
      <path id="Trazado_910560" data-name="Trazado 910560" d="M99.555,7.439l-7.2-7.2A.832.832,0,0,0,91.772,0H70.187a.832.832,0,0,0-.832.832V40.925a.832.832,0,0,0,.832.832h28.78a.832.832,0,0,0,.832-.832V8.027A.832.832,0,0,0,99.555,7.439ZM92.6,2.84,96.959,7.2H92.6ZM71.019,40.093V1.664H90.94V8.027a.832.832,0,0,0,.832.832h6.363V40.093H71.019Z"/>
      <path id="Trazado_910561" data-name="Trazado 910561" d="M123.231,454.884H109.964a.832.832,0,1,0,0,1.664h13.268a.832.832,0,1,0,0-1.664Z" transform="translate(-36.533 -417.786)"/>
      <path id="Trazado_910562" data-name="Trazado 910562" d="M314.494,454.884h-.9a.832.832,0,0,0,0,1.664h.9a.832.832,0,0,0,0-1.664Z" transform="translate(-223.554 -417.786)"/>
      <path id="Trazado_910563" data-name="Trazado 910563" d="M144.1,153.462a.832.832,0,0,0-.751-.474h-6.928a.831.831,0,0,0-.646.308l-2.49,3.075L130.8,153.3a.832.832,0,0,0-.646-.308h-6.928a.832.832,0,0,0-.646,1.355l6.177,7.628-6.177,7.628a.832.832,0,0,0,.646,1.355h6.928a.832.832,0,0,0,.646-.308l2.49-3.075,2.49,3.075a.832.832,0,0,0,.646.308h6.928A.832.832,0,0,0,144,169.6l-6.177-7.628L144,154.343A.832.832,0,0,0,144.1,153.462Zm-14.349,15.83h-4.788l4.857-6,2.394,2.956Zm7.066,0-11.854-14.64h4.788l11.854,14.64Zm-.069-8.642-2.394-2.956,2.463-3.042h4.788Z" transform="translate(-48.71 -140.511)"/>
    </g>
  </g>
</svg>
