<svg xmlns="http://www.w3.org/2000/svg" xmlns:xlink="http://www.w3.org/1999/xlink" width="113" height="113" viewBox="0 0 113 113">
  <defs>
    <filter id="Trazado_896985" x="0" y="0" width="113" height="113" filterUnits="userSpaceOnUse">
      <feOffset dy="3" input="SourceAlpha"/>
      <feGaussianBlur stdDeviation="3" result="blur"/>
      <feFlood flood-opacity="0.161"/>
      <feComposite operator="in" in2="blur"/>
      <feComposite in="SourceGraphic"/>
    </filter>
  </defs>
  <g id="Grupo_1114730" data-name="Grupo 1114730" transform="translate(-535.051 -10770)">
    <g id="Grupo_1114706" data-name="Grupo 1114706" transform="translate(209.16 6924)">
      <g id="Grupo_1111318" data-name="Grupo 1111318" transform="translate(-5.891)">
        <g id="Grupo_1109826" data-name="Grupo 1109826" transform="translate(340.781 3852)">
          <g id="Grupo_1098742" data-name="Grupo 1098742">
            <g transform="matrix(1, 0, 0, 1, -9, -6)" filter="url(#Trazado_896985)">
              <g id="Trazado_896985-2" data-name="Trazado 896985" transform="translate(9 6)" fill="#fd9826" opacity="0.859">
                <path d="M 47.49993515014648 93.5 C 41.28932189941406 93.5 35.26528167724609 92.28397369384766 29.59514808654785 89.88571929931641 C 24.1176815032959 87.56894683837891 19.1981086730957 84.25197601318359 14.97306823730469 80.02693176269531 C 10.74802875518799 75.80189514160156 7.431055068969727 70.88231658935547 5.11428165435791 65.40485382080078 C 2.716028451919556 59.73471832275391 1.500001788139343 53.71067810058594 1.500001788139343 47.50006484985352 C 1.500001788139343 41.28932189941406 2.716028451919556 35.26528167724609 5.11428165435791 29.59514617919922 C 7.431055068969727 24.11767959594727 10.74802875518799 19.19810676574707 14.97306823730469 14.97306632995605 C 19.1981086730957 10.74802684783936 24.1176815032959 7.431053161621094 29.59514808654785 5.114280223846436 C 35.26528167724609 2.716026782989502 41.28932189941406 1.5 47.49993515014648 1.5 C 53.71054840087891 1.5 59.73458862304688 2.716026782989502 65.40472412109375 5.114280223846436 C 70.88218688964844 7.431053161621094 75.80176544189453 10.74802684783936 80.02680206298828 14.97306632995605 C 84.25183868408203 19.19810676574707 87.56881713867188 24.11767959594727 89.88558959960938 29.59514617919922 C 92.28384399414062 35.26528167724609 93.49987030029297 41.28932189941406 93.49987030029297 47.49993515014648 C 93.49987030029297 53.71067810058594 92.28384399414062 59.73471832275391 89.88558959960938 65.40485382080078 C 87.56881713867188 70.88231658935547 84.25183868408203 75.80189514160156 80.02680206298828 80.02693176269531 C 75.80176544189453 84.25197601318359 70.88218688964844 87.56894683837891 65.40472412109375 89.88571929931641 C 59.73458862304688 92.28397369384766 53.71054840087891 93.5 47.49993515014648 93.5 Z" stroke="none"/>
                <path d="M 47.49993515014648 3 C 41.49116516113281 3 35.66371917724609 4.176155090332031 30.17947387695312 6.495796203613281 C 24.88081359863281 8.7369384765625 20.12149047851562 11.94596862792969 16.03372192382812 16.03372192382812 C 11.94596862792969 20.12149047851562 8.7369384765625 24.88081359863281 6.495796203613281 30.17947387695312 C 4.1761474609375 35.66372299194336 3 41.49116897583008 3 47.50006103515625 C 3 53.50883102416992 4.1761474609375 59.33627700805664 6.495796203613281 64.82052612304688 C 8.7369384765625 70.11918640136719 11.94596862792969 74.87850952148438 16.03372192382812 78.96627807617188 C 20.12149047851562 83.05403137207031 24.88081359863281 86.2630615234375 30.17947387695312 88.50419616699219 C 35.66371917724609 90.82384490966797 41.49116516113281 92 47.49993515014648 92 C 53.50870513916016 92 59.33615112304688 90.82384490966797 64.82039642333984 88.50419616699219 C 70.11905670166016 86.2630615234375 74.87837982177734 83.05403137207031 78.96614837646484 78.96627807617188 C 83.05390167236328 74.87850952148438 86.26293182373047 70.11918640136719 88.50407409667969 64.82052612304688 C 90.82372283935547 59.33627700805664 91.99987030029297 53.50883102416992 91.99987030029297 47.49993896484375 C 91.99987030029297 41.49116897583008 90.82372283935547 35.66372299194336 88.50407409667969 30.17947387695312 C 86.26293182373047 24.88081359863281 83.05390167236328 20.12149047851562 78.96614837646484 16.03372192382812 C 74.87837982177734 11.94596862792969 70.11905670166016 8.7369384765625 64.82039642333984 6.495796203613281 C 59.33615112304688 4.176155090332031 53.50870513916016 3 47.49993515014648 3 M 47.49993515014648 0 C 73.73342895507812 0 94.99987030029297 21.26644897460938 94.99987030029297 47.49993896484375 L 94.99987030029297 47.50006103515625 C 94.99987030029297 73.73355102539062 73.73342895507812 95 47.49993515014648 95 C 21.26644134521484 95 0 73.73355102539062 0 47.50006103515625 L 0 47.49993896484375 C 0 21.26644897460938 21.26644134521484 0 47.49993515014648 0 Z" stroke="none" fill="#fff"/>
              </g>
            </g>
            <g id="Rectángulo_400907" data-name="Rectángulo 400907" transform="translate(0 0)" fill="none" stroke="#fff" stroke-width="3">
              <rect width="95" height="95" rx="47.5" stroke="none"/>
              <rect x="1.5" y="1.5" width="92" height="92" rx="46" fill="none"/>
            </g>
          </g>
        </g>
      </g>
    </g>
    <g id="time" transform="translate(561.741 10793.69)">
      <g id="Grupo_1114708" data-name="Grupo 1114708" transform="translate(15.874 14.335)">
        <path id="Trazado_905585" data-name="Trazado 905585" d="M159.706,135.109A10.088,10.088,0,1,0,169.793,145.2,10.088,10.088,0,0,0,159.706,135.109Z" transform="translate(-149.618 -135.109)" fill="#ffe17d"/>
      </g>
      <g id="Grupo_1114709" data-name="Grupo 1114709" transform="translate(26.495 14.349)">
        <path id="Trazado_905586" data-name="Trazado 905586" d="M249.717,135.24a14.907,14.907,0,0,0,9.269,12.467,10.094,10.094,0,0,0-9.269-12.467Z" transform="translate(-249.717 -135.24)" fill="#ffd164"/>
      </g>
      <g id="Grupo_1114710" data-name="Grupo 1114710" transform="translate(15.875 14.335)">
        <path id="Trazado_905587" data-name="Trazado 905587" d="M151.818,145.2a10.089,10.089,0,0,1,8.988-10.028,10.2,10.2,0,0,0-1.1-.06,10.088,10.088,0,0,0,0,20.176,10.2,10.2,0,0,0,1.1-.06A10.089,10.089,0,0,1,151.818,145.2Z" transform="translate(-149.619 -135.109)" fill="#ffd164"/>
      </g>
      <g id="Grupo_1114711" data-name="Grupo 1114711" transform="translate(15.875 34.448)">
        <path id="Trazado_905588" data-name="Trazado 905588" d="M168.734,330.07H150.68a1.061,1.061,0,0,1-1.061-1.061v-3.275a1.061,1.061,0,0,1,1.061-1.061h18.054a1.061,1.061,0,0,1,1.061,1.061v3.275A1.061,1.061,0,0,1,168.734,330.07Z" transform="translate(-149.619 -324.673)" fill="#ffe17d"/>
      </g>
      <g id="Grupo_1114712" data-name="Grupo 1114712" transform="translate(15.875 34.448)">
        <path id="Trazado_905589" data-name="Trazado 905589" d="M168.734,324.673H150.68a1.061,1.061,0,0,0-1.061,1.061v1.676a1.061,1.061,0,0,1,1.061-1.061h18.054a1.061,1.061,0,0,1,1.061,1.061v-1.676A1.061,1.061,0,0,0,168.734,324.673Z" transform="translate(-149.619 -324.673)" fill="#ffd164"/>
      </g>
      <g id="Grupo_1114713" data-name="Grupo 1114713" transform="translate(15.875 34.448)">
        <path id="Trazado_905590" data-name="Trazado 905590" d="M151.873,329.009v-3.275a1.061,1.061,0,0,1,1.061-1.061H150.68a1.061,1.061,0,0,0-1.061,1.061v3.275a1.061,1.061,0,0,0,1.061,1.061h2.254A1.061,1.061,0,0,1,151.873,329.009Z" transform="translate(-149.619 -324.673)" fill="#ffd164"/>
      </g>
      <g id="Grupo_1114714" data-name="Grupo 1114714" transform="translate(15.875 39.845)">
        <path id="Trazado_905591" data-name="Trazado 905591" d="M168.734,380.941H150.68a1.061,1.061,0,0,1-1.061-1.061V376.6a1.061,1.061,0,0,1,1.061-1.061h18.054a1.061,1.061,0,0,1,1.061,1.061v3.275A1.061,1.061,0,0,1,168.734,380.941Z" transform="translate(-149.619 -375.544)" fill="#ffe17d"/>
      </g>
      <g id="Grupo_1114715" data-name="Grupo 1114715" transform="translate(15.875 39.845)">
        <path id="Trazado_905592" data-name="Trazado 905592" d="M168.734,375.544H150.68a1.061,1.061,0,0,0-1.061,1.061v1.676a1.061,1.061,0,0,1,1.061-1.061h18.054a1.061,1.061,0,0,1,1.061,1.061V376.6A1.061,1.061,0,0,0,168.734,375.544Z" transform="translate(-149.619 -375.544)" fill="#ffd164"/>
      </g>
      <g id="Grupo_1114716" data-name="Grupo 1114716" transform="translate(15.875 39.845)">
        <path id="Trazado_905593" data-name="Trazado 905593" d="M151.873,379.88V376.6a1.061,1.061,0,0,1,1.061-1.061H150.68a1.061,1.061,0,0,0-1.061,1.061v3.275a1.061,1.061,0,0,0,1.061,1.061h2.254A1.061,1.061,0,0,1,151.873,379.88Z" transform="translate(-149.619 -375.544)" fill="#ffd164"/>
      </g>
      <g id="Grupo_1114717" data-name="Grupo 1114717" transform="translate(15.875 45.242)">
        <path id="Trazado_905594" data-name="Trazado 905594" d="M168.734,431.812H150.68a1.061,1.061,0,0,1-1.061-1.061v-3.275a1.061,1.061,0,0,1,1.061-1.061h18.054a1.061,1.061,0,0,1,1.061,1.061v3.275A1.061,1.061,0,0,1,168.734,431.812Z" transform="translate(-149.619 -426.415)" fill="#ffe17d"/>
      </g>
      <g id="Grupo_1114718" data-name="Grupo 1114718" transform="translate(15.875 45.242)">
        <path id="Trazado_905595" data-name="Trazado 905595" d="M168.734,426.415H150.68a1.061,1.061,0,0,0-1.061,1.061v1.676a1.061,1.061,0,0,1,1.061-1.061h18.054a1.061,1.061,0,0,1,1.061,1.061v-1.676A1.061,1.061,0,0,0,168.734,426.415Z" transform="translate(-149.619 -426.415)" fill="#ffd164"/>
      </g>
      <g id="Grupo_1114719" data-name="Grupo 1114719" transform="translate(15.875 45.242)">
        <path id="Trazado_905596" data-name="Trazado 905596" d="M151.873,430.751v-3.275a1.061,1.061,0,0,1,1.061-1.061H150.68a1.061,1.061,0,0,0-1.061,1.061v3.275a1.061,1.061,0,0,0,1.061,1.061h2.254A1.061,1.061,0,0,1,151.873,430.751Z" transform="translate(-149.619 -426.415)" fill="#ffd164"/>
      </g>
      <g id="Grupo_1114720" data-name="Grupo 1114720" transform="translate(10.919 43.29)">
        <path id="Trazado_905597" data-name="Trazado 905597" d="M130.862,413.981h-8.926a2.007,2.007,0,0,0,0-4.015h-3.3a7.225,7.225,0,0,1-2.606-.486L113.5,408.5a7.222,7.222,0,0,0-2.606-.486h-7.983v10.237h27.951a2.136,2.136,0,0,0,0-4.272Z" transform="translate(-102.911 -408.016)" fill="#ffcebf"/>
      </g>
      <g id="Grupo_1114721" data-name="Grupo 1114721" transform="translate(10.919 50.372)">
        <path id="Trazado_905598" data-name="Trazado 905598" d="M130.862,475.876H102.911v2.039h27.951a2.137,2.137,0,0,0,1.878-3.155A2.135,2.135,0,0,1,130.862,475.876Z" transform="translate(-102.911 -474.759)" fill="#ffb09e"/>
      </g>
      <g id="Grupo_1114722" data-name="Grupo 1114722" transform="translate(5.572 41.251)">
        <path id="Trazado_905599" data-name="Trazado 905599" d="M59.487,389.86v10.154a1.061,1.061,0,0,1-1.061,1.061H52.52V388.8h5.906A1.061,1.061,0,0,1,59.487,389.86Z" transform="translate(-52.52 -388.799)" fill="#f1f6f7"/>
      </g>
      <g id="Grupo_1114723" data-name="Grupo 1114723" transform="translate(0.796 41.251)">
        <path id="Trazado_905600" data-name="Trazado 905600" d="M13.652,388.8v12.276H8.031a.531.531,0,0,1-.53-.53V389.329a.531.531,0,0,1,.53-.53Z" transform="translate(-7.5 -388.799)" fill="#7398d4"/>
      </g>
      <g id="Grupo_1114724" data-name="Grupo 1114724" transform="translate(0.796 41.251)">
        <path id="Trazado_905601" data-name="Trazado 905601" d="M10.189,388.8v12.276H8.03a.531.531,0,0,1-.53-.53V389.329a.531.531,0,0,1,.53-.53Z" transform="translate(-7.5 -388.799)" fill="#4377c4"/>
      </g>
      <g id="Grupo_1114725" data-name="Grupo 1114725" transform="translate(29.087 0.796)">
        <path id="Trazado_905602" data-name="Trazado 905602" d="M286.368,31.941a12.22,12.22,0,1,1,12.22-12.22A12.22,12.22,0,0,1,286.368,31.941Z" transform="translate(-274.148 -7.501)" fill="#dc4955"/>
      </g>
      <g id="Grupo_1114726" data-name="Grupo 1114726" transform="translate(29.087 0.796)">
        <path id="Trazado_905603" data-name="Trazado 905603" d="M277.814,19.719A12.223,12.223,0,0,1,288.2,7.636a12.22,12.22,0,1,0,0,24.166A12.223,12.223,0,0,1,277.814,19.719Z" transform="translate(-274.147 -7.499)" fill="#c42430"/>
      </g>
      <g id="Grupo_1114727" data-name="Grupo 1114727" transform="translate(32.754 4.463)">
        <path id="Trazado_905604" data-name="Trazado 905604" d="M317.261,42.06a8.553,8.553,0,1,0,8.553,8.553A8.553,8.553,0,0,0,317.261,42.06Z" transform="translate(-308.708 -42.06)" fill="#fff9df"/>
      </g>
      <g id="Grupo_1114728" data-name="Grupo 1114728" transform="translate(32.754 4.463)">
        <path id="Trazado_905605" data-name="Trazado 905605" d="M310.943,50.613a8.553,8.553,0,0,1,7.435-8.478,8.553,8.553,0,1,0,0,16.956A8.553,8.553,0,0,1,310.943,50.613Z" transform="translate(-308.707 -42.06)" fill="#fff0af"/>
      </g>
      <g id="Grupo_1114729" data-name="Grupo 1114729" transform="translate(0 0)">
        <path id="Trazado_905606" data-name="Trazado 905606" d="M220.416,169.211a1.292,1.292,0,0,1,1.29,1.29.8.8,0,1,0,1.591,0,2.887,2.887,0,0,0-2.086-2.769v-1.188a.8.8,0,1,0-1.591,0v1.188a2.882,2.882,0,0,0,.8,5.651l.066,0a1.29,1.29,0,1,1-1.356,1.289.8.8,0,1,0-1.591,0,2.887,2.887,0,0,0,2.086,2.769v1.188a.8.8,0,1,0,1.591,0v-1.188a2.882,2.882,0,0,0-.8-5.651l-.066,0a1.29,1.29,0,0,1,.066-2.579Z" transform="translate(-194.454 -148.163)"/>
        <path id="Trazado_905607" data-name="Trazado 905607" d="M310.557,34.56a9.349,9.349,0,1,0,9.349,9.349A9.36,9.36,0,0,0,310.557,34.56Zm0,17.107a7.758,7.758,0,1,1,7.758-7.758A7.766,7.766,0,0,1,310.557,51.667Z" transform="translate(-269.25 -30.893)"/>
        <path id="Trazado_905608" data-name="Trazado 905608" d="M41.307,26.032A13.018,13.018,0,0,0,52.137,5.794a.8.8,0,0,0-1.323.884,11.431,11.431,0,1,1-2.079-2.342A.8.8,0,0,0,49.77,3.127a13.016,13.016,0,0,0-21.479,9.889c0,.262.009.522.024.78A10.881,10.881,0,0,0,20.2,33.652H16.935a1.859,1.859,0,0,0-1.857,1.857v3.275a1.845,1.845,0,0,0,.336,1.062,1.84,1.84,0,0,0-.336,1.06v1.588H13.335v-.182a1.859,1.859,0,0,0-1.857-1.857H1.326A1.328,1.328,0,0,0,0,41.782V53a1.328,1.328,0,0,0,1.326,1.326H38.87a2.932,2.932,0,0,0,0-5.864H36.846V46.3a1.839,1.839,0,0,0-.336-1.06,1.845,1.845,0,0,0,.336-1.062V40.906a1.839,1.839,0,0,0-.336-1.06,1.845,1.845,0,0,0,.336-1.062V35.509a1.859,1.859,0,0,0-1.857-1.857H31.724a10.874,10.874,0,0,0,4.507-5.616.8.8,0,1,0-1.5-.528,9.308,9.308,0,0,1-7.691,6.144H24.884a9.293,9.293,0,1,1,3.644-18.163A13.037,13.037,0,0,0,41.307,26.032ZM6.152,52.732H1.592V42.047h4.56ZM16.67,40.906a.266.266,0,0,1,.265-.265H34.989a.266.266,0,0,1,.265.265v3.275a.266.266,0,0,1-.265.265l-8.349,0a6.4,6.4,0,0,1-2.319-.433l-2.527-.977a7.988,7.988,0,0,0-2.893-.54H16.67V40.906Zm-4.927,1.406V52.466a.266.266,0,0,1-.265.265H7.743V42.047h3.735A.266.266,0,0,1,11.744,42.312ZM40.21,51.391a1.342,1.342,0,0,1-1.34,1.34H13.314a1.853,1.853,0,0,0,.021-.265v-8.38H18.9a6.4,6.4,0,0,1,2.319.433l2.527.977a7.988,7.988,0,0,0,2.893.54h1.833v0h1.515a1.211,1.211,0,0,1-.045,2.421H25.292a.8.8,0,1,0,0,1.591H38.87A1.342,1.342,0,0,1,40.21,51.391Zm-7.739-2.932a2.8,2.8,0,0,0,0-2.421h2.517a.266.266,0,0,1,.265.265v2.156Zm2.784-12.951v3.275a.266.266,0,0,1-.265.265H16.936a.266.266,0,0,1-.265-.265V35.509a.266.266,0,0,1,.265-.265H34.989A.266.266,0,0,1,35.254,35.509Z" transform="translate(0 0)"/>
        <path id="Trazado_905609" data-name="Trazado 905609" d="M383.415,93.981V91.756a.8.8,0,0,0-1.592,0v2.569a.8.8,0,0,0,.251.58l1.4,1.319a.8.8,0,0,0,1.09-1.16Z" transform="translate(-341.313 -81.309)"/>
        <path id="Trazado_905610" data-name="Trazado 905610" d="M382.615,61.889a.8.8,0,1,0-.8-.8A.8.8,0,0,0,382.615,61.889Z" transform="translate(-341.309 -53.9)"/>
        <path id="Trazado_905611" data-name="Trazado 905611" d="M382.615,170.063a.8.8,0,1,0,.8.8A.8.8,0,0,0,382.615,170.063Z" transform="translate(-341.309 -152.019)"/>
        <path id="Trazado_905612" data-name="Trazado 905612" d="M420.861,76.606a.8.8,0,1,0,1.125,0A.8.8,0,0,0,420.861,76.606Z" transform="translate(-375.999 -68.27)"/>
        <path id="Trazado_905613" data-name="Trazado 905613" d="M344.369,154.222a.8.8,0,1,0,0,1.125A.8.8,0,0,0,344.369,154.222Z" transform="translate(-306.618 -137.651)"/>
        <circle id="Elipse_13426" data-name="Elipse 13426" cx="0.795" cy="0.795" r="0.795" transform="translate(46.334 12.221)"/>
        <path id="Trazado_905614" data-name="Trazado 905614" d="M327.732,115.181a.8.8,0,1,0,.8.8A.8.8,0,0,0,327.732,115.181Z" transform="translate(-292.249 -102.96)"/>
        <circle id="Elipse_13427" data-name="Elipse 13427" cx="0.795" cy="0.795" r="0.795" transform="translate(44.628 16.338)"/>
        <path id="Trazado_905615" data-name="Trazado 905615" d="M344.369,76.606a.8.8,0,1,0,0,1.125A.8.8,0,0,0,344.369,76.606Z" transform="translate(-306.618 -68.27)"/>
      </g>
    </g>
  </g>
</svg>
