<svg xmlns="http://www.w3.org/2000/svg" xmlns:xlink="http://www.w3.org/1999/xlink" width="113" height="113" viewBox="0 0 113 113">
  <defs>
    <filter id="Trazado_896985" x="0" y="0" width="113" height="113" filterUnits="userSpaceOnUse">
      <feOffset dy="3" input="SourceAlpha"/>
      <feGaussianBlur stdDeviation="3" result="blur"/>
      <feFlood flood-opacity="0.161"/>
      <feComposite operator="in" in2="blur"/>
      <feComposite in="SourceGraphic"/>
    </filter>
  </defs>
  <g id="Grupo_1114747" data-name="Grupo 1114747" transform="translate(-954.272 -10770)">
    <g id="Grupo_1114707" data-name="Grupo 1114707" transform="translate(-0.779 9580)">
      <g id="Grupo_1113185" data-name="Grupo 1113185" transform="translate(629.16 -2656)">
        <g id="Grupo_1111318" data-name="Grupo 1111318" transform="translate(-5.891)">
          <g id="Grupo_1109826" data-name="Grupo 1109826" transform="translate(340.781 3852)">
            <g id="Grupo_1098742" data-name="Grupo 1098742">
              <g transform="matrix(1, 0, 0, 1, -9, -6)" filter="url(#Trazado_896985)">
                <g id="Trazado_896985-2" data-name="Trazado 896985" transform="translate(9 6)" fill="#fd9826" opacity="0.859">
                  <path d="M 47.49993515014648 93.5 C 41.28932189941406 93.5 35.26528167724609 92.28397369384766 29.59514808654785 89.88571929931641 C 24.1176815032959 87.56894683837891 19.1981086730957 84.25197601318359 14.97306823730469 80.02693176269531 C 10.74802875518799 75.80189514160156 7.431055068969727 70.88231658935547 5.11428165435791 65.40485382080078 C 2.716028451919556 59.73471832275391 1.500001788139343 53.71067810058594 1.500001788139343 47.50006484985352 C 1.500001788139343 41.28932189941406 2.716028451919556 35.26528167724609 5.11428165435791 29.59514617919922 C 7.431055068969727 24.11767959594727 10.74802875518799 19.19810676574707 14.97306823730469 14.97306632995605 C 19.1981086730957 10.74802684783936 24.1176815032959 7.431053161621094 29.59514808654785 5.114280223846436 C 35.26528167724609 2.716026782989502 41.28932189941406 1.5 47.49993515014648 1.5 C 53.71054840087891 1.5 59.73458862304688 2.716026782989502 65.40472412109375 5.114280223846436 C 70.88218688964844 7.431053161621094 75.80176544189453 10.74802684783936 80.02680206298828 14.97306632995605 C 84.25183868408203 19.19810676574707 87.56881713867188 24.11767959594727 89.88558959960938 29.59514617919922 C 92.28384399414062 35.26528167724609 93.49987030029297 41.28932189941406 93.49987030029297 47.49993515014648 C 93.49987030029297 53.71067810058594 92.28384399414062 59.73471832275391 89.88558959960938 65.40485382080078 C 87.56881713867188 70.88231658935547 84.25183868408203 75.80189514160156 80.02680206298828 80.02693176269531 C 75.80176544189453 84.25197601318359 70.88218688964844 87.56894683837891 65.40472412109375 89.88571929931641 C 59.73458862304688 92.28397369384766 53.71054840087891 93.5 47.49993515014648 93.5 Z" stroke="none"/>
                  <path d="M 47.49993515014648 3 C 41.49116516113281 3 35.66371917724609 4.176155090332031 30.17947387695312 6.495796203613281 C 24.88081359863281 8.7369384765625 20.12149047851562 11.94596862792969 16.03372192382812 16.03372192382812 C 11.94596862792969 20.12149047851562 8.7369384765625 24.88081359863281 6.495796203613281 30.17947387695312 C 4.1761474609375 35.66372299194336 3 41.49116897583008 3 47.50006103515625 C 3 53.50883102416992 4.1761474609375 59.33627700805664 6.495796203613281 64.82052612304688 C 8.7369384765625 70.11918640136719 11.94596862792969 74.87850952148438 16.03372192382812 78.96627807617188 C 20.12149047851562 83.05403137207031 24.88081359863281 86.2630615234375 30.17947387695312 88.50419616699219 C 35.66371917724609 90.82384490966797 41.49116516113281 92 47.49993515014648 92 C 53.50870513916016 92 59.33615112304688 90.82384490966797 64.82039642333984 88.50419616699219 C 70.11905670166016 86.2630615234375 74.87837982177734 83.05403137207031 78.96614837646484 78.96627807617188 C 83.05390167236328 74.87850952148438 86.26293182373047 70.11918640136719 88.50407409667969 64.82052612304688 C 90.82372283935547 59.33627700805664 91.99987030029297 53.50883102416992 91.99987030029297 47.49993896484375 C 91.99987030029297 41.49116897583008 90.82372283935547 35.66372299194336 88.50407409667969 30.17947387695312 C 86.26293182373047 24.88081359863281 83.05390167236328 20.12149047851562 78.96614837646484 16.03372192382812 C 74.87837982177734 11.94596862792969 70.11905670166016 8.7369384765625 64.82039642333984 6.495796203613281 C 59.33615112304688 4.176155090332031 53.50870513916016 3 47.49993515014648 3 M 47.49993515014648 0 C 73.73342895507812 0 94.99987030029297 21.26644897460938 94.99987030029297 47.49993896484375 L 94.99987030029297 47.50006103515625 C 94.99987030029297 73.73355102539062 73.73342895507812 95 47.49993515014648 95 C 21.26644134521484 95 0 73.73355102539062 0 47.50006103515625 L 0 47.49993896484375 C 0 21.26644897460938 21.26644134521484 0 47.49993515014648 0 Z" stroke="none" fill="#fff"/>
                </g>
              </g>
              <g id="Rectángulo_400907" data-name="Rectángulo 400907" transform="translate(0 0)" fill="none" stroke="#fff" stroke-width="3">
                <rect width="95" height="95" rx="47.5" stroke="none"/>
                <rect x="1.5" y="1.5" width="92" height="92" rx="46" fill="none"/>
              </g>
            </g>
          </g>
        </g>
      </g>
    </g>
    <g id="Money" transform="translate(982.051 10791.55)">
      <g id="Grupo_1114746" data-name="Grupo 1114746">
        <g id="Grupo_1114731" data-name="Grupo 1114731">
          <path id="Trazado_905616" data-name="Trazado 905616" d="M21.3,47.6A19.291,19.291,0,0,0,40.6,28.4a19.757,19.757,0,0,0-1.4-7.3A19.279,19.279,0,0,0,21.4,9.2a19.2,19.2,0,0,0-6.9,37.2,21.566,21.566,0,0,0,6.8,1.2ZM35.4,28.4A14.15,14.15,0,1,1,21.3,14.2,14.106,14.106,0,0,1,35.4,28.4Z" fill="#76a8fa" fill-rule="evenodd"/>
        </g>
        <g id="Grupo_1114732" data-name="Grupo 1114732">
          <path id="Trazado_905617" data-name="Trazado 905617" d="M18.2,9.4A19.152,19.152,0,0,1,32,19.1a14.106,14.106,0,0,1,0,18.6,19.23,19.23,0,0,1-13.8,9.7,15.645,15.645,0,0,0,3.1.2A19.291,19.291,0,0,0,40.6,28.4a19.757,19.757,0,0,0-1.4-7.3A19.279,19.279,0,0,0,21.4,9.2a11.026,11.026,0,0,0-3.2.2Z" fill="#5694f7" fill-rule="evenodd"/>
        </g>
        <g id="Grupo_1114733" data-name="Grupo 1114733">
          <path id="Trazado_905618" data-name="Trazado 905618" d="M21.3,43.3a15,15,0,1,0-15-15A14.98,14.98,0,0,0,21.3,43.3Z" fill="#f0f0f0" fill-rule="evenodd"/>
        </g>
        <g id="Grupo_1114734" data-name="Grupo 1114734">
          <path id="Trazado_905619" data-name="Trazado 905619" d="M19.3,13.5a14.925,14.925,0,0,1,0,29.6,12.75,12.75,0,0,0,2,.1,15,15,0,0,0,0-30,16.206,16.206,0,0,1-2,.3Z" fill="#dbdbdb" fill-rule="evenodd"/>
        </g>
        <g id="Grupo_1114735" data-name="Grupo 1114735">
          <path id="Trazado_905620" data-name="Trazado 905620" d="M31.8,34.2H42.3a12.005,12.005,0,0,1,12.5-2.1V30a2.051,2.051,0,0,0-2.1-2.1H29.6A2.051,2.051,0,0,0,27.5,30v2.1a2.051,2.051,0,0,0,2.1,2.1Z" fill="#fcd1a4" fill-rule="evenodd"/>
        </g>
        <g id="Grupo_1114736" data-name="Grupo 1114736">
          <path id="Trazado_905621" data-name="Trazado 905621" d="M38.8,46.7H31.7a2.051,2.051,0,0,0-2.1,2.1v2.1A2.051,2.051,0,0,0,31.7,53h12a11.976,11.976,0,0,1-4.9-6.3Z" fill="#fcd1a4" fill-rule="evenodd"/>
        </g>
        <g id="Grupo_1114737" data-name="Grupo 1114737">
          <path id="Trazado_905622" data-name="Trazado 905622" d="M31.8,46.7h7.1a11.587,11.587,0,0,1-.3-6.3H28.5a2.051,2.051,0,0,0-2.1,2.1v2.1a2.051,2.051,0,0,0,2.1,2.1Z" fill="#fcd1a4" fill-rule="evenodd"/>
        </g>
        <g id="Grupo_1114738" data-name="Grupo 1114738">
          <path id="Trazado_905623" data-name="Trazado 905623" d="M38.2,43a11.044,11.044,0,0,0,.6,3.7A12.26,12.26,0,0,0,43.7,53,11.322,11.322,0,0,0,50,54.8a11.8,11.8,0,0,0,4.7-22.7,11.441,11.441,0,0,0-4.6-.9,11.749,11.749,0,0,0-7.9,3,12.214,12.214,0,0,0-3.7,6.3,10.074,10.074,0,0,0-.3,2.5Z" fill="#ffd670" fill-rule="evenodd"/>
        </g>
        <g id="Grupo_1114739" data-name="Grupo 1114739">
          <path id="Trazado_905624" data-name="Trazado 905624" d="M52.7,32.5a11.839,11.839,0,0,1-.9,22.2A11.857,11.857,0,0,0,62,43a11.718,11.718,0,0,0-7.3-10.9,11.98,11.98,0,0,0-8.3-.3,8.6,8.6,0,0,1,1.6-.1A10.364,10.364,0,0,1,52.7,32.5Z" fill="#ffc942" fill-rule="evenodd"/>
        </g>
        <g id="Grupo_1114740" data-name="Grupo 1114740">
          <path id="Trazado_905625" data-name="Trazado 905625" d="M42.2,34.2H31.8a2.051,2.051,0,0,0-2.1,2.1v2.2a2.165,2.165,0,0,0,2.1,2h6.8a11.434,11.434,0,0,1,3.6-6.3Z" fill="#fcd1a4" fill-rule="evenodd"/>
        </g>
        <g id="Grupo_1114741" data-name="Grupo 1114741">
          <path id="Trazado_905626" data-name="Trazado 905626" d="M42.2,34.2a11.771,11.771,0,0,1,4.2-2.4,11.476,11.476,0,0,1,3.7-.6,11.791,11.791,0,0,1,4.6.9V30a13.861,13.861,0,0,0-15.3,4.2Z" fill="#f0bf8b" fill-rule="evenodd"/>
        </g>
        <g id="Grupo_1114742" data-name="Grupo 1114742">
          <path id="Trazado_905627" data-name="Trazado 905627" d="M38.5,40.5a11.579,11.579,0,0,1,3.7-6.3H31.7a2.051,2.051,0,0,0-2.1,2.1v1.8A2.051,2.051,0,0,1,31.7,36h6.4a14.427,14.427,0,0,0-1.7,4.5Z" fill="#f0bf8b" fill-rule="evenodd"/>
        </g>
        <g id="Grupo_1114743" data-name="Grupo 1114743">
          <path id="Trazado_905628" data-name="Trazado 905628" d="M38.2,43a11.529,11.529,0,0,1,.3-2.6h-10a2.051,2.051,0,0,0-2.1,2.1v2.1a2.051,2.051,0,0,1,2.1-2.1h7.8V43a15.012,15.012,0,0,0,.5,3.7h2.1a11.061,11.061,0,0,1-.7-3.7Z" fill="#f0bf8b" fill-rule="evenodd"/>
        </g>
        <g id="Grupo_1114744" data-name="Grupo 1114744">
          <path id="Trazado_905629" data-name="Trazado 905629" d="M38.8,46.7H31.7a2.051,2.051,0,0,0-2.1,2.1h7.9a14.008,14.008,0,0,0,3,4.2h3.2A11.976,11.976,0,0,1,38.8,46.7Z" fill="#f0bf8b" fill-rule="evenodd"/>
        </g>
        <g id="Grupo_1114745" data-name="Grupo 1114745">
          <path id="Trazado_905630" data-name="Trazado 905630" d="M49.9,39.7h2.5a1,1,0,0,0,0-2H51.1V36.1a1,1,0,0,0-2,0v1.7a3,3,0,0,0-2.3,2.9v.4a3.009,3.009,0,0,0,3,3h.4a1,1,0,0,1,0,2H47.7a1,1,0,0,0,0,2H49v1.6a1,1,0,0,0,2,0V48a2.99,2.99,0,0,0-.7-5.9h-.4a1,1,0,0,1-1-1v-.4A1,1,0,0,1,49.9,39.7Z"/>
          <path id="Trazado_905631" data-name="Trazado 905631" d="M21.3,20.1a.945.945,0,0,0-1,1v6.3H16.5a1,1,0,0,0,0,2h4.8a.945.945,0,0,0,1-1V21.1a1,1,0,0,0-1-1Z"/>
          <path id="Trazado_905632" data-name="Trazado 905632" d="M55.7,31.4V30a3.116,3.116,0,0,0-3.1-3.1H41.5A20.272,20.272,0,1,0,21.3,48.5a17.924,17.924,0,0,0,6.2-1,2.959,2.959,0,0,0,1,.2h.4a3.6,3.6,0,0,0-.2,1.1v2.1A3.116,3.116,0,0,0,31.8,54H43.6a12.338,12.338,0,0,0,6.6,1.8,12.826,12.826,0,0,0,5.5-24.4Zm-3.1-2.5A1.11,1.11,0,0,1,53.7,30v.7a13.61,13.61,0,0,0-3.6-.5,13,13,0,0,0-8.3,3H29.6a1.11,1.11,0,0,1-1.1-1.1V30a1.11,1.11,0,0,1,1.1-1.1ZM39.9,35.2a13.476,13.476,0,0,0-2.2,4.3h-6a1.11,1.11,0,0,1-1.1-1.1V36.3a1.11,1.11,0,0,1,1.1-1.1ZM21.3,46.6A18.25,18.25,0,1,1,39.5,26.8H37.2a16.034,16.034,0,1,0-16,17.5,18.406,18.406,0,0,0,4.1-.5v.8a3.194,3.194,0,0,0,.3,1.4,14.9,14.9,0,0,1-4.3.6Zm4.2-4.9a16.471,16.471,0,0,1-3.2.6V41.1a1,1,0,0,0-2,0v1.2a14.347,14.347,0,0,1-8.2-3.4l.8-.8a.99.99,0,1,0-1.4-1.4l-.8.8a13.783,13.783,0,0,1-3.4-8.1H8.5a1,1,0,1,0,0-2H7.3a13.783,13.783,0,0,1,3.4-8.1l.8.8a1.08,1.08,0,0,0,.7.3.908.908,0,0,0,.7-.3.967.967,0,0,0,0-1.4l-.8-.8a14.072,14.072,0,0,1,8.2-3.4v1.2a1,1,0,1,0,2,0V14.5a14.347,14.347,0,0,1,8.2,3.4l-.8.8a.967.967,0,0,0,0,1.4.967.967,0,0,0,1.4,0l.8-.8A13.927,13.927,0,0,1,35.3,27H29.7a3.116,3.116,0,0,0-3.1,3.1v2.1a3.015,3.015,0,0,0,2.4,3,2.537,2.537,0,0,0-.2,1.2v2.1a3.6,3.6,0,0,0,.2,1.1h-.4a2.891,2.891,0,0,0-3.1,2.1Zm3,4a1.032,1.032,0,0,1-1.1-1.1V42.5a1.11,1.11,0,0,1,1.1-1.1h8.9a8.083,8.083,0,0,0-.1,1.6,12.412,12.412,0,0,0,.3,2.7ZM31.8,52a1.11,1.11,0,0,1-1.1-1.1V48.8a1.11,1.11,0,0,1,1.1-1.1h6.4A12.307,12.307,0,0,0,41,52Zm18.3,1.8A10.85,10.85,0,1,1,61,43,10.905,10.905,0,0,1,50.1,53.8Z"/>
        </g>
      </g>
    </g>
  </g>
</svg>
