<svg xmlns="http://www.w3.org/2000/svg" width="295" height="273.568" viewBox="0 0 295 273.568">
  <g id="Grupo_1118340" data-name="Grupo 1118340" transform="translate(-915.051 -13310.799)">
    <rect id="Rectángulo_405547" data-name="Rectángulo 405547" width="295" height="258" transform="translate(915.051 13310.799)" fill="#e6dcfb"/>
    <g id="DES" transform="translate(708.686 13269.789)">
      <g id="Grupo_1114753" data-name="Grupo 1114753" transform="translate(305.455 206.817)">
        <rect id="Rectángulo_405540" data-name="Rectángulo 405540" width="108.165" height="63.749" fill="#fafafa"/>
        <g id="Grupo_1114748" data-name="Grupo 1114748" transform="translate(12.083 18.764)">
          <path id="Trazado_905633" data-name="Trazado 905633" d="M374.994,366.242c7.5-2.708,16.128,4.78,23.48,1.727,4.278-1.777,6.218-6.385,8.314-10.357s5.708-8.161,10.352-7.7c4.683.465,8.469,5.628,12.992,4.382,2.848-.784,4.272-3.8,4.989-6.538s1.21-5.774,3.384-7.7,6.7-1.409,7.045,1.4v33.794H360.963S372.4,367.18,374.994,366.242Z" transform="translate(-360.963 -338.913)" fill="#ebebeb"/>
        </g>
        <g id="Grupo_1114749" data-name="Grupo 1114749" transform="translate(9.824 54.974)">
          <path id="Trazado_905634" data-name="Trazado 905634" d="M353.368,400.041c0,.072,20.5.131,45.789.131s45.789-.059,45.789-.131-20.5-.131-45.789-.131S353.368,399.969,353.368,400.041Z" transform="translate(-353.368 -399.91)" fill="#e0e0e0"/>
        </g>
        <g id="Grupo_1114750" data-name="Grupo 1114750" transform="translate(9.824 40.213)">
          <path id="Trazado_905635" data-name="Trazado 905635" d="M353.368,375.175c0,.072,20.5.131,45.789.131s45.789-.059,45.789-.131-20.5-.13-45.789-.13S353.368,375.1,353.368,375.175Z" transform="translate(-353.368 -375.045)" fill="#e0e0e0"/>
        </g>
        <g id="Grupo_1114751" data-name="Grupo 1114751" transform="translate(9.824 25.452)">
          <path id="Trazado_905636" data-name="Trazado 905636" d="M353.368,350.31c0,.072,20.5.131,45.789.131s45.789-.059,45.789-.131-20.5-.131-45.789-.131S353.368,350.238,353.368,350.31Z" transform="translate(-353.368 -350.179)" fill="#e0e0e0"/>
        </g>
        <g id="Grupo_1114752" data-name="Grupo 1114752" transform="translate(9.824 11.423)">
          <path id="Trazado_905637" data-name="Trazado 905637" d="M353.368,326.679c0,.072,20.5.13,45.789.13s45.789-.058,45.789-.13-20.5-.131-45.789-.131S353.368,326.607,353.368,326.679Z" transform="translate(-353.368 -326.548)" fill="#e0e0e0"/>
        </g>
      </g>
      <g id="Grupo_1114822" data-name="Grupo 1114822" transform="translate(319.179 60.009)">
        <g id="Grupo_1114754" data-name="Grupo 1114754" transform="translate(0.636 0.86)">
          <path id="Trazado_905638" data-name="Trazado 905638" d="M463.491,61.459s-9.53.128-5.454,18.1,3.553,21.37,3.553,28.481a12.429,12.429,0,0,1-7.05,11.313h12.926l9.508-41.95V61.459Z" transform="translate(-454.541 -61.459)" fill="#e0e0e0"/>
        </g>
        <g id="Grupo_1114755" data-name="Grupo 1114755" transform="translate(6.784 14.619)">
          <path id="Trazado_905639" data-name="Trazado 905639" d="M271.282,212.364H401.813l-1.161-121.61L277.7,84.634Z" transform="translate(-271.282 -84.634)" fill="#e0e0e0"/>
        </g>
        <g id="Grupo_1114756" data-name="Grupo 1114756" transform="translate(11.264 15.242)">
          <path id="Trazado_905640" data-name="Trazado 905640" d="M264.094,209.651H394.627L393.465,88.04,266.723,85.685Z" transform="translate(-264.094 -85.685)" fill="#ebebeb"/>
        </g>
        <g id="Grupo_1114758" data-name="Grupo 1114758" transform="translate(13.749 13.783)">
          <g id="Grupo_1114757" data-name="Grupo 1114757" transform="translate(0.142 0.133)">
            <path id="Trazado_905641" data-name="Trazado 905641" d="M260.256,205.352H390.525V83.741l-130.348-.29Z" transform="translate(-260.177 -83.451)" fill="#fafafa"/>
          </g>
          <path id="Trazado_905642" data-name="Trazado 905642" d="M260.134,205.261c0-1.137.024-48.784.061-121.9l-.14.134L390.2,83.8h.2l-.164-.154c.008,44.487.015,86.2.022,121.61l.14-.134-130.268.134L390.4,205.4h.141v-.135c.006-35.408.014-77.124.022-121.61V83.5H390.2l-130.143-.268h-.141v.134C260.046,156.478,260.132,204.127,260.134,205.261Z" transform="translate(-259.912 -83.227)" fill="#263238"/>
        </g>
        <g id="Grupo_1114759" data-name="Grupo 1114759" transform="translate(10.179 0.42)">
          <path id="Trazado_905643" data-name="Trazado 905643" d="M263.183,73.885c6.729-7.462-1.079-12.985-3.712-13.1l124.04-.067c6.484,0,11.415,5.563,10.3,11.647a13.182,13.182,0,0,1-.5,1.849" transform="translate(-259.471 -60.717)" fill="#f5f5f5"/>
        </g>
        <g id="Grupo_1114760" data-name="Grupo 1114760" transform="translate(0 0.735)">
          <path id="Trazado_905644" data-name="Trazado 905644" d="M475.463,119.263a.854.854,0,0,0-.17-.013l-.5-.013-1.948-.024-7.347-.043.029.184a7.976,7.976,0,0,0,3-1.634,9.311,9.311,0,0,0,2.237-3.035A19.632,19.632,0,0,0,472.1,110.8c.17-.692.319-1.4.457-2.128.067-.363.146-.725.18-1.106a8.716,8.716,0,0,0,.09-1.141,40.284,40.284,0,0,0-.167-4.727c-.125-1.616-.314-3.272-.519-4.962-.425-3.379-.96-6.9-1.588-10.506-.258-1.542-.586-3.063-.853-4.553s-.466-2.982-.664-4.441-.365-2.895-.543-4.3c-.079-.705-.181-1.4-.2-2.081a11.935,11.935,0,0,1,.119-2.027,11.729,11.729,0,0,1,1.176-3.728,7.517,7.517,0,0,1,2.381-2.829,4.875,4.875,0,0,1,3.391-.721,6.393,6.393,0,0,1,3.019,1.195,7.164,7.164,0,0,1,1.885,2.222,9.268,9.268,0,0,1,.915,2.419,6.043,6.043,0,0,1-.493,4.021,13.246,13.246,0,0,1-1.373,2.272l-.419.557a1.363,1.363,0,0,0-.137.194,1.285,1.285,0,0,0,.164-.175c.105-.118.254-.3.446-.539a12.35,12.35,0,0,0,1.436-2.259,6.134,6.134,0,0,0,.558-4.108,9.366,9.366,0,0,0-.91-2.474,7.33,7.33,0,0,0-1.925-2.3,6.621,6.621,0,0,0-3.127-1.26,5.137,5.137,0,0,0-3.578.747,7.763,7.763,0,0,0-2.484,2.919,11.967,11.967,0,0,0-1.216,3.809,12.283,12.283,0,0,0-.128,2.072c.016.705.118,1.4.195,2.105q.247,2.113.536,4.308c.2,1.462.4,2.949.66,4.453s.594,3.012.852,4.554c.628,3.6,1.165,7.117,1.6,10.49.208,1.687.4,3.341.529,4.949a40.319,40.319,0,0,1,.181,4.693,8.344,8.344,0,0,1-.083,1.117c-.031.366-.11.732-.173,1.1-.135.722-.281,1.43-.446,2.117a19.474,19.474,0,0,1-1.3,3.842,9.118,9.118,0,0,1-2.163,2.978,7.791,7.791,0,0,1-2.9,1.612l-.61.187.639,0,7.347-.044,1.948-.024.5-.013A.8.8,0,0,0,475.463,119.263Z" transform="translate(-464.861 -61.246)" fill="#263238"/>
        </g>
        <g id="Grupo_1114761" data-name="Grupo 1114761" transform="translate(90.169 4.204)">
          <path id="Trazado_905645" data-name="Trazado 905645" d="M343.879,67.091c-.05.034.32.507.69,1.369a7.5,7.5,0,0,1,.468,1.565,8.389,8.389,0,0,1,.1,1.987,8.477,8.477,0,0,1-.416,1.949,7.61,7.61,0,0,1-.712,1.479c-.5.8-.946,1.212-.9,1.252.015.015.135-.078.338-.262a5.122,5.122,0,0,0,.756-.873,6.816,6.816,0,0,0,.8-1.5,7.288,7.288,0,0,0,.329-4.082,6.7,6.7,0,0,0-.552-1.6,5.006,5.006,0,0,0-.608-.973C344,67.188,343.9,67.079,343.879,67.091Z" transform="translate(-343.104 -67.09)" fill="#263238"/>
        </g>
        <g id="Grupo_1114762" data-name="Grupo 1114762" transform="translate(91.351 0)">
          <path id="Trazado_905646" data-name="Trazado 905646" d="M338.138,60.009a12.856,12.856,0,0,1,1.648,1.917,7.855,7.855,0,0,1,1.178,5.7,8.152,8.152,0,0,1-3.254,4.909,13.579,13.579,0,0,1-2.262,1.222,2.566,2.566,0,0,0,.685-.179,7.61,7.61,0,0,0,1.713-.867,8.079,8.079,0,0,0,3.437-5.028,7.777,7.777,0,0,0-1.3-5.869,7.209,7.209,0,0,0-1.269-1.4A2.449,2.449,0,0,0,338.138,60.009Z" transform="translate(-335.448 -60.009)" fill="#263238"/>
        </g>
        <g id="Grupo_1114763" data-name="Grupo 1114763" transform="translate(23.931 42.629)">
          <path id="Trazado_905647" data-name="Trazado 905647" d="M287.531,184.119s.139.01.409.016l1.2.015,4.6.029,16.933.049,55.867.045,24.092-.008h.155v-.147c-.024-15.2-.044-28.271-.058-37.554-.019-4.629-.035-8.313-.045-10.851-.01-1.256-.019-2.227-.025-2.9-.005-.321-.01-.569-.013-.747s-.014-.253-.014-.253-.009.085-.013.253-.008.426-.013.747c-.006.669-.014,1.64-.026,2.9-.01,2.538-.026,6.222-.045,10.851-.014,9.283-.035,22.356-.058,37.554l.154-.147-24.092-.008-55.867.045-16.933.049-4.6.029-1.2.015C287.67,184.109,287.531,184.119,287.531,184.119Z" transform="translate(-287.531 -131.818)" fill="#263238"/>
        </g>
        <g id="Grupo_1114764" data-name="Grupo 1114764" transform="translate(108.237 82.01)">
          <rect id="Rectángulo_405541" data-name="Rectángulo 405541" width="10.414" height="9.918" fill="#d9a171"/>
        </g>
        <g id="Grupo_1114765" data-name="Grupo 1114765" transform="translate(92.969 74.92)">
          <rect id="Rectángulo_405542" data-name="Rectángulo 405542" width="10.414" height="17.007" fill="#d9a171"/>
        </g>
        <g id="Grupo_1114766" data-name="Grupo 1114766" transform="translate(77.64 66.866)">
          <rect id="Rectángulo_405543" data-name="Rectángulo 405543" width="10.414" height="25.061" fill="#d9a171"/>
        </g>
        <g id="Grupo_1114767" data-name="Grupo 1114767" transform="translate(62.78 57.901)">
          <rect id="Rectángulo_405544" data-name="Rectángulo 405544" width="10.414" height="34.026" fill="#344154"/>
        </g>
        <g id="Grupo_1114768" data-name="Grupo 1114768" transform="translate(47.574 46.421)">
          <rect id="Rectángulo_405545" data-name="Rectángulo 405545" width="10.414" height="45.506" fill="#6595bf"/>
        </g>
        <g id="Grupo_1114769" data-name="Grupo 1114769" transform="translate(32.481 37.667)">
          <rect id="Rectángulo_405546" data-name="Rectángulo 405546" width="10.415" height="53.789" fill="#344154"/>
        </g>
        <g id="Grupo_1114770" data-name="Grupo 1114770" transform="translate(41.056 27.313)">
          <path id="Trazado_905648" data-name="Trazado 905648" d="M378.816,150.546a.783.783,0,0,0-.133-.1l-.406-.266-1.588-1.011-5.97-3.746-20.667-12.863-.239-.149v.274c0,1.4,0,2.908,0,4.437l.248-.126-8.144-5.2-28.74-18.284L304.447,108l-2.383-1.485-.624-.38a1.4,1.4,0,0,0-.219-.121,1.485,1.485,0,0,0,.2.147l.606.405,2.349,1.534,8.672,5.593,28.687,18.36,8.148,5.2.248.158v-.284c0-1.534,0-3.034,0-4.437l-.239.123,20.73,12.77,6.017,3.675,1.615.971.42.245A.789.789,0,0,0,378.816,150.546Z" transform="translate(-301.221 -106.017)" fill="#263238"/>
        </g>
        <g id="Grupo_1114771" data-name="Grupo 1114771" transform="translate(40.893 27.132)">
          <path id="Trazado_905649" data-name="Trazado 905649" d="M417.464,110.087a4.891,4.891,0,0,0,.11-1.223c.029-.759.048-1.814.051-3l-.162.154h.4c1.334,0,2.541-.017,3.416-.045a6.467,6.467,0,0,0,1.415-.11,6.467,6.467,0,0,0-1.415-.11c-.876-.028-2.081-.045-3.416-.045H417.3v.158c0,1.183.023,2.238.051,3a4.892,4.892,0,0,0,.113,1.22Z" transform="translate(-417.3 -105.712)" fill="#263238"/>
        </g>
        <g id="Grupo_1114799" data-name="Grupo 1114799" transform="translate(71.405 102.774)">
          <g id="Grupo_1114772" data-name="Grupo 1114772" transform="translate(24.685 0)">
            <path id="Trazado_905650" data-name="Trazado 905650" d="M314.347,233.287c0,.085,3.22.154,7.189.154s7.19-.07,7.19-.154-3.218-.155-7.19-.155S314.347,233.2,314.347,233.287Z" transform="translate(-314.347 -233.132)" fill="#263238"/>
          </g>
          <g id="Grupo_1114773" data-name="Grupo 1114773" transform="translate(31.905 1.635)">
            <path id="Trazado_905651" data-name="Trazado 905651" d="M325.466,239.093a7.986,7.986,0,0,0,0-3.207A8.013,8.013,0,0,0,325.466,239.093Z" transform="translate(-325.304 -235.886)" fill="#263238"/>
          </g>
          <g id="Grupo_1114774" data-name="Grupo 1114774" transform="translate(14.452 6.292)">
            <path id="Trazado_905652" data-name="Trazado 905652" d="M291.906,243.884c0,.085,8.642.154,19.3.154s19.3-.069,19.3-.154-8.64-.154-19.3-.154S291.906,243.8,291.906,243.884Z" transform="translate(-291.906 -243.73)" fill="#263238"/>
          </g>
          <g id="Grupo_1114775" data-name="Grupo 1114775" transform="translate(52.632 6.569)">
            <path id="Trazado_905653" data-name="Trazado 905653" d="M292.223,248.638a15.235,15.235,0,0,0,0-4.44A15.286,15.286,0,0,0,292.223,248.638Z" transform="translate(-292.061 -244.198)" fill="#263238"/>
          </g>
          <g id="Grupo_1114776" data-name="Grupo 1114776" transform="translate(38.901 6.693)">
            <path id="Trazado_905654" data-name="Trazado 905654" d="M314.25,248.23a11.357,11.357,0,0,0,0-3.824,11.312,11.312,0,0,0,0,3.824Z" transform="translate(-314.087 -244.406)" fill="#263238"/>
          </g>
          <g id="Grupo_1114777" data-name="Grupo 1114777" transform="translate(24.781 6.569)">
            <path id="Trazado_905655" data-name="Trazado 905655" d="M336.9,248.392a13.648,13.648,0,0,0,0-4.194,13.594,13.594,0,0,0,0,4.194Z" transform="translate(-336.736 -244.198)" fill="#263238"/>
          </g>
          <g id="Grupo_1114778" data-name="Grupo 1114778" transform="translate(14.03 6.446)">
            <path id="Trazado_905656" data-name="Trazado 905656" d="M354.144,248.308a14.4,14.4,0,0,0,0-4.318,14.461,14.461,0,0,0,0,4.318Z" transform="translate(-353.982 -243.99)" fill="#263238"/>
          </g>
          <g id="Grupo_1114779" data-name="Grupo 1114779" transform="translate(48.001 12.07)">
            <path id="Trazado_905657" data-name="Trazado 905657" d="M285.049,253.635a70.478,70.478,0,0,0,9.327,0,70.477,70.477,0,0,0-9.327,0Z" transform="translate(-285.049 -253.461)" fill="#263238"/>
          </g>
          <g id="Grupo_1114780" data-name="Grupo 1114780" transform="translate(36.086 12.07)">
            <path id="Trazado_905658" data-name="Trazado 905658" d="M307.7,253.635a41.108,41.108,0,0,0,7.12,0,41.11,41.11,0,0,0-7.12,0Z" transform="translate(-307.7 -253.461)" fill="#263238"/>
          </g>
          <g id="Grupo_1114781" data-name="Grupo 1114781" transform="translate(20.928 12.439)">
            <path id="Trazado_905659" data-name="Trazado 905659" d="M331.178,254.257a47.186,47.186,0,0,0,7.643,0,47.353,47.353,0,0,0-7.643,0Z" transform="translate(-331.178 -254.083)" fill="#263238"/>
          </g>
          <g id="Grupo_1114782" data-name="Grupo 1114782" transform="translate(8.622 11.823)">
            <path id="Trazado_905660" data-name="Trazado 905660" d="M350.087,253.219a53.779,53.779,0,0,0,8.161,0,53.98,53.98,0,0,0-8.161,0Z" transform="translate(-350.087 -253.045)" fill="#263238"/>
          </g>
          <g id="Grupo_1114787" data-name="Grupo 1114787" transform="translate(43.637 13.97)">
            <g id="Grupo_1114783" data-name="Grupo 1114783" transform="translate(8.866 0)">
              <path id="Trazado_905661" data-name="Trazado 905661" d="M292.432,259.256a5.258,5.258,0,0,0,0-2.591,5.237,5.237,0,0,0,0,2.591Z" transform="translate(-292.269 -256.665)" fill="#263238"/>
            </g>
            <g id="Grupo_1114784" data-name="Grupo 1114784" transform="translate(0.162 2.436)">
              <path id="Trazado_905662" data-name="Trazado 905662" d="M279.739,260.923c0,.085,3.771.154,8.42.154s8.421-.07,8.421-.154-3.769-.155-8.421-.155S279.739,260.838,279.739,260.923Z" transform="translate(-279.739 -260.768)" fill="#263238"/>
            </g>
            <g id="Grupo_1114785" data-name="Grupo 1114785" transform="translate(0 2.591)">
              <path id="Trazado_905663" data-name="Trazado 905663" d="M306.653,264.729a10.6,10.6,0,0,0,0-3.7A10.639,10.639,0,0,0,306.653,264.729Z" transform="translate(-306.491 -261.029)" fill="#263238"/>
            </g>
            <g id="Grupo_1114786" data-name="Grupo 1114786" transform="translate(16.84 2.591)">
              <path id="Trazado_905664" data-name="Trazado 905664" d="M279.641,264.976a12.1,12.1,0,0,0,0-3.947,12.1,12.1,0,0,0,0,3.947Z" transform="translate(-279.479 -261.029)" fill="#263238"/>
            </g>
          </g>
          <g id="Grupo_1114793" data-name="Grupo 1114793" transform="translate(3.385 13.97)">
            <g id="Grupo_1114788" data-name="Grupo 1114788" transform="translate(21.051 0)">
              <path id="Trazado_905665" data-name="Trazado 905665" d="M337.451,259.256a5.239,5.239,0,0,0,0-2.591A5.258,5.258,0,0,0,337.451,259.256Z" transform="translate(-337.289 -256.665)" fill="#263238"/>
            </g>
            <g id="Grupo_1114789" data-name="Grupo 1114789" transform="translate(0.743 2.436)">
              <path id="Trazado_905666" data-name="Trazado 905666" d="M324.759,260.923c0,.085,6.368.154,14.221.154s14.223-.07,14.223-.154-6.367-.155-14.223-.155S324.759,260.838,324.759,260.923Z" transform="translate(-324.759 -260.768)" fill="#263238"/>
            </g>
            <g id="Grupo_1114790" data-name="Grupo 1114790" transform="translate(12.185 2.591)">
              <path id="Trazado_905667" data-name="Trazado 905667" d="M351.673,264.729a10.6,10.6,0,0,0,0-3.7A10.639,10.639,0,0,0,351.673,264.729Z" transform="translate(-351.511 -261.029)" fill="#263238"/>
            </g>
            <g id="Grupo_1114791" data-name="Grupo 1114791" transform="translate(0 2.591)">
              <path id="Trazado_905668" data-name="Trazado 905668" d="M371.22,264.729a10.642,10.642,0,0,0,0-3.7,10.639,10.639,0,0,0,0,3.7Z" transform="translate(-371.058 -261.029)" fill="#263238"/>
            </g>
            <g id="Grupo_1114792" data-name="Grupo 1114792" transform="translate(29.027 2.591)">
              <path id="Trazado_905669" data-name="Trazado 905669" d="M324.666,264.976a12.1,12.1,0,0,0,0-3.947,12.05,12.05,0,0,0,0,3.947Z" transform="translate(-324.503 -261.029)" fill="#263238"/>
            </g>
          </g>
          <g id="Grupo_1114794" data-name="Grupo 1114794" transform="translate(57.32 22.609)">
            <path id="Trazado_905670" data-name="Trazado 905670" d="M274.415,271.388a35.742,35.742,0,0,0,6.638,0,35.728,35.728,0,0,0-6.638,0Z" transform="translate(-274.415 -271.214)" fill="#263238"/>
          </g>
          <g id="Grupo_1114795" data-name="Grupo 1114795" transform="translate(40.829 22.156)">
            <path id="Trazado_905671" data-name="Trazado 905671" d="M300.01,270.625a41.71,41.71,0,0,0,7.173,0,41.563,41.563,0,0,0-7.173,0Z" transform="translate(-300.01 -270.451)" fill="#263238"/>
          </g>
          <g id="Grupo_1114796" data-name="Grupo 1114796" transform="translate(28.91 22.176)">
            <path id="Trazado_905672" data-name="Trazado 905672" d="M320.5,270.641a32.4,32.4,0,0,0,6.317,0,32.269,32.269,0,0,0-6.317,0Z" transform="translate(-320.5 -270.486)" fill="#263238"/>
          </g>
          <g id="Grupo_1114797" data-name="Grupo 1114797" transform="translate(12.848 22.176)">
            <path id="Trazado_905673" data-name="Trazado 905673" d="M345.409,270.641a38.1,38.1,0,0,0,6.852,0,37.952,37.952,0,0,0-6.852,0Z" transform="translate(-345.409 -270.486)" fill="#263238"/>
          </g>
          <g id="Grupo_1114798" data-name="Grupo 1114798" transform="translate(0 21.767)">
            <path id="Trazado_905674" data-name="Trazado 905674" d="M365.846,269.954a39.148,39.148,0,0,0,6.959,0A39.287,39.287,0,0,0,365.846,269.954Z" transform="translate(-365.846 -269.799)" fill="#263238"/>
          </g>
        </g>
        <g id="Grupo_1114805" data-name="Grupo 1114805" transform="translate(24.025 101.171)">
          <path id="Trazado_905675" data-name="Trazado 905675" d="M382.465,256.363h43.979V230.431H382.465Zm43.947-.03H382.5V230.461h43.915Z" transform="translate(-382.465 -230.431)" fill="#263238"/>
          <g id="Grupo_1114800" data-name="Grupo 1114800" transform="translate(4.925 7.64)">
            <path id="Trazado_905676" data-name="Trazado 905676" d="M395.685,254.4c3.048-1.1,6.552,1.942,9.54.7,1.738-.722,2.527-2.595,3.378-4.208s2.319-3.315,4.205-3.129c1.9.19,3.441,2.287,5.278,1.781a3.389,3.389,0,0,0,2.027-2.656,5.882,5.882,0,0,1,1.375-3.127c.882-.782,2.724-.572,2.862.568v13.731H389.984A60.451,60.451,0,0,1,395.685,254.4Z" transform="translate(-389.984 -243.3)" fill="#6595bf"/>
          </g>
          <g id="Grupo_1114801" data-name="Grupo 1114801" transform="translate(4.008 22.35)">
            <path id="Trazado_905677" data-name="Trazado 905677" d="M386.9,268.134c0,.029,8.33.055,18.6.055s18.6-.024,18.6-.055-8.328-.055-18.6-.055S386.9,268.1,386.9,268.134Z" transform="translate(-386.9 -268.079)" fill="#e0e0e0"/>
          </g>
          <g id="Grupo_1114802" data-name="Grupo 1114802" transform="translate(4.008 16.352)">
            <path id="Trazado_905678" data-name="Trazado 905678" d="M386.9,258.031c0,.03,8.33.055,18.6.055s18.6-.024,18.6-.055-8.328-.055-18.6-.055S386.9,258,386.9,258.031Z" transform="translate(-386.9 -257.976)" fill="#263238"/>
          </g>
          <g id="Grupo_1114803" data-name="Grupo 1114803" transform="translate(4.008 10.354)">
            <path id="Trazado_905679" data-name="Trazado 905679" d="M386.9,247.927c0,.03,8.33.055,18.6.055s18.6-.024,18.6-.055-8.328-.055-18.6-.055S386.9,247.9,386.9,247.927Z" transform="translate(-386.9 -247.872)" fill="#263238"/>
          </g>
          <g id="Grupo_1114804" data-name="Grupo 1114804" transform="translate(4.008 4.655)">
            <path id="Trazado_905680" data-name="Trazado 905680" d="M386.9,238.327c0,.029,8.33.055,18.6.055s18.6-.024,18.6-.055-8.328-.055-18.6-.055S386.9,238.3,386.9,238.327Z" transform="translate(-386.9 -238.272)" fill="#263238"/>
          </g>
        </g>
        <g id="Grupo_1114811" data-name="Grupo 1114811" transform="translate(123.196 22.718)">
          <path id="Trazado_905681" data-name="Trazado 905681" d="M285.458,98.283a.263.263,0,0,0-.06,0h-.179a4.2,4.2,0,0,0-.685.059,3.889,3.889,0,0,0-1.036.337,3.388,3.388,0,0,0-1.1.9,3.691,3.691,0,0,0-.727,1.542,3.492,3.492,0,0,0,.256,1.933,5.622,5.622,0,0,0,.5.951,10,10,0,0,1,.569.959,8.123,8.123,0,0,1,.761,2.2l.009.051h.055l1.629-.037,1.708-.041h.06v-.059a4.491,4.491,0,0,1,.7-2.176c.185-.329.388-.639.578-.951a9.01,9.01,0,0,0,.541-.922,2.9,2.9,0,0,0,.177-1.921,3.989,3.989,0,0,0-.7-1.54,3.158,3.158,0,0,0-1.112-.876,4.176,4.176,0,0,0-1.028-.334,4.556,4.556,0,0,0-.678-.078h-.177a.273.273,0,0,0-.06.006.265.265,0,0,0,.06.005l.176.011a5.2,5.2,0,0,1,.669.1,4.2,4.2,0,0,1,1.007.347,3.1,3.1,0,0,1,1.076.871,3.931,3.931,0,0,1,.673,1.512,2.812,2.812,0,0,1-.183,1.862,8.913,8.913,0,0,1-.54.909c-.188.308-.4.621-.582.953a4.575,4.575,0,0,0-.72,2.232l.06-.06-1.708.039-1.629.038.063.051a8.182,8.182,0,0,0-.777-2.236,10.236,10.236,0,0,0-.578-.967,5.566,5.566,0,0,1-.5-.931,3.417,3.417,0,0,1-.261-1.879,3.638,3.638,0,0,1,.7-1.51,3.353,3.353,0,0,1,1.069-.905,3.944,3.944,0,0,1,1.013-.349,4.9,4.9,0,0,1,.677-.079l.177-.012A.213.213,0,0,0,285.458,98.283Z" transform="translate(-281.628 -98.278)" fill="#263238"/>
          <g id="Grupo_1114806" data-name="Grupo 1114806" transform="translate(1.662 2.93)">
            <path id="Trazado_905682" data-name="Trazado 905682" d="M286.033,109.04s0-.016.008-.049l.019-.147c.015-.131.038-.32.066-.564.055-.49.134-1.2.17-2.081.008-.219.014-.451.014-.692a7.182,7.182,0,0,0-.027-.75,2.027,2.027,0,0,0-.219-.778,1.231,1.231,0,0,0-.657-.575.876.876,0,0,0-.89.2.581.581,0,0,0-.174.438.742.742,0,0,0,.188.443,1.069,1.069,0,0,0,.41.29,2.146,2.146,0,0,0,.5.136,6.211,6.211,0,0,0,1.045.076,6.469,6.469,0,0,0,1.045-.088,2.044,2.044,0,0,0,.493-.156,1.288,1.288,0,0,0,.4-.3.9.9,0,0,0,.219-.429.678.678,0,0,0-.078-.462.657.657,0,0,0-.358-.306.623.623,0,0,0-.468.038.881.881,0,0,0-.339.3,1.14,1.14,0,0,0-.158.4,4.5,4.5,0,0,0-.049.8c-.006.518-.013,1-.018,1.441-.009.879-.017,1.592-.022,2.086,0,.245,0,.435,0,.567v.2s0-.017,0-.05l0-.147c0-.132.008-.323.013-.567.009-.493.022-1.2.038-2.086.008-.438.015-.923.024-1.44a4.493,4.493,0,0,1,.051-.8,1.083,1.083,0,0,1,.153-.383.821.821,0,0,1,.32-.281.571.571,0,0,1,.43-.036.6.6,0,0,1,.329.285.637.637,0,0,1,.073.432.856.856,0,0,1-.211.406,1.514,1.514,0,0,1-.866.438,6.322,6.322,0,0,1-1.035.087,6.159,6.159,0,0,1-1.036-.074,2.119,2.119,0,0,1-.484-.133,1.025,1.025,0,0,1-.392-.274.7.7,0,0,1-.177-.415.538.538,0,0,1,.16-.4.822.822,0,0,1,.839-.186,1.186,1.186,0,0,1,.63.553,1.988,1.988,0,0,1,.216.762c.026.256.027.507.03.747s0,.47-.01.691c-.032.879-.107,1.588-.153,2.081-.025.243-.044.433-.055.565l-.014.147C286.033,109.023,286.033,109.04,286.033,109.04Z" transform="translate(-284.342 -103.214)" fill="#263238"/>
          </g>
          <g id="Grupo_1114807" data-name="Grupo 1114807" transform="translate(2.106 8.735)">
            <path id="Trazado_905683" data-name="Trazado 905683" d="M288.359,113.012c-.008.008-.014.2-.021.524q-.008.569-.016,1.362l.012-.033-1.058,1.26.055-.026-1.285-.02.055.024-.67-.718-.336-.359.019.047c-.013-.716-.025-1.4-.036-2.013l-.067.066,2.4-.067.693-.027a1.934,1.934,0,0,0,.258-.019,1.285,1.285,0,0,0-.229-.012l-.678-.008h-2.512v.066c.007.618.014,1.3.022,2.015v.027l.019.02.335.36.672.716.022.024h.033l1.286.01h.036l.021-.026,1.036-1.276.013-.016v-.018l-.045-1.4A4.03,4.03,0,0,0,288.359,113.012Z" transform="translate(-284.938 -112.991)" fill="#263238"/>
          </g>
          <g id="Grupo_1114808" data-name="Grupo 1114808" transform="translate(2.291 10.196)">
            <path id="Trazado_905684" data-name="Trazado 905684" d="M285.114,115.907a.785.785,0,0,0,.12-.055c.076-.036.187-.086.329-.139a3.4,3.4,0,0,1,2.307-.021,3.362,3.362,0,0,1,.329.133.751.751,0,0,0,.121.051.63.63,0,0,0-.11-.068,2.759,2.759,0,0,0-.329-.147,3.226,3.226,0,0,0-2.334.021,2.807,2.807,0,0,0-.324.154.565.565,0,0,0-.11.072Z" transform="translate(-285.114 -115.452)" fill="#263238"/>
          </g>
          <g id="Grupo_1114809" data-name="Grupo 1114809" transform="translate(2.271 9.707)">
            <path id="Trazado_905685" data-name="Trazado 905685" d="M285.147,115.084a.726.726,0,0,0,.12-.055c.076-.036.186-.086.329-.139a3.4,3.4,0,0,1,2.308-.022c.141.05.254.1.329.133a.785.785,0,0,0,.121.051.532.532,0,0,0-.11-.068,2.659,2.659,0,0,0-.329-.148,3.232,3.232,0,0,0-2.333.022,2.662,2.662,0,0,0-.324.154.594.594,0,0,0-.111.072Z" transform="translate(-285.147 -114.629)" fill="#263238"/>
          </g>
          <g id="Grupo_1114810" data-name="Grupo 1114810" transform="translate(2.282 9.241)">
            <path id="Trazado_905686" data-name="Trazado 905686" d="M285.13,114.3a.726.726,0,0,0,.12-.055c.076-.036.186-.086.329-.139a3.4,3.4,0,0,1,2.308-.021c.141.049.254.1.329.132a.782.782,0,0,0,.12.051.562.562,0,0,0-.11-.068,2.747,2.747,0,0,0-.329-.148,3.231,3.231,0,0,0-2.333.022,2.758,2.758,0,0,0-.324.154.6.6,0,0,0-.111.072Z" transform="translate(-285.13 -113.844)" fill="#263238"/>
          </g>
        </g>
        <g id="Grupo_1114816" data-name="Grupo 1114816" transform="translate(97.202 44.846)">
          <g id="Grupo_1114812" data-name="Grupo 1114812" transform="translate(0.645 0.352)">
            <path id="Trazado_905687" data-name="Trazado 905687" d="M324.345,136.144s1.26,10.951-.359,16.946l-15.365-.64s3.293-10.8,1.271-15.588Z" transform="translate(-308.621 -136.144)" fill="#ebebeb"/>
          </g>
          <path id="Trazado_905688" data-name="Trazado 905688" d="M325.775,135.551s-.105,11.822-.736,15.43l-15.572-.7s1.369-11.623.842-14.729Z" transform="translate(-309.467 -135.551)" fill="#d9a171"/>
          <g id="Grupo_1114813" data-name="Grupo 1114813" transform="translate(3.189 4.95)">
            <path id="Trazado_905689" data-name="Trazado 905689" d="M313.75,143.9c0,.055,2.333.233,5.218.4s5.228.255,5.232.2-2.333-.233-5.219-.4S313.754,143.851,313.75,143.9Z" transform="translate(-313.75 -143.889)" fill="#fff"/>
          </g>
          <g id="Grupo_1114814" data-name="Grupo 1114814" transform="translate(3.184 7.454)">
            <path id="Trazado_905690" data-name="Trazado 905690" d="M313.757,148.123c0,.055,2.333.233,5.219.4s5.228.255,5.231.2-2.333-.233-5.219-.4S313.761,148.069,313.757,148.123Z" transform="translate(-313.757 -148.107)" fill="#fff"/>
          </g>
          <g id="Grupo_1114815" data-name="Grupo 1114815" transform="translate(5.832 9.893)">
            <path id="Trazado_905691" data-name="Trazado 905691" d="M316.723,152.251a3.84,3.84,0,0,0,.868.12c.537.049,1.281.1,2.1.15s1.567.078,2.107.091a3.876,3.876,0,0,0,.876-.02,3.834,3.834,0,0,0-.867-.12c-.538-.049-1.281-.1-2.1-.15s-1.566-.079-2.107-.091a3.875,3.875,0,0,0-.876.02Z" transform="translate(-316.723 -152.215)" fill="#fff"/>
          </g>
        </g>
        <g id="Grupo_1114817" data-name="Grupo 1114817" transform="translate(78.004 25.494)">
          <path id="Trazado_905692" data-name="Trazado 905692" d="M301.163,103.108c0,.085,9.108.154,20.341.154s20.342-.069,20.342-.154-9.106-.155-20.342-.155S301.163,103.023,301.163,103.108Z" transform="translate(-301.163 -102.953)" fill="#263238"/>
        </g>
        <g id="Grupo_1114818" data-name="Grupo 1114818" transform="translate(103.749 29.025)">
          <path id="Trazado_905693" data-name="Trazado 905693" d="M300.653,109.056c0,.085,3.416.154,7.628.154s7.629-.069,7.629-.154-3.415-.155-7.629-.155S300.653,108.971,300.653,109.056Z" transform="translate(-300.653 -108.901)" fill="#263238"/>
        </g>
        <g id="Grupo_1114819" data-name="Grupo 1114819" transform="translate(95.644 29.025)">
          <path id="Trazado_905694" data-name="Trazado 905694" d="M328.694,109.056a28.082,28.082,0,0,0,5.881,0,27.978,27.978,0,0,0-5.881,0Z" transform="translate(-328.694 -108.901)" fill="#263238"/>
        </g>
        <g id="Grupo_1114820" data-name="Grupo 1114820" transform="translate(10.592 13.916)">
          <path id="Trazado_905695" data-name="Trazado 905695" d="M469.259,135.957a.42.42,0,0,0,.026-.134c.011-.11.024-.238.041-.4q.046-.564.126-1.528c.1-1.357.235-3.27.4-5.623.312-4.775.739-11.325,1.21-18.56.435-7.24.829-13.793,1.116-18.568.126-2.355.229-4.272.3-5.629q.041-.966.066-1.534c0-.159.006-.29.009-.4a.417.417,0,0,0-.008-.136.443.443,0,0,0-.025.135l-.041.4q-.046.564-.126,1.528c-.1,1.357-.235,3.27-.4,5.623-.312,4.776-.739,11.325-1.212,18.563-.434,7.237-.829,13.789-1.115,18.568-.126,2.355-.229,4.272-.3,5.629q-.041.965-.065,1.534c0,.159-.007.29-.009.4a.451.451,0,0,0,.008.133Z" transform="translate(-469.25 -83.45)" fill="#263238"/>
        </g>
        <g id="Grupo_1114821" data-name="Grupo 1114821" transform="translate(13.891 0.132)">
          <path id="Trazado_905696" data-name="Trazado 905696" d="M259.829,60.585s.123.011.362.015l1.06.013,4.077.02,15,.019,49.471-.058,51.215-.157-.026,0A12.415,12.415,0,0,1,387.5,64.3a11.217,11.217,0,0,1,2.531,4.974,11.382,11.382,0,0,1,.241,3.494c-.038.4-.077.7-.113.905a2.792,2.792,0,0,0-.042.308,7.856,7.856,0,0,0,.219-1.2,11.042,11.042,0,0,0-.185-3.523A11.252,11.252,0,0,0,387.63,64.2a12.565,12.565,0,0,0-6.592-3.964l-.013,0h-.014L329.8,60.29l-49.471.148-14.995.081-4.077.037-1.06.017C259.952,60.574,259.829,60.585,259.829,60.585Z" transform="translate(-259.829 -60.232)" fill="#263238"/>
        </g>
      </g>
      <g id="Grupo_1114889" data-name="Grupo 1114889" transform="translate(259.48 83.689)">
        <g id="Grupo_1114831" data-name="Grupo 1114831" transform="translate(50.446 205.85)">
          <path id="Trazado_905697" data-name="Trazado 905697" d="M482,446.675l1.012,12.187s12.646,3.87,12.72,6.126l-24.738.309-.731-18.647Z" transform="translate(-470.26 -446.65)" fill="#d9a171"/>
          <g id="Grupo_1114823" data-name="Grupo 1114823" transform="translate(4.38 10.924)">
            <path id="Trazado_905698" data-name="Trazado 905698" d="M501.745,465.1a1.014,1.014,0,1,1-.092.029" transform="translate(-500.999 -465.049)" fill="#ebebeb"/>
          </g>
          <g id="Grupo_1114824" data-name="Grupo 1114824" transform="translate(0.731 16.757)">
            <path id="Trazado_905699" data-name="Trazado 905699" d="M470.185,476.767l.05-1.89,23.426.136s1.344.762,1.307,1.5Z" transform="translate(-470.185 -474.877)" fill="#ebebeb"/>
          </g>
          <g id="Grupo_1114825" data-name="Grupo 1114825" transform="translate(10.858 11.987)">
            <path id="Trazado_905700" data-name="Trazado 905700" d="M492.309,466.959c-.008.115-.614.149-1.22.5s-.939.828-1.048.779c-.11-.026.091-.709.834-1.124S492.339,466.854,492.309,466.959Z" transform="translate(-490.013 -466.842)" fill="#263238"/>
          </g>
          <g id="Grupo_1114826" data-name="Grupo 1114826" transform="translate(14.029 13.15)">
            <path id="Trazado_905701" data-name="Trazado 905701" d="M487.59,468.852c.024.11-.506.293-.931.767s-.561.986-.681.978c-.114.015-.176-.662.365-1.243S487.591,468.742,487.59,468.852Z" transform="translate(-485.9 -468.801)" fill="#263238"/>
          </g>
          <g id="Grupo_1114827" data-name="Grupo 1114827" transform="translate(16.969 14.242)">
            <path id="Trazado_905702" data-name="Trazado 905702" d="M482.166,472.6c-.11.021-.261-.559.069-1.18s.9-.856.952-.759c.065.1-.312.424-.576.939S482.287,472.59,482.166,472.6Z" transform="translate(-482.035 -470.64)" fill="#263238"/>
          </g>
          <g id="Grupo_1114828" data-name="Grupo 1114828" transform="translate(10.446 8.87)">
            <path id="Trazado_905703" data-name="Trazado 905703" d="M492.792,462.04c-.055.1-.6-.071-1.289-.047s-1.224.214-1.284.114.466-.5,1.272-.515S492.854,461.952,492.792,462.04Z" transform="translate(-490.214 -461.592)" fill="#263238"/>
          </g>
          <g id="Grupo_1114829" data-name="Grupo 1114829" transform="translate(9.426 4.878)">
            <path id="Trazado_905704" data-name="Trazado 905704" d="M493.748,456.857a2.437,2.437,0,0,1-1.239-.042,5.769,5.769,0,0,1-1.286-.417,5.949,5.949,0,0,1-.7-.38,1.513,1.513,0,0,1-.365-.289.483.483,0,0,1-.036-.614.678.678,0,0,1,.538-.248,1.688,1.688,0,0,1,.463.074,4.587,4.587,0,0,1,.762.274,4.374,4.374,0,0,1,1.121.748c.559.523.741.958.7.979-.055.036-.324-.332-.9-.767a5,5,0,0,0-1.087-.624,4.772,4.772,0,0,0-.7-.229c-.261-.073-.483-.082-.554.028-.026.042-.029.058.023.133a1.233,1.233,0,0,0,.27.211,6.568,6.568,0,0,0,.644.375,7.071,7.071,0,0,0,1.185.472A8.77,8.77,0,0,1,493.748,456.857Z" transform="translate(-490.028 -454.868)" fill="#263238"/>
          </g>
          <g id="Grupo_1114830" data-name="Grupo 1114830" transform="translate(12.687 3.309)">
            <path id="Trazado_905705" data-name="Trazado 905705" d="M487.833,455.944a1.819,1.819,0,0,1-.29-1.15,3.67,3.67,0,0,1,.209-1.288,3.793,3.793,0,0,1,.338-.708,1.022,1.022,0,0,1,.81-.573.577.577,0,0,1,.508.345,1.544,1.544,0,0,1,.113.438,2.5,2.5,0,0,1-.024.8,2.656,2.656,0,0,1-.568,1.205c-.5.6-1.012.72-1.02.681-.039-.059.389-.27.779-.846a2.641,2.641,0,0,0,.427-1.1,2.321,2.321,0,0,0,0-.683c-.031-.252-.123-.456-.222-.434-.123-.005-.338.177-.446.375a3.81,3.81,0,0,0-.329.631,4.056,4.056,0,0,0-.278,1.171C487.784,455.494,487.9,455.928,487.833,455.944Z" transform="translate(-487.536 -452.224)" fill="#263238"/>
          </g>
        </g>
        <g id="Grupo_1114841" data-name="Grupo 1114841" transform="translate(0 203.846)">
          <g id="Grupo_1114832" data-name="Grupo 1114832">
            <path id="Trazado_905706" data-name="Trazado 905706" d="M569.676,443.274l-2.859,14.233-5.669,10.637a1.456,1.456,0,0,0,.781,2.039h0a1.617,1.617,0,0,0,1.424-.1c2.739-1.608,12.783-7.573,12.931-8.625.171-1.219,4.063-14.823,4.063-14.823Z" transform="translate(-560.982 -443.274)" fill="#d9a171"/>
          </g>
          <g id="Grupo_1114833" data-name="Grupo 1114833" transform="translate(0.943 17.226)">
            <path id="Trazado_905707" data-name="Trazado 905707" d="M567.142,481.974l14.569-9.682-.136.6a2.223,2.223,0,0,1-.864,1.305c-1.183.864-4.506,3.18-12.1,7.686a1.626,1.626,0,0,1-1.468.09Z" transform="translate(-567.139 -472.292)" fill="#ebebeb"/>
          </g>
          <g id="Grupo_1114834" data-name="Grupo 1114834" transform="translate(12.93 12.997)">
            <path id="Trazado_905708" data-name="Trazado 905708" d="M569,465.221a.885.885,0,0,0-.511,1.1.922.922,0,0,0,1.135.493.931.931,0,0,0,.536-1.163.965.965,0,0,0-1.241-.387" transform="translate(-568.449 -465.169)" fill="#ebebeb"/>
          </g>
          <g id="Grupo_1114835" data-name="Grupo 1114835" transform="translate(3.045 19.293)">
            <path id="Trazado_905709" data-name="Trazado 905709" d="M585.462,477.895a4.548,4.548,0,0,0-1.056-1.369,4.886,4.886,0,0,0-1.643-.663c0-.037.208-.11.567-.085a2.507,2.507,0,0,1,1.283.5,2.318,2.318,0,0,1,.8,1.074C585.525,477.677,585.5,477.891,585.462,477.895Z" transform="translate(-582.763 -475.773)" fill="#263238"/>
          </g>
          <g id="Grupo_1114836" data-name="Grupo 1114836" transform="translate(1.663 21.645)">
            <path id="Trazado_905710" data-name="Trazado 905710" d="M587.776,481.185c-.085.047-.458-.511-1.18-.876a13.129,13.129,0,0,0-1.413-.476,1.8,1.8,0,0,1,1.574.2C587.578,480.45,587.862,481.163,587.776,481.185Z" transform="translate(-585.183 -479.735)" fill="#263238"/>
          </g>
          <g id="Grupo_1114837" data-name="Grupo 1114837" transform="translate(4.445 16.968)">
            <path id="Trazado_905711" data-name="Trazado 905711" d="M582.581,474.28a15.329,15.329,0,0,0-1.726-1.474,15.913,15.913,0,0,0-2.1-.942,3.582,3.582,0,0,1,2.281.677A3.313,3.313,0,0,1,582.581,474.28Z" transform="translate(-578.759 -471.86)" fill="#263238"/>
          </g>
          <g id="Grupo_1114838" data-name="Grupo 1114838" transform="translate(5.671 13.989)">
            <path id="Trazado_905712" data-name="Trazado 905712" d="M580.609,467.976c-.059.077-.807-.418-1.868-.674s-1.964-.185-1.976-.279a3.156,3.156,0,0,1,2.061-.029A3.03,3.03,0,0,1,580.609,467.976Z" transform="translate(-576.765 -466.835)" fill="#263238"/>
          </g>
          <g id="Grupo_1114839" data-name="Grupo 1114839" transform="translate(6.458 9.856)">
            <path id="Trazado_905713" data-name="Trazado 905713" d="M579.243,460.992a7.821,7.821,0,0,0-1.925-.751,7.973,7.973,0,0,0-2.081.068c-.017-.034.185-.179.57-.3a3.511,3.511,0,0,1,1.568-.083,3.426,3.426,0,0,1,1.439.6C579.135,460.765,579.273,460.965,579.243,460.992Z" transform="translate(-575.236 -459.876)" fill="#263238"/>
          </g>
          <g id="Grupo_1114840" data-name="Grupo 1114840" transform="translate(6.76 6.762)">
            <path id="Trazado_905714" data-name="Trazado 905714" d="M575.868,457.336a1.2,1.2,0,0,1,.1-.539,3.754,3.754,0,0,1,.767-1.315,1.768,1.768,0,0,1,.919-.634.64.64,0,0,1,.662.274.931.931,0,0,1,.09.687,2.2,2.2,0,0,1-2.317,1.512,2.524,2.524,0,0,1-2.174-1.748.809.809,0,0,1,.114-.7.635.635,0,0,1,.7-.175,2.159,2.159,0,0,1,.87.686,4.2,4.2,0,0,1,.767,1.309,1.244,1.244,0,0,1,.118.536,6.7,6.7,0,0,0-1.064-1.7,2.026,2.026,0,0,0-.774-.58.339.339,0,0,0-.383.093.556.556,0,0,0-.047.461,2.256,2.256,0,0,0,1.9,1.495,1.917,1.917,0,0,0,1.987-1.256.677.677,0,0,0-.042-.483.345.345,0,0,0-.363-.155,1.6,1.6,0,0,0-.79.525A5.569,5.569,0,0,0,575.868,457.336Z" transform="translate(-573.882 -454.664)" fill="#263238"/>
          </g>
        </g>
        <g id="Grupo_1114842" data-name="Grupo 1114842" transform="translate(4.445 89.761)">
          <path id="Trazado_905715" data-name="Trazado 905715" d="M546.628,255.214c.158,0,2.053,119.411,2.053,119.411l-15.153-.5-5.245-58.709-1.26-43.1-10.311,39.861-12.86,62.565-15.132-3.615L507.98,254.439l18.129-3.341Z" transform="translate(-488.721 -251.098)" fill="#344154"/>
        </g>
        <g id="Grupo_1114860" data-name="Grupo 1114860" transform="translate(26.292 0)">
          <g id="Grupo_1114843" data-name="Grupo 1114843" transform="translate(1.493)">
            <path id="Trazado_905716" data-name="Trazado 905716" d="M510,120c-1.813-3.411-2.386-9.534-.305-12.926s6.287-5.839,10.242-6.956a3.574,3.574,0,0,1,2.031-.123,1.294,1.294,0,0,1,.961,1.515,8.768,8.768,0,0,1,2.469-1.358,3.053,3.053,0,0,1,2.721.366,1.657,1.657,0,0,1,.261,2.41,3.291,3.291,0,0,1,3.354.5,2.92,2.92,0,0,1,.852,3.129,9.318,9.318,0,0,1-2.018,3.02,2.55,2.55,0,0,0-.636,2.642" transform="translate(-508.367 -99.898)" fill="#263238"/>
          </g>
          <g id="Grupo_1114857" data-name="Grupo 1114857" transform="translate(0 1.912)">
            <g id="Grupo_1114853" data-name="Grupo 1114853" transform="translate(3.548 0.877)">
              <path id="Trazado_905717" data-name="Trazado 905717" d="M526.306,149.986c-.109-1.635-.388-16.442-.383-16.509,0,0,5.771-.68,6.022-6.147.12-2.641-.1-8.1-.352-13.036a10.471,10.471,0,0,0-10.361-9.684l-.554-.016c-5.986.155-9.191,5.083-8.863,10.776l.822,31.683" transform="translate(-511.791 -104.594)" fill="#ffbe9d"/>
              <g id="Grupo_1114844" data-name="Grupo 1114844" transform="translate(6.721 26.556)">
                <path id="Trazado_905718" data-name="Trazado 905718" d="M528.811,151.655a14.4,14.4,0,0,1-7.408-2.327s1.724,3.421,7.47,3.1Z" transform="translate(-521.403 -149.328)" fill="#eb996e"/>
              </g>
              <g id="Grupo_1114852" data-name="Grupo 1114852" transform="translate(6.092 8.271)">
                <g id="Grupo_1114850" data-name="Grupo 1114850" transform="translate(0.464 3.101)">
                  <g id="Grupo_1114846" data-name="Grupo 1114846" transform="translate(8.68 0.101)">
                    <g id="Grupo_1114845" data-name="Grupo 1114845" transform="translate(1.96 1.19)">
                      <path id="Trazado_905719" data-name="Trazado 905719" d="M515.593,126.657a.8.8,0,0,1-.816.767.77.77,0,0,1-.822-.73.8.8,0,0,1,.816-.767.77.77,0,0,1,.822.73Z" transform="translate(-513.955 -125.926)" fill="#263238"/>
                    </g>
                    <path id="Trazado_905720" data-name="Trazado 905720" d="M517.746,124.791c-.1.1-.712-.358-1.594-.383s-1.543.377-1.635.274c-.045-.047.064-.227.352-.415a2.337,2.337,0,0,1,1.315-.344,2.228,2.228,0,0,1,1.265.431C517.711,124.559,517.8,124.746,517.746,124.791Z" transform="translate(-514.506 -123.921)" fill="#263238"/>
                  </g>
                  <g id="Grupo_1114847" data-name="Grupo 1114847" transform="translate(1.796 1.41)">
                    <path id="Trazado_905721" data-name="Trazado 905721" d="M529.781,126.86a.8.8,0,0,1-.817.764.767.767,0,0,1-.822-.729.8.8,0,0,1,.816-.767.771.771,0,0,1,.823.732Z" transform="translate(-528.143 -126.127)" fill="#263238"/>
                  </g>
                  <path id="Trazado_905722" data-name="Trazado 905722" d="M531.67,124.621c-.105.1-.712-.357-1.595-.383s-1.543.377-1.635.274c-.045-.047.063-.228.353-.415a2.339,2.339,0,0,1,1.315-.344,2.236,2.236,0,0,1,1.265.431C531.635,124.39,531.721,124.577,531.67,124.621Z" transform="translate(-528.43 -123.751)" fill="#263238"/>
                  <g id="Grupo_1114848" data-name="Grupo 1114848" transform="translate(6.054 0.183)">
                    <path id="Trazado_905723" data-name="Trazado 905723" d="M520.187,131.074a6.088,6.088,0,0,1,1.442-.2c.226-.015.438-.051.484-.2a1.051,1.051,0,0,0-.13-.64l-.613-1.654a27.221,27.221,0,0,1-1.357-4.319,27.368,27.368,0,0,1,1.719,4.2l.585,1.663a1.189,1.189,0,0,1,.089.845.56.56,0,0,1-.383.3,1.589,1.589,0,0,1-.383.04,6.081,6.081,0,0,1-1.451-.041Z" transform="translate(-520.001 -124.059)" fill="#263238"/>
                  </g>
                  <g id="Grupo_1114849" data-name="Grupo 1114849" transform="translate(3.465 7.702)">
                    <path id="Trazado_905724" data-name="Trazado 905724" d="M523.6,136.725c.144,0,.116.909.915,1.58s1.822.6,1.826.73c.012.058-.233.17-.664.169a2.46,2.46,0,0,1-1.525-.557,1.947,1.947,0,0,1-.7-1.323C523.419,136.94,523.535,136.718,523.6,136.725Z" transform="translate(-523.443 -136.725)" fill="#263238"/>
                  </g>
                </g>
                <path id="Trazado_905725" data-name="Trazado 905725" d="M531.945,119.211c-.095.226-.973.091-2.011.18-1.041.068-1.886.332-2.017.123-.058-.1.095-.311.438-.522a3.478,3.478,0,0,1,1.506-.453,3.518,3.518,0,0,1,1.562.222C531.8,118.919,531.986,119.1,531.945,119.211Z" transform="translate(-527.905 -118.526)" fill="#263238"/>
                <g id="Grupo_1114851" data-name="Grupo 1114851" transform="translate(9.14 0.71)">
                  <path id="Trazado_905726" data-name="Trazado 905726" d="M517.881,120.641c-.162.186-.762-.03-1.494-.061-.73-.055-1.354.088-1.49-.116-.059-.1.044-.288.32-.46a2.158,2.158,0,0,1,1.225-.277,2.129,2.129,0,0,1,1.18.419C517.875,120.353,517.953,120.551,517.881,120.641Z" transform="translate(-514.882 -119.722)" fill="#263238"/>
                </g>
              </g>
            </g>
            <g id="Grupo_1114855" data-name="Grupo 1114855" transform="translate(0 15.506)">
              <path id="Trazado_905727" data-name="Trazado 905727" d="M547.42,129.449c-.1-.043-3.91-1.228-3.906,2.514s3.948,2.968,3.955,2.86S547.42,129.449,547.42,129.449Z" transform="translate(-543.514 -129.238)" fill="#ffbe9d"/>
              <g id="Grupo_1114854" data-name="Grupo 1114854" transform="translate(1.001 1.209)">
                <path id="Trazado_905728" data-name="Trazado 905728" d="M547.2,134.234c-.017-.012-.068.045-.184.1a.716.716,0,0,1-.512.011,1.6,1.6,0,0,1-.785-1.447,2.06,2.06,0,0,1,.191-.931.772.772,0,0,1,.514-.5.354.354,0,0,1,.4.178c.055.1.027.179.049.186s.084-.063.055-.219a.414.414,0,0,0-.154-.234.538.538,0,0,0-.379-.095.951.951,0,0,0-.712.581,2.129,2.129,0,0,0-.237,1.043,1.686,1.686,0,0,0,1,1.615.763.763,0,0,0,.626-.1C547.189,134.324,547.21,134.241,547.2,134.234Z" transform="translate(-545.444 -131.274)" fill="#eb996e"/>
              </g>
            </g>
            <g id="Grupo_1114856" data-name="Grupo 1114856" transform="translate(2.886 0)">
              <path id="Trazado_905729" data-name="Trazado 905729" d="M531.307,106.625c.46,4.852-5.816,6.878-8.571,4.163-1.273-1.255-2.385-2.823-4.119-3.388a4.875,4.875,0,0,0-3.582.359l-.033.016a5.679,5.679,0,0,0-2.826,4.307c-.35,2.4.055,4.515-.6,6.718a1.469,1.469,0,0,1-.485.849,1.283,1.283,0,0,1-1.553-.375,4.491,4.491,0,0,1-.986-2.47,14.672,14.672,0,0,1,.236-6.064,10.387,10.387,0,0,1,3.194-5.2,10.755,10.755,0,0,1,7.394-2.413,13.166,13.166,0,0,1,7.339,2.746,7.227,7.227,0,0,1,2.325,2.716" transform="translate(-508.339 -103.116)" fill="#263238"/>
            </g>
          </g>
          <g id="Grupo_1114858" data-name="Grupo 1114858" transform="translate(17.487 2.731)">
            <path id="Trazado_905730" data-name="Trazado 905730" d="M514.716,104.518a1.208,1.208,0,0,1,.543.021,2.746,2.746,0,0,1,1.3.688,3.126,3.126,0,0,1,.975,1.885,3.469,3.469,0,0,1-.751,2.465,4.917,4.917,0,0,1-2.127,1.579,6.967,6.967,0,0,1-2.143.453,8.689,8.689,0,0,1-1.471-.042,1.709,1.709,0,0,1-.529-.1c0-.055.767.055,1.983-.055a7.264,7.264,0,0,0,2.052-.493,4.78,4.78,0,0,0,1.991-1.5,3.286,3.286,0,0,0,.72-2.27,3,3,0,0,0-.85-1.77,2.841,2.841,0,0,0-1.177-.722A5.254,5.254,0,0,1,514.716,104.518Z" transform="translate(-510.511 -104.497)" fill="#455a64"/>
          </g>
          <g id="Grupo_1114859" data-name="Grupo 1114859" transform="translate(14.505 1.024)">
            <path id="Trazado_905731" data-name="Trazado 905731" d="M522.2,101.636c0-.015.144-.042.375.063a1.189,1.189,0,0,1,.613.8,2.1,2.1,0,0,1-.3,1.433,6.284,6.284,0,0,1-1.077,1.432,6.855,6.855,0,0,1-2.81,1.7,3.385,3.385,0,0,1-1.358.219c-.009-.051.513-.116,1.286-.411a7.5,7.5,0,0,0,2.664-1.7,6.646,6.646,0,0,0,1.049-1.358,1.991,1.991,0,0,0,.336-1.27,1.13,1.13,0,0,0-.463-.741C522.33,101.675,522.2,101.66,522.2,101.636Z" transform="translate(-517.643 -101.621)" fill="#455a64"/>
          </g>
        </g>
        <g id="Grupo_1114869" data-name="Grupo 1114869" transform="translate(73.667 44.036)">
          <path id="Trazado_905732" data-name="Trazado 905732" d="M400.375,179.547,427.4,177.1l4.279-.978s9.775-1.665,10.692-1.938c1.06-.317,1.476.094,1.571.474.15.593-.466,1.226-1.369,1.524-.311.1-5.294,1.541-5.294,1.541a12.718,12.718,0,0,1,1.643.519,5.441,5.441,0,0,1,2.724,3.615c.5,1.706.475,2.223-.21,2.436a.956.956,0,0,1-.777-.133,1.741,1.741,0,0,1-.767-.992c-.833-2.718-2.587-2.995-2.587-2.995l-.56.128s1.77,1.277,1.678,2.739a1.6,1.6,0,0,1-.164.622,2.184,2.184,0,0,1-.477,2.112,2.454,2.454,0,0,1-2.236.7c-.383-.078-.794-.312-.834-.685a1.124,1.124,0,0,1,.148-.568,1.766,1.766,0,0,0,.11-.3l-1.621.15s-3.66.15-5.245.387l-25.475,6.279a6.552,6.552,0,0,1-7.979-4.565h0A6.253,6.253,0,0,1,400.375,179.547Z" transform="translate(-394.466 -174.075)" fill="#ffbe9d"/>
          <g id="Grupo_1114862" data-name="Grupo 1114862" transform="translate(33.516 2.48)">
            <g id="Grupo_1114861" data-name="Grupo 1114861" transform="translate(0.016 0)">
              <path id="Trazado_905733" data-name="Trazado 905733" d="M407.217,179.478c.02.538.568.931,1.116,1.064s1.128.081,1.685.174c1.666.278,2.909,1.777,4.587,1.978.234.028.532-.007.61-.219.073-.2-.1-.391-.257-.535l-4.05-3.688" transform="translate(-407.217 -178.253)" fill="#ffbe9d"/>
            </g>
            <path id="Trazado_905734" data-name="Trazado 905734" d="M410.673,178.254a2.27,2.27,0,0,1,.481.356c.295.243.715.6,1.229,1.053l1.794,1.588.515.462c.152.158.424.3.46.67a.454.454,0,0,1-.306.412,1.009,1.009,0,0,1-.455.055,3.794,3.794,0,0,1-.8-.183,21.692,21.692,0,0,1-2.636-1.4,4.352,4.352,0,0,0-1.182-.423c-.387-.071-.77-.073-1.123-.11a2.005,2.005,0,0,1-1.506-.687c-.236-.334-.173-.576-.164-.567a1.522,1.522,0,0,0,.261.493,1.958,1.958,0,0,0,1.424.548c.342.023.727.012,1.15.077a4.491,4.491,0,0,1,1.271.423,25.431,25.431,0,0,0,2.608,1.362,3.56,3.56,0,0,0,.726.168c.231.024.434-.048.418-.164,0-.132-.182-.3-.357-.458l-.508-.47-1.747-1.636c-.493-.469-.89-.852-1.159-1.123a2.164,2.164,0,0,1-.391-.446Z" transform="translate(-406.965 -178.253)" fill="#eb996e"/>
          </g>
          <g id="Grupo_1114863" data-name="Grupo 1114863" transform="translate(42.235 6.013)">
            <path id="Trazado_905735" data-name="Trazado 905735" d="M398.036,184.363a2.422,2.422,0,0,1,1.058.027,1.783,1.783,0,0,1,.9.636,4.282,4.282,0,0,1,.612,1.221,6.74,6.74,0,0,0,.56,1.3,2.289,2.289,0,0,0,.846.839.957.957,0,0,0,.822.049c.179-.083.249-.164.243-.17s-.1.044-.274.1a.9.9,0,0,1-.722-.1,2.253,2.253,0,0,1-.753-.808,7.382,7.382,0,0,1-.529-1.273,4.153,4.153,0,0,0-.657-1.267,1.875,1.875,0,0,0-1.007-.66,1.741,1.741,0,0,0-.822-.007A.6.6,0,0,0,398.036,184.363Z" transform="translate(-398.036 -184.204)" fill="#eb996e"/>
          </g>
          <g id="Grupo_1114864" data-name="Grupo 1114864" transform="translate(41.73 1.992)">
            <path id="Trazado_905736" data-name="Trazado 905736" d="M402.863,177.431a6,6,0,0,0-.993.28l-2.369.73-2.382.7a6.057,6.057,0,0,0-.982.313,4.82,4.82,0,0,0,1.019-.179c.623-.141,1.475-.365,2.406-.644s1.763-.563,2.355-.787A4.755,4.755,0,0,0,402.863,177.431Z" transform="translate(-396.137 -177.431)" fill="#eb996e"/>
          </g>
          <g id="Grupo_1114865" data-name="Grupo 1114865" transform="translate(40.01 7.571)">
            <path id="Trazado_905737" data-name="Trazado 905737" d="M405.341,186.83c-.012.011.068.092.2.242a.89.89,0,0,1,.274.716.5.5,0,0,1-.333.368,2.839,2.839,0,0,1-.657.147,1.185,1.185,0,0,0-.741.343.9.9,0,0,0-.157.837,1.084,1.084,0,0,0,.579.64,1.459,1.459,0,0,0,.806.145,4.71,4.71,0,0,0,1.266-.4,2.685,2.685,0,0,0,.739-.483c.146-.15.187-.261.179-.264s-.078.083-.233.208a3.211,3.211,0,0,1-.746.413,5.053,5.053,0,0,1-1.226.342,1.119,1.119,0,0,1-1.164-.657.727.727,0,0,1,.117-.663,1.012,1.012,0,0,1,.618-.285,2.849,2.849,0,0,0,.7-.177.641.641,0,0,0,.4-.493.939.939,0,0,0-.36-.79C405.447,186.882,405.35,186.822,405.341,186.83Z" transform="translate(-403.887 -186.829)" fill="#eb996e"/>
          </g>
          <g id="Grupo_1114866" data-name="Grupo 1114866" transform="translate(40.154 9.695)">
            <path id="Trazado_905738" data-name="Trazado 905738" d="M404,191.454c0-.009-.116,0-.274.11a.842.842,0,0,0-.329.7,1.144,1.144,0,0,0,.675.936,2.054,2.054,0,0,0,1.459.074,2.378,2.378,0,0,0,1.195-.8,2.1,2.1,0,0,0,.434-1.055,1.958,1.958,0,0,0-.055-.759c-.05-.173-.1-.26-.113-.256a3.418,3.418,0,0,1,.025,1,2.078,2.078,0,0,1-.438.965,2.269,2.269,0,0,1-1.1.721,1.908,1.908,0,0,1-1.314-.048,1.021,1.021,0,0,1-.615-.784.8.8,0,0,1,.238-.634C403.9,191.5,404,191.47,404,191.454Z" transform="translate(-403.393 -190.406)" fill="#eb996e"/>
          </g>
          <g id="Grupo_1114867" data-name="Grupo 1114867" transform="translate(34.977 5.505)">
            <path id="Trazado_905739" data-name="Trazado 905739" d="M414.856,186.314c.019,0,0-.185-.154-.45a1.917,1.917,0,0,0-.948-.8l0,.173a5.926,5.926,0,0,0,.628-.3,4.341,4.341,0,0,0,1.753-1.588,11.178,11.178,0,0,1-1.858,1.421c-.206.114-.411.214-.6.3l-.213.094.219.079a2.027,2.027,0,0,1,.916.688C414.769,186.158,414.831,186.323,414.856,186.314Z" transform="translate(-413.464 -183.348)" fill="#eb996e"/>
          </g>
          <g id="Grupo_1114868" data-name="Grupo 1114868" transform="translate(44.465 6.046)">
            <path id="Trazado_905740" data-name="Trazado 905740" d="M402.3,184.262c-.037-.038-.334.25-.383.722s.17.812.216.783-.061-.353-.01-.762S402.345,184.3,402.3,184.262Z" transform="translate(-401.905 -184.259)" fill="#eb996e"/>
          </g>
        </g>
        <g id="Grupo_1114876" data-name="Grupo 1114876" transform="translate(19.215 32.707)">
          <path id="Trazado_905741" data-name="Trazado 905741" d="M494.7,184.374,477.075,180.5s.912,30.775.909,31.067,1.455.774,1.33,3.008l-1.267,2.656-38.654.493-1.041-29.888-3.527-23.176,8.106-4.778,2.854-3.688,11.149,11.2,2.773-9.557-.08-2.844,2.756,2.848,14.866,4.083,19.641,8.72,13.279-.966,3.451,11.064Z" transform="translate(-434.826 -154.991)" fill="#d9a171"/>
          <g id="Grupo_1114870" data-name="Grupo 1114870" transform="translate(23.648 3.102)">
            <path id="Trazado_905742" data-name="Trazado 905742" d="M517.4,166.075a1.753,1.753,0,0,1,.8.847,3.28,3.28,0,0,1,.243,1.293,4.664,4.664,0,0,0,.263,1.761l.134.307.139-.306a16.146,16.146,0,0,0,.871-2.723c.47-1.923.771-3.683.971-4.96a11.754,11.754,0,0,0,.234-2.078,15.427,15.427,0,0,0-.46,2.041c-.258,1.264-.594,3.016-1.061,4.926a18,18,0,0,1-.827,2.677h.274a4.69,4.69,0,0,1-.287-1.658,3.263,3.263,0,0,0-.329-1.353,1.574,1.574,0,0,0-.637-.678C517.528,166.071,517.4,166.063,517.4,166.075Z" transform="translate(-517.4 -160.216)" fill="#263238"/>
          </g>
          <g id="Grupo_1114871" data-name="Grupo 1114871" transform="translate(9.34 4.266)">
            <path id="Trazado_905743" data-name="Trazado 905743" d="M530.937,162.177a2.446,2.446,0,0,0,.377.516c.259.319.641.774,1.12,1.332.957,1.116,2.3,2.644,3.79,4.319l2.379,2.644.185.2.068-.26c.338-1.289.613-2.38.8-3.145.075-.383.3-.6.518-.607a.485.485,0,0,1,.3.082c.016,0-.043-.157-.3-.17a.575.575,0,0,0-.41.16,1.14,1.14,0,0,0-.274.493c-.234.759-.548,1.836-.911,3.122l.253-.055-2.355-2.664c-1.494-1.675-2.861-3.181-3.863-4.261-.5-.539-.911-.973-1.2-1.269A2.525,2.525,0,0,0,530.937,162.177Z" transform="translate(-530.937 -162.177)" fill="#263238"/>
          </g>
          <g id="Grupo_1114872" data-name="Grupo 1114872" transform="translate(22.717 14.376)">
            <path id="Trazado_905744" data-name="Trazado 905744" d="M522.813,218.253a1.827,1.827,0,0,0,.031-.4c.007-.292.016-.672.027-1.142.019-.992.02-2.427,0-4.2-.043-3.548-.219-8.448-.642-13.847s-1.017-10.273-1.528-13.788c-.255-1.757-.48-3.177-.654-4.154l-.205-1.126a1.94,1.94,0,0,0-.093-.389,1.811,1.811,0,0,0,.028.4c.037.29.085.667.145,1.133.135,1.02.321,2.435.551,4.165.452,3.518,1.006,8.388,1.432,13.782s.634,10.286.736,13.83c.044,1.744.08,3.169.105,4.2.014.47.025.849.034,1.141A1.874,1.874,0,0,0,522.813,218.253Z" transform="translate(-519.748 -179.207)" fill="#263238"/>
          </g>
          <g id="Grupo_1114873" data-name="Grupo 1114873" transform="translate(28.842 55.357)">
            <path id="Trazado_905745" data-name="Trazado 905745" d="M514.427,253.516a6.6,6.6,0,0,0,.288-2.641,9.08,9.08,0,0,0-.321-2.635,13.615,13.615,0,0,0,0,2.642C514.435,252.333,514.336,253.5,514.427,253.516Z" transform="translate(-514.338 -248.24)" fill="#263238"/>
          </g>
          <g id="Grupo_1114874" data-name="Grupo 1114874" transform="translate(13.092 51.995)">
            <path id="Trazado_905746" data-name="Trazado 905746" d="M497.677,242.577a6.889,6.889,0,0,0,1,.357c.646.214,1.588.5,2.765.822,2.349.652,5.633,1.436,9.311,2.06a94.476,94.476,0,0,0,9.488,1.12c1.22.08,2.21.125,2.893.136a6.926,6.926,0,0,0,1.064-.009,6.954,6.954,0,0,0-1.057-.11l-2.882-.234c-2.431-.213-5.782-.588-9.45-1.2s-6.947-1.369-9.306-1.966l-2.791-.726a6.874,6.874,0,0,0-1.032-.244Z" transform="translate(-497.677 -242.577)" fill="#263238"/>
          </g>
          <g id="Grupo_1114875" data-name="Grupo 1114875" transform="translate(42.238 12.493)">
            <path id="Trazado_905747" data-name="Trazado 905747" d="M493.127,195.541c.09,0,.146-4.368.126-9.753s-.11-9.753-.2-9.753-.146,4.366-.127,9.754S493.037,195.541,493.127,195.541Z" transform="translate(-492.924 -176.035)" fill="#263238"/>
          </g>
        </g>
        <g id="Grupo_1114877" data-name="Grupo 1114877" transform="translate(7.129 41.95)">
          <path id="Trazado_905748" data-name="Trazado 905748" d="M565.942,170.562s-4.871,3.979-5.19,6.23c-.247,1.742-5.039,18.1-7.2,25.419a10.2,10.2,0,0,0,.408,6.905l6.224,14.665,10.07-5.673-5.035-13.754,4.169-11.669Z" transform="translate(-553.139 -170.562)" fill="#d9a171"/>
        </g>
        <g id="Grupo_1114878" data-name="Grupo 1114878" transform="translate(14.176 43.093)">
          <path id="Trazado_905749" data-name="Trazado 905749" d="M546.9,224.564a.933.933,0,0,0,.19-.086c.139-.073.316-.164.537-.283l2.036-1.11,7.37-4.089.088-.049-.033-.093-5-13.764v.1l1.836-4.693,4.163-10.681,0,.011a24.412,24.412,0,0,0,2.689-7.377,9.859,9.859,0,0,0-.1-3.314,9.484,9.484,0,0,0-1.011-2.667,11.2,11.2,0,0,0-2.6-3.126,9.268,9.268,0,0,0-.876-.66,2.23,2.23,0,0,0-.323-.2,2.238,2.238,0,0,0,.293.237c.2.148.487.375.839.692a11.528,11.528,0,0,1,2.5,3.138,9.392,9.392,0,0,1,.957,2.626,9.733,9.733,0,0,1,.069,3.242,24.5,24.5,0,0,1-2.71,7.285v.012c-1.289,3.286-2.7,6.9-4.185,10.674-.627,1.608-1.243,3.185-1.832,4.695l-.02.051.019.051c1.906,5.167,3.641,9.872,5.069,13.742l.055-.142-7.315,4.182-2,1.166-.519.312A.91.91,0,0,0,546.9,224.564Z" transform="translate(-546.9 -172.488)" fill="#263238"/>
        </g>
        <g id="Grupo_1114879" data-name="Grupo 1114879" transform="translate(32.886 41.959)" opacity="0.3">
          <path id="Trazado_905750" data-name="Trazado 905750" d="M534.9,172.716a1.49,1.49,0,0,0-1.5,1.043c-.124.639-.031,1.31-.206,1.938a1.393,1.393,0,0,1-1.445,1.11,1.772,1.772,0,0,1-.956-.716,21.969,21.969,0,0,1-3.141-5.515c.019.047,3.451,3.775,3.451,3.775a10.531,10.531,0,0,1,.775-2.746c.116-.284.248-.767.538-.894.469-.2,1.088.449,1.4.841a7.974,7.974,0,0,0,1.082,1.107" transform="translate(-527.658 -170.576)"/>
        </g>
        <g id="Grupo_1114880" data-name="Grupo 1114880" transform="translate(41.329 40.657)" opacity="0.3">
          <path id="Trazado_905751" data-name="Trazado 905751" d="M523.046,168.439a18.437,18.437,0,0,1-1.26,6.1,1.361,1.361,0,0,1-.337.532.537.537,0,0,1-.606.084,6.735,6.735,0,0,1-.618-1.263c-.319-.848-1.611-.926-1.611-.926a21.275,21.275,0,0,1,.844-2.826.826.826,0,0,1,.8-.493,1.292,1.292,0,0,1,.885.967,13.062,13.062,0,0,0,.406,2.753c.606-1.621,1.1-3.574,1.5-4.99" transform="translate(-518.614 -168.383)"/>
        </g>
        <g id="Grupo_1114881" data-name="Grupo 1114881" transform="translate(35.629 83.12)" opacity="0.3">
          <path id="Trazado_905752" data-name="Trazado 905752" d="M501.969,242.475a1.256,1.256,0,0,1-.3-1.832,2.133,2.133,0,0,1,1.947-.7,4.5,4.5,0,0,1,1.972.847c.591.406,1.137.872,1.758,1.236a10.563,10.563,0,0,0,5.181,1.125,32.467,32.467,0,0,1,5.368.228,6.2,6.2,0,0,1,4.368,2.693S506.939,245.007,501.969,242.475Z" transform="translate(-501.399 -239.912)"/>
        </g>
        <g id="Grupo_1114882" data-name="Grupo 1114882" transform="translate(15.691 90.877)">
          <path id="Trazado_905753" data-name="Trazado 905753" d="M547.305,269.226a12.347,12.347,0,0,0,4.015-3.94.148.148,0,0,1,0-.129.224.224,0,0,1,.153-.088,20.456,20.456,0,0,0,1.175-1.961c-1.251-.774-2.886-1.947-1.108-2.191,2.191-.3,3.752-1.31,3.975-1.862s-.506-1.053-1.083-.7a8.324,8.324,0,0,1-2.107.692,5.507,5.507,0,0,1-1.783.11c-.37-.039-1.675-.891-3.067-1.515a1.139,1.139,0,0,0-.635-.08l-.533-.035a1.659,1.659,0,0,1-1.354-.845l-2.022-3.705-6.109,3.442,4.835,6.391A77.884,77.884,0,0,0,547.305,269.226Z" transform="translate(-536.817 -252.978)" fill="#ffbe9d"/>
        </g>
        <g id="Grupo_1114883" data-name="Grupo 1114883" transform="translate(24.916 100.472)">
          <path id="Trazado_905754" data-name="Trazado 905754" d="M541.028,276.463a5.122,5.122,0,0,0,1.409-.633,12.629,12.629,0,0,0,2.9-2.289,12.11,12.11,0,0,0,2.068-3,4.577,4.577,0,0,0,.5-1.4,19.262,19.262,0,0,1-2.812,4.192A20.216,20.216,0,0,1,541.028,276.463Z" transform="translate(-541.027 -269.141)" fill="#455a64"/>
        </g>
        <g id="Grupo_1114884" data-name="Grupo 1114884" transform="translate(44.166 95.916)">
          <path id="Trazado_905755" data-name="Trazado 905755" d="M514.307,277.089c0,.009.062-.008.171-.051a2.059,2.059,0,0,0,.433-.262,3.478,3.478,0,0,0,1-1.509,23.662,23.662,0,0,0,.677-2.543c.224-.961.457-2.018.687-3.133.459-2.229.81-4.257,1.034-5.73.11-.736.192-1.333.239-1.747a2.473,2.473,0,0,0,.04-.647,2.522,2.522,0,0,0-.164.629l-.341,1.731c-.282,1.461-.667,3.481-1.126,5.706-.234,1.106-.456,2.161-.661,3.133s-.371,1.836-.6,2.532a3.609,3.609,0,0,1-.865,1.491C514.518,276.969,514.292,277.063,514.307,277.089Z" transform="translate(-514.306 -261.467)" fill="#455a64"/>
        </g>
        <g id="Grupo_1114885" data-name="Grupo 1114885" transform="translate(43.706 97.928)">
          <path id="Trazado_905756" data-name="Trazado 905756" d="M519.007,265.135c0-.018-.1-.036-.274.019a1.04,1.04,0,0,0-.569.481.975.975,0,0,0,.058,1.087,1.289,1.289,0,0,0,1.31.474,1.26,1.26,0,0,0,.915-1.009,1.114,1.114,0,0,0-.392-1.02c-.517-.424-.983-.3-.959-.271a1.976,1.976,0,0,1,.8.426.914.914,0,0,1,.26.819,1,1,0,0,1-.7.757,1.009,1.009,0,0,1-.986-.343.767.767,0,0,1-.094-.822C518.6,265.235,519.03,265.18,519.007,265.135Z" transform="translate(-518.026 -264.856)" fill="#455a64"/>
        </g>
        <g id="Grupo_1114886" data-name="Grupo 1114886" transform="translate(57.765 95.824)">
          <path id="Trazado_905757" data-name="Trazado 905757" d="M492.268,261.311a3.3,3.3,0,0,0-.164,1.369,7.044,7.044,0,0,0,.917,3.207,7.444,7.444,0,0,0,2.306,2.495,3.709,3.709,0,0,0,1.288.623c.026-.049-.468-.282-1.15-.8a8.285,8.285,0,0,1-2.157-2.468,7.876,7.876,0,0,1-.974-3.074C492.26,261.837,492.326,261.318,492.268,261.311Z" transform="translate(-492.09 -261.311)" fill="#455a64"/>
        </g>
        <g id="Grupo_1114887" data-name="Grupo 1114887" transform="translate(81.319 48.288)">
          <path id="Trazado_905758" data-name="Trazado 905758" d="M461.07,187.12a18.969,18.969,0,0,0-.313-2.949,18.963,18.963,0,0,0-.454-2.932,17.439,17.439,0,0,0,.767,5.882Z" transform="translate(-460.254 -181.238)" fill="#263238"/>
        </g>
        <g id="Grupo_1114888" data-name="Grupo 1114888" transform="translate(61.642 47.392)">
          <path id="Trazado_905759" data-name="Trazado 905759" d="M467.461,179.729a.808.808,0,0,0,.042.209c.044.158.1.354.164.6l.663,2.257c.6,1.972,1.439,4.732,2.444,8.039l.1-.164c-3.525.834-7.772,1.511-12.3,2.306-2.257.4-4.437.836-6.442,1.315h.073l-12.645-2.73-3.682-.767-.986-.192a1.79,1.79,0,0,0-.346-.049,1.742,1.742,0,0,0,.334.1l.977.24,3.662.85,12.621,2.831.036.008.037-.008c2-.467,4.172-.9,6.426-1.3,4.522-.794,8.778-1.489,12.309-2.351l.142-.035-.042-.132c-1.051-3.294-1.93-6.046-2.556-8.008-.31-.941-.556-1.691-.737-2.236l-.2-.586A.787.787,0,0,0,467.461,179.729Z" transform="translate(-434.545 -179.729)" fill="#263238"/>
        </g>
      </g>
    </g>
  </g>
</svg>
