<svg xmlns="http://www.w3.org/2000/svg" xmlns:xlink="http://www.w3.org/1999/xlink" width="113" height="113" viewBox="0 0 113 113">
  <defs>
    <filter id="Trazado_896985" x="0" y="0" width="113" height="113" filterUnits="userSpaceOnUse">
      <feOffset dy="3" input="SourceAlpha"/>
      <feGaussianBlur stdDeviation="3" result="blur"/>
      <feFlood flood-opacity="0.161"/>
      <feComposite operator="in" in2="blur"/>
      <feComposite in="SourceGraphic"/>
    </filter>
  </defs>
  <g id="Grupo_1114893" data-name="Grupo 1114893" transform="translate(-743.051 -2163)">
    <g id="Grupo_1113420" data-name="Grupo 1113420" transform="translate(417.16 -1683)">
      <g id="Grupo_1111318" data-name="Grupo 1111318" transform="translate(-5.891)">
        <g id="Grupo_1109826" data-name="Grupo 1109826" transform="translate(340.781 3852)">
          <g id="Grupo_1098742" data-name="Grupo 1098742">
            <g transform="matrix(1, 0, 0, 1, -9, -6)" filter="url(#Trazado_896985)">
              <g id="Trazado_896985-2" data-name="Trazado 896985" transform="translate(9 6)" fill="#e2dacc" opacity="0.859">
                <path d="M 47.49993515014648 93.5 C 41.28932189941406 93.5 35.26528167724609 92.28397369384766 29.59514808654785 89.88571929931641 C 24.1176815032959 87.56894683837891 19.1981086730957 84.25197601318359 14.97306823730469 80.02693176269531 C 10.74802875518799 75.80189514160156 7.431055068969727 70.88231658935547 5.11428165435791 65.40485382080078 C 2.716028451919556 59.73471832275391 1.500001788139343 53.71067810058594 1.500001788139343 47.50006484985352 C 1.500001788139343 41.28932189941406 2.716028451919556 35.26528167724609 5.11428165435791 29.59514617919922 C 7.431055068969727 24.11767959594727 10.74802875518799 19.19810676574707 14.97306823730469 14.97306632995605 C 19.1981086730957 10.74802684783936 24.1176815032959 7.431053161621094 29.59514808654785 5.114280223846436 C 35.26528167724609 2.716026782989502 41.28932189941406 1.5 47.49993515014648 1.5 C 53.71054840087891 1.5 59.73458862304688 2.716026782989502 65.40472412109375 5.114280223846436 C 70.88218688964844 7.431053161621094 75.80176544189453 10.74802684783936 80.02680206298828 14.97306632995605 C 84.25183868408203 19.19810676574707 87.56881713867188 24.11767959594727 89.88558959960938 29.59514617919922 C 92.28384399414062 35.26528167724609 93.49987030029297 41.28932189941406 93.49987030029297 47.49993515014648 C 93.49987030029297 53.71067810058594 92.28384399414062 59.73471832275391 89.88558959960938 65.40485382080078 C 87.56881713867188 70.88231658935547 84.25183868408203 75.80189514160156 80.02680206298828 80.02693176269531 C 75.80176544189453 84.25197601318359 70.88218688964844 87.56894683837891 65.40472412109375 89.88571929931641 C 59.73458862304688 92.28397369384766 53.71054840087891 93.5 47.49993515014648 93.5 Z" stroke="none"/>
                <path d="M 47.49993515014648 3 C 41.49116516113281 3 35.66371917724609 4.176155090332031 30.17947387695312 6.495796203613281 C 24.88081359863281 8.7369384765625 20.12149047851562 11.94596862792969 16.03372192382812 16.03372192382812 C 11.94596862792969 20.12149047851562 8.7369384765625 24.88081359863281 6.495796203613281 30.17947387695312 C 4.1761474609375 35.66372299194336 3 41.49116897583008 3 47.50006103515625 C 3 53.50883102416992 4.1761474609375 59.33627700805664 6.495796203613281 64.82052612304688 C 8.7369384765625 70.11918640136719 11.94596862792969 74.87850952148438 16.03372192382812 78.96627807617188 C 20.12149047851562 83.05403137207031 24.88081359863281 86.2630615234375 30.17947387695312 88.50419616699219 C 35.66371917724609 90.82384490966797 41.49116516113281 92 47.49993515014648 92 C 53.50870513916016 92 59.33615112304688 90.82384490966797 64.82039642333984 88.50419616699219 C 70.11905670166016 86.2630615234375 74.87837982177734 83.05403137207031 78.96614837646484 78.96627807617188 C 83.05390167236328 74.87850952148438 86.26293182373047 70.11918640136719 88.50407409667969 64.82052612304688 C 90.82372283935547 59.33627700805664 91.99987030029297 53.50883102416992 91.99987030029297 47.49993896484375 C 91.99987030029297 41.49116897583008 90.82372283935547 35.66372299194336 88.50407409667969 30.17947387695312 C 86.26293182373047 24.88081359863281 83.05390167236328 20.12149047851562 78.96614837646484 16.03372192382812 C 74.87837982177734 11.94596862792969 70.11905670166016 8.7369384765625 64.82039642333984 6.495796203613281 C 59.33615112304688 4.176155090332031 53.50870513916016 3 47.49993515014648 3 M 47.49993515014648 0 C 73.73342895507812 0 94.99987030029297 21.26644897460938 94.99987030029297 47.49993896484375 L 94.99987030029297 47.50006103515625 C 94.99987030029297 73.73355102539062 73.73342895507812 95 47.49993515014648 95 C 21.26644134521484 95 0 73.73355102539062 0 47.50006103515625 L 0 47.49993896484375 C 0 21.26644897460938 21.26644134521484 0 47.49993515014648 0 Z" stroke="none" fill="#fff"/>
              </g>
            </g>
            <g id="Rectángulo_400907" data-name="Rectángulo 400907" transform="translate(0 0)" fill="none" stroke="#fff" stroke-width="3">
              <rect width="95" height="95" rx="47.5" stroke="none"/>
              <rect x="1.5" y="1.5" width="92" height="92" rx="46" fill="none"/>
            </g>
          </g>
        </g>
      </g>
    </g>
    <g id="fecha" transform="translate(763.462 2190)">
      <g id="Grupo_1113435" data-name="Grupo 1113435" transform="translate(11.377 1.5)">
        <g id="Grupo_1113426" data-name="Grupo 1113426" transform="translate(0 4.371)">
          <g id="Grupo_1113425" data-name="Grupo 1113425">
            <path id="Trazado_903652" data-name="Trazado 903652" d="M63.324,93.986a2.578,2.578,0,0,1-2.57,2.57H20.659a2.578,2.578,0,0,1-2.57-2.57V58.415a2.578,2.578,0,0,1,2.57-2.57H60.754a2.578,2.578,0,0,1,2.57,2.57Z" transform="translate(-18.089 -55.845)" fill="#f0eef0"/>
          </g>
        </g>
        <path id="Trazado_903653" data-name="Trazado 903653" d="M388.165,55.845h-4.2a2.578,2.578,0,0,1,2.57,2.57V93.986a2.578,2.578,0,0,1-2.57,2.57h4.2a2.578,2.578,0,0,0,2.57-2.57V58.415A2.578,2.578,0,0,0,388.165,55.845Z" transform="translate(-345.5 -51.474)" fill="#dfdde0"/>
        <g id="Grupo_1113428" data-name="Grupo 1113428" transform="translate(0 4.371)">
          <g id="Grupo_1113427" data-name="Grupo 1113427">
            <path id="Trazado_903654" data-name="Trazado 903654" d="M63.324,58.415a2.578,2.578,0,0,0-2.57-2.57H20.659a2.578,2.578,0,0,0-2.57,2.57v6.87H63.324Z" transform="translate(-18.089 -55.845)" fill="#ff8086"/>
          </g>
        </g>
        <path id="Trazado_903655" data-name="Trazado 903655" d="M388.165,55.845h-4.2a2.578,2.578,0,0,1,2.57,2.57v6.87h4.2v-6.87A2.578,2.578,0,0,0,388.165,55.845Z" transform="translate(-345.5 -51.474)" fill="#e5646e"/>
        <g id="Grupo_1113429" data-name="Grupo 1113429" transform="translate(8.878)">
          <path id="Trazado_903656" data-name="Trazado 903656" d="M103.307,14.264a.764.764,0,0,0-.763.763v6.837a.763.763,0,0,0,1.526,0V15.027A.764.764,0,0,0,103.307,14.264Z" transform="translate(-102.544 -14.264)" fill="#5d5360"/>
          <path id="Trazado_903657" data-name="Trazado 903657" d="M226.736,14.264a.764.764,0,0,0-.763.763v6.837a.763.763,0,0,0,1.526,0V15.027A.764.764,0,0,0,226.736,14.264Z" transform="translate(-212.998 -14.264)" fill="#5d5360"/>
          <path id="Trazado_903658" data-name="Trazado 903658" d="M350.166,14.264a.764.764,0,0,0-.763.763v6.837a.763.763,0,0,0,1.526,0V15.027A.764.764,0,0,0,350.166,14.264Z" transform="translate(-323.454 -14.264)" fill="#5d5360"/>
          <path id="Trazado_903659" data-name="Trazado 903659" d="M104.07,21.864a.763.763,0,0,1-1.526,0V15.028a.763.763,0,0,1,1.526,0Z" transform="translate(-102.544 -14.265)" fill="#5d5360"/>
        </g>
        <circle id="Elipse_13250" data-name="Elipse 13250" cx="2.467" cy="2.467" r="2.467" transform="translate(24.776 26.918)" fill="#9b959d"/>
        <g id="Grupo_1113434" data-name="Grupo 1113434" transform="translate(24.314 25.882)">
          <g id="Grupo_1113430" data-name="Grupo 1113430" transform="translate(0 0)">
            <ellipse id="Elipse_13251" data-name="Elipse 13251" cx="12.758" cy="12.755" rx="12.758" ry="12.755" transform="translate(0 0.087) rotate(-0.195)" fill="#ffe07d"/>
          </g>
          <path id="Trazado_903660" data-name="Trazado 903660" d="M353.206,260.914a12.841,12.841,0,0,0-2.059.173,12.756,12.756,0,0,1,0,25.164,12.756,12.756,0,1,0,2.06-25.337Z" transform="translate(-340.45 -260.869)" fill="#ffd064"/>
          <g id="Grupo_1113433" data-name="Grupo 1113433" transform="translate(11.038 2.98)">
            <g id="Grupo_1113431" data-name="Grupo 1113431" transform="translate(0.034 16.197)">
              <ellipse id="Elipse_13252" data-name="Elipse 13252" cx="1.72" cy="1.719" rx="1.72" ry="1.719" transform="translate(0 0.011) rotate(-0.189)" fill="#ff8086"/>
            </g>
            <g id="Grupo_1113432" data-name="Grupo 1113432">
              <path id="Trazado_903661" data-name="Trazado 903661" d="M357.916,301.122a1.761,1.761,0,0,1-1.761,1.761h0a1.761,1.761,0,0,1-1.761-1.761V290.6a1.761,1.761,0,0,1,1.761-1.761h0a1.761,1.761,0,0,1,1.761,1.761Z" transform="translate(-354.394 -288.839)" fill="#ff8086"/>
            </g>
          </g>
        </g>
        <circle id="Elipse_13253" data-name="Elipse 13253" cx="2.467" cy="2.467" r="2.467" transform="translate(5.037 17.768)" fill="#9b959d"/>
        <circle id="Elipse_13254" data-name="Elipse 13254" cx="2.467" cy="2.467" r="2.467" transform="translate(14.907 17.768)" fill="#9b959d"/>
        <circle id="Elipse_13255" data-name="Elipse 13255" cx="2.467" cy="2.467" r="2.467" transform="translate(24.776 17.768)" fill="#9b959d"/>
        <circle id="Elipse_13256" data-name="Elipse 13256" cx="2.467" cy="2.467" r="2.467" transform="translate(34.646 17.768)" fill="#9b959d"/>
        <circle id="Elipse_13257" data-name="Elipse 13257" cx="2.467" cy="2.467" r="2.467" transform="translate(5.037 26.918)" fill="#9b959d"/>
        <circle id="Elipse_13258" data-name="Elipse 13258" cx="2.467" cy="2.467" r="2.467" transform="translate(14.907 26.918)" fill="#9b959d"/>
        <circle id="Elipse_13259" data-name="Elipse 13259" cx="2.467" cy="2.467" r="2.467" transform="translate(5.037 36.068)" fill="#9b959d"/>
      </g>
      <g id="Grupo_1113436" data-name="Grupo 1113436" transform="translate(10.589 0)">
        <path id="Trazado_903662" data-name="Trazado 903662" d="M61.767,182.305a3.256,3.256,0,1,0-3.256-3.256A3.259,3.259,0,0,0,61.767,182.305Zm0-4.935a1.679,1.679,0,1,1-1.679,1.679A1.681,1.681,0,0,1,61.767,177.371Z" transform="translate(-53.474 -157.315)"/>
        <path id="Trazado_903663" data-name="Trazado 903663" d="M155.656,182.305a3.256,3.256,0,1,0-3.256-3.256A3.259,3.259,0,0,0,155.656,182.305Zm0-4.935a1.679,1.679,0,1,1-1.679,1.679A1.681,1.681,0,0,1,155.656,177.371Z" transform="translate(-137.493 -157.315)"/>
        <path id="Trazado_903664" data-name="Trazado 903664" d="M249.544,182.305a3.256,3.256,0,1,0-3.256-3.256A3.259,3.259,0,0,0,249.544,182.305Zm0-4.935a1.679,1.679,0,1,1-1.679,1.679A1.681,1.681,0,0,1,249.544,177.371Z" transform="translate(-221.512 -157.315)"/>
        <path id="Trazado_903665" data-name="Trazado 903665" d="M346.689,179.05a3.256,3.256,0,1,0-3.256,3.256A3.259,3.259,0,0,0,346.689,179.05Zm-4.935,0a1.679,1.679,0,1,1,1.679,1.679A1.681,1.681,0,0,1,341.754,179.05Z" transform="translate(-305.531 -157.315)"/>
        <path id="Trazado_903666" data-name="Trazado 903666" d="M61.767,269.349a3.256,3.256,0,1,0-3.256-3.256A3.259,3.259,0,0,0,61.767,269.349Zm0-4.935a1.679,1.679,0,1,1-1.679,1.679A1.681,1.681,0,0,1,61.767,264.414Z" transform="translate(-53.474 -235.208)"/>
        <path id="Trazado_903667" data-name="Trazado 903667" d="M155.656,269.349a3.256,3.256,0,1,0-3.256-3.256A3.259,3.259,0,0,0,155.656,269.349Zm0-4.935a1.679,1.679,0,1,1-1.679,1.679A1.681,1.681,0,0,1,155.656,264.414Z" transform="translate(-137.493 -235.208)"/>
        <path id="Trazado_903668" data-name="Trazado 903668" d="M61.767,356.391a3.256,3.256,0,1,0-3.256-3.256A3.259,3.259,0,0,0,61.767,356.391Zm0-4.935a1.679,1.679,0,1,1-1.679,1.679A1.681,1.681,0,0,1,61.767,351.456Z" transform="translate(-53.474 -313.1)"/>
        <path id="Trazado_903669" data-name="Trazado 903669" d="M150.659,354.6a.8.8,0,0,0,1.115,0l2.116-2.116,2.116,2.116a.789.789,0,0,0,1.115-1.115L155,351.37l2.116-2.116a.789.789,0,0,0-1.115-1.115l-2.116,2.116-2.116-2.116a.789.789,0,0,0-1.115,1.115l2.116,2.116-2.116,2.116A.788.788,0,0,0,150.659,354.6Z" transform="translate(-135.727 -311.335)"/>
        <path id="Trazado_903670" data-name="Trazado 903670" d="M61.23,35.516a.789.789,0,0,0-1.482.537,11.932,11.932,0,0,1,.712,4.037A12.108,12.108,0,0,1,48.49,52.1a11.967,11.967,0,1,1,9.462-19.3.789.789,0,0,0,1.246-.967,13.758,13.758,0,0,0-1.8-1.909V8.388A3.362,3.362,0,0,0,54.042,5.03H49.307V2.262c0-3.012-4.679-3.021-4.679,0V5.03h-8.3V2.262c0-3.012-4.679-3.021-4.679,0V5.03h-8.3V2.262c0-3.012-4.679-3.021-4.679,0V5.03H13.948a3.362,3.362,0,0,0-3.359,3.359V36.521a.789.789,0,0,0,1.577,0V16.047H55.824V28.733A13.672,13.672,0,0,0,44.162,27.29,13.421,13.421,0,0,0,41.1,28.775a3.256,3.256,0,0,0-5.735,2.11,3.271,3.271,0,0,0,1.31,2.609,13.636,13.636,0,0,0-.513,12.248H13.948a1.784,1.784,0,0,1-1.782-1.782V40.411a.789.789,0,0,0-1.577,0v3.549a3.362,3.362,0,0,0,3.359,3.359H37.014a13.546,13.546,0,0,0,24.215-11.8ZM46.2,2.262a.763.763,0,0,1,1.526,0V9.1a.763.763,0,0,1-1.526,0Zm-12.975,0a.763.763,0,0,1,1.526,0V9.1a.763.763,0,0,1-1.526,0Zm-12.975,0a.763.763,0,0,1,1.526,0V9.1a.763.763,0,0,1-1.526,0ZM12.166,14.47V8.388a1.784,1.784,0,0,1,1.782-1.782h4.731V9.1c0,3.012,4.679,3.021,4.679,0V6.607h8.3V9.1c0,3.017,4.679,3.017,4.679,0V6.607h8.3V9.1c0,3.012,4.679,3.021,4.679,0V6.607h4.735a1.784,1.784,0,0,1,1.782,1.782V14.47H12.166ZM36.942,30.885a1.679,1.679,0,0,1,2.886-1.168,13.773,13.773,0,0,0-2.294,2.446A1.687,1.687,0,0,1,36.942,30.885Z" transform="translate(-10.589 0)"/>
        <path id="Trazado_903671" data-name="Trazado 903671" d="M349.787,434.965a2.508,2.508,0,0,0,.008,5.016h.009a2.508,2.508,0,1,0-.017-5.016Zm.94,2.5a.931.931,0,0,1-.928.934h0a.931.931,0,0,1,0-1.862h0a.931.931,0,0,1,.931.928Z" transform="translate(-311.894 -389.242)"/>
        <path id="Trazado_903672" data-name="Trazado 903672" d="M351.993,283.392a2.55,2.55,0,1,0-5.1,0v10.522a2.55,2.55,0,1,0,5.1,0Zm-1.577,10.522a.973.973,0,1,1-1.945,0V283.392a.973.973,0,1,1,1.945,0Z" transform="translate(-311.542 -251.32)"/>
      </g>
    </g>
  </g>
</svg>
