<svg xmlns="http://www.w3.org/2000/svg" xmlns:xlink="http://www.w3.org/1999/xlink" width="113" height="113" viewBox="0 0 113 113">
  <defs>
    <filter id="Trazado_896985" x="0" y="0" width="113" height="113" filterUnits="userSpaceOnUse">
      <feOffset dy="3" input="SourceAlpha"/>
      <feGaussianBlur stdDeviation="3" result="blur"/>
      <feFlood flood-opacity="0.161"/>
      <feComposite operator="in" in2="blur"/>
      <feComposite in="SourceGraphic"/>
    </filter>
  </defs>
  <g id="Grupo_1113198" data-name="Grupo 1113198" transform="translate(-955.051 -1190)">
    <g id="Grupo_1113185" data-name="Grupo 1113185" transform="translate(629.16 -2656)">
      <g id="Grupo_1111318" data-name="Grupo 1111318" transform="translate(-5.891)">
        <g id="Grupo_1109826" data-name="Grupo 1109826" transform="translate(340.781 3852)">
          <g id="Grupo_1098742" data-name="Grupo 1098742">
            <g transform="matrix(1, 0, 0, 1, -9, -6)" filter="url(#Trazado_896985)">
              <g id="Trazado_896985-2" data-name="Trazado 896985" transform="translate(9 6)" fill="#fd9826" opacity="0.859">
                <path d="M 47.49993515014648 93.5 C 41.28932189941406 93.5 35.26528167724609 92.28397369384766 29.59514808654785 89.88571929931641 C 24.1176815032959 87.56894683837891 19.1981086730957 84.25197601318359 14.97306823730469 80.02693176269531 C 10.74802875518799 75.80189514160156 7.431055068969727 70.88231658935547 5.11428165435791 65.40485382080078 C 2.716028451919556 59.73471832275391 1.500001788139343 53.71067810058594 1.500001788139343 47.50006484985352 C 1.500001788139343 41.28932189941406 2.716028451919556 35.26528167724609 5.11428165435791 29.59514617919922 C 7.431055068969727 24.11767959594727 10.74802875518799 19.19810676574707 14.97306823730469 14.97306632995605 C 19.1981086730957 10.74802684783936 24.1176815032959 7.431053161621094 29.59514808654785 5.114280223846436 C 35.26528167724609 2.716026782989502 41.28932189941406 1.5 47.49993515014648 1.5 C 53.71054840087891 1.5 59.73458862304688 2.716026782989502 65.40472412109375 5.114280223846436 C 70.88218688964844 7.431053161621094 75.80176544189453 10.74802684783936 80.02680206298828 14.97306632995605 C 84.25183868408203 19.19810676574707 87.56881713867188 24.11767959594727 89.88558959960938 29.59514617919922 C 92.28384399414062 35.26528167724609 93.49987030029297 41.28932189941406 93.49987030029297 47.49993515014648 C 93.49987030029297 53.71067810058594 92.28384399414062 59.73471832275391 89.88558959960938 65.40485382080078 C 87.56881713867188 70.88231658935547 84.25183868408203 75.80189514160156 80.02680206298828 80.02693176269531 C 75.80176544189453 84.25197601318359 70.88218688964844 87.56894683837891 65.40472412109375 89.88571929931641 C 59.73458862304688 92.28397369384766 53.71054840087891 93.5 47.49993515014648 93.5 Z" stroke="none"/>
                <path d="M 47.49993515014648 3 C 41.49116516113281 3 35.66371917724609 4.176155090332031 30.17947387695312 6.495796203613281 C 24.88081359863281 8.7369384765625 20.12149047851562 11.94596862792969 16.03372192382812 16.03372192382812 C 11.94596862792969 20.12149047851562 8.7369384765625 24.88081359863281 6.495796203613281 30.17947387695312 C 4.1761474609375 35.66372299194336 3 41.49116897583008 3 47.50006103515625 C 3 53.50883102416992 4.1761474609375 59.33627700805664 6.495796203613281 64.82052612304688 C 8.7369384765625 70.11918640136719 11.94596862792969 74.87850952148438 16.03372192382812 78.96627807617188 C 20.12149047851562 83.05403137207031 24.88081359863281 86.2630615234375 30.17947387695312 88.50419616699219 C 35.66371917724609 90.82384490966797 41.49116516113281 92 47.49993515014648 92 C 53.50870513916016 92 59.33615112304688 90.82384490966797 64.82039642333984 88.50419616699219 C 70.11905670166016 86.2630615234375 74.87837982177734 83.05403137207031 78.96614837646484 78.96627807617188 C 83.05390167236328 74.87850952148438 86.26293182373047 70.11918640136719 88.50407409667969 64.82052612304688 C 90.82372283935547 59.33627700805664 91.99987030029297 53.50883102416992 91.99987030029297 47.49993896484375 C 91.99987030029297 41.49116897583008 90.82372283935547 35.66372299194336 88.50407409667969 30.17947387695312 C 86.26293182373047 24.88081359863281 83.05390167236328 20.12149047851562 78.96614837646484 16.03372192382812 C 74.87837982177734 11.94596862792969 70.11905670166016 8.7369384765625 64.82039642333984 6.495796203613281 C 59.33615112304688 4.176155090332031 53.50870513916016 3 47.49993515014648 3 M 47.49993515014648 0 C 73.73342895507812 0 94.99987030029297 21.26644897460938 94.99987030029297 47.49993896484375 L 94.99987030029297 47.50006103515625 C 94.99987030029297 73.73355102539062 73.73342895507812 95 47.49993515014648 95 C 21.26644134521484 95 0 73.73355102539062 0 47.50006103515625 L 0 47.49993896484375 C 0 21.26644897460938 21.26644134521484 0 47.49993515014648 0 Z" stroke="none" fill="#fff"/>
              </g>
            </g>
            <g id="Rectángulo_400907" data-name="Rectángulo 400907" transform="translate(0 0)" fill="none" stroke="#fff" stroke-width="3">
              <rect width="95" height="95" rx="47.5" stroke="none"/>
              <rect x="1.5" y="1.5" width="92" height="92" rx="46" fill="none"/>
            </g>
          </g>
        </g>
      </g>
    </g>
    <g id="gasto" transform="translate(980.051 1197.488)">
      <g id="Grupo_1113188" data-name="Grupo 1113188" transform="translate(9.288 60.055)">
        <g id="Grupo_1113186" data-name="Grupo 1113186" transform="translate(37.445)">
          <path id="Trazado_903402" data-name="Trazado 903402" d="M392.3,379.194h-1.337v-6.88h-6.527v6.88H383.1a1.224,1.224,0,0,0-.886,2.068l4.6,4.829a1.225,1.225,0,0,0,1.772,0l4.6-4.829A1.224,1.224,0,0,0,392.3,379.194Z" transform="translate(-381.874 -372.314)" fill="#fb3a82"/>
          <path id="Trazado_903403" data-name="Trazado 903403" d="M402.824,372.315h6.527v3.825h-6.527Z" transform="translate(-400.26 -372.315)" fill="#fb1466"/>
        </g>
        <g id="Grupo_1113187" data-name="Grupo 1113187">
          <path id="Trazado_903404" data-name="Trazado 903404" d="M86.327,379.194H84.99v-6.88H78.463v6.88H77.125a1.224,1.224,0,0,0-.886,2.068l4.6,4.829a1.225,1.225,0,0,0,1.772,0l4.6-4.829A1.224,1.224,0,0,0,86.327,379.194Z" transform="translate(-75.899 -372.314)" fill="#fb3a82"/>
          <path id="Trazado_903405" data-name="Trazado 903405" d="M96.85,372.315h6.527v3.825H96.85Z" transform="translate(-94.286 -372.315)" fill="#fb1466"/>
        </g>
      </g>
      <g id="Grupo_1113195" data-name="Grupo 1113195" transform="translate(0.918 17.43)">
        <g id="Grupo_1113193" data-name="Grupo 1113193" transform="translate(5.019 11.047)">
          <g id="Grupo_1113190" data-name="Grupo 1113190">
            <path id="Trazado_903406" data-name="Trazado 903406" d="M104.317,115.507v30.507a1.224,1.224,0,0,1-1.224,1.225H49.738a1.224,1.224,0,0,1-1.224-1.225V115.507a1.224,1.224,0,0,1,1.224-1.224h53.355A1.224,1.224,0,0,1,104.317,115.507Z" transform="translate(-48.514 -114.283)" fill="#a9eddc"/>
            <path id="Trazado_903407" data-name="Trazado 903407" d="M69.9,118.388a5.518,5.518,0,0,1-2.138,5.163,5.536,5.536,0,0,1-3.955,3.957,5.558,5.558,0,0,1-2.287,1.766,5.5,5.5,0,0,1-2.116.421,5.436,5.436,0,0,1-.759-.053,5.519,5.519,0,0,1-5.585,0,5.515,5.515,0,0,1-2.873-.368,5.572,5.572,0,0,1-1.674-1.083V115.507a1.224,1.224,0,0,1,1.224-1.224H70.5a5.469,5.469,0,0,1,.16,1.312A5.54,5.54,0,0,1,69.9,118.388Z" transform="translate(-48.514 -114.283)" fill="#64e0c4"/>
            <path id="Trazado_903408" data-name="Trazado 903408" d="M469.375,115.509v30.505a1.224,1.224,0,0,1-1.224,1.225h-3.673a1.224,1.224,0,0,0,1.224-1.225V115.509a1.224,1.224,0,0,0-1.224-1.225h3.673A1.224,1.224,0,0,1,469.375,115.509Z" transform="translate(-413.572 -114.284)" fill="#64e0c4"/>
            <g id="Grupo_1113189" data-name="Grupo 1113189" transform="translate(3.672 3.673)">
              <path id="Trazado_903409" data-name="Trazado 903409" d="M126.979,144.912v19.4a.615.615,0,0,1-.551.608,5.018,5.018,0,0,0-4.437,4.436.611.611,0,0,1-.607.549H79.134a.612.612,0,0,1-.613-.612v-19.4a.614.614,0,0,1,.551-.608,5.019,5.019,0,0,0,4.437-4.436.612.612,0,0,1,.607-.551h42.25A.612.612,0,0,1,126.979,144.912Z" transform="translate(-78.521 -144.3)" fill="#27d1b3"/>
              <path id="Trazado_903410" data-name="Trazado 903410" d="M96.236,144.731a5.518,5.518,0,0,1-2.138,5.163,5.536,5.536,0,0,1-3.955,3.957,5.558,5.558,0,0,1-2.287,1.766,5.5,5.5,0,0,1-2.116.421,5.437,5.437,0,0,1-.759-.053,5.519,5.519,0,0,1-5.585,0,5.439,5.439,0,0,1-.759.053h-.116v-6.143a.614.614,0,0,1,.551-.608,5.019,5.019,0,0,0,4.437-4.436.612.612,0,0,1,.607-.551H96.464C96.394,144.447,96.318,144.59,96.236,144.731Z" transform="translate(-78.522 -144.299)" fill="#20b69f"/>
            </g>
          </g>
          <g id="Grupo_1113192" data-name="Grupo 1113192" transform="translate(7.34 7.502)">
            <circle id="Elipse_13245" data-name="Elipse 13245" cx="7.699" cy="7.699" r="7.699" transform="translate(12.863 1.276)" fill="#c8f2e7"/>
            <g id="Grupo_1113191" data-name="Grupo 1113191">
              <path id="Trazado_903411" data-name="Trazado 903411" d="M413.949,179.68h-1.643a1.225,1.225,0,0,1-1.225-1.225v-1.643a1.225,1.225,0,0,1,1.225-1.225h1.643a1.225,1.225,0,0,1,1.225,1.225v1.643A1.225,1.225,0,0,1,413.949,179.68Z" transform="translate(-374.051 -175.588)" fill="#c8f2e7"/>
              <path id="Trazado_903412" data-name="Trazado 903412" d="M109.716,288.824h1.643a1.225,1.225,0,0,1,1.225,1.225v1.643a1.225,1.225,0,0,1-1.225,1.225h-1.643a1.225,1.225,0,0,1-1.225-1.225v-1.643A1.224,1.224,0,0,1,109.716,288.824Z" transform="translate(-108.491 -274.966)" fill="#c8f2e7"/>
            </g>
          </g>
        </g>
        <g id="Grupo_1113194" data-name="Grupo 1113194" transform="translate(0 0)">
          <path id="Trazado_903413" data-name="Trazado 903413" d="M32.218,36.371a3.077,3.077,0,0,0-.987-2.262A3.085,3.085,0,0,0,29.5,29.93a3.085,3.085,0,0,0-3.2-3.2A3.085,3.085,0,0,0,22.121,25,3.085,3.085,0,0,0,17.6,25a3.085,3.085,0,0,0-4.18,1.731,3.085,3.085,0,0,0-3.2,3.2,3.085,3.085,0,0,0-1.731,4.18,3.085,3.085,0,0,0,0,4.524,3.085,3.085,0,0,0,1.731,4.18,3.085,3.085,0,0,0,3.2,3.2,3.085,3.085,0,0,0,4.18,1.731,3.085,3.085,0,0,0,4.524,0,3.085,3.085,0,0,0,4.18-1.731,3.085,3.085,0,0,0,3.2-3.2,3.085,3.085,0,0,0,1.731-4.18A3.077,3.077,0,0,0,32.218,36.371Z" transform="translate(-7.5 -24.012)" fill="#fcb44d"/>
          <path id="Trazado_903414" data-name="Trazado 903414" d="M108.522,38.637a3.084,3.084,0,0,1-1.732,4.179,3.085,3.085,0,0,1-3.2,3.2,3.084,3.084,0,0,1-4.18,1.731,3.085,3.085,0,0,1-3.843.551,3.107,3.107,0,0,0,.679-.551,3.084,3.084,0,0,0,4.18-1.731,3.085,3.085,0,0,0,3.2-3.2,3.084,3.084,0,0,0,1.732-4.179,3.085,3.085,0,0,0,0-4.524,3.084,3.084,0,0,0-1.732-4.179,3.085,3.085,0,0,0-3.2-3.2A3.084,3.084,0,0,0,96.248,25a3.1,3.1,0,0,0-.679-.551A3.085,3.085,0,0,1,99.412,25a3.084,3.084,0,0,1,4.18,1.731,3.085,3.085,0,0,1,3.2,3.2,3.084,3.084,0,0,1,1.732,4.179,3.085,3.085,0,0,1,0,4.524Z" transform="translate(-84.791 -24.016)" fill="#fb9927"/>
          <circle id="Elipse_13246" data-name="Elipse 13246" cx="7.939" cy="7.939" r="7.939" transform="translate(4.42 4.42)" fill="#ffeed3"/>
        </g>
      </g>
      <g id="Grupo_1113197" data-name="Grupo 1113197" transform="translate(0 16.512)">
        <path id="Trazado_903415" data-name="Trazado 903415" d="M237.976,362.723v-9.178h-6.526v9.178h-1.338a1.224,1.224,0,0,0-.886,2.068l4.6,4.828a1.224,1.224,0,0,0,1.772,0l4.6-4.828a1.224,1.224,0,0,0-.886-2.068Z" transform="translate(-200.874 -312.299)" fill="#fb3a82"/>
        <g id="Grupo_1113196" data-name="Grupo 1113196" transform="translate(0)">
          <path id="Trazado_903416" data-name="Trazado 903416" d="M60.516,27.559H25.874c-.055-.082-.113-.163-.175-.242a4,4,0,0,0-1.891-4.566,4,4,0,0,0-3.495-3.495,4,4,0,0,0-4.566-1.891,4,4,0,0,0-4.942,0A4,4,0,0,0,6.24,19.258a4,4,0,0,0-3.495,3.494A4,4,0,0,0,.855,27.318a4,4,0,0,0,0,4.942,4,4,0,0,0,1.891,4.566,3.984,3.984,0,0,0,2.274,3.142s0,.009,0,.014V60.207A2.145,2.145,0,0,0,7.161,62.35h3.774v3.668h-.42a2.142,2.142,0,0,0-1.55,3.619l4.6,4.828a2.141,2.141,0,0,0,3.1,0l4.6-4.828a2.141,2.141,0,0,0-1.55-3.619H19.3V62.35h10.36v3.668h-.421a2.142,2.142,0,0,0-1.55,3.619l4.6,4.828a2.141,2.141,0,0,0,3.1,0l4.6-4.828a2.142,2.142,0,0,0-1.55-3.619h-.421V62.35h4.018a.918.918,0,1,0,0-1.836H38.019V58.676H52.472a1.53,1.53,0,0,0,1.52-1.369,4.117,4.117,0,0,1,3.624-3.623,1.53,1.53,0,0,0,1.369-1.52v-19.4a1.532,1.532,0,0,0-1.531-1.53H26.282a4,4,0,0,0,.271-1.444c0-.132-.007-.264-.02-.394H60.516a.307.307,0,0,1,.307.307V60.207a.307.307,0,0,1-.307.307H46.157a.918.918,0,0,0,0,1.836H48.38v3.668h-.42a2.142,2.142,0,0,0-1.55,3.619l4.6,4.828a2.141,2.141,0,0,0,3.1,0l4.6-4.828a2.142,2.142,0,0,0-1.55-3.619h-.42V62.35h3.774a2.145,2.145,0,0,0,2.142-2.142V29.7a2.145,2.145,0,0,0-2.142-2.142ZM3.956,35.37A2.167,2.167,0,0,1,2.74,32.433a.918.918,0,0,0-.21-1.055,2.167,2.167,0,0,1,0-3.179.918.918,0,0,0,.21-1.055,2.167,2.167,0,0,1,1.216-2.937.918.918,0,0,0,.6-.894A2.167,2.167,0,0,1,6.8,21.066a.915.915,0,0,0,.894-.6,2.167,2.167,0,0,1,2.937-1.216.918.918,0,0,0,1.055-.21,2.167,2.167,0,0,1,3.179,0,.918.918,0,0,0,1.055.21,2.167,2.167,0,0,1,2.937,1.216.917.917,0,0,0,.894.6A2.167,2.167,0,0,1,22,23.313a.918.918,0,0,0,.6.894,2.167,2.167,0,0,1,1.216,2.937.918.918,0,0,0,.21,1.055,2.167,2.167,0,0,1,0,3.179.918.918,0,0,0-.21,1.055A2.167,2.167,0,0,1,22.6,35.37a.918.918,0,0,0-.6.894,2.167,2.167,0,0,1-2.248,2.248.914.914,0,0,0-.894.6,2.167,2.167,0,0,1-2.937,1.216.918.918,0,0,0-1.055.21,2.167,2.167,0,0,1-3.179,0,.918.918,0,0,0-1.055-.21A2.167,2.167,0,0,1,7.7,39.11a.916.916,0,0,0-.894-.6,2.167,2.167,0,0,1-2.248-2.248.917.917,0,0,0-.6-.894ZM18.379,67.853h1.338a.306.306,0,0,1,.221.517l-4.6,4.828a.306.306,0,0,1-.443,0l-4.6-4.828a.306.306,0,0,1,.221-.517h1.338a.918.918,0,0,0,.918-.918V62.35h4.691v4.586A.918.918,0,0,0,18.379,67.853Zm20.061,0a.306.306,0,0,1,.221.517L34.06,73.2a.306.306,0,0,1-.443,0l-4.6-4.828a.306.306,0,0,1,.221-.517h1.338a.918.918,0,0,0,.918-.918v-8.26h4.691v8.26a.918.918,0,0,0,.918.918ZM57.15,51.895A5.97,5.97,0,0,0,52.2,56.84H10.527V50.858a.918.918,0,0,0-1.836,0v6.288a1.532,1.532,0,0,0,1.531,1.53H29.657v1.838H7.161a.307.307,0,0,1-.307-.307V41.14a4,4,0,0,0,1.342.915,3.956,3.956,0,0,0,.5.164v4.519a.918.918,0,1,0,1.836,0V42.276c.093-.019.187-.04.279-.065a3.99,3.99,0,0,0,3.6.691v3.292a.918.918,0,0,0,1.836,0V42.312a3.987,3.987,0,0,0,4.073-1.992,4,4,0,0,0,3.494-3.494,3.982,3.982,0,0,0,2.026-3.757H57.15ZM55.824,67.853h1.338a.306.306,0,0,1,.221.517l-4.6,4.828a.306.306,0,0,1-.443,0l-4.6-4.828a.306.306,0,0,1,.221-.517H49.3a.918.918,0,0,0,.918-.918V62.35h4.691v4.586A.918.918,0,0,0,55.824,67.853Z" transform="translate(0 -16.512)"/>
          <path id="Trazado_903417" data-name="Trazado 903417" d="M214.712,195.747a8.617,8.617,0,1,0-8.617-8.617A8.626,8.626,0,0,0,214.712,195.747Zm0-15.4a6.781,6.781,0,1,1-6.781,6.781A6.789,6.789,0,0,1,214.712,180.35Z" transform="translate(-180.873 -158.688)"/>
          <path id="Trazado_903418" data-name="Trazado 903418" d="M251.146,213.572h.056v1.181h-.918a.918.918,0,1,0,0,1.836h.918v.205a.918.918,0,1,0,1.836,0v-.205h.056a2.426,2.426,0,0,0,0-4.852h-.056v-1.181h.918a.918.918,0,0,0,0-1.836h-.918v-.205a.918.918,0,1,0-1.836,0v.205h-.056a2.426,2.426,0,0,0,0,4.852Zm1.948,0a.591.591,0,0,1,0,1.181h-.056v-1.181Zm-1.948-3.017h.056v1.181h-.056a.59.59,0,0,1,0-1.181Z" transform="translate(-218.282 -184.211)"/>
          <path id="Trazado_903419" data-name="Trazado 903419" d="M405.725,174.016h1.643a2.145,2.145,0,0,0,2.142-2.142v-1.643a2.145,2.145,0,0,0-2.142-2.142h-1.643a2.145,2.145,0,0,0-2.142,2.142v1.643A2.145,2.145,0,0,0,405.725,174.016Zm-.307-3.785a.307.307,0,0,1,.307-.307h1.643a.307.307,0,0,1,.307.307v1.643a.307.307,0,0,1-.307.307h-1.643a.307.307,0,0,1-.307-.307Z" transform="translate(-354.193 -149.539)"/>
          <path id="Trazado_903420" data-name="Trazado 903420" d="M421.218,231.3a.918.918,0,0,0-.918.918v5.595a.918.918,0,0,0,1.836,0v-5.595A.918.918,0,0,0,421.218,231.3Z" transform="translate(-368.864 -205.012)"/>
          <path id="Trazado_903421" data-name="Trazado 903421" d="M104.777,281.323h-1.643a2.145,2.145,0,0,0-2.142,2.142v1.643a2.145,2.145,0,0,0,2.142,2.142h1.643a2.145,2.145,0,0,0,2.142-2.142v-1.643A2.145,2.145,0,0,0,104.777,281.323Zm.307,3.785a.307.307,0,0,1-.307.307h-1.643a.307.307,0,0,1-.307-.307v-1.643a.307.307,0,0,1,.307-.307h1.643a.307.307,0,0,1,.307.307Z" transform="translate(-88.633 -248.916)"/>
          <path id="Trazado_903422" data-name="Trazado 903422" d="M84.815,102.239a.918.918,0,0,0,0-1.836H84.8a.913.913,0,0,0-.912.913.923.923,0,0,0,.919.922Z" transform="translate(-73.624 -90.136)"/>
          <path id="Trazado_903423" data-name="Trazado 903423" d="M119.014,136.437a.918.918,0,1,0,0-1.836H119a.913.913,0,0,0-.912.918A.923.923,0,0,0,119.014,136.437Z" transform="translate(-103.638 -120.149)"/>
          <path id="Trazado_903424" data-name="Trazado 903424" d="M87.863,107.3a.918.918,0,0,0,1.294-.1l3.291-3.831a.918.918,0,0,0-1.392-1.2L87.765,106A.918.918,0,0,0,87.863,107.3Z" transform="translate(-76.83 -91.407)"/>
          <path id="Trazado_903425" data-name="Trazado 903425" d="M44.973,70.342a8.857,8.857,0,0,0,7.6-13.41A.918.918,0,0,0,51,57.877a7.022,7.022,0,1,1-2.621-2.534.918.918,0,1,0,.891-1.6,8.857,8.857,0,1,0-4.294,16.6Z" transform="translate(-31.696 -48.208)"/>
        </g>
      </g>
    </g>
  </g>
</svg>
