<svg xmlns="http://www.w3.org/2000/svg" width="400" height="313" viewBox="0 0 400 313">
  <g id="Grupo_1118228" data-name="Grupo 1118228" transform="translate(-1020 -1969)">
    <rect id="Rectángulo_406637" data-name="Rectángulo 406637" width="400" height="313" transform="translate(1020 1969)" fill="#f2ecfd"/>
    <g id="nota1" transform="translate(-442.307 12241.173)">
      <path id="Trazado_909583" data-name="Trazado 909583" d="M0,0H45.145V59.614H0Z" transform="translate(1619.364 -10211.197)" fill="none" stroke="#1a2e35" stroke-linecap="round" stroke-width="1"/>
      <path id="Trazado_909584" data-name="Trazado 909584" d="M0,0H34.631V45.723H0Z" transform="translate(1624.625 -10204.252)" fill="none" stroke="#1a2e35" stroke-linecap="round" stroke-width="1"/>
      <path id="Trazado_909585" data-name="Trazado 909585" d="M0,0H45.145V59.614H0Z" transform="translate(1551.648 -10180.522)" fill="none" stroke="#1a2e35" stroke-linecap="round" stroke-width="1"/>
      <path id="Trazado_909586" data-name="Trazado 909586" d="M0,0H34.631V45.723H0Z" transform="translate(1556.909 -10173.577)" fill="none" stroke="#1a2e35" stroke-linecap="round" stroke-width="1"/>
      <path id="Trazado_909587" data-name="Trazado 909587" d="M26.068,0A26.068,26.068,0,1,1,0,26.068,26.068,26.068,0,0,1,26.068,0Z" transform="matrix(0.995, -0.1, 0.1, 0.995, 1700.766, -10214.383)" fill="none" stroke="#1a2e35" stroke-linecap="round" stroke-width="1"/>
      <path id="Trazado_909588" data-name="Trazado 909588" d="M21.628,0A21.628,21.628,0,1,1,0,21.628,21.628,21.628,0,0,1,21.628,0Z" transform="matrix(0.989, -0.15, 0.15, 0.989, 1705.115, -10209.688)" fill="none" stroke="#1a2e35" stroke-linecap="round" stroke-width="1.001"/>
      <path id="Trazado_909589" data-name="Trazado 909589" d="M338.56,152.84h13.781v19.881" transform="translate(1376.968 -10343.878)" fill="none" stroke="#1a2e35" stroke-linecap="round" stroke-linejoin="round" stroke-width="1"/>
      <path id="Trazado_909590" data-name="Trazado 909590" d="M318.728,367.32l9.145,14.729a2.818,2.818,0,0,1-2.4,4.306H306.8a2.818,2.818,0,0,0,2.4-4.295l-8.857-14.411Z" transform="translate(1393.064 -10434.224)" fill="#fff" stroke="#1a2e35" stroke-linecap="round" stroke-linejoin="round" stroke-width="1"/>
      <path id="Trazado_909591" data-name="Trazado 909591" d="M318.728,367.32l-18.382.329,3.409,5.539h18.619Z" transform="translate(1393.064 -10434.224)" fill="#344154" stroke="#1a2e35" stroke-linecap="round" stroke-linejoin="round" stroke-width="1"/>
      <path id="Trazado_909592" data-name="Trazado 909592" d="M2.577,0H75.534a2.577,2.577,0,0,1,2.577,2.577V63.391a2.577,2.577,0,0,1-2.577,2.577H2.577A2.577,2.577,0,0,1,0,63.391V2.577A2.577,2.577,0,0,1,2.577,0Z" transform="translate(1739.368 -10063.621) rotate(180)" fill="#fff" stroke="#1a2e35" stroke-linecap="round" stroke-width="1"/>
      <path id="Trazado_909593" data-name="Trazado 909593" d="M2.577,0H75.534a2.577,2.577,0,0,1,2.577,2.577V63.391a2.577,2.577,0,0,1-2.577,2.577H2.577A2.577,2.577,0,0,1,0,63.391V2.577A2.577,2.577,0,0,1,2.577,0Z" transform="translate(1736.411 -10063.621) rotate(180)" fill="#fff" stroke="#1a2e35" stroke-linecap="round" stroke-width="1"/>
      <path id="Trazado_909594" data-name="Trazado 909594" d="M242.285,259h72.862a2.628,2.628,0,0,1,2.628,2.628v51.511H239.64V261.628A2.622,2.622,0,0,1,242.285,259Z" transform="translate(1418.635 -10388.596)" fill="#344154" stroke="#1a2e35" stroke-linecap="round" stroke-linejoin="round" stroke-width="1"/>
      <path id="Trazado_909595" data-name="Trazado 909595" d="M0,0H71.548V47.917H0Z" transform="translate(1733.129 -10079.051) rotate(180)" fill="#fff" stroke="#1a2e35" stroke-linecap="round" stroke-width="1"/>
      <path id="Trazado_909596" data-name="Trazado 909596" d="M0,0H66.038V4.086H0Z" transform="translate(1664.555 -10114.107)" fill="#d9a171"/>
      <path id="Trazado_909597" data-name="Trazado 909597" d="M250.86,321.31V297.65h65.4v24.523" transform="translate(1413.91 -10404.876)" fill="none" stroke="#1a2e35" stroke-miterlimit="10" stroke-width="1"/>
      <path id="Trazado_909598" data-name="Trazado 909598" d="M0,0H64.967" transform="translate(1664.984 -10099.269)" fill="none" stroke="#1a2e35" stroke-width="1"/>
      <path id="Trazado_909599" data-name="Trazado 909599" d="M0,0V24.7" transform="translate(1712.096 -10107.399)" fill="none" stroke="#1a2e35" stroke-width="1"/>
      <path id="Trazado_909600" data-name="Trazado 909600" d="M0,0H2.275V.758H0Z" transform="translate(1627.283 -10051.166)" fill="#fff" stroke="#1a2e35" stroke-linecap="round" stroke-width="1"/>
      <path id="Trazado_909601" data-name="Trazado 909601" d="M0,0H2.275V.758H0Z" transform="translate(1630.309 -10051.166)" fill="#fff" stroke="#1a2e35" stroke-linecap="round" stroke-width="1"/>
      <path id="Trazado_909602" data-name="Trazado 909602" d="M0,0H2.275V.758H0Z" transform="translate(1633.342 -10051.166)" fill="#fff" stroke="#1a2e35" stroke-linecap="round" stroke-width="1"/>
      <path id="Trazado_909603" data-name="Trazado 909603" d="M0,0H2.275V.758H0Z" transform="translate(1636.369 -10051.166)" fill="#fff" stroke="#1a2e35" stroke-linecap="round" stroke-width="1"/>
      <path id="Trazado_909604" data-name="Trazado 909604" d="M0,0H2.275V.758H0Z" transform="translate(1639.402 -10051.166)" fill="#fff" stroke="#1a2e35" stroke-linecap="round" stroke-width="1"/>
      <path id="Trazado_909605" data-name="Trazado 909605" d="M0,0H2.275V.758H0Z" transform="translate(1642.429 -10051.166)" fill="#fff" stroke="#1a2e35" stroke-linecap="round" stroke-width="1"/>
      <path id="Trazado_909606" data-name="Trazado 909606" d="M0,0H2.275V.758H0Z" transform="translate(1645.462 -10051.166)" fill="#fff" stroke="#1a2e35" stroke-linecap="round" stroke-width="1"/>
      <path id="Trazado_909607" data-name="Trazado 909607" d="M0,0H2.275V.758H0Z" transform="translate(1648.488 -10051.166)" fill="#fff" stroke="#1a2e35" stroke-linecap="round" stroke-width="1"/>
      <path id="Trazado_909608" data-name="Trazado 909608" d="M0,0H2.275V.758H0Z" transform="translate(1651.522 -10051.166)" fill="#fff" stroke="#1a2e35" stroke-linecap="round" stroke-width="1"/>
      <path id="Trazado_909609" data-name="Trazado 909609" d="M0,0H2.275V.758H0Z" transform="translate(1654.548 -10051.166)" fill="#fff" stroke="#1a2e35" stroke-linecap="round" stroke-width="1"/>
      <path id="Trazado_909610" data-name="Trazado 909610" d="M0,0H2.275V.758H0Z" transform="translate(1657.581 -10051.166)" fill="#fff" stroke="#1a2e35" stroke-linecap="round" stroke-width="1"/>
      <path id="Trazado_909611" data-name="Trazado 909611" d="M0,0H2.275V.758H0Z" transform="translate(1660.609 -10051.166)" fill="#fff" stroke="#1a2e35" stroke-linecap="round" stroke-width="1"/>
      <path id="Trazado_909612" data-name="Trazado 909612" d="M0,0H2.275V.758H0Z" transform="translate(1663.641 -10051.166)" fill="#fff" stroke="#1a2e35" stroke-linecap="round" stroke-width="1"/>
      <path id="Trazado_909613" data-name="Trazado 909613" d="M0,0H2.275V.758H0Z" transform="translate(1666.668 -10051.166)" fill="#fff" stroke="#1a2e35" stroke-linecap="round" stroke-width="1"/>
      <path id="Trazado_909614" data-name="Trazado 909614" d="M0,0H2.275V.758H0Z" transform="translate(1669.701 -10051.166)" fill="#fff" stroke="#1a2e35" stroke-linecap="round" stroke-width="1"/>
      <path id="Trazado_909615" data-name="Trazado 909615" d="M0,0H2.275V.758H0Z" transform="translate(1672.728 -10051.166)" fill="#fff" stroke="#1a2e35" stroke-linecap="round" stroke-width="1"/>
      <path id="Trazado_909616" data-name="Trazado 909616" d="M0,0H2.275V.758H0Z" transform="translate(1675.76 -10051.166)" fill="#fff" stroke="#1a2e35" stroke-linecap="round" stroke-width="1"/>
      <path id="Trazado_909617" data-name="Trazado 909617" d="M0,0H2.275V.758H0Z" transform="translate(1678.788 -10051.166)" fill="#fff" stroke="#1a2e35" stroke-linecap="round" stroke-width="1"/>
      <path id="Trazado_909618" data-name="Trazado 909618" d="M0,0H2.275V.758H0Z" transform="translate(1681.82 -10051.166)" fill="#fff" stroke="#1a2e35" stroke-linecap="round" stroke-width="1"/>
      <path id="Trazado_909619" data-name="Trazado 909619" d="M0,0H2.275V.758H0Z" transform="translate(1684.847 -10051.166)" fill="#fff" stroke="#1a2e35" stroke-linecap="round" stroke-width="1"/>
      <path id="Trazado_909620" data-name="Trazado 909620" d="M0,0H2.275V.758H0Z" transform="translate(1687.88 -10051.166)" fill="#fff" stroke="#1a2e35" stroke-linecap="round" stroke-width="1"/>
      <path id="Trazado_909621" data-name="Trazado 909621" d="M0,0H65.7V2.448H0Z" transform="translate(1626.107 -10050.298)" fill="#fff" stroke="#1a2e35" stroke-linecap="round" stroke-width="1"/>
      <path id="Trazado_909622" data-name="Trazado 909622" d="M0,0H16.026V2.448H0Z" transform="translate(1675.778 -10050.298)" fill="#344154" stroke="#1a2e35" stroke-linecap="round" stroke-width="1"/>
      <path id="Trazado_909623" data-name="Trazado 909623" d="M399.913,298.477V290.01h-6.077v8.467H389.79l7.086,12.27,7.086-12.27Z" transform="translate(1355.389 -10401.657)" fill="#344154"/>
      <path id="Trazado_909624" data-name="Trazado 909624" d="M0,.868V0" transform="translate(1708.496 -10134.221)" fill="none" stroke="#1a2e35" stroke-width="1"/>
      <path id="Trazado_909625" data-name="Trazado 909625" d="M326.41,240.667v-6.106a4.051,4.051,0,0,1,4.051-4.051h35.886a4.051,4.051,0,0,1,4.051,4.051V260.89" transform="translate(1382.086 -10376.595)" fill="none" stroke="#1a2e35" stroke-miterlimit="10" stroke-width="1" stroke-dasharray="2.95 2.95"/>
      <path id="Trazado_909626" data-name="Trazado 909626" d="M0,0V.868" transform="translate(1752.483 -10114.832)" fill="none" stroke="#1a2e35" stroke-width="1"/>
      <path id="Trazado_909627" data-name="Trazado 909627" d="M363.527,334.51h36.752a3.617,3.617,0,0,1,3.617,3.617v29.234H359.91V338.127a3.617,3.617,0,0,1,3.617-3.617Z" transform="translate(1367.976 -10420.402)" fill="#344154" stroke="#1a2e35" stroke-miterlimit="10" stroke-width="1"/>
      <path id="Trazado_909628" data-name="Trazado 909628" d="M0,0H39.357V36.9H0Z" transform="translate(1730.2 -10089.944)" fill="#fff" stroke="#1a2e35" stroke-width="1"/>
      <path id="Trazado_909629" data-name="Trazado 909629" d="M325.27,358.1h69a2.214,2.214,0,0,1,2.214,2.214v21.9H325.288V358.1Z" transform="translate(1382.567 -10430.339)" fill="#344154" stroke="#1a2e35" stroke-miterlimit="10" stroke-width="1"/>
      <path id="Trazado_909630" data-name="Trazado 909630" d="M308.476,358.1h68.44a1.383,1.383,0,0,1,1.383,1.383v22.734H307.11V359.483a1.383,1.383,0,0,1,1.383-1.383Z" transform="translate(1390.216 -10430.339)" fill="#636363" stroke="#1a2e35" stroke-miterlimit="10" stroke-width="1"/>
      <path id="Trazado_909631" data-name="Trazado 909631" d="M317.66,358.1h58.96v15.789a4.879,4.879,0,0,1-4.879,4.879h-49.2a4.879,4.879,0,0,1-4.879-4.879V358.1Z" transform="translate(1385.772 -10430.339)" fill="#636363" stroke="#1a2e35" stroke-miterlimit="10" stroke-width="1"/>
      <path id="Trazado_909632" data-name="Trazado 909632" d="M0,0H37.134V24.118H0Z" transform="translate(1714.347 -10072.239)" fill="#344154" stroke="#1a2e35" stroke-width="1"/>
      <path id="Trazado_909633" data-name="Trazado 909633" d="M328.558,379.78s1.267,6-1.58,8.219-17.068,1.736-17.068,1.736h46.464s5.69,1.423,5.377-8.849Z" transform="translate(1389.037 -10439.471)" fill="#fff" stroke="#1a2e35" stroke-miterlimit="10" stroke-width="1"/>
      <path id="Trazado_909634" data-name="Trazado 909634" d="M369.719,394.769H339.97l1.621-.909h29.3Z" transform="translate(1376.375 -10445.402)" fill="#d9a171"/>
      <path id="Trazado_909635" data-name="Trazado 909635" d="M346.028,383.43c0,3.663-.868,5.018-.868,5.018h28.667s1.256-.776,1.546-4.925" transform="translate(1374.188 -10441.009)" fill="none" stroke="#a3a3a3" stroke-miterlimit="10" stroke-width="1"/>
      <path id="Trazado_909636" data-name="Trazado 909636" d="M0,0H29.051" transform="translate(1719.828 -10054.297)" fill="none" stroke="#a3a3a3" stroke-width="1"/>
      <path id="Trazado_909637" data-name="Trazado 909637" d="M0,0H29.153" transform="translate(1720.118 -10056.132)" fill="none" stroke="#a3a3a3" stroke-width="1"/>
      <path id="Trazado_909638" data-name="Trazado 909638" d="M378.85,388.349S380.3,387,380.2,383.43" transform="translate(1359.997 -10441.009)" fill="none" stroke="#a3a3a3" stroke-miterlimit="10" stroke-width="1"/>
      <path id="Trazado_909639" data-name="Trazado 909639" d="M0,0H37.134V13.838H0Z" transform="translate(1714.347 -10072.239)" fill="#636363" stroke="#1a2e35" stroke-width="1"/>
      <path id="Trazado_909640" data-name="Trazado 909640" d="M0,0H40.5V1.585H0Z" transform="translate(1710.979 -10049.707)" fill="#344154" stroke="#1a2e35" stroke-width="1"/>
      <path id="Trazado_909641" data-name="Trazado 909641" d="M334.2,358.1h39.82v1.916a3.825,3.825,0,0,1-3.825,3.825H338.025a3.825,3.825,0,0,1-3.825-3.825Z" transform="translate(1378.805 -10430.339)" fill="#344154" stroke="#1a2e35" stroke-miterlimit="10" stroke-width="1"/>
      <path id="Trazado_909642" data-name="Trazado 909642" d="M424.33,364.635a1.24,1.24,0,1,1-1.24-1.24A1.24,1.24,0,0,1,424.33,364.635Z" transform="translate(1341.887 -10432.567)" fill="#fff" stroke="#1a2e35" stroke-miterlimit="10" stroke-width="1"/>
      <path id="Trazado_909643" data-name="Trazado 909643" d="M424.33,374.233A1.24,1.24,0,1,1,423.09,373,1.24,1.24,0,0,1,424.33,374.233Z" transform="translate(1341.887 -10436.615)" fill="#fff" stroke="#1a2e35" stroke-miterlimit="10" stroke-width="1"/>
      <path id="Trazado_909644" data-name="Trazado 909644" d="M423.2,394.856h-.752a1.036,1.036,0,0,1-1.03-1.036h0a1.03,1.03,0,0,1,1.03-1.03h.752a1.03,1.03,0,0,1,1.03,1.03h0a1.036,1.036,0,0,1-1.03,1.036Z" transform="translate(1342.066 -10444.951)" fill="#344154" stroke="#1a2e35" stroke-miterlimit="10" stroke-width="1"/>
      <path id="Trazado_909645" data-name="Trazado 909645" d="M359.355,436.451V411.27h-11.1v25.269" transform="translate(1372.883 -10452.735)" fill="#fff" stroke="#1a2e35" stroke-linecap="round" stroke-linejoin="round" stroke-width="1"/>
      <path id="Trazado_909646" data-name="Trazado 909646" d="M0,0H5.551V25.5H0Z" transform="translate(1726.693 -10041.466)" fill="#344154" stroke="#1a2e35" stroke-linecap="round" stroke-width="1"/>
      <path id="Trazado_909647" data-name="Trazado 909647" d="M445.215,436.451V411.27h-11.1v25.269" transform="translate(1336.716 -10452.735)" fill="#fff" stroke="#1a2e35" stroke-linecap="round" stroke-linejoin="round" stroke-width="1"/>
      <path id="Trazado_909648" data-name="Trazado 909648" d="M0,0H5.551V25.5H0Z" transform="translate(1776.386 -10041.466)" fill="#344154" stroke="#1a2e35" stroke-linecap="round" stroke-width="1"/>
      <path id="Trazado_909649" data-name="Trazado 909649" d="M0,0H226.3V8.785H0Z" transform="translate(1558.594 -10045.778)" fill="#fff" stroke="#1a2e35" stroke-width="1"/>
      <path id="Trazado_909650" data-name="Trazado 909650" d="M0,0H54.451V8.785H0Z" transform="translate(1730.437 -10045.778)" fill="#344154" stroke="#1a2e35" stroke-width="1"/>
      <path id="Trazado_909651" data-name="Trazado 909651" d="M0,0H226.3V3.085H0Z" transform="translate(1558.594 -10048.174)" fill="#fff" stroke="#1a2e35" stroke-width="1"/>
      <path id="Trazado_909652" data-name="Trazado 909652" d="M0,0H49.511V3.085H0Z" transform="translate(1735.38 -10048.174)" fill="#344154" stroke="#1a2e35" stroke-width="1"/>
      <path id="Trazado_909653" data-name="Trazado 909653" d="M160.715,182.269a25.194,25.194,0,0,1,.139,4.943c-.272,1.372-1.788,2.2-1.649,3.16s3.571,5.9,1.921,7.524a8.1,8.1,0,0,1-3.021,2.06l-1.1,2.471a99.542,99.542,0,0,1-9.2,5.353c-2.6,1.094-.278,6.32-.278,6.32l-6.731-1.511-1.644,7.831a34.149,34.149,0,0,0-11.952-7.142c-6.87-2.194-9.477-1.927-9.477-1.927a43.112,43.112,0,0,0,2.471-8.485c.961-5.081,1.511-16.345,1.511-17.167s4.393-13.463,8.242-15.934,19.5.278,27.741,2.315,4.67,7.964,4.67,7.964Z" transform="translate(1469.987 -10350.597)" fill="#ffbf9d" stroke="#1a2e35" stroke-miterlimit="10" stroke-width="1"/>
      <path id="Trazado_909654" data-name="Trazado 909654" d="M188.571,198.879a1.589,1.589,0,0,0-2.2-.961c-1.783.55-2.2,1.511-1.511,1.511s2.315-.822,2.746,0S188.433,199.839,188.571,198.879Z" transform="translate(1441.843 -10362.813)" fill="#344154" stroke="#1a2e35" stroke-miterlimit="10" stroke-width="1"/>
      <path id="Trazado_909655" data-name="Trazado 909655" d="M186.328,208.21l-.827.416a2.381,2.381,0,0,1,.689,2.746c-.55,1.921-1.1,3.571-1.1,3.571" transform="translate(1441.613 -10367.202)" fill="none" stroke="#1a2e35" stroke-miterlimit="10" stroke-width="1"/>
      <path id="Trazado_909656" data-name="Trazado 909656" d="M154.408,172.2s1.24,5.209.689,6.32-4.67,2.6-5.081,4.115-1.24,9.619-.961,11.13.961,4.121,1.649,4.121,5.788-3.848,7.686-3.986,1.1,3.3.139,4.4-2.894,1.372-2.746,2.61,2.6,5.491-.139,9.2-5.909,2.894-9.2.278a8.816,8.816,0,0,1-2.894-9.477,54.9,54.9,0,0,0,2.6-11.813c.133-2.882-.544-6.592-2.6-5.788s-.416,8.931-1.927,10.717-7.553,6.87-9.2,6.87-10.575-3.986-10.846-4.4.822-18.816-.278-26.091,1.511-12.5,9.892-14.969,23.62,2.06,23.62,2.06-1.511-2.471,1.788-3.571,11.124,1.921,11.674,6.864-2.315,5.081-1.921,6.731,5.631,4.809,2.894,7.42-7.125.974-7.125.974l-.55-4.259S158.645,168.079,154.408,172.2Z" transform="translate(1468.585 -10344.237)" fill="#344154" stroke="#1a2e35" stroke-miterlimit="10" stroke-width="1"/>
      <path id="Trazado_909657" data-name="Trazado 909657" d="M167.969,203.171l-13.046-.411s-2.746.683-3.021,2.194-.578,5.081.272,5.209.822-.81.822-2.055,0-3.16,1.1-3.843a8.06,8.06,0,0,1,3.021-.827l11.124,1.1,10.418.822v-1.783Z" transform="translate(1455.713 -10364.906)" fill="#5e5e5e" stroke="#1a2e35" stroke-miterlimit="10" stroke-width="1"/>
      <path id="Trazado_909658" data-name="Trazado 909658" d="M159.627,208.433s.411-4.393-1.783-5.631-3.71,2.2-3.848,5.209,1.927,6.731,4.532,6.042" transform="translate(1454.714 -10364.814)" fill="#ffbf9d" stroke="#1a2e35" stroke-miterlimit="10" stroke-width="1"/>
      <path id="Trazado_909659" data-name="Trazado 909659" d="M196.48,207.26s.272,3.16-.961,4.67a6.366,6.366,0,0,1-1.649,1.377" transform="translate(1437.916 -10366.802)" fill="none" stroke="#1a2e35" stroke-miterlimit="10" stroke-width="1"/>
      <path id="Trazado_909660" data-name="Trazado 909660" d="M229.946,248.94l-5.527,19.325-4.144,11.043-4.483,11.9s-12.42-.168-17.942-1.2-15.448-4.567-15.448-4.567a100.068,100.068,0,0,0,11.286-25.176c2.344-8.2,4.163-14.77,4.163-14.77Z" transform="translate(1442.746 -10382.905)" fill="#fff" stroke="#1a2e35" stroke-miterlimit="10" stroke-width="1"/>
      <path id="Trazado_909661" data-name="Trazado 909661" d="M212.533,266.75s-4.133,14.829-5.823,17.838l20.089,3s3.756-6.575,6.569-18.029Z" transform="translate(1432.507 -10391.86)" fill="none" stroke="#a3a3a3" stroke-miterlimit="10" stroke-width="1"/>
      <path id="Trazado_909662" data-name="Trazado 909662" d="M0,0,20.842,2.813" transform="translate(1643.91 -10121.73)" fill="none" stroke="#a3a3a3" stroke-width="1"/>
      <path id="Trazado_909663" data-name="Trazado 909663" d="M0,0,20.017,2.657" transform="translate(1642.973 -10116.852)" fill="none" stroke="#a3a3a3" stroke-width="1"/>
      <path id="Trazado_909664" data-name="Trazado 909664" d="M0,0,20.089,2.818" transform="translate(1641.324 -10111.891)" fill="none" stroke="#a3a3a3" stroke-width="1"/>
      <path id="Trazado_909665" data-name="Trazado 909665" d="M230.111,292.85l-3.941,10.8,6.384,1.32,2.257-7.513" transform="translate(1424.309 -10402.854)" fill="none" stroke="#a3a3a3" stroke-miterlimit="10" stroke-width="1"/>
      <path id="Trazado_909666" data-name="Trazado 909666" d="M0,0,8.259,1.506" transform="translate(1631.519 -10106.15)" fill="none" stroke="#a3a3a3" stroke-width="1"/>
      <path id="Trazado_909667" data-name="Trazado 909667" d="M0,0,8.265,1.5" transform="translate(1630.952 -10105.021)" fill="none" stroke="#a3a3a3" stroke-width="1"/>
      <path id="Trazado_909668" data-name="Trazado 909668" d="M0,0,8.265,1.506" transform="translate(1630.391 -10103.898)" fill="none" stroke="#a3a3a3" stroke-width="1"/>
      <path id="Trazado_909669" data-name="Trazado 909669" d="M208.8,247.82l-2.489,8.63,29.051,3.484,2.825-8.629Z" transform="translate(1432.676 -10383.887)" fill="#d9a171"/>
      <path id="Trazado_909670" data-name="Trazado 909670" d="M252.2,256.892a2.176,2.176,0,1,1-2.158-1.9,2.043,2.043,0,0,1,2.158,1.9Z" transform="translate(1415.17 -10386.904)" fill="#fff"/>
      <path id="Trazado_909671" data-name="Trazado 909671" d="M215.808,325.11s5.18-12.247,5.7-17.08.863-9.319,2.072-10.7,3.964-7.935,4.485-9.839,1.736-3.8,3.1-2.419.863,4.659.347,5.869-1.21,3.1-1.21,3.1l3.623-3.964,2.245-5.348a2.289,2.289,0,0,1,2.24,1.736c.342,1.736,2.419,4.312,1.9,5.863a4.144,4.144,0,0,1-2.072,2.245,31.594,31.594,0,0,1,.694,5.863,8.785,8.785,0,0,1-3.108,5.209c-1.736,1.377-6.554,5.863-6.554,5.863s2.419,18.289,0,27.261-6.725,11.732-9.839,12.247-9.145-6.367-9.145-6.367S216.67,341.328,215.808,325.11Z" transform="translate(1431.003 -10399.382)" fill="#ffbf9d" stroke="#1a2e35" stroke-miterlimit="10" stroke-width="1"/>
      <path id="Trazado_909672" data-name="Trazado 909672" d="M2.755,0,0,2.761" transform="translate(1666.483 -10104.807)" fill="none" stroke="#1a2e35" stroke-width="1"/>
      <path id="Trazado_909673" data-name="Trazado 909673" d="M0,2.245,2.761,0" transform="translate(1664.926 -10111.538)" fill="none" stroke="#1a2e35" stroke-width="1"/>
      <path id="Trazado_909674" data-name="Trazado 909674" d="M108.37,236.186s4.821-1.158,12.155,1.934a33.657,33.657,0,0,1,13.694,10.221,30.171,30.171,0,0,1,3.861,6.946s-27.973-10.8-31.063-10.8H100.07S103.74,236.567,108.37,236.186Z" transform="translate(1477.426 -10378.896)" fill="#aed3f2" stroke="#1a2e35" stroke-miterlimit="10" stroke-width="1"/>
      <path id="Trazado_909675" data-name="Trazado 909675" d="M189.813,437.37c-22.381-19.679-57.3-19.679-57.3-19.679L127.3,412.68H65.33v24.977" transform="translate(1492.059 -10453.329)" fill="#fff" stroke="#1a2e35" stroke-miterlimit="10" stroke-width="1"/>
      <path id="Trazado_909676" data-name="Trazado 909676" d="M172.9,423.34S170,435.882,164.41,441.282" transform="translate(1450.325 -10457.819)" fill="none" stroke="#1a2e35" stroke-miterlimit="10" stroke-width="1"/>
      <path id="Trazado_909677" data-name="Trazado 909677" d="M168.631,421.68a28.313,28.313,0,0,1-10.221,12.152" transform="translate(1452.852 -10457.12)" fill="none" stroke="#1a2e35" stroke-miterlimit="10" stroke-width="1"/>
      <path id="Trazado_909678" data-name="Trazado 909678" d="M82.174,246.484s4.243-.966,12.536.77,20.454,8.873,25.854,11.187,9.648,2.512,10.609,5.985,11.575,36.266,16.209,39.935c6.83,5.412,13.312,14.9,5.788,22.769-4.433,4.631-10.418,5.018-13.115,4.051s-9.26-7.715-9.26-9.839v-2.7L118.06,303.98s2.7,22.96,3.855,26.045,4.251,7.524,4.251,9.451-4.439,5.788-9.648,9.07S106.1,354.722,94.137,355.3,67.9,353.947,64.82,349.9s-6.945-8.872-7.333-15.627S55.751,300.9,55.751,300.9s.77-21.611,1.349-28.748,2.126-11.767,5.788-13.311S79.662,246.484,82.174,246.484Z" transform="translate(1496.098 -10383.211)" fill="#6595bf" stroke="#1a2e35" stroke-miterlimit="10" stroke-width="1"/>
      <path id="Trazado_909679" data-name="Trazado 909679" d="M111.76,323.54a23.948,23.948,0,0,0,1.736,2.4" transform="translate(1472.502 -10415.781)" fill="none" stroke="#1a2e35" stroke-miterlimit="10" stroke-width="1"/>
      <path id="Trazado_909680" data-name="Trazado 909680" d="M96.74,277s2.072,14.469,7.258,24.436" transform="translate(1478.828 -10396.178)" fill="none" stroke="#1a2e35" stroke-miterlimit="10" stroke-width="1"/>
      <path id="Trazado_909681" data-name="Trazado 909681" d="M99.07,308.34s4.251,13.7,10.806,20.836" transform="translate(1477.847 -10409.379)" fill="none" stroke="#1a2e35" stroke-miterlimit="10" stroke-width="1"/>
      <path id="Trazado_909682" data-name="Trazado 909682" d="M0,0,9.648,11.575" transform="translate(1604.507 -10090.812)" fill="none" stroke="#1a2e35" stroke-width="1"/>
      <path id="Trazado_909683" data-name="Trazado 909683" d="M0,0,1.506,1.8" transform="translate(1601.614 -10094.284)" fill="none" stroke="#1a2e35" stroke-width="1"/>
      <path id="Trazado_909684" data-name="Trazado 909684" d="M0,0,9.064,6.554" transform="translate(1602.002 -10089.076)" fill="none" stroke="#1a2e35" stroke-width="1"/>
      <path id="Trazado_909685" data-name="Trazado 909685" d="M158.281,285s-9.07,8.68-8.872,18.712" transform="translate(1456.645 -10399.548)" fill="none" stroke="#1a2e35" stroke-miterlimit="10" stroke-width="1"/>
      <path id="Trazado_909686" data-name="Trazado 909686" d="M202,346.68s3.282,6.366-1.539,11-15.048,3.277-15.048,3.277v2.7c0,2.126,6.554,8.872,9.26,9.839s8.68.578,13.115-4.051C215.327,361.578,208.827,352.074,202,346.68Z" transform="translate(1441.478 -10425.529)" fill="#fff" stroke="#1a2e35" stroke-miterlimit="10" stroke-width="1"/>
      <path id="Trazado_909687" data-name="Trazado 909687" d="M10.418,9.839,0,0" transform="translate(1607.592 -10063.031)" fill="none" stroke="#1a2e35" stroke-width="1"/>
      <path id="Trazado_909688" data-name="Trazado 909688" d="M0,0,10.227,7.333" transform="translate(1601.805 -10068.627)" fill="none" stroke="#1a2e35" stroke-width="1"/>
      <path id="Trazado_909689" data-name="Trazado 909689" d="M116.75,382.18a19.291,19.291,0,0,0,2.315,1.447" transform="translate(1470.4 -10440.482)" fill="none" stroke="#1a2e35" stroke-miterlimit="10" stroke-width="1"/>
      <path id="Trazado_909690" data-name="Trazado 909690" d="M78.07,353s11.616,9.064,19,14.469" transform="translate(1486.693 -10428.19)" fill="none" stroke="#1a2e35" stroke-miterlimit="10" stroke-width="1"/>
      <path id="Trazado_909691" data-name="Trazado 909691" d="M82.07,363s8.49,6.175,9.839,6.945" transform="translate(1485.008 -10432.403)" fill="none" stroke="#1a2e35" stroke-miterlimit="10" stroke-width="1"/>
      <path id="Trazado_909692" data-name="Trazado 909692" d="M61.263,370.51h45.723a5.353,5.353,0,0,1,5.353,5.353V414.93a3.907,3.907,0,0,1-3.907,3.907H59.817a3.907,3.907,0,0,1-3.907-3.907V375.863A5.353,5.353,0,0,1,61.263,370.51Z" transform="translate(1496.027 -10435.566)" fill="#344154" stroke="#1a2e35" stroke-miterlimit="10" stroke-width="1"/>
      <path id="Trazado_909693" data-name="Trazado 909693" d="M53.263,370.51H98.986a5.353,5.353,0,0,1,5.353,5.353V414.93a3.907,3.907,0,0,1-3.907,3.907H51.817a3.907,3.907,0,0,1-3.907-3.907V375.863A5.353,5.353,0,0,1,53.263,370.51Z" transform="translate(1499.397 -10435.566)" fill="#636363" stroke="#1a2e35" stroke-miterlimit="10" stroke-width="1"/>
      <path id="Trazado_909694" data-name="Trazado 909694" d="M63.883,431.252V393.736a1.736,1.736,0,0,0-3.473,0v37.511Z" transform="translate(1494.131 -10444.619)" fill="#344154"/>
      <path id="Trazado_909695" data-name="Trazado 909695" d="M118.383,431.252V393.736a1.736,1.736,0,0,0-3.473,0v37.511Z" transform="translate(1471.175 -10444.619)" fill="#344154"/>
      <path id="Trazado_909696" data-name="Trazado 909696" d="M2.631-2.269H.994V-.929H2.9v.407H.5V-4.3H2.87v.413H.994v1.214H2.631Zm2.445,1a.354.354,0,0,0-.147-.3,1.411,1.411,0,0,0-.511-.185,2.417,2.417,0,0,1-.578-.185A.823.823,0,0,1,3.523-2.2a.62.62,0,0,1-.1-.354.728.728,0,0,1,.292-.584,1.14,1.14,0,0,1,.746-.239,1.174,1.174,0,0,1,.775.246.783.783,0,0,1,.3.631H5.047a.433.433,0,0,0-.167-.34.627.627,0,0,0-.422-.143.656.656,0,0,0-.41.114.36.36,0,0,0-.148.3.291.291,0,0,0,.137.266,1.692,1.692,0,0,0,.5.168,2.589,2.589,0,0,1,.583.192.849.849,0,0,1,.331.266.661.661,0,0,1,.108.383.718.718,0,0,1-.3.6,1.263,1.263,0,0,1-.781.227,1.417,1.417,0,0,1-.6-.12.974.974,0,0,1-.406-.333.8.8,0,0,1-.147-.463H3.8A.5.5,0,0,0,4-1a.75.75,0,0,0,.477.142.774.774,0,0,0,.438-.11.339.339,0,0,0,.165-.295ZM6.832-4.013v.68h.524v.371H6.832v1.744A.389.389,0,0,0,6.9-.965a.3.3,0,0,0,.24.089,1.162,1.162,0,0,0,.229-.031v.385A1.391,1.391,0,0,1,7-.47a.6.6,0,0,1-.485-.195.836.836,0,0,1-.164-.553V-2.959H5.841V-3.33h.511v-.68ZM9.65-.522a1.009,1.009,0,0,1-.067-.3,1.071,1.071,0,0,1-.8.348A.991.991,0,0,1,8.1-.7a.76.76,0,0,1-.266-.6.8.8,0,0,1,.333-.681,1.572,1.572,0,0,1,.938-.243h.467v-.221a.539.539,0,0,0-.151-.4.6.6,0,0,0-.443-.149.7.7,0,0,0-.43.129.383.383,0,0,0-.177.314H7.894a.663.663,0,0,1,.149-.406,1.019,1.019,0,0,1,.4-.31,1.362,1.362,0,0,1,.562-.114,1.11,1.11,0,0,1,.76.243.875.875,0,0,1,.285.668v1.292a1.58,1.58,0,0,0,.1.615v.042Zm-.8-.366A.844.844,0,0,0,9.281-1a.709.709,0,0,0,.293-.3v-.576H9.2q-.886,0-.886.516a.437.437,0,0,0,.151.354.578.578,0,0,0,.391.126ZM10.69-1.951A1.645,1.645,0,0,1,11-2.99a.968.968,0,0,1,.8-.393.974.974,0,0,1,.781.337V-4.508h.48V-.522h-.443l-.023-.3a.974.974,0,0,1-.8.354.959.959,0,0,1-.8-.4,1.663,1.663,0,0,1-.307-1.043Zm.48.055a1.245,1.245,0,0,0,.2.748.638.638,0,0,0,.545.266.7.7,0,0,0,.667-.41V-2.577a.709.709,0,0,0-.662-.4.64.64,0,0,0-.55.273,1.371,1.371,0,0,0-.2.806Zm2.507-.057a1.658,1.658,0,0,1,.162-.742,1.21,1.21,0,0,1,.452-.508,1.229,1.229,0,0,1,.661-.177,1.184,1.184,0,0,1,.927.4,1.528,1.528,0,0,1,.354,1.056v.034a1.673,1.673,0,0,1-.157.736,1.192,1.192,0,0,1-.449.508,1.24,1.24,0,0,1-.67.182,1.181,1.181,0,0,1-.925-.4,1.52,1.52,0,0,1-.354-1.051Zm.483.057a1.2,1.2,0,0,0,.217.75.694.694,0,0,0,.58.283.689.689,0,0,0,.581-.287,1.314,1.314,0,0,0,.215-.8,1.2,1.2,0,0,0-.22-.748.7.7,0,0,0-.583-.287.689.689,0,0,0-.573.283,1.3,1.3,0,0,0-.217.811Zm4.31.628a.354.354,0,0,0-.147-.3,1.411,1.411,0,0,0-.511-.185,2.417,2.417,0,0,1-.578-.187.823.823,0,0,1-.316-.26.62.62,0,0,1-.1-.354.728.728,0,0,1,.292-.584,1.14,1.14,0,0,1,.746-.239,1.174,1.174,0,0,1,.775.246.783.783,0,0,1,.3.631h-.483a.433.433,0,0,0-.167-.34.627.627,0,0,0-.422-.143.656.656,0,0,0-.41.114.36.36,0,0,0-.148.3.291.291,0,0,0,.137.266,1.692,1.692,0,0,0,.5.168,2.589,2.589,0,0,1,.583.192.849.849,0,0,1,.331.266.661.661,0,0,1,.108.383.718.718,0,0,1-.3.6,1.263,1.263,0,0,1-.781.227,1.417,1.417,0,0,1-.6-.12.974.974,0,0,1-.406-.333.8.8,0,0,1-.147-.463h.48A.5.5,0,0,0,17.391-1a.75.75,0,0,0,.477.142A.774.774,0,0,0,18.3-.972a.339.339,0,0,0,.167-.295Zm2.579.746V-2.959h-.443V-3.33h.443v-.239a.974.974,0,0,1,.266-.732,1.042,1.042,0,0,1,.759-.266,2.285,2.285,0,0,1,.734.159l-.081.4a1.663,1.663,0,0,0-.62-.129.6.6,0,0,0-.443.139.572.572,0,0,0-.136.416v.244h.584v.371h-.573v2.44Zm2,0h-.483V-3.33h.483ZM24.285-3.33l.016.354a1.023,1.023,0,0,1,.841-.4q.886,0,.9,1V-.522h-.474v-1.86a.647.647,0,0,0-.139-.449A.556.556,0,0,0,25-2.976a.693.693,0,0,0-.41.125.846.846,0,0,0-.275.327v2h-.48V-3.33ZM28.5-.522a1.009,1.009,0,0,1-.067-.3,1.071,1.071,0,0,1-.8.348A.991.991,0,0,1,26.954-.7a.76.76,0,0,1-.266-.6.8.8,0,0,1,.333-.681,1.572,1.572,0,0,1,.936-.244h.467v-.221a.539.539,0,0,0-.151-.4.6.6,0,0,0-.443-.149.7.7,0,0,0-.43.129.383.383,0,0,0-.177.314H26.74a.663.663,0,0,1,.154-.406,1.019,1.019,0,0,1,.4-.31,1.362,1.362,0,0,1,.562-.114,1.11,1.11,0,0,1,.76.243.875.875,0,0,1,.285.668v1.293a1.58,1.58,0,0,0,.1.615v.042Zm-.8-.366A.844.844,0,0,0,28.134-1a.709.709,0,0,0,.293-.3v-.576h-.382q-.886,0-.886.516a.437.437,0,0,0,.151.354.578.578,0,0,0,.392.126ZM30.111-3.33l.016.354a1.023,1.023,0,0,1,.841-.4q.886,0,.9,1V-.522h-.481v-1.86a.647.647,0,0,0-.139-.449.556.556,0,0,0-.424-.145.693.693,0,0,0-.41.125.846.846,0,0,0-.275.327v2h-.48V-3.33Zm3.6,2.468a.692.692,0,0,0,.449-.156.547.547,0,0,0,.213-.39h.454a.871.871,0,0,1-.166.46,1.094,1.094,0,0,1-.408.348,1.179,1.179,0,0,1-.543.13A1.157,1.157,0,0,1,32.8-.852,1.524,1.524,0,0,1,32.464-1.9V-1.98a1.69,1.69,0,0,1,.151-.729,1.146,1.146,0,0,1,.432-.5,1.228,1.228,0,0,1,.665-.177A1.126,1.126,0,0,1,34.5-3.1a1.011,1.011,0,0,1,.333.734h-.454a.662.662,0,0,0-.206-.447.642.642,0,0,0-.458-.177.672.672,0,0,0-.567.266,1.24,1.24,0,0,0-.2.762v.089a1.213,1.213,0,0,0,.2.748.675.675,0,0,0,.571.264Zm2.178.34h-.48V-3.33h.48Zm-.519-3.553a.287.287,0,0,1,.072-.2.266.266,0,0,1,.212-.081.272.272,0,0,1,.213.081.283.283,0,0,1,.073.2.275.275,0,0,1-.073.195.277.277,0,0,1-.213.078.273.273,0,0,1-.212-.078.277.277,0,0,1-.072-.195Zm2.453,3.6A1.227,1.227,0,0,1,36.9-.844a1.391,1.391,0,0,1-.354-1v-.089a1.683,1.683,0,0,1,.159-.746,1.245,1.245,0,0,1,.443-.514,1.122,1.122,0,0,1,.62-.185,1.051,1.051,0,0,1,.851.36,1.562,1.562,0,0,1,.3,1.033v.2h-1.9a1,1,0,0,0,.239.67.763.763,0,0,0,.591.256.836.836,0,0,0,.434-.1,1.082,1.082,0,0,0,.309-.275l.293.229a1.179,1.179,0,0,1-1.058.542Zm-.059-2.517a.64.64,0,0,0-.488.212,1.028,1.028,0,0,0-.244.593h1.407v-.036a.914.914,0,0,0-.2-.567.6.6,0,0,0-.478-.2Zm3.067.089a1.439,1.439,0,0,0-.236-.019.632.632,0,0,0-.641.4V-.522h-.484V-3.33h.467l.008.324a.748.748,0,0,1,.67-.376.491.491,0,0,1,.213.036Zm.266.947a1.658,1.658,0,0,1,.162-.742,1.21,1.21,0,0,1,.452-.508,1.229,1.229,0,0,1,.661-.177,1.184,1.184,0,0,1,.927.4,1.528,1.528,0,0,1,.354,1.056v.034a1.673,1.673,0,0,1-.157.736,1.192,1.192,0,0,1-.449.508,1.24,1.24,0,0,1-.67.182,1.181,1.181,0,0,1-.93-.4,1.52,1.52,0,0,1-.354-1.051Zm.483.057a1.2,1.2,0,0,0,.217.75.694.694,0,0,0,.58.283.689.689,0,0,0,.581-.287,1.313,1.313,0,0,0,.215-.8,1.2,1.2,0,0,0-.22-.748.7.7,0,0,0-.583-.287.689.689,0,0,0-.573.283,1.3,1.3,0,0,0-.222.81Zm4.31.628a.354.354,0,0,0-.147-.3,1.411,1.411,0,0,0-.516-.186,2.417,2.417,0,0,1-.578-.187.823.823,0,0,1-.316-.26.62.62,0,0,1-.1-.354.728.728,0,0,1,.292-.584,1.14,1.14,0,0,1,.746-.239,1.174,1.174,0,0,1,.775.246.783.783,0,0,1,.3.631h-.483a.433.433,0,0,0-.167-.34.627.627,0,0,0-.422-.143.656.656,0,0,0-.41.114.36.36,0,0,0-.148.3.291.291,0,0,0,.137.266,1.692,1.692,0,0,0,.5.168,2.589,2.589,0,0,1,.583.192.849.849,0,0,1,.331.266.661.661,0,0,1,.108.383.718.718,0,0,1-.3.6,1.263,1.263,0,0,1-.781.227,1.417,1.417,0,0,1-.6-.12.974.974,0,0,1-.406-.333.8.8,0,0,1-.147-.463h.48A.5.5,0,0,0,44.809-1a.75.75,0,0,0,.477.142.774.774,0,0,0,.438-.111.339.339,0,0,0,.165-.3Z" transform="translate(1683.378 -10117.574)" fill="#12263f"/>
    </g>
  </g>
</svg>
