<svg xmlns="http://www.w3.org/2000/svg" width="295" height="172" viewBox="0 0 295 172">
  <g id="Grupo_1117834" data-name="Grupo 1117834" transform="translate(-1125 -2310.223)">
    <rect id="Rectángulo_405216" data-name="Rectángulo 405216" width="295" height="172" transform="translate(1125 2310.223)" fill="#ddeffd"/>
    <g id="objetivo" transform="translate(815.699 -687.836)">
      <g id="Grupo_1112783" data-name="Grupo 1112783" transform="translate(360.823 3016.582)">
        <path id="Trazado_902927" data-name="Trazado 902927" d="M503.02,3362.941v26.021h12.227v-8.984h-3.413v-1.794l3.413.061v-2.937h1.544l-.029-1.518-1.8-.042V3362.9Z" transform="translate(-466.673 -3252.034)" fill="#ebebeb"/>
        <path id="Trazado_902928" data-name="Trazado 902928" d="M428.614,3412.131c0,.09-8.333.163-18.606.163s-18.609-.072-18.609-.163,8.329-.164,18.609-.164S428.614,3412.04,428.614,3412.131Z" transform="translate(-391.399 -3285.125)" fill="#e0e0e0"/>
        <path id="Trazado_902929" data-name="Trazado 902929" d="M428.614,3407.531c0,.091-8.333.164-18.606.164s-18.609-.072-18.609-.164,8.329-.163,18.609-.163S428.614,3407.44,428.614,3407.531Z" transform="translate(-391.399 -3282.023)" fill="#e0e0e0"/>
        <path id="Trazado_902930" data-name="Trazado 902930" d="M435.984,3395.141c0,.091-8.333.166-18.606.166s-18.609-.075-18.609-.166,8.329-.163,18.609-.163S435.984,3395.052,435.984,3395.141Z" transform="translate(-396.369 -3273.668)" fill="#e0e0e0"/>
        <path id="Trazado_902931" data-name="Trazado 902931" d="M436.664,3428.894c0,.088-8.333.163-18.609.163s-18.606-.075-18.606-.163,8.329-.166,18.606-.166S436.664,3428.8,436.664,3428.894Z" transform="translate(-396.828 -3296.428)" fill="#e0e0e0"/>
        <path id="Trazado_902932" data-name="Trazado 902932" d="M677.454,3041.174a13.657,13.657,0,0,1,3.331-1.449l.687-3.3,5.571-.1.8,3.256a13.557,13.557,0,0,1,3.38,1.329l2.81-1.83,4.008,3.872-1.729,2.878a13.609,13.609,0,0,1,1.449,3.335l3.3.683.1,5.571-3.272.8a13.611,13.611,0,0,1-1.328,3.379l1.843,2.816-3.878,4.009-2.878-1.745a13.718,13.718,0,0,1-3.334,1.445l-.684,3.3-5.571.1-.8-3.272a13.639,13.639,0,0,1-3.38-1.328l-2.817,1.846-4.008-3.871,1.745-2.878a13.631,13.631,0,0,1-1.446-3.331l-3.3-.687-.1-5.571,3.273-.8a13.59,13.59,0,0,1,1.322-3.381l-1.846-2.816,3.872-4.009,2.878,1.746Zm2.97,7.421a5.9,5.9,0,1,0,.013-.013Z" transform="translate(-577.898 -3031.802)" fill="#ebebeb"/>
        <path id="Trazado_902933" data-name="Trazado 902933" d="M780.655,3025.254a8.058,8.058,0,0,1,1.954-.847l.4-1.924,3.256-.055.453,1.911a8.113,8.113,0,0,1,1.973.775l1.628-1.075,2.364,2.253-1.016,1.681a8.021,8.021,0,0,1,.844,1.953l1.924.4.055,3.256-1.908.469a7.873,7.873,0,0,1-.775,1.954l1.078,1.628-2.26,2.337-1.68-1.019a7.883,7.883,0,0,1-1.954.846l-.4,1.921-3.256.059-.466-1.908a8.044,8.044,0,0,1-1.973-.775l-1.628,1.075-2.341-2.256,1.019-1.681a7.888,7.888,0,0,1-.843-1.954l-1.925-.4-.058-3.256,1.9-.423a7.912,7.912,0,0,1,.779-1.954l-1.078-1.628,2.256-2.338,1.68,1.019Zm1.732,4.328a3.487,3.487,0,1,0,4.933-.085A3.487,3.487,0,0,0,782.387,3029.582Z" transform="translate(-650.172 -3022.428)" fill="#d9a171"/>
        <path id="Trazado_902934" data-name="Trazado 902934" d="M926.221,3176.552a10.665,10.665,0,0,1,2.589-1.126l.531-2.559,4.327-.079.625,2.543a10.557,10.557,0,0,1,2.624,1.032l2.185-1.433,3.116,3-1.358,2.234a10.691,10.691,0,0,1,1.127,2.6l2.559.534.081,4.3-2.54.622a10.418,10.418,0,0,1-1.042,2.634l1.433,2.188-3.005,3.113-2.237-1.354a10.526,10.526,0,0,1-2.585,1.123l-.534,2.562-4.328.075-.622-2.54a10.7,10.7,0,0,1-2.625-1.032l-2.188,1.432-3.113-3,1.355-2.237a10.519,10.519,0,0,1-1.123-2.589l-2.57-.527-.075-4.328,2.54-.625a10.825,10.825,0,0,1,1.032-2.625l-1.433-2.185,3.006-3.116,2.237,1.357Zm2.3,5.764a4.643,4.643,0,1,0,6.568-.115A4.643,4.643,0,0,0,928.526,3182.316Z" transform="translate(-747.086 -3123.828)" fill="#12263f"/>
      </g>
      <g id="Grupo_1112784" data-name="Grupo 1112784" transform="translate(346.059 3153.844)">
        <path id="Trazado_902935" data-name="Trazado 902935" d="M558.364,3444.053c0,.046-47.541.085-106.153.085s-106.153-.039-106.153-.085,47.541-.084,106.153-.084S558.364,3444,558.364,3444.053Z" transform="translate(-346.059 -3443.968)" fill="#5e6178"/>
      </g>
      <g id="Grupo_1112836" data-name="Grupo 1112836" transform="translate(364.353 3013.758)">
        <rect id="Rectángulo_405217" data-name="Rectángulo 405217" width="116.384" height="91.07" fill="#fff"/>
        <rect id="Rectángulo_405218" data-name="Rectángulo 405218" width="116.82" height="7.574" transform="translate(0.023)" fill="#5e6178"/>
        <rect id="Rectángulo_405219" data-name="Rectángulo 405219" width="6.499" height="83.496" transform="translate(0.023 7.574)" fill="#344154"/>
        <rect id="Rectángulo_405220" data-name="Rectángulo 405220" width="116.82" height="5.018" transform="translate(0.023 7.574)" fill="#344154"/>
        <path id="Trazado_902936" data-name="Trazado 902936" d="M409.294,3022.886a.156.156,0,0,1-.114-.045.163.163,0,0,1,0-.229h0l3.709-3.771a.16.16,0,0,1,.226,0h0a.163.163,0,0,1,0,.23h0l-3.706,3.768a.166.166,0,0,1-.115.048Z" transform="translate(-406.888 -3017.153)" fill="#fff"/>
        <path id="Trazado_902937" data-name="Trazado 902937" d="M412.972,3022.928a.153.153,0,0,1-.114-.049l-3.771-3.712a.163.163,0,1,1,.228-.234l3.771,3.709a.163.163,0,0,1,0,.23h0a.15.15,0,0,1-.114.056Z" transform="translate(-406.824 -3017.216)" fill="#fff"/>
        <path id="Trazado_902938" data-name="Trazado 902938" d="M521.913,3052.253c0,.046-25.649.085-57.283.085s-57.29-.039-57.29-.085,25.646-.085,57.29-.085S521.913,3052.21,521.913,3052.253Z" transform="translate(-405.679 -3039.661)" fill="#5e6178"/>
        <path id="Trazado_902939" data-name="Trazado 902939" d="M422.1,3122.126c-.046,0-.085-18.42-.085-41.139s.039-41.139.085-41.139.085,18.414.085,41.139S422.14,3122.126,422.1,3122.126Z" transform="translate(-415.572 -3031.353)" fill="#5e6178"/>
        <path id="Trazado_902940" data-name="Trazado 902940" d="M442.572,3043.86a23.81,23.81,0,0,1,0-4.012A23.81,23.81,0,0,1,442.572,3043.86Z" transform="translate(-429.374 -3031.353)" fill="#5e6178"/>
        <path id="Trazado_902941" data-name="Trazado 902941" d="M463.054,3043.86a23.784,23.784,0,0,1,0-4.012,23.823,23.823,0,0,1,0,4.012Z" transform="translate(-443.188 -3031.353)" fill="#5e6178"/>
        <path id="Trazado_902942" data-name="Trazado 902942" d="M483.541,3043.86a23.823,23.823,0,0,1,0-4.012,23.788,23.788,0,0,1,0,4.012Z" transform="translate(-457.003 -3031.353)" fill="#5e6178"/>
        <path id="Trazado_902943" data-name="Trazado 902943" d="M504.024,3043.86a23.788,23.788,0,0,1,0-4.012,23.823,23.823,0,0,1,0,4.012Z" transform="translate(-470.817 -3031.353)" fill="#5e6178"/>
        <path id="Trazado_902944" data-name="Trazado 902944" d="M524.511,3043.86a23.823,23.823,0,0,1,0-4.012A23.785,23.785,0,0,1,524.511,3043.86Z" transform="translate(-484.633 -3031.353)" fill="#5e6178"/>
        <path id="Trazado_902945" data-name="Trazado 902945" d="M544.994,3043.86a23.807,23.807,0,0,1,0-4.012A23.794,23.794,0,0,1,544.994,3043.86Z" transform="translate(-498.446 -3031.353)" fill="#5e6178"/>
        <path id="Trazado_902946" data-name="Trazado 902946" d="M565.482,3043.86a23.788,23.788,0,0,1,0-4.012,23.848,23.848,0,0,1,0,4.012Z" transform="translate(-512.262 -3031.353)" fill="#5e6178"/>
        <path id="Trazado_902947" data-name="Trazado 902947" d="M585.964,3043.86a23.813,23.813,0,0,1,0-4.012,23.81,23.81,0,0,1,0,4.012Z" transform="translate(-526.075 -3031.353)" fill="#5e6178"/>
        <path id="Trazado_902948" data-name="Trazado 902948" d="M606.452,3043.86a23.788,23.788,0,0,1,0-4.012,23.829,23.829,0,0,1,0,4.012Z" transform="translate(-539.891 -3031.353)" fill="#5e6178"/>
        <path id="Trazado_902949" data-name="Trazado 902949" d="M626.934,3043.86a23.765,23.765,0,0,1,0-4.012,23.832,23.832,0,0,1,0,4.012Z" transform="translate(-553.705 -3031.353)" fill="#5e6178"/>
        <path id="Trazado_902950" data-name="Trazado 902950" d="M647.422,3043.86a23.849,23.849,0,0,1,0-4.012,23.807,23.807,0,0,1,0,4.011Z" transform="translate(-567.521 -3031.353)" fill="#5e6178"/>
        <path id="Trazado_902951" data-name="Trazado 902951" d="M667.9,3043.86a23.813,23.813,0,0,1,0-4.012,23.823,23.823,0,0,1,0,4.012Z" transform="translate(-581.334 -3031.353)" fill="#5e6178"/>
        <path id="Trazado_902952" data-name="Trazado 902952" d="M688.385,3043.86a22.956,22.956,0,0,1,0-4.012A23.771,23.771,0,0,1,688.385,3043.86Z" transform="translate(-595.143 -3031.353)" fill="#5e6178"/>
        <path id="Trazado_902953" data-name="Trazado 902953" d="M708.874,3043.86a23.807,23.807,0,0,1,0-4.012A23.82,23.82,0,0,1,708.874,3043.86Z" transform="translate(-608.963 -3031.353)" fill="#5e6178"/>
        <path id="Trazado_902954" data-name="Trazado 902954" d="M729.354,3043.86a23.788,23.788,0,0,1,0-4.012,22.939,22.939,0,0,1,0,4.012Z" transform="translate(-622.775 -3031.353)" fill="#5e6178"/>
        <path id="Trazado_902955" data-name="Trazado 902955" d="M749.844,3043.86a23.788,23.788,0,0,1,0-4.012A23.788,23.788,0,0,1,749.844,3043.86Z" transform="translate(-636.592 -3031.353)" fill="#5e6178"/>
        <path id="Trazado_902956" data-name="Trazado 902956" d="M412.2,3069.662a35.01,35.01,0,0,1-4.862,0A35.124,35.124,0,0,1,412.2,3069.662Z" transform="translate(-405.679 -3051.395)" fill="#5e6178"/>
        <path id="Trazado_902957" data-name="Trazado 902957" d="M412.2,3088.542a34.71,34.71,0,0,1-4.862,0,34.972,34.972,0,0,1,4.862,0Z" transform="translate(-405.679 -3064.127)" fill="#5e6178"/>
        <path id="Trazado_902958" data-name="Trazado 902958" d="M412.2,3107.422a35.01,35.01,0,0,1-4.862,0,34.747,34.747,0,0,1,4.862,0Z" transform="translate(-405.679 -3076.859)" fill="#5e6178"/>
        <path id="Trazado_902959" data-name="Trazado 902959" d="M412.2,3126.3a35.01,35.01,0,0,1-4.862,0,34.784,34.784,0,0,1,4.862,0Z" transform="translate(-405.679 -3089.589)" fill="#5e6178"/>
        <path id="Trazado_902960" data-name="Trazado 902960" d="M412.2,3145.172a34.86,34.86,0,0,1-4.862,0,34.784,34.784,0,0,1,4.862,0Z" transform="translate(-405.679 -3102.317)" fill="#5e6178"/>
        <path id="Trazado_902961" data-name="Trazado 902961" d="M412.2,3164.1a34.86,34.86,0,0,1-4.862,0,34.973,34.973,0,0,1,4.862,0Z" transform="translate(-405.679 -3115.083)" fill="#5e6178"/>
        <path id="Trazado_902962" data-name="Trazado 902962" d="M412.2,3182.93a35.01,35.01,0,0,1-4.862,0,34.822,34.822,0,0,1,4.862,0Z" transform="translate(-405.679 -3127.779)" fill="#5e6178"/>
        <path id="Trazado_902963" data-name="Trazado 902963" d="M412.2,3201.81a35.162,35.162,0,0,1-4.862,0A35.009,35.009,0,0,1,412.2,3201.81Z" transform="translate(-405.679 -3140.511)" fill="#5e6178"/>
        <path id="Trazado_902964" data-name="Trazado 902964" d="M412.2,3220.682a35.048,35.048,0,0,1-4.862,0,34.784,34.784,0,0,1,4.862,0Z" transform="translate(-405.679 -3153.24)" fill="#5e6178"/>
        <path id="Trazado_902965" data-name="Trazado 902965" d="M412.2,3239.562a34.86,34.86,0,0,1-4.862,0,35.162,35.162,0,0,1,4.862,0Z" transform="translate(-405.679 -3165.971)" fill="#5e6178"/>
        <path id="Trazado_902966" data-name="Trazado 902966" d="M412.2,3258.439a34.86,34.86,0,0,1-4.862,0,34.973,34.973,0,0,1,4.862,0Z" transform="translate(-405.679 -3178.702)" fill="#5e6178"/>
        <path id="Trazado_902967" data-name="Trazado 902967" d="M412.2,3277.336a33.559,33.559,0,0,1-4.862,0,43.3,43.3,0,0,1,4.862,0Z" transform="translate(-405.679 -3191.454)" fill="#5e6178"/>
        <path id="Trazado_902968" data-name="Trazado 902968" d="M539.959,3273.252c0,.046-22.2.084-49.573.084s-49.576-.039-49.576-.084,22.191-.084,49.576-.084S539.959,3273.21,539.959,3273.252Z" transform="translate(-428.251 -3188.698)" fill="#5e6178"/>
        <g id="Grupo_1112835" data-name="Grupo 1112835" transform="translate(6.425 13.013)">
          <g id="Grupo_1112785" data-name="Grupo 1112785" transform="translate(0.103 0.103)">
            <rect id="Rectángulo_405221" data-name="Rectángulo 405221" width="105.557" height="69.237" fill="#fafafa"/>
          </g>
          <path id="Trazado_902969" data-name="Trazado 902969" d="M527.631,3123.063c0-.667-.032-27.009-.082-69.236l.082.081-105.549.021h-.008l.1-.1c0,24.623-.006,48.054-.008,69.236l-.094-.094,105.557.094-105.557.094h-.1v-.1c0-21.182-.005-44.613-.008-69.236v-.1h.111l105.549.021h.082v.082C527.663,3096.054,527.632,3122.4,527.631,3123.063Z" transform="translate(-421.971 -3053.723)" fill="#344154"/>
          <g id="Grupo_1112793" data-name="Grupo 1112793" transform="translate(7.944 26.648)">
            <g id="Grupo_1112789" data-name="Grupo 1112789" transform="translate(24.358 11.689)">
              <path id="Trazado_902970" data-name="Trazado 902970" d="M521.232,3171.458l10.382.144a10.336,10.336,0,0,1-10.382,10.042h-.061Z" transform="translate(-521.171 -3171.458)" fill="#5e6178"/>
              <g id="Grupo_1112786" data-name="Grupo 1112786" transform="translate(3.659 6.149)">
                <path id="Trazado_902971" data-name="Trazado 902971" d="M545.977,3198.251a1.058,1.058,0,0,1-.222.018l-.635.017-2.32.027h-.029l-.019-.023-3.425-4.316-2.761-3.521.053.026-3.056-.028-.854-.019a1.738,1.738,0,0,1-.3-.021,1.624,1.624,0,0,1,.3-.021l.854-.019,3.056-.029h.033l.021.027,2.779,3.506,3.4,4.338-.048-.024,2.32.027.635.016a1.02,1.02,0,0,1,.218.018Z" transform="translate(-532.407 -3190.342)" fill="#344154"/>
              </g>
              <g id="Grupo_1112787" data-name="Grupo 1112787" transform="translate(14.234 15.175)">
                <path id="Trazado_902972" data-name="Trazado 902972" d="M571.6,3218.142c0,.044-1.5.08-3.359.08s-3.359-.035-3.359-.08,1.5-.08,3.359-.08S571.6,3218.1,571.6,3218.142Z" transform="translate(-564.885 -3218.062)" fill="#344154"/>
              </g>
              <g id="Grupo_1112788" data-name="Grupo 1112788" transform="translate(14.234 16.419)">
                <path id="Trazado_902973" data-name="Trazado 902973" d="M571.6,3221.962c0,.044-1.5.08-3.359.08s-3.359-.035-3.359-.08,1.5-.08,3.359-.08S571.6,3221.918,571.6,3221.962Z" transform="translate(-564.885 -3221.882)" fill="#344154"/>
              </g>
            </g>
            <g id="Grupo_1112790" data-name="Grupo 1112790" transform="translate(12.393 0.026)">
              <path id="Trazado_902974" data-name="Trazado 902974" d="M494.81,3145.825l-.146,10.185a10.189,10.189,0,1,1,10.529-10.185Z" transform="translate(-484.427 -3135.64)" fill="#d9a171"/>
            </g>
            <g id="Grupo_1112791" data-name="Grupo 1112791" transform="translate(9.348 0.527)">
              <path id="Trazado_902975" data-name="Trazado 902975" d="M484.449,3143.533a.692.692,0,0,1-.18.042l-.516.083-1.865.261h-.031l-.023-.022-2.488-2.42c-1.2-1.173-2.271-2.24-3.043-3.018l-.91-.927a2.758,2.758,0,0,1-.318-.356,2.7,2.7,0,0,1,.362.311l.945.891c.793.758,1.881,1.813,3.076,2.985l2.468,2.441-.054-.019,1.872-.206.521-.047a.663.663,0,0,1,.184,0Z" transform="translate(-475.074 -3137.179)" fill="#344154"/>
            </g>
            <path id="Trazado_902976" data-name="Trazado 902976" d="M453.085,3135.639c0,.044-1.5.08-3.359.08s-3.359-.036-3.359-.08,1.5-.079,3.359-.079S453.085,3135.595,453.085,3135.639Z" transform="translate(-446.366 -3135.56)" fill="#344154"/>
            <g id="Grupo_1112792" data-name="Grupo 1112792" transform="translate(0 1.244)">
              <path id="Trazado_902977" data-name="Trazado 902977" d="M453.085,3139.459c0,.044-1.5.079-3.359.079s-3.359-.035-3.359-.079,1.5-.08,3.359-.08S453.085,3139.415,453.085,3139.459Z" transform="translate(-446.366 -3139.379)" fill="#344154"/>
            </g>
          </g>
          <g id="Grupo_1112803" data-name="Grupo 1112803" transform="translate(59.216 10.409)">
            <path id="Trazado_902978" data-name="Trazado 902978" d="M611.655,3092.017l-.041-6.329a8.076,8.076,0,0,0-5.221,2.036,7.485,7.485,0,0,0-2.516,6.555,8.909,8.909,0,0,0,.147.919v.022h0l7.626-1.716Z" transform="translate(-603.827 -3085.688)" fill="#d9a171"/>
            <g id="Grupo_1112794" data-name="Grupo 1112794" opacity="0.3">
              <path id="Trazado_902979" data-name="Trazado 902979" d="M611.655,3092.017l-.041-6.329a8.076,8.076,0,0,0-5.221,2.036,7.485,7.485,0,0,0-2.516,6.555,8.909,8.909,0,0,0,.147.919v.022h0l7.626-1.716Z" transform="translate(-603.827 -3085.688)" fill="#fff"/>
            </g>
            <g id="Grupo_1112795" data-name="Grupo 1112795" transform="translate(8.637 0.024)">
              <path id="Trazado_902980" data-name="Trazado 902980" d="M637.4,3090.119a7.509,7.509,0,0,0-6.155-4.309c-.08-.008-.161-.015-.242-.021-.052,0-.1-.009-.154-.012-.151-.009-.3-.012-.46-.013h-.041l.041,6.329.01,1.488,7.628,1.664h.009a7.542,7.542,0,0,0,.169-1.641,8.212,8.212,0,0,0-.8-3.485Z" transform="translate(-630.351 -3085.763)" fill="#d9a171"/>
            </g>
            <g id="Grupo_1112796" data-name="Grupo 1112796" transform="translate(8.637 0.024)" opacity="0.3">
              <path id="Trazado_902981" data-name="Trazado 902981" d="M637.4,3090.119a7.509,7.509,0,0,0-6.155-4.309c-.08-.008-.161-.015-.242-.021-.052,0-.1-.009-.154-.012-.151-.009-.3-.012-.46-.013h-.041l.041,6.329.01,1.488,7.628,1.664h.009a7.542,7.542,0,0,0,.169-1.641,8.212,8.212,0,0,0-.8-3.485Z" transform="translate(-630.351 -3085.763)" fill="#d9a171"/>
            </g>
            <g id="Grupo_1112797" data-name="Grupo 1112797" transform="translate(0.611 8.606)">
              <path id="Trazado_902982" data-name="Trazado 902982" d="M613.328,3112.119l-7.626,1.716a7.817,7.817,0,0,0,15.264-.051l-7.628-1.664" transform="translate(-605.702 -3112.119)" fill="#d9a171"/>
            </g>
            <g id="Grupo_1112798" data-name="Grupo 1112798" transform="translate(20.31 7.364)">
              <path id="Trazado_902983" data-name="Trazado 902983" d="M683.811,3108.407c0,.057-3.943.1-8.806.1s-8.807-.046-8.807-.1,3.942-.1,8.807-.1S683.811,3108.351,683.811,3108.407Z" transform="translate(-666.199 -3108.304)" fill="#344154"/>
            </g>
            <g id="Grupo_1112799" data-name="Grupo 1112799" transform="translate(20.31 5.357)">
              <path id="Trazado_902984" data-name="Trazado 902984" d="M683.811,3102.242c0,.056-3.943.1-8.806.1s-8.807-.046-8.807-.1,3.942-.1,8.807-.1S683.811,3102.185,683.811,3102.242Z" transform="translate(-666.199 -3102.139)" fill="#344154"/>
            </g>
            <g id="Grupo_1112800" data-name="Grupo 1112800" transform="translate(20.31 3.349)">
              <path id="Trazado_902985" data-name="Trazado 902985" d="M683.811,3096.077c0,.057-3.943.1-8.806.1s-8.807-.046-8.807-.1,3.942-.1,8.807-.1S683.811,3096.02,683.811,3096.077Z" transform="translate(-666.199 -3095.974)" fill="#344154"/>
            </g>
            <g id="Grupo_1112801" data-name="Grupo 1112801" transform="translate(20.31 9.232)">
              <path id="Trazado_902986" data-name="Trazado 902986" d="M683.811,3114.143c0,.056-3.943.1-8.806.1s-8.807-.046-8.807-.1,3.942-.1,8.807-.1S683.811,3114.086,683.811,3114.143Z" transform="translate(-666.199 -3114.04)" fill="#344154"/>
            </g>
            <g id="Grupo_1112802" data-name="Grupo 1112802" transform="translate(20.372 11.265)">
              <path id="Trazado_902987" data-name="Trazado 902987" d="M678.487,3120.386c0,.057-2.708.1-6.048.1s-6.048-.046-6.048-.1,2.708-.1,6.048-.1S678.487,3120.329,678.487,3120.386Z" transform="translate(-666.39 -3120.283)" fill="#344154"/>
            </g>
          </g>
          <g id="Grupo_1112831" data-name="Grupo 1112831" transform="translate(60.197 36.308)">
            <g id="Grupo_1112804" data-name="Grupo 1112804" transform="translate(0.859)">
              <rect id="Rectángulo_405222" data-name="Rectángulo 405222" width="1.814" height="20.26" fill="#d9a171"/>
            </g>
            <g id="Grupo_1112805" data-name="Grupo 1112805" transform="translate(4.361 6.881)">
              <rect id="Rectángulo_405223" data-name="Rectángulo 405223" width="1.814" height="13.379" fill="#d9a171"/>
            </g>
            <g id="Grupo_1112806" data-name="Grupo 1112806" transform="translate(7.863 2.518)">
              <rect id="Rectángulo_405224" data-name="Rectángulo 405224" width="1.814" height="17.844" fill="#d9a171"/>
            </g>
            <g id="Grupo_1112807" data-name="Grupo 1112807" transform="translate(11.366 0.782)">
              <rect id="Rectángulo_405225" data-name="Rectángulo 405225" width="1.814" height="19.477" fill="#d9a171"/>
            </g>
            <g id="Grupo_1112808" data-name="Grupo 1112808" transform="translate(14.868 7.293)">
              <rect id="Rectángulo_405226" data-name="Rectángulo 405226" width="1.814" height="12.967" fill="#d9a171"/>
            </g>
            <g id="Grupo_1112809" data-name="Grupo 1112809" transform="translate(18.37 9.836)">
              <rect id="Rectángulo_405227" data-name="Rectángulo 405227" width="1.814" height="10.424" fill="#d9a171"/>
            </g>
            <g id="Grupo_1112810" data-name="Grupo 1112810" transform="translate(21.872 2.079)">
              <rect id="Rectángulo_405228" data-name="Rectángulo 405228" width="1.814" height="18.18" fill="#d9a171"/>
            </g>
            <g id="Grupo_1112811" data-name="Grupo 1112811" transform="translate(25.375 5.357)">
              <rect id="Rectángulo_405229" data-name="Rectángulo 405229" width="1.814" height="14.903" fill="#d9a171"/>
            </g>
            <g id="Grupo_1112812" data-name="Grupo 1112812" transform="translate(28.877 2.738)">
              <rect id="Rectángulo_405230" data-name="Rectángulo 405230" width="1.814" height="17.522" fill="#d9a171"/>
            </g>
            <g id="Grupo_1112813" data-name="Grupo 1112813" transform="translate(32.379 8.322)">
              <rect id="Rectángulo_405231" data-name="Rectángulo 405231" width="1.814" height="11.937" fill="#d9a171"/>
            </g>
            <g id="Grupo_1112814" data-name="Grupo 1112814" transform="translate(35.881 6.051)">
              <rect id="Rectángulo_405232" data-name="Rectángulo 405232" width="1.814" height="14.209" fill="#d9a171"/>
            </g>
            <g id="Grupo_1112815" data-name="Grupo 1112815" transform="translate(0 21.596)">
              <path id="Trazado_902988" data-name="Trazado 902988" d="M645.275,3231.623c0,.042-8.6.075-19.217.075s-19.219-.033-19.219-.075,8.6-.074,19.219-.074S645.275,3231.582,645.275,3231.623Z" transform="translate(-606.839 -3231.549)" fill="#344154"/>
            </g>
            <g id="Grupo_1112816" data-name="Grupo 1112816" transform="translate(0.754 23.191)">
              <path id="Trazado_902989" data-name="Trazado 902989" d="M611.848,3236.521a12.186,12.186,0,0,1-2.693,0A12.186,12.186,0,0,1,611.848,3236.521Z" transform="translate(-609.155 -3236.446)" fill="#344154"/>
            </g>
            <g id="Grupo_1112817" data-name="Grupo 1112817" transform="translate(4.694 23.272)">
              <path id="Trazado_902990" data-name="Trazado 902990" d="M624.474,3236.77a17.364,17.364,0,0,1-3.218,0A17.493,17.493,0,0,1,624.474,3236.77Z" transform="translate(-621.256 -3236.695)" fill="#344154"/>
            </g>
            <g id="Grupo_1112818" data-name="Grupo 1112818" transform="translate(8.503 23.272)">
              <path id="Trazado_902991" data-name="Trazado 902991" d="M636.171,3236.77a17.364,17.364,0,0,1-3.218,0A17.493,17.493,0,0,1,636.171,3236.77Z" transform="translate(-632.953 -3236.695)" fill="#344154"/>
            </g>
            <g id="Grupo_1112819" data-name="Grupo 1112819" transform="translate(12.312 23.272)">
              <path id="Trazado_902992" data-name="Trazado 902992" d="M647.868,3236.77a17.364,17.364,0,0,1-3.218,0,17.492,17.492,0,0,1,3.218,0Z" transform="translate(-644.65 -3236.695)" fill="#344154"/>
            </g>
            <g id="Grupo_1112820" data-name="Grupo 1112820" transform="translate(16.121 23.272)">
              <path id="Trazado_902993" data-name="Trazado 902993" d="M659.565,3236.77a17.365,17.365,0,0,1-3.218,0,17.493,17.493,0,0,1,3.218,0Z" transform="translate(-656.347 -3236.695)" fill="#344154"/>
            </g>
            <g id="Grupo_1112821" data-name="Grupo 1112821" transform="translate(19.93 23.272)">
              <path id="Trazado_902994" data-name="Trazado 902994" d="M671.262,3236.77a17.364,17.364,0,0,1-3.218,0,17.492,17.492,0,0,1,3.218,0Z" transform="translate(-668.044 -3236.695)" fill="#344154"/>
            </g>
            <g id="Grupo_1112822" data-name="Grupo 1112822" transform="translate(23.739 23.272)">
              <path id="Trazado_902995" data-name="Trazado 902995" d="M682.96,3236.77a17.343,17.343,0,0,1-3.218,0,17.514,17.514,0,0,1,3.218,0Z" transform="translate(-679.742 -3236.695)" fill="#344154"/>
            </g>
            <g id="Grupo_1112823" data-name="Grupo 1112823" transform="translate(27.548 23.272)">
              <path id="Trazado_902996" data-name="Trazado 902996" d="M694.657,3236.77a17.343,17.343,0,0,1-3.218,0,17.513,17.513,0,0,1,3.218,0Z" transform="translate(-691.439 -3236.695)" fill="#344154"/>
            </g>
            <g id="Grupo_1112824" data-name="Grupo 1112824" transform="translate(31.356 23.272)">
              <path id="Trazado_902997" data-name="Trazado 902997" d="M706.354,3236.77a17.364,17.364,0,0,1-3.218,0A17.493,17.493,0,0,1,706.354,3236.77Z" transform="translate(-703.136 -3236.695)" fill="#344154"/>
            </g>
            <g id="Grupo_1112825" data-name="Grupo 1112825" transform="translate(35.165 23.272)">
              <path id="Trazado_902998" data-name="Trazado 902998" d="M718.051,3236.77a17.364,17.364,0,0,1-3.218,0A17.493,17.493,0,0,1,718.051,3236.77Z" transform="translate(-714.833 -3236.695)" fill="#344154"/>
            </g>
            <g id="Grupo_1112826" data-name="Grupo 1112826" transform="translate(4.361 6.881)" opacity="0.3">
              <rect id="Rectángulo_405233" data-name="Rectángulo 405233" width="1.814" height="13.379" fill="#fff"/>
            </g>
            <g id="Grupo_1112827" data-name="Grupo 1112827" transform="translate(11.366 0.782)" opacity="0.3">
              <rect id="Rectángulo_405234" data-name="Rectángulo 405234" width="1.814" height="19.477" fill="#fff"/>
            </g>
            <g id="Grupo_1112828" data-name="Grupo 1112828" transform="translate(18.37 9.836)" opacity="0.3">
              <rect id="Rectángulo_405235" data-name="Rectángulo 405235" width="1.814" height="10.424" fill="#fff"/>
            </g>
            <g id="Grupo_1112829" data-name="Grupo 1112829" transform="translate(25.375 5.357)" opacity="0.3">
              <rect id="Rectángulo_405236" data-name="Rectángulo 405236" width="1.814" height="14.903" fill="#fff"/>
            </g>
            <g id="Grupo_1112830" data-name="Grupo 1112830" transform="translate(32.379 8.322)" opacity="0.3">
              <rect id="Rectángulo_405237" data-name="Rectángulo 405237" width="1.814" height="11.937" fill="#fff"/>
            </g>
          </g>
          <g id="Grupo_1112832" data-name="Grupo 1112832" transform="translate(9.436 11.37)">
            <path id="Trazado_902999" data-name="Trazado 902999" d="M454.44,3090.387a1.746,1.746,0,1,1-1.746-1.746,1.746,1.746,0,0,1,1.746,1.746Z" transform="translate(-450.948 -3088.641)" fill="#d9a171"/>
          </g>
          <g id="Grupo_1112833" data-name="Grupo 1112833" transform="translate(16.65 11.636)">
            <path id="Trazado_903000" data-name="Trazado 903000" d="M499.4,3089.561c0,.057-5.888.1-13.149.1s-13.15-.046-13.15-.1,5.886-.1,13.15-.1S499.4,3089.5,499.4,3089.561Z" transform="translate(-473.103 -3089.458)" fill="#d9a171"/>
          </g>
          <g id="Grupo_1112834" data-name="Grupo 1112834" transform="translate(16.842 13.748)">
            <path id="Trazado_903001" data-name="Trazado 903001" d="M484.059,3096.046a1.574,1.574,0,0,1-.407.04c-.262.012-.642.023-1.111.032-.938.019-2.234.031-3.664.031s-2.727-.012-3.665-.031c-.469-.009-.849-.02-1.111-.032a1.574,1.574,0,0,1-.407-.04,1.606,1.606,0,0,1,.407-.04c.262-.013.641-.024,1.111-.033.938-.019,2.233-.03,3.665-.03s2.726.011,3.664.03c.469.009.848.02,1.111.033A1.618,1.618,0,0,1,484.059,3096.046Z" transform="translate(-473.693 -3095.943)" fill="#d9a171"/>
          </g>
        </g>
        <path id="Trazado_903002" data-name="Trazado 903002" d="M631.1,3225.849l3.386,7.681,1.182-3.38,2.9-1.062Z" transform="translate(-556.578 -3156.788)" fill="#5e6178"/>
        <rect id="Rectángulo_405238" data-name="Rectángulo 405238" width="4.256" height="4.256" transform="translate(80.989 74.916)" fill="#fff"/>
        <path id="Trazado_903003" data-name="Trazado 903003" d="M655.1,3247.841s0-.12-.016-.325,0-.515-.02-.873c0-.765-.023-1.813-.036-3.061l.072.071h-4.253c-.02,0,.159-.159.085-.084h0v4.249l-.072-.075,3.061.036.873.02a.355.355,0,1,1,.036.019l-.856.02-3.106.036h-.075v-4.321h0l.085-.085H655.2v.075c0,1.267-.029,2.332-.039,3.106,0,.352,0,.652-.02.857a1.5,1.5,0,0,1-.041.335Z" transform="translate(-569.857 -3168.67)" fill="#5e6178"/>
        <path id="Trazado_903004" data-name="Trazado 903004" d="M657.315,3248.5a17.764,17.764,0,0,1,0-3.464,17.788,17.788,0,0,1,0,3.464Z" transform="translate(-574.2 -3169.729)" fill="#5e6178"/>
        <path id="Trazado_903005" data-name="Trazado 903005" d="M655.635,3250.183a17.669,17.669,0,0,1-3.465,0,17.88,17.88,0,0,1,3.465,0Z" transform="translate(-570.787 -3173.141)" fill="#5e6178"/>
        <rect id="Rectángulo_405239" data-name="Rectángulo 405239" width="4.676" height="78.478" transform="translate(112.167 12.592)" fill="#344154"/>
        <path id="Trazado_903006" data-name="Trazado 903006" d="M749.048,3080.768h0a2.338,2.338,0,0,1,2.338,2.338v11.4a2.338,2.338,0,0,1-2.338,2.338h0a2.338,2.338,0,0,1-2.338-2.338v-11.4A2.338,2.338,0,0,1,749.048,3080.768Z" transform="translate(-634.543 -3058.948)" fill="#5e6178"/>
        <path id="Trazado_903007" data-name="Trazado 903007" d="M471.018,3098.576v-1.2c0-.782,0-1.915-.019-3.354,0-2.882-.023-6.988-.036-11.908l.072.072H454.577c-.023,0,.16-.16.081-.082h0v16.454l-.075-.075,11.911.039,3.351.02h.029l-3.334.02-11.957.036h-.072v-16.487h0c-.075.072.1-.107.088-.088h16.532v.088c-.016,4.94-.029,9.062-.039,11.954,0,1.433,0,2.56-.02,3.338v1.094A.3.3,0,0,1,471.018,3098.576Z" transform="translate(-437.479 -3059.795)" fill="#5e6178"/>
        <path id="Trazado_903008" data-name="Trazado 903008" d="M460.349,3087.964h.9l2.569-.019,9.231-.036h.072v12.771c.016-.02-.163.16-.088.085H460.29v-.075c0-3.813.029-6.991.039-9.228,0-1.1,0-1.953.02-2.572v-.9a.542.542,0,0,1,0,.065v.863c0,.609,0,1.482.02,2.6,0,2.227.023,5.389.036,9.182l-.072-.075h12.7l-.081.084v-12.7l.075.075-9.182-.039-2.6-.02h-.866A.24.24,0,0,1,460.349,3087.964Z" transform="translate(-441.388 -3063.764)" fill="#5e6178"/>
        <path id="Trazado_903009" data-name="Trazado 903009" d="M454.63,3082.3a10.973,10.973,0,0,1,1.921,1.882,5.077,5.077,0,0,1-1.022-.879,5.52,5.52,0,0,1-.9-1Z" transform="translate(-437.571 -3059.98)" fill="#5e6178"/>
        <path id="Trazado_903010" data-name="Trazado 903010" d="M501.439,3082.478a5.007,5.007,0,0,1-.811,1.006,5.2,5.2,0,0,1-.938.9,4.876,4.876,0,0,1,.811-1.01A4.971,4.971,0,0,1,501.439,3082.478Z" transform="translate(-467.958 -3060.102)" fill="#5e6178"/>
        <path id="Trazado_903011" data-name="Trazado 903011" d="M501.506,3129.141a8.256,8.256,0,0,1-.8-.925,7.943,7.943,0,0,1-.8-.918,4.686,4.686,0,0,1,1.583,1.856Z" transform="translate(-468.106 -3090.327)" fill="#5e6178"/>
        <path id="Trazado_903012" data-name="Trazado 903012" d="M456.3,3127.018a5.161,5.161,0,0,1-.853,1,5.083,5.083,0,0,1-.977.878,10.113,10.113,0,0,1,1.83-1.875Z" transform="translate(-437.463 -3090.138)" fill="#5e6178"/>
        <path id="Trazado_903013" data-name="Trazado 903013" d="M468.832,3095.747a.631.631,0,0,1,.127,0h.388l1.485-.02,5.353-.039h.072v7.425l-.088.085H468.76v-.075c.016-2.2.029-4.044.036-5.354,0-.625.016-1.126.02-1.485v-.511a.874.874,0,0,1,0,.143v.4c0,.362,0,.867.016,1.5,0,1.3.023,3.12.039,5.3l-.075-.072h7.349c.078-.074-.1.1-.081.084v-7.349l.075.072-5.3-.035-1.5-.02h-.4Z" transform="translate(-447.1 -3069.01)" fill="#5e6178"/>
        <path id="Trazado_903014" data-name="Trazado 903014" d="M519.852,3293.473c0,.046-26.076.085-58.234.085s-58.237-.039-58.237-.085,26.069-.084,58.237-.084S519.852,3293.424,519.852,3293.473Z" transform="translate(-403.009 -3202.334)" fill="#5e6178"/>
      </g>
      <g id="Grupo_1112841" data-name="Grupo 1112841" transform="translate(416.443 3043.943)">
        <path id="Trazado_903015" data-name="Trazado 903015" d="M667.007,3394.188h-3.963s-8.945-3.23-10.785-2.93c-1.654.28-7.721,4.308-8.909,5.106a.741.741,0,0,0-.287.368h0a1.3,1.3,0,0,0,.723,1.651l.127.052-.055.179a2.159,2.159,0,0,0-.091.727.876.876,0,0,0,1.628.377l-.228.4a1,1,0,0,0-.127.545l.019.37a1,1,0,0,0,.684.889h0a.977.977,0,0,0,1.042-.274,8.5,8.5,0,0,1,3.647-2.279,26.684,26.684,0,0,1,3.582-.651,1.25,1.25,0,0,1,1.156.794h0a36.561,36.561,0,0,0-5.754,2.481,1.768,1.768,0,0,0-.957,1.325c-.059.515.2,1.055,1.221.814,2.185-.508,4.91-1.459,4.91-1.459a4.5,4.5,0,0,1,3.341.345c1.849,1.3,2.7,1.784,4.285,1.257a13.609,13.609,0,0,0,2.758-1.28l3.126-.326S671.051,3395.328,667.007,3394.188Z" transform="translate(-616.683 -3298.507)" fill="#ffbe9d"/>
        <path id="Trazado_903016" data-name="Trazado 903016" d="M684.1,3409.094a1.169,1.169,0,0,1-.212.153,1.391,1.391,0,0,1-.273.164,2.429,2.429,0,0,1-.394.178,4.309,4.309,0,0,1-2.725.092,4.232,4.232,0,0,1-1.674-.909l-.2-.178-.176-.2a3.616,3.616,0,0,1-.326-.44c-.2-.325-.345-.651-.563-.96a1.374,1.374,0,0,0-.892-.618,4.468,4.468,0,0,0-1.2,0,7.091,7.091,0,0,1-2.582-.254,7.43,7.43,0,0,1-2.221-1.062,7.553,7.553,0,0,1-.9-.752.568.568,0,0,1-.15-.6.575.575,0,0,1,.475-.382h0l5.812-.244,1.667-.056H678a.605.605,0,0,1,.153,0l-.153.02-.439.032-1.664.1-5.809.3h0a.411.411,0,0,0-.228.71,7.569,7.569,0,0,0,.886.729,7.327,7.327,0,0,0,2.172,1.035,6.979,6.979,0,0,0,2.523.251,4.415,4.415,0,0,1,1.244,0,1.471,1.471,0,0,1,.573.244,1.833,1.833,0,0,1,.417.439c.225.326.371.674.56.977a3.751,3.751,0,0,0,.326.424l.169.2.186.17a4.126,4.126,0,0,0,1.628.9,4.323,4.323,0,0,0,2.667-.039,6.551,6.551,0,0,0,.885-.42Z" transform="translate(-634.622 -3306.454)" fill="#eb996e"/>
        <path id="Trazado_903017" data-name="Trazado 903017" d="M808.589,3108.714a3.539,3.539,0,0,0-3.81-1.5,4.85,4.85,0,0,0-5.939.586,4.312,4.312,0,0,0-6.187,4.031,3.6,3.6,0,0,0-2.663,6.3,3.458,3.458,0,0,0,1.986,6.59l16.281-11.918a3.542,3.542,0,0,0,.332-4.089Z" transform="translate(-714.375 -3106.457)" fill="#344154"/>
        <path id="Trazado_903018" data-name="Trazado 903018" d="M799.1,3133.724a14.685,14.685,0,0,1,13.517-14.623l.759-.059c8.209-.176,12.944,6.7,12.892,14.91l.977,27.31-.85,3.51-11.052,9.117-5.552-4.917-1.589-8.037s-7.955-.6-8.678-8.443C799.184,3148.7,799.089,3140.842,799.1,3133.724Z" transform="translate(-721.967 -3114.942)" fill="#ffbe9d"/>
        <path id="Trazado_903019" data-name="Trazado 903019" d="M826.869,3239.751a19.109,19.109,0,0,0,10.052-3.833s-1.954,5.845-9.863,5.764Z" transform="translate(-740.691 -3193.763)" fill="#eb996e"/>
        <path id="Trazado_903020" data-name="Trazado 903020" d="M807.888,3183.63a1.123,1.123,0,0,0,1.169,1.045,1.074,1.074,0,0,0,1.078-1.071c0-.011,0-.022,0-.033a1.126,1.126,0,0,0-1.172-1.045,1.075,1.075,0,0,0-1.075,1.074Z" transform="translate(-727.891 -3157.756)" fill="#5e6178"/>
        <path id="Trazado_903021" data-name="Trazado 903021" d="M805.015,3173.961c.15.134.951-.563,2.156-.651s2.143.443,2.26.283c.059-.072-.1-.325-.511-.573a3.091,3.091,0,0,0-1.823-.407,2.974,2.974,0,0,0-1.7.7C805.047,3173.626,804.943,3173.9,805.015,3173.961Z" transform="translate(-725.939 -3151.063)" fill="#5e6178"/>
        <path id="Trazado_903022" data-name="Trazado 903022" d="M839.778,3182.68a1.124,1.124,0,0,0,1.172,1.046,1.075,1.075,0,0,0,1.078-1.072c0-.01,0-.019,0-.029a1.13,1.13,0,0,0-1.172-1.049,1.078,1.078,0,0,0-1.078,1.078Z" transform="translate(-749.397 -3157.115)" fill="#5e6178"/>
        <path id="Trazado_903023" data-name="Trazado 903023" d="M840.445,3170.611c.15.137.951-.56,2.159-.651s2.139.44,2.26.283c.059-.072-.1-.325-.515-.576a3.08,3.08,0,0,0-1.82-.4,2.929,2.929,0,0,0-1.7.7C840.478,3170.276,840.373,3170.569,840.445,3170.611Z" transform="translate(-749.832 -3148.804)" fill="#5e6178"/>
        <path id="Trazado_903024" data-name="Trazado 903024" d="M823.95,3180.958a7.991,7.991,0,0,0-1.986-.2c-.326,0-.609-.045-.677-.25a1.581,1.581,0,0,1,.133-.931q.342-1.152.723-2.419a40.172,40.172,0,0,0,1.557-6.3,40.239,40.239,0,0,0-2.058,6.161l-.687,2.449a1.786,1.786,0,0,0-.062,1.221.765.765,0,0,0,.541.41,2.038,2.038,0,0,0,.531.033A7.544,7.544,0,0,0,823.95,3180.958Z" transform="translate(-736.6 -3149.887)" fill="#5e6178"/>
        <path id="Trazado_903025" data-name="Trazado 903025" d="M834.151,3203.567c-.2,0-.094,1.3-1.143,2.335s-2.455.977-2.449,1.169c0,.085.326.232.921.2a3.26,3.26,0,0,0,2.051-.9,2.861,2.861,0,0,0,.873-1.955C834.411,3203.867,834.239,3203.554,834.151,3203.567Z" transform="translate(-743.18 -3171.946)" fill="#5e6178"/>
        <path id="Trazado_903026" data-name="Trazado 903026" d="M839.564,3160.03c.169.3,1.185-.065,2.449-.143s2.338.1,2.445-.225c.042-.153-.189-.42-.651-.651a3.768,3.768,0,0,0-1.915-.325,3.628,3.628,0,0,0-1.814.622C839.665,3159.584,839.489,3159.884,839.564,3160.03Z" transform="translate(-749.241 -3141.668)" fill="#5e6178"/>
        <path id="Trazado_903027" data-name="Trazado 903027" d="M805.008,3163.953c.212.277,1.045,0,2.048-.02s1.853.192,2.048-.1c.088-.136-.046-.414-.417-.674a2.97,2.97,0,0,0-3.3.092C805.043,3163.549,804.926,3163.819,805.008,3163.953Z" transform="translate(-725.932 -3144.389)" fill="#5e6178"/>
        <path id="Trazado_903028" data-name="Trazado 903028" d="M800.407,3128.134s1.68-5.083,3.96-6.421c2.761-1.628,4.249,1.437,6.923.454s5.311-2.537,8.277-.652c3.256,2.071,1.954,3.81,2.41,7.281,1.892,14.069,4.793,17.86,4.995,11.146.023-.736,2-1.479,2.055-4.582.069-4.028-.163-8.889-1.283-11.653-.941-2.329-2.436-3.872-5.024-5.5-4.087-2.565-9.388-2.2-12.956-1.556S799.6,3122,800.407,3128.134Z" transform="translate(-722.8 -3113.015)" fill="#344154"/>
        <path id="Trazado_903029" data-name="Trazado 903029" d="M880.534,3184a2.136,2.136,0,0,1,2.033-2.235h.106c1.475.022,3.172.723,3.315,3.758.257,5.385-5.21,4.533-5.21,4.379S880.622,3186.248,880.534,3184Z" transform="translate(-776.88 -3157.239)" fill="#ffbe9d"/>
        <path id="Trazado_903030" data-name="Trazado 903030" d="M884.559,3191.394c.023-.017.1.062.26.127a.917.917,0,0,0,.7-.02,2.322,2.322,0,0,0,.977-2.133,3.082,3.082,0,0,0-.326-1.328,1.08,1.08,0,0,0-.739-.687.474.474,0,0,0-.54.283c-.065.154-.026.26-.055.271s-.121-.084-.088-.326a.623.623,0,0,1,.2-.348.714.714,0,0,1,.514-.16,1.3,1.3,0,0,1,1.019.788,3.187,3.187,0,0,1,.4,1.485,2.474,2.474,0,0,1-1.257,2.39,1.015,1.015,0,0,1-.866-.1C884.575,3191.524,884.539,3191.407,884.559,3191.394Z" transform="translate(-779.593 -3160.821)" fill="#eb996e"/>
        <path id="Trazado_903031" data-name="Trazado 903031" d="M832,3125.812a5.077,5.077,0,0,1-2.191,1.231,1.759,1.759,0,0,1-2.042-1.077c-.094-.368-.036-.811-.306-1.078-.326-.325-.853-.173-1.3-.088a3.442,3.442,0,0,1-3.754-2.175,1.428,1.428,0,0,1-1.915.326,8.068,8.068,0,0,1-1.586-1.449,2.221,2.221,0,0,0-1.918-.775,5.376,5.376,0,0,1-1.146.353c-.71,0-1.12-.8-1.283-1.5s-.326-1.5-.938-1.833a2.669,2.669,0,0,0-1.924.1c-.642.15-1.5.062-1.71-.56a1.271,1.271,0,0,1,.163-.993,3.489,3.489,0,0,1,4-1.645,4.729,4.729,0,0,1,8.59-1.606,4.8,4.8,0,0,1,7.786,1.134,3.478,3.478,0,0,1,4.311,4.735,3.3,3.3,0,0,1,2.022,2.475,1.893,1.893,0,0,1-1.983,2.1,1.928,1.928,0,0,1-3.168,2.182" transform="translate(-729.277 -3109.449)" fill="#344154"/>
        <path id="Trazado_903032" data-name="Trazado 903032" d="M871.5,3149.468a1.287,1.287,0,0,1-.251,1.058,1.747,1.747,0,0,1-1.026.73,1.859,1.859,0,0,1-1.566-.326l.225-.052a5.48,5.48,0,0,1-.977,1.423,3.077,3.077,0,0,1-.928.688,2.078,2.078,0,0,1-1.075.185,2.106,2.106,0,0,1-1.628-.766,3.04,3.04,0,0,1-.524-1.081,1.094,1.094,0,0,1-.078-.43,1.523,1.523,0,0,1,.192.387,3.547,3.547,0,0,0,.576.977,2.208,2.208,0,0,0,3.233-.182,5.424,5.424,0,0,0,.922-1.335l.081-.166.143.114a1.657,1.657,0,0,0,1.329.31,1.586,1.586,0,0,0,.931-.593,2.609,2.609,0,0,0,.421-.941Z" transform="translate(-765.508 -3135.462)" fill="#344154"/>
        <path id="Trazado_903033" data-name="Trazado 903033" d="M824.65,3111.121c0,.02-.137.049-.368.17a1.858,1.858,0,0,0-.778.775l-.055.107-.081-.091a6.684,6.684,0,0,0-2.764-1.9,5.242,5.242,0,0,0-2.152-.3,4.4,4.4,0,0,0-2.221.83,4.474,4.474,0,0,0-1.254,1.394,3.644,3.644,0,0,0-.459,1.664v.172l-.166-.033a3.034,3.034,0,0,0-2.211.449,2.954,2.954,0,0,0-1.117,1.407,4.023,4.023,0,0,0-.209,1.628,1.1,1.1,0,0,1-.1-.436,3.018,3.018,0,0,1,.147-1.24,3.072,3.072,0,0,1,1.143-1.547,3.256,3.256,0,0,1,2.4-.531l-.17.14a3.885,3.885,0,0,1,.482-1.814,4.7,4.7,0,0,1,1.335-1.494,4.634,4.634,0,0,1,2.38-.879,5.432,5.432,0,0,1,2.279.325,6.542,6.542,0,0,1,2.8,2.045h-.137a1.838,1.838,0,0,1,.889-.779.867.867,0,0,1,.387-.063Z" transform="translate(-729.788 -3108.567)" fill="#344154"/>
        <path id="Trazado_903034" data-name="Trazado 903034" d="M787.589,3282.335c-.3,0-.915-25.219-.915-25.219l-17.222-6.148-13.214,11.9-6.744-10.615-5.936,2.729a49.887,49.887,0,0,0-4.689,2.158c-1.882,1.436-5.812,4.885-6.923,9.066-1.693,6.4-4.35,27.678-4.35,27.678l-16.177,5.708.352,10.42,15.832,2.478c3.82-.137,8.443-1.752,9.931-4.4v5.562h48.638S787.882,3282.335,787.589,3282.335Z" transform="translate(-662.834 -3203.912)" fill="#d9a171"/>
        <path id="Trazado_903035" data-name="Trazado 903035" d="M791.99,3317.838a.589.589,0,0,1,0,.1v1.489c-.02,1.022-.062,2.5-.143,4.331s-.2,4-.283,6.421-.121,5.074-.137,7.864c-.026,5.584,0,10.641,0,14.3v5.816a.373.373,0,0,1,0,.108.466.466,0,0,1,0-.1v-.309c0-.28-.016-.674-.026-1.176,0-1.035-.029-2.514-.052-4.334-.033-3.66-.065-8.717-.039-14.3.016-2.79.052-5.451.15-7.871s.225-4.594.326-6.421.16-3.3.2-4.327c.02-.5.033-.9.045-1.179a1.643,1.643,0,0,1,.016-.307.43.43,0,0,1-.057-.105Z" transform="translate(-716.704 -3249.008)" fill="#5e6178"/>
        <g id="Grupo_1112837" data-name="Grupo 1112837" transform="translate(72.817 71.224)" opacity="0.3">
          <path id="Trazado_903036" data-name="Trazado 903036" d="M788.306,3325.188c-2.758,10.4-3.491,21.67-.72,32.068C787.639,3345.679,787.574,3334.839,788.306,3325.188Z" transform="translate(-785.838 -3325.188)"/>
        </g>
        <g id="Grupo_1112838" data-name="Grupo 1112838" transform="translate(115.79 71.478)" opacity="0.3">
          <path id="Trazado_903037" data-name="Trazado 903037" d="M917.809,3326.8q1.515,9.739,3.012,19.469a1.305,1.305,0,0,0,.212.632c.326.41.958.3,1.459.159,1.218-.355,3.136-.486,3.794-1.573l.159-2.771a11.43,11.43,0,0,0-1.371-2.416q-3.546-7.165-7.086-14.328" transform="translate(-917.809 -3325.968)"/>
        </g>
        <path id="Trazado_903038" data-name="Trazado 903038" d="M925.819,3269.7s5.624,3.165,7.708,7.619c2.543,5.435,13.8,25.015,14.213,29.9s.248,10.469-8.085,12.133a93.7,93.7,0,0,1-17.033,1.553l-3.4-10.12,9.551-4.933-2.381-2.09a5.582,5.582,0,0,1-1.27-1.628l-7.186-13.839" transform="translate(-802.107 -3216.544)" fill="#d9a171"/>
        <path id="Trazado_903039" data-name="Trazado 903039" d="M917.939,3288.331s.065.107.179.326l.508.957,1.931,3.683,3.035,5.813.918,1.758.479.918a8.351,8.351,0,0,0,.524.925,5.593,5.593,0,0,0,.7.831c.264.254.557.5.84.749l1.765,1.546.072.062-.085.042-9.547,4.943.036-.088,3.406,10.117-.075-.055c2.761,0,5.646-.127,8.606-.387,1.482-.127,2.979-.293,4.49-.508s3.038-.453,4.559-.811l.749-.182c.247-.068.488-.163.729-.245s.488-.156.723-.257l.69-.325c.117-.055.231-.1.345-.163l.326-.2c.215-.133.433-.26.651-.4a8.594,8.594,0,0,0,1.126-.977,6.95,6.95,0,0,0,1.547-2.51,10.819,10.819,0,0,0,.593-2.862,22.589,22.589,0,0,0,0-2.893,12.527,12.527,0,0,0-.146-1.413,12.7,12.7,0,0,0-.362-1.358c-.283-.9-.622-1.758-.977-2.605s-.723-1.677-1.091-2.494c-1.5-3.257-3.054-6.3-4.523-9.14s-2.869-5.46-4.135-7.861l-1.8-3.435c-.28-.544-.55-1.074-.8-1.592-.124-.26-.247-.514-.371-.768s-.251-.488-.375-.726a14.66,14.66,0,0,0-1.745-2.432,22.205,22.205,0,0,0-1.791-1.774,27.006,27.006,0,0,0-2.768-2.13c-.326-.225-.589-.388-.762-.5l-.26-.166s.094.048.27.15.436.263.772.481a25.756,25.756,0,0,1,2.79,2.11,21.775,21.775,0,0,1,1.81,1.772,14.683,14.683,0,0,1,1.765,2.439c.127.238.26.482.384.733s.244.5.371.761c.257.518.527,1.045.807,1.589l1.807,3.426c1.276,2.4,2.68,5.021,4.158,7.857s3.031,5.861,4.536,9.137c.375.817.746,1.647,1.1,2.5s.694,1.719.977,2.6a12.1,12.1,0,0,1,.368,1.381,12.48,12.48,0,0,1,.15,1.433,22.819,22.819,0,0,1,0,2.929,10.972,10.972,0,0,1-.6,2.908,7.053,7.053,0,0,1-1.586,2.566,8.335,8.335,0,0,1-1.149,1.016c-.212.14-.433.271-.651.407l-.326.2-.352.166-.7.326c-.238.1-.489.173-.733.261s-.488.176-.736.247l-.759.182c-1.524.362-3.051.6-4.559.814s-3.015.381-4.5.511c-2.966.258-5.861.388-8.626.381h-.059l-.016-.055c-1.2-3.559-2.335-6.968-3.393-10.123l-.019-.059.055-.03,9.557-4.926v.1l-1.762-1.55c-.283-.254-.573-.492-.843-.755a5.775,5.775,0,0,1-.71-.85,9.039,9.039,0,0,1-.531-.938c-.16-.326-.326-.619-.475-.922q-.469-.908-.912-1.759c-1.169-2.279-2.182-4.233-3.009-5.828l-1.9-3.7c-.215-.424-.381-.746-.492-.977a1.959,1.959,0,0,0-.193-.326Z" transform="translate(-802.107 -3216.577)" fill="#5e6178"/>
        <path id="Trazado_903040" data-name="Trazado 903040" d="M920.3,3268.645a5.422,5.422,0,0,1-.521.326,13.84,13.84,0,0,0-1.368.977,12.811,12.811,0,0,0-4.738,9.655,14.112,14.112,0,0,0,.059,1.684c.036.4.065.615.052.618a.667.667,0,0,1-.042-.156c-.016-.1-.052-.257-.075-.456a10.923,10.923,0,0,1-.111-1.693,12.446,12.446,0,0,1,4.78-9.74,11.727,11.727,0,0,1,1.407-.948c.173-.1.326-.169.407-.215a.293.293,0,0,1,.15-.052Z" transform="translate(-799.151 -3215.832)" fill="#5e6178"/>
        <path id="Trazado_903041" data-name="Trazado 903041" d="M961.366,3368.148a1.836,1.836,0,0,1-.417.12l-1.143.286a32.435,32.435,0,0,0-3.7,1.192,27.487,27.487,0,0,0-3.5,1.679c-.433.247-.778.453-1.016.6a2.171,2.171,0,0,1-.377.212,2.326,2.326,0,0,1,.342-.267c.228-.166.563-.387.977-.651a23.119,23.119,0,0,1,3.513-1.732,26.213,26.213,0,0,1,3.728-1.153c.485-.11.883-.188,1.159-.235a2.425,2.425,0,0,1,.434-.052Z" transform="translate(-824.551 -3282.936)" fill="#5e6178"/>
        <g id="Grupo_1112839" data-name="Grupo 1112839" transform="translate(93.446 47.635)" opacity="0.3">
          <path id="Trazado_903042" data-name="Trazado 903042" d="M861.879,3252.76a3.077,3.077,0,0,0-1.371.68,66.394,66.394,0,0,0-10.772,9.929l-.547,1.012c1.215-.8,2.6-1.628,4.025-1.345a5.6,5.6,0,0,1,2.892,2.237,101.535,101.535,0,0,0,7.965-11.6A3.158,3.158,0,0,0,861.879,3252.76Z" transform="translate(-849.189 -3252.747)"/>
        </g>
        <path id="Trazado_903043" data-name="Trazado 903043" d="M849.03,3256.727l4.858-6.144,7.307-8.724,3.881,3.644-6.806,10.537-4.832-2.908Z" transform="translate(-755.636 -3197.769)" fill="#fff"/>
        <g id="Grupo_1112840" data-name="Grupo 1112840" transform="translate(84.569 49.925)" opacity="0.3">
          <path id="Trazado_903044" data-name="Trazado 903044" d="M821.988,3260.866c.651,3.458,2.25,6.343,2.9,9.8.772-1.009.586-1.439,1.358-2.448a2.785,2.785,0,0,1,1.13-1.007,2.974,2.974,0,0,1,2.5.622,28.258,28.258,0,0,0-3.885-3.559l-.059.28q-1.953-2.426-4-4.777" transform="translate(-821.929 -3259.778)"/>
        </g>
        <path id="Trazado_903045" data-name="Trazado 903045" d="M829.613,3263.319l-6.825-11.631h0l-2.439,2.246,2.309,10.407,3.276-4.217Z" transform="translate(-736.294 -3204.398)" fill="#fff"/>
        <path id="Trazado_903046" data-name="Trazado 903046" d="M829.144,3256.029l-.124-.192-.345-.573-1.3-2.211-4.819-8.156h.091l-2.455,2.156.02-.065c.7,3.152,1.491,6.685,2.344,10.5l-.14-.033,3.256-4.233.052-.069.065.056,3.683,3.194-.072-.019.4-.075-.042.019c1.182-1.052,2.491-2.091,3.764-3.2l.326-.287.046-.039.052.029c1.7.905,3.22,2.028,4.832,2.908l-.111.029,6.809-10.533v.1q-2.022-1.909-3.875-3.647h.1l-8.58,10.42-2.4,2.9-.619.8c-.146.169-.225.254-.225.254s.069-.091.209-.267l.615-.772,2.367-2.93,8.538-10.468.049-.056.055.049,3.881,3.64.049.042-.036.052-6.8,10.544-.042.066-.068-.039c-1.628-.886-3.149-2.01-4.833-2.9h.1l-.326.287c-1.28,1.114-2.6,2.149-3.764,3.2h-.042l-.394.075H829.4l-.033-.026-3.68-3.194h.121l-3.279,4.21-.1.133-.036-.166-2.328-10.518v-.039l.03-.026,2.465-2.146.055-.049.036.066,4.774,8.182,1.286,2.228.326.583C829.111,3255.957,829.144,3256.029,829.144,3256.029Z" transform="translate(-736.099 -3197.573)" fill="#5e6178"/>
        <path id="Trazado_903047" data-name="Trazado 903047" d="M791.328,3278.3c.046,0,0,2.117-.068,4.729a46.528,46.528,0,0,1-.257,4.715c-.059,0-.016-2.116.068-4.728S791.276,3278.3,791.328,3278.3Z" transform="translate(-716.485 -3222.343)" fill="#5e6178"/>
        <path id="Trazado_903048" data-name="Trazado 903048" d="M875.8,3398.334a3.43,3.43,0,0,0-1.189.433,3.72,3.72,0,0,0-1.185,2.816c-.036.325-.046.72.225.912a.932.932,0,0,0,.8,0,24.9,24.9,0,0,0,5.122-2.281,4.092,4.092,0,0,0,2.045-2.094l.055-.411a24.55,24.55,0,0,0-5.873.624Z" transform="translate(-772.079 -3302.871)" fill="#ffbe9d"/>
        <path id="Trazado_903049" data-name="Trazado 903049" d="M900.909,3376.467l1.934,1.622.537-.625-1.941-1.635Z" transform="translate(-790.622 -3288.116)" fill="#344154"/>
        <path id="Trazado_903050" data-name="Trazado 903050" d="M896.77,3387.2c-.033.032-.267-.134-.527-.375s-.44-.462-.41-.5.267.133.527.371S896.8,3387.163,896.77,3387.2Z" transform="translate(-787.197 -3295.195)" fill="#344154"/>
        <path id="Trazado_903051" data-name="Trazado 903051" d="M884.617,3397.7l-2.992,1.045s-2.745-.69-3.907-.958a3,3,0,0,0-2.315.407c-1.406.912-3.826,2.481-4.692,3.057s-3.077,2.407-3.077,2.407-1.6,1.839-1.081,2.894,1.977.906,1.977.906a2.191,2.191,0,0,0,1.739,1.628s-.365.573,1.006.938a18.124,18.124,0,0,0,4.559,0s5.861.241,6.418-.042a32.939,32.939,0,0,0,3.025-2.794l2.09-1.25Z" transform="translate(-767.381 -3302.864)" fill="#ffbe9d"/>
        <path id="Trazado_903052" data-name="Trazado 903052" d="M874.392,3403.938a7.116,7.116,0,0,1-.892.651c-.563.388-1.351.905-2.191,1.514a21.66,21.66,0,0,0-2.055,1.684c-.5.462-.782.775-.8.755s.052-.091.173-.24.306-.358.544-.6a16.473,16.473,0,0,1,2.042-1.732c.844-.613,1.628-1.117,2.224-1.479A7.17,7.17,0,0,1,874.392,3403.938Z" transform="translate(-768.732 -3307.072)" fill="#eb996e"/>
        <path id="Trazado_903053" data-name="Trazado 903053" d="M880.115,3412.3a1.486,1.486,0,0,1-.3.182l-.821.469c-.7.381-1.67.912-2.686,1.579a19.906,19.906,0,0,0-2.465,1.9c-.589.537-.928.9-.947.882a1.255,1.255,0,0,1,.212-.277c.143-.173.368-.41.651-.694a16.422,16.422,0,0,1,2.452-1.953,26.38,26.38,0,0,1,2.725-1.543c.358-.177.651-.326.86-.4A1.183,1.183,0,0,1,880.115,3412.3Z" transform="translate(-771.734 -3312.709)" fill="#eb996e"/>
        <path id="Trazado_903054" data-name="Trazado 903054" d="M886.857,3418.918a1.5,1.5,0,0,1-.27.263c-.182.156-.459.377-.807.628-.7.515-1.723,1.134-2.856,1.8a15.316,15.316,0,0,1-3.1,1.348c-.414.134-.749.231-.977.3a1.827,1.827,0,0,1-.368.082,1.567,1.567,0,0,1,.345-.147c.264-.091.583-.208.977-.346a17.6,17.6,0,0,0,3.051-1.38c1.136-.671,2.162-1.27,2.875-1.755.355-.238.651-.443.833-.583A1.775,1.775,0,0,1,886.857,3418.918Z" transform="translate(-775.496 -3317.175)" fill="#eb996e"/>
        <path id="Trazado_903055" data-name="Trazado 903055" d="M899.631,3426.945a2.512,2.512,0,0,1-.5.514,10.678,10.678,0,0,1-1.384,1.039,11,11,0,0,1-1.527.81,2.5,2.5,0,0,1-.68.235c-.02-.05.977-.469,2.116-1.189S899.6,3426.906,899.631,3426.945Z" transform="translate(-787 -3322.586)" fill="#eb996e"/>
        <path id="Trazado_903056" data-name="Trazado 903056" d="M867.44,3438.051H823.279a2.843,2.843,0,0,1,2.843-2.843H864.6a2.842,2.842,0,0,1,2.842,2.843Z" transform="translate(-738.27 -3328.16)" fill="#5e6178"/>
        <path id="Trazado_903057" data-name="Trazado 903057" d="M638.007,3363.574l-20.423-.1-6.923-32.784a2.931,2.931,0,0,0-2.856-2.325H565.126a2.931,2.931,0,0,0-2.849,3.539l7.03,32.237a2.35,2.35,0,0,0,2.3,1.849h69.357C640.963,3364.343,639.661,3363.574,638.007,3363.574Z" transform="translate(-562.213 -3256.109)" fill="#12263f"/>
        <path id="Trazado_903058" data-name="Trazado 903058" d="M710.661,3366c-.046,0-1.97-8.4-4.3-18.8s-4.181-18.824-4.135-18.837,1.97,8.4,4.3,18.8S710.706,3365.99,710.661,3366Z" transform="translate(-656.635 -3256.109)" fill="#5e6178"/>
        <path id="Trazado_903059" data-name="Trazado 903059" d="M640.2,3381.93a2.744,2.744,0,1,1-4.018-.84A2.912,2.912,0,0,1,640.2,3381.93Z" transform="translate(-611.408 -3291.335)" fill="#fff"/>
        <rect id="Rectángulo_405240" data-name="Rectángulo 405240" width="2.957" height="1.355" rx="0.677" transform="translate(63.358 107.905)" fill="#5e6178"/>
        <path id="Trazado_903060" data-name="Trazado 903060" d="M791.139,3439.508a1.116,1.116,0,0,1,.088.095.876.876,0,0,1,.147.345,1.4,1.4,0,0,1-.537,1.3,1.926,1.926,0,0,1-.977.368,5.317,5.317,0,0,1-1.241-.033,7.106,7.106,0,0,0-1.407-.081,2.179,2.179,0,0,0-.733.169,1.087,1.087,0,0,0-.58.485.692.692,0,0,0,.16.73,1.72,1.72,0,0,0,.7.488,7.061,7.061,0,0,1,.863.371,1.168,1.168,0,0,1,.6.795,1.6,1.6,0,0,1-1.078,1.658,6.264,6.264,0,0,1-2.156.27,35.8,35.8,0,0,1-4.628-.3c-1.6-.189-3.255-.423-4.936-.576a25.961,25.961,0,0,0-4.949,0c-1.6.147-3.136.368-4.617.394a7.8,7.8,0,0,1-2.162-.192,3.033,3.033,0,0,1-1.726-1.094,2.167,2.167,0,0,1-.4-1.849,1.322,1.322,0,0,1,1.384-.977.751.751,0,0,1,.632.541.949.949,0,0,1-.156.781.973.973,0,0,1-.632.41,1.238,1.238,0,0,1-.7-.094,1.661,1.661,0,0,1-.856-.9,3.1,3.1,0,0,1-.215-1.022c-.026-.629.032-1.114.032-1.44v-.374a.637.637,0,0,1,0-.127.9.9,0,0,1,.016.127c0,.084.016.209.019.374,0,.326-.033.815,0,1.433a3.008,3.008,0,0,0,.225,1,1.571,1.571,0,0,0,.817.84,1.146,1.146,0,0,0,.651.085.856.856,0,0,0,.56-.375.844.844,0,0,0,.14-.687.652.652,0,0,0-.541-.453,1.2,1.2,0,0,0-1.244.893,2.049,2.049,0,0,0,.391,1.732,2.869,2.869,0,0,0,1.651,1.029,7.539,7.539,0,0,0,2.12.182c1.472-.029,3.006-.254,4.608-.4a26.016,26.016,0,0,1,4.979,0c1.7.153,3.347.391,4.94.58a36.176,36.176,0,0,0,4.608.309,6.075,6.075,0,0,0,2.1-.254,1.624,1.624,0,0,0,.768-.6,1.259,1.259,0,0,0,.225-.9,1.017,1.017,0,0,0-.524-.7,6.327,6.327,0,0,0-.847-.368,1.877,1.877,0,0,1-.749-.527,1.044,1.044,0,0,1-.212-.407.7.7,0,0,1,.042-.453,1.168,1.168,0,0,1,.651-.54,2.449,2.449,0,0,1,.772-.176,7.368,7.368,0,0,1,1.423.1,5.214,5.214,0,0,0,1.224.046,1.851,1.851,0,0,0,.945-.325,1.369,1.369,0,0,0,.547-1.231.936.936,0,0,0-.225-.475Z" transform="translate(-696.283 -3331.059)" fill="#5e6178"/>
        <path id="Trazado_903061" data-name="Trazado 903061" d="M867.634,3439.38c0,.046-9.691.084-21.641.084s-21.644-.039-21.644-.084,9.674-.081,21.644-.081S867.634,3439.331,867.634,3439.38Z" transform="translate(-738.992 -3330.918)" fill="#344154"/>
      </g>
      <g id="Grupo_1112843" data-name="Grupo 1112843" transform="translate(526.619 3022.604)">
        <path id="Trazado_903062" data-name="Trazado 903062" d="M902.893,3073.809l5.675-.87a17.383,17.383,0,1,0-4.5-4.3h0Z" transform="translate(-900.687 -3040.998)" fill="#6595bf"/>
        <path id="Trazado_903063" data-name="Trazado 903063" d="M902.772,3073.734l.068-.325.215-.977c.192-.879.479-2.178.846-3.865a.036.036,0,0,1,.041-.029h0l-.052.049a17.248,17.248,0,0,1-3.317-10.6,19.6,19.6,0,0,1,.326-2.885,17.367,17.367,0,0,1,22.031-13.445,18.041,18.041,0,0,1,3.852,1.628l.889.58.449.293c.147.1.28.218.42.326l.844.684c.277.228.521.492.785.739a16.257,16.257,0,0,1,1.429,1.567l.173.2.153.215.3.433c.2.29.417.566.593.866s.342.6.515.908c.085.15.172.3.254.453l.209.475.42.941c.131.326.222.652.326.977a17.414,17.414,0,0,1-11.131,21.968q-.674.221-1.363.385l-.723.163-.358.078-.361.042c-.479.056-.948.12-1.41.166a23.833,23.833,0,0,1-2.7-.026,17.319,17.319,0,0,1-8.072-2.813h.026l-4.233.622-1.081.16-.362.049.375-.065,1.087-.173,4.21-.651h.023a17.5,17.5,0,0,0,3.429,1.742,17.226,17.226,0,0,0,4.614,1.029,22.936,22.936,0,0,0,2.677.02c.459-.049.928-.111,1.4-.17l.358-.042.352-.081.72-.163a17.257,17.257,0,0,0,12.763-20.8q-.166-.693-.389-1.371c-.111-.326-.205-.651-.326-.977l-.417-.935-.208-.468c-.078-.15-.166-.3-.251-.449q-.254-.443-.508-.9c-.176-.3-.391-.569-.586-.856l-.3-.427-.15-.215-.173-.2a16.331,16.331,0,0,0-1.442-1.553c-.26-.244-.5-.5-.778-.733l-.83-.651c-.14-.107-.274-.225-.417-.326l-.446-.29-.882-.573a17.992,17.992,0,0,0-3.81-1.628,17.1,17.1,0,0,0-14.826,2.426,17.346,17.346,0,0,0-4.761,5.031,17.157,17.157,0,0,0-2.279,5.861,19.335,19.335,0,0,0-.326,2.866,17.152,17.152,0,0,0,.143,2.683,17.377,17.377,0,0,0,3.162,7.851.039.039,0,0,1,0,.052.036.036,0,0,1-.042,0h0l.055-.02c-.384,1.674-.681,2.96-.883,3.835-.1.434-.179.766-.231.994a1.372,1.372,0,0,1-.108.327Z" transform="translate(-900.566 -3040.924)" fill="#5e6178"/>
        <g id="Grupo_1112842" data-name="Grupo 1112842" transform="translate(8.007 4.64)">
          <path id="Trazado_903064" data-name="Trazado 903064" d="M925.157,3059.716a4.344,4.344,0,0,1,1.313-3.283,4.759,4.759,0,0,1,3.441-1.26,4.835,4.835,0,0,1,3.471,1.245,4.428,4.428,0,0,1,1.313,3.374v1.086a4.29,4.29,0,0,1-1.313,3.275,5.422,5.422,0,0,1-6.905-.007,4.392,4.392,0,0,1-1.321-3.358Zm2.9,1.162a2.034,2.034,0,0,0,.521,1.457,1.793,1.793,0,0,0,1.366.551,1.71,1.71,0,0,0,1.343-.558,2.163,2.163,0,0,0,.5-1.5v-1.117a2.117,2.117,0,0,0-.5-1.464,1.942,1.942,0,0,0-2.717-.008,2.163,2.163,0,0,0-.513,1.532Zm2.747,14.942-2.128-1.147,10.731-17.176,2.128,1.147Zm4.86-3.743a4.289,4.289,0,0,1,1.328-3.282,5.436,5.436,0,0,1,6.906-.016,4.4,4.4,0,0,1,1.321,3.389v1.086a4.322,4.322,0,0,1-1.3,3.268,4.784,4.784,0,0,1-3.456,1.246,4.84,4.84,0,0,1-3.486-1.253,4.377,4.377,0,0,1-1.313-3.321Zm2.9,1.177a2.015,2.015,0,0,0,.543,1.419,1.771,1.771,0,0,0,1.358.588q1.841,0,1.841-2.038v-1.147a2.054,2.054,0,0,0-.513-1.457,1.95,1.95,0,0,0-2.717,0,2.117,2.117,0,0,0-.513,1.5Z" transform="translate(-925.157 -3055.173)" fill="#f2e9e4"/>
        </g>
      </g>
    </g>
  </g>
</svg>
