<svg xmlns="http://www.w3.org/2000/svg" width="400" height="369.109" viewBox="0 0 400 369.109">
  <g id="Grupo_1118348" data-name="Grupo 1118348" transform="translate(-180 -3327.8)">
    <g id="Grupo_1117242" data-name="Grupo 1117242" transform="translate(-735 -1666.666)">
      <rect id="Rectángulo_405611" data-name="Rectángulo 405611" width="400" height="369.109" transform="translate(915 4994.466)" fill="#dcecf7"/>
    </g>
    <g id="fina" transform="translate(-514.345 2078.182)">
      <g id="Grupo_1117243" data-name="Grupo 1117243" transform="translate(756.599 1271.912)">
        <rect id="Rectángulo_406064" data-name="Rectángulo 406064" width="13.003" height="0.218" transform="translate(7.941 299.761)" fill="#ebebeb"/>
        <rect id="Rectángulo_406065" data-name="Rectángulo 406065" width="7.583" height="0.218" transform="translate(111.513 302.136)" fill="#ebebeb"/>
        <rect id="Rectángulo_406066" data-name="Rectángulo 406066" width="29.838" height="0.218" transform="translate(24.627 291.663)" fill="#ebebeb"/>
        <rect id="Rectángulo_406067" data-name="Rectángulo 406067" width="81.754" height="0.218" transform="translate(178.239 293.234)" fill="#ebebeb"/>
        <path id="Trazado_908629" data-name="Trazado 908629" d="M880.211,1518.71h168.517a4.991,4.991,0,0,0,4.983-4.983V1276.852a4.992,4.992,0,0,0-4.983-4.939H880.211a4.983,4.983,0,0,0-4.965,4.94v236.872A4.983,4.983,0,0,0,880.211,1518.71Zm168.517-246.623a4.774,4.774,0,0,1,4.765,4.765v236.871a4.773,4.773,0,0,1-4.765,4.765H880.211a4.773,4.773,0,0,1-4.765-4.765V1276.852a4.773,4.773,0,0,1,4.765-4.765Z" transform="translate(-875.246 -1271.912)" fill="#ebebeb"/>
        <path id="Trazado_908630" data-name="Trazado 908630" d="M841.212,1596.219h5.725v-21.207h-11.72Z" transform="translate(-633.537 -1310.499)" fill="#f0f0f0"/>
        <path id="Trazado_908632" data-name="Trazado 908632" d="M1003.8,1484.354H993.423a17.6,17.6,0,0,1-11.912-4.442H1015.7a17.571,17.571,0,0,1-11.907,4.442Z" transform="translate(-929.966 -1298.392)" fill="#f0f0f0"/>
        <path id="Trazado_908633" data-name="Trazado 908633" d="M938.626,1484.354H928.259a17.6,17.6,0,0,1-11.913-4.442h34.192A17.6,17.6,0,0,1,938.626,1484.354Z" transform="translate(-807.94 -1298.392)" fill="#f0f0f0"/>
        <path id="Trazado_908634" data-name="Trazado 908634" d="M874.076,1484.354H863.709a17.585,17.585,0,0,1-11.913-4.442h34.192a17.6,17.6,0,0,1-11.912,4.442Z" transform="translate(-687.058 -1298.392)" fill="#f0f0f0"/>
        <rect id="Rectángulo_406074" data-name="Rectángulo 406074" width="33.782" height="98.693" transform="translate(246.928 102.394)" fill="#e6dcfb"/>
        <rect id="Rectángulo_406075" data-name="Rectángulo 406075" width="117.587" height="110.309" transform="translate(40.885 36.461)" fill="#e6e6e6"/>
        <rect id="Rectángulo_406076" data-name="Rectángulo 406076" width="117.587" height="110.309" transform="translate(43.844 36.461)" fill="#f5f5f5"/>
        <rect id="Rectángulo_406077" data-name="Rectángulo 406077" width="127.422" height="6.388" transform="translate(40.885 146.77)" fill="#e6e6e6"/>
        <rect id="Rectángulo_406078" data-name="Rectángulo 406078" width="120.859" height="6.388" transform="translate(50.781 146.77)" fill="#f5f5f5"/>
        <rect id="Rectángulo_406079" data-name="Rectángulo 406079" width="106.948" height="98.833" transform="translate(49.167 42.195)" fill="#aed3f2"/>
        <rect id="Rectángulo_406080" data-name="Rectángulo 406080" width="5.926" height="98.833" transform="translate(99.678 42.195)" fill="#f5f5f5"/>
        <rect id="Rectángulo_406081" data-name="Rectángulo 406081" width="2.243" height="98.833" transform="translate(153.873 42.204)" fill="#e6e6e6"/>
        <rect id="Rectángulo_406082" data-name="Rectángulo 406082" width="2.243" height="98.833" transform="translate(97.436 42.195)" fill="#e6e6e6"/>
        <path id="Trazado_908635" data-name="Trazado 908635" d="M915.439,1432.9c2.165-22.411,3.666-58.766,2.5-70.933a1.468,1.468,0,0,0-.6-1.047h0a1.5,1.5,0,0,0-2.383,1.248c.21,6.031.445,21.093-.872,47.073-.637,12.933-1.562,21.818-.925,23.659Z" transform="translate(-772.771 -1283.207)" fill="#5e6178"/>
        <path id="Trazado_908636" data-name="Trazado 908636" d="M878.69,1382.558c6.109-6.842,18.728-11.7,31.548-11.676,5.027,0-15.307,7.95-23.764,16.721-6.571,6.807-13.963,18.265-16.5,24.628C871.6,1398.836,872.53,1389.392,878.69,1382.558Z" transform="translate(-727.959 -1284.512)" fill="#e6e6e6"/>
        <path id="Trazado_908637" data-name="Trazado 908637" d="M946.405,1384.722c-5.114-7.121-16.921-12.6-29.671-13.221-5.018-.245,14.059,8.727,21.183,17.855,5.533,7.113,11.2,18.905,12.755,25.359C951,1401.3,951.519,1391.847,946.405,1384.722Z" transform="translate(-807.883 -1284.59)" fill="#5e6178"/>
        <path id="Trazado_908638" data-name="Trazado 908638" d="M882.743,1354.21c5.239-5.795,15.868-9.913,26.713-9.888,4.268,0-12.96,6.737-20.125,14.155-5.559,5.77-11.834,15.473-13.963,20.857C876.773,1368.007,877.558,1360,882.743,1354.21Z" transform="translate(-731.766 -1281.131)" fill="#5e6178"/>
        <path id="Trazado_908639" data-name="Trazado 908639" d="M940.062,1363.828c-4.363-6.031-14.329-10.673-25.142-11.2-4.241-.2,11.913,7.365,17.934,15.124,4.686,6.021,9.486,16,10.813,21.477C943.981,1377.87,944.391,1369.858,940.062,1363.828Z" transform="translate(-799.393 -1282.188)" fill="#5e6178"/>
        <path id="Trazado_908640" data-name="Trazado 908640" d="M915.342,1466.852h0a12.741,12.741,0,0,0,12.672-12l1.117-19.479H901.466l1.126,19.479A12.732,12.732,0,0,0,915.342,1466.852Z" transform="translate(-773.547 -1292.723)" fill="#6595bf"/>
        <path id="Trazado_908641" data-name="Trazado 908641" d="M899.227,1439.259h31.251l.89-8.107H898.336Z" transform="translate(-773.053 -1292.184)" fill="#6595bf"/>
      </g>
      <g id="Grupo_1117245" data-name="Grupo 1117245" transform="translate(896.157 1302.94)">
        <path id="Trazado_908642" data-name="Trazado 908642" d="M863.226,1619.921l7.289.82,2.688-16.529-7.289-.82Z" transform="translate(-823.804 -1345.139)" fill="#ffc3bd"/>
        <path id="Trazado_908643" data-name="Trazado 908643" d="M901.626,1621.693H908.9l1.806-16.855h-7.278Z" transform="translate(-894.825 -1345.323)" fill="#ffc3bd"/>
        <path id="Trazado_908644" data-name="Trazado 908644" d="M898.513,1623.182h-8.867a.636.636,0,0,0-.62.5l-1.443,6.466a1.063,1.063,0,0,0,1.063,1.291c2.853-.043,4.94-.209,8.535-.209,2.208,0,8.876.228,11.93.228s3.493-3.02,2.2-3.29c-5.6-1.23-9.826-2.923-11.624-4.538a1.746,1.746,0,0,0-1.176-.445Z" transform="translate(-883.84 -1347.659)" fill="#344154"/>
        <path id="Trazado_908645" data-name="Trazado 908645" d="M861.274,1621.714l-7.854-.873a.628.628,0,0,0-.672.427l-2.155,6.257a1.056,1.056,0,0,0,.638,1.351,1.024,1.024,0,0,0,.235.054c2.854.28,6.985.576,10.568.987,4.189.472,4.887,1.594,9.818,1.475,2.994-.07,3.753-3.107,2.5-3.351-5.725-1.109-6.825-1.974-11.345-5.543A3.34,3.34,0,0,0,861.274,1621.714Z" transform="translate(-814.451 -1347.36)" fill="#344154"/>
        <path id="Trazado_908646" data-name="Trazado 908646" d="M794.346,1377.914c2.443,2.016,4.852,3.77,7.34,5.568s5.027,3.492,7.645,5.087,5.3,3.159,8.116,4.565a58.732,58.732,0,0,0,8.954,3.761c.812.253,1.606.472,2.522.689a24.164,24.164,0,0,0,2.714.437c1.641.183,3.177.253,4.713.332,3.063.14,6.109.13,9.076.114,6-.07,11.956-.358,17.943-.873l.087-5.467c-5.873-.75-11.773-1.4-17.615-2.059-2.915-.323-5.829-.672-8.666-1.047-1.423-.192-2.828-.419-4.119-.664a16.58,16.58,0,0,1-1.658-.383c-.506-.175-1.134-.375-1.746-.607a59.388,59.388,0,0,1-7.252-3.543c-2.417-1.388-4.826-2.88-7.2-4.46s-4.738-3.221-7.086-4.887-4.678-3.439-6.877-5.114Z" transform="translate(-753.946 -1315.345)" fill="#ffc3bd"/>
        <path id="Trazado_908647" data-name="Trazado 908647" d="M852.1,1370.512c1.047,6.876,15.525,17.393,15.525,17.393l10.394-12.89a172.737,172.737,0,0,0-14.461-13.754C858.885,1357.439,850.961,1363.025,852.1,1370.512Z" transform="translate(-818.808 -1314.157)" fill="#d9a171"/>
        <path id="Trazado_908648" data-name="Trazado 908648" d="M791.4,1395.667l4.128-2.941.456,9.294s-2.286,0-3.168-1.676Z" transform="translate(-683.895 -1318.321)" fill="#ffc3bd"/>
        <path id="Trazado_908649" data-name="Trazado 908649" d="M790.4,1389.622l.847,9.1-4.128,2.9-.456-9.294Z" transform="translate(-675.037 -1317.925)" fill="#ffc3bd"/>
        <path id="Trazado_908650" data-name="Trazado 908650" d="M871.9,1604.223l-1.379,8.517-7.289-.82,1.379-8.517Z" transform="translate(-822.513 -1345.141)" opacity="0.2" style="isolation: isolate"/>
        <path id="Trazado_908651" data-name="Trazado 908651" d="M902.56,1604.843h7.278l-.934,8.692h-7.278Z" transform="translate(-893.953 -1345.324)" opacity="0.2" style="isolation: isolate"/>
        <path id="Trazado_908652" data-name="Trazado 908652" d="M864.242,1361.306a4.155,4.155,0,0,0-3.152,4.959c.008.037.018.076.027.112a171.067,171.067,0,0,1,3.561,19.892c.689,5.637,1.1,11.022,1.353,15.9.607,11.432.358,20.151.7,23.109l38.826-2.688c3.948-30.894-.672-50.616-3.272-58.619a6.932,6.932,0,0,0-5.672-4.748c-1.493-.192-3.272-.384-5.158-.5-.654,0-1.326-.062-2-.076a144.359,144.359,0,0,0-16.52,1.108c-1.039.122-2.086.279-3.107.437C867.794,1360.547,865.848,1360.948,864.242,1361.306Z" transform="translate(-855.738 -1313.983)" fill="#344154"/>
        <path id="Trazado_908653" data-name="Trazado 908653" d="M880.734,1338.522c1.414,5.239,3.133,14.888-.332,18.693,9,6.057,14.74,14.578,16.4,12.724.872-.969,1.239-12.218.1-13.876-6.022-1-6.179-5.4-5.437-9.6Z" transform="translate(-863.207 -1311.419)" fill="#ffc3bd"/>
        <path id="Trazado_908654" data-name="Trazado 908654" d="M882.394,1357.452s14.67,6.493,16.581,21c-4.032-4.678-12.96-9.766-12.96-9.766l3.936-1.126a40.256,40.256,0,0,0-7.732-2.086c.437-2.007-1.893-6-1.893-6Z" transform="translate(-864.5 -1313.829)" fill="#d9a171"/>
        <path id="Trazado_908655" data-name="Trazado 908655" d="M875.7,1357.182s-1.946,8.291,3.377,21.232c.829-4.94,4.311-13.2,4.311-13.2l-3.6.969s.183-1.67,3.089-3.892c-1.082-2.077-4.468-4.529-4.468-4.529Z" transform="translate(-844.579 -1313.795)" fill="#d9a171"/>
        <path id="Trazado_908656" data-name="Trazado 908656" d="M887.561,1342.232l6.353,4.7a16.534,16.534,0,0,0-.3,2.967c-2.287-.165-5.568-2.435-5.969-4.791A7.92,7.92,0,0,1,887.561,1342.232Z" transform="translate(-865.671 -1311.892)" opacity="0.2" style="isolation: isolate"/>
        <path id="Trazado_908657" data-name="Trazado 908657" d="M876.447,1321.141c3.552.152,5.507,6.266,1.911,11.345S871.673,1320.941,876.447,1321.141Z" transform="translate(-840.279 -1309.206)" fill="#344154"/>
        <path id="Trazado_908658" data-name="Trazado 908658" d="M875.62,1325.942c-.419,7.208-1.03,11.406,2.138,15.508,4.773,6.179,14.007,3.971,16.581-2.967,2.3-6.249,2.618-16.991-4.058-20.674a9.852,9.852,0,0,0-14.661,8.134Z" transform="translate(-856.951 -1308.622)" fill="#ffc3bd"/>
        <path id="Trazado_908659" data-name="Trazado 908659" d="M879.221,1330.318c5.467-3.493,7.391-8.09,7.81-10.4,2.121.5,12.645,5.341,15.883,0s-.872-8.482-6.894-5.193c2.679-4.73.244-7.043-8.177-7.252s-7.289,4.678-7.289,4.678-6.371-2.775-8.631,2.111C869.316,1319.881,874.133,1329.472,879.221,1330.318Z" transform="translate(-861.607 -1307.465)" fill="#344154"/>
        <path id="Trazado_908660" data-name="Trazado 908660" d="M903.239,1310.936c-.076,0-3.189.751-6.772-2.854.637,3.072,6.2,5.123,6.2,5.123Z" transform="translate(-882.849 -1307.545)" fill="#344154"/>
        <path id="Trazado_908661" data-name="Trazado 908661" d="M895.376,1323.417c3.351-1.161,7.418,3.814,5.917,9.818S890.847,1324.98,895.376,1323.417Z" transform="translate(-879.167 -1309.475)" fill="#344154"/>
        <path id="Trazado_908662" data-name="Trazado 908662" d="M895.846,1333.626a6.824,6.824,0,0,0,2.792,4.433c1.974,1.379,3.753-.192,3.866-2.47.1-2.05-.8-5.239-3.1-5.707A3.071,3.071,0,0,0,895.846,1333.626Z" transform="translate(-881.54 -1310.311)" fill="#ffc3bd"/>
        <path id="Trazado_908663" data-name="Trazado 908663" d="M865.125,1513.867c-1.746-21.276-14.578-80.192-14.578-80.192l25.527-1.763s9.844,58.47,10.594,80.672c.785,23.081-8.5,74.371-8.5,74.371l-12.218-1.4S866.887,1535.236,865.125,1513.867Z" transform="translate(-826.26 -1323.309)" fill="#d9a171"/>
        <path id="Trazado_908664" data-name="Trazado 908664" d="M865.125,1513.867c-1.746-21.276-14.578-80.192-14.578-80.192l25.527-1.763s9.844,58.47,10.594,80.672c.785,23.081-8.5,74.371-8.5,74.371l-12.218-1.4S866.887,1535.236,865.125,1513.867Z" transform="translate(-826.26 -1323.309)" fill="#fff" opacity="0.5" style="isolation: isolate"/>
        <path id="Trazado_908665" data-name="Trazado 908665" d="M880.134,1456.792c5.149,6.58,5.239,29.671,3.247,46.759-1.894-12.323-4.878-27.926-7.505-41.017Z" transform="translate(-846.227 -1326.476)" opacity="0.2" style="isolation: isolate"/>
        <path id="Trazado_908666" data-name="Trazado 908666" d="M909.585,1432.992s-2.758,62.293-5.829,83.386c-3.36,23.1-11.9,73.629-11.9,73.629H878.526s2.19-47.553,3.953-70.252c2-25.849,2.05-84.983,2.05-84.983Z" transform="translate(-873.539 -1323.446)" fill="#d9a171"/>
        <path id="Trazado_908667" data-name="Trazado 908667" d="M909.585,1432.992s-2.758,62.293-5.829,83.386c-3.36,23.1-11.9,73.629-11.9,73.629H878.526s2.19-47.553,3.953-70.252c2-25.849,2.05-84.983,2.05-84.983Z" transform="translate(-873.539 -1323.446)" fill="#fff" opacity="0.5" style="isolation: isolate"/>
        <path id="Trazado_908668" data-name="Trazado 908668" d="M910.588,1612.474H894.9v-4.687l17.539-.3Z" transform="translate(-890.679 -1345.66)" fill="#d9a171"/>
        <path id="Trazado_908669" data-name="Trazado 908669" d="M871.708,1610.2l-14.592-1.658.531-4.713,16.337,1.594Z" transform="translate(-819.255 -1345.195)" fill="#d9a171"/>
        <path id="Trazado_908670" data-name="Trazado 908670" d="M884.681,1330.951c-.07.585.183,1.1.567,1.143s.742-.392.82-.977-.183-1.091-.567-1.134S884.751,1330.375,884.681,1330.951Z" transform="translate(-855.4 -1310.331)" fill="#344154"/>
        <path id="Trazado_908671" data-name="Trazado 908671" d="M877.164,1331.86c-.07.584.183,1.091.567,1.143s.742-.393.812-.977-.183-1.091-.559-1.134S877.252,1331.277,877.164,1331.86Z" transform="translate(-841.311 -1310.447)" fill="#344154"/>
        <path id="Trazado_908672" data-name="Trazado 908672" d="M879.32,1332.052a21.011,21.011,0,0,0,2.191,5.315,3.4,3.4,0,0,1-2.854.183Z" transform="translate(-845.578 -1310.596)" fill="#ed847e"/>
        <path id="Trazado_908673" data-name="Trazado 908673" d="M884.945,1328.123a.34.34,0,0,0,.349-.087,2.759,2.759,0,0,1,2.33-.872.349.349,0,0,0,.432-.238.37.37,0,0,0,.013-.076.332.332,0,0,0-.251-.4l-.028-.005a3.4,3.4,0,0,0-2.95,1.074.341.341,0,0,0-.008.482l.008.007A.388.388,0,0,0,884.945,1328.123Z" transform="translate(-857.452 -1309.879)" fill="#344154"/>
        <path id="Trazado_908674" data-name="Trazado 908674" d="M888.965,1340.534h0a5.285,5.285,0,0,1-3.77-3.1.184.184,0,0,1,.1-.236.193.193,0,0,1,.245.114,5,5,0,0,0,3.492,2.854.187.187,0,1,1-.07.367Z" transform="translate(-858.941 -1311.25)" fill="#344154"/>
        <path id="Trazado_908675" data-name="Trazado 908675" d="M876.894,1329.4a.279.279,0,0,0,.21,0,.349.349,0,0,0,.218-.437,3.441,3.441,0,0,0-2.225-2.225.341.341,0,0,0-.416.243v.011a.332.332,0,0,0,.232.408h.012a2.743,2.743,0,0,1,1.746,1.746A.312.312,0,0,0,876.894,1329.4Z" transform="translate(-837.927 -1309.918)" fill="#344154"/>
        <path id="Trazado_908676" data-name="Trazado 908676" d="M900.28,1624.377a2.19,2.19,0,0,0,1.4-.375,1.03,1.03,0,0,0,.358-.873.531.531,0,0,0-.3-.489c-.8-.418-3.15,1.03-3.412,1.2a.158.158,0,0,0-.076.175.165.165,0,0,0,.131.14A8.45,8.45,0,0,0,900.28,1624.377Zm1.082-1.51a.507.507,0,0,1,.218.043.212.212,0,0,1,.113.2.707.707,0,0,1-.235.628,3.576,3.576,0,0,1-2.618.131,7.044,7.044,0,0,1,2.523-1Z" transform="translate(-883.198 -1347.579)" fill="#d9a171"/>
        <path id="Trazado_908677" data-name="Trazado 908677" d="M900.1,1623.862a.153.153,0,0,0,.087,0c.751-.411,2.208-2.007,2.05-2.809a.568.568,0,0,0-.55-.456.929.929,0,0,0-.733.218c-.872.689-1.021,2.792-1.021,2.88a.147.147,0,0,0,.076.157.145.145,0,0,0,.091.01Zm1.443-2.95h.07c.228,0,.244.131.253.175.1.48-.872,1.685-1.579,2.251a4.077,4.077,0,0,1,.872-2.278.607.607,0,0,1,.382-.147Z" transform="translate(-884.886 -1347.328)" fill="#d9a171"/>
        <path id="Trazado_908678" data-name="Trazado 908678" d="M860.506,1622.9h0c1.134.367,3.177.873,4.049.27a.944.944,0,0,0,.41-.794.552.552,0,0,0-.228-.489c-.82-.576-3.9.559-4.241.689a.182.182,0,0,0-.113.166A.164.164,0,0,0,860.506,1622.9Zm4.024-.751h0a.227.227,0,0,1,.087.2.618.618,0,0,1-.27.524c-.489.349-1.684.279-3.255-.166,1.266-.392,2.932-.821,3.439-.559Z" transform="translate(-813.089 -1347.473)" fill="#d9a171"/>
        <path id="Trazado_908679" data-name="Trazado 908679" d="M862.245,1622.626a.192.192,0,0,0,.14,0c.916-.288,2.819-1.658,2.775-2.487,0-.2-.113-.455-.576-.55a1.24,1.24,0,0,0-.987.183c-1,.654-1.422,2.618-1.443,2.618a.19.19,0,0,0,.052.166Zm2.452-2.618c.113.061.122.131.122.166,0,.5-1.291,1.588-2.243,2.025a4.032,4.032,0,0,1,1.215-2.12.877.877,0,0,1,.716-.14.615.615,0,0,1,.192.061Z" transform="translate(-814.827 -1347.197)" fill="#d9a171"/>
        <path id="Trazado_908680" data-name="Trazado 908680" d="M871.156,1373.6c.183,2.845.515,5.489.872,8.22s.812,5.41,1.326,8.116a95.605,95.605,0,0,0,4.48,16.214l.873,2.033.218.506.052.131.087.192.262.541a8.792,8.792,0,0,0,1.2,1.746,10.6,10.6,0,0,0,2.618,2.164,15.517,15.517,0,0,0,2.506,1.215,32.719,32.719,0,0,0,8.954,1.876,75.029,75.029,0,0,0,16.651-.62l-.2-5.467-3.849-.437c-1.291-.152-2.575-.349-3.849-.524-2.548-.375-5.07-.794-7.479-1.353a28.471,28.471,0,0,1-6.432-2.126,3.559,3.559,0,0,1-1.405-1.073c0-.131.253.419-.07-.456l-.576-1.684a109.918,109.918,0,0,1-3.229-14.713c-.419-2.531-.768-5.087-1.117-7.653s-.62-5.175-.872-7.627Z" transform="translate(-868.779 -1315.786)" fill="#ffc3bd"/>
        <path id="Trazado_908681" data-name="Trazado 908681" d="M898.624,1366.944c-3.561,5.969-.524,24.751-.524,24.751l18.677-3.493s1.012-10.752-2.548-19.008C910.362,1360.242,902.935,1359.7,898.624,1366.944Z" transform="translate(-896.893 -1314.402)" fill="#d9a171"/>
        <path id="Trazado_908682" data-name="Trazado 908682" d="M809.332,1427.45l9.905-46.078a9.32,9.32,0,0,1,8.666-7.13h37.945a9.338,9.338,0,0,0-8.666,7.13l-9.9,46.078a9.339,9.339,0,0,1-8.666,7.13H800.666a9.327,9.327,0,0,0,8.666-7.13Z" transform="translate(-761.854 -1315.967)" fill="#344154"/>
        <path id="Trazado_908683" data-name="Trazado 908683" d="M809.332,1427.45l9.905-46.078a9.32,9.32,0,0,1,8.666-7.13h37.945a9.338,9.338,0,0,0-8.666,7.13l-9.9,46.078a9.339,9.339,0,0,1-8.666,7.13H800.666a9.327,9.327,0,0,0,8.666-7.13Z" transform="translate(-761.854 -1315.967)" fill="#d9a171" opacity="0.7" style="isolation: isolate"/>
        <rect id="Rectángulo_406083" data-name="Rectángulo 406083" width="10.525" height="2.801" transform="matrix(-0.09, -0.996, 0.996, -0.09, 117.924, 124.6)" fill="#d9a171"/>
        <rect id="Rectángulo_406084" data-name="Rectángulo 406084" width="4.31" height="1.689" transform="translate(119.886 134.352) rotate(-95.277)" fill="#d9a171"/>
        <path id="Trazado_908684" data-name="Trazado 908684" d="M818.367,1374.242H780.419a7.972,7.972,0,0,1,7.776,7.13l9.844,107.062a7.976,7.976,0,0,0,7.785,7.13h23.689a6.406,6.406,0,0,0,6.524-6.284,6.526,6.526,0,0,0-.04-.846l-9.844-107.062a7.977,7.977,0,0,0-7.785-7.13Z" transform="translate(-714.37 -1315.967)" fill="#d9a171"/>
        <path id="Trazado_908685" data-name="Trazado 908685" d="M770.562,1505.092a6.407,6.407,0,0,1-6.484,7.13h37.953a6.4,6.4,0,0,0,6.517-6.274,6.537,6.537,0,0,0-.041-.855Z" transform="translate(-672.625 -1332.625)" fill="#344154"/>
        <path id="Trazado_908686" data-name="Trazado 908686" d="M770.562,1505.092a6.407,6.407,0,0,1-6.484,7.13h37.953a6.4,6.4,0,0,0,6.517-6.274,6.537,6.537,0,0,0-.041-.855Z" transform="translate(-672.625 -1332.625)" fill="#d9a171" opacity="0.7" style="isolation: isolate"/>
        <g id="Grupo_1117244" data-name="Grupo 1117244" transform="translate(78.702 67.168)" opacity="0.5">
          <path id="Trazado_908687" data-name="Trazado 908687" d="M798.3,1387.539h25.727a1.4,1.4,0,0,0,1.414-1.378,1.492,1.492,0,0,0-.008-.175h0a1.746,1.746,0,0,0-1.693-1.553H798.06a1.4,1.4,0,0,0-1.414,1.379,1.273,1.273,0,0,0,.009.175h0a1.746,1.746,0,0,0,1.649,1.553Z" transform="translate(-796.646 -1384.432)" fill="#fff"/>
          <path id="Trazado_908688" data-name="Trazado 908688" d="M797.467,1397.159H823.15a1.4,1.4,0,0,0,1.423-1.367,1.454,1.454,0,0,0-.009-.184h0a1.746,1.746,0,0,0-1.693-1.553H797.189a1.4,1.4,0,0,0-1.423,1.367,1.433,1.433,0,0,0,.008.184h0A1.746,1.746,0,0,0,797.467,1397.159Z" transform="translate(-795.006 -1385.658)" fill="#fff"/>
          <path id="Trazado_908689" data-name="Trazado 908689" d="M796.589,1406.789h19.4a1.4,1.4,0,0,0,1.414-1.378,1.493,1.493,0,0,0-.008-.176h0a1.747,1.747,0,0,0-1.693-1.553H796.319a1.4,1.4,0,0,0-1.423,1.367,1.421,1.421,0,0,0,.009.184h0A1.746,1.746,0,0,0,796.589,1406.789Z" transform="translate(-787.076 -1386.883)" fill="#fff"/>
          <path id="Trazado_908690" data-name="Trazado 908690" d="M795.719,1416.462h6.571a1.4,1.4,0,0,0,1.421-1.367,1.45,1.45,0,0,0-.008-.175h0a1.746,1.746,0,0,0-1.693-1.553h-6.58a1.4,1.4,0,0,0-1.414,1.379,1.285,1.285,0,0,0,.008.175h0a1.747,1.747,0,0,0,1.694,1.541Z" transform="translate(-772.618 -1388.116)" fill="#fff"/>
          <path id="Trazado_908691" data-name="Trazado 908691" d="M794.811,1426.039h25.7a1.4,1.4,0,0,0,1.414-1.378,1.529,1.529,0,0,0-.008-.175h0a1.746,1.746,0,0,0-1.693-1.553H794.549a1.4,1.4,0,0,0-1.414,1.55h0A1.746,1.746,0,0,0,794.811,1426.039Z" transform="translate(-790.054 -1389.333)" fill="#fff"/>
          <path id="Trazado_908692" data-name="Trazado 908692" d="M793.958,1435.67h15.577a1.4,1.4,0,0,0,1.422-1.367,1.451,1.451,0,0,0-.008-.183h0a1.746,1.746,0,0,0-1.693-1.553H793.687a1.405,1.405,0,0,0-1.421,1.389,1.307,1.307,0,0,0,.008.165h0A1.746,1.746,0,0,0,793.958,1435.67Z" transform="translate(-778.337 -1390.56)" fill="#fff"/>
          <path id="Trazado_908693" data-name="Trazado 908693" d="M793.079,1445.289h25.684a1.4,1.4,0,0,0,1.414-1.378,1.5,1.5,0,0,0-.008-.175h0a1.746,1.746,0,0,0-1.693-1.553H792.817a1.405,1.405,0,0,0-1.421,1.388,1.3,1.3,0,0,0,.008.165h0A1.746,1.746,0,0,0,793.079,1445.289Z" transform="translate(-786.795 -1391.784)" fill="#fff"/>
          <path id="Trazado_908694" data-name="Trazado 908694" d="M792.217,1454.916H811.6a1.4,1.4,0,0,0,1.423-1.367,1.457,1.457,0,0,0-.008-.184h0a1.746,1.746,0,0,0-1.693-1.553H791.939a1.4,1.4,0,0,0-1.423,1.366,1.433,1.433,0,0,0,.009.183h0A1.746,1.746,0,0,0,792.217,1454.916Z" transform="translate(-778.874 -1393.01)" fill="#fff"/>
          <path id="Trazado_908695" data-name="Trazado 908695" d="M791.339,1464.549h6.58a1.4,1.4,0,0,0,1.421-1.387,1.191,1.191,0,0,0-.008-.165h0a1.746,1.746,0,0,0-1.7-1.553h-6.571a1.395,1.395,0,0,0-1.414,1.55h0A1.746,1.746,0,0,0,791.339,1464.549Z" transform="translate(-764.425 -1394.236)" fill="#fff"/>
          <path id="Trazado_908696" data-name="Trazado 908696" d="M790.468,1474.17h25.675a1.4,1.4,0,0,0,1.422-1.367,1.418,1.418,0,0,0-.008-.184h0a1.746,1.746,0,0,0-1.693-1.553H790.18a1.4,1.4,0,0,0-1.414,1.379,1.256,1.256,0,0,0,.008.175h0A1.746,1.746,0,0,0,790.468,1474.17Z" transform="translate(-781.888 -1395.462)" fill="#fff"/>
          <path id="Trazado_908697" data-name="Trazado 908697" d="M789.587,1483.8h15.569a1.4,1.4,0,0,0,1.423-1.367,1.476,1.476,0,0,0-.008-.184h0a1.746,1.746,0,0,0-1.693-1.553h-15.57a1.4,1.4,0,0,0-1.422,1.367,1.421,1.421,0,0,0,.008.183h0a1.746,1.746,0,0,0,1.693,1.554Z" transform="translate(-770.135 -1396.688)" fill="#fff"/>
          <path id="Trazado_908698" data-name="Trazado 908698" d="M788.717,1493.46h25.675a1.4,1.4,0,0,0,1.423-1.367,1.454,1.454,0,0,0-.008-.184h0a1.746,1.746,0,0,0-1.693-1.544H788.429a1.4,1.4,0,0,0-1.413,1.38,1.3,1.3,0,0,0,.008.165h0A1.746,1.746,0,0,0,788.717,1493.46Z" transform="translate(-778.611 -1397.918)" fill="#fff"/>
        </g>
        <path id="Trazado_908699" data-name="Trazado 908699" d="M864.586,1415.825l5.577-4.843,2.618,8.919s-5.664,3.072-7.618.253Z" transform="translate(-824.57 -1320.644)" fill="#ffc3bd"/>
        <path id="Trazado_908700" data-name="Trazado 908700" d="M864.622,1410.582l1.815,7.479-5.271,1.789-2.61-8.919Z" transform="translate(-812.963 -1320.593)" fill="#ffc3bd"/>
      </g>
      <g id="Grupo_1117249" data-name="Grupo 1117249" transform="translate(765.674 1456.16)">
        <path id="Trazado_908701" data-name="Trazado 908701" d="M395.759,5171.87a23.241,23.241,0,1,1-26.437-19.465A23.241,23.241,0,0,1,395.759,5171.87Z" transform="translate(-349.541 -5152.139)" fill="#fd9826"/>
        <g id="Grupo_1117246" data-name="Grupo 1117246" transform="translate(5.529 5.52)">
          <path id="Trazado_908702" data-name="Trazado 908702" d="M393.655,5176.053a17.711,17.711,0,1,1-20.147-14.833A17.711,17.711,0,0,1,393.655,5176.053Z" transform="translate(-358.434 -5161.017)" fill="#fed401"/>
        </g>
        <g id="Grupo_1117247" data-name="Grupo 1117247" transform="translate(5.201 4.853)">
          <path id="Trazado_908703" data-name="Trazado 908703" d="M393.369,5175.095a10.387,10.387,0,0,1-.781-2.036,18.812,18.812,0,0,0-2.829-5.064,18.211,18.211,0,0,0-2.8-2.832,17.762,17.762,0,0,0-3.882-2.372,17.345,17.345,0,0,0-19.29,3.527,17.744,17.744,0,0,0-2.79,3.594,18.139,18.139,0,0,0-1.613,3.645,18.785,18.785,0,0,0-.851,5.736,10.343,10.343,0,0,1-.008,2.179,5.2,5.2,0,0,1-.519-2.147,16.389,16.389,0,0,1,.456-6.032,17.762,17.762,0,0,1,4.436-7.845,18.1,18.1,0,0,1,20.7-3.789,17.787,17.787,0,0,1,6.927,5.768,16.405,16.405,0,0,1,2.564,5.478,5.207,5.207,0,0,1,.278,2.191Z" transform="translate(-357.907 -5159.941)" fill="#e1e1e1"/>
        </g>
        <g id="Grupo_1117248" data-name="Grupo 1117248" transform="translate(15.352 10.842)">
          <path id="Trazado_908704" data-name="Trazado 908704" d="M385.672,5192.075l.5,3.043-2.718.45-.49-2.961a13.053,13.053,0,0,1-7.126-1.054l.945-3.563a11.142,11.142,0,0,0,5.591,1.057l-.752-4.54c-3.138-.232-6.673-.683-7.317-4.566-.476-2.88,1.206-5.7,5.419-6.9l-.5-3.017,2.717-.449.49,2.961a12.466,12.466,0,0,1,5.79.743l-.8,3.569a11.3,11.3,0,0,0-4.392-.725l.765,4.621c3.133.207,6.615.664,7.249,4.495C391.515,5188.065,389.854,5190.853,385.672,5192.075Zm-4.707-11.562-.64-3.858c-1.386.565-1.822,1.442-1.678,2.343.161.953,1.061,1.334,2.318,1.516Zm5.758,5.775c-.157-.951-1.031-1.337-2.267-1.552l.62,3.75c1.313-.52,1.794-1.329,1.65-2.2Z" transform="translate(-374.232 -5169.575)" fill="#e1e1e1"/>
        </g>
      </g>
      <g id="Grupo_1117252" data-name="Grupo 1117252" transform="translate(924.482 1534.651)">
        <path id="Trazado_908705" data-name="Trazado 908705" d="M826.434,1663.35s-3.5-5.892-.8-10.51.159-9.314-2.149-8.359-3.742,4.538-6.605,4.7-4.935-2.23-7.564-.956.159,3.822-3.663,4.859,8.124,7.94,8.124,7.94l-.4,5.036Z" transform="translate(-789.866 -1644.357)" fill="#d9a171"/>
        <path id="Trazado_908706" data-name="Trazado 908706" d="M842.15,1688.907s-.239-5.732-4.935-5.652c-2.815.048-6.488,1.268-8.979,2.238a4.312,4.312,0,0,0-2.148,6.262l.062.1Z" transform="translate(-803.75 -1670.634)" fill="#a66d58"/>
        <path id="Trazado_908707" data-name="Trazado 908707" d="M833.3,1734.978h-74.73s2.386-28.159,21.705-36.889h0a28.188,28.188,0,0,1,7.378-2.174C795.878,1694.647,818.649,1698.251,833.3,1734.978Z" transform="translate(-758.567 -1679.046)" fill="#d9a171"/>
        <g id="Grupo_1117250" data-name="Grupo 1117250" transform="translate(29.997 26.726)">
          <path id="Trazado_908708" data-name="Trazado 908708" d="M861.068,1738.572v-4.9a11.77,11.77,0,0,1,4.41,1.5l1.443-3.549a13.061,13.061,0,0,0-5.85-1.759v-3.143h-2.885v3.2c-4.555.519-6.776,3.143-6.776,6.2,0,4.123,3.573,5.188,6.776,5.97v4.813a11.7,11.7,0,0,1-5.595-2.046l-1.583,3.518a13.63,13.63,0,0,0,7.179,2.305v3.143h2.885v-3.231c4.526-.547,6.716-3.142,6.716-6.137C867.781,1740.386,864.266,1739.321,861.068,1738.572Zm-2.885-.722c-1.268-.4-2.133-.953-2.133-1.962,0-.95.607-1.786,2.133-2.134Zm2.885,8.936v-3.98c1.24.435,2.073.982,2.073,1.991,0,.925-.634,1.675-2.073,1.989Z" transform="translate(-851.008 -1726.72)" fill="#fbcdc8"/>
        </g>
        <g id="Grupo_1117251" data-name="Grupo 1117251" transform="translate(0 19.044)" style="mix-blend-mode: multiply;isolation: isolate">
          <path id="Trazado_908709" data-name="Trazado 908709" d="M806.438,1739.933H758.567s2.386-28.16,21.705-36.889h0S747.3,1735.976,806.438,1739.933Z" transform="translate(-758.567 -1703.044)" fill="#a66d58"/>
        </g>
      </g>
      <g id="Grupo_1117270" data-name="Grupo 1117270" transform="translate(806.969 1427.216) rotate(-43)">
        <g id="Grupo_1117257" data-name="Grupo 1117257" transform="translate(0 0)">
          <path id="Trazado_908710" data-name="Trazado 908710" d="M30.878,55.591l-28.3-9.155a3.72,3.72,0,0,1-2.4-4.687L12.854,2.578a3.72,3.72,0,0,1,4.685-2.4L35.488,5.988,44.751,24.8,35.564,53.2a3.72,3.72,0,0,1-4.685,2.394Z" fill="#d9a171"/>
          <g id="Grupo_1117254" data-name="Grupo 1117254" transform="translate(31.754 5.988)">
            <g id="Grupo_1117253" data-name="Grupo 1117253" transform="translate(0 0)">
              <path id="Trazado_908711" data-name="Trazado 908711" d="M3.735,0,.169,11.024A3.461,3.461,0,0,0,2.4,15.383L13,18.814Z" fill="#f2e9e4"/>
            </g>
          </g>
          <g id="Grupo_1117256" data-name="Grupo 1117256" transform="translate(31.577 18.026)" opacity="0.2">
            <g id="Grupo_1117255" data-name="Grupo 1117255" transform="translate(0 0)">
              <path id="Trazado_908712" data-name="Trazado 908712" d="M.178,0A3.849,3.849,0,0,0,1.933,4.492a3.688,3.688,0,0,0,.323.191c1.3.7,9.891,5.262,9.958,5.054.076-.228.959-2.961.959-2.961l-10.6-3.43S-.045,2.4.178,0Z"/>
            </g>
          </g>
        </g>
        <g id="Grupo_1117259" data-name="Grupo 1117259" transform="translate(16.601 11.544)">
          <g id="Grupo_1117258" data-name="Grupo 1117258" transform="translate(0 0)">
            <path id="Trazado_908713" data-name="Trazado 908713" d="M13.095,4.251A44.075,44.075,0,0,1,6.466,2.391,44.22,44.22,0,0,1,0,.016,44.145,44.145,0,0,1,6.631,1.877,43.968,43.968,0,0,1,13.095,4.251Z" fill="#fafafa"/>
          </g>
        </g>
        <g id="Grupo_1117261" data-name="Grupo 1117261" transform="translate(14.585 17.783)">
          <g id="Grupo_1117260" data-name="Grupo 1117260" transform="translate(0 0)">
            <path id="Trazado_908714" data-name="Trazado 908714" d="M21.55,6.98c-.046.142-4.908-1.3-10.857-3.228S-.045.152,0,.01s4.907,1.3,10.857,3.228S21.6,6.839,21.55,6.98Z" fill="#fafafa"/>
          </g>
        </g>
        <g id="Grupo_1117263" data-name="Grupo 1117263" transform="translate(12.901 22.99)">
          <g id="Grupo_1117262" data-name="Grupo 1117262" transform="translate(0 0)">
            <path id="Trazado_908715" data-name="Trazado 908715" d="M23.491,7.607c-.046.142-5.342-1.443-11.828-3.542S-.045.152,0,.009,5.341,1.451,11.829,3.552,23.537,7.465,23.491,7.607Z" fill="#fafafa"/>
          </g>
        </g>
        <g id="Grupo_1117265" data-name="Grupo 1117265" transform="translate(11.312 27.9)">
          <g id="Grupo_1117264" data-name="Grupo 1117264" transform="translate(0 0)">
            <path id="Trazado_908716" data-name="Trazado 908716" d="M23.491,7.607c-.046.142-5.342-1.443-11.828-3.543S-.045.152,0,.009,5.341,1.451,11.829,3.552,23.537,7.465,23.491,7.607Z" fill="#fafafa"/>
          </g>
        </g>
        <g id="Grupo_1117267" data-name="Grupo 1117267" transform="translate(9.724 32.811)">
          <g id="Grupo_1117266" data-name="Grupo 1117266" transform="translate(0 0)">
            <path id="Trazado_908717" data-name="Trazado 908717" d="M23.49,7.607c-.046.142-5.342-1.443-11.827-3.542S-.045.152,0,.009,5.341,1.451,11.829,3.552,23.537,7.465,23.49,7.607Z" fill="#fafafa"/>
          </g>
        </g>
        <g id="Grupo_1117269" data-name="Grupo 1117269" transform="translate(8.135 37.721)">
          <g id="Grupo_1117268" data-name="Grupo 1117268" transform="translate(0 0)">
            <path id="Trazado_908718" data-name="Trazado 908718" d="M23.491,7.607c-.046.142-5.342-1.443-11.828-3.543S-.045.152,0,.009,5.341,1.451,11.829,3.552,23.537,7.465,23.491,7.607Z" fill="#fafafa"/>
          </g>
        </g>
      </g>
      <g id="Grupo_1117271" data-name="Grupo 1117271" transform="translate(889.628 1495.601) rotate(180)">
        <path id="Trazado_908719" data-name="Trazado 908719" d="M23.789,18.94,11.787,0,0,18.94H4.839V43.16h14.11V18.94Z" fill="#aed3f2" stroke="#000" stroke-linecap="round" stroke-linejoin="round" stroke-width="1.5"/>
      </g>
      <g id="Grupo_1117272" data-name="Grupo 1117272" transform="translate(970.592 1306.092)">
        <path id="Trazado_908720" data-name="Trazado 908720" d="M122.456,161.976l-12-18.94-11.788,18.94H103.5V186.2h14.11v-24.22Z" transform="translate(-98.664 -143.036)" fill="#aed3f2" stroke="#000" stroke-linecap="round" stroke-linejoin="round" stroke-width="1.5"/>
      </g>
      <g id="Grupo_1117303" data-name="Grupo 1117303" transform="translate(751.381 1295.415)">
        <g id="Grupo_1117273" data-name="Grupo 1117273" transform="translate(0.153 0.156)">
          <rect id="Rectángulo_406085" data-name="Rectángulo 406085" width="137.965" height="107.374" fill="#fff"/>
        </g>
        <path id="Trazado_908721" data-name="Trazado 908721" d="M336.513,174.051c0-1.071-.051-42.577-.128-107.374l.128.128-137.955.027h-.008l.156-.156c-.005,38.7-.011,75.311-.015,107.374l-.14-.14,137.965.14-137.965.14h-.14v-.141c0-32.063-.01-68.67-.016-107.374V66.52h.168l137.955.027h.129v.129C336.565,131.474,336.515,172.98,336.513,174.051Z" transform="translate(-198.395 -66.52)" fill="#263238"/>
        <g id="Grupo_1117297" data-name="Grupo 1117297" transform="translate(6.883 14.263)">
          <rect id="Rectángulo_406086" data-name="Rectángulo 406086" width="22.334" height="1.243" fill="#263238"/>
          <g id="Grupo_1117274" data-name="Grupo 1117274" transform="translate(0 2.909)">
            <rect id="Rectángulo_406087" data-name="Rectángulo 406087" width="11.036" height="1.243" fill="#263238"/>
          </g>
          <g id="Grupo_1117296" data-name="Grupo 1117296" transform="translate(12.733 9.068)">
            <g id="Grupo_1117275" data-name="Grupo 1117275" transform="translate(0 68.772)">
              <rect id="Rectángulo_406088" data-name="Rectángulo 406088" width="4.046" height="1.165" fill="#263238"/>
            </g>
            <g id="Grupo_1117276" data-name="Grupo 1117276" transform="translate(9.153 75.004)">
              <rect id="Rectángulo_406089" data-name="Rectángulo 406089" width="5.174" height="1.165" fill="#263238"/>
            </g>
            <g id="Grupo_1117277" data-name="Grupo 1117277" transform="translate(27.163 75.004)">
              <rect id="Rectángulo_406090" data-name="Rectángulo 406090" width="5.174" height="1.165" fill="#263238"/>
            </g>
            <g id="Grupo_1117278" data-name="Grupo 1117278" transform="translate(45.174 75.004)">
              <rect id="Rectángulo_406091" data-name="Rectángulo 406091" width="5.174" height="1.165" fill="#263238"/>
            </g>
            <g id="Grupo_1117279" data-name="Grupo 1117279" transform="translate(63.185 75.004)">
              <rect id="Rectángulo_406092" data-name="Rectángulo 406092" width="5.174" height="1.165" fill="#263238"/>
            </g>
            <g id="Grupo_1117280" data-name="Grupo 1117280" transform="translate(81.195 75.004)">
              <rect id="Rectángulo_406093" data-name="Rectángulo 406093" width="5.174" height="1.165" fill="#263238"/>
            </g>
            <g id="Grupo_1117281" data-name="Grupo 1117281" transform="translate(99.205 75.004)">
              <rect id="Rectángulo_406094" data-name="Rectángulo 406094" width="5.174" height="1.165" fill="#263238"/>
            </g>
            <g id="Grupo_1117282" data-name="Grupo 1117282" transform="translate(0 53.201)">
              <rect id="Rectángulo_406095" data-name="Rectángulo 406095" width="4.046" height="1.165" fill="#263238"/>
            </g>
            <g id="Grupo_1117283" data-name="Grupo 1117283" transform="translate(0 23.896)">
              <rect id="Rectángulo_406096" data-name="Rectángulo 406096" width="4.046" height="1.165" fill="#263238"/>
            </g>
            <g id="Grupo_1117284" data-name="Grupo 1117284" transform="translate(0 9.169)">
              <rect id="Rectángulo_406097" data-name="Rectángulo 406097" width="4.046" height="1.165" fill="#263238"/>
            </g>
            <g id="Grupo_1117285" data-name="Grupo 1117285" transform="translate(0.205 38.548)">
              <rect id="Rectángulo_406098" data-name="Rectángulo 406098" width="4.046" height="1.165" fill="#263238"/>
            </g>
            <g id="Grupo_1117286" data-name="Grupo 1117286" transform="translate(6.018 0)">
              <path id="Trazado_908722" data-name="Trazado 908722" d="M344.477,180.023s-.147.01-.434.014l-1.273.014-4.895.027-18,.045-59.4.041H246.261v-.14c.019-19.865.035-37.346.046-49.869.017-6.253.032-11.266.042-14.729.01-1.72.018-3.053.024-3.964.005-.446.01-.787.012-1.027s.013-.349.013-.349.008.118.013.349.007.58.013,1.027c.005.911.014,2.244.024,3.964.01,3.46.024,8.473.041,14.729.012,12.524.028,30,.047,49.869l-.137-.137h14.076l59.4.041,18,.045,4.895.027,1.273.014C344.33,180.013,344.477,180.023,344.477,180.023Z" transform="translate(-246.261 -110.085)" fill="#263238"/>
            </g>
            <g id="Grupo_1117287" data-name="Grupo 1117287" transform="translate(10.069 38.992)">
              <path id="Trazado_908723" data-name="Trazado 908723" d="M349.129,183.029c0,.076-21.335.139-47.65.139s-47.655-.062-47.655-.139,21.335-.139,47.655-.139S349.129,182.952,349.129,183.029Z" transform="translate(-253.825 -182.89)" fill="#263238"/>
            </g>
            <g id="Grupo_1117288" data-name="Grupo 1117288" transform="translate(10.069 24.339)">
              <path id="Trazado_908724" data-name="Trazado 908724" d="M349.129,155.669c0,.076-21.335.14-47.65.14s-47.655-.063-47.655-.14,21.335-.139,47.655-.139S349.129,155.593,349.129,155.669Z" transform="translate(-253.825 -155.53)" fill="#263238"/>
            </g>
            <g id="Grupo_1117289" data-name="Grupo 1117289" transform="translate(10.069 9.612)">
              <path id="Trazado_908725" data-name="Trazado 908725" d="M349.129,128.171c0,.076-21.335.139-47.65.139s-47.655-.062-47.655-.139,21.335-.139,47.655-.139S349.129,128.094,349.129,128.171Z" transform="translate(-253.825 -128.032)" fill="#263238"/>
            </g>
            <g id="Grupo_1117290" data-name="Grupo 1117290" transform="translate(10.069 53.645)">
              <path id="Trazado_908726" data-name="Trazado 908726" d="M349.129,210.389c0,.076-21.335.139-47.65.139s-47.655-.063-47.655-.139,21.335-.14,47.655-.14S349.129,210.312,349.129,210.389Z" transform="translate(-253.825 -210.249)" fill="#263238"/>
            </g>
            <g id="Grupo_1117291" data-name="Grupo 1117291" transform="translate(11.052 1.083)">
              <path id="Trazado_908727" data-name="Trazado 908727" d="M255.66,177.807v-13l8.1-12.579,5.5,4.218,11.285-17.531L287.2,143.6l9.263-16.172,7.524,6.129,11.285-21.454,12.155,23.979,9.839-12,11.575-3.313v57.032Z" transform="translate(-255.66 -112.106)" fill="#5e6178"/>
            </g>
            <g id="Grupo_1117292" data-name="Grupo 1117292" transform="translate(11.05 5.058)">
              <path id="Trazado_908728" data-name="Trazado 908728" d="M349.982,119.605s-.068.008-.2.011l-.6.011-2.349.02-8.883.036.061-.03-9.527,12.433-.033.043h-.055l-23.831.024.115-.065L294.65,148.767l-9.835,16.35-.1.174-.119-.164-12.915-17.746.188-.006L260.1,165.731l-3.275,5.078-.866,1.327c-.2.3-.3.448-.3.448s.089-.162.277-.467l.835-1.345,3.222-5.111,11.679-18.409.09-.14.1.135,12.947,17.722-.223.01,9.828-16.354,10.03-16.673.039-.065h.076l23.83.024-.087.043,9.579-12.394.024-.03h.038l8.883.036,2.349.021.6.01C349.912,119.6,349.982,119.605,349.982,119.605Z" transform="translate(-255.658 -119.528)" fill="#263238"/>
            </g>
            <g id="Grupo_1117293" data-name="Grupo 1117293" transform="translate(29.247 36.132)">
              <path id="Trazado_908729" data-name="Trazado 908729" d="M291.453,178.43a.911.911,0,1,1-.911-.881A.9.9,0,0,1,291.453,178.43Z" transform="translate(-289.632 -177.549)" fill="#263238"/>
            </g>
            <g id="Grupo_1117294" data-name="Grupo 1117294" transform="translate(56.729 20.508)">
              <path id="Trazado_908730" data-name="Trazado 908730" d="M342.777,149.257a.915.915,0,1,1-.911-.88A.9.9,0,0,1,342.777,149.257Z" transform="translate(-340.948 -148.377)" fill="#263238"/>
            </g>
            <g id="Grupo_1117295" data-name="Grupo 1117295" transform="translate(78.098 16.669)">
              <ellipse id="Elipse_13480" data-name="Elipse 13480" cx="0.914" cy="0.881" rx="0.914" ry="0.881" transform="translate(0 0)" fill="#263238"/>
            </g>
          </g>
        </g>
        <g id="Grupo_1117300" data-name="Grupo 1117300" transform="translate(3.792 3.512)">
          <path id="Trazado_908731" data-name="Trazado 908731" d="M207.6,74.142a1.063,1.063,0,1,1-1.063-1.063A1.063,1.063,0,0,1,207.6,74.142Z" transform="translate(-205.479 -73.079)" fill="#263238"/>
          <g id="Grupo_1117298" data-name="Grupo 1117298" transform="translate(3.089 0)">
            <path id="Trazado_908732" data-name="Trazado 908732" d="M213.372,74.142a1.063,1.063,0,1,1-1.063-1.063A1.063,1.063,0,0,1,213.372,74.142Z" transform="translate(-211.246 -73.079)" fill="#263238"/>
          </g>
          <g id="Grupo_1117299" data-name="Grupo 1117299" transform="translate(6.178 0)">
            <path id="Trazado_908733" data-name="Trazado 908733" d="M219.14,74.142a1.063,1.063,0,1,1-1.063-1.063A1.063,1.063,0,0,1,219.14,74.142Z" transform="translate(-217.014 -73.079)" fill="#263238"/>
          </g>
        </g>
        <g id="Grupo_1117302" data-name="Grupo 1117302" transform="translate(0.308 8.616)">
          <g id="Grupo_1117301" data-name="Grupo 1117301" transform="translate(0 0.14)">
            <line id="Línea_572" data-name="Línea 572" x2="137.696" fill="#263238"/>
          </g>
          <path id="Trazado_908734" data-name="Trazado 908734" d="M336.667,82.748c0,.076-30.825.139-68.844.139s-68.852-.062-68.852-.139,30.82-.14,68.852-.14S336.667,82.671,336.667,82.748Z" transform="translate(-198.971 -82.608)" fill="#263238"/>
        </g>
      </g>
    </g>
  </g>
</svg>
