<svg xmlns="http://www.w3.org/2000/svg" width="400" height="248.751" viewBox="0 0 400 248.751">
  <g id="Grupo_1113177" data-name="Grupo 1113177" transform="translate(-180 -2726)">
    <rect id="Rectángulo_405311" data-name="Rectángulo 405311" width="400" height="248.751" transform="translate(180 2726)" fill="#ddeffd"/>
    <g id="anotar" transform="translate(238.482 2738.012)">
      <g id="Grupo_1112863" data-name="Grupo 1112863" transform="translate(190.273 130.709)">
        <g id="Grupo_1112851" data-name="Grupo 1112851" transform="translate(0.11)">
          <g id="Grupo_1112845" data-name="Grupo 1112845">
            <g id="Grupo_1112844" data-name="Grupo 1112844">
              <rect id="Rectángulo_405244" data-name="Rectángulo 405244" width="25.402" height="3.429" fill="#e1e1e1"/>
            </g>
          </g>
          <g id="Grupo_1112846" data-name="Grupo 1112846" transform="translate(3.357 0.141)">
            <path id="Trazado_903065" data-name="Trazado 903065" d="M4.732,0a7.951,7.951,0,0,1,0,3.149A7.951,7.951,0,0,1,4.732,0Z" transform="translate(-4.575)" fill="#fafafa"/>
          </g>
          <g id="Grupo_1112847" data-name="Grupo 1112847" transform="translate(2.803 0.071)">
            <path id="Trazado_903066" data-name="Trazado 903066" d="M4.732,0a7.951,7.951,0,0,1,0,3.149A7.951,7.951,0,0,1,4.732,0Z" transform="translate(-4.575)" fill="#fafafa"/>
          </g>
          <g id="Grupo_1112848" data-name="Grupo 1112848" transform="translate(23.355 0.141)">
            <path id="Trazado_903067" data-name="Trazado 903067" d="M4.732,0a7.951,7.951,0,0,1,0,3.149A7.951,7.951,0,0,1,4.732,0Z" transform="translate(-4.575)" fill="#fafafa"/>
          </g>
          <g id="Grupo_1112849" data-name="Grupo 1112849" transform="translate(22.818 0.071)">
            <ellipse id="Elipse_13240" data-name="Elipse 13240" cx="0.14" cy="1.61" rx="0.14" ry="1.61" transform="translate(0 0)" fill="#fafafa"/>
          </g>
          <g id="Grupo_1112850" data-name="Grupo 1112850" transform="translate(6.578 1.642)">
            <path id="Trazado_903068" data-name="Trazado 903068" d="M17.516.14c0,.07-2.939.14-6.508.14A54.251,54.251,0,0,1,4.5.14,54.251,54.251,0,0,1,11.008,0C14.577,0,17.516.07,17.516.14Z" transform="translate(-4.5)" fill="#fafafa"/>
          </g>
        </g>
        <g id="Grupo_1112854" data-name="Grupo 1112854" transform="translate(0 15.294)">
          <g id="Grupo_1112852" data-name="Grupo 1112852">
            <rect id="Rectángulo_405245" data-name="Rectángulo 405245" width="25.402" height="6.788" fill="#e1e1e1"/>
          </g>
          <g id="Grupo_1112853" data-name="Grupo 1112853" transform="translate(0.064 0.573)">
            <path id="Trazado_903069" data-name="Trazado 903069" d="M30.252,4.339c-.07,0-.07.07-.14.07a1.139,1.139,0,0,1-.42.21,7.189,7.189,0,0,1-1.749.49,4.756,4.756,0,0,1-2.8-.42,3.635,3.635,0,0,1-1.33-1.19,2.766,2.766,0,0,1-.49-1.959,1.866,1.866,0,0,1,.49-.98A1.329,1.329,0,0,1,24.864,0a1.71,1.71,0,0,1,1.05.56,2.275,2.275,0,0,1,.49,1.19,2.744,2.744,0,0,1-.84,2.379,3.717,3.717,0,0,1-2.449,1.19,6.628,6.628,0,0,1-2.869-.35A5,5,0,0,1,17.8,3.289a2.258,2.258,0,0,1-.56-1.47A1.855,1.855,0,0,1,17.8.28a1.467,1.467,0,0,1,.77-.28,1.863,1.863,0,0,1,.84.21,2.078,2.078,0,0,1,.91,1.4,3.224,3.224,0,0,1-.98,3.009,4.98,4.98,0,0,1-2.869,1.19,6.922,6.922,0,0,1-2.939-.28,3.978,3.978,0,0,1-2.239-1.749,3.112,3.112,0,0,1-.28-2.729,1.54,1.54,0,0,1,1.05-.91,1.623,1.623,0,0,1,1.26.28,2.186,2.186,0,0,1,.63,2.309,4.734,4.734,0,0,1-1.26,1.819,5.446,5.446,0,0,1-3.5,1.33,6.017,6.017,0,0,1-2.729-.63A4.985,4.985,0,0,1,4.92,4.2c-.07-.14-.21-.21-.28-.35l-.14-.14a9.76,9.76,0,0,0,1.889,1.47,5.188,5.188,0,0,0,2.729.56,5.913,5.913,0,0,0,3.359-1.33,3.546,3.546,0,0,0,1.19-1.679A1.869,1.869,0,0,0,13.107.7a1.418,1.418,0,0,0-1.05-.28,1.205,1.205,0,0,0-.84.7,2.766,2.766,0,0,0,.28,2.449,3.99,3.99,0,0,0,2.1,1.61,7.868,7.868,0,0,0,2.869.28,4.156,4.156,0,0,0,2.659-1.12,2.778,2.778,0,0,0,.91-2.659,1.982,1.982,0,0,0-.77-1.19,1.054,1.054,0,0,0-1.26.07,1.411,1.411,0,0,0-.42,1.26,3.067,3.067,0,0,0,.49,1.33,4.667,4.667,0,0,0,2.309,1.54,6.012,6.012,0,0,0,2.729.35,3.456,3.456,0,0,0,2.239-1.12,2.844,2.844,0,0,0,.84-2.169A1.574,1.574,0,0,0,24.864.21a1.128,1.128,0,0,0-.91.42,2.169,2.169,0,0,0-.42.91,2.815,2.815,0,0,0,.42,1.819,3.427,3.427,0,0,0,1.26,1.19,4.53,4.53,0,0,0,2.729.42,7.952,7.952,0,0,0,1.749-.42C30.042,4.409,30.252,4.269,30.252,4.339Z" transform="translate(-4.5)" fill="#fafafa"/>
          </g>
        </g>
        <g id="Grupo_1112862" data-name="Grupo 1112862" transform="translate(2.271 3.375)">
          <g id="Grupo_1112857" data-name="Grupo 1112857" transform="translate(0 0.12)">
            <g id="Grupo_1112856" data-name="Grupo 1112856">
              <g id="Grupo_1112855" data-name="Grupo 1112855">
                <rect id="Rectángulo_405246" data-name="Rectángulo 405246" width="23.163" height="11.756" fill="#ececec"/>
              </g>
            </g>
          </g>
          <g id="Grupo_1112858" data-name="Grupo 1112858" transform="translate(3.741 0.525)">
            <path id="Trazado_903070" data-name="Trazado 903070" d="M4.732,0a103.371,103.371,0,0,1,0,11.406A103.371,103.371,0,0,1,4.732,0Z" transform="translate(-4.575)" fill="#e1e1e1"/>
          </g>
          <g id="Grupo_1112859" data-name="Grupo 1112859" transform="translate(5.495 0.379)">
            <path id="Trazado_903071" data-name="Trazado 903071" d="M4.732,0a100.851,100.851,0,0,1,0,11.267A100.852,100.852,0,0,1,4.732,0Z" transform="translate(-4.575)" fill="#e1e1e1"/>
          </g>
          <g id="Grupo_1112860" data-name="Grupo 1112860" transform="translate(20.432)">
            <path id="Trazado_903072" data-name="Trazado 903072" d="M4.732,0a112.431,112.431,0,0,1,0,11.9A112.431,112.431,0,0,1,4.732,0Z" transform="translate(-4.575)" fill="#e1e1e1"/>
          </g>
          <g id="Grupo_1112861" data-name="Grupo 1112861" transform="translate(18.368 0.159)">
            <path id="Trazado_903073" data-name="Trazado 903073" d="M4.732,0a105.921,105.921,0,0,1,0,11.546A105.921,105.921,0,0,1,4.732,0Z" transform="translate(-4.575)" fill="#e1e1e1"/>
          </g>
        </g>
      </g>
      <rect id="Rectángulo_405247" data-name="Rectángulo 405247" width="156.122" height="103.568" transform="translate(54.71)" fill="#e1e1e1"/>
      <g id="Grupo_1112865" data-name="Grupo 1112865" transform="translate(47.845 187.429)">
        <g id="Grupo_1112864" data-name="Grupo 1112864" transform="translate(7.232 18.71)">
          <path id="Trazado_903074" data-name="Trazado 903074" d="M5.975,14.556a3.742,3.742,0,0,1-1.05-4.549,4.43,4.43,0,0,1,2.169-1.54,7.78,7.78,0,0,0,2.379-1.26c1.26-1.12,1.61-2.939,2.519-4.339A5.511,5.511,0,0,1,16.752,0c2.239.07,4.059,1.889,4.9,3.989a18.951,18.951,0,0,1,.91,6.578c0,1.26-.07,2.589-.98,3.429a4.638,4.638,0,0,1-3.219.77l-12.106-.42" transform="translate(-4.518 0)" fill="#aed3f2"/>
        </g>
        <path id="Trazado_903075" data-name="Trazado 903075" d="M36.34,0H4.5l5.738,34.149a3.674,3.674,0,0,0,2.729,3.009h.14c.07,0,.21.07.28.07a1.938,1.938,0,0,0,.63.07H28.363a2.871,2.871,0,0,0,.77-.07,3.862,3.862,0,0,0,3.219-3.359l2.729-23.513.14-.91h0L36.34.14ZM30.322,21.763H27.033l.35-9.867h3.779Zm1.19-9.867h3.149l-1.19,9.937h-2.8ZM22.2,32.82l-.21-8.607h4.689L26.4,32.82ZM17.1,24.143h4.549l.21,8.607H17.726Zm.35,8.677H13.6c-.35-2.309-.84-5.318-1.33-8.607h4.479Zm-.56-11.057-.77-9.867h5.248l.21,9.937H16.886Zm5.038,0-.21-9.867H27.1l-.35,9.937H21.925Zm-.28-12.246L21.435.35h6.018l-.28,9.167Zm-.35,0H15.906L15.207.35h5.878Zm-5.668,0H9.958c-.21-1.26-.42-2.449-.56-3.569C8.839,2.239,8.559.84,8.489.28h6.438Zm.21,2.379.77,9.937H11.918c-.14-.98-.35-2.029-.49-3.009-.35-2.309-.77-4.689-1.05-6.858h5.458Zm-4.269,9.867H8.489L6.879,11.9h3.149c.49,3.079.98,6.438,1.54,9.867Zm.35,2.379c.49,3.009.91,5.948,1.33,8.607H10.308l-1.47-8.607ZM26.683,32.82l.28-8.607h3.149l-.77,8.607Zm.77-23.3L27.733.35h4.409l-.77,9.167ZM8.139.35c.14.63.7,4.269,1.47,9.167H6.459L4.92.35ZM32.211,32.82H29.762l.77-8.607h2.729Zm2.729-23.3H31.722L32.491.35h3.5Z" transform="translate(-4.5)" fill="#e1e1e1"/>
      </g>
      <g id="Grupo_1112871" data-name="Grupo 1112871" transform="translate(26.722 223.845)">
        <path id="Trazado_903080" data-name="Trazado 903080" d="M214.3.35c0,.14-46.956.35-104.9.35C51.456.63,4.5.49,4.5.35S51.456,0,109.4,0,214.3.14,214.3.35Z" transform="translate(-4.5)" fill="#344154"/>
      </g>
      <g id="Grupo_1112873" data-name="Grupo 1112873" transform="translate(45.224 2.442)">
        <g id="Grupo_1112872" data-name="Grupo 1112872" transform="translate(0.087 0.157)">
          <rect id="Rectángulo_405248" data-name="Rectángulo 405248" width="161.65" height="106.017" transform="translate(0)" fill="#fafafa"/>
        </g>
        <path id="Trazado_903081" data-name="Trazado 903081" d="M166.39,106.227c0-1.05-.07-41.357-.14-106.017l.14.14H4.74L4.88.14V106.157l-.14-.14,161.65.21-161.65.14H4.6V0H166.53V.14C166.46,64.87,166.39,105.178,166.39,106.227Z" transform="translate(-4.6)" fill="#344154"/>
      </g>
      <rect id="Rectángulo_405249" data-name="Rectángulo 405249" width="106.367" height="8.187" transform="translate(68.636 49.755)" fill="#fff"/>
      <rect id="Rectángulo_405250" data-name="Rectángulo 405250" width="106.367" height="8.187" transform="translate(68.636 41.567)" fill="#d9a171"/>
      <rect id="Rectángulo_405251" data-name="Rectángulo 405251" width="106.367" height="8.187" transform="translate(68.636 57.872)" fill="#dbdbdb"/>
      <rect id="Rectángulo_405252" data-name="Rectángulo 405252" width="106.367" height="8.187" transform="translate(68.636 66.06)" fill="#fff"/>
      <rect id="Rectángulo_405253" data-name="Rectángulo 405253" width="106.367" height="8.187" transform="translate(68.636 74.247)" fill="#dbdbdb"/>
      <rect id="Rectángulo_405254" data-name="Rectángulo 405254" width="106.367" height="8.187" transform="translate(68.636 82.435)" fill="#fff"/>
      <rect id="Rectángulo_405255" data-name="Rectángulo 405255" width="106.367" height="8.187" transform="translate(68.636 90.622)" fill="#dbdbdb"/>
      <rect id="Rectángulo_405256" data-name="Rectángulo 405256" width="31.91" height="57.242" transform="translate(68.636 41.567)" fill="#c7c7c7"/>
      <path id="Trazado_903082" data-name="Trazado 903082" d="M91,82.67l53.184-.07,53.184.07-53.184.14Z" transform="translate(-22.364 -24.798)" fill="#344154"/>
      <path id="Trazado_903083" data-name="Trazado 903083" d="M91,94.37l53.184-.07,53.184.07-53.184.14Z" transform="translate(-22.364 -28.31)" fill="#344154"/>
      <path id="Trazado_903084" data-name="Trazado 903084" d="M91,106.04l53.184-.14,53.184.14-53.184.07Z" transform="translate(-22.364 -31.793)" fill="#344154"/>
      <path id="Trazado_903085" data-name="Trazado 903085" d="M91,117.77l53.184-.07,53.184.07-53.184.14Z" transform="translate(-22.364 -35.335)" fill="#344154"/>
      <path id="Trazado_903086" data-name="Trazado 903086" d="M91,129.47l53.184-.07,53.184.07-53.184.14Z" transform="translate(-22.364 -38.848)" fill="#344154"/>
      <path id="Trazado_903087" data-name="Trazado 903087" d="M99.1,65.11c3.359-.14,6.788-.21,10.147-.21s6.788,0,10.217.21c-3.429.14-6.788.21-10.217.21S102.529,65.25,99.1,65.11Z" transform="translate(-24.796 -19.484)" fill="#344154"/>
      <path id="Trazado_903088" data-name="Trazado 903088" d="M99.1,76.81c2.589-.14,5.108-.21,7.7-.21s5.108,0,7.7.21c-2.589.14-5.108.21-7.7.21S101.689,76.95,99.1,76.81Z" transform="translate(-24.796 -22.997)" fill="#344154"/>
      <path id="Trazado_903089" data-name="Trazado 903089" d="M99.1,88.51c3.359-.14,6.788-.21,10.147-.21s6.788,0,10.217.21c-3.429.14-6.788.21-10.217.21S102.529,88.65,99.1,88.51Z" transform="translate(-24.796 -26.509)" fill="#344154"/>
      <path id="Trazado_903090" data-name="Trazado 903090" d="M99.1,100.21q4.2-.21,8.4-.21c2.8,0,5.6,0,8.4.21q-4.2.21-8.4.21T99.1,100.21Z" transform="translate(-24.796 -30.022)" fill="#344154"/>
      <path id="Trazado_903091" data-name="Trazado 903091" d="M99.1,111.81c3.359-.14,6.788-.21,10.147-.21s6.788,0,10.217.21c-3.429.14-6.788.21-10.217.21S102.529,112.02,99.1,111.81Z" transform="translate(-24.796 -33.504)" fill="#344154"/>
      <path id="Trazado_903092" data-name="Trazado 903092" d="M99.1,123.51c3.359-.14,6.788-.21,10.147-.21s6.788,0,10.217.21c-3.429.14-6.788.21-10.217.21S102.529,123.72,99.1,123.51Z" transform="translate(-24.796 -37.017)" fill="#344154"/>
      <path id="Trazado_903093" data-name="Trazado 903093" d="M99.1,135.21c2.029-.14,4.129-.21,6.158-.21s4.129.07,6.158.21c-2.029.14-4.129.21-6.158.21S101.2,135.35,99.1,135.21Z" transform="translate(-24.796 -40.529)" fill="#344154"/>
      <path id="Trazado_903094" data-name="Trazado 903094" d="M147.2,65.11c2.519-.14,5.108-.21,7.628-.21s5.108,0,7.628.21c-2.519.14-5.108.21-7.628.21S149.789,65.25,147.2,65.11Z" transform="translate(-39.236 -19.484)" fill="#344154"/>
      <path id="Trazado_903095" data-name="Trazado 903095" d="M147.2,76.81c2.519-.14,5.108-.21,7.628-.21s5.108,0,7.628.21c-2.519.14-5.108.21-7.628.21S149.789,76.95,147.2,76.81Z" transform="translate(-39.236 -22.997)" fill="#344154"/>
      <path id="Trazado_903096" data-name="Trazado 903096" d="M147.2,88.51c2.519-.14,5.108-.21,7.628-.21s5.108,0,7.628.21c-2.519.14-5.108.21-7.628.21S149.789,88.65,147.2,88.51Z" transform="translate(-39.236 -26.509)" fill="#344154"/>
      <path id="Trazado_903097" data-name="Trazado 903097" d="M147.2,100.21c2.519-.14,5.108-.21,7.628-.21s5.108,0,7.628.21c-2.519.14-5.108.21-7.628.21S149.789,100.35,147.2,100.21Z" transform="translate(-39.236 -30.022)" fill="#344154"/>
      <path id="Trazado_903098" data-name="Trazado 903098" d="M147.2,111.81c2.519-.14,5.108-.21,7.628-.21s5.108,0,7.628.21c-2.519.14-5.108.21-7.628.21S149.789,112.02,147.2,111.81Z" transform="translate(-39.236 -33.504)" fill="#344154"/>
      <path id="Trazado_903099" data-name="Trazado 903099" d="M147.2,123.51c2.519-.14,5.108-.21,7.628-.21s5.108,0,7.628.21c-2.519.14-5.108.21-7.628.21S149.789,123.72,147.2,123.51Z" transform="translate(-39.236 -37.017)" fill="#344154"/>
      <path id="Trazado_903100" data-name="Trazado 903100" d="M147.2,135.21c2.519-.14,5.108-.21,7.628-.21s5.108,0,7.628.21c-2.519.14-5.108.21-7.628.21S149.789,135.42,147.2,135.21Z" transform="translate(-39.236 -40.529)" fill="#344154"/>
      <path id="Trazado_903101" data-name="Trazado 903101" d="M178.8,65.11c2.589-.14,5.108-.21,7.628-.21s5.108,0,7.628.21c-2.519.14-5.108.21-7.628.21S181.389,65.25,178.8,65.11Z" transform="translate(-48.723 -19.484)" fill="#344154"/>
      <path id="Trazado_903102" data-name="Trazado 903102" d="M186.3,123.51a14.392,14.392,0,0,1,4.9,0A14.392,14.392,0,0,1,186.3,123.51Z" transform="translate(-50.975 -37.017)" fill="#344154"/>
      <path id="Trazado_903103" data-name="Trazado 903103" d="M186.3,111.81a15.109,15.109,0,0,1,2.449-.21,14.471,14.471,0,0,1,2.449.21,14.39,14.39,0,0,1-4.9,0Z" transform="translate(-50.975 -33.504)" fill="#344154"/>
      <path id="Trazado_903104" data-name="Trazado 903104" d="M186.3,100.21a14.392,14.392,0,0,1,4.9,0A19.128,19.128,0,0,1,186.3,100.21Z" transform="translate(-50.975 -30.022)" fill="#344154"/>
      <path id="Trazado_903105" data-name="Trazado 903105" d="M186.3,88.51a14.392,14.392,0,0,1,4.9,0A14.392,14.392,0,0,1,186.3,88.51Z" transform="translate(-50.975 -26.509)" fill="#344154"/>
      <path id="Trazado_903106" data-name="Trazado 903106" d="M186.3,76.81a15.107,15.107,0,0,1,2.449-.21,14.47,14.47,0,0,1,2.449.21,14.472,14.472,0,0,1-2.449.21A15.109,15.109,0,0,1,186.3,76.81Z" transform="translate(-50.975 -22.997)" fill="#344154"/>
      <path id="Trazado_903107" data-name="Trazado 903107" d="M210.4,65.11c2.589-.14,5.108-.21,7.628-.21s5.108,0,7.628.21c-2.519.14-5.108.21-7.628.21S212.989,65.25,210.4,65.11Z" transform="translate(-58.21 -19.484)" fill="#344154"/>
      <path id="Trazado_903108" data-name="Trazado 903108" d="M210.4,76.81c2.589-.14,5.108-.21,7.628-.21s5.108,0,7.628.21c-2.519.14-5.108.21-7.628.21S212.989,76.95,210.4,76.81Z" transform="translate(-58.21 -22.997)" fill="#344154"/>
      <path id="Trazado_903109" data-name="Trazado 903109" d="M210.4,88.51c2.589-.14,5.108-.21,7.628-.21s5.108,0,7.628.21c-2.519.14-5.108.21-7.628.21S212.989,88.65,210.4,88.51Z" transform="translate(-58.21 -26.509)" fill="#344154"/>
      <path id="Trazado_903110" data-name="Trazado 903110" d="M210.4,100.21c2.589-.14,5.108-.21,7.628-.21s5.108,0,7.628.21c-2.519.14-5.108.21-7.628.21S212.989,100.35,210.4,100.21Z" transform="translate(-58.21 -30.022)" fill="#344154"/>
      <path id="Trazado_903111" data-name="Trazado 903111" d="M210.4,111.81c2.589-.14,5.108-.21,7.628-.21s5.108,0,7.628.21c-2.519.14-5.108.21-7.628.21S212.989,112.02,210.4,111.81Z" transform="translate(-58.21 -33.504)" fill="#344154"/>
      <path id="Trazado_903112" data-name="Trazado 903112" d="M210.4,123.51c2.589-.14,5.108-.21,7.628-.21s5.108,0,7.628.21c-2.519.14-5.108.21-7.628.21S212.989,123.72,210.4,123.51Z" transform="translate(-58.21 -37.017)" fill="#344154"/>
      <path id="Trazado_903113" data-name="Trazado 903113" d="M210.4,135.21c2.589-.14,5.108-.21,7.628-.21s5.108,0,7.628.21c-2.519.14-5.108.21-7.628.21S212.989,135.42,210.4,135.21Z" transform="translate(-58.21 -40.529)" fill="#344154"/>
      <path id="Trazado_903114" data-name="Trazado 903114" d="M91,38.567q4.409-.21,8.817-.21c2.939,0,5.878,0,8.817-.07s5.878,0,8.817.07l8.817.21q-4.409.21-8.817.21c-2.939,0-5.878,0-8.817.07s-5.878,0-8.817-.07S93.939,38.707,91,38.567Z" transform="translate(-22.364 -11.486)" fill="#344154"/>
      <path id="Trazado_903115" data-name="Trazado 903115" d="M91,43.567c1.819-.14,3.709-.21,5.528-.21s3.709,0,5.528-.07,3.709,0,5.528.07l5.528.21c-1.819.14-3.709.21-5.528.21s-3.709.07-5.528.07-3.709,0-5.528-.07S92.819,43.707,91,43.567Z" transform="translate(-22.364 -12.987)" fill="#344154"/>
      <path id="Trazado_903116" data-name="Trazado 903116" d="M91,48.58c2.589-.14,5.108-.21,7.7-.21s5.108-.07,7.7-.07,5.108,0,7.7.07l7.7.21c-2.589.14-5.108.21-7.7.21s-5.108.07-7.7.07-5.108,0-7.7-.07S93.589,48.72,91,48.58Z" transform="translate(-22.364 -14.5)" fill="#344154"/>
      <g id="Grupo_1112874" data-name="Grupo 1112874" transform="translate(116.319 151.498)">
        <rect id="Rectángulo_405257" data-name="Rectángulo 405257" width="36.039" height="1.749" transform="translate(0 0)" fill="#344154"/>
      </g>
      <path id="Trazado_903117" data-name="Trazado 903117" d="M148.288,208.132,141.5,182.8h28.131l6.088,25.332Z" transform="translate(-37.525 -54.879)" fill="#344154"/>
      <g id="Grupo_1112875" data-name="Grupo 1112875" transform="translate(105.559 129.091)">
        <path id="Trazado_903118" data-name="Trazado 903118" d="M172.5,205.053H147.378L141.5,182.8h25.262Z" transform="translate(-141.5 -182.8)" fill="#aed3f2"/>
      </g>
      <g id="Grupo_1112876" data-name="Grupo 1112876" transform="translate(105.56 129.091)">
        <path id="Trazado_903119" data-name="Trazado 903119" d="M141.92,184.41h25.262l-.42-1.61H141.5Z" transform="translate(-141.5 -182.8)" fill="#ececec"/>
      </g>
      <g id="Grupo_1112879" data-name="Grupo 1112879" transform="translate(106.808 129.614)">
        <g id="Grupo_1112877" data-name="Grupo 1112877" transform="translate(1.901)">
          <path id="Trazado_903120" data-name="Trazado 903120" d="M141.5,183.08a.28.28,0,1,0,.28-.28.256.256,0,0,0-.28.28Z" transform="translate(-141.5 -182.8)" fill="#fafafa"/>
        </g>
        <g id="Grupo_1112878" data-name="Grupo 1112878" transform="translate(0.95)">
          <path id="Trazado_903121" data-name="Trazado 903121" d="M141.5,183.08a.28.28,0,1,0,.28-.28.256.256,0,0,0-.28.28Z" transform="translate(-141.5 -182.8)" fill="#fafafa"/>
        </g>
        <path id="Trazado_903122" data-name="Trazado 903122" d="M141.5,183.08a.28.28,0,1,0,.28-.28.256.256,0,0,0-.28.28Z" transform="translate(-141.5 -182.8)" fill="#fafafa"/>
      </g>
      <g id="Grupo_1112880" data-name="Grupo 1112880" transform="translate(120.512 136.415)">
        <path id="Trazado_903123" data-name="Trazado 903123" d="M156.279,196.588l2.8,3.149a3.792,3.792,0,0,0,1.679-3.149,4.2,4.2,0,0,0-4.479-3.989,4.349,4.349,0,0,0-4.479,4.059Z" transform="translate(-151.8 -192.597)" fill="#d9a171"/>
      </g>
      <g id="Grupo_1112881" data-name="Grupo 1112881" transform="translate(120.067 140.819)">
        <path id="Trazado_903124" data-name="Trazado 903124" d="M156.249,192.57a4.01,4.01,0,0,1,.77.77c.49.56,1.19,1.33,2.029,2.239l.07.14-.14.07a4.888,4.888,0,0,1-4.689.49,4.5,4.5,0,0,1-1.889-1.54,3.771,3.771,0,0,1-.7-2.1v-.14h3.289c.49,0,.91.07,1.26.07a7.2,7.2,0,0,1-1.19.07c-.77.07-1.819.07-3.149.14l.14-.14a3.662,3.662,0,0,0,.7,1.889,4,4,0,0,0,1.819,1.4,4.535,4.535,0,0,0,4.409-.42v.21c-.77-.91-1.47-1.749-1.889-2.309C156.738,193.27,156.529,192.92,156.249,192.57Z" transform="translate(-151.7 -192.5)" fill="#344154"/>
      </g>
      <g id="Grupo_1112882" data-name="Grupo 1112882" transform="translate(122.82 137.742)">
        <path id="Trazado_903125" data-name="Trazado 903125" d="M151.8,192.78a.28.28,0,1,0,.28-.28h0A.3.3,0,0,0,151.8,192.78Z" transform="translate(-151.8 -192.5)" fill="#344154"/>
      </g>
      <g id="Grupo_1112883" data-name="Grupo 1112883" transform="translate(117.842 136.054)">
        <path id="Trazado_903126" data-name="Trazado 903126" d="M151.8,192.728a14.24,14.24,0,0,1,3.009-.14h.49l.07.07a11.675,11.675,0,0,1,1.749,1.959,11.285,11.285,0,0,1-1.959-1.679l.14.07h-.42C153.829,192.938,152.78,192.868,151.8,192.728Z" transform="translate(-151.8 -192.561)" fill="#344154"/>
      </g>
      <path id="Trazado_903127" data-name="Trazado 903127" d="M152.88,197.189a5.927,5.927,0,0,1-.28-1.19c-.14-.77-.42-1.889-.7-3.289v-.14h.14l6.228-.07s.28.21.14.14h0v.28l.07.28c.07.21.07.42.14.56.07.42.14.77.21,1.12.14.77.28,1.47.42,2.169v.14h-.14c-1.889,0-3.429,0-4.549-.07H153.3a.888.888,0,0,1-.42.07c.14,0,.28-.07.49-.07l1.33-.07c1.12,0,2.659-.07,4.479-.07l-.14.14-.42-2.1-.21-1.12c-.07-.21-.07-.42-.14-.56l-.07-.28v-.28h0c-.14-.14.21.14.14.14H152.11l.14-.14c.21,1.33.42,2.449.56,3.219A3.508,3.508,0,0,0,152.88,197.189Z" transform="translate(-40.647 -57.792)" fill="#344154"/>
      <g id="Grupo_1112884" data-name="Grupo 1112884" transform="translate(111.211 141.608)">
        <path id="Trazado_903128" data-name="Trazado 903128" d="M152.85,196.029a3.944,3.944,0,0,1-.28-.84c-.14-.56-.42-1.4-.7-2.379l-.07-.14h.14c1.679,0,3.989-.07,6.438-.07l.14.14h0v.21l.07.21.14.42.21.84c.14.56.28,1.05.42,1.61l.07.21h-.21c-1.889,0-3.569,0-4.689-.07l-1.33-.07a.761.761,0,0,1-.35-.07c.14,0,.35-.07.49-.07l1.33-.07c1.12,0,2.729-.07,4.619-.07l-.14.21c-.14-.49-.28-1.05-.42-1.609l-.21-.84-.14-.42-.07-.21v-.21h0l.14.14H152.01l.14-.14c.21.98.42,1.819.56,2.379A4.1,4.1,0,0,0,152.85,196.029Z" transform="translate(-151.8 -192.6)" fill="#344154"/>
      </g>
      <g id="Grupo_1112885" data-name="Grupo 1112885" transform="translate(73.674 153.127)">
        <path id="Trazado_903129" data-name="Trazado 903129" d="M98.2,124.5v3.289h2.169v67.249h4.479V127.789h23.723v67.249h4.479V127.789h102.8v67.249h4.479V127.789h1.959V124.5H98.2Z" transform="translate(-98.2 -124.5)" fill="#344154"/>
      </g>
      <g id="Grupo_1112886" data-name="Grupo 1112886" transform="translate(170.459 178.102)">
        <path id="Trazado_903130" data-name="Trazado 903130" d="M98.2,124.655a40.227,40.227,0,0,0,5.808,0A40.227,40.227,0,0,0,98.2,124.655Z" transform="translate(-98.2 -124.55)" fill="#344154"/>
      </g>
      <g id="Grupo_1112887" data-name="Grupo 1112887" transform="translate(128.025 178.72)">
        <ellipse id="Elipse_13242" data-name="Elipse 13242" cx="0.14" cy="0.07" rx="0.14" ry="0.07" transform="translate(0)" fill="#5e6178"/>
      </g>
      <g id="Grupo_1112949" data-name="Grupo 1112949" transform="translate(117.805 87.099)">
        <g id="Grupo_1112895" data-name="Grupo 1112895" transform="translate(13.387 6.286)">
          <path id="Trazado_903131" data-name="Trazado 903131" d="M123.493,150.21l-16.655-16.935-.35-1.819c-.07-.35-.14-.7-.21-1.12a5.17,5.17,0,0,1,0-1.47,7.188,7.188,0,0,1,.49-1.749.6.6,0,0,0-.63-.91c-.49.14-1.26,1.54-1.47,3.359s-1.749-.63-2.309-1.47-2.519-3.5-2.939-3.5c-.56-.07-.77.56-.14,1.47.63.84,2.239,3.569,1.749,3.849h0a2.21,2.21,0,0,0-2.309,1.12c-.42.84-.91,1.959-.49,2.449a25.15,25.15,0,0,0,2.659,2.8l.56.49s14.416,20.924,17.565,21.553c1.959.42,32.19,2.939,32.19,2.939l2.309-8.327Z" transform="translate(-98.071 -124.592)" fill="#b78876"/>
          <g id="Grupo_1112889" data-name="Grupo 1112889" transform="translate(0.032 7.345)">
            <g id="Grupo_1112888" data-name="Grupo 1112888" transform="translate(0.072 0.002)">
              <path id="Trazado_903132" data-name="Trazado 903132" d="M98.2,125.69l1.54,1.47a1.088,1.088,0,0,0,.56.42.563.563,0,0,0,.77-.21.6.6,0,0,0,0-.49,1.524,1.524,0,0,0-.35-.56c-.49-.63-.98-1.19-1.47-1.819" transform="translate(-98.2 -124.5)" fill="#b78876"/>
            </g>
            <path id="Trazado_903133" data-name="Trazado 903133" d="M99.22,124.5a6.429,6.429,0,0,1,.77.77c.28.28.49.56.77.84a3.882,3.882,0,0,1,.42.56.733.733,0,0,1-.07.84.92.92,0,0,1-.84.21,1.653,1.653,0,0,1-.63-.42l-.84-.84a2.8,2.8,0,0,1-.7-.84l.84.63.84.77a1.255,1.255,0,0,0,.49.35.615.615,0,0,0,.49-.07.767.767,0,0,0,0-.56,1.255,1.255,0,0,0-.35-.49l-.7-.91A4.442,4.442,0,0,1,99.22,124.5Z" transform="translate(-98.1 -124.5)" fill="#aa6550"/>
          </g>
          <g id="Grupo_1112891" data-name="Grupo 1112891" transform="translate(1.127 6.267)">
            <g id="Grupo_1112890" data-name="Grupo 1112890" transform="translate(0.072 0.002)">
              <path id="Trazado_903134" data-name="Trazado 903134" d="M98.2,125.69l1.54,1.47a1.088,1.088,0,0,0,.56.42.563.563,0,0,0,.77-.21.6.6,0,0,0,0-.49,1.524,1.524,0,0,0-.35-.56L99.25,124.5" transform="translate(-98.2 -124.5)" fill="#b78876"/>
            </g>
            <path id="Trazado_903135" data-name="Trazado 903135" d="M99.22,124.5a6.429,6.429,0,0,1,.77.77l.77.84a3.882,3.882,0,0,1,.42.56.733.733,0,0,1-.07.84.92.92,0,0,1-.84.21,1.653,1.653,0,0,1-.63-.42l-.84-.84a2.8,2.8,0,0,1-.7-.84l.84.63.84.77a1.255,1.255,0,0,0,.49.35.615.615,0,0,0,.49-.07.767.767,0,0,0,0-.56,1.255,1.255,0,0,0-.35-.49l-.7-.91A4.442,4.442,0,0,1,99.22,124.5Z" transform="translate(-98.1 -124.5)" fill="#aa6550"/>
          </g>
          <g id="Grupo_1112893" data-name="Grupo 1112893" transform="translate(2.327 5.383)">
            <g id="Grupo_1112892" data-name="Grupo 1112892" transform="translate(0.072 0.002)">
              <path id="Trazado_903136" data-name="Trazado 903136" d="M98.2,125.69l1.54,1.47a1.088,1.088,0,0,0,.56.42.563.563,0,0,0,.77-.21.6.6,0,0,0,0-.49,1.524,1.524,0,0,0-.35-.56L99.25,124.5" transform="translate(-98.2 -124.5)" fill="#b78876"/>
            </g>
            <path id="Trazado_903137" data-name="Trazado 903137" d="M99.22,124.5a6.429,6.429,0,0,1,.77.77l.77.84a3.882,3.882,0,0,1,.42.56.733.733,0,0,1-.07.84.92.92,0,0,1-.84.21,1.653,1.653,0,0,1-.63-.42l-.84-.84a2.8,2.8,0,0,1-.7-.84,6.564,6.564,0,0,1,.84.63l.84.77a1.255,1.255,0,0,0,.49.35.615.615,0,0,0,.49-.07.767.767,0,0,0,0-.56,1.255,1.255,0,0,0-.35-.49l-.7-.91A4.442,4.442,0,0,1,99.22,124.5Z" transform="translate(-98.1 -124.5)" fill="#aa6550"/>
          </g>
          <g id="Grupo_1112894" data-name="Grupo 1112894" transform="translate(4.838 6.656)">
            <path id="Trazado_903138" data-name="Trazado 903138" d="M98.2,127.042c0-.07.35-.14.91.07l-.21.14a5.3,5.3,0,0,1-.07-1.05,2.592,2.592,0,0,1,.56-1.26c.21-.28.42-.42.49-.35a5.041,5.041,0,0,0-.7,1.679,2.312,2.312,0,0,0,0,.98v.21l-.21-.07C98.55,127.112,98.2,127.112,98.2,127.042Z" transform="translate(-98.2 -124.575)" fill="#aa6550"/>
          </g>
        </g>
        <g id="Grupo_1112899" data-name="Grupo 1112899" transform="translate(42.997)">
          <g id="Grupo_1112896" data-name="Grupo 1112896" transform="translate(2.645 3.732)">
            <path id="Trazado_903139" data-name="Trazado 903139" d="M113.269,127.4l.07,23.233-9.027.42-.35-5.528s-4.339.63-5.248-2.589c-.56-2.1-.42-18.334-.42-18.334Z" transform="translate(-98.278 -124.6)" fill="#b78876"/>
          </g>
          <path id="Trazado_903140" data-name="Trazado 903140" d="M98.633,130.438c.7,1.4,3.849,3.919,3.849,3.919l1.47,3.849c1.26-.98,2.939-.91,3.289,1.26.21,1.61-1.749,1.889-1.749,1.889a26.015,26.015,0,0,0,3.639,5.388c1.819,2.029,2.8,2.239,4.829,2.239h2.169s4.409-3.709,3.569-13.506-9.657-6.928-11.756-9.377C104.371,122.251,96.393,125.819,98.633,130.438Z" transform="translate(-98.243 -124.466)" fill="#344154"/>
          <g id="Grupo_1112897" data-name="Grupo 1112897" transform="translate(0.416 3.756)">
            <path id="Trazado_903141" data-name="Trazado 903141" d="M118.551,140.035a2.668,2.668,0,0,1-1.05-.07,5.726,5.726,0,0,1-2.589-1.33,11.676,11.676,0,0,1-2.589-3.5,11.479,11.479,0,0,0-3.359-4.059c-1.54-1.05-3.429-1.26-5.038-1.61a9.256,9.256,0,0,1-4.059-1.54,4.293,4.293,0,0,1-1.61-2.379,2.668,2.668,0,0,1-.07-1.05,5.3,5.3,0,0,0,.07,1.05,4.5,4.5,0,0,0,1.61,2.309,9.2,9.2,0,0,0,3.989,1.47,14.1,14.1,0,0,1,5.038,1.61,12.332,12.332,0,0,1,3.359,4.129,13.823,13.823,0,0,0,2.589,3.429,5.851,5.851,0,0,0,2.519,1.33,2.87,2.87,0,0,0,.77.07A1.761,1.761,0,0,0,118.551,140.035Z" transform="translate(-98.159 -124.5)" fill="#5e6178"/>
          </g>
          <g id="Grupo_1112898" data-name="Grupo 1112898" transform="translate(0.7 2.603)">
            <path id="Trazado_903142" data-name="Trazado 903142" d="M119.044,133.447a2.186,2.186,0,0,0-.49-.14,4.518,4.518,0,0,0-1.33-.28,3.234,3.234,0,0,0-2.1.49,1.732,1.732,0,0,0-.7,1.12,1.692,1.692,0,0,0,.42,1.4,1,1,0,0,0,.7.28,1.863,1.863,0,0,0,.84-.21,2.723,2.723,0,0,0,1.12-1.4,3.466,3.466,0,0,0-2.169-4.409,2.486,2.486,0,0,0-.7-.14,5.98,5.98,0,0,0-2.239.28,13.861,13.861,0,0,1-2.309.56,7.193,7.193,0,0,1-2.449,0,9.185,9.185,0,0,1-2.379-.63,2.684,2.684,0,0,1-1.61-1.749,2.247,2.247,0,0,1,.56-2.169,1.8,1.8,0,0,1,2.1-.28,1.386,1.386,0,0,1,.77.77,1.835,1.835,0,0,1,.14,1.05,2.425,2.425,0,0,1-1.05,1.679,3.39,3.39,0,0,1-1.819.49,4.7,4.7,0,0,1-1.679-.28,6.3,6.3,0,0,1-2.519-1.54,5.326,5.326,0,0,1-1.26-1.819,4.222,4.222,0,0,1-.42-1.33,2.928,2.928,0,0,1-.07-.49,1.211,1.211,0,0,1,.07.49,10.2,10.2,0,0,0,.49,1.33,10.566,10.566,0,0,0,1.26,1.819,5.9,5.9,0,0,0,2.449,1.47,7.026,7.026,0,0,0,1.679.28,3.159,3.159,0,0,0,1.749-.49,2.083,2.083,0,0,0,.98-1.609,1.551,1.551,0,0,0-.91-1.679,1.817,1.817,0,0,0-1.959.28,2.092,2.092,0,0,0-.49,2.1,2.7,2.7,0,0,0,1.54,1.61,7.119,7.119,0,0,0,2.309.63,14.314,14.314,0,0,0,2.449,0,13.862,13.862,0,0,0,2.309-.56,6.542,6.542,0,0,1,2.309-.28,3.545,3.545,0,0,1,3.149,3.919,2.83,2.83,0,0,1-1.26,2.239,1.863,1.863,0,0,1-.84.21,1.124,1.124,0,0,1-.77-.35,1.57,1.57,0,0,1-.42-1.47,1.46,1.46,0,0,1,.77-1.12,3.336,3.336,0,0,1,2.169-.49,5.133,5.133,0,0,1,1.4.35A.7.7,0,0,1,119.044,133.447Z" transform="translate(-98.4 -124.7)" fill="#5e6178"/>
          </g>
        </g>
        <g id="Grupo_1112917" data-name="Grupo 1112917" transform="translate(49.241 121.565)">
          <path id="Trazado_903143" data-name="Trazado 903143" d="M101.705,133.877,98.766,130.1l7.068-5.6,4.409,5.528-.42.35c-1.889,1.679-9.587,8.257-11.2,8.887C96.807,139.965,101.705,133.877,101.705,133.877Z" transform="translate(-98.152 -124.5)" fill="#d9a171"/>
          <g id="Grupo_1112900" data-name="Grupo 1112900" transform="translate(0.035 5.355)" opacity="0.4">
            <path id="Trazado_903144" data-name="Trazado 903144" d="M99.38,131.638s-1.609,2.239-1.12,2.379,8.607-6.228,11.9-9.377l-.14-.14-9.377,7.488C100.709,132.058,99.8,131.288,99.38,131.638Z" transform="translate(-98.167 -124.5)" fill="#fff"/>
          </g>
          <g id="Grupo_1112901" data-name="Grupo 1112901" transform="translate(0 5.263)">
            <path id="Trazado_903145" data-name="Trazado 903145" d="M110.136,124.5c0,.07-.07.07-.14.14l-.35.28-1.26,1.05c-1.05.91-2.519,2.1-4.2,3.429s-3.149,2.449-4.269,3.289l-1.33.98-.35.28c-.07,0-.07.07-.14.07.07-.07.07-.07.14-.07l.35-.28,1.33-.98c1.12-.84,2.589-2.029,4.269-3.289s3.149-2.519,4.2-3.429l1.26-1.05.35-.28C110.066,124.57,110.136,124.57,110.136,124.5Z" transform="translate(-98.1 -124.5)" fill="#344154"/>
          </g>
          <g id="Grupo_1112902" data-name="Grupo 1112902" transform="translate(1.136 12.391)">
            <path id="Trazado_903146" data-name="Trazado 903146" d="M99.74,125.142a2.445,2.445,0,0,0-1.54-.56A1.472,1.472,0,0,1,99.74,125.142Z" transform="translate(-98.2 -124.539)" fill="#344154"/>
          </g>
          <g id="Grupo_1112903" data-name="Grupo 1112903" transform="translate(3.099 10.048)">
            <path id="Trazado_903147" data-name="Trazado 903147" d="M99.04,124.88a.888.888,0,0,1-.42-.07c-.21-.07-.42-.14-.42-.21a.888.888,0,0,1,.42.07Q99.04,124.775,99.04,124.88Z" transform="translate(-98.2 -124.6)" fill="#344154"/>
          </g>
          <g id="Grupo_1112904" data-name="Grupo 1112904" transform="translate(3.586 9.41)">
            <path id="Trazado_903148" data-name="Trazado 903148" d="M99,124.557a.485.485,0,0,1-.35,0,1.225,1.225,0,0,0-.35-.07.485.485,0,0,1,.35,0A1.225,1.225,0,0,0,99,124.557Z" transform="translate(-98.3 -124.456)" fill="#344154"/>
          </g>
          <g id="Grupo_1112905" data-name="Grupo 1112905" transform="translate(3.287 8.569)">
            <path id="Trazado_903149" data-name="Trazado 903149" d="M98.864,124.5l-.35.35c-.21.21-.35.28-.42.28s.14-.14.35-.35A1.2,1.2,0,0,1,98.864,124.5Z" transform="translate(-98.08 -124.5)" fill="#344154"/>
          </g>
          <g id="Grupo_1112906" data-name="Grupo 1112906" transform="translate(3.07 8.002)">
            <path id="Trazado_903150" data-name="Trazado 903150" d="M98.97,124.5a1.1,1.1,0,0,1-.77.7,3.1,3.1,0,0,0,.42-.35Z" transform="translate(-98.2 -124.5)" fill="#344154"/>
          </g>
          <g id="Grupo_1112907" data-name="Grupo 1112907" transform="translate(1.512 9.656)">
            <path id="Trazado_903151" data-name="Trazado 903151" d="M99.879,124.622a1.255,1.255,0,0,1-.49.35,2.1,2.1,0,0,1-.56.28.631.631,0,0,1-.35.07.247.247,0,0,1-.28-.28.965.965,0,0,1,1.19-.56.6.6,0,0,1,.42.21l.14.14a1.482,1.482,0,0,0-.49-.21.744.744,0,0,0-.56.07.845.845,0,0,0-.49.49c0,.14.07.14.21.14s.21-.07.35-.07a2.1,2.1,0,0,0,.56-.28Z" transform="translate(-98.2 -124.439)" fill="#344154"/>
          </g>
          <g id="Grupo_1112908" data-name="Grupo 1112908" transform="translate(2.67 8.678)">
            <path id="Trazado_903152" data-name="Trazado 903152" d="M98.62,125.747a.838.838,0,0,1-.28-.28,1,1,0,0,1-.14-.42.8.8,0,0,1,.21-.56c.14-.07.28,0,.28.07.07.07.07.14.07.28v.42a.591.591,0,0,1-.14.49,2.475,2.475,0,0,0,.07-.42v-.42c0-.14-.14-.35-.21-.28a.514.514,0,0,0-.14.42,1,1,0,0,0,.14.42A.531.531,0,0,0,98.62,125.747Z" transform="translate(-98.2 -124.459)" fill="#344154"/>
          </g>
          <g id="Grupo_1112909" data-name="Grupo 1112909" transform="translate(8.949 3.443)">
            <path id="Trazado_903153" data-name="Trazado 903153" d="M99.677,124.5a3.616,3.616,0,0,0-.49.42,2.961,2.961,0,0,0-.42,3.569l-.14-.14-.21-.42a2.708,2.708,0,0,1,.7-3.009,1.464,1.464,0,0,1,.42-.28A.15.15,0,0,1,99.677,124.5Z" transform="translate(-98.224 -124.5)" fill="#344154"/>
          </g>
          <g id="Grupo_1112910" data-name="Grupo 1112910" transform="translate(7.324 1.081)">
            <path id="Trazado_903154" data-name="Trazado 903154" d="M98.2,124.5a29.6,29.6,0,0,1,2.309,2.869A23.015,23.015,0,0,1,98.2,124.5Z" transform="translate(-98.2 -124.5)" fill="#344154"/>
          </g>
          <g id="Grupo_1112911" data-name="Grupo 1112911" transform="translate(5.993 7.487)">
            <path id="Trazado_903155" data-name="Trazado 903155" d="M100.229,124.5a6.684,6.684,0,0,1-2.029,1.679s.49-.35,1.05-.84S100.229,124.5,100.229,124.5Z" transform="translate(-98.2 -124.5)" fill="#344154"/>
          </g>
          <g id="Grupo_1112912" data-name="Grupo 1112912" transform="translate(9.419 6.39)">
            <path id="Trazado_903156" data-name="Trazado 903156" d="M98.287,124.5a.724.724,0,0,1,.07.28.724.724,0,0,0,.07.28.3.3,0,0,1-.14-.28C98.287,124.57,98.217,124.5,98.287,124.5Z" transform="translate(-98.256 -124.5)" fill="#344154"/>
          </g>
          <g id="Grupo_1112913" data-name="Grupo 1112913" transform="translate(9.317 5.328)">
            <path id="Trazado_903157" data-name="Trazado 903157" d="M98.257,124.5a.338.338,0,0,1,0,.28.542.542,0,0,0-.07.21.338.338,0,0,1,0-.28A.542.542,0,0,0,98.257,124.5Z" transform="translate(-98.156 -124.5)" fill="#344154"/>
          </g>
          <g id="Grupo_1112914" data-name="Grupo 1112914" transform="translate(9.683 4.432)">
            <path id="Trazado_903158" data-name="Trazado 903158" d="M98.572,124.5a.866.866,0,0,0-.14.21.866.866,0,0,1-.14.21.247.247,0,0,1,.07-.28C98.5,124.5,98.5,124.5,98.572,124.5Z" transform="translate(-98.275 -124.5)" fill="#344154"/>
          </g>
          <g id="Grupo_1112915" data-name="Grupo 1112915" transform="translate(10.176 3.877)">
            <path id="Trazado_903159" data-name="Trazado 903159" d="M98.327,124.5v.14c0,.07-.07.14-.14.07s0-.07,0-.14S98.327,124.5,98.327,124.5Z" transform="translate(-98.156 -124.5)" fill="#344154"/>
          </g>
          <g id="Grupo_1112916" data-name="Grupo 1112916" transform="translate(2.409 2.77)" opacity="0.3">
            <path id="Trazado_903160" data-name="Trazado 903160" d="M106.038,124.99l-7.208,5.458-.63-.84,7.488-5.108Z" transform="translate(-98.2 -124.5)"/>
          </g>
        </g>
        <g id="Grupo_1112936" data-name="Grupo 1112936" transform="translate(14.225 129.909)">
          <g id="Grupo_1112918" data-name="Grupo 1112918" transform="translate(0 0)">
            <path id="Trazado_903161" data-name="Trazado 903161" d="M104.288,129.328V124.5h9.027l.07,7.068-.56.07c-2.519.14-12.666.56-14.346.07C96.66,131.078,104.288,129.328,104.288,129.328Z" transform="translate(-98.199 -124.5)" fill="#d9a171"/>
          </g>
          <g id="Grupo_1112919" data-name="Grupo 1112919" transform="translate(0.013 5.833)" opacity="0.4">
            <path id="Trazado_903162" data-name="Trazado 903162" d="M100.6,124.5s-2.659.77-2.309,1.26,10.637.42,15.185,0v-.21l-11.966.14C101.365,125.69,101.086,124.5,100.6,124.5Z" transform="translate(-98.255 -124.5)" fill="#fff"/>
          </g>
          <g id="Grupo_1112920" data-name="Grupo 1112920" transform="translate(0.21 6.756)">
            <path id="Trazado_903163" data-name="Trazado 903163" d="M113.615,124.47h-.56l-1.61.07c-1.4.07-3.289.14-5.388.14s-4.059,0-5.388-.07l-1.61-.07h1.61c1.4,0,3.289.07,5.388,0s3.989-.07,5.388-.07l1.61-.07h.42C113.475,124.47,113.545,124.47,113.615,124.47Z" transform="translate(-98.5 -124.4)" fill="#344154"/>
          </g>
          <g id="Grupo_1112921" data-name="Grupo 1112921" transform="translate(2.281 5.721)">
            <path id="Trazado_903164" data-name="Trazado 903164" d="M99.04,125.9a2.616,2.616,0,0,0-.84-1.4A1.425,1.425,0,0,1,99.04,125.9Z" transform="translate(-98.2 -124.5)" fill="#344154"/>
          </g>
          <g id="Grupo_1112922" data-name="Grupo 1112922" transform="translate(5.321 5.02)">
            <path id="Trazado_903165" data-name="Trazado 903165" d="M98.69,125.27a2.526,2.526,0,0,1-.28-.35,1.98,1.98,0,0,1-.21-.42,2.525,2.525,0,0,1,.28.35A1.979,1.979,0,0,1,98.69,125.27Z" transform="translate(-98.2 -124.5)" fill="#344154"/>
          </g>
          <g id="Grupo_1112923" data-name="Grupo 1112923" transform="translate(5.896 4.875)">
            <path id="Trazado_903166" data-name="Trazado 903166" d="M98.73,124.99a3.631,3.631,0,0,1-.35-.21.838.838,0,0,1-.28-.28,3.637,3.637,0,0,1,.35.21A.838.838,0,0,1,98.73,124.99Z" transform="translate(-98.1 -124.5)" fill="#344154"/>
          </g>
          <g id="Grupo_1112924" data-name="Grupo 1112924" transform="translate(5.98 4.498)">
            <path id="Trazado_903167" data-name="Trazado 903167" d="M99.08,124.577a1.038,1.038,0,0,1-.49.07,1.191,1.191,0,0,1-.49-.07,2.306,2.306,0,0,1,.98,0Z" transform="translate(-98.1 -124.525)" fill="#344154"/>
          </g>
          <g id="Grupo_1112925" data-name="Grupo 1112925" transform="translate(6.08 3.919)">
            <path id="Trazado_903168" data-name="Trazado 903168" d="M99.25,124.5a1.122,1.122,0,0,1-1.05.07c.21,0,.35-.07.56-.07C98.9,124.57,99.11,124.5,99.25,124.5Z" transform="translate(-98.2 -124.5)" fill="#344154"/>
          </g>
          <g id="Grupo_1112926" data-name="Grupo 1112926" transform="translate(3.796 4.22)">
            <path id="Trazado_903169" data-name="Trazado 903169" d="M99.879,125.357h-.56a2.043,2.043,0,0,1-.63-.14c-.14,0-.21-.07-.35-.14-.07-.07-.14-.07-.14-.21,0-.07,0-.21.07-.21a1.2,1.2,0,0,1,1.33.28l.21.42v.14a1.128,1.128,0,0,0-.28-.49,1.255,1.255,0,0,0-.49-.35.828.828,0,0,0-.7.07c-.07.07-.07.21.07.21.07.07.21.07.35.14a2.043,2.043,0,0,0,.63.14A1.209,1.209,0,0,0,99.879,125.357Z" transform="translate(-98.2 -124.559)" fill="#344154"/>
          </g>
          <g id="Grupo_1112927" data-name="Grupo 1112927" transform="translate(5.273 3.891)">
            <path id="Trazado_903170" data-name="Trazado 903170" d="M98.27,125.62a.888.888,0,0,1-.07-.42,1,1,0,0,1,.14-.42.469.469,0,0,1,.49-.28c.14,0,.21.14.21.28,0,.07-.07.21-.07.28a.7.7,0,0,1-.28.35,2.33,2.33,0,0,1-.42.21c.07,0,.14-.14.35-.28.07-.14.14-.21.21-.35s.14-.35,0-.35a.465.465,0,0,0-.35.28c-.07.14-.14.21-.14.35A.631.631,0,0,0,98.27,125.62Z" transform="translate(-98.2 -124.5)" fill="#344154"/>
          </g>
          <g id="Grupo_1112928" data-name="Grupo 1112928" transform="translate(11.903 4.237)">
            <path id="Trazado_903171" data-name="Trazado 903171" d="M101.419,124.54h-.7a2.9,2.9,0,0,0-2.379,1.889,2.263,2.263,0,0,0-.14.63v-.21c0-.14.07-.35.07-.49a2.692,2.692,0,0,1,2.449-1.959h.49C101.279,124.54,101.349,124.54,101.419,124.54Z" transform="translate(-98.2 -124.4)" fill="#344154"/>
          </g>
          <g id="Grupo_1112929" data-name="Grupo 1112929" transform="translate(14.115 0.62)">
            <path id="Trazado_903172" data-name="Trazado 903172" d="M98.2,124.5a32.806,32.806,0,0,1,.07,3.709,16.434,16.434,0,0,1-.07-1.819Z" transform="translate(-98.2 -124.5)" fill="#344154"/>
          </g>
          <g id="Grupo_1112930" data-name="Grupo 1112930" transform="translate(8.126 6.094)">
            <path id="Trazado_903173" data-name="Trazado 903173" d="M100.859,124.5a8.425,8.425,0,0,1-2.659.07h1.33A11.878,11.878,0,0,0,100.859,124.5Z" transform="translate(-98.2 -124.5)" fill="#344154"/>
          </g>
          <g id="Grupo_1112931" data-name="Grupo 1112931" transform="translate(12.217 6.092)">
            <path id="Trazado_903174" data-name="Trazado 903174" d="M98.457,124.5l-.14.28c-.07.14-.07.28-.14.28s-.07-.14,0-.28S98.387,124.5,98.457,124.5Z" transform="translate(-98.125 -124.5)" fill="#344154"/>
          </g>
          <g id="Grupo_1112932" data-name="Grupo 1112932" transform="translate(12.847 5.26)">
            <path id="Trazado_903175" data-name="Trazado 903175" d="M98.55,124.5a.643.643,0,0,1-.35.35.643.643,0,0,1,.35-.35Z" transform="translate(-98.2 -124.5)" fill="#344154"/>
          </g>
          <g id="Grupo_1112933" data-name="Grupo 1112933" transform="translate(13.535 4.81)">
            <path id="Trazado_903176" data-name="Trazado 903176" d="M98.652,124.562a.7.7,0,0,0-.28.07c-.14.07-.21.14-.28.07s.07-.14.21-.21S98.652,124.562,98.652,124.562Z" transform="translate(-98.073 -124.472)" fill="#344154"/>
          </g>
          <g id="Grupo_1112934" data-name="Grupo 1112934" transform="translate(14.543 4.718)">
            <path id="Trazado_903177" data-name="Trazado 903177" d="M98.48,124.587a.244.244,0,0,1-.14.07H98.2a.244.244,0,0,1,.14-.07C98.41,124.587,98.48,124.517,98.48,124.587Z" transform="translate(-98.2 -124.556)" fill="#344154"/>
          </g>
          <g id="Grupo_1112935" data-name="Grupo 1112935" transform="translate(6.08 2.868)" opacity="0.3">
            <path id="Trazado_903178" data-name="Trazado 903178" d="M107.3,125.69H98.2v-1.12l9.027-.07Z" transform="translate(-98.2 -124.5)"/>
          </g>
        </g>
        <g id="Grupo_1112941" data-name="Grupo 1112941" transform="translate(0 47.745)">
          <g id="Grupo_1112937" data-name="Grupo 1112937" transform="translate(12.243 0)">
            <path id="Trazado_903179" data-name="Trazado 903179" d="M128.5,128.489l-3.639,10.847c-.98,2.939-3.569,3.429-6.648,3.429H98.2v-4.479l18.334-2.589,4.339-11.2Z" transform="translate(-98.2 -124.5)" fill="#b78876"/>
          </g>
          <g id="Grupo_1112940" data-name="Grupo 1112940" transform="translate(0 8.902)">
            <path id="Trazado_903180" data-name="Trazado 903180" d="M108.2,128.488l-1.61-.77s-1.749-3.289-2.1-3.219-.49,1.12.21,2.659l-2.1-.63s-4.619,2.1-4.409,2.379a1.055,1.055,0,0,0,1.4.56c.07,0,.14-.07.21-.07.98-.49,2.309-1.12,2.309-1.12l2.449.7-3.219.42-3.009,2.729a1.383,1.383,0,0,0,1.819-.07l7.768,1.679,2.449.14V129.4Z" transform="translate(-98.19 -124.498)" fill="#b78876"/>
            <g id="Grupo_1112938" data-name="Grupo 1112938" transform="translate(2.016 6.045)">
              <path id="Trazado_903181" data-name="Trazado 903181" d="M98.2,126.14l.49-.49a1.684,1.684,0,0,1,.56-.42,1.863,1.863,0,0,1,.84-.21,13.362,13.362,0,0,0,2.309-.42,13.58,13.58,0,0,0-2.379.14,1.985,1.985,0,0,0-.91.28,1.886,1.886,0,0,0-.56.49A1.43,1.43,0,0,0,98.2,126.14Z" transform="translate(-98.2 -124.6)" fill="#aa6550"/>
            </g>
            <g id="Grupo_1112939" data-name="Grupo 1112939" transform="translate(3.208 7.28)">
              <path id="Trazado_903182" data-name="Trazado 903182" d="M98.2,125.127a.485.485,0,0,1,.28-.21c.21-.07.56-.07.98-.14a9.483,9.483,0,0,0,1.4-.14,2.364,2.364,0,0,0-1.4-.07,2.47,2.47,0,0,0-.98.21c-.14.07-.21.14-.21.28A.069.069,0,0,0,98.2,125.127Z" transform="translate(-98.2 -124.491)" fill="#aa6550"/>
            </g>
          </g>
        </g>
        <g id="Grupo_1112945" data-name="Grupo 1112945" transform="translate(32.912 27.408)">
          <path id="Trazado_903183" data-name="Trazado 903183" d="M109.537,146.573,108,151.822l-9.8-4.409c.35-1.12,1.959-5.948,5.108-13.716a13.344,13.344,0,0,1,10.147-8.187,59.942,59.942,0,0,1,9.377-.91c5.458.07,13.576,3.5,14.7,8.887.84,4.129,0,11.337,0,20.154l-.7,16.865-28.131.98Z" transform="translate(-98.2 -124.6)" fill="#d9a171"/>
          <g id="Grupo_1112942" data-name="Grupo 1112942" transform="translate(18.406 24.82)" opacity="0.3">
            <path id="Trazado_903184" data-name="Trazado 903184" d="M119.054,124.865c-3.429.7-6.928,0-10.427-.21-2.1-.14-4.479-.35-6.158.98a7.442,7.442,0,0,0-2.239,4.409A79.864,79.864,0,0,0,98.2,146.839l16.935,1.05Z" transform="translate(-98.2 -124.552)"/>
          </g>
          <g id="Grupo_1112943" data-name="Grupo 1112943" transform="translate(10.617 3.661)">
            <path id="Trazado_903185" data-name="Trazado 903185" d="M98.2,124.5s.28.07.77.21a4.222,4.222,0,0,1,1.609,1.33,5.466,5.466,0,0,1,.98,2.939,17.833,17.833,0,0,1-.28,3.849c-.42,2.309-.91,4.619-1.54,6.928-.21.84-.42,1.54-.56,2.1-.07.28-.14.49-.21.77a2.507,2.507,0,0,0,.28-.77c.14-.49.35-1.19.63-2.029a55.593,55.593,0,0,0,1.679-6.928,18.156,18.156,0,0,0,.28-3.919,5.568,5.568,0,0,0-1.05-3.009,4.176,4.176,0,0,0-1.749-1.33,1.647,1.647,0,0,0-.56-.14Z" transform="translate(-98.2 -124.5)" fill="#344154"/>
          </g>
          <g id="Grupo_1112944" data-name="Grupo 1112944" transform="translate(0.307 21.409)">
            <path id="Trazado_903186" data-name="Trazado 903186" d="M98.2,124.5a8.963,8.963,0,0,0,1.4.77c.84.49,2.1,1.05,3.429,1.679q2.1.945,3.569,1.47a9.907,9.907,0,0,0,1.54.49,13.989,13.989,0,0,0-1.47-.7c-.91-.42-2.169-.91-3.5-1.54s-2.589-1.19-3.5-1.609A12.615,12.615,0,0,1,98.2,124.5Z" transform="translate(-98.2 -124.5)" fill="#344154"/>
          </g>
        </g>
        <g id="Grupo_1112948" data-name="Grupo 1112948" transform="translate(15.25 73.4)">
          <g id="Grupo_1112946" data-name="Grupo 1112946" transform="translate(8.238 2.085)">
            <path id="Trazado_903187" data-name="Trazado 903187" d="M103.443,124.5a10.014,10.014,0,0,0-4.129,13.436l24.492,42.057,11.336-6.858-19.034-38,13.786-9.027" transform="translate(-98.182 -124.5)" fill="#344154"/>
          </g>
          <path id="Trazado_903188" data-name="Trazado 903188" d="M141.516,124.5l-33.66,1.19A10.027,10.027,0,0,0,98.2,135.906l1.4,48.005h14.136l-.49-45.416,28.271-.77Z" transform="translate(-98.199 -124.5)" fill="#344154"/>
          <g id="Grupo_1112947" data-name="Grupo 1112947" transform="translate(15.044 15.602)">
            <path id="Trazado_903189" data-name="Trazado 903189" d="M98.2,124.5c0,.14.07.28.07.42a8.492,8.492,0,0,0,.07,1.26c.07,1.12.07,2.729.14,4.689.07,3.989.14,9.447.14,15.465s.07,11.476.07,15.465v6.368c0-.14-.07-.28-.07-.42a8.491,8.491,0,0,0-.07-1.26c-.07-1.12-.07-2.729-.14-4.689-.07-3.989-.14-9.447-.14-15.465s-.07-11.476-.07-15.465V124.5Z" transform="translate(-98.2 -124.5)" fill="#5e6178"/>
          </g>
        </g>
      </g>
      <g id="Grupo_1112952" data-name="Grupo 1112952" transform="translate(147.878 130.014)">
        <path id="Trazado_903190" data-name="Trazado 903190" d="M141.237,124.5H131.09a7.377,7.377,0,0,0-7.418,7.418h0V167.4H103.308a5.092,5.092,0,0,0-5.108,5.108h46.4a4.231,4.231,0,0,0,4.059-4.2V131.918a7.421,7.421,0,0,0-7.418-7.418Z" transform="translate(-98.2 -124.5)" fill="#5e6178"/>
        <g id="Grupo_1112950" data-name="Grupo 1112950" transform="translate(28.267 1.171)">
          <path id="Trazado_903191" data-name="Trazado 903191" d="M98.34,124.5c.07,0,.14,10.427.14,23.3s-.07,23.3-.14,23.3-.14-10.427-.14-23.3S98.27,124.5,98.34,124.5Z" transform="translate(-98.2 -124.5)" fill="#344154"/>
        </g>
        <g id="Grupo_1112951" data-name="Grupo 1112951" transform="translate(11.348 48.074)">
          <path id="Trazado_903192" data-name="Trazado 903192" d="M114.115,161.729V124.5h-3.289v37.229c-2.029,3.989-6.788,6.648-12.526,8.887h29.461C121.743,168.237,116.354,166.347,114.115,161.729Z" transform="translate(-98.3 -124.5)" fill="#5e6178"/>
        </g>
      </g>
      <rect id="Rectángulo_405258" data-name="Rectángulo 405258" width="56.193" height="6.088" transform="translate(137.914 15.605)" fill="#d9a171"/>
    </g>
  </g>
</svg>
