<svg xmlns="http://www.w3.org/2000/svg" width="400" height="290" viewBox="0 0 400 290">
  <g id="Grupo_1118230" data-name="Grupo 1118230" transform="translate(-1020 -2729)">
    <rect id="Rectángulo_406641" data-name="Rectángulo 406641" width="400" height="290" transform="translate(1020 2729)" fill="#f2ecfd"/>
    <g id="nota4" transform="translate(-539.176 11531.266)">
      <rect id="Rectángulo_406432" data-name="Rectángulo 406432" width="6.056" height="0.174" transform="translate(1832.393 -8564.874)" fill="#ececec"/>
      <rect id="Rectángulo_406433" data-name="Rectángulo 406433" width="13.377" height="0.174" transform="translate(1884.009 -8573.243)" fill="#ececec"/>
      <rect id="Rectángulo_406434" data-name="Rectángulo 406434" width="30.105" height="0.174" transform="translate(1644.176 -8572.067)" fill="#ececec"/>
      <rect id="Rectángulo_406435" data-name="Rectángulo 406435" width="4.414" height="0.174" transform="translate(1680.481 -8572.067)" fill="#ececec"/>
      <rect id="Rectángulo_406436" data-name="Rectángulo 406436" width="65.287" height="0.174" transform="translate(1699.242 -8569.13)" fill="#ececec"/>
      <path id="Trazado_909868" data-name="Trazado 909868" d="M335.033,255.959c0-.151-.513-15.064-2.945-17.474s-5.084-.083-5.2,0l-.241-.294s3.1-2.531,5.7,0,3.013,17.113,3.058,17.737Z" transform="translate(1512.649 -8916.061)" fill="#e1e1e1"/>
      <path id="Trazado_909869" data-name="Trazado 909869" d="M338,257.726c0-.174-1.665-17.949,4.828-25.406l.286.256c-6.387,7.321-4.748,24.938-4.737,25.112Z" transform="translate(1509.896 -8914.889)" fill="#e1e1e1"/>
      <path id="Trazado_909870" data-name="Trazado 909870" d="M336.472,255.413h-.384c0-.2,1.273-20.209-3.488-24.584l.256-.278C337.752,235.016,336.524,254.576,336.472,255.413Z" transform="translate(1511.181 -8914.452)" fill="#e1e1e1"/>
      <path id="Trazado_909871" data-name="Trazado 909871" d="M338.434,258.283h-.384c0-.55.159-13.513,3.842-15.621a2.6,2.6,0,0,1,2.388-.233c2.222.919,3.329,4.881,3.374,5.046l-.369.108c0-.045-1.1-3.954-3.156-4.805a2.26,2.26,0,0,0-2.05.216C338.585,244.99,338.434,258.156,338.434,258.283Z" transform="translate(1509.836 -8917.338)" fill="#e1e1e1"/>
      <path id="Trazado_909872" data-name="Trazado 909872" d="M333.923,258.506h-.384c0-.108.557-10.244-2.177-13.821a2.53,2.53,0,0,0-2.146-1.22c-1.792.121-3.3,2.75-3.314,2.772l-.331-.188c.068-.108,1.619-2.824,3.615-2.968a2.892,2.892,0,0,1,2.482,1.378C334.48,248.118,333.946,258.084,333.923,258.506Z" transform="translate(1512.916 -8917.545)" fill="#e1e1e1"/>
      <path id="Trazado_909873" data-name="Trazado 909873" d="M337.269,256.142c-.076-.986-1.785-24.1,1.228-28.222l.309.226c-2.937,3.969-1.175,27.726-1.152,27.966Z" transform="translate(1510.164 -8913.804)" fill="#e1e1e1"/>
      <path id="Trazado_909874" data-name="Trazado 909874" d="M346.952,245.122s-1.807.67-1.266,2.26,6.259,4.165,6.259,4.165,2.4-2.192.2-5.769S347,244,346.952,245.122Z" transform="translate(1507.976 -8917.688)" fill="#ececec"/>
      <path id="Trazado_909875" data-name="Trazado 909875" d="M335.482,241.379s1.928-.083,2.034,1.582-4.173,6.259-4.173,6.259-3.058-1.107-2.4-5.273S334.969,240.362,335.482,241.379Z" transform="translate(1511.613 -8916.943)" fill="#ececec"/>
      <path id="Trazado_909876" data-name="Trazado 909876" d="M332.6,230.329s1.288-.144,1.187-.927-4.994-2.794-7.878.46c0,0,1.845,3.178,4.519,3.216S332.6,230.329,332.6,230.329Z" transform="translate(1512.835 -8913.84)" fill="#ececec"/>
      <path id="Trazado_909877" data-name="Trazado 909877" d="M337.5,227.179s-1.16.564-1.511-.159,2.765-5.017,6.937-3.766c0,0,.108,3.669-2.139,5.121S337.5,227.179,337.5,227.179Z" transform="translate(1510.35 -8912.596)" fill="#ececec"/>
      <path id="Trazado_909878" data-name="Trazado 909878" d="M328,244.372s.889-.715-.068-1.062-5.657-.248-5.7,4.4c0,0,5.468.912,6.151-.863S328,244.372,328,244.372Z" transform="translate(1513.74 -8917.572)" fill="#ececec"/>
      <path id="Trazado_909879" data-name="Trazado 909879" d="M344.5,230.522s-.889-.715.068-1.062,5.657-.256,5.7,4.4c0,0-5.468.912-6.151-.863S344.5,230.522,344.5,230.522Z" transform="translate(1508.392 -8914.153)" fill="#ececec"/>
      <path id="Trazado_909880" data-name="Trazado 909880" d="M340.32,235.689s-.076-.874.625-.54,3.149,3.013.617,5.491c0,0-3.42-2.531-2.806-3.849S340.32,235.689,340.32,235.689Z" transform="translate(1509.677 -8915.569)" fill="#ececec"/>
      <path id="Trazado_909881" data-name="Trazado 909881" d="M327.591,237.283s.528-.693-.248-.755-4.256.836-3.442,4.316c0,0,4.241-.324,4.424-1.762S327.591,237.283,327.591,237.283Z" transform="translate(1513.359 -8915.927)" fill="#ececec"/>
      <path id="Trazado_909882" data-name="Trazado 909882" d="M342.571,275.442H328.027L326.46,259.52h17.686Z" transform="translate(1512.697 -8921.603)" fill="#f0f0f0"/>
      <rect id="Rectángulo_406437" data-name="Rectángulo 406437" width="19.236" height="3.518" transform="translate(1838.381 -8663.837)" fill="#e7e7e7"/>
      <rect id="Rectángulo_406466" data-name="Rectángulo 406466" width="6.643" height="4.534" transform="translate(1802.672 -8578.515) rotate(180)" fill="#e7e7e7"/>
      <rect id="Rectángulo_406474" data-name="Rectángulo 406474" width="4.33" height="19.756" transform="translate(1821.306 -8617.026) rotate(180)" fill="#e7e7e7"/>
      <rect id="Rectángulo_406475" data-name="Rectángulo 406475" width="4.33" height="19.756" transform="translate(1812.019 -8617.026) rotate(180)" fill="#e7e7e7"/>
      <rect id="Rectángulo_406477" data-name="Rectángulo 406477" width="2.161" height="19.756" transform="translate(1816.974 -8617.026) rotate(180)" fill="#ececec"/>
      <ellipse id="Elipse_13497" data-name="Elipse 13497" cx="135.131" cy="7.894" rx="135.131" ry="7.894" transform="translate(1646.714 -8562.299)" fill="#f5f5f5"/>
      <path id="Trazado_909885" data-name="Trazado 909885" d="M349.049,264.9H254.806a3.246,3.246,0,0,1-3.269-3.48l7.916-139.077a3.721,3.721,0,0,1,3.66-3.473h94.217a3.237,3.237,0,0,1,3.261,3.473l-7.9,139.077a3.721,3.721,0,0,1-3.642,3.48Z" transform="translate(1531.19 -8886.89)" fill="#344154"/>
      <path id="Trazado_909886" data-name="Trazado 909886" d="M349.049,264.9H254.806a3.246,3.246,0,0,1-3.269-3.48l7.916-139.077a3.721,3.721,0,0,1,3.66-3.473h94.217a3.237,3.237,0,0,1,3.261,3.473l-7.9,139.077a3.721,3.721,0,0,1-3.642,3.48Z" transform="translate(1531.19 -8886.89)" opacity="0.3"/>
      <path id="Trazado_909887" data-name="Trazado 909887" d="M357.83,122.35l-7.914,139.07a3.706,3.706,0,0,1-3.66,3.48H252.029a3.237,3.237,0,0,1-3.261-3.48l2-35.179,5.912-103.888a3.706,3.706,0,0,1,3.66-3.48h94.225a3.237,3.237,0,0,1,3.261,3.48Z" transform="translate(1531.873 -8886.89)" fill="#344154"/>
      <path id="Trazado_909888" data-name="Trazado 909888" d="M355.383,180.58l-5.467,96.078a3.713,3.713,0,0,1-3.653,3.465H252.029a3.237,3.237,0,0,1-3.261-3.465l5.445-96.078Z" transform="translate(1531.873 -8902.12)" fill="#fff" opacity="0.3"/>
      <path id="Trazado_909889" data-name="Trazado 909889" d="M351.206,165.779H269.13l1.236-21.609h82.069Z" transform="translate(1526.846 -8893.133)" fill="#fff" opacity="0.4"/>
      <path id="Trazado_909890" data-name="Trazado 909890" d="M374.674,130.99h4.279l-.392,6.817H374.29Z" transform="translate(1500.892 -8889.881)" fill="#fff" opacity="0.2"/>
      <path id="Trazado_909891" data-name="Trazado 909891" d="M368.029,130.99h4.279l-.392,6.817H367.64Z" transform="translate(1502.532 -8889.881)" fill="#fff" opacity="0.2"/>
      <path id="Trazado_909892" data-name="Trazado 909892" d="M361.384,130.99h4.279l-.384,6.817H361Z" transform="translate(1504.172 -8889.881)" fill="#fff" opacity="0.2"/>
      <path id="Trazado_909893" data-name="Trazado 909893" d="M354.744,130.99h4.279l-.392,6.817H354.36Z" transform="translate(1505.81 -8889.881)" fill="#fff" opacity="0.2"/>
      <path id="Trazado_909894" data-name="Trazado 909894" d="M348.1,130.99h4.278l-.392,6.817H347.71Z" transform="translate(1507.452 -8889.881)" fill="#fff" opacity="0.2"/>
      <path id="Trazado_909895" data-name="Trazado 909895" d="M341.454,130.99h4.279l-.384,6.817H341.07Z" transform="translate(1509.09 -8889.881)" fill="#fff" opacity="0.2"/>
      <path id="Trazado_909896" data-name="Trazado 909896" d="M285.039,135.912H271.18l.166-2.892h13.859Z" transform="translate(1526.339 -8890.382)" fill="#fff" opacity="0.3"/>
      <path id="Trazado_909897" data-name="Trazado 909897" d="M319.493,163.556l-.053.912h-5.31l.045-.708,3.178-2.884c.821-.755,1-1.213,1.024-1.673.045-.755-.46-1.22-1.511-1.22a2.482,2.482,0,0,0-1.936.8l-.678-.617a3.63,3.63,0,0,1,2.765-1.115c1.511,0,2.482.755,2.411,2.05a3.18,3.18,0,0,1-1.348,2.3l-2.388,2.158Z" transform="translate(1515.74 -8896.311)" fill="#344154"/>
      <path id="Trazado_909898" data-name="Trazado 909898" d="M322.488,165.765a.755.755,0,0,1,.755-.715.648.648,0,0,1,.655.715.755.755,0,0,1-.755.755.67.67,0,0,1-.655-.755Z" transform="translate(1513.678 -8898.287)" fill="#344154"/>
      <path id="Trazado_909899" data-name="Trazado 909899" d="M332.05,162.691h-1.4l-.108,1.8h-1.024l.108-1.8h-4.1l.045-.755,4.067-4.8h1.137l-3.895,4.625h2.839l.091-1.59h.994l-.1,1.59h1.408Z" transform="translate(1512.929 -8896.334)" fill="#344154"/>
      <path id="Trazado_909900" data-name="Trazado 909900" d="M335.186,160.766c.144-2.388,1.511-3.766,3.237-3.766s2.922,1.363,2.78,3.766-1.511,3.766-3.231,3.766S335.043,163.183,335.186,160.766Zm4.964,0c.108-1.876-.632-2.816-1.777-2.816s-2.019.941-2.131,2.816.632,2.824,1.792,2.824S340.036,162.664,340.15,160.766Z" transform="translate(1510.546 -8896.3)" fill="#344154"/>
      <path id="Trazado_909901" data-name="Trazado 909901" d="M344.526,160.766c.144-2.388,1.511-3.766,3.246-3.766s2.922,1.363,2.78,3.766-1.511,3.766-3.231,3.766S344.383,163.183,344.526,160.766Zm4.971,0c.108-1.876-.632-2.816-1.785-2.816s-2.019.941-2.131,2.816.632,2.824,1.792,2.824S349.4,162.664,349.5,160.766Z" transform="translate(1508.24 -8896.3)" fill="#344154"/>
      <path id="Trazado_909902" data-name="Trazado 909902" d="M353.438,165.765a.755.755,0,0,1,.755-.715.648.648,0,0,1,.655.715.755.755,0,0,1-.755.755.67.67,0,0,1-.655-.755Z" transform="translate(1506.039 -8898.287)" fill="#344154"/>
      <path id="Trazado_909903" data-name="Trazado 909903" d="M362.708,162.4c-.076,1.333-1.266,2.158-3.066,2.158s-2.877-.821-2.795-2.158a1.959,1.959,0,0,1,1.4-1.77,1.559,1.559,0,0,1-.941-1.582c.076-1.228,1.187-2,2.78-2s2.636.755,2.561,2a1.8,1.8,0,0,1-1.137,1.582,1.694,1.694,0,0,1,1.2,1.77Zm-1.047,0c.045-.806-.64-1.31-1.815-1.31s-1.9.505-1.942,1.31.617,1.34,1.785,1.34,1.921-.54,1.974-1.37Zm-3.306-3.284c-.045.755.528,1.175,1.511,1.175s1.672-.452,1.709-1.175S361,157.927,360,157.927s-1.6.422-1.642,1.152Z" transform="translate(1505.197 -8896.313)" fill="#344154"/>
      <path id="Trazado_909904" data-name="Trazado 909904" d="M371.514,160.7c-.151,2.5-1.658,3.842-3.721,3.842a3.453,3.453,0,0,1-1.815-.432l.452-.814a2.53,2.53,0,0,0,1.4.346c1.511,0,2.508-.933,2.614-2.765v-.263a2.613,2.613,0,0,1-2.184.964,2.125,2.125,0,0,1-2.388-2.26,2.546,2.546,0,0,1,2.742-2.32C370.605,157.036,371.646,158.361,371.514,160.7ZM370.3,159.3c.045-.755-.528-1.416-1.68-1.416a1.552,1.552,0,0,0-1.709,1.423c-.053.863.557,1.416,1.59,1.416a1.65,1.65,0,0,0,1.8-1.424Z" transform="translate(1502.972 -8896.298)" fill="#344154"/>
      <path id="Trazado_909905" data-name="Trazado 909905" d="M328.447,149l-.181,2.952h-.432l.159-2.59h-.678V149Z" transform="translate(1512.487 -8894.325)" fill="#344154"/>
      <path id="Trazado_909906" data-name="Trazado 909906" d="M329.459,152.446a.309.309,0,0,1,.309-.286.263.263,0,0,1,.263.286.316.316,0,0,1-.3.294.263.263,0,0,1-.271-.294Z" transform="translate(1511.956 -8895.105)" fill="#344154"/>
      <path id="Trazado_909907" data-name="Trazado 909907" d="M331.755,149l-.174,2.952h-.422l.151-2.59h-.67V149Z" transform="translate(1511.664 -8894.325)" fill="#344154"/>
      <path id="Trazado_909908" data-name="Trazado 909908" d="M332.868,150.437c.06-.964.61-1.511,1.311-1.511s1.187.55,1.122,1.511-.61,1.511-1.3,1.511S332.808,151.4,332.868,150.437Zm2.011,0c.045-.755-.256-1.137-.755-1.137s-.814.384-.863,1.137.256,1.137.755,1.137.818-.384.863-1.137Z" transform="translate(1511.116 -8894.309)" fill="#344154"/>
      <path id="Trazado_909909" data-name="Trazado 909909" d="M336.638,150.437c.06-.964.61-1.511,1.31-1.511s1.187.55,1.13,1.511-.617,1.511-1.31,1.511S336.586,151.4,336.638,150.437Zm2.011,0c.045-.755-.256-1.137-.755-1.137s-.814.384-.863,1.137.256,1.137.755,1.137S338.6,151.19,338.65,150.437Z" transform="translate(1510.185 -8894.309)" fill="#344154"/>
      <path id="Trazado_909910" data-name="Trazado 909910" d="M340.24,152.446a.309.309,0,0,1,.309-.286.263.263,0,0,1,.263.286.309.309,0,0,1-.3.294.271.271,0,0,1-.271-.294Z" transform="translate(1509.295 -8895.105)" fill="#344154"/>
      <path id="Trazado_909911" data-name="Trazado 909911" d="M343.982,151.074c0,.54-.513.874-1.243.874s-1.16-.331-1.13-.874a.8.8,0,0,1,.572-.715.61.61,0,0,1-.384-.632c0-.5.482-.806,1.122-.806s1.069.309,1.039.806a.755.755,0,0,1-.46.632A.685.685,0,0,1,343.982,151.074Zm-.422,0c0-.331-.263-.54-.755-.54s-.755.2-.791.54.248.54.755.54S343.538,151.4,343.56,151.074Zm-1.34-1.34c0,.294.216.475.625.475s.678-.181.693-.475-.233-.475-.632-.475-.658.189-.685.475Z" transform="translate(1508.958 -8894.306)" fill="#344154"/>
      <path id="Trazado_909912" data-name="Trazado 909912" d="M345.328,150.437c.06-.964.61-1.511,1.31-1.511s1.187.55,1.122,1.511-.61,1.511-1.3,1.511S345.268,151.4,345.328,150.437Zm2.011,0c.045-.755-.256-1.137-.755-1.137s-.814.384-.863,1.137.256,1.137.755,1.137.818-.384.863-1.137Z" transform="translate(1508.04 -8894.309)" fill="#344154"/>
      <path id="Trazado_909913" data-name="Trazado 909913" d="M351.161,150.795h-.755l-.045.755h-.354l.045-.755H349.3v-.331h.755l.053-.755h.354l-.045.755h.755Z" transform="translate(1507.058 -8894.501)" fill="#344154"/>
      <path id="Trazado_909914" data-name="Trazado 909914" d="M353.315,149l-.174,2.952h-.422l.151-2.59h-.67V149Z" transform="translate(1506.344 -8894.325)" fill="#344154"/>
      <path id="Trazado_909915" data-name="Trazado 909915" d="M354.32,152.446a.309.309,0,0,1,.309-.286.263.263,0,0,1,.263.286.309.309,0,0,1-.3.294.271.271,0,0,1-.271-.294Z" transform="translate(1505.821 -8895.105)" fill="#344154"/>
      <path id="Trazado_909916" data-name="Trazado 909916" d="M357.69,151.053c0,.5-.422.9-1.187.9a1.612,1.612,0,0,1-1.079-.362l.216-.331a1.265,1.265,0,0,0,.882.316c.445,0,.715-.2.755-.528s-.2-.513-.708-.513h-.241v-.294l.806-.919H355.7v-.362h1.974v.286l-.844.956C357.434,150.266,357.72,150.6,357.69,151.053Z" transform="translate(1505.546 -8894.318)" fill="#344154"/>
      <path id="Trazado_909917" data-name="Trazado 909917" d="M359,150.437c.06-.964.61-1.511,1.31-1.511s1.187.55,1.13,1.511-.61,1.511-1.31,1.511S358.946,151.4,359,150.437Zm2.011,0c.045-.755-.256-1.137-.755-1.137s-.814.384-.863,1.137.256,1.137.755,1.137.816-.384.861-1.137Z" transform="translate(1504.666 -8894.309)" fill="#344154"/>
      <path id="Trazado_909918" data-name="Trazado 909918" d="M362.778,150.437c.053-.964.61-1.511,1.31-1.511s1.187.55,1.122,1.511-.61,1.511-1.3,1.511S362.718,151.4,362.778,150.437Zm2,0c.045-.755-.256-1.137-.715-1.137s-.821.384-.863,1.137.256,1.137.755,1.137S364.737,151.19,364.782,150.437Z" transform="translate(1503.734 -8894.309)" fill="#344154"/>
      <path id="Trazado_909919" data-name="Trazado 909919" d="M366.37,152.446a.309.309,0,0,1,.309-.286.256.256,0,0,1,.263.286.3.3,0,0,1-.294.294.278.278,0,0,1-.278-.294Z" transform="translate(1502.846 -8895.105)" fill="#344154"/>
      <path id="Trazado_909920" data-name="Trazado 909920" d="M367.7,150.437c.053-.964.61-1.511,1.311-1.511s1.187.55,1.122,1.511-.61,1.511-1.3,1.511S367.638,151.4,367.7,150.437Zm2,0c.053-.755-.256-1.137-.715-1.137s-.821.384-.863,1.137.256,1.137.755,1.137.791-.384.829-1.137Z" transform="translate(1502.52 -8894.309)" fill="#344154"/>
      <path id="Trazado_909921" data-name="Trazado 909921" d="M373.662,150.4a1.461,1.461,0,0,1-1.511,1.552,1.348,1.348,0,0,1-.755-.174l.181-.331a.971.971,0,0,0,.564.144c.6,0,1.009-.377,1.054-1.122v-.108a1.047,1.047,0,0,1-.882.392c-.595,0-1-.346-.971-.9a1.032,1.032,0,0,1,1.115-.933C373.3,148.919,373.723,149.454,373.662,150.4Zm-.49-.564c0-.3-.216-.564-.678-.564a.625.625,0,0,0-.693.572c0,.346.226.572.647.572a.663.663,0,0,0,.723-.579Z" transform="translate(1501.617 -8894.305)" fill="#344154"/>
      <path id="Trazado_909922" data-name="Trazado 909922" d="M351.539,118.87c-8.918,22.174-36.356,76.539-100.107,107.372l5.912-103.888a3.706,3.706,0,0,1,3.66-3.48Z" transform="translate(1531.214 -8886.89)" fill="#fff" opacity="0.1"/>
      <g id="Grupo_1117825" data-name="Grupo 1117825" transform="translate(1790.199 -8715.364)">
        <path id="Trazado_909923" data-name="Trazado 909923" d="M372.062,188.87H361.723a1.511,1.511,0,0,0-1.469,1.393l-.2,3.577a1.3,1.3,0,0,0,1.311,1.393h10.3a1.511,1.511,0,0,0,1.469-1.393l.2-3.577a1.3,1.3,0,0,0-1.273-1.393Z" transform="translate(-285.791 -188.801)" fill="#344154"/>
        <path id="Trazado_909924" data-name="Trazado 909924" d="M348.825,188.78h-10.3a1.511,1.511,0,0,0-1.469,1.393l-.2,3.577a1.31,1.31,0,0,0,1.31,1.393h10.3a1.511,1.511,0,0,0,1.511-1.393l.2-3.577a1.3,1.3,0,0,0-1.348-1.393Z" transform="translate(-280.065 -188.779)" fill="#344154"/>
        <path id="Trazado_909925" data-name="Trazado 909925" d="M371.278,202.06h-10.3a1.511,1.511,0,0,0-1.469,1.393l-.2,3.577a1.3,1.3,0,0,0,1.31,1.393h10.3a1.511,1.511,0,0,0,1.469-1.393l.2-3.577a1.3,1.3,0,0,0-1.31-1.393Z" transform="translate(-285.607 -192.057)" fill="#344154"/>
        <path id="Trazado_909926" data-name="Trazado 909926" d="M348.078,202h-10.3a1.511,1.511,0,0,0-1.469,1.393l-.206,3.571a1.3,1.3,0,0,0,1.31,1.393h10.3a1.511,1.511,0,0,0,1.511-1.393l.2-3.57A1.295,1.295,0,0,0,348.078,202Z" transform="translate(-279.881 -192.041)" fill="#344154"/>
        <path id="Trazado_909927" data-name="Trazado 909927" d="M324.865,202.06h-10.3a1.511,1.511,0,0,0-1.469,1.393l-.2,3.577a1.3,1.3,0,0,0,1.31,1.393h10.3a1.511,1.511,0,0,0,1.469-1.393l.2-3.577a1.3,1.3,0,0,0-1.31-1.393Z" transform="translate(-274.153 -192.057)" fill="#344154"/>
        <path id="Trazado_909928" data-name="Trazado 909928" d="M301.667,202.15h-10.3a1.511,1.511,0,0,0-1.431,1.393l-.2,3.577a1.3,1.3,0,0,0,1.31,1.393h10.266a1.511,1.511,0,0,0,1.469-1.393l.2-3.577a1.3,1.3,0,0,0-1.31-1.393Z" transform="translate(-268.436 -192.079)" fill="#344154"/>
        <path id="Trazado_909929" data-name="Trazado 909929" d="M278.445,202.23h-10.3a1.511,1.511,0,0,0-1.461,1.393l-.216,3.577a1.31,1.31,0,0,0,1.31,1.393h10.3a1.511,1.511,0,0,0,1.469-1.393l.2-3.577a1.3,1.3,0,0,0-1.31-1.393Z" transform="translate(-262.696 -192.098)" fill="#344154"/>
        <path id="Trazado_909930" data-name="Trazado 909930" d="M369.974,219.77h-9.792a1.762,1.762,0,0,0-1.74,1.65l-.294,5.046a1.544,1.544,0,0,0,1.559,1.65H369.5a1.762,1.762,0,0,0,1.74-1.65l.286-5.046a1.511,1.511,0,0,0-1.552-1.65Z" transform="translate(-285.322 -196.428)" fill="#344154"/>
        <path id="Trazado_909931" data-name="Trazado 909931" d="M346.776,219.65h-9.792a1.77,1.77,0,0,0-1.74,1.658l-.286,5.046A1.511,1.511,0,0,0,336.51,228H346.3a1.762,1.762,0,0,0,1.74-1.65l.293-5.046a1.552,1.552,0,0,0-1.559-1.658Z" transform="translate(-279.598 -196.399)" fill="#344154"/>
        <path id="Trazado_909932" data-name="Trazado 909932" d="M323.567,219.77h-9.792a1.762,1.762,0,0,0-1.74,1.65l-.286,5.046a1.511,1.511,0,0,0,1.552,1.65h9.792a1.762,1.762,0,0,0,1.74-1.65l.286-5.046a1.511,1.511,0,0,0-1.552-1.65Z" transform="translate(-273.87 -196.428)" fill="#344154"/>
        <path id="Trazado_909933" data-name="Trazado 909933" d="M300.354,219.88h-9.792a1.762,1.762,0,0,0-1.74,1.658l-.294,5.038a1.552,1.552,0,0,0,1.559,1.658h9.792a1.77,1.77,0,0,0,1.74-1.658l.286-5.038a1.511,1.511,0,0,0-1.552-1.658Z" transform="translate(-268.14 -196.455)" fill="#344154"/>
        <path id="Trazado_909934" data-name="Trazado 909934" d="M277.122,220h-9.792a1.777,1.777,0,0,0-1.747,1.658L265.3,226.7a1.511,1.511,0,0,0,1.559,1.65h9.792a1.762,1.762,0,0,0,1.74-1.65l.286-5.046A1.511,1.511,0,0,0,277.122,220Z" transform="translate(-262.406 -196.484)" fill="#344154"/>
        <path id="Trazado_909935" data-name="Trazado 909935" d="M342.914,287.51h-9.792a1.762,1.762,0,0,0-1.74,1.658l-.294,5.038a1.544,1.544,0,0,0,1.559,1.658h9.792a1.762,1.762,0,0,0,1.74-1.657l.286-5.038a1.511,1.511,0,0,0-1.552-1.658Z" transform="translate(-278.644 -213.146)" fill="#344154"/>
        <path id="Trazado_909936" data-name="Trazado 909936" d="M319.7,287.62h-9.792a1.777,1.777,0,0,0-1.747,1.658l-.286,5.046a1.511,1.511,0,0,0,1.559,1.65h9.8a1.762,1.762,0,0,0,1.74-1.65l.286-5.046a1.511,1.511,0,0,0-1.552-1.658Z" transform="translate(-272.915 -213.173)" fill="#344154"/>
        <path id="Trazado_909937" data-name="Trazado 909937" d="M296.494,287.74H286.7a1.77,1.77,0,0,0-1.747,1.65l-.286,5.046a1.552,1.552,0,0,0,1.552,1.658h9.792a1.777,1.777,0,0,0,1.74-1.658l.286-5.046a1.511,1.511,0,0,0-1.544-1.65Z" transform="translate(-267.187 -213.203)" fill="#344154"/>
        <path id="Trazado_909938" data-name="Trazado 909938" d="M273.285,287.85h-9.792a1.77,1.77,0,0,0-1.74,1.658l-.286,5.038a1.511,1.511,0,0,0,1.552,1.658h9.792a1.77,1.77,0,0,0,1.747-1.658l.286-5.038a1.511,1.511,0,0,0-1.559-1.658Z" transform="translate(-261.46 -213.23)" fill="#344154"/>
        <path id="Trazado_909939" data-name="Trazado 909939" d="M366.879,270.66h-9.792a1.762,1.762,0,0,0-1.74,1.658L355.1,276.7l-.038.655-.755,12.8a1.511,1.511,0,0,0,1.559,1.65h9.792a1.77,1.77,0,0,0,1.74-1.65l.755-12.8V276.7l.256-4.383a1.544,1.544,0,0,0-1.529-1.658Z" transform="translate(-284.374 -208.988)" fill="#344154"/>
        <path id="Trazado_909940" data-name="Trazado 909940" d="M343.875,270.55h-9.792a1.77,1.77,0,0,0-1.74,1.65l-.286,5.046a1.511,1.511,0,0,0,1.552,1.65H343.4a1.77,1.77,0,0,0,1.747-1.65l.286-5.046a1.511,1.511,0,0,0-1.559-1.65Z" transform="translate(-278.882 -208.96)" fill="#344154"/>
        <path id="Trazado_909941" data-name="Trazado 909941" d="M320.667,270.66h-9.792a1.762,1.762,0,0,0-1.74,1.656l-.286,5.038a1.511,1.511,0,0,0,1.552,1.658h9.792a1.777,1.777,0,0,0,1.747-1.658l.286-5.038a1.544,1.544,0,0,0-1.559-1.658Z" transform="translate(-273.154 -208.988)" fill="#344154"/>
        <path id="Trazado_909942" data-name="Trazado 909942" d="M297.45,270.77h-9.792a1.77,1.77,0,0,0-1.755,1.679l-.286,5.044a1.511,1.511,0,0,0,1.552,1.65h9.792a1.762,1.762,0,0,0,1.74-1.65l.294-5.046a1.552,1.552,0,0,0-1.544-1.68Z" transform="translate(-267.421 -209.015)" fill="#344154"/>
        <path id="Trazado_909943" data-name="Trazado 909943" d="M274.245,270.889h-9.8a1.762,1.762,0,0,0-1.74,1.65l-.286,5.046a1.511,1.511,0,0,0,1.559,1.673h9.792a1.762,1.762,0,0,0,1.74-1.65l.286-5.046a1.511,1.511,0,0,0-1.559-1.672Z" transform="translate(-261.697 -209.044)" fill="#344154"/>
        <path id="Trazado_909944" data-name="Trazado 909944" d="M368.042,253.7H358.25a1.77,1.77,0,0,0-1.747,1.65l-.286,5.046a1.511,1.511,0,0,0,1.559,1.65h9.792a1.762,1.762,0,0,0,1.74-1.65l.286-5.046a1.511,1.511,0,0,0-1.552-1.65Z" transform="translate(-284.845 -204.801)" fill="#344154"/>
        <path id="Trazado_909945" data-name="Trazado 909945" d="M344.845,253.58h-9.8a1.77,1.77,0,0,0-1.74,1.658l-.286,5.038a1.511,1.511,0,0,0,1.552,1.658h9.792a1.762,1.762,0,0,0,1.74-1.658l.286-5.038a1.511,1.511,0,0,0-1.552-1.658Z" transform="translate(-279.122 -204.772)" fill="#344154"/>
        <path id="Trazado_909946" data-name="Trazado 909946" d="M321.632,253.7h-9.792a1.762,1.762,0,0,0-1.74,1.65l-.294,5.046a1.511,1.511,0,0,0,1.559,1.65h9.792a1.762,1.762,0,0,0,1.74-1.65l.286-5.046a1.511,1.511,0,0,0-1.552-1.65Z" transform="translate(-273.391 -204.801)" fill="#344154"/>
        <path id="Trazado_909947" data-name="Trazado 909947" d="M298.429,253.809h-9.792a1.77,1.77,0,0,0-1.732,1.65l-.286,5.046a1.552,1.552,0,0,0,1.559,1.658h9.792a1.77,1.77,0,0,0,1.74-1.658l.286-5.046a1.511,1.511,0,0,0-1.567-1.65Z" transform="translate(-267.668 -204.828)" fill="#344154"/>
        <path id="Trazado_909948" data-name="Trazado 909948" d="M275.212,253.92h-9.792a1.77,1.77,0,0,0-1.747,1.658l-.286,5.038a1.511,1.511,0,0,0,1.552,1.658h9.793a1.77,1.77,0,0,0,1.74-1.657l.286-5.038a1.511,1.511,0,0,0-1.544-1.658Z" transform="translate(-261.934 -204.856)" fill="#344154"/>
        <path id="Trazado_909949" data-name="Trazado 909949" d="M369,236.73h-9.792a1.77,1.77,0,0,0-1.74,1.658l-.286,5.038a1.511,1.511,0,0,0,1.552,1.658h9.793a1.77,1.77,0,0,0,1.747-1.658l.286-5.038a1.544,1.544,0,0,0-1.559-1.658Z" transform="translate(-285.084 -200.613)" fill="#344154"/>
        <path id="Trazado_909950" data-name="Trazado 909950" d="M345.814,236.62h-9.792a1.77,1.77,0,0,0-1.747,1.65l-.286,5.046a1.552,1.552,0,0,0,1.552,1.658h9.791a1.777,1.777,0,0,0,1.74-1.658l.286-5.046a1.511,1.511,0,0,0-1.544-1.65Z" transform="translate(-279.36 -200.587)" fill="#344154"/>
        <path id="Trazado_909951" data-name="Trazado 909951" d="M322.6,236.729h-9.792a1.77,1.77,0,0,0-1.74,1.658l-.286,5.038a1.511,1.511,0,0,0,1.552,1.658h9.793a1.77,1.77,0,0,0,1.747-1.658l.286-5.038a1.511,1.511,0,0,0-1.559-1.658Z" transform="translate(-273.633 -200.614)" fill="#344154"/>
        <path id="Trazado_909952" data-name="Trazado 909952" d="M299.4,236.84h-9.792a1.77,1.77,0,0,0-1.7,1.627l-.286,5.046a1.511,1.511,0,0,0,1.552,1.65h9.792a1.77,1.77,0,0,0,1.747-1.65l.286-5.046a1.552,1.552,0,0,0-1.6-1.627Z" transform="translate(-267.914 -200.64)" fill="#344154"/>
        <path id="Trazado_909953" data-name="Trazado 909953" d="M276.175,237h-9.792a1.762,1.762,0,0,0-1.739,1.65l-.286,5.046a1.511,1.511,0,0,0,1.552,1.658H275.7a1.762,1.762,0,0,0,1.74-1.657l.294-5.046a1.511,1.511,0,0,0-1.559-1.65Z" transform="translate(-262.174 -200.68)" fill="#344154"/>
      </g>
      <path id="Trazado_909954" data-name="Trazado 909954" d="M371.071,188.87H360.79a1.511,1.511,0,0,0-1.511,1.393l-.2,3.577a1.3,1.3,0,0,0,1.31,1.393h10.3a1.511,1.511,0,0,0,1.469-1.393l.2-3.577a1.3,1.3,0,0,0-1.295-1.393Z" transform="translate(1504.646 -8904.166)" fill="#344154"/>
      <path id="Trazado_909955" data-name="Trazado 909955" d="M347.905,188.78H337.6a1.511,1.511,0,0,0-1.469,1.393l-.2,3.577a1.3,1.3,0,0,0,1.311,1.393h10.3a1.511,1.511,0,0,0,1.469-1.393l.2-3.577a1.3,1.3,0,0,0-1.31-1.393Z" transform="translate(1510.36 -8904.144)" fill="#344154"/>
      <path id="Trazado_909956" data-name="Trazado 909956" d="M370.342,202.06h-10.3a1.511,1.511,0,0,0-1.511,1.393l-.2,3.577a1.3,1.3,0,0,0,1.311,1.393h10.341a1.511,1.511,0,0,0,1.469-1.393l.2-3.577a1.3,1.3,0,0,0-1.31-1.393Z" transform="translate(1504.831 -8907.421)" fill="#344154"/>
      <path id="Trazado_909957" data-name="Trazado 909957" d="M347.154,202h-10.3a1.511,1.511,0,0,0-1.469,1.393l-.2,3.57a1.295,1.295,0,0,0,1.31,1.393h10.3a1.511,1.511,0,0,0,1.467-1.392l.2-3.57A1.3,1.3,0,0,0,347.154,202Z" transform="translate(1510.546 -8907.405)" fill="#344154"/>
      <path id="Trazado_909958" data-name="Trazado 909958" d="M323.945,202.06h-10.3a1.511,1.511,0,0,0-1.469,1.393l-.2,3.577a1.3,1.3,0,0,0,1.31,1.393h10.3a1.511,1.511,0,0,0,1.469-1.393l.2-3.577a1.3,1.3,0,0,0-1.31-1.393Z" transform="translate(1516.273 -8907.421)" fill="#344154"/>
      <path id="Trazado_909959" data-name="Trazado 909959" d="M300.728,202.15H290.44a1.511,1.511,0,0,0-1.511,1.393l-.2,3.577a1.3,1.3,0,0,0,1.31,1.393h10.3a1.511,1.511,0,0,0,1.469-1.393l.2-3.577a1.3,1.3,0,0,0-1.289-1.393Z" transform="translate(1522.009 -8907.443)" fill="#344154"/>
      <path id="Trazado_909960" data-name="Trazado 909960" d="M277.525,202.23h-10.3a1.511,1.511,0,0,0-1.469,1.393l-.2,3.577a1.3,1.3,0,0,0,1.31,1.393h10.326a1.511,1.511,0,0,0,1.469-1.393l.2-3.577a1.3,1.3,0,0,0-1.333-1.393Z" transform="translate(1527.73 -8907.462)" fill="#344154"/>
      <path id="Trazado_909961" data-name="Trazado 909961" d="M369.056,219.769h-9.792a1.77,1.77,0,0,0-1.743,1.652l-.286,5.046a1.511,1.511,0,0,0,1.552,1.65h9.792a1.77,1.77,0,0,0,1.747-1.65l.286-5.017a1.511,1.511,0,0,0-1.559-1.679Z" transform="translate(1505.102 -8911.792)" fill="#344154"/>
      <path id="Trazado_909962" data-name="Trazado 909962" d="M345.852,219.65h-9.792a1.777,1.777,0,0,0-1.747,1.658l-.286,5.046a1.511,1.511,0,0,0,1.552,1.65h9.792a1.77,1.77,0,0,0,1.74-1.65l.286-5.046a1.511,1.511,0,0,0-1.544-1.658Z" transform="translate(1510.83 -8911.762)" fill="#344154"/>
      <path id="Trazado_909963" data-name="Trazado 909963" d="M322.645,219.77h-9.8a1.77,1.77,0,0,0-1.74,1.65l-.286,5.046a1.511,1.511,0,0,0,1.552,1.65h9.792a1.77,1.77,0,0,0,1.747-1.65l.286-5.046a1.511,1.511,0,0,0-1.559-1.65Z" transform="translate(1516.556 -8911.792)" fill="#344154"/>
      <path id="Trazado_909964" data-name="Trazado 909964" d="M299.425,219.88h-9.792a1.762,1.762,0,0,0-1.74,1.658l-.286,5.038a1.511,1.511,0,0,0,1.552,1.658h9.792a1.777,1.777,0,0,0,1.747-1.658l.286-5.038a1.544,1.544,0,0,0-1.559-1.658Z" transform="translate(1522.287 -8911.818)" fill="#344154"/>
      <path id="Trazado_909965" data-name="Trazado 909965" d="M276.215,220h-9.792a1.77,1.77,0,0,0-1.74,1.658L264.4,226.7a1.511,1.511,0,0,0,1.552,1.65h9.792a1.77,1.77,0,0,0,1.747-1.65l.286-5.046A1.552,1.552,0,0,0,276.215,220Z" transform="translate(1528.015 -8911.849)" fill="#344154"/>
      <path id="Trazado_909966" data-name="Trazado 909966" d="M341.985,287.51h-9.792a1.762,1.762,0,0,0-1.74,1.658l-.286,5.038a1.511,1.511,0,0,0,1.552,1.658h9.792a1.77,1.77,0,0,0,1.747-1.658l.286-5.038a1.544,1.544,0,0,0-1.559-1.658Z" transform="translate(1511.783 -8928.51)" fill="#344154"/>
      <path id="Trazado_909967" data-name="Trazado 909967" d="M318.775,287.62h-9.792a1.77,1.77,0,0,0-1.74,1.658l-.286,5.046a1.511,1.511,0,0,0,1.552,1.65H318.3a1.762,1.762,0,0,0,1.74-1.65l.293-5.046a1.552,1.552,0,0,0-1.559-1.658Z" transform="translate(1517.511 -8928.537)" fill="#344154"/>
      <path id="Trazado_909968" data-name="Trazado 909968" d="M295.567,287.74h-9.792a1.762,1.762,0,0,0-1.74,1.65l-.286,5.046a1.511,1.511,0,0,0,1.552,1.658h9.792a1.77,1.77,0,0,0,1.74-1.658l.286-5.046a1.511,1.511,0,0,0-1.552-1.65Z" transform="translate(1523.24 -8928.566)" fill="#344154"/>
      <path id="Trazado_909969" data-name="Trazado 909969" d="M272.354,287.85h-9.792a1.762,1.762,0,0,0-1.74,1.658l-.294,5.038a1.552,1.552,0,0,0,1.559,1.658h9.792a1.762,1.762,0,0,0,1.74-1.658l.286-5.038a1.511,1.511,0,0,0-1.552-1.658Z" transform="translate(1528.969 -8928.594)" fill="#344154"/>
      <path id="Trazado_909970" data-name="Trazado 909970" d="M365.876,270.66h-9.791a1.77,1.77,0,0,0-1.747,1.658l-.248,4.383-.038.655-.755,12.8a1.511,1.511,0,0,0,1.552,1.65h9.792a1.762,1.762,0,0,0,1.74-1.65l.755-12.8.038-.655.248-4.383a1.511,1.511,0,0,0-1.544-1.658Z" transform="translate(1506.074 -8924.352)" fill="#344154"/>
      <path id="Trazado_909971" data-name="Trazado 909971" d="M342.954,270.55h-9.792a1.762,1.762,0,0,0-1.74,1.65l-.294,5.046a1.544,1.544,0,0,0,1.559,1.65h9.792a1.762,1.762,0,0,0,1.74-1.65l.286-5.046a1.511,1.511,0,0,0-1.552-1.65Z" transform="translate(1511.545 -8924.324)" fill="#344154"/>
      <path id="Trazado_909972" data-name="Trazado 909972" d="M319.744,270.66h-9.8a1.77,1.77,0,0,0-1.747,1.658l-.286,5.038a1.552,1.552,0,0,0,1.559,1.658h9.792a1.77,1.77,0,0,0,1.74-1.658l.286-5.038a1.511,1.511,0,0,0-1.552-1.658Z" transform="translate(1517.273 -8924.352)" fill="#344154"/>
      <path id="Trazado_909973" data-name="Trazado 909973" d="M296.532,270.77h-9.792a1.777,1.777,0,0,0-1.747,1.658l-.286,5.046a1.511,1.511,0,0,0,1.559,1.65h9.792a1.77,1.77,0,0,0,1.74-1.65l.286-5.046a1.511,1.511,0,0,0-1.552-1.658Z" transform="translate(1523.003 -8924.379)" fill="#344154"/>
      <path id="Trazado_909974" data-name="Trazado 909974" d="M273.322,270.89h-9.792a1.77,1.77,0,0,0-1.747,1.65l-.286,5.046a1.511,1.511,0,0,0,1.552,1.65h9.792a1.77,1.77,0,0,0,1.74-1.65l.286-5.046a1.511,1.511,0,0,0-1.544-1.65Z" transform="translate(1528.731 -8924.408)" fill="#344154"/>
      <path id="Trazado_909975" data-name="Trazado 909975" d="M367.125,253.7h-9.792a1.762,1.762,0,0,0-1.74,1.65l-.286,5.046a1.511,1.511,0,0,0,1.552,1.65h9.792a1.77,1.77,0,0,0,1.747-1.65l.286-5.046a1.511,1.511,0,0,0-1.559-1.65Z" transform="translate(1505.578 -8920.165)" fill="#344154"/>
      <path id="Trazado_909976" data-name="Trazado 909976" d="M343.925,253.58h-9.792a1.777,1.777,0,0,0-1.74,1.658l-.286,5.038a1.511,1.511,0,0,0,1.552,1.658h9.792a1.77,1.77,0,0,0,1.747-1.658l.286-5.038a1.552,1.552,0,0,0-1.559-1.658Z" transform="translate(1511.304 -8920.137)" fill="#344154"/>
      <path id="Trazado_909977" data-name="Trazado 909977" d="M320.706,253.7h-9.792a1.762,1.762,0,0,0-1.74,1.65l-.286,5.046a1.511,1.511,0,0,0,1.552,1.65h9.792a1.77,1.77,0,0,0,1.747-1.65l.286-5.046a1.511,1.511,0,0,0-1.559-1.65Z" transform="translate(1517.035 -8920.165)" fill="#344154"/>
      <path id="Trazado_909978" data-name="Trazado 909978" d="M297.495,253.81H287.7a1.762,1.762,0,0,0-1.74,1.65l-.286,5.046a1.511,1.511,0,0,0,1.552,1.658h9.792a1.777,1.777,0,0,0,1.747-1.658l.286-5.046a1.511,1.511,0,0,0-1.559-1.65Z" transform="translate(1522.763 -8920.192)" fill="#344154"/>
      <path id="Trazado_909979" data-name="Trazado 909979" d="M274.285,253.92h-9.792a1.762,1.762,0,0,0-1.74,1.658l-.286,5.039a1.511,1.511,0,0,0,1.552,1.658h9.792a1.762,1.762,0,0,0,1.74-1.658l.293-5.038a1.552,1.552,0,0,0-1.559-1.658Z" transform="translate(1528.492 -8920.221)" fill="#344154"/>
      <path id="Trazado_909980" data-name="Trazado 909980" d="M368.124,236.73h-9.792a1.762,1.762,0,0,0-1.74,1.658l-.294,5.038a1.544,1.544,0,0,0,1.559,1.658h9.792a1.762,1.762,0,0,0,1.74-1.658l.286-5.038a1.511,1.511,0,0,0-1.552-1.658Z" transform="translate(1505.333 -8915.978)" fill="#344154"/>
      <path id="Trazado_909981" data-name="Trazado 909981" d="M344.885,236.62h-9.792a1.762,1.762,0,0,0-1.739,1.65l-.286,5.046a1.511,1.511,0,0,0,1.552,1.658h9.792a1.77,1.77,0,0,0,1.74-1.658l.286-5.046a1.511,1.511,0,0,0-1.552-1.65Z" transform="translate(1511.067 -8915.95)" fill="#344154"/>
      <path id="Trazado_909982" data-name="Trazado 909982" d="M321.674,236.73h-9.792a1.762,1.762,0,0,0-1.74,1.658l-.294,5.038a1.552,1.552,0,0,0,1.559,1.658H321.2a1.762,1.762,0,0,0,1.74-1.658l.286-5.038a1.511,1.511,0,0,0-1.552-1.658Z" transform="translate(1516.797 -8915.978)" fill="#344154"/>
      <path id="Trazado_909983" data-name="Trazado 909983" d="M298.457,236.84h-9.792a1.777,1.777,0,0,0-1.762,1.627l-.286,5.046a1.511,1.511,0,0,0,1.559,1.65h9.792a1.762,1.762,0,0,0,1.74-1.65l.286-5.046a1.511,1.511,0,0,0-1.537-1.627Z" transform="translate(1522.531 -8916.004)" fill="#344154"/>
      <path id="Trazado_909984" data-name="Trazado 909984" d="M275.254,237h-9.792a1.77,1.77,0,0,0-1.747,1.65l-.286,5.046a1.552,1.552,0,0,0,1.559,1.658h9.792a1.777,1.777,0,0,0,1.74-1.658l.286-5.046a1.511,1.511,0,0,0-1.552-1.65Z" transform="translate(1528.254 -8916.043)" fill="#344154"/>
      <g id="Grupo_1117826" data-name="Grupo 1117826" transform="translate(1789.495 -8715.363)" opacity="0.3">
        <path id="Trazado_909985" data-name="Trazado 909985" d="M371.071,188.87H360.79a1.511,1.511,0,0,0-1.511,1.393l-.2,3.577a1.3,1.3,0,0,0,1.31,1.393h10.3a1.511,1.511,0,0,0,1.469-1.393l.2-3.577a1.3,1.3,0,0,0-1.295-1.393Z" transform="translate(-284.849 -188.802)" fill="#fff"/>
        <path id="Trazado_909986" data-name="Trazado 909986" d="M347.905,188.78H337.6a1.511,1.511,0,0,0-1.469,1.393l-.2,3.577a1.3,1.3,0,0,0,1.311,1.393h10.3a1.511,1.511,0,0,0,1.469-1.393l.2-3.577a1.3,1.3,0,0,0-1.31-1.393Z" transform="translate(-279.135 -188.78)" fill="#fff"/>
        <path id="Trazado_909987" data-name="Trazado 909987" d="M370.342,202.06h-10.3a1.511,1.511,0,0,0-1.511,1.393l-.2,3.577a1.3,1.3,0,0,0,1.311,1.393h10.341a1.511,1.511,0,0,0,1.469-1.393l.2-3.577a1.3,1.3,0,0,0-1.31-1.393Z" transform="translate(-284.664 -192.058)" fill="#fff"/>
        <path id="Trazado_909988" data-name="Trazado 909988" d="M347.154,202h-10.3a1.511,1.511,0,0,0-1.469,1.393l-.2,3.57a1.295,1.295,0,0,0,1.31,1.393h10.3a1.511,1.511,0,0,0,1.467-1.392l.2-3.57A1.3,1.3,0,0,0,347.154,202Z" transform="translate(-278.95 -192.043)" fill="#fff"/>
        <path id="Trazado_909989" data-name="Trazado 909989" d="M323.945,202.06h-10.3a1.511,1.511,0,0,0-1.469,1.393l-.2,3.577a1.3,1.3,0,0,0,1.31,1.393h10.3a1.511,1.511,0,0,0,1.469-1.393l.2-3.577a1.3,1.3,0,0,0-1.31-1.393Z" transform="translate(-273.221 -192.058)" fill="#fff"/>
        <path id="Trazado_909990" data-name="Trazado 909990" d="M300.728,202.15H290.44a1.511,1.511,0,0,0-1.511,1.393l-.2,3.577a1.3,1.3,0,0,0,1.31,1.393h10.3a1.511,1.511,0,0,0,1.469-1.393l.2-3.577a1.3,1.3,0,0,0-1.289-1.393Z" transform="translate(-267.486 -192.08)" fill="#fff"/>
        <path id="Trazado_909991" data-name="Trazado 909991" d="M277.525,202.23h-10.3a1.511,1.511,0,0,0-1.469,1.393l-.2,3.577a1.3,1.3,0,0,0,1.31,1.393h10.326a1.511,1.511,0,0,0,1.469-1.393l.2-3.577a1.3,1.3,0,0,0-1.333-1.393Z" transform="translate(-261.765 -192.099)" fill="#fff"/>
        <path id="Trazado_909992" data-name="Trazado 909992" d="M369.056,219.769h-9.792a1.77,1.77,0,0,0-1.743,1.652l-.286,5.046a1.511,1.511,0,0,0,1.552,1.65h9.792a1.77,1.77,0,0,0,1.747-1.65l.286-5.017a1.511,1.511,0,0,0-1.559-1.679Z" transform="translate(-284.394 -196.428)" fill="#fff"/>
        <path id="Trazado_909993" data-name="Trazado 909993" d="M345.852,219.65h-9.792a1.777,1.777,0,0,0-1.747,1.658l-.286,5.046a1.511,1.511,0,0,0,1.552,1.65h9.792a1.77,1.77,0,0,0,1.74-1.65l.286-5.046a1.511,1.511,0,0,0-1.544-1.658Z" transform="translate(-278.665 -196.398)" fill="#fff"/>
        <path id="Trazado_909994" data-name="Trazado 909994" d="M322.645,219.77h-9.8a1.77,1.77,0,0,0-1.74,1.65l-.286,5.046a1.511,1.511,0,0,0,1.552,1.65h9.792a1.77,1.77,0,0,0,1.747-1.65l.286-5.046a1.511,1.511,0,0,0-1.559-1.65Z" transform="translate(-272.94 -196.428)" fill="#fff"/>
        <path id="Trazado_909995" data-name="Trazado 909995" d="M299.425,219.88h-9.792a1.762,1.762,0,0,0-1.74,1.658l-.286,5.038a1.511,1.511,0,0,0,1.552,1.658h9.792a1.777,1.777,0,0,0,1.747-1.658l.286-5.038a1.544,1.544,0,0,0-1.559-1.658Z" transform="translate(-267.208 -196.456)" fill="#fff"/>
        <path id="Trazado_909996" data-name="Trazado 909996" d="M276.215,220h-9.792a1.77,1.77,0,0,0-1.74,1.658L264.4,226.7a1.511,1.511,0,0,0,1.552,1.65h9.792a1.77,1.77,0,0,0,1.747-1.65l.286-5.046A1.552,1.552,0,0,0,276.215,220Z" transform="translate(-261.48 -196.485)" fill="#fff"/>
        <path id="Trazado_909997" data-name="Trazado 909997" d="M341.985,287.51h-9.792a1.762,1.762,0,0,0-1.74,1.658l-.286,5.038a1.511,1.511,0,0,0,1.552,1.658h9.792a1.77,1.77,0,0,0,1.747-1.658l.286-5.038a1.544,1.544,0,0,0-1.559-1.658Z" transform="translate(-277.711 -213.147)" fill="#fff"/>
        <path id="Trazado_909998" data-name="Trazado 909998" d="M318.775,287.62h-9.792a1.77,1.77,0,0,0-1.74,1.658l-.286,5.046a1.511,1.511,0,0,0,1.552,1.65H318.3a1.762,1.762,0,0,0,1.74-1.65l.293-5.046a1.552,1.552,0,0,0-1.559-1.658Z" transform="translate(-271.984 -213.174)" fill="#fff"/>
        <path id="Trazado_909999" data-name="Trazado 909999" d="M295.567,287.74h-9.792a1.762,1.762,0,0,0-1.74,1.65l-.286,5.046a1.511,1.511,0,0,0,1.552,1.658h9.792a1.77,1.77,0,0,0,1.74-1.658l.286-5.046a1.511,1.511,0,0,0-1.552-1.65Z" transform="translate(-266.256 -213.204)" fill="#fff"/>
        <path id="Trazado_910000" data-name="Trazado 910000" d="M272.354,287.85h-9.792a1.762,1.762,0,0,0-1.74,1.658l-.294,5.038a1.552,1.552,0,0,0,1.559,1.658h9.792a1.762,1.762,0,0,0,1.74-1.658l.286-5.038a1.511,1.511,0,0,0-1.552-1.658Z" transform="translate(-260.526 -213.23)" fill="#fff"/>
        <path id="Trazado_910001" data-name="Trazado 910001" d="M365.876,270.66h-9.791a1.77,1.77,0,0,0-1.747,1.658l-.248,4.383-.038.655-.755,12.8a1.511,1.511,0,0,0,1.552,1.65h9.792a1.762,1.762,0,0,0,1.74-1.65l.755-12.8.038-.655.248-4.383a1.511,1.511,0,0,0-1.544-1.658Z" transform="translate(-283.421 -208.988)" fill="#fff"/>
        <path id="Trazado_910002" data-name="Trazado 910002" d="M342.954,270.55h-9.792a1.762,1.762,0,0,0-1.74,1.65l-.294,5.046a1.544,1.544,0,0,0,1.559,1.65h9.792a1.762,1.762,0,0,0,1.74-1.65l.286-5.046a1.511,1.511,0,0,0-1.552-1.65Z" transform="translate(-277.95 -208.961)" fill="#fff"/>
        <path id="Trazado_910003" data-name="Trazado 910003" d="M319.744,270.66h-9.8a1.77,1.77,0,0,0-1.747,1.658l-.286,5.038a1.552,1.552,0,0,0,1.559,1.658h9.792a1.77,1.77,0,0,0,1.74-1.658l.286-5.038a1.511,1.511,0,0,0-1.552-1.658Z" transform="translate(-272.222 -208.988)" fill="#fff"/>
        <path id="Trazado_910004" data-name="Trazado 910004" d="M296.532,270.77h-9.792a1.777,1.777,0,0,0-1.747,1.658l-.286,5.046a1.511,1.511,0,0,0,1.559,1.65h9.792a1.77,1.77,0,0,0,1.74-1.65l.286-5.046a1.511,1.511,0,0,0-1.552-1.658Z" transform="translate(-266.493 -209.015)" fill="#fff"/>
        <path id="Trazado_910005" data-name="Trazado 910005" d="M273.322,270.89h-9.792a1.77,1.77,0,0,0-1.747,1.65l-.286,5.046a1.511,1.511,0,0,0,1.552,1.65h9.792a1.77,1.77,0,0,0,1.74-1.65l.286-5.046a1.511,1.511,0,0,0-1.544-1.65Z" transform="translate(-260.764 -209.045)" fill="#fff"/>
        <path id="Trazado_910006" data-name="Trazado 910006" d="M367.125,253.7h-9.792a1.762,1.762,0,0,0-1.74,1.65l-.286,5.046a1.511,1.511,0,0,0,1.552,1.65h9.792a1.77,1.77,0,0,0,1.747-1.65l.286-5.046a1.511,1.511,0,0,0-1.559-1.65Z" transform="translate(-283.917 -204.802)" fill="#fff"/>
        <path id="Trazado_910007" data-name="Trazado 910007" d="M343.925,253.58h-9.792a1.777,1.777,0,0,0-1.74,1.658l-.286,5.038a1.511,1.511,0,0,0,1.552,1.658h9.792a1.77,1.77,0,0,0,1.747-1.658l.286-5.038a1.552,1.552,0,0,0-1.559-1.658Z" transform="translate(-278.19 -204.773)" fill="#fff"/>
        <path id="Trazado_910008" data-name="Trazado 910008" d="M320.706,253.7h-9.792a1.762,1.762,0,0,0-1.74,1.65l-.286,5.046a1.511,1.511,0,0,0,1.552,1.65h9.792a1.77,1.77,0,0,0,1.747-1.65l.286-5.046a1.511,1.511,0,0,0-1.559-1.65Z" transform="translate(-272.46 -204.802)" fill="#fff"/>
        <path id="Trazado_910009" data-name="Trazado 910009" d="M297.495,253.81H287.7a1.762,1.762,0,0,0-1.74,1.65l-.286,5.046a1.511,1.511,0,0,0,1.552,1.658h9.792a1.777,1.777,0,0,0,1.747-1.658l.286-5.046a1.511,1.511,0,0,0-1.559-1.65Z" transform="translate(-266.731 -204.829)" fill="#fff"/>
        <path id="Trazado_910010" data-name="Trazado 910010" d="M274.285,253.92h-9.792a1.762,1.762,0,0,0-1.74,1.658l-.286,5.039a1.511,1.511,0,0,0,1.552,1.658h9.792a1.762,1.762,0,0,0,1.74-1.658l.293-5.038a1.552,1.552,0,0,0-1.559-1.658Z" transform="translate(-261.004 -204.857)" fill="#fff"/>
        <path id="Trazado_910011" data-name="Trazado 910011" d="M368.124,236.73h-9.792a1.762,1.762,0,0,0-1.74,1.658l-.294,5.038a1.544,1.544,0,0,0,1.559,1.658h9.792a1.762,1.762,0,0,0,1.74-1.658l.286-5.038a1.511,1.511,0,0,0-1.552-1.658Z" transform="translate(-284.162 -200.614)" fill="#fff"/>
        <path id="Trazado_910012" data-name="Trazado 910012" d="M344.885,236.62h-9.792a1.762,1.762,0,0,0-1.739,1.65l-.286,5.046a1.511,1.511,0,0,0,1.552,1.658h9.792a1.77,1.77,0,0,0,1.74-1.658l.286-5.046a1.511,1.511,0,0,0-1.552-1.65Z" transform="translate(-278.427 -200.586)" fill="#fff"/>
        <path id="Trazado_910013" data-name="Trazado 910013" d="M321.674,236.73h-9.792a1.762,1.762,0,0,0-1.74,1.658l-.294,5.038a1.552,1.552,0,0,0,1.559,1.658H321.2a1.762,1.762,0,0,0,1.74-1.658l.286-5.038a1.511,1.511,0,0,0-1.552-1.658Z" transform="translate(-272.698 -200.614)" fill="#fff"/>
        <path id="Trazado_910014" data-name="Trazado 910014" d="M298.457,236.84h-9.792a1.777,1.777,0,0,0-1.762,1.627l-.286,5.046a1.511,1.511,0,0,0,1.559,1.65h9.792a1.762,1.762,0,0,0,1.74-1.65l.286-5.046a1.511,1.511,0,0,0-1.537-1.627Z" transform="translate(-266.964 -200.641)" fill="#fff"/>
        <path id="Trazado_910015" data-name="Trazado 910015" d="M275.254,237h-9.792a1.77,1.77,0,0,0-1.747,1.65l-.286,5.046a1.552,1.552,0,0,0,1.559,1.658h9.792a1.777,1.777,0,0,0,1.74-1.658l.286-5.046a1.511,1.511,0,0,0-1.552-1.65Z" transform="translate(-261.242 -200.68)" fill="#fff"/>
      </g>
      <g id="Grupo_1117827" data-name="Grupo 1117827" transform="translate(1846.287 -8715.362)" opacity="0.4">
        <path id="Trazado_910016" data-name="Trazado 910016" d="M370.744,195.235h-10.3a1.3,1.3,0,0,1-1.311-1.393l.2-3.577a1.511,1.511,0,0,1,1.511-1.393h10.243a1.3,1.3,0,0,1,1.31,1.393l-.2,3.577a1.511,1.511,0,0,1-1.449,1.393Z" transform="translate(-341.653 -188.803)"/>
        <path id="Trazado_910017" data-name="Trazado 910017" d="M347.544,195.145h-10.3a1.3,1.3,0,0,1-1.31-1.393l.2-3.577a1.511,1.511,0,0,1,1.469-1.393h10.3a1.3,1.3,0,0,1,1.31,1.393l-.2,3.577a1.511,1.511,0,0,1-1.469,1.393Z" transform="translate(-335.927 -188.781)"/>
      </g>
      <g id="Grupo_1117828" data-name="Grupo 1117828" transform="translate(1793.276 -8705.405)" opacity="0.4">
        <path id="Trazado_910018" data-name="Trazado 910018" d="M369.994,208.425h-10.3a1.3,1.3,0,0,1-1.31-1.393l.2-3.577a1.511,1.511,0,0,1,1.511-1.393h10.3a1.3,1.3,0,0,1,1.311,1.393l-.2,3.577A1.511,1.511,0,0,1,369.994,208.425Z" transform="translate(-288.457 -202.015)"/>
        <path id="Trazado_910019" data-name="Trazado 910019" d="M346.793,208.342h-10.3a1.295,1.295,0,0,1-1.31-1.393l.2-3.57A1.511,1.511,0,0,1,336.851,202h10.3a1.3,1.3,0,0,1,1.31,1.393l-.2,3.571a1.511,1.511,0,0,1-1.466,1.378Z" transform="translate(-282.73 -202)"/>
        <path id="Trazado_910020" data-name="Trazado 910020" d="M323.584,208.425h-10.3a1.3,1.3,0,0,1-1.311-1.393l.2-3.577a1.511,1.511,0,0,1,1.469-1.393h10.3a1.3,1.3,0,0,1,1.311,1.393l-.2,3.577A1.511,1.511,0,0,1,323.584,208.425Z" transform="translate(-277.003 -202.015)"/>
        <path id="Trazado_910021" data-name="Trazado 910021" d="M300.374,208.515h-10.3a1.3,1.3,0,0,1-1.31-1.393l.18-3.577a1.511,1.511,0,0,1,1.511-1.393h10.3a1.3,1.3,0,0,1,1.295,1.393l-.2,3.577a1.511,1.511,0,0,1-1.473,1.393Z" transform="translate(-271.274 -202.037)"/>
        <path id="Trazado_910022" data-name="Trazado 910022" d="M277.185,208.595H266.859a1.3,1.3,0,0,1-1.31-1.393l.2-3.577a1.511,1.511,0,0,1,1.469-1.393h10.3a1.3,1.3,0,0,1,1.311,1.393l-.2,3.577A1.511,1.511,0,0,1,277.185,208.595Z" transform="translate(-265.546 -202.056)"/>
      </g>
      <path id="Trazado_910023" data-name="Trazado 910023" d="M302.287,192.6H322.4a.814.814,0,0,0,.8-.755h0a.755.755,0,0,0-.715-.755h-20.1a.814.814,0,0,0-.8.755h0a.7.7,0,0,0,.708.755Z" transform="translate(1518.838 -8904.714)" opacity="0.2"/>
      <path id="Trazado_910024" data-name="Trazado 910024" d="M267.215,192.6h20.1a.814.814,0,0,0,.806-.755h0a.755.755,0,0,0-.715-.755h-20.1a.821.821,0,0,0-.806.755h0a.755.755,0,0,0,.715.755Z" transform="translate(1527.495 -8904.714)" opacity="0.2"/>
      <path id="Trazado_910025" data-name="Trazado 910025" d="M273.035,193.014h-2.659a1.243,1.243,0,0,1-1.258-1.333h0a1.423,1.423,0,0,1,1.408-1.34h2.667a1.243,1.243,0,0,1,1.251,1.34h0a1.423,1.423,0,0,1-1.408,1.333Z" transform="translate(1526.849 -8904.528)" fill="#344154"/>
      <path id="Trazado_910026" data-name="Trazado 910026" d="M322.823,192.984h-2.667a1.251,1.251,0,0,1-1.258-1.34h0a1.431,1.431,0,0,1,1.408-1.333h2.667a1.243,1.243,0,0,1,1.258,1.333h0a1.431,1.431,0,0,1-1.408,1.34Z" transform="translate(1514.563 -8904.521)" fill="#344154"/>
      <path id="Trazado_910027" data-name="Trazado 910027" d="M369.056,219.769h-9.792a1.77,1.77,0,0,0-1.743,1.652l-.286,5.046a1.511,1.511,0,0,0,1.552,1.65h9.792a1.77,1.77,0,0,0,1.747-1.65l.286-5.017a1.511,1.511,0,0,0-1.559-1.679Z" transform="translate(1505.102 -8911.792)" opacity="0.5"/>
      <path id="Trazado_910028" data-name="Trazado 910028" d="M345.852,219.65h-9.792a1.777,1.777,0,0,0-1.747,1.658l-.286,5.046a1.511,1.511,0,0,0,1.552,1.65h9.792a1.77,1.77,0,0,0,1.74-1.65l.286-5.046a1.511,1.511,0,0,0-1.544-1.658Z" transform="translate(1510.83 -8911.762)" opacity="0.5"/>
      <path id="Trazado_910029" data-name="Trazado 910029" d="M322.645,219.77h-9.8a1.77,1.77,0,0,0-1.74,1.65l-.286,5.046a1.511,1.511,0,0,0,1.552,1.65h9.792a1.77,1.77,0,0,0,1.747-1.65l.286-5.046a1.511,1.511,0,0,0-1.559-1.65Z" transform="translate(1516.556 -8911.792)" opacity="0.5"/>
      <path id="Trazado_910030" data-name="Trazado 910030" d="M299.425,219.88h-9.792a1.762,1.762,0,0,0-1.74,1.658l-.286,5.038a1.511,1.511,0,0,0,1.552,1.658h9.792a1.777,1.777,0,0,0,1.747-1.658l.286-5.038a1.544,1.544,0,0,0-1.559-1.658Z" transform="translate(1522.287 -8911.818)" opacity="0.5"/>
      <path id="Trazado_910031" data-name="Trazado 910031" d="M276.215,220h-9.792a1.77,1.77,0,0,0-1.74,1.658L264.4,226.7a1.511,1.511,0,0,0,1.552,1.65h9.792a1.77,1.77,0,0,0,1.747-1.65l.286-5.046A1.552,1.552,0,0,0,276.215,220Z" transform="translate(1528.015 -8911.849)" opacity="0.5"/>
      <path id="Trazado_910032" data-name="Trazado 910032" d="M341.985,287.51h-9.792a1.762,1.762,0,0,0-1.74,1.658l-.286,5.038a1.511,1.511,0,0,0,1.552,1.658h9.792a1.77,1.77,0,0,0,1.747-1.658l.286-5.038a1.544,1.544,0,0,0-1.559-1.658Z" transform="translate(1511.783 -8928.51)" opacity="0.5"/>
      <path id="Trazado_910033" data-name="Trazado 910033" d="M318.775,287.62h-9.792a1.77,1.77,0,0,0-1.74,1.658l-.286,5.046a1.511,1.511,0,0,0,1.552,1.65H318.3a1.762,1.762,0,0,0,1.74-1.65l.293-5.046a1.552,1.552,0,0,0-1.559-1.658Z" transform="translate(1517.511 -8928.537)" opacity="0.5"/>
      <path id="Trazado_910034" data-name="Trazado 910034" d="M295.567,287.74h-9.792a1.762,1.762,0,0,0-1.74,1.65l-.286,5.046a1.511,1.511,0,0,0,1.552,1.658h9.792a1.77,1.77,0,0,0,1.74-1.658l.286-5.046a1.511,1.511,0,0,0-1.552-1.65Z" transform="translate(1523.24 -8928.566)" opacity="0.5"/>
      <path id="Trazado_910035" data-name="Trazado 910035" d="M272.354,287.85h-9.792a1.762,1.762,0,0,0-1.74,1.658l-.294,5.038a1.552,1.552,0,0,0,1.559,1.658h9.792a1.762,1.762,0,0,0,1.74-1.658l.286-5.038a1.511,1.511,0,0,0-1.552-1.658Z" transform="translate(1528.969 -8928.594)" opacity="0.5"/>
      <path id="Trazado_910036" data-name="Trazado 910036" d="M365.876,270.66h-9.791a1.77,1.77,0,0,0-1.747,1.658l-.248,4.383-.038.655-.755,12.8a1.511,1.511,0,0,0,1.552,1.65h9.792a1.762,1.762,0,0,0,1.74-1.65l.755-12.8.038-.655.248-4.383a1.511,1.511,0,0,0-1.544-1.658Z" transform="translate(1506.074 -8924.352)" opacity="0.3"/>
      <path id="Trazado_910037" data-name="Trazado 910037" d="M342.954,270.55h-9.792a1.762,1.762,0,0,0-1.74,1.65l-.294,5.046a1.544,1.544,0,0,0,1.559,1.65h9.792a1.762,1.762,0,0,0,1.74-1.65l.286-5.046a1.511,1.511,0,0,0-1.552-1.65Z" transform="translate(1511.545 -8924.324)" opacity="0.5"/>
      <path id="Trazado_910038" data-name="Trazado 910038" d="M319.744,270.66h-9.8a1.77,1.77,0,0,0-1.747,1.658l-.286,5.038a1.552,1.552,0,0,0,1.559,1.658h9.792a1.77,1.77,0,0,0,1.74-1.658l.286-5.038a1.511,1.511,0,0,0-1.552-1.658Z" transform="translate(1517.273 -8924.352)" opacity="0.5"/>
      <path id="Trazado_910039" data-name="Trazado 910039" d="M296.532,270.77h-9.792a1.777,1.777,0,0,0-1.747,1.658l-.286,5.046a1.511,1.511,0,0,0,1.559,1.65h9.792a1.77,1.77,0,0,0,1.74-1.65l.286-5.046a1.511,1.511,0,0,0-1.552-1.658Z" transform="translate(1523.003 -8924.379)" opacity="0.5"/>
      <path id="Trazado_910040" data-name="Trazado 910040" d="M273.325,270.89h-9.792a1.77,1.77,0,0,0-1.74,1.65l-.286,5.046a1.511,1.511,0,0,0,1.552,1.65h9.792a1.77,1.77,0,0,0,1.74-1.65l.286-5.046a1.511,1.511,0,0,0-1.552-1.65Z" transform="translate(1528.729 -8924.408)" opacity="0.3"/>
      <path id="Trazado_910041" data-name="Trazado 910041" d="M367.125,253.7h-9.792a1.762,1.762,0,0,0-1.74,1.65l-.286,5.046a1.511,1.511,0,0,0,1.552,1.65h9.792a1.77,1.77,0,0,0,1.747-1.65l.286-5.046a1.511,1.511,0,0,0-1.559-1.65Z" transform="translate(1505.578 -8920.165)" opacity="0.5"/>
      <path id="Trazado_910042" data-name="Trazado 910042" d="M343.925,253.58h-9.792a1.777,1.777,0,0,0-1.74,1.658l-.286,5.038a1.511,1.511,0,0,0,1.552,1.658h9.792a1.77,1.77,0,0,0,1.747-1.658l.286-5.038a1.552,1.552,0,0,0-1.559-1.658Z" transform="translate(1511.304 -8920.137)" opacity="0.5"/>
      <path id="Trazado_910043" data-name="Trazado 910043" d="M320.706,253.7h-9.792a1.762,1.762,0,0,0-1.74,1.65l-.286,5.046a1.511,1.511,0,0,0,1.552,1.65h9.792a1.77,1.77,0,0,0,1.747-1.65l.286-5.046a1.511,1.511,0,0,0-1.559-1.65Z" transform="translate(1517.035 -8920.165)" opacity="0.5"/>
      <path id="Trazado_910044" data-name="Trazado 910044" d="M297.495,253.81H287.7a1.762,1.762,0,0,0-1.74,1.65l-.286,5.046a1.511,1.511,0,0,0,1.552,1.658h9.792a1.762,1.762,0,0,0,1.74-1.657l.293-5.046a1.511,1.511,0,0,0-1.559-1.65Z" transform="translate(1522.763 -8920.192)" opacity="0.5"/>
      <path id="Trazado_910045" data-name="Trazado 910045" d="M274.285,253.92h-9.792a1.762,1.762,0,0,0-1.74,1.658l-.286,5.039a1.511,1.511,0,0,0,1.552,1.658h9.792a1.762,1.762,0,0,0,1.74-1.658l.293-5.038a1.552,1.552,0,0,0-1.559-1.658Z" transform="translate(1528.492 -8920.221)" opacity="0.3"/>
      <path id="Trazado_910046" data-name="Trazado 910046" d="M368.124,236.73h-9.792a1.762,1.762,0,0,0-1.74,1.658l-.294,5.038a1.544,1.544,0,0,0,1.559,1.658h9.792a1.762,1.762,0,0,0,1.74-1.658l.286-5.038a1.511,1.511,0,0,0-1.552-1.658Z" transform="translate(1505.333 -8915.978)" opacity="0.5"/>
      <path id="Trazado_910047" data-name="Trazado 910047" d="M344.885,236.62h-9.792a1.762,1.762,0,0,0-1.739,1.65l-.286,5.046a1.511,1.511,0,0,0,1.552,1.658h9.792a1.77,1.77,0,0,0,1.74-1.658l.286-5.046a1.511,1.511,0,0,0-1.552-1.65Z" transform="translate(1511.067 -8915.95)" opacity="0.5"/>
      <path id="Trazado_910048" data-name="Trazado 910048" d="M321.674,236.73h-9.792a1.762,1.762,0,0,0-1.74,1.658l-.294,5.038a1.552,1.552,0,0,0,1.559,1.658H321.2a1.762,1.762,0,0,0,1.74-1.658l.286-5.038a1.511,1.511,0,0,0-1.552-1.658Z" transform="translate(1516.797 -8915.978)" opacity="0.5"/>
      <path id="Trazado_910049" data-name="Trazado 910049" d="M298.457,236.84h-9.792a1.777,1.777,0,0,0-1.762,1.627l-.286,5.046a1.511,1.511,0,0,0,1.559,1.65h9.792a1.762,1.762,0,0,0,1.74-1.65l.286-5.046a1.511,1.511,0,0,0-1.537-1.627Z" transform="translate(1522.531 -8916.004)" opacity="0.5"/>
      <path id="Trazado_910050" data-name="Trazado 910050" d="M275.254,237h-9.792a1.77,1.77,0,0,0-1.747,1.65l-.286,5.046a1.552,1.552,0,0,0,1.559,1.658h9.792a1.777,1.777,0,0,0,1.74-1.658l.286-5.046a1.511,1.511,0,0,0-1.552-1.65Z" transform="translate(1528.254 -8916.043)" opacity="0.5"/>
      <path id="Trazado_910051" data-name="Trazado 910051" d="M105.14,345.794s-4.308.941-6.151,0-1.152-14.62-3.013-14.9c-4.323-.655-3.592,17.519-1.755,21.346s11.3,2.2,11.3,2.2Z" transform="translate(1570.37 -8939.213)" fill="#d9a171"/>
      <path id="Trazado_910052" data-name="Trazado 910052" d="M105.14,345.794s-4.308.941-6.151,0-1.152-14.62-3.013-14.9c-4.323-.655-3.592,17.519-1.755,21.346s11.3,2.2,11.3,2.2Z" transform="translate(1570.37 -8939.213)" fill="#fff" opacity="0.2"/>
      <path id="Trazado_910053" data-name="Trazado 910053" d="M108.84,362.708s-6.38-92.786,1.236-93.856,9.453,31.634,6.508,92.643Z" transform="translate(1567.023 -8923.899)" fill="#d9a171"/>
      <path id="Trazado_910054" data-name="Trazado 910054" d="M108.84,362.708s-6.38-92.786,1.236-93.856,9.453,31.634,6.508,92.643Z" transform="translate(1567.023 -8923.899)" fill="#fff" opacity="0.3"/>
      <path id="Trazado_910055" data-name="Trazado 910055" d="M97.79,384.36h25.035l-2.086,16.021H99.883Z" transform="translate(1569.133 -8952.413)" fill="#344154"/>
      <path id="Trazado_910056" data-name="Trazado 910056" d="M119.531,304.982s6.937.61,7.148,0,.2-13.738,3.141-12.962,1.658,16.57,0,18.424-10.288,2.832-10.288,2.832S118.371,307.444,119.531,304.982Z" transform="translate(1563.895 -8929.614)" fill="#d9a171"/>
      <path id="Trazado_910057" data-name="Trazado 910057" d="M119.531,304.982s6.937.61,7.148,0,.2-13.738,3.141-12.962,1.658,16.57,0,18.424-10.288,2.832-10.288,2.832S118.371,307.444,119.531,304.982Z" transform="translate(1563.895 -8929.614)" fill="#fff" opacity="0.4"/>
      <path id="Trazado_910058" data-name="Trazado 910058" d="M112.878,354.549q-.755-10.59-1.355-21.18T110.476,312.2q-.452-10.606-.595-21.225c0-3.541,0-7.08.06-10.62.053-1.777.121-3.547.278-5.318.076-.889.181-1.777.346-2.666a7.4,7.4,0,0,1,.346-1.348l.151-.346a3.544,3.544,0,0,1,.256-.362.843.843,0,0,1,.263-.181.625.625,0,0,1,.422,0,.863.863,0,0,1,.432.377,5.031,5.031,0,0,1,.482,1.363c.108.445.181.882.256,1.325.144.882.248,1.762.346,2.651.188,1.762.331,3.532.452,5.273.233,3.539.4,7.072.54,10.613q.4,10.6.54,21.217t.174,21.225q0,10.6-.1,21.218-.091-10.606-.271-21.218-.147-10.609-.384-21.217c-.168-7.072-.339-14.136-.64-21.2-.144-3.533-.324-7.057-.572-10.583-.121-1.762-.263-3.518-.46-5.273-.1-.874-.216-1.747-.354-2.606-.068-.432-.151-.863-.248-1.273a4.377,4.377,0,0,0-.392-1.137c0-.068-.091-.091-.045-.076s.159-.038.1,0l-.121.181-.108.263a7.534,7.534,0,0,0-.316,1.213c-.159.851-.263,1.717-.339,2.59-.166,1.747-.241,3.518-.3,5.273-.108,3.525-.108,7.057-.091,10.59.053,7.073.271,14.136.49,21.21s.513,14.13.829,21.2S112.509,347.484,112.878,354.549Z" transform="translate(1566.149 -8924.214)" fill="#007cff"/>
      <path id="Trazado_910059" data-name="Trazado 910059" d="M120.86,308.58c.9-.091,1.792-.151,2.682-.256s1.777-.181,2.651-.339c.432-.076.863-.166,1.273-.278s.844-.377.7-.384a19.415,19.415,0,0,1,.1-2.765c.166-1.8.377-3.585.655-5.356a50.577,50.577,0,0,1,1.039-5.272l-.949,10.71a24.369,24.369,0,0,0-.136,2.606v.091a1.506,1.506,0,0,1,0,.188.625.625,0,0,1-.143.3,1.039,1.039,0,0,1-.384.286,3.56,3.56,0,0,1-.7.248,8.78,8.78,0,0,1-1.37.216A31.634,31.634,0,0,1,120.86,308.58Z" transform="translate(1563.44 -8930.095)" fill="#007cff"/>
      <path id="Trazado_910060" data-name="Trazado 910060" d="M120.86,311.938l5.9-1.333a21.4,21.4,0,0,0,2.824-.814.582.582,0,0,0,.166-.1,1.317,1.317,0,0,0,.108-.248c.068-.216.121-.452.174-.685.091-.482.151-.971.2-1.469.233-1.989.346-4,.505-6.026l.2-3.013.248-3.013c.128,2.027.151,4.044.128,6.071s-.108,4.037-.331,6.071c-.068.505-.136,1.009-.241,1.511a5.466,5.466,0,0,1-.2.755,2.159,2.159,0,0,1-.2.432,1.123,1.123,0,0,1-.46.324,16.689,16.689,0,0,1-3.013.755A57.955,57.955,0,0,1,120.86,311.938Z" transform="translate(1563.44 -8930.418)" fill="#007cff"/>
      <path id="Trazado_910061" data-name="Trazado 910061" d="M103.938,348.764a16.18,16.18,0,0,1-5.273-.595,3.625,3.625,0,0,1-.655-.3,1.047,1.047,0,0,1-.331-.309,1.511,1.511,0,0,1-.181-.346,7.18,7.18,0,0,1-.377-1.34c-.166-.889-.256-1.777-.339-2.659q-.2-2.659-.174-5.31c0-1.762.076-3.532.241-5.273.083.882.121,1.762.188,2.644l.151,2.636c.108,1.762.188,3.518.339,5.273.068.874.159,1.74.294,2.59a6.493,6.493,0,0,0,.29,1.212,1.21,1.21,0,0,0,.108.241.369.369,0,0,0,.144.144,3.192,3.192,0,0,0,.528.293,12.106,12.106,0,0,0,2.482.693C102.174,348.514,103.064,348.635,103.938,348.764Z" transform="translate(1569.425 -8939.646)" fill="#007cff"/>
      <path id="Trazado_910062" data-name="Trazado 910062" d="M95.144,334.8c.108,1.024.166,2.057.263,3.088l.216,3.088.432,6.161c.076,1.024.159,2.056.294,3.058a7.088,7.088,0,0,0,.278,1.431c.108.392.505.617.933.844a13.273,13.273,0,0,0,2.922.8c1.009.2,2.034.316,3.058.445a17.926,17.926,0,0,1-6.2-.708,3.6,3.6,0,0,1-.755-.392,1.461,1.461,0,0,1-.572-.755,8.328,8.328,0,0,1-.377-1.59c-.159-1.039-.248-2.071-.339-3.1-.151-2.063-.241-4.135-.263-6.2S95.008,336.863,95.144,334.8Z" transform="translate(1569.814 -8940.182)" fill="#007cff"/>
      <path id="Trazado_910063" data-name="Trazado 910063" d="M150.907,378.864l18.513-1.619V349.67h6.508v27.575l18.574,1.619a3.193,3.193,0,0,1,2.884,3.178V384.5H148v-2.463a3.193,3.193,0,0,1,2.907-3.178Z" transform="translate(1556.741 -8943.852)" fill="#344154"/>
      <path id="Trazado_910064" data-name="Trazado 910064" d="M150.907,378.864l18.513-1.619V349.67h6.508v27.575l18.574,1.619a3.193,3.193,0,0,1,2.884,3.178V384.5H148v-2.463a3.193,3.193,0,0,1,2.907-3.178Z" transform="translate(1556.741 -8943.852)" fill="#fff" opacity="0.1"/>
      <path id="Trazado_910065" data-name="Trazado 910065" d="M205.62,398.611a4.256,4.256,0,1,0,4.256-4.248A4.256,4.256,0,0,0,205.62,398.611Z" transform="translate(1542.52 -8954.881)" fill="#344154"/>
      <path id="Trazado_910066" data-name="Trazado 910066" d="M153.211,398.611a4.256,4.256,0,1,1-4.256-4.248A4.256,4.256,0,0,1,153.211,398.611Z" transform="translate(1557.555 -8954.881)" fill="#344154"/>
      <path id="Trazado_910067" data-name="Trazado 910067" d="M3.073,0H5.6A3.111,3.111,0,0,1,8.707,3.111V25.262H0V3.111A3.111,3.111,0,0,1,3.074,0Z" transform="translate(1733.754 -8589.218) rotate(180)" fill="#344154"/>
      <path id="Trazado_910068" data-name="Trazado 910068" d="M3.073,0H5.6A3.111,3.111,0,0,1,8.707,3.111V25.262H0V3.111A3.111,3.111,0,0,1,3.074,0Z" transform="translate(1733.754 -8589.218) rotate(180)" fill="#fff" opacity="0.2"/>
      <path id="Trazado_910069" data-name="Trazado 910069" d="M152.824,258.86s2,40.2,10.665,47.119h-9.264s-8.285-13.693-8.865-47.119Z" transform="translate(1557.392 -8921.438)" fill="#344154"/>
      <path id="Trazado_910070" data-name="Trazado 910070" d="M152.824,258.86s2,40.2,10.665,47.119h-9.264s-8.285-13.693-8.865-47.119Z" transform="translate(1557.392 -8921.438)" fill="#fff" opacity="0.1"/>
      <path id="Trazado_910071" data-name="Trazado 910071" d="M153.416,317H193.9a3.766,3.766,0,0,1,3.766,3.766v2.892H149.646v-2.892a3.766,3.766,0,0,1,3.77-3.766Z" transform="translate(1556.333 -8935.788)" fill="#d9a171"/>
      <rect id="Rectángulo_406492" data-name="Rectángulo 406492" width="51.669" height="3.329" rx="1.543" transform="translate(1704.153 -8615.459)" fill="#344154"/>
      <rect id="Rectángulo_406493" data-name="Rectángulo 406493" width="51.669" height="3.329" rx="1.543" transform="translate(1704.153 -8615.459)" fill="#fff" opacity="0.6"/>
      <path id="Trazado_910072" data-name="Trazado 910072" d="M140.117,262.729h14.83c4.346,0,7.487-3.91,7.014-8.722l-.632-6.433c-.475-4.813-4.383-8.715-8.73-8.715H137.767c-4.346,0-7.487,3.9-7.014,8.715l.632,6.433C131.862,258.819,135.771,262.729,140.117,262.729Z" transform="translate(1561.008 -8916.503)" fill="#d9a171"/>
      <path id="Trazado_910073" data-name="Trazado 910073" d="M245.886,258.725l4.2.482s2.742-1.213,2.765-1.318,3.653,1.318,3.653,1.318l.693,2.621s-5.159.55-6.139,0l-5.513.241Z" transform="translate(1532.667 -8921.197)" fill="#fcb373"/>
      <path id="Trazado_910074" data-name="Trazado 910074" d="M240.917,256.579H224.753c-1.65,0-3.895-4.022-5.664-7.886-1.619-3.541-2.839-6.929-2.839-6.929l1.732-4.293,1.717-4.241c3.284,2.26,7.328,17.633,7.328,17.633l13.889,1.823S241.324,256.579,240.917,256.579Z" transform="translate(1539.897 -8915.114)" fill="#d9a171"/>
      <path id="Trazado_910075" data-name="Trazado 910075" d="M247.823,258.97l-.755,4.444h2.063V258.97Z" transform="translate(1532.29 -8921.467)" fill="#d9a171"/>
      <path id="Trazado_910076" data-name="Trazado 910076" d="M247.823,258.97l-.755,4.444h2.063V258.97Z" transform="translate(1532.29 -8921.467)" fill="#fff" opacity="0.6"/>
      <path id="Trazado_910077" data-name="Trazado 910077" d="M219.069,250.083c-1.619-3.539-2.839-6.929-2.839-6.929l1.732-4.293C218.73,240.8,220.327,245.745,219.069,250.083Z" transform="translate(1539.902 -8916.503)" opacity="0.2"/>
      <path id="Trazado_910078" data-name="Trazado 910078" d="M216.072,209.124s-1.627,6.266.4,9.039c0,0-18.237.216-23.349-3.1s.632-19.486,8.142-21.963S221.171,196.832,216.072,209.124Z" transform="translate(1546.085 -8905.078)" fill="#344154"/>
      <path id="Trazado_910079" data-name="Trazado 910079" d="M245.669,347.394l-4.007.755S219.82,295.7,216.3,295.553s-38.97,16.156-47.858,7.11,3.961-30.828,3.961-30.828,21.391-3.013,23,1.777a35.731,35.731,0,0,1,.9,4.331c.241,1.511.407,2.719.407,2.719h0c.663-.166,22.137-5.71,30.6,0C235.873,286.483,245.669,347.394,245.669,347.394Z" transform="translate(1552.468 -8924.41)" fill="#fcb373"/>
      <path id="Trazado_910080" data-name="Trazado 910080" d="M189.82,312s1.446,0,23.884-1.009c0,0-4.165,38.533-6.026,59.5l4.684.256s18.867-54.562,18.695-61.709-8.369-9.234-8.369-9.234S206.74,309.052,189.82,312Z" transform="translate(1546.419 -8931.546)" fill="#fcb373"/>
      <path id="Trazado_910081" data-name="Trazado 910081" d="M189.85,314.077c.226,0,2.508,0,20.012-.829l-.339-5.038a97.469,97.469,0,0,1-19.673,5.867Z" transform="translate(1546.412 -8933.619)" fill="#344154"/>
      <path id="Trazado_910082" data-name="Trazado 910082" d="M213.711,310.97s-4.165,38.534-6.026,59.5l4.684.263s18.867-54.561,18.695-61.7S222.7,299.8,222.7,299.8a119.516,119.516,0,0,1-13.151,6.312,97.466,97.466,0,0,1-19.7,5.89c.226,0,2.508,0,20.012-.829Z" transform="translate(1546.412 -8931.543)" opacity="0.3"/>
      <path id="Trazado_910083" data-name="Trazado 910083" d="M168.4,302.656c5.333,5.43,24.1,4,37.049,4l7.77-28.72-15.647,1.311s-.558-1.393-1.122-2.824c-.467-1.2-.949-2.425-1.085-2.847-1.612-4.835-23-1.777-23-1.777S159.508,293.618,168.4,302.656Z" transform="translate(1552.48 -8924.397)" fill="#344154"/>
      <path id="Trazado_910084" data-name="Trazado 910084" d="M190.37,285.089l13.4-4.014s-.557-1.393-1.122-2.824a91.2,91.2,0,0,0-12.277,6.838Z" transform="translate(1546.284 -8926.225)" opacity="0.3"/>
      <path id="Trazado_910085" data-name="Trazado 910085" d="M175.21,267.73l-.52,3.329,23,1.777.6-3.939Z" transform="translate(1550.154 -8923.629)" fill="#344154"/>
      <path id="Trazado_910086" data-name="Trazado 910086" d="M175.21,267.73l-.52,3.329,23,1.777.6-3.939Z" transform="translate(1550.154 -8923.629)" opacity="0.2"/>
      <rect id="Rectángulo_406494" data-name="Rectángulo 406494" width="1.145" height="5.814" transform="translate(1732.07 -8656.226) rotate(5.87)" fill="#344154"/>
      <rect id="Rectángulo_406495" data-name="Rectángulo 406495" width="5.046" height="3.827" transform="translate(1738.022 -8655.047) rotate(3.68)" fill="#fff"/>
      <rect id="Rectángulo_406496" data-name="Rectángulo 406496" width="1.145" height="5.814" transform="translate(1746.206 -8655.621) rotate(5.87)" fill="#344154"/>
      <path id="Trazado_910087" data-name="Trazado 910087" d="M281.253,376.855a7.975,7.975,0,0,0-2.922-.256h0s-3.691-1.431-8.285-8.579l-3.766.587a3.129,3.129,0,0,0-2.546,2.53,1.828,1.828,0,0,0,0,.54,20.085,20.085,0,0,0,.755,2.659,76.3,76.3,0,0,0,3.63,8.458l.61-.263-2.063-5.4c-.7-1.845,1.6-.331,2.839,1.431s2.975,3.465,6.959,1.845C281.042,378.49,282.873,377.473,281.253,376.855Z" transform="translate(1528.182 -8948.381)" fill="#263237"/>
      <path id="Trazado_910088" data-name="Trazado 910088" d="M268.247,364.7s2.26,3.186,5.084,6.6a18.56,18.56,0,0,0,4.964,4.519s-2.734,1.807-4.881.369-6.779-7.472-9.694-5.827a7.738,7.738,0,0,1,.256-1.77C264.233,367.645,268.247,364.7,268.247,364.7Z" transform="translate(1528.181 -8947.562)" fill="#fcb373"/>
      <path id="Trazado_910089" data-name="Trazado 910089" d="M227.588,399.206a8.121,8.121,0,0,0-2.651-1.266h0S221.991,395.3,220.214,387l-3.713-.755a3.141,3.141,0,0,0-3.276,1.511,1.665,1.665,0,0,0-.216.49,20.951,20.951,0,0,0-.248,2.742,76.2,76.2,0,0,0,.407,9.2l.67-.038v-5.784c0-1.966,1.612.256,2.146,2.343s1.567,4.294,5.867,4.18C226.839,400.675,228.91,400.359,227.588,399.206Z" transform="translate(1540.771 -8952.866)" fill="#263237"/>
      <path id="Trazado_910090" data-name="Trazado 910090" d="M219.6,383.33s1.009,3.766,2.432,7.962a17.374,17.374,0,0,0,3.066,5.943s-3.193.755-4.692-1.37-3.766-9.388-7.02-8.872a7.337,7.337,0,0,1,.863-1.574C214.8,384.663,219.6,383.33,219.6,383.33Z" transform="translate(1540.602 -8952.159)" fill="#fcb373"/>
      <path id="Trazado_910091" data-name="Trazado 910091" d="M219.6,383.33s1.009,3.766,2.432,7.962a17.374,17.374,0,0,0,3.066,5.943s-3.193.755-4.692-1.37-3.766-9.388-7.02-8.872a7.337,7.337,0,0,1,.863-1.574C214.8,384.663,219.6,383.33,219.6,383.33Z" transform="translate(1540.602 -8952.159)" opacity="0.3"/>
      <path id="Trazado_910092" data-name="Trazado 910092" d="M209.581,231.518s-2.26,13.316-4.783,16.969a4.525,4.525,0,0,1-.346.432c-1.989,2.1-4.424,6.6-5.589,8.849-.422.836-.678,1.363-.678,1.363l-22.934-1s.708-4.459,1.446-8.978c.52-3.223,1.213-7.027,2.042-10.6.331-1.408.678-2.772,1.047-4.045a29.375,29.375,0,0,1,2.411-6.3,4.881,4.881,0,0,1,1.612-1.834s.971-.091,2.659-.083h.128a56.2,56.2,0,0,1,17.323,2.914,48.4,48.4,0,0,1,5.664,2.313Z" transform="translate(1550.016 -8913.4)" fill="#d9a171"/>
      <path id="Trazado_910093" data-name="Trazado 910093" d="M193.74,226.605s3.329,7.864,9.317,7.864,6.183-4.414,6.183-4.414a27.743,27.743,0,0,0-15.5-3.45Z" transform="translate(1545.452 -8913.473)" fill="#d9a171"/>
      <path id="Trazado_910094" data-name="Trazado 910094" d="M201.115,225.638c-3.977-1.069-6.026.4-8.285,4l5.159,2.071,4.264,12.338,4.737-10.937,3.547.108S210.056,228.085,201.115,225.638Z" transform="translate(1545.677 -8913.155)" fill="#d9a171"/>
      <path id="Trazado_910095" data-name="Trazado 910095" d="M201.115,225.638c-3.977-1.069-6.026.4-8.285,4l5.159,2.071,4.264,12.338,4.737-10.937,3.547.108S210.056,228.085,201.115,225.638Z" transform="translate(1545.677 -8913.155)" fill="#fff" opacity="0.6"/>
      <path id="Trazado_910096" data-name="Trazado 910096" d="M205.941,250.464a4.514,4.514,0,0,1-.346.432c-1.989,2.1-4.424,6.6-5.589,8.849-5.371-.663-15.818-2.3-17.218-4.949-1.258-2.425-2.343-9.792-2.907-14.266.331-1.408.678-2.772,1.047-4.045l7.788-2.184s1.281,8.127,1.511,11.968C190.357,249.431,201.915,250.271,205.941,250.464Z" transform="translate(1548.873 -8915.378)" opacity="0.2"/>
      <path id="Trazado_910097" data-name="Trazado 910097" d="M206.674,226.367c.045,1.416.844,1.747.844,1.747.286,2.6-3.329,9.076-3.329,9.076l-5.619-11.577c3.231-1.281,3.961-4.843,4.1-6.967a12.181,12.181,0,0,0,0-1.658l6.026,3.766a22.072,22.072,0,0,0-1.348,2.636,7.532,7.532,0,0,0-.674,2.975Z" transform="translate(1544.26 -8911.105)" fill="#fcb373"/>
      <path id="Trazado_910098" data-name="Trazado 910098" d="M209.447,220.379a20.636,20.636,0,0,0-1.069,2.765,7.344,7.344,0,0,0-.377,3.013c-3.4.263-4.748-7.23-4.748-7.23v-.045a12.048,12.048,0,0,0-.166-1.65Z" transform="translate(1543.144 -8911.165)" opacity="0.2"/>
      <path id="Trazado_910099" data-name="Trazado 910099" d="M213.257,200.083c5.837,1.777,6.779,5.475,5.356,11.622-1.755,7.682-5.053,12.518-11.863,8.685C197.523,215.185,203.549,197.123,213.257,200.083Z" transform="translate(1543.371 -8906.853)" fill="#fcb373"/>
      <path id="Trazado_910100" data-name="Trazado 910100" d="M218.866,213.66a12.938,12.938,0,0,0,.964,2.945,1.679,1.679,0,0,1-1.74.188Z" transform="translate(1539.443 -8910.283)" fill="#ec873e"/>
      <path id="Trazado_910101" data-name="Trazado 910101" d="M214.173,211.237c-.136.482-.505.806-.829.715s-.467-.558-.331-1.039.505-.8.821-.708S214.309,210.754,214.173,211.237Z" transform="translate(1540.708 -8909.427)" fill="#344154"/>
      <path id="Trazado_910102" data-name="Trazado 910102" d="M213.94,210.151l1.16-.121S214.328,210.761,213.94,210.151Z" transform="translate(1540.466 -8909.388)" fill="#344154"/>
      <path id="Trazado_910103" data-name="Trazado 910103" d="M222.181,213.334c-.136.482-.505.8-.829.708s-.475-.55-.339-1.032.513-.806.829-.715S222.317,212.823,222.181,213.334Z" transform="translate(1538.733 -8909.943)" fill="#344154"/>
      <path id="Trazado_910104" data-name="Trazado 910104" d="M222,212.241l1.16-.121S222.354,212.854,222,212.241Z" transform="translate(1538.477 -8909.903)" fill="#344154"/>
      <path id="Trazado_910105" data-name="Trazado 910105" d="M215.212,206.12a3.179,3.179,0,0,0-2.806.108" transform="translate(1540.844 -8908.354)" fill="none" stroke="#1a2e35" stroke-linecap="round" stroke-linejoin="round" stroke-width="0.72"/>
      <path id="Trazado_910106" data-name="Trazado 910106" d="M221.86,207.6a2.862,2.862,0,0,1,2.184,1.187" transform="translate(1538.512 -8908.789)" fill="none" stroke="#1a2e35" stroke-linecap="round" stroke-linejoin="round" stroke-width="0.72"/>
      <path id="Trazado_910107" data-name="Trazado 910107" d="M203.562,207.092s4.188-3.961,4.9-7.8c0,0,13.015-1.2,10,10.718,0,0,4.308-10.078-5.657-13.369s-14.4,11.4-10.545,17.323C202.26,214,200.971,209.6,203.562,207.092Z" transform="translate(1543.688 -8905.967)" fill="#344154"/>
      <path id="Trazado_910108" data-name="Trazado 910108" d="M212.35,217.63a2.96,2.96,0,0,0,3.013,2.523" transform="translate(1540.859 -8911.264)" fill="none" stroke="#1a2e35" stroke-linecap="round" stroke-linejoin="round" stroke-width="0.72"/>
      <path id="Trazado_910109" data-name="Trazado 910109" d="M203.09,208.9a.174.174,0,0,0,.1.188h.038l5.943,1.386a2.583,2.583,0,0,0,1.511,2.757,3.119,3.119,0,0,0,3.993-1.085,1.825,1.825,0,0,0,.174-.392.979.979,0,0,1,.755-.216.54.54,0,0,1,.309.346,2.583,2.583,0,0,0,1.511,2.742,3.119,3.119,0,0,0,3.984-1.085,2.538,2.538,0,0,0-1.2-3.6,3.111,3.111,0,0,0-3.984,1.085,1.511,1.511,0,0,0-.181.392.755.755,0,0,0-.314-.2,1.1,1.1,0,0,0-.755.076,2.583,2.583,0,0,0-1.511-2.757,3.119,3.119,0,0,0-3.993,1.085,2.828,2.828,0,0,0-.233.513l-5.92-1.333a.2.2,0,0,0-.233.091Zm13.489,2.3a2.719,2.719,0,0,1,3.488-.949A2.26,2.26,0,0,1,221.1,213.4a2.719,2.719,0,0,1-3.488.941,2.214,2.214,0,0,1-1.032-3.141Zm-6.779-1.4a2.734,2.734,0,0,1,3.488-.949A2.26,2.26,0,0,1,214.334,212a2.727,2.727,0,0,1-3.488.949A2.26,2.26,0,0,1,209.8,209.8Z" transform="translate(1543.145 -8908.941)" fill="#344154"/>
      <g id="Grupo_1117829" data-name="Grupo 1117829" transform="translate(1746.228 -8700.727)" opacity="0.3">
        <path id="Trazado_910110" data-name="Trazado 910110" d="M203.09,208.9a.174.174,0,0,0,.1.188h.038l5.943,1.386a2.583,2.583,0,0,0,1.511,2.757,3.119,3.119,0,0,0,3.993-1.085,1.825,1.825,0,0,0,.174-.392.979.979,0,0,1,.755-.216.54.54,0,0,1,.309.346,2.583,2.583,0,0,0,1.511,2.742,3.119,3.119,0,0,0,3.984-1.085,2.538,2.538,0,0,0-1.2-3.6,3.111,3.111,0,0,0-3.984,1.085,1.511,1.511,0,0,0-.181.392.755.755,0,0,0-.314-.2,1.1,1.1,0,0,0-.755.076,2.583,2.583,0,0,0-1.511-2.757,3.119,3.119,0,0,0-3.993,1.085,2.828,2.828,0,0,0-.233.513l-5.92-1.333a.2.2,0,0,0-.233.091Zm13.489,2.3a2.719,2.719,0,0,1,3.488-.949A2.26,2.26,0,0,1,221.1,213.4a2.719,2.719,0,0,1-3.488.941,2.214,2.214,0,0,1-1.032-3.141Zm-6.779-1.4a2.734,2.734,0,0,1,3.488-.949A2.26,2.26,0,0,1,214.334,212a2.727,2.727,0,0,1-3.488.949A2.26,2.26,0,0,1,209.8,209.8Z" transform="translate(-203.082 -208.214)" fill="#fff"/>
      </g>
      <path id="Trazado_910111" data-name="Trazado 910111" d="M203.829,211.64a2.674,2.674,0,0,0-2.042-3.178c-1.868-.354-3.864,3.1.362,5.363C202.759,214.134,203.316,213.629,203.829,211.64Z" transform="translate(1543.995 -8908.995)" fill="#fcb373"/>
      <path id="Trazado_910112" data-name="Trazado 910112" d="M216.3,262.911a78.116,78.116,0,0,1,9.867-1.431c4-.188,8.481-.263,7.381,1.9l-16.269.151Z" transform="translate(1539.884 -8922.064)" fill="#d9a171"/>
      <path id="Trazado_910113" data-name="Trazado 910113" d="M216.3,262.911a78.116,78.116,0,0,1,9.867-1.431c4-.188,8.481-.263,7.381,1.9l-16.269.151Z" transform="translate(1539.884 -8922.064)" fill="#fff" opacity="0.7"/>
      <rect id="Rectángulo_406497" data-name="Rectángulo 406497" width="18.814" height="0.64" transform="translate(1755.438 -8659.146)" fill="#344154"/>
      <rect id="Rectángulo_406498" data-name="Rectángulo 406498" width="0.829" height="9.362" transform="translate(1755.605 -8669.805) rotate(-24.58)" fill="#344154"/>
      <path id="Trazado_910114" data-name="Trazado 910114" d="M206,258.007l5.378,1.281a6.026,6.026,0,0,1,2.26-1.823,53.384,53.384,0,0,1,5.9-1.205l1.13,5.4s-7.532.755-8.149.61l-6.485-.617Z" transform="translate(1542.426 -8920.797)" fill="#fcb373"/>
      <path id="Trazado_910115" data-name="Trazado 910115" d="M185.5,226.4c-3.766,1.079-4.022,20.743-2.553,23.349s19.177,5.18,19.177,5.18l1.137-3.961s-14.7-5.091-14.928-5.5.956-11.654.956-13.889S185.5,226.4,185.5,226.4Z" transform="translate(1548.321 -8913.429)" fill="#d9a171"/>
      <path id="Trazado_910116" data-name="Trazado 910116" d="M208.951,257.86l-.791,5.5,1.529-.216,1.009-4.926Z" transform="translate(1541.893 -8921.192)" fill="#d9a171"/>
      <path id="Trazado_910117" data-name="Trazado 910117" d="M208.951,257.86l-.791,5.5,1.529-.216,1.009-4.926Z" transform="translate(1541.893 -8921.192)" fill="#fff" opacity="0.6"/>
      <path id="Trazado_910118" data-name="Trazado 910118" d="M246.633,372.272h-3.985L242,270.47h5.288Z" transform="translate(1533.542 -8924.305)" fill="#344154"/>
      <path id="Trazado_910119" data-name="Trazado 910119" d="M247.288,270.68l-.108,16.089-.54,85.555h-3.993l-.54-85.555L242,270.68Z" transform="translate(1533.542 -8924.356)" fill="#fff" opacity="0.4"/>
      <path id="Trazado_910120" data-name="Trazado 910120" d="M247.288,270.68l-.108,16.269h-5.072L242,270.68Z" transform="translate(1533.542 -8924.356)" opacity="0.2"/>
      <path id="Trazado_910121" data-name="Trazado 910121" d="M300.687,372.272H296.7l-7.163-101.8h5.288Z" transform="translate(1521.808 -8924.305)" fill="#344154"/>
      <path id="Trazado_910122" data-name="Trazado 910122" d="M300.695,372.324H296.7l-6.817-96.846-.346-4.8h5.288l.286,4.8Z" transform="translate(1521.808 -8924.356)" fill="#fff" opacity="0.5"/>
      <path id="Trazado_910123" data-name="Trazado 910123" d="M295.114,275.234h-5.227l-.346-4.557h5.288Z" transform="translate(1521.808 -8924.356)" opacity="0.2"/>
      <path id="Trazado_910124" data-name="Trazado 910124" d="M190.662,372.272h-3.993l5.86-101.8h5.289Z" transform="translate(1547.196 -8924.305)" fill="#344154"/>
      <path id="Trazado_910125" data-name="Trazado 910125" d="M197.816,270.68l-.346,4.8-6.817,96.846H186.68l5.566-96.846.286-4.8Z" transform="translate(1547.194 -8924.356)" fill="#fff" opacity="0.5"/>
      <path id="Trazado_910126" data-name="Trazado 910126" d="M194.356,270.68h5.288l-.346,4.557H194.07Z" transform="translate(1545.37 -8924.356)" opacity="0.2"/>
      <path id="Trazado_910127" data-name="Trazado 910127" d="M188.89,267.15h85.292v3.367a1.627,1.627,0,0,1-1.627,1.627H190.519a1.627,1.627,0,0,1-1.627-1.627Z" transform="translate(1546.649 -8923.485)" fill="#344154"/>
      <path id="Trazado_910128" data-name="Trazado 910128" d="M188.89,267.15h85.292v3.367a1.627,1.627,0,0,1-1.627,1.627H190.519a1.627,1.627,0,0,1-1.627-1.627Z" transform="translate(1546.649 -8923.485)" fill="#fff" opacity="0.6"/>
      <rect id="Rectángulo_406499" data-name="Rectángulo 406499" width="85.292" height="2.5" transform="translate(1735.539 -8656.336)" opacity="0.2"/>
      <path id="Trazado_910129" data-name="Trazado 910129" d="M275.382,267.076H185.148a1.408,1.408,0,0,1-1.408-1.408h0a1.408,1.408,0,0,1,1.408-1.408h90.233a1.408,1.408,0,0,1,1.408,1.408h0A1.408,1.408,0,0,1,275.382,267.076Z" transform="translate(1547.92 -8922.772)" fill="#344154"/>
      <path id="Trazado_910130" data-name="Trazado 910130" d="M275.382,267.076H185.148a1.408,1.408,0,0,1-1.408-1.408h0a1.408,1.408,0,0,1,1.408-1.408h90.233a1.408,1.408,0,0,1,1.408,1.408h0A1.408,1.408,0,0,1,275.382,267.076Z" transform="translate(1547.92 -8922.772)" fill="#fff" opacity="0.6"/>
      <path id="Trazado_910131" data-name="Trazado 910131" d="M275.058,261v1.635c0,.49-.844.836-1.325.836h-38.15c-.49,0-1.273-.346-1.273-.836V261Z" transform="translate(1535.439 -8921.967)" fill="#344154"/>
      <path id="Trazado_910132" data-name="Trazado 910132" d="M275.058,261v1.635c0,.49-.844.836-1.325.836h-38.15c-.49,0-1.273-.346-1.273-.836V261Z" transform="translate(1535.439 -8921.967)" fill="#fff" opacity="0.6"/>
      <path id="Trazado_910133" data-name="Trazado 910133" d="M279.31,261v1.635c0,.49-.844.836-1.325.836H252.828c-.482,0-1.288-.346-1.288-.836V261Z" transform="translate(1531.187 -8921.967)" opacity="0.2"/>
      <path id="Trazado_910134" data-name="Trazado 910134" d="M286.112,234.022l-4.519,20.667a1.6,1.6,0,0,1-1.511,1.236H255.295a1.069,1.069,0,0,1-.933-1.378l4.519-20.442a1.423,1.423,0,0,1,1.511-1.017h24.8C285.841,233.087,286.263,233.351,286.112,234.022Z" transform="translate(1530.501 -8915.077)" fill="#344154"/>
      <path id="Trazado_910135" data-name="Trazado 910135" d="M286.112,234.022l-4.519,20.667a1.6,1.6,0,0,1-1.511,1.236H255.295a1.069,1.069,0,0,1-.933-1.378l4.519-20.442a1.423,1.423,0,0,1,1.511-1.017h24.8C285.841,233.087,286.263,233.351,286.112,234.022Z" transform="translate(1530.501 -8915.077)" fill="#fff" opacity="0.6"/>
      <path id="Trazado_910136" data-name="Trazado 910136" d="M286.385,234.021l-4.519,20.663a1.6,1.6,0,0,1-1.511,1.236H256.4a1.079,1.079,0,0,1-.941-1.378l4.519-20.442a1.416,1.416,0,0,1,1.511-1.017h23.956C286.114,233.088,286.536,233.351,286.385,234.021Z" transform="translate(1530.228 -8915.077)" fill="#fff" opacity="0.4"/>
      <path id="Trazado_910137" data-name="Trazado 910137" d="M276.634,250.1a3.206,3.206,0,0,0,2.644-2.765c.3-1.529-.4-2.772-1.559-2.772a1.936,1.936,0,0,0-.64.128,3.533,3.533,0,0,1-1.966,2.523.4.4,0,0,0,0,.121C274.773,248.86,275.474,250.107,276.634,250.1Z" transform="translate(1525.391 -8917.91)" opacity="0.2"/>
    </g>
  </g>
</svg>
