<svg xmlns="http://www.w3.org/2000/svg" width="820" height="423.826" viewBox="0 0 820 423.826">
  <g id="Grupo_1118353" data-name="Grupo 1118353" transform="translate(-390 -3734)">
    <path id="Trazado_910772" data-name="Trazado 910772" d="M0,0H820V385.881H0Z" transform="translate(390 3771.944)" fill="#e8e8e8"/>
    <path id="Trazado_910773" data-name="Trazado 910773" d="M2.854,0h814.29A2.854,2.854,0,0,1,820,2.854V47.016a2.854,2.854,0,0,1-2.854,2.854H2.854A2.854,2.854,0,0,1,0,47.016V2.854A2.854,2.854,0,0,1,2.854,0Z" transform="translate(390 3734)" fill="#d9a171"/>
    <path id="Trazado_910774" data-name="Trazado 910774" d="M94.537,17.563H92.149V5.974h2.388ZM93.8,2.846H96.3L94.1,5.313h-1.87Zm5.556,3.988V8.951h1.472v1.688H99.353v4.3a1.03,1.03,0,0,0,.183.686.92.92,0,0,0,.7.207,3.668,3.668,0,0,0,.677-.056v1.743a4.736,4.736,0,0,1-1.393.207,2.2,2.2,0,0,1-2.467-2.443V10.639H95.8V8.951h1.258V6.834Zm6.718,10.888a4.228,4.228,0,0,1-3.084-1.162,4.131,4.131,0,0,1-1.19-3.1v-.223a5.2,5.2,0,0,1,.5-2.316,3.68,3.68,0,0,1,1.421-1.576,3.988,3.988,0,0,1,2.1-.553A3.574,3.574,0,0,1,108.6,9.91a4.528,4.528,0,0,1,1.015,3.16v.939h-5.484a2.137,2.137,0,0,0,.673,1.353,2.033,2.033,0,0,0,1.421.51,2.483,2.483,0,0,0,2.077-.963l1.13,1.265a3.453,3.453,0,0,1-1.4,1.142,4.6,4.6,0,0,1-1.958.407Zm-.263-7.068a1.441,1.441,0,0,0-1.11.462,2.385,2.385,0,0,0-.545,1.321h3.2v-.183a1.7,1.7,0,0,0-.414-1.182,1.487,1.487,0,0,0-1.132-.418Zm7.267-1.7.071.963a3.027,3.027,0,0,1,2.475-1.122,2.3,2.3,0,0,1,2.285,1.314,2.957,2.957,0,0,1,2.587-1.314,2.569,2.569,0,0,1,2.086.816,3.75,3.75,0,0,1,.686,2.455v5.5h-2.308V12.073A1.64,1.64,0,0,0,120.671,11a1.27,1.27,0,0,0-1.011-.338,1.435,1.435,0,0,0-1.433.987l.005,5.913h-2.3V12.079A1.62,1.62,0,0,0,115.638,11a1.287,1.287,0,0,0-1-.335,1.491,1.491,0,0,0-1.416.812v6.09h-2.3V8.951Z" transform="translate(420.93 3748.383)" fill="#12263f"/>
    <path id="Trazado_910775" data-name="Trazado 910775" d="M41.319,17.871H33.376V16.294l3.749-4a9.249,9.249,0,0,0,1.142-1.472,2.365,2.365,0,0,0,.37-1.194,1.77,1.77,0,0,0-.39-1.214,1.408,1.408,0,0,0-1.115-.442,1.519,1.519,0,0,0-1.229.537,2.129,2.129,0,0,0-.45,1.413H33.144a3.8,3.8,0,0,1,.505-1.934A3.562,3.562,0,0,1,35.078,6.62a4.343,4.343,0,0,1,2.093-.5,4.112,4.112,0,0,1,2.782.858,3.041,3.041,0,0,1,.991,2.428A3.9,3.9,0,0,1,40.5,11.16a9.731,9.731,0,0,1-1.526,2.078l-2.635,2.778h4.983Zm9.209-4.792a5.871,5.871,0,0,1-1,3.677,3.98,3.98,0,0,1-5.814.023A5.7,5.7,0,0,1,42.69,13.2V11.065A5.794,5.794,0,0,1,43.7,7.376a3.986,3.986,0,0,1,5.8-.008,5.681,5.681,0,0,1,1.03,3.578Zm-2.3-2.341a4.236,4.236,0,0,0-.394-2.1,1.332,1.332,0,0,0-1.229-.656,1.308,1.308,0,0,0-1.2.625,3.965,3.965,0,0,0-.41,1.954v2.818a4.447,4.447,0,0,0,.386,2.105,1.314,1.314,0,0,0,1.238.686,1.292,1.292,0,0,0,1.217-.661,4.34,4.34,0,0,0,.39-2.021Zm10.323,8.934H51.3v-1.8h7.251Zm1-6.511a12.216,12.216,0,0,1,.486-3.47,9.158,9.158,0,0,1,1.433-2.917,5.349,5.349,0,0,1,2.054-1.763l.446,1.241a5.541,5.541,0,0,0-1.815,2.66,12.309,12.309,0,0,0-.653,4.2v.247a12.545,12.545,0,0,0,.644,4.219,5.648,5.648,0,0,0,1.822,2.691l-.446,1.217a5.352,5.352,0,0,1-2.018-1.716,9.009,9.009,0,0,1-1.428-2.837,12.143,12.143,0,0,1-.525-3.356Zm13.372.486a5.165,5.165,0,0,1-.9,3.188,2.9,2.9,0,0,1-2.44,1.2,2.683,2.683,0,0,1-2.109-.908v4.059h-2.3V9.258h2.133l.08.843a2.7,2.7,0,0,1,2.183-1,2.917,2.917,0,0,1,2.475,1.178,5.3,5.3,0,0,1,.884,3.247Zm-2.3-.167a3.39,3.39,0,0,0-.429-1.855,1.387,1.387,0,0,0-1.238-.653,1.507,1.507,0,0,0-1.489.828v3.526a1.532,1.532,0,0,0,1.5.852q1.652,0,1.652-2.7Zm8.564-2.059a6.25,6.25,0,0,0-.828-.063,1.685,1.685,0,0,0-1.712.884v5.63h-2.3V9.258h2.173l.063,1.03A2.131,2.131,0,0,1,78.507,9.1a2.41,2.41,0,0,1,.716.1Zm5.071,6.614a4.228,4.228,0,0,1-3.084-1.162,4.131,4.131,0,0,1-1.19-3.1v-.223a5.2,5.2,0,0,1,.5-2.316,3.68,3.68,0,0,1,1.421-1.576,3.988,3.988,0,0,1,2.1-.553,3.574,3.574,0,0,1,2.782,1.115,4.528,4.528,0,0,1,1.015,3.16v.939H82.32a2.137,2.137,0,0,0,.673,1.353,2.033,2.033,0,0,0,1.421.51,2.483,2.483,0,0,0,2.077-.974l1.13,1.265a3.453,3.453,0,0,1-1.4,1.142,4.6,4.6,0,0,1-1.958.412ZM84,10.967a1.441,1.441,0,0,0-1.11.462,2.385,2.385,0,0,0-.545,1.321h3.2v-.183a1.7,1.7,0,0,0-.414-1.182A1.487,1.487,0,0,0,84,10.961ZM93.773,15.5a.741.741,0,0,0-.418-.665,4.747,4.747,0,0,0-1.341-.434q-3.072-.644-3.072-2.611a2.366,2.366,0,0,1,.951-1.914A3.837,3.837,0,0,1,92.382,9.1,4.129,4.129,0,0,1,95,9.872a2.433,2.433,0,0,1,.983,2.006h-2.3a1.115,1.115,0,0,0-.318-.816,1.347,1.347,0,0,0-1-.323,1.373,1.373,0,0,0-.9.263.829.829,0,0,0-.318.668.709.709,0,0,0,.362.617,3.725,3.725,0,0,0,1.222.406,9.979,9.979,0,0,1,1.448.386A2.38,2.38,0,0,1,96.012,15.4,2.246,2.246,0,0,1,95,17.3a4.361,4.361,0,0,1-2.611.728,4.555,4.555,0,0,1-1.922-.386,3.225,3.225,0,0,1-1.32-1.06,2.46,2.46,0,0,1-.478-1.453h2.181a1.2,1.2,0,0,0,.454.939,1.8,1.8,0,0,0,1.13.326,1.665,1.665,0,0,0,1-.251.78.78,0,0,0,.339-.655Zm7.681,2.539a4.228,4.228,0,0,1-3.084-1.162,4.131,4.131,0,0,1-1.19-3.1v-.223a5.2,5.2,0,0,1,.5-2.316A3.68,3.68,0,0,1,99.1,9.661a3.988,3.988,0,0,1,2.1-.553,3.574,3.574,0,0,1,2.782,1.115A4.528,4.528,0,0,1,105,13.383v.939H99.512a2.137,2.137,0,0,0,.673,1.353,2.033,2.033,0,0,0,1.421.51,2.483,2.483,0,0,0,2.077-.963l1.13,1.265a3.453,3.453,0,0,1-1.4,1.142,4.6,4.6,0,0,1-1.958.4Zm-.263-7.068a1.44,1.44,0,0,0-1.11.462,2.385,2.385,0,0,0-.545,1.321h3.2v-.183a1.7,1.7,0,0,0-.414-1.182,1.487,1.487,0,0,0-1.132-.423Zm7.227-1.7.071,1A3,3,0,0,1,110.966,9.1a2.5,2.5,0,0,1,2.038.8,3.751,3.751,0,0,1,.686,2.4v5.56h-2.3V12.362a1.492,1.492,0,0,0-.318-1.063,1.425,1.425,0,0,0-1.059-.33,1.582,1.582,0,0,0-1.459.828v6.074h-2.3V9.258Zm9.766-2.117V9.258h1.472v1.688h-1.472v4.3a1.03,1.03,0,0,0,.183.686.92.92,0,0,0,.7.207,3.668,3.668,0,0,0,.677-.056v1.743a4.736,4.736,0,0,1-1.393.207,2.2,2.2,0,0,1-2.468-2.443V10.946h-1.258V9.258h1.258V7.141ZM124.9,18.034a4.228,4.228,0,0,1-3.084-1.162,4.131,4.131,0,0,1-1.19-3.1v-.223a5.2,5.2,0,0,1,.5-2.316,3.68,3.68,0,0,1,1.421-1.576,3.988,3.988,0,0,1,2.1-.553,3.574,3.574,0,0,1,2.782,1.115,4.528,4.528,0,0,1,1.015,3.16v.939h-5.484a2.137,2.137,0,0,0,.673,1.353,2.033,2.033,0,0,0,1.421.51,2.483,2.483,0,0,0,2.077-.963l1.13,1.265a3.453,3.453,0,0,1-1.4,1.142,4.6,4.6,0,0,1-1.958.4Zm-.263-7.068a1.441,1.441,0,0,0-1.11.462,2.385,2.385,0,0,0-.545,1.321h3.2v-.183a1.7,1.7,0,0,0-.414-1.182,1.487,1.487,0,0,0-1.132-.423Zm14.16,6.9a2.554,2.554,0,0,1-.231-.772,2.783,2.783,0,0,1-2.173.931,3.058,3.058,0,0,1-2.1-.733,2.355,2.355,0,0,1-.831-1.846,2.434,2.434,0,0,1,1.015-2.1,5.008,5.008,0,0,1,2.933-.74h1.059v-.493a1.419,1.419,0,0,0-.306-.955,1.205,1.205,0,0,0-.967-.358,1.373,1.373,0,0,0-.911.279.944.944,0,0,0-.33.764h-2.3a2.31,2.31,0,0,1,.462-1.385,3.052,3.052,0,0,1,1.3-1A4.757,4.757,0,0,1,137.32,9.1a3.759,3.759,0,0,1,2.528.8,2.8,2.8,0,0,1,.935,2.249v3.733a4.118,4.118,0,0,0,.343,1.855v.134Zm-1.9-1.6a1.981,1.981,0,0,0,.939-.227,1.49,1.49,0,0,0,.637-.609v-1.48h-.858q-1.727,0-1.839,1.194l-.008.136a.921.921,0,0,0,.3.709,1.175,1.175,0,0,0,.824.277Zm7.769-7.012.071,1A3,3,0,0,1,147.215,9.1a2.5,2.5,0,0,1,2.038.8,3.751,3.751,0,0,1,.686,2.4v5.566h-2.3V12.362a1.492,1.492,0,0,0-.318-1.063,1.425,1.425,0,0,0-1.059-.33,1.582,1.582,0,0,0-1.459.828v6.074h-2.3V9.258Zm4.569-3.51a2.231,2.231,0,0,1-.525,1.508,1.63,1.63,0,0,1-1.282.609,1.944,1.944,0,0,1-.537-.068,3.6,3.6,0,0,1-.649-.291,3.5,3.5,0,0,0-.6-.275,1.459,1.459,0,0,0-.4-.051.638.638,0,0,0-.474.2.772.772,0,0,0-.195.565l-1.338-.08a2.262,2.262,0,0,1,.522-1.5,1.608,1.608,0,0,1,1.278-.621,1.645,1.645,0,0,1,.45.06,4.952,4.952,0,0,1,.686.291,4.475,4.475,0,0,0,.661.279,1.507,1.507,0,0,0,.382.048.672.672,0,0,0,.481-.195.742.742,0,0,0,.2-.561Zm2.086,7.737a5.107,5.107,0,0,1,.493-2.285,3.613,3.613,0,0,1,1.421-1.552A4.145,4.145,0,0,1,155.39,9.1a3.922,3.922,0,0,1,2.846,1.066,4.28,4.28,0,0,1,1.229,2.9l.016.589a4.5,4.5,0,0,1-1.107,3.18,4.29,4.29,0,0,1-5.942,0,4.581,4.581,0,0,1-1.11-3.247Zm2.3.167a3.211,3.211,0,0,0,.462,1.875,1.66,1.66,0,0,0,2.627.008,3.513,3.513,0,0,0,.469-2.05,3.174,3.174,0,0,0-.469-1.863,1.527,1.527,0,0,0-1.321-.661,1.5,1.5,0,0,0-1.3.656,3.573,3.573,0,0,0-.463,2.033Zm11.239-.311a11.592,11.592,0,0,1-.515,3.463,9.4,9.4,0,0,1-1.489,2.937,5.362,5.362,0,0,1-2.077,1.751l-.446-1.217a5.6,5.6,0,0,0,1.783-2.627,12.163,12.163,0,0,0,.677-4.083v-.422a12.44,12.44,0,0,0-.651-4.2,5.834,5.834,0,0,0-1.811-2.722l.446-1.217a5.364,5.364,0,0,1,2.042,1.7,9.278,9.278,0,0,1,1.489,2.873,11.509,11.509,0,0,1,.553,3.4Z" transform="translate(771.761 3748.076)" fill="#12263f"/>
    <path id="Trazado_910776" data-name="Trazado 910776" d="M45.374,17.871H37.43V16.294l3.749-4a9.249,9.249,0,0,0,1.142-1.472,2.365,2.365,0,0,0,.37-1.193A1.77,1.77,0,0,0,42.3,8.42a1.408,1.408,0,0,0-1.115-.442,1.519,1.519,0,0,0-1.229.537,2.129,2.129,0,0,0-.45,1.413H37.2a3.8,3.8,0,0,1,.505-1.934,3.562,3.562,0,0,1,1.429-1.373,4.343,4.343,0,0,1,2.093-.5,4.112,4.112,0,0,1,2.782.858A3.041,3.041,0,0,1,45,9.41a3.9,3.9,0,0,1-.446,1.751,9.731,9.731,0,0,1-1.528,2.076l-2.634,2.778h4.983Zm9.209-4.792a5.871,5.871,0,0,1-1,3.676,3.976,3.976,0,0,1-5.81.024,5.7,5.7,0,0,1-1.03-3.582V11.065a5.794,5.794,0,0,1,1.007-3.689,3.984,3.984,0,0,1,5.8-.012,5.681,5.681,0,0,1,1.03,3.578Zm-2.3-2.34a4.236,4.236,0,0,0-.394-2.1,1.332,1.332,0,0,0-1.229-.656,1.308,1.308,0,0,0-1.2.625,3.965,3.965,0,0,0-.41,1.954v2.818a4.447,4.447,0,0,0,.386,2.105,1.314,1.314,0,0,0,1.238.686,1.292,1.292,0,0,0,1.217-.661,4.34,4.34,0,0,0,.393-2.018Zm10.324,8.933H55.355v-1.8h7.251Zm1-6.511a12.215,12.215,0,0,1,.486-3.47,9.158,9.158,0,0,1,1.433-2.917,5.349,5.349,0,0,1,2.054-1.763l.446,1.241a5.541,5.541,0,0,0-1.815,2.66,12.309,12.309,0,0,0-.653,4.2v.247a12.545,12.545,0,0,0,.644,4.219,5.648,5.648,0,0,0,1.822,2.691l-.446,1.217a5.352,5.352,0,0,1-2.018-1.716,9.009,9.009,0,0,1-1.429-2.837,12.142,12.142,0,0,1-.525-3.356Zm10.61,4.709a2.554,2.554,0,0,1-.231-.772,2.783,2.783,0,0,1-2.173.931,3.058,3.058,0,0,1-2.1-.733,2.355,2.355,0,0,1-.831-1.846,2.434,2.434,0,0,1,1.015-2.1,5.008,5.008,0,0,1,2.933-.74h1.059v-.493a1.419,1.419,0,0,0-.306-.955,1.205,1.205,0,0,0-.967-.358,1.373,1.373,0,0,0-.911.279.944.944,0,0,0-.33.764h-2.3a2.311,2.311,0,0,1,.462-1.385,3.052,3.052,0,0,1,1.306-1A4.757,4.757,0,0,1,72.739,9.1a3.759,3.759,0,0,1,2.528.8,2.8,2.8,0,0,1,.935,2.249v3.733a4.118,4.118,0,0,0,.343,1.855v.134Zm-1.9-1.6a1.981,1.981,0,0,0,.939-.227,1.49,1.49,0,0,0,.637-.609v-1.48h-.858q-1.727,0-1.839,1.194l-.008.136a.921.921,0,0,0,.3.709A1.175,1.175,0,0,0,72.317,16.27Zm7.769-7.012.071,1A3,3,0,0,1,82.632,9.1a2.5,2.5,0,0,1,2.038.8,3.751,3.751,0,0,1,.686,2.4v5.565h-2.3V12.362a1.492,1.492,0,0,0-.318-1.063,1.425,1.425,0,0,0-1.059-.33,1.582,1.582,0,0,0-1.459.828v6.074h-2.3V9.258Zm4.569-3.51a2.231,2.231,0,0,1-.524,1.508,1.63,1.63,0,0,1-1.282.609,1.944,1.944,0,0,1-.537-.068,3.6,3.6,0,0,1-.649-.291,3.5,3.5,0,0,0-.6-.275,1.459,1.459,0,0,0-.4-.051.638.638,0,0,0-.474.2A.772.772,0,0,0,80,7.946l-1.338-.08a2.262,2.262,0,0,1,.522-1.5,1.608,1.608,0,0,1,1.277-.621,1.645,1.645,0,0,1,.45.06,4.951,4.951,0,0,1,.686.291,4.475,4.475,0,0,0,.661.279,1.507,1.507,0,0,0,.382.048.672.672,0,0,0,.481-.195.742.742,0,0,0,.2-.561Zm2.086,7.737a5.107,5.107,0,0,1,.493-2.285,3.613,3.613,0,0,1,1.421-1.552A4.145,4.145,0,0,1,90.808,9.1a3.922,3.922,0,0,1,2.846,1.066,4.28,4.28,0,0,1,1.229,2.9l.016.589a4.5,4.5,0,0,1-1.107,3.18,4.29,4.29,0,0,1-5.942,0,4.581,4.581,0,0,1-1.11-3.247Zm2.3.167a3.211,3.211,0,0,0,.462,1.875,1.66,1.66,0,0,0,2.627.008,3.518,3.518,0,0,0,.469-2.05,3.174,3.174,0,0,0-.469-1.863,1.527,1.527,0,0,0-1.321-.661,1.5,1.5,0,0,0-1.3.656,3.573,3.573,0,0,0-.462,2.033Zm16.325,4.218a2.555,2.555,0,0,1-.231-.772,2.783,2.783,0,0,1-2.173.931,3.058,3.058,0,0,1-2.1-.733,2.355,2.355,0,0,1-.831-1.846,2.434,2.434,0,0,1,1.015-2.1,5.008,5.008,0,0,1,2.933-.74h1.059v-.493a1.419,1.419,0,0,0-.306-.955,1.205,1.205,0,0,0-.967-.358,1.373,1.373,0,0,0-.911.279.944.944,0,0,0-.33.764h-2.3a2.31,2.31,0,0,1,.462-1.385,3.052,3.052,0,0,1,1.3-1,4.757,4.757,0,0,1,1.894-.362,3.759,3.759,0,0,1,2.528.8,2.8,2.8,0,0,1,.935,2.249v3.733a4.118,4.118,0,0,0,.343,1.855v.134Zm-1.9-1.6a1.981,1.981,0,0,0,.939-.227,1.49,1.49,0,0,0,.637-.609v-1.48h-.858q-1.727,0-1.839,1.194l-.008.136a.921.921,0,0,0,.3.709,1.175,1.175,0,0,0,.825.277Zm7.769-7.012.071,1A3,3,0,0,1,113.779,9.1a2.5,2.5,0,0,1,2.038.8,3.751,3.751,0,0,1,.686,2.4v5.565h-2.3V12.362a1.492,1.492,0,0,0-.318-1.063,1.425,1.425,0,0,0-1.059-.33,1.582,1.582,0,0,0-1.459.828v6.074h-2.3V9.258ZM121,7.141V9.258h1.472v1.688H121v4.3a1.03,1.03,0,0,0,.183.686.92.92,0,0,0,.7.207,3.669,3.669,0,0,0,.677-.056v1.743a4.736,4.736,0,0,1-1.393.207,2.2,2.2,0,0,1-2.467-2.443V10.946H117.44V9.258H118.7V7.141Zm6.718,10.888a4.228,4.228,0,0,1-3.084-1.162,4.131,4.131,0,0,1-1.19-3.1v-.223a5.2,5.2,0,0,1,.5-2.316,3.68,3.68,0,0,1,1.421-1.576,3.988,3.988,0,0,1,2.1-.553,3.574,3.574,0,0,1,2.782,1.115,4.528,4.528,0,0,1,1.015,3.16v.939h-5.484a2.137,2.137,0,0,0,.673,1.353,2.033,2.033,0,0,0,1.421.51,2.483,2.483,0,0,0,2.078-.969l1.13,1.265a3.453,3.453,0,0,1-1.4,1.142,4.6,4.6,0,0,1-1.96.412Zm-.263-7.068a1.441,1.441,0,0,0-1.11.462,2.385,2.385,0,0,0-.545,1.321H129v-.183a1.7,1.7,0,0,0-.414-1.182,1.487,1.487,0,0,0-1.131-.418Zm9.952.454a6.25,6.25,0,0,0-.828-.063,1.685,1.685,0,0,0-1.712.884v5.635h-2.3V9.258h2.173l.063,1.03A2.131,2.131,0,0,1,136.722,9.1a2.41,2.41,0,0,1,.716.1Zm3.53,6.455h-2.308V9.258h2.308ZM138.493,7.029a1.133,1.133,0,0,1,.343-.852,1.492,1.492,0,0,1,1.882,0,1.127,1.127,0,0,1,.35.852,1.129,1.129,0,0,1-.354.858,1.476,1.476,0,0,1-1.87,0,1.129,1.129,0,0,1-.351-.858Zm3.98,6.455a5.107,5.107,0,0,1,.493-2.285,3.613,3.613,0,0,1,1.421-1.552,4.145,4.145,0,0,1,2.153-.549,3.922,3.922,0,0,1,2.846,1.066,4.28,4.28,0,0,1,1.229,2.9l.016.589a4.5,4.5,0,0,1-1.107,3.18,4.29,4.29,0,0,1-5.942,0,4.581,4.581,0,0,1-1.11-3.247Zm2.3.167a3.21,3.21,0,0,0,.462,1.875,1.66,1.66,0,0,0,2.627.008,3.513,3.513,0,0,0,.469-2.05,3.174,3.174,0,0,0-.469-1.863,1.527,1.527,0,0,0-1.321-.661,1.5,1.5,0,0,0-1.3.656,3.573,3.573,0,0,0-.462,2.034Zm12.114-2.237a6.25,6.25,0,0,0-.828-.063,1.685,1.685,0,0,0-1.712.884v5.635h-2.3V9.258h2.173l.063,1.03A2.131,2.131,0,0,1,156.2,9.1a2.41,2.41,0,0,1,.716.1Zm5.071,1.926a11.591,11.591,0,0,1-.515,3.463,9.4,9.4,0,0,1-1.489,2.937,5.362,5.362,0,0,1-2.077,1.751l-.446-1.217a5.6,5.6,0,0,0,1.783-2.627,12.163,12.163,0,0,0,.677-4.083v-.422a12.44,12.44,0,0,0-.649-4.195,5.834,5.834,0,0,0-1.811-2.722l.446-1.217a5.364,5.364,0,0,1,2.042,1.7,9.278,9.278,0,0,1,1.489,2.873,11.509,11.509,0,0,1,.553,3.4Z" transform="translate(1007.007 3748.076)" fill="#12263f"/>
    <path id="Trazado_910777" data-name="Trazado 910777" d="M814.756,0H0" transform="translate(395.244 3831.138)" fill="none" stroke="#5e6178" stroke-width="2" stroke-dasharray="4"/>
    <path id="Trazado_910778" data-name="Trazado 910778" d="M814.756,0H0" transform="translate(395.244 3885.166)" fill="none" stroke="#5e6178" stroke-width="2" stroke-dasharray="4"/>
    <path id="Trazado_910779" data-name="Trazado 910779" d="M814.756,0H0" transform="translate(395.244 3939.196)" fill="none" stroke="#5e6178" stroke-width="2" stroke-dasharray="4"/>
    <path id="Trazado_910780" data-name="Trazado 910780" d="M814.756,0H0" transform="translate(395.244 3993.225)" fill="none" stroke="#5e6178" stroke-width="2" stroke-dasharray="4"/>
    <path id="Trazado_910781" data-name="Trazado 910781" d="M814.756,0H0" transform="translate(395.244 4047.253)" fill="none" stroke="#5e6178" stroke-width="2" stroke-dasharray="4"/>
    <path id="Trazado_910782" data-name="Trazado 910782" d="M814.756,0H0" transform="translate(395.244 4101.283)" fill="none" stroke="#5e6178" stroke-width="2" stroke-dasharray="4"/>
    <path id="Trazado_910783" data-name="Trazado 910783" d="M0,0H820V42.9H0Z" transform="translate(390 3785.688)" fill="#fff"/>
    <path id="Trazado_910784" data-name="Trazado 910784" d="M0,0H820V48.046H0Z" transform="translate(390 3887.717)" fill="#fff"/>
    <path id="Trazado_910785" data-name="Trazado 910785" d="M0,0H820V48.046H0Z" transform="translate(390 3996.658)" fill="#fff"/>
    <path id="Trazado_910786" data-name="Trazado 910786" d="M0,0H820V47.188H0Z" transform="translate(390 4103.834)" fill="#fff"/>
    <path id="Trazado_910787" data-name="Trazado 910787" d="M7.531,11.98H2.772v3.891H8.3v1.184H1.324V6.073h6.9V7.268H2.772V10.8H7.531Zm2.9,5.075V9.975H9.144V8.9h1.287V8.06a2.778,2.778,0,0,1,.7-2.029,2.649,2.649,0,0,1,1.984-.716,3.661,3.661,0,0,1,.957.128L14,6.574a4.007,4.007,0,0,0-.754-.068,1.363,1.363,0,0,0-1.048.4,1.6,1.6,0,0,0-.37,1.135v.858H13.57V9.973H11.828v7.082Zm8.065.151a3.565,3.565,0,0,1-2.7-1.09A4.044,4.044,0,0,1,14.756,13.2v-.257a4.9,4.9,0,0,1,.464-2.168,3.618,3.618,0,0,1,1.3-1.493,3.26,3.26,0,0,1,1.8-.539,3.056,3.056,0,0,1,2.473,1.048,4.538,4.538,0,0,1,.882,3v.581H16.15a2.9,2.9,0,0,0,.705,1.949,2.216,2.216,0,0,0,1.716.743,2.43,2.43,0,0,0,1.252-.3,3.145,3.145,0,0,0,.9-.8l.852.663A3.426,3.426,0,0,1,18.5,17.206Zm-.172-7.314a1.861,1.861,0,0,0-1.417.614,2.987,2.987,0,0,0-.709,1.723h4.087v-.106a2.66,2.66,0,0,0-.573-1.647,1.752,1.752,0,0,0-1.388-.585Zm8.242,6.177a2.009,2.009,0,0,0,1.3-.452,1.592,1.592,0,0,0,.615-1.136h1.32a2.53,2.53,0,0,1-.482,1.335,3.174,3.174,0,0,1-1.187,1.011,3.427,3.427,0,0,1-1.573.377,3.361,3.361,0,0,1-2.65-1.115,4.43,4.43,0,0,1-.984-3.042v-.233a4.912,4.912,0,0,1,.438-2.119,3.331,3.331,0,0,1,1.255-1.441,3.567,3.567,0,0,1,1.934-.515,3.272,3.272,0,0,1,2.281.822,2.938,2.938,0,0,1,.969,2.134h-1.32a1.923,1.923,0,0,0-.6-1.3,1.865,1.865,0,0,0-1.331-.509,1.953,1.953,0,0,0-1.647.765,3.6,3.6,0,0,0-.584,2.214v.264A3.523,3.523,0,0,0,24.9,15.3a1.962,1.962,0,0,0,1.657.769Zm6.7-9.148V8.894H34.79V9.973H33.267v5.062a1.13,1.13,0,0,0,.2.735.858.858,0,0,0,.694.245,3.378,3.378,0,0,0,.663-.09v1.13a4.044,4.044,0,0,1-1.071.151,1.737,1.737,0,0,1-1.41-.565,2.43,2.43,0,0,1-.475-1.606V9.973H30.386V8.9h1.486V6.923Zm4.667,10.134h-1.4V8.9h1.4ZM36.428,6.732a.833.833,0,0,1,.206-.573.778.778,0,0,1,.614-.233.791.791,0,0,1,.619.233.824.824,0,0,1,.211.573.825.825,0,1,1-1.65,0Zm6.435,8.43L44.883,8.9h1.425l-2.931,8.156H42.316L39.359,8.9h1.425ZM47.168,12.9a4.819,4.819,0,0,1,.471-2.157,3.518,3.518,0,0,1,1.312-1.478,3.572,3.572,0,0,1,1.919-.52,3.44,3.44,0,0,1,2.7,1.154,4.439,4.439,0,0,1,1.03,3.069v.1a4.861,4.861,0,0,1-.456,2.138,3.464,3.464,0,0,1-1.3,1.474,3.613,3.613,0,0,1-1.949.528A3.432,3.432,0,0,1,48.2,16.052,4.416,4.416,0,0,1,47.167,13Zm1.4.166a3.49,3.49,0,0,0,.63,2.179,2.134,2.134,0,0,0,3.374-.011A3.817,3.817,0,0,0,53.2,12.9a3.484,3.484,0,0,0-.637-2.176,2.026,2.026,0,0,0-1.693-.833,2,2,0,0,0-1.666.822,3.789,3.789,0,0,0-.637,2.353Zm14.983,4.14a3.565,3.565,0,0,1-2.7-1.09A4.044,4.044,0,0,1,59.815,13.2v-.257a4.9,4.9,0,0,1,.464-2.168,3.618,3.618,0,0,1,1.3-1.493,3.26,3.26,0,0,1,1.8-.539A3.056,3.056,0,0,1,65.851,9.79a4.538,4.538,0,0,1,.882,3v.581H61.2a2.9,2.9,0,0,0,.705,1.949,2.216,2.216,0,0,0,1.716.743,2.43,2.43,0,0,0,1.252-.3,3.146,3.146,0,0,0,.9-.8l.852.663a3.426,3.426,0,0,1-3.077,1.574Zm-.172-7.314a1.861,1.861,0,0,0-1.417.614,2.987,2.987,0,0,0-.709,1.723h4.084v-.106a2.66,2.66,0,0,0-.573-1.647,1.752,1.752,0,0,0-1.391-.584Zm6.289-1,.045,1.03a2.973,2.973,0,0,1,2.443-1.176q2.587,0,2.609,2.917v5.389h-1.4v-5.4a1.878,1.878,0,0,0-.4-1.3,1.616,1.616,0,0,0-1.233-.422,2.014,2.014,0,0,0-1.192.362,2.458,2.458,0,0,0-.8.95v5.814h-1.4V8.9Zm14.287,7.172a2.009,2.009,0,0,0,1.3-.452,1.592,1.592,0,0,0,.622-1.134h1.32a2.53,2.53,0,0,1-.482,1.335,3.174,3.174,0,0,1-1.187,1.011,3.427,3.427,0,0,1-1.573.377,3.361,3.361,0,0,1-2.65-1.115,4.43,4.43,0,0,1-.984-3.042v-.233a4.912,4.912,0,0,1,.438-2.119,3.331,3.331,0,0,1,1.255-1.441,3.567,3.567,0,0,1,1.934-.515,3.272,3.272,0,0,1,2.281.822,2.938,2.938,0,0,1,.969,2.134h-1.32a1.923,1.923,0,0,0-.6-1.3,1.865,1.865,0,0,0-1.326-.5,1.953,1.953,0,0,0-1.647.765,3.6,3.6,0,0,0-.584,2.214v.264a3.523,3.523,0,0,0,.581,2.171,1.962,1.962,0,0,0,1.651.762Zm9.852.988a2.931,2.931,0,0,1-.2-.858,3.113,3.113,0,0,1-2.322,1.011,2.88,2.88,0,0,1-1.979-.686,2.208,2.208,0,0,1-.772-1.731,2.306,2.306,0,0,1,.969-1.979,4.569,4.569,0,0,1,2.726-.705h1.357v-.641a1.567,1.567,0,0,0-.438-1.165,1.758,1.758,0,0,0-1.287-.433,2.034,2.034,0,0,0-1.252.377,1.115,1.115,0,0,0-.505.912h-1.4a1.925,1.925,0,0,1,.433-1.18,2.959,2.959,0,0,1,1.176-.9,3.958,3.958,0,0,1,1.63-.332,3.225,3.225,0,0,1,2.209.705,2.543,2.543,0,0,1,.83,1.942v3.755a4.591,4.591,0,0,0,.287,1.787v.123Zm-2.316-1.063a2.452,2.452,0,0,0,1.244-.343,2.052,2.052,0,0,0,.852-.882V13.1H92.5q-2.564,0-2.564,1.5a1.27,1.27,0,0,0,.438,1.03,1.681,1.681,0,0,0,1.125.365Zm7.121-7.1V18q0,2.353-2.134,2.353a2.589,2.589,0,0,1-.852-.136V19.1a2.7,2.7,0,0,0,.633.06.948.948,0,0,0,.713-.252,1.248,1.248,0,0,0,.245-.879V8.9ZM97.077,6.732a.837.837,0,0,1,.208-.57.763.763,0,0,1,.607-.238.791.791,0,0,1,.619.233.824.824,0,0,1,.211.573.755.755,0,0,1-.83.792.78.78,0,0,1-.611-.227.814.814,0,0,1-.205-.565ZM105.9,17.055a2.931,2.931,0,0,1-.2-.858,3.113,3.113,0,0,1-2.322,1.011,2.88,2.88,0,0,1-1.979-.686,2.208,2.208,0,0,1-.772-1.731,2.306,2.306,0,0,1,.969-1.979,4.569,4.569,0,0,1,2.726-.705h1.357v-.641a1.567,1.567,0,0,0-.438-1.165,1.758,1.758,0,0,0-1.287-.433,2.034,2.034,0,0,0-1.252.377,1.115,1.115,0,0,0-.505.912h-1.4a1.925,1.925,0,0,1,.433-1.18,2.959,2.959,0,0,1,1.176-.9,3.958,3.958,0,0,1,1.63-.332,3.225,3.225,0,0,1,2.209.705,2.543,2.543,0,0,1,.83,1.942v3.755a4.591,4.591,0,0,0,.287,1.787v.122Zm-2.316-1.063a2.452,2.452,0,0,0,1.244-.343,2.052,2.052,0,0,0,.852-.882V13.1h-1.093q-2.564,0-2.564,1.5a1.27,1.27,0,0,0,.438,1.03,1.681,1.681,0,0,0,1.125.365ZM4.559,67.074a6.808,6.808,0,0,1-2.708-1.32A2.514,2.514,0,0,1,1,63.828,2.66,2.66,0,0,1,2.04,61.683a4.118,4.118,0,0,1,2.7-.849,4.5,4.5,0,0,1,2.017.438,3.317,3.317,0,0,1,1.373,1.206,3.089,3.089,0,0,1,.486,1.682H7.153A2,2,0,0,0,6.52,62.6a2.582,2.582,0,0,0-1.787-.57,2.641,2.641,0,0,0-1.67.471,1.571,1.571,0,0,0-.6,1.308,1.414,1.414,0,0,0,.57,1.135,5.589,5.589,0,0,0,1.938.849,8.975,8.975,0,0,1,2.145.849,3.25,3.25,0,0,1,1.146,1.082,2.762,2.762,0,0,1,.373,1.459,2.565,2.565,0,0,1-1.043,2.135,4.436,4.436,0,0,1-2.782.8A5.161,5.161,0,0,1,2.7,71.683,3.554,3.554,0,0,1,1.185,70.5a2.9,2.9,0,0,1-.532-1.716H2.109a1.888,1.888,0,0,0,.735,1.573,3.1,3.1,0,0,0,1.965.577,2.846,2.846,0,0,0,1.757-.468,1.519,1.519,0,0,0,.611-1.274,1.491,1.491,0,0,0-.565-1.248,6.521,6.521,0,0,0-2.052-.864ZM15.3,71.965a2.931,2.931,0,0,1-.2-.858,3.113,3.113,0,0,1-2.322,1.011,2.88,2.88,0,0,1-1.979-.686,2.208,2.208,0,0,1-.772-1.731A2.306,2.306,0,0,1,11,67.721a4.569,4.569,0,0,1,2.726-.705h1.357v-.641a1.567,1.567,0,0,0-.438-1.165,1.758,1.758,0,0,0-1.287-.433,2.034,2.034,0,0,0-1.252.377,1.115,1.115,0,0,0-.505.912H10.2a1.925,1.925,0,0,1,.433-1.18,2.959,2.959,0,0,1,1.176-.9,3.958,3.958,0,0,1,1.63-.332,3.225,3.225,0,0,1,2.209.705,2.543,2.543,0,0,1,.83,1.942v3.755a4.591,4.591,0,0,0,.287,1.787v.123ZM12.988,70.9a2.452,2.452,0,0,0,1.244-.343,2.052,2.052,0,0,0,.852-.882v-1.67H13.993q-2.564,0-2.564,1.5a1.27,1.27,0,0,0,.438,1.03,1.681,1.681,0,0,0,1.123.366Zm7.2,1.063h-1.4V60.382h1.4Zm1.893-4.147a4.78,4.78,0,0,1,.89-3.02,3.028,3.028,0,0,1,4.6-.162V60.382h1.4V71.965H27.676l-.068-.875a2.841,2.841,0,0,1-2.33,1.03,2.787,2.787,0,0,1-2.311-1.162,4.834,4.834,0,0,1-.894-3.031Zm1.4.159a3.619,3.619,0,0,0,.573,2.172,1.852,1.852,0,0,0,1.584.784,2.035,2.035,0,0,0,1.938-1.192V65.993a2.051,2.051,0,0,0-1.923-1.154,1.862,1.862,0,0,0-1.6.792,3.984,3.984,0,0,0-.573,2.346Zm7.284-.166a4.819,4.819,0,0,1,.471-2.157,3.518,3.518,0,0,1,1.312-1.478,3.572,3.572,0,0,1,1.919-.52,3.44,3.44,0,0,1,2.7,1.154,4.439,4.439,0,0,1,1.03,3.069v.1a4.861,4.861,0,0,1-.456,2.138,3.464,3.464,0,0,1-1.3,1.474,3.613,3.613,0,0,1-1.949.528,3.432,3.432,0,0,1-2.688-1.154,4.416,4.416,0,0,1-1.03-3.054Zm1.4.166a3.49,3.49,0,0,0,.63,2.179,2.134,2.134,0,0,0,3.374-.011,3.817,3.817,0,0,0,.625-2.334,3.484,3.484,0,0,0-.637-2.176,2.026,2.026,0,0,0-1.7-.834,2,2,0,0,0-1.666.822,3.789,3.789,0,0,0-.63,2.353Zm14.983,4.14a3.565,3.565,0,0,1-2.7-1.09A4.044,4.044,0,0,1,43.4,68.109v-.257a4.9,4.9,0,0,1,.464-2.168,3.618,3.618,0,0,1,1.3-1.493,3.26,3.26,0,0,1,1.8-.539A3.056,3.056,0,0,1,49.438,64.7a4.538,4.538,0,0,1,.882,3v.581H44.8a2.9,2.9,0,0,0,.705,1.949,2.216,2.216,0,0,0,1.716.743,2.43,2.43,0,0,0,1.252-.3,3.145,3.145,0,0,0,.9-.8l.852.663a3.426,3.426,0,0,1-3.077,1.578ZM46.97,64.8a1.861,1.861,0,0,0-1.417.614,2.987,2.987,0,0,0-.709,1.723h4.087v-.106a2.66,2.66,0,0,0-.573-1.647,1.752,1.752,0,0,0-1.39-.585Zm6.289-1,.045,1.03a2.973,2.973,0,0,1,2.443-1.176q2.587,0,2.609,2.917v5.388h-1.4v-5.4a1.878,1.878,0,0,0-.4-1.3,1.616,1.616,0,0,0-1.233-.422,2.014,2.014,0,0,0-1.192.362,2.458,2.458,0,0,0-.8.95v5.814H51.938V63.806Zm14.414,8.31a3.565,3.565,0,0,1-2.7-1.09,4.044,4.044,0,0,1-1.041-2.917v-.257a4.9,4.9,0,0,1,.464-2.168,3.618,3.618,0,0,1,1.3-1.493,3.26,3.26,0,0,1,1.8-.539A3.056,3.056,0,0,1,69.969,64.7a4.538,4.538,0,0,1,.882,3v.581h-5.53a2.9,2.9,0,0,0,.705,1.949,2.216,2.216,0,0,0,1.716.743,2.43,2.43,0,0,0,1.252-.3,3.145,3.145,0,0,0,.9-.8l.852.663a3.426,3.426,0,0,1-3.077,1.577ZM67.5,64.8a1.861,1.861,0,0,0-1.417.614,2.987,2.987,0,0,0-.709,1.723h4.087v-.106a2.66,2.66,0,0,0-.573-1.647,1.752,1.752,0,0,0-1.4-.586Zm6.289-1,.045,1.03a2.973,2.973,0,0,1,2.443-1.176q2.587,0,2.609,2.917v5.387h-1.4v-5.4a1.878,1.878,0,0,0-.4-1.3,1.616,1.616,0,0,0-1.233-.422,2.014,2.014,0,0,0-1.192.362,2.458,2.458,0,0,0-.8.95v5.814h-1.4V63.806Zm9.094-1.973v1.973h1.523v1.078H82.877v5.062a1.13,1.13,0,0,0,.2.735.858.858,0,0,0,.694.245,3.378,3.378,0,0,0,.663-.09v1.127a4.044,4.044,0,0,1-1.071.151,1.737,1.737,0,0,1-1.41-.565,2.43,2.43,0,0,1-.475-1.606V64.882H80V63.806h1.485V61.832Zm4.66,10.131h-1.4V63.806h1.4ZM86.036,61.642a.833.833,0,0,1,.208-.573.778.778,0,0,1,.614-.233.791.791,0,0,1,.619.233.824.824,0,0,1,.211.573.826.826,0,1,1-1.651,0Zm3.4,6.177a4.78,4.78,0,0,1,.89-3.02,3.028,3.028,0,0,1,4.6-.162V60.382h1.4V71.965H95.039l-.068-.875a2.841,2.841,0,0,1-2.33,1.03,2.787,2.787,0,0,1-2.311-1.162,4.834,4.834,0,0,1-.894-3.031Zm1.4.159a3.619,3.619,0,0,0,.573,2.172,1.852,1.852,0,0,0,1.584.784,2.035,2.035,0,0,0,1.938-1.192V65.993A2.051,2.051,0,0,0,93,64.839a1.862,1.862,0,0,0-1.6.792,3.984,3.984,0,0,0-.573,2.346Zm12.688,3.987a2.931,2.931,0,0,1-.2-.858A3.113,3.113,0,0,1,101,72.118a2.88,2.88,0,0,1-1.979-.686,2.208,2.208,0,0,1-.772-1.73,2.306,2.306,0,0,1,.969-1.979,4.569,4.569,0,0,1,2.726-.705H103.3v-.641a1.567,1.567,0,0,0-.438-1.165,1.758,1.758,0,0,0-1.287-.433,2.034,2.034,0,0,0-1.252.377,1.115,1.115,0,0,0-.505.912h-1.4a1.925,1.925,0,0,1,.433-1.18,2.959,2.959,0,0,1,1.176-.9,3.958,3.958,0,0,1,1.63-.332,3.225,3.225,0,0,1,2.209.705,2.543,2.543,0,0,1,.83,1.942v3.755a4.591,4.591,0,0,0,.287,1.787v.123ZM101.2,70.9a2.452,2.452,0,0,0,1.244-.343,2.052,2.052,0,0,0,.852-.882v-1.67h-1.093q-2.564,0-2.564,1.5a1.27,1.27,0,0,0,.438,1.03,1.681,1.681,0,0,0,1.127.366Zm5.339-3.084a4.78,4.78,0,0,1,.89-3.02,3.028,3.028,0,0,1,4.6-.162V60.382h1.4V71.965h-1.282l-.068-.875a2.841,2.841,0,0,1-2.33,1.03,2.787,2.787,0,0,1-2.311-1.162,4.834,4.834,0,0,1-.894-3.031Zm1.4.159a3.619,3.619,0,0,0,.573,2.172,1.852,1.852,0,0,0,1.584.784,2.035,2.035,0,0,0,1.938-1.192V65.993a2.05,2.05,0,0,0-1.923-1.154,1.862,1.862,0,0,0-1.6.792,3.984,3.984,0,0,0-.57,2.346Zm11.039,4.14a3.565,3.565,0,0,1-2.7-1.09,4.044,4.044,0,0,1-1.041-2.917v-.257a4.9,4.9,0,0,1,.464-2.168,3.618,3.618,0,0,1,1.3-1.493,3.26,3.26,0,0,1,1.8-.539,3.056,3.056,0,0,1,2.473,1.048,4.538,4.538,0,0,1,.882,3v.581h-5.527a2.9,2.9,0,0,0,.705,1.949,2.216,2.216,0,0,0,1.716.743,2.43,2.43,0,0,0,1.252-.3,3.146,3.146,0,0,0,.9-.8l.852.663a3.426,3.426,0,0,1-3.07,1.578Zm-.172-7.314a1.861,1.861,0,0,0-1.417.614,2.987,2.987,0,0,0-.709,1.723h4.086v-.106a2.66,2.66,0,0,0-.573-1.647,1.752,1.752,0,0,0-1.384-.585Zm9.72,5a1.03,1.03,0,0,0-.429-.879,4.1,4.1,0,0,0-1.485-.539,7.023,7.023,0,0,1-1.682-.543,2.392,2.392,0,0,1-.92-.754,1.8,1.8,0,0,1-.3-1.041,2.117,2.117,0,0,1,.849-1.7,3.312,3.312,0,0,1,2.168-.694,3.41,3.41,0,0,1,2.251.716,2.275,2.275,0,0,1,.863,1.833h-1.4a1.259,1.259,0,0,0-.486-.988,1.822,1.822,0,0,0-1.225-.414,1.907,1.907,0,0,0-1.192.332,1.044,1.044,0,0,0-.429.867.846.846,0,0,0,.4.762,4.917,4.917,0,0,0,1.444.49,7.524,7.524,0,0,1,1.693.558,2.469,2.469,0,0,1,.962.781,1.919,1.919,0,0,1,.313,1.115,2.088,2.088,0,0,1-.875,1.753,3.67,3.67,0,0,1-2.27.66,4.109,4.109,0,0,1-1.734-.343,2.821,2.821,0,0,1-1.18-.969,2.335,2.335,0,0,1-.429-1.346h1.4a1.444,1.444,0,0,0,.562,1.115,2.179,2.179,0,0,0,1.384.411,2.25,2.25,0,0,0,1.271-.321.985.985,0,0,0,.485-.866Zm7.505,2.164V64.884h-1.287V63.806h1.287v-.694a2.831,2.831,0,0,1,.781-2.127,3.027,3.027,0,0,1,2.206-.762,6.641,6.641,0,0,1,2.134.46l-.233,1.176a4.833,4.833,0,0,0-1.795-.377,1.756,1.756,0,0,0-1.293.4,1.663,1.663,0,0,0-.4,1.211V63.8H139.1v1.078h-1.666v7.082Zm5.814,0h-1.4V63.806h1.4Zm3.59-8.159.045,1.03a2.973,2.973,0,0,1,2.443-1.176q2.587,0,2.609,2.917v5.389h-1.4v-5.4a1.878,1.878,0,0,0-.4-1.3,1.616,1.616,0,0,0-1.233-.422,2.014,2.014,0,0,0-1.192.362,2.458,2.458,0,0,0-.8.95v5.814h-1.4V63.806Zm12.239,8.159a2.931,2.931,0,0,1-.2-.858,3.113,3.113,0,0,1-2.322,1.011,2.88,2.88,0,0,1-1.979-.686,2.207,2.207,0,0,1-.772-1.73,2.306,2.306,0,0,1,.969-1.979,4.569,4.569,0,0,1,2.726-.705h1.357v-.641a1.567,1.567,0,0,0-.438-1.165,1.758,1.758,0,0,0-1.287-.433,2.034,2.034,0,0,0-1.252.377,1.115,1.115,0,0,0-.505.912h-1.4a1.925,1.925,0,0,1,.433-1.18,2.96,2.96,0,0,1,1.176-.9,3.957,3.957,0,0,1,1.63-.332,3.225,3.225,0,0,1,2.209.705,2.543,2.543,0,0,1,.83,1.942v3.755a4.591,4.591,0,0,0,.287,1.787v.123ZM155.356,70.9a2.452,2.452,0,0,0,1.244-.343,2.052,2.052,0,0,0,.852-.882v-1.67h-1.093q-2.564,0-2.564,1.5a1.27,1.27,0,0,0,.438,1.03,1.681,1.681,0,0,0,1.125.366Zm7-7.1.045,1.03a2.973,2.973,0,0,1,2.443-1.176q2.587,0,2.609,2.917v5.389h-1.4v-5.4a1.878,1.878,0,0,0-.4-1.3,1.616,1.616,0,0,0-1.233-.422,2.014,2.014,0,0,0-1.192.362,2.458,2.458,0,0,0-.8.95v5.814h-1.4V63.806Zm10.474,7.171a2.009,2.009,0,0,0,1.3-.452,1.592,1.592,0,0,0,.619-1.133h1.32a2.53,2.53,0,0,1-.482,1.335,3.174,3.174,0,0,1-1.187,1.011,3.427,3.427,0,0,1-1.573.377A3.361,3.361,0,0,1,170.179,71a4.43,4.43,0,0,1-.984-3.042v-.233a4.912,4.912,0,0,1,.438-2.119,3.331,3.331,0,0,1,1.255-1.441,3.567,3.567,0,0,1,1.934-.515,3.272,3.272,0,0,1,2.281.822,2.938,2.938,0,0,1,.969,2.134h-1.32a1.923,1.923,0,0,0-.6-1.3,1.865,1.865,0,0,0-1.331-.509,1.953,1.953,0,0,0-1.647.765,3.6,3.6,0,0,0-.584,2.214v.264a3.523,3.523,0,0,0,.581,2.172,1.962,1.962,0,0,0,1.659.769Zm6.328.988h-1.4V63.806h1.4Zm-1.508-10.323a.833.833,0,0,1,.208-.573.778.778,0,0,1,.614-.233.791.791,0,0,1,.619.233.824.824,0,0,1,.211.573.826.826,0,1,1-1.652,0Zm7.126,10.474a3.565,3.565,0,0,1-2.7-1.09,4.044,4.044,0,0,1-1.041-2.917v-.257a4.9,4.9,0,0,1,.464-2.168,3.618,3.618,0,0,1,1.3-1.489,3.26,3.26,0,0,1,1.8-.539,3.056,3.056,0,0,1,2.474,1.048,4.538,4.538,0,0,1,.882,3v.581h-5.527a2.9,2.9,0,0,0,.705,1.949,2.216,2.216,0,0,0,1.716.743,2.43,2.43,0,0,0,1.252-.3,3.145,3.145,0,0,0,.9-.8l.852.663a3.426,3.426,0,0,1-3.074,1.574ZM184.6,64.8a1.861,1.861,0,0,0-1.417.614,2.987,2.987,0,0,0-.709,1.723h4.087v-.106a2.66,2.66,0,0,0-.573-1.647A1.752,1.752,0,0,0,184.6,64.8Zm8.913.257a4.181,4.181,0,0,0-.686-.053,1.839,1.839,0,0,0-1.863,1.169v5.79h-1.393V63.806h1.357l.022.944a2.172,2.172,0,0,1,1.946-1.093,1.425,1.425,0,0,1,.619.106Zm6.015,6.906a2.932,2.932,0,0,1-.2-.858,3.113,3.113,0,0,1-2.323,1.011,2.88,2.88,0,0,1-1.979-.686,2.208,2.208,0,0,1-.772-1.73,2.306,2.306,0,0,1,.969-1.979,4.569,4.569,0,0,1,2.726-.705h1.357v-.641a1.567,1.567,0,0,0-.438-1.165,1.758,1.758,0,0,0-1.287-.433,2.034,2.034,0,0,0-1.252.377,1.115,1.115,0,0,0-.505.912h-1.4a1.925,1.925,0,0,1,.433-1.18,2.959,2.959,0,0,1,1.176-.9,3.958,3.958,0,0,1,1.63-.332,3.225,3.225,0,0,1,2.209.705,2.543,2.543,0,0,1,.83,1.942v3.755a4.591,4.591,0,0,0,.287,1.787v.123ZM197.214,70.9a2.452,2.452,0,0,0,1.244-.343,2.052,2.052,0,0,0,.852-.882v-1.67h-1.093q-2.564,0-2.564,1.5a1.27,1.27,0,0,0,.438,1.03,1.681,1.681,0,0,0,1.125.366Zm10.429-1.1a1.03,1.03,0,0,0-.429-.879,4.1,4.1,0,0,0-1.485-.539,7.023,7.023,0,0,1-1.682-.543,2.392,2.392,0,0,1-.92-.754,1.8,1.8,0,0,1-.3-1.041,2.117,2.117,0,0,1,.849-1.7,3.313,3.313,0,0,1,2.168-.694,3.41,3.41,0,0,1,2.251.716,2.275,2.275,0,0,1,.863,1.833h-1.4a1.259,1.259,0,0,0-.486-.988,1.822,1.822,0,0,0-1.225-.414,1.907,1.907,0,0,0-1.192.332,1.044,1.044,0,0,0-.429.867.846.846,0,0,0,.4.762,4.917,4.917,0,0,0,1.444.49,7.524,7.524,0,0,1,1.693.558,2.469,2.469,0,0,1,.962.781,1.919,1.919,0,0,1,.313,1.115,2.088,2.088,0,0,1-.875,1.753,3.67,3.67,0,0,1-2.27.66,4.109,4.109,0,0,1-1.734-.343,2.821,2.821,0,0,1-1.18-.969,2.335,2.335,0,0,1-.429-1.346h1.4a1.444,1.444,0,0,0,.562,1.115,2.179,2.179,0,0,0,1.384.411,2.249,2.249,0,0,0,1.271-.321.985.985,0,0,0,.484-.866ZM7.531,121.8H2.772v3.891H8.3v1.184H1.324V115.892h6.9v1.192H2.772v3.529H7.531Zm3.673-3.084.045,1.03a2.973,2.973,0,0,1,2.443-1.176q2.587,0,2.609,2.917v5.389H14.9v-5.4a1.878,1.878,0,0,0-.4-1.3,1.616,1.616,0,0,0-1.233-.422,2.014,2.014,0,0,0-1.192.362,2.458,2.458,0,0,0-.8.95v5.814H9.883v-8.159Zm10.474,7.171a2.009,2.009,0,0,0,1.3-.452A1.592,1.592,0,0,0,23.6,124.3h1.32a2.53,2.53,0,0,1-.482,1.335,3.174,3.174,0,0,1-1.187,1.011,3.426,3.426,0,0,1-1.573.377,3.361,3.361,0,0,1-2.65-1.115,4.43,4.43,0,0,1-.984-3.042v-.233a4.912,4.912,0,0,1,.438-2.119,3.331,3.331,0,0,1,1.255-1.441,3.566,3.566,0,0,1,1.934-.515,3.272,3.272,0,0,1,2.281.822,2.938,2.938,0,0,1,.969,2.134H23.6a1.923,1.923,0,0,0-.6-1.3,1.865,1.865,0,0,0-1.331-.509,1.953,1.953,0,0,0-1.647.765,3.6,3.6,0,0,0-.584,2.214v.264a3.523,3.523,0,0,0,.581,2.172,1.962,1.962,0,0,0,1.659.769Zm9.848.988a2.931,2.931,0,0,1-.2-.858,3.113,3.113,0,0,1-2.323,1.011,2.88,2.88,0,0,1-1.979-.686,2.208,2.208,0,0,1-.772-1.73,2.306,2.306,0,0,1,.969-1.979,4.569,4.569,0,0,1,2.726-.705h1.357v-.641a1.567,1.567,0,0,0-.438-1.165,1.758,1.758,0,0,0-1.287-.433,2.034,2.034,0,0,0-1.252.377,1.115,1.115,0,0,0-.505.912H26.419a1.925,1.925,0,0,1,.433-1.18,2.959,2.959,0,0,1,1.176-.9,3.958,3.958,0,0,1,1.63-.332,3.225,3.225,0,0,1,2.209.705,2.543,2.543,0,0,1,.83,1.942v3.755a4.591,4.591,0,0,0,.287,1.787v.123Zm-2.316-1.063a2.452,2.452,0,0,0,1.244-.343,2.052,2.052,0,0,0,.852-.882v-1.674H30.212q-2.564,0-2.564,1.5a1.27,1.27,0,0,0,.438,1.03,1.681,1.681,0,0,0,1.123.369Zm9.621-5.844a4.181,4.181,0,0,0-.686-.053,1.839,1.839,0,0,0-1.863,1.169v5.792H34.887v-8.159h1.357l.022.944a2.172,2.172,0,0,1,1.946-1.093,1.425,1.425,0,0,1,.619.106Zm.95,2.76a4.8,4.8,0,0,1,.882-3.035,3.041,3.041,0,0,1,4.667-.071l.068-.905h1.274v7.963a3.319,3.319,0,0,1-.939,2.5,3.464,3.464,0,0,1-2.522.912,4.2,4.2,0,0,1-1.72-.38,2.973,2.973,0,0,1-1.287-1.03l.724-.837a2.728,2.728,0,0,0,2.195,1.108,2.137,2.137,0,0,0,1.587-.573,2.19,2.19,0,0,0,.57-1.614v-.7a2.867,2.867,0,0,1-2.285.965,2.787,2.787,0,0,1-2.316-1.154,5.041,5.041,0,0,1-.895-3.144Zm1.4.159a3.658,3.658,0,0,0,.565,2.168,1.838,1.838,0,0,0,1.584.788,2.044,2.044,0,0,0,1.938-1.2v-3.725a2.068,2.068,0,0,0-1.923-1.169,1.854,1.854,0,0,0-1.591.792,3.984,3.984,0,0,0-.572,2.347Zm7.224-.166a4.819,4.819,0,0,1,.471-2.157,3.518,3.518,0,0,1,1.312-1.478,3.572,3.572,0,0,1,1.919-.52,3.441,3.441,0,0,1,2.7,1.154,4.439,4.439,0,0,1,1.03,3.069v.1a4.861,4.861,0,0,1-.456,2.138,3.465,3.465,0,0,1-1.3,1.474,3.613,3.613,0,0,1-1.949.528,3.432,3.432,0,0,1-2.688-1.154,4.416,4.416,0,0,1-1.03-3.054Zm1.4.166a3.49,3.49,0,0,0,.63,2.179,2.134,2.134,0,0,0,3.374-.011,3.817,3.817,0,0,0,.625-2.334,3.484,3.484,0,0,0-.637-2.176,2.026,2.026,0,0,0-1.693-.833,2,2,0,0,0-1.666.822,3.789,3.789,0,0,0-.631,2.353Zm12.526,1.825a1.03,1.03,0,0,0-.429-.879,4.1,4.1,0,0,0-1.485-.539,7.024,7.024,0,0,1-1.682-.543,2.392,2.392,0,0,1-.92-.754,1.8,1.8,0,0,1-.3-1.041,2.117,2.117,0,0,1,.849-1.7,3.313,3.313,0,0,1,2.168-.694,3.41,3.41,0,0,1,2.251.716,2.275,2.275,0,0,1,.863,1.833h-1.4a1.259,1.259,0,0,0-.486-.988,1.822,1.822,0,0,0-1.225-.414,1.907,1.907,0,0,0-1.192.332,1.044,1.044,0,0,0-.429.867.846.846,0,0,0,.4.762,4.916,4.916,0,0,0,1.444.49,7.525,7.525,0,0,1,1.693.558,2.469,2.469,0,0,1,.962.781,1.919,1.919,0,0,1,.313,1.115,2.088,2.088,0,0,1-.875,1.753,3.67,3.67,0,0,1-2.27.66,4.109,4.109,0,0,1-1.734-.343,2.821,2.821,0,0,1-1.18-.969,2.335,2.335,0,0,1-.429-1.346h1.4a1.444,1.444,0,0,0,.562,1.115,2.179,2.179,0,0,0,1.384.411,2.25,2.25,0,0,0,1.271-.321.985.985,0,0,0,.483-.866Zm7.5,2.164v-7.081H68.552v-1.078h1.287v-.694a2.831,2.831,0,0,1,.781-2.127,3.027,3.027,0,0,1,2.206-.762,6.641,6.641,0,0,1,2.134.46l-.233,1.176a4.832,4.832,0,0,0-1.795-.377,1.756,1.756,0,0,0-1.293.4,1.663,1.663,0,0,0-.4,1.211v.709h1.665v1.078H71.242v7.082Zm5.814,0h-1.4v-8.159h1.4Zm1.93-4.147a4.78,4.78,0,0,1,.89-3.02,3.028,3.028,0,0,1,4.6-.162v-4.253h1.4v11.582H83.186L83.119,126a2.841,2.841,0,0,1-2.33,1.03,2.787,2.787,0,0,1-2.311-1.162,4.834,4.834,0,0,1-.894-3.031Zm1.4.159a3.619,3.619,0,0,0,.573,2.172,1.852,1.852,0,0,0,1.584.784,2.035,2.035,0,0,0,1.938-1.192V120.9a2.051,2.051,0,0,0-1.923-1.154,1.862,1.862,0,0,0-1.6.792,3.984,3.984,0,0,0-.57,2.346Zm12.691,3.182a2.963,2.963,0,0,1-2.391.957,2.536,2.536,0,0,1-1.987-.758,3.28,3.28,0,0,1-.686-2.244v-5.309H88v5.271q0,1.855,1.508,1.855a2.088,2.088,0,0,0,2.127-1.192v-5.935h1.4v8.159H91.7Zm6.749-.181a2.009,2.009,0,0,0,1.3-.452,1.592,1.592,0,0,0,.619-1.131h1.32a2.53,2.53,0,0,1-.482,1.335,3.174,3.174,0,0,1-1.187,1.011,3.426,3.426,0,0,1-1.573.377,3.361,3.361,0,0,1-2.65-1.115,4.43,4.43,0,0,1-.984-3.042v-.233a4.912,4.912,0,0,1,.438-2.119,3.331,3.331,0,0,1,1.255-1.441,3.567,3.567,0,0,1,1.934-.515,3.272,3.272,0,0,1,2.281.822,2.938,2.938,0,0,1,.969,2.134h-1.32a1.923,1.923,0,0,0-.6-1.3,1.865,1.865,0,0,0-1.331-.509,1.953,1.953,0,0,0-1.647.765,3.6,3.6,0,0,0-.584,2.214v.264a3.523,3.523,0,0,0,.581,2.172,1.962,1.962,0,0,0,1.658.765Zm6.327.988h-1.4v-8.159h1.4Zm-1.508-10.323a.833.833,0,0,1,.208-.573.778.778,0,0,1,.614-.233.791.791,0,0,1,.619.233.824.824,0,0,1,.211.573.826.826,0,1,1-1.651,0Zm8.778,10.323a2.931,2.931,0,0,1-.2-.858,3.113,3.113,0,0,1-2.322,1.011,2.88,2.88,0,0,1-1.979-.686,2.208,2.208,0,0,1-.772-1.73,2.306,2.306,0,0,1,.969-1.979,4.569,4.569,0,0,1,2.726-.705H111.8v-.641a1.567,1.567,0,0,0-.438-1.165,1.758,1.758,0,0,0-1.287-.433,2.034,2.034,0,0,0-1.252.377,1.115,1.115,0,0,0-.505.912h-1.4a1.925,1.925,0,0,1,.433-1.18,2.959,2.959,0,0,1,1.176-.9,3.958,3.958,0,0,1,1.63-.332,3.225,3.225,0,0,1,2.209.705,2.543,2.543,0,0,1,.83,1.942v3.755a4.591,4.591,0,0,0,.287,1.787v.123Zm-2.316-1.063a2.452,2.452,0,0,0,1.244-.343,2.052,2.052,0,0,0,.852-.882v-1.674H110.7q-2.564,0-2.564,1.5a1.27,1.27,0,0,0,.438,1.03,1.681,1.681,0,0,0,1.123.369Zm9.622-5.844a4.181,4.181,0,0,0-.686-.053,1.839,1.839,0,0,0-1.863,1.169v5.792h-1.393v-8.159h1.356l.022.944a2.172,2.172,0,0,1,1.946-1.093,1.425,1.425,0,0,1,.619.106Zm2.8,6.907h-1.4v-8.159h1.4Zm-1.508-10.323a.833.833,0,0,1,.208-.573.778.778,0,0,1,.614-.233.791.791,0,0,1,.619.233.824.824,0,0,1,.211.573.826.826,0,1,1-1.651,0Zm3.371,6.168a4.819,4.819,0,0,1,.471-2.157,3.517,3.517,0,0,1,1.312-1.478,3.572,3.572,0,0,1,1.919-.52,3.44,3.44,0,0,1,2.7,1.154,4.439,4.439,0,0,1,1.03,3.069v.1a4.861,4.861,0,0,1-.456,2.138,3.465,3.465,0,0,1-1.3,1.474,3.613,3.613,0,0,1-1.949.528,3.432,3.432,0,0,1-2.688-1.154,4.416,4.416,0,0,1-1.03-3.054Zm1.4.166a3.49,3.49,0,0,0,.63,2.179,2.134,2.134,0,0,0,3.374-.011,3.817,3.817,0,0,0,.625-2.334,3.484,3.484,0,0,0-.637-2.176,2.026,2.026,0,0,0-1.693-.833,2,2,0,0,0-1.666.822,3.789,3.789,0,0,0-.633,2.353Zm12.526,1.825a1.03,1.03,0,0,0-.429-.879,4.1,4.1,0,0,0-1.485-.539,7.023,7.023,0,0,1-1.682-.543,2.392,2.392,0,0,1-.92-.754,1.8,1.8,0,0,1-.3-1.041,2.117,2.117,0,0,1,.849-1.7,3.313,3.313,0,0,1,2.168-.694,3.41,3.41,0,0,1,2.251.716,2.275,2.275,0,0,1,.863,1.833h-1.4a1.259,1.259,0,0,0-.486-.988,1.822,1.822,0,0,0-1.225-.414,1.907,1.907,0,0,0-1.192.332,1.044,1.044,0,0,0-.429.867.846.846,0,0,0,.4.762,4.917,4.917,0,0,0,1.444.49,7.524,7.524,0,0,1,1.693.558,2.469,2.469,0,0,1,.962.781,1.919,1.919,0,0,1,.313,1.115,2.088,2.088,0,0,1-.875,1.753,3.669,3.669,0,0,1-2.27.66,4.108,4.108,0,0,1-1.734-.343,2.821,2.821,0,0,1-1.18-.969,2.335,2.335,0,0,1-.429-1.346h1.4a1.444,1.444,0,0,0,.562,1.115,2.179,2.179,0,0,0,1.384.411,2.249,2.249,0,0,0,1.271-.321.985.985,0,0,0,.481-.865ZM2.881,181.784H1.43V170.8H2.881Zm3.748-8.159.045,1.03a2.973,2.973,0,0,1,2.443-1.176q2.587,0,2.609,2.917v5.389h-1.4v-5.4a1.878,1.878,0,0,0-.4-1.3,1.616,1.616,0,0,0-1.233-.422,2.014,2.014,0,0,0-1.192.362,2.458,2.458,0,0,0-.8.95v5.814H5.306v-8.159Zm7.884,8.159V174.7H13.226v-1.078h1.287v-.837a2.778,2.778,0,0,1,.7-2.028,2.649,2.649,0,0,1,1.984-.716,3.66,3.66,0,0,1,.957.128l-.076,1.131a4.007,4.007,0,0,0-.754-.068,1.363,1.363,0,0,0-1.048.4,1.6,1.6,0,0,0-.37,1.135v.858h1.742V174.7H15.907v7.083Zm4.306-4.155a4.819,4.819,0,0,1,.471-2.157,3.518,3.518,0,0,1,1.312-1.478,3.572,3.572,0,0,1,1.919-.52,3.44,3.44,0,0,1,2.7,1.154,4.439,4.439,0,0,1,1.03,3.069v.1a4.861,4.861,0,0,1-.457,2.138,3.464,3.464,0,0,1-1.3,1.474,3.613,3.613,0,0,1-1.949.528,3.432,3.432,0,0,1-2.688-1.154,4.416,4.416,0,0,1-1.03-3.054Zm1.4.166a3.49,3.49,0,0,0,.63,2.179,2.134,2.134,0,0,0,3.374-.011,3.817,3.817,0,0,0,.625-2.334,3.484,3.484,0,0,0-.637-2.176,2.026,2.026,0,0,0-1.693-.833,2,2,0,0,0-1.666.822,3.789,3.789,0,0,0-.633,2.353Zm11.718-2.917a4.183,4.183,0,0,0-.686-.053,1.839,1.839,0,0,0-1.861,1.169v5.791H28v-8.159h1.357l.022.944a2.172,2.172,0,0,1,1.946-1.093,1.425,1.425,0,0,1,.619.106Zm2.594-1.252.038.905a3.013,3.013,0,0,1,2.42-1.055,2.333,2.333,0,0,1,2.33,1.312,3.088,3.088,0,0,1,1.06-.95,3.129,3.129,0,0,1,1.544-.362q2.685,0,2.73,2.842v5.466h-1.4V176.4a1.874,1.874,0,0,0-.4-1.308,1.76,1.76,0,0,0-1.342-.433,1.85,1.85,0,0,0-1.287.464,1.881,1.881,0,0,0-.6,1.248v5.413H38.229v-5.346a1.556,1.556,0,0,0-1.742-1.779,1.866,1.866,0,0,0-1.877,1.169v5.957h-1.4v-8.159Zm15.609,8.31a3.565,3.565,0,0,1-2.7-1.09,4.044,4.044,0,0,1-1.041-2.917v-.257a4.9,4.9,0,0,1,.464-2.168,3.618,3.618,0,0,1,1.3-1.493,3.26,3.26,0,0,1,1.8-.539,3.056,3.056,0,0,1,2.474,1.048,4.538,4.538,0,0,1,.882,3v.581H47.8a2.9,2.9,0,0,0,.705,1.949,2.216,2.216,0,0,0,1.716.743,2.43,2.43,0,0,0,1.252-.3,3.145,3.145,0,0,0,.9-.8l.852.663a3.426,3.426,0,0,1-3.077,1.577Zm-.172-7.314a1.861,1.861,0,0,0-1.417.614,2.987,2.987,0,0,0-.709,1.723h4.087v-.106a2.66,2.66,0,0,0-.573-1.647,1.752,1.752,0,0,0-1.389-.586Zm9.72,5a1.03,1.03,0,0,0-.429-.879,4.1,4.1,0,0,0-1.485-.539,7.024,7.024,0,0,1-1.682-.543,2.392,2.392,0,0,1-.92-.754,1.8,1.8,0,0,1-.3-1.041,2.117,2.117,0,0,1,.849-1.7,3.313,3.313,0,0,1,2.168-.694,3.41,3.41,0,0,1,2.251.716,2.275,2.275,0,0,1,.863,1.833h-1.4a1.259,1.259,0,0,0-.486-.988,1.822,1.822,0,0,0-1.225-.414,1.907,1.907,0,0,0-1.192.332,1.044,1.044,0,0,0-.429.867.846.846,0,0,0,.4.762,4.917,4.917,0,0,0,1.444.49,7.524,7.524,0,0,1,1.693.558,2.469,2.469,0,0,1,.962.781,1.919,1.919,0,0,1,.313,1.115,2.088,2.088,0,0,1-.875,1.753,3.67,3.67,0,0,1-2.27.66,4.108,4.108,0,0,1-1.734-.343,2.821,2.821,0,0,1-1.18-.969,2.335,2.335,0,0,1-.429-1.346h1.4a1.444,1.444,0,0,0,.562,1.115,2.179,2.179,0,0,0,1.384.411,2.249,2.249,0,0,0,1.271-.321.985.985,0,0,0,.48-.867Zm10.421,2.316a3.565,3.565,0,0,1-2.7-1.09,4.044,4.044,0,0,1-1.041-2.917v-.257a4.9,4.9,0,0,1,.464-2.168,3.618,3.618,0,0,1,1.3-1.493,3.26,3.26,0,0,1,1.8-.539,3.056,3.056,0,0,1,2.473,1.048,4.538,4.538,0,0,1,.882,3v.581H67.765a2.9,2.9,0,0,0,.705,1.949,2.216,2.216,0,0,0,1.716.743,2.43,2.43,0,0,0,1.252-.3,3.145,3.145,0,0,0,.9-.8l.852.663a3.426,3.426,0,0,1-3.077,1.575Zm-.172-7.314a1.861,1.861,0,0,0-1.417.614,2.988,2.988,0,0,0-.709,1.723H71.9v-.106a2.66,2.66,0,0,0-.573-1.647,1.752,1.752,0,0,0-1.391-.588Zm6.289-1,.045,1.03a2.973,2.973,0,0,1,2.443-1.176q2.587,0,2.609,2.917v5.385h-1.4v-5.4a1.878,1.878,0,0,0-.4-1.3,1.616,1.616,0,0,0-1.233-.422,2.014,2.014,0,0,0-1.192.362,2.458,2.458,0,0,0-.8.95v5.814H74.906v-8.159Zm12.535,8.156h-1.4v-8.159h1.4Zm-1.508-10.323a.833.833,0,0,1,.208-.573.778.778,0,0,1,.614-.233.791.791,0,0,1,.619.233.824.824,0,0,1,.211.573.824.824,0,1,1-1.648,0Zm5.062,2.164.045,1.03a2.973,2.973,0,0,1,2.443-1.176q2.587,0,2.609,2.917v5.389h-1.4v-5.4a1.878,1.878,0,0,0-.4-1.3,1.616,1.616,0,0,0-1.233-.422,2.014,2.014,0,0,0-1.192.362,2.458,2.458,0,0,0-.8.95v5.814h-1.4v-8.159Zm11.952,5.995a1.03,1.03,0,0,0-.429-.879,4.1,4.1,0,0,0-1.485-.539,7.023,7.023,0,0,1-1.682-.543,2.392,2.392,0,0,1-.92-.754,1.8,1.8,0,0,1-.3-1.041,2.117,2.117,0,0,1,.849-1.7,3.312,3.312,0,0,1,2.168-.694,3.41,3.41,0,0,1,2.251.716,2.275,2.275,0,0,1,.863,1.833h-1.4a1.259,1.259,0,0,0-.486-.988,1.822,1.822,0,0,0-1.225-.414,1.907,1.907,0,0,0-1.192.332,1.044,1.044,0,0,0-.429.867.846.846,0,0,0,.4.762,4.917,4.917,0,0,0,1.444.49,7.524,7.524,0,0,1,1.693.558,2.469,2.469,0,0,1,.962.781,1.919,1.919,0,0,1,.313,1.115,2.088,2.088,0,0,1-.875,1.753,3.67,3.67,0,0,1-2.27.66,4.109,4.109,0,0,1-1.734-.343,2.821,2.821,0,0,1-1.18-.969,2.335,2.335,0,0,1-.429-1.346h1.4a1.444,1.444,0,0,0,.562,1.115,2.179,2.179,0,0,0,1.384.411,2.249,2.249,0,0,0,1.271-.321.985.985,0,0,0,.483-.865Zm5.1-7.97v1.973H110.9V174.7h-1.523v5.062a1.13,1.13,0,0,0,.2.735.858.858,0,0,0,.694.245,3.378,3.378,0,0,0,.663-.09v1.131a4.045,4.045,0,0,1-1.071.151,1.737,1.737,0,0,1-1.41-.565,2.43,2.43,0,0,1-.475-1.606V174.7h-1.485v-1.077h1.487v-1.973Zm7.1,3.228a4.183,4.183,0,0,0-.686-.053,1.839,1.839,0,0,0-1.863,1.169v5.792h-1.392v-8.159h1.357l.022.944a2.172,2.172,0,0,1,1.946-1.093,1.425,1.425,0,0,1,.619.106Zm6.319,6.1a2.963,2.963,0,0,1-2.39.957,2.536,2.536,0,0,1-1.987-.758,3.28,3.28,0,0,1-.686-2.244v-5.308h1.4V178.9q0,1.855,1.508,1.855a2.088,2.088,0,0,0,2.127-1.192v-5.935h1.4v8.159h-1.327Zm4.788-7.352.038.905a3.013,3.013,0,0,1,2.42-1.055,2.333,2.333,0,0,1,2.33,1.312,3.089,3.089,0,0,1,1.06-.95,3.129,3.129,0,0,1,1.544-.362q2.685,0,2.73,2.842v5.467h-1.4V176.4a1.874,1.874,0,0,0-.4-1.308,1.76,1.76,0,0,0-1.342-.433,1.85,1.85,0,0,0-1.287.464,1.881,1.881,0,0,0-.6,1.248v5.413h-1.4v-5.346a1.556,1.556,0,0,0-1.742-1.779,1.866,1.866,0,0,0-1.877,1.169v5.957h-1.4v-8.159Zm15.609,8.31a3.565,3.565,0,0,1-2.7-1.09,4.044,4.044,0,0,1-1.041-2.917v-.257a4.9,4.9,0,0,1,.464-2.168,3.618,3.618,0,0,1,1.3-1.493,3.26,3.26,0,0,1,1.8-.539,3.056,3.056,0,0,1,2.474,1.048,4.538,4.538,0,0,1,.882,3v.581h-5.524a2.9,2.9,0,0,0,.705,1.949,2.216,2.216,0,0,0,1.716.743,2.43,2.43,0,0,0,1.252-.3,3.146,3.146,0,0,0,.9-.8l.852.663a3.426,3.426,0,0,1-3.077,1.578Zm-.172-7.314a1.861,1.861,0,0,0-1.417.614,2.988,2.988,0,0,0-.709,1.723h4.087v-.106a2.66,2.66,0,0,0-.573-1.647,1.752,1.752,0,0,0-1.389-.585Zm6.289-1,.045,1.03a2.973,2.973,0,0,1,2.443-1.176q2.587,0,2.609,2.917v5.388h-1.4v-5.4a1.878,1.878,0,0,0-.4-1.3,1.616,1.616,0,0,0-1.233-.422,2.014,2.014,0,0,0-1.192.362,2.458,2.458,0,0,0-.8.95v5.814h-1.4v-8.159Zm9.094-1.973v1.973h1.523V174.7H158.4v5.062a1.13,1.13,0,0,0,.2.735.858.858,0,0,0,.694.245,3.379,3.379,0,0,0,.663-.09v1.127a4.045,4.045,0,0,1-1.071.151,1.737,1.737,0,0,1-1.411-.565,2.43,2.43,0,0,1-.475-1.606V174.7h-1.489v-1.077H157v-1.973Zm2.631,5.98a4.819,4.819,0,0,1,.471-2.157A3.518,3.518,0,0,1,162.812,174a3.572,3.572,0,0,1,1.919-.52,3.44,3.44,0,0,1,2.7,1.154,4.439,4.439,0,0,1,1.03,3.069v.1a4.861,4.861,0,0,1-.456,2.138,3.465,3.465,0,0,1-1.3,1.474,3.613,3.613,0,0,1-1.949.528,3.432,3.432,0,0,1-2.688-1.154,4.416,4.416,0,0,1-1.03-3.054Zm1.4.166a3.49,3.49,0,0,0,.63,2.179,2.134,2.134,0,0,0,3.374-.011,3.817,3.817,0,0,0,.625-2.334,3.484,3.484,0,0,0-.637-2.176,2.026,2.026,0,0,0-1.693-.833,2,2,0,0,0-1.666.822,3.789,3.789,0,0,0-.634,2.35Zm12.526,1.825a1.03,1.03,0,0,0-.429-.879,4.1,4.1,0,0,0-1.485-.539,7.024,7.024,0,0,1-1.682-.543,2.392,2.392,0,0,1-.92-.754,1.8,1.8,0,0,1-.3-1.041,2.117,2.117,0,0,1,.849-1.7,3.313,3.313,0,0,1,2.168-.694,3.41,3.41,0,0,1,2.251.716,2.275,2.275,0,0,1,.863,1.833h-1.4a1.26,1.26,0,0,0-.486-.988,1.822,1.822,0,0,0-1.225-.414,1.907,1.907,0,0,0-1.192.332,1.044,1.044,0,0,0-.429.867.846.846,0,0,0,.4.762,4.917,4.917,0,0,0,1.444.49,7.524,7.524,0,0,1,1.693.558,2.469,2.469,0,0,1,.962.781,1.919,1.919,0,0,1,.313,1.115,2.088,2.088,0,0,1-.875,1.753,3.67,3.67,0,0,1-2.27.66,4.109,4.109,0,0,1-1.734-.343,2.821,2.821,0,0,1-1.18-.969,2.335,2.335,0,0,1-.429-1.346h1.4a1.444,1.444,0,0,0,.562,1.115,2.179,2.179,0,0,0,1.384.411,2.25,2.25,0,0,0,1.271-.321.985.985,0,0,0,.48-.868Zm6.692-1.984a4.78,4.78,0,0,1,.89-3.02,3.028,3.028,0,0,1,4.6-.162V170.2h1.4v11.582h-1.278l-.068-.875a2.841,2.841,0,0,1-2.33,1.03,2.787,2.787,0,0,1-2.311-1.162,4.834,4.834,0,0,1-.894-3.031Zm1.4.159a3.619,3.619,0,0,0,.573,2.172,1.852,1.852,0,0,0,1.584.784,2.035,2.035,0,0,0,1.938-1.192v-3.748a2.051,2.051,0,0,0-1.923-1.154,1.862,1.862,0,0,0-1.6.792,3.984,3.984,0,0,0-.572,2.343Zm11.039,4.14a3.565,3.565,0,0,1-2.7-1.09,4.044,4.044,0,0,1-1.041-2.917v-.257a4.9,4.9,0,0,1,.464-2.168,3.618,3.618,0,0,1,1.3-1.493,3.26,3.26,0,0,1,1.8-.539,3.056,3.056,0,0,1,2.473,1.048,4.538,4.538,0,0,1,.882,3v.581h-5.527a2.9,2.9,0,0,0,.705,1.949,2.216,2.216,0,0,0,1.716.743,2.43,2.43,0,0,0,1.252-.3,3.145,3.145,0,0,0,.9-.8l.852.663a3.426,3.426,0,0,1-3.072,1.575Zm-.172-7.314a1.861,1.861,0,0,0-1.417.614,2.987,2.987,0,0,0-.709,1.723h4.087v-.106a2.659,2.659,0,0,0-.573-1.647,1.752,1.752,0,0,0-1.388-.588Zm8.453,3.017a4.78,4.78,0,0,1,.89-3.02,3.028,3.028,0,0,1,4.6-.162V170.2h1.4v11.582h-1.282l-.068-.875a2.841,2.841,0,0,1-2.33,1.03,2.787,2.787,0,0,1-2.311-1.162,4.834,4.834,0,0,1-.894-3.031Zm1.4.159a3.619,3.619,0,0,0,.573,2.171,1.852,1.852,0,0,0,1.584.784,2.035,2.035,0,0,0,1.938-1.192v-3.748a2.051,2.051,0,0,0-1.923-1.154,1.862,1.862,0,0,0-1.6.792,3.984,3.984,0,0,0-.574,2.342Zm11.039,4.14a3.565,3.565,0,0,1-2.7-1.09,4.044,4.044,0,0,1-1.041-2.917v-.257a4.9,4.9,0,0,1,.464-2.168,3.618,3.618,0,0,1,1.3-1.493,3.26,3.26,0,0,1,1.8-.539,3.056,3.056,0,0,1,2.473,1.048,4.538,4.538,0,0,1,.882,3v.581h-5.524a2.9,2.9,0,0,0,.705,1.949,2.216,2.216,0,0,0,1.716.743,2.43,2.43,0,0,0,1.252-.3,3.145,3.145,0,0,0,.9-.8l.852.663a3.426,3.426,0,0,1-3.08,1.574Zm-.172-7.314a1.861,1.861,0,0,0-1.417.614,2.987,2.987,0,0,0-.709,1.723h4.087v-.106a2.66,2.66,0,0,0-.573-1.647,1.752,1.752,0,0,0-1.392-.589Zm10.006,6.357a2.963,2.963,0,0,1-2.39.957,2.536,2.536,0,0,1-1.987-.758,3.28,3.28,0,0,1-.686-2.244v-5.312h1.4V178.9q0,1.855,1.508,1.855a2.088,2.088,0,0,0,2.127-1.192v-5.935H226v8.159h-1.333Zm3.137-3.341a4.78,4.78,0,0,1,.89-3.02,3.028,3.028,0,0,1,4.6-.162V170.2h1.4v11.582h-1.282l-.068-.875a2.841,2.841,0,0,1-2.33,1.03,2.787,2.787,0,0,1-2.311-1.162,4.834,4.834,0,0,1-.894-3.031Zm1.4.159a3.619,3.619,0,0,0,.573,2.171,1.852,1.852,0,0,0,1.584.784,2.035,2.035,0,0,0,1.938-1.192v-3.748a2.051,2.051,0,0,0-1.923-1.154,1.862,1.862,0,0,0-1.6.792,3.984,3.984,0,0,0-.576,2.342Zm12.689,3.985a2.932,2.932,0,0,1-.2-.858,3.113,3.113,0,0,1-2.322,1.011,2.88,2.88,0,0,1-1.979-.686,2.207,2.207,0,0,1-.772-1.73,2.306,2.306,0,0,1,.969-1.979,4.568,4.568,0,0,1,2.726-.705h1.357v-.641a1.567,1.567,0,0,0-.438-1.165,1.758,1.758,0,0,0-1.287-.433,2.034,2.034,0,0,0-1.252.377,1.115,1.115,0,0,0-.505.912h-1.4a1.925,1.925,0,0,1,.433-1.18,2.96,2.96,0,0,1,1.176-.9,3.958,3.958,0,0,1,1.63-.332,3.225,3.225,0,0,1,2.209.705,2.543,2.543,0,0,1,.83,1.942v3.755a4.592,4.592,0,0,0,.287,1.787v.123Zm-2.316-1.063a2.452,2.452,0,0,0,1.244-.343,2.052,2.052,0,0,0,.852-.882v-1.674h-1.091q-2.564,0-2.564,1.5a1.27,1.27,0,0,0,.438,1.03,1.681,1.681,0,0,0,1.123.369ZM6.723,233.813a1.161,1.161,0,0,0-.452-.984,5.934,5.934,0,0,0-1.63-.724,11.546,11.546,0,0,1-1.863-.751,3.043,3.043,0,0,1-1.87-2.726,2.651,2.651,0,0,1,.5-1.587,3.271,3.271,0,0,1,1.441-1.09,5.42,5.42,0,0,1,2.108-.392,4.934,4.934,0,0,1,2.1.429,3.338,3.338,0,0,1,1.429,1.2,3.147,3.147,0,0,1,.509,1.765H6.731a1.481,1.481,0,0,0-.475-1.173,1.953,1.953,0,0,0-1.335-.419,2.087,2.087,0,0,0-1.287.351,1.106,1.106,0,0,0-.46.924,1.06,1.06,0,0,0,.539.9,6.091,6.091,0,0,0,1.587.679,6.858,6.858,0,0,1,2.815,1.442A2.868,2.868,0,0,1,9,233.8a2.643,2.643,0,0,1-1.078,2.236,4.719,4.719,0,0,1-2.9.811,5.606,5.606,0,0,1-2.307-.464,3.652,3.652,0,0,1-1.587-1.271,3.254,3.254,0,0,1-.547-1.87H2.84q0,1.817,2.171,1.817a2.112,2.112,0,0,0,1.259-.328,1.067,1.067,0,0,0,.452-.919Zm8.544,2.051a2.733,2.733,0,0,1-2.231.981,2.574,2.574,0,0,1-2-.752,3.219,3.219,0,0,1-.705-2.209v-5.349h2.179v5.271q0,1.274,1.162,1.274a1.574,1.574,0,0,0,1.523-.772v-5.773h2.19v8.159H15.328Zm11.107-3.174a4.94,4.94,0,0,1-.837,3.058,2.772,2.772,0,0,1-2.338,1.1,2.547,2.547,0,0,1-2.119-1.018l-.1.867H19.022V225.111H21.2v4.155a2.482,2.482,0,0,1,1.984-.882,2.8,2.8,0,0,1,2.341,1.1,4.948,4.948,0,0,1,.849,3.089Zm-2.179-.159a3.246,3.246,0,0,0-.392-1.8,1.326,1.326,0,0,0-1.169-.57,1.438,1.438,0,0,0-1.433.852v3.22a1.459,1.459,0,0,0,1.448.858,1.345,1.345,0,0,0,1.387-1.041,5.368,5.368,0,0,0,.159-1.519Zm6.131-6.006v2.006h1.4v1.6h-1.4v4.075a.972.972,0,0,0,.172.649.871.871,0,0,0,.663.2A3.477,3.477,0,0,0,31.8,235v1.652a4.487,4.487,0,0,1-1.32.2,2.081,2.081,0,0,1-2.338-2.317v-4.4H26.955v-1.6h1.192v-2.006Zm2.044,6.006a4.839,4.839,0,0,1,.468-2.164,3.422,3.422,0,0,1,1.346-1.471,3.927,3.927,0,0,1,2.039-.52,3.715,3.715,0,0,1,2.7,1.011,4.056,4.056,0,0,1,1.165,2.745l.015.558A4.264,4.264,0,0,1,39.05,235.7a4.062,4.062,0,0,1-5.629,0,4.34,4.34,0,0,1-1.052-3.077Zm2.179.159a3.041,3.041,0,0,0,.438,1.776,1.573,1.573,0,0,0,2.488.008,3.328,3.328,0,0,0,.445-1.942,3.011,3.011,0,0,0-.445-1.765,1.446,1.446,0,0,0-1.252-.625,1.423,1.423,0,0,0-1.236.622,3.384,3.384,0,0,0-.438,1.933Zm9.5-6.168v2.006h1.4v1.6h-1.4v4.079a.972.972,0,0,0,.172.649.871.871,0,0,0,.663.2,3.477,3.477,0,0,0,.641-.053v1.652a4.487,4.487,0,0,1-1.32.2,2.081,2.081,0,0,1-2.338-2.317v-4.4H40.679v-1.6H41.87v-2.006Zm7.337,10.171a2.42,2.42,0,0,1-.219-.732,2.637,2.637,0,0,1-2.059.882,2.9,2.9,0,0,1-1.987-.694,2.231,2.231,0,0,1-.788-1.749,2.305,2.305,0,0,1,.962-1.99,4.744,4.744,0,0,1,2.779-.7h1v-.468a1.344,1.344,0,0,0-.29-.905,1.142,1.142,0,0,0-.916-.343,1.3,1.3,0,0,0-.863.264.9.9,0,0,0-.313.724H46.516a2.189,2.189,0,0,1,.438-1.312,2.891,2.891,0,0,1,1.236-.944,4.507,4.507,0,0,1,1.795-.343,3.56,3.56,0,0,1,2.395.758,2.651,2.651,0,0,1,.886,2.13v3.536a3.9,3.9,0,0,0,.324,1.757v.13Zm-1.8-1.516a1.877,1.877,0,0,0,.89-.214,1.411,1.411,0,0,0,.6-.577v-1.4h-.814q-1.636,0-1.742,1.131l-.008.128a.873.873,0,0,0,.287.671,1.115,1.115,0,0,0,.786.264Zm7.653,1.516H55.051V225.111h2.187Zm9.4.151a4,4,0,0,1-2.922-1.1,3.913,3.913,0,0,1-1.127-2.933V232.6a4.929,4.929,0,0,1,.475-2.2,3.487,3.487,0,0,1,1.346-1.493,3.775,3.775,0,0,1,1.987-.524,3.386,3.386,0,0,1,2.636,1.055,4.29,4.29,0,0,1,.962,2.993v.89h-5.2a2.025,2.025,0,0,0,.637,1.282,1.926,1.926,0,0,0,1.346.483,2.353,2.353,0,0,0,1.968-.912l1.071,1.2a3.271,3.271,0,0,1-1.327,1.082,4.355,4.355,0,0,1-1.856.386Zm-.249-6.692a1.365,1.365,0,0,0-1.052.438,2.26,2.26,0,0,0-.515,1.252h3.031v-.172a1.611,1.611,0,0,0-.392-1.12,1.409,1.409,0,0,0-1.072-.4Zm5.437,6.541v-6.56H70.608v-1.6h1.214v-.694a2.817,2.817,0,0,1,.788-2.13,3.052,3.052,0,0,1,2.206-.758,5.092,5.092,0,0,1,1.108.151l-.022,1.689a2.777,2.777,0,0,0-.663-.068q-1.229,0-1.229,1.154v.656H75.63v1.6H74.006v6.56Zm8.695.151a4,4,0,0,1-2.922-1.1,3.913,3.913,0,0,1-1.127-2.933V232.6a4.929,4.929,0,0,1,.475-2.2,3.487,3.487,0,0,1,1.346-1.493,3.775,3.775,0,0,1,1.987-.524,3.386,3.386,0,0,1,2.636,1.055,4.29,4.29,0,0,1,.962,2.993v.89h-5.2a2.025,2.025,0,0,0,.637,1.282,1.926,1.926,0,0,0,1.346.483,2.353,2.353,0,0,0,1.968-.912l1.071,1.2a3.271,3.271,0,0,1-1.327,1.082,4.355,4.355,0,0,1-1.856.386Zm-.249-6.692a1.365,1.365,0,0,0-1.052.438,2.26,2.26,0,0,0-.515,1.252h3.027v-.172a1.611,1.611,0,0,0-.392-1.12,1.409,1.409,0,0,0-1.066-.4Zm8.236,4.939a1.43,1.43,0,0,0,.981-.332,1.163,1.163,0,0,0,.392-.882H91.92a2.8,2.8,0,0,1-.452,1.519,2.986,2.986,0,0,1-1.217,1.071,3.81,3.81,0,0,1-1.708.381,3.543,3.543,0,0,1-2.76-1.115,4.4,4.4,0,0,1-1.011-3.073v-.143a4.351,4.351,0,0,1,1-3.009,3.5,3.5,0,0,1,2.752-1.124,3.432,3.432,0,0,1,2.455.871,3.083,3.083,0,0,1,.939,2.317H89.878a1.485,1.485,0,0,0-.392-1.03,1.459,1.459,0,0,0-2.145.159,3.208,3.208,0,0,0-.389,1.8v.226a3.248,3.248,0,0,0,.384,1.809,1.33,1.33,0,0,0,1.169.549Zm7.27-8.559v2.006h1.4v1.6h-1.4v4.068a.972.972,0,0,0,.172.649.871.871,0,0,0,.663.2,3.476,3.476,0,0,0,.641-.053v1.652a4.487,4.487,0,0,1-1.32.2,2.081,2.081,0,0,1-2.338-2.317v-4.4H92.4v-1.6h1.192v-2.006Zm4.907,10.161H98.493v-8.159h2.187Zm-2.316-10.271a1.073,1.073,0,0,1,.328-.806,1.414,1.414,0,0,1,1.784,0,1.151,1.151,0,0,1,0,1.622,1.4,1.4,0,0,1-1.772,0,1.07,1.07,0,0,1-.338-.815Zm7.164,7.608,1.516-5.5h2.277l-2.751,8.159h-2.081l-2.752-8.159h2.277Zm4.3-1.493a4.839,4.839,0,0,1,.468-2.164,3.422,3.422,0,0,1,1.346-1.471,3.927,3.927,0,0,1,2.039-.52,3.715,3.715,0,0,1,2.7,1.011,4.056,4.056,0,0,1,1.165,2.745l.015.558a4.264,4.264,0,0,1-1.048,3.012,4.062,4.062,0,0,1-5.629,0,4.34,4.34,0,0,1-1.052-3.077Zm2.179.159a3.041,3.041,0,0,0,.438,1.776,1.573,1.573,0,0,0,2.488.008,3.328,3.328,0,0,0,.445-1.942,3.012,3.012,0,0,0-.445-1.765,1.447,1.447,0,0,0-1.252-.625,1.423,1.423,0,0,0-1.236.625,3.384,3.384,0,0,0-.437,1.924Zm13.784.912,1.508-5.075h2.338l-3.28,9.426-.181.429a2.488,2.488,0,0,1-2.413,1.6,3.431,3.431,0,0,1-.965-.143v-1.652l.332.008a1.793,1.793,0,0,0,.924-.189,1.238,1.238,0,0,0,.479-.625l.257-.671-2.858-8.182h2.345Zm12.307,3.235a4,4,0,0,1-2.922-1.1,3.913,3.913,0,0,1-1.127-2.933V232.6a4.929,4.929,0,0,1,.475-2.2,3.487,3.487,0,0,1,1.346-1.493,3.775,3.775,0,0,1,1.987-.524,3.386,3.386,0,0,1,2.636,1.055,4.29,4.29,0,0,1,.962,2.993v.89h-5.2a2.025,2.025,0,0,0,.637,1.282,1.926,1.926,0,0,0,1.346.483,2.353,2.353,0,0,0,1.968-.912l1.071,1.2a3.272,3.272,0,0,1-1.327,1.082,4.354,4.354,0,0,1-1.856.386Zm-.249-6.692a1.365,1.365,0,0,0-1.052.438,2.26,2.26,0,0,0-.515,1.252h3.031v-.172a1.611,1.611,0,0,0-.392-1.12,1.409,1.409,0,0,0-1.072-.4Zm4.5,2.39a4.877,4.877,0,0,1,.858-3.039,2.8,2.8,0,0,1,2.349-1.115,2.505,2.505,0,0,1,2.089,1l.143-.852H149.7v11.3h-2.187V236a2.512,2.512,0,0,1-1.973.852,2.777,2.777,0,0,1-2.323-1.131,5.116,5.116,0,0,1-.871-3.18Zm2.179.159a3.191,3.191,0,0,0,.411,1.779,1.316,1.316,0,0,0,1.157.611,1.466,1.466,0,0,0,1.417-.8v-3.371a1.458,1.458,0,0,0-1.4-.772,1.332,1.332,0,0,0-1.169.611,3.524,3.524,0,0,0-.412,1.937Zm11.771,3.167a2.732,2.732,0,0,1-2.231.981,2.574,2.574,0,0,1-2-.754,3.219,3.219,0,0,1-.705-2.209v-5.351h2.179v5.271q0,1.274,1.162,1.274a1.574,1.574,0,0,0,1.523-.772v-5.773h2.187v8.159h-2.051Zm6.055.83h-2.187v-8.159h2.187Zm-2.316-10.271a1.073,1.073,0,0,1,.328-.806,1.414,1.414,0,0,1,1.784,0,1.151,1.151,0,0,1,0,1.622,1.4,1.4,0,0,1-1.772,0,1.07,1.07,0,0,1-.337-.819Zm7.164,7.608,1.516-5.5H171l-2.751,8.155h-2.081l-2.752-8.159h2.277Zm9.366,2.66a2.42,2.42,0,0,1-.219-.732,2.637,2.637,0,0,1-2.059.882,2.9,2.9,0,0,1-1.987-.694,2.231,2.231,0,0,1-.788-1.749,2.305,2.305,0,0,1,.962-1.99,4.744,4.744,0,0,1,2.779-.7h1v-.468a1.345,1.345,0,0,0-.29-.905,1.142,1.142,0,0,0-.916-.343,1.3,1.3,0,0,0-.863.264.9.9,0,0,0-.313.724H171.7a2.189,2.189,0,0,1,.438-1.312,2.891,2.891,0,0,1,1.236-.944,4.507,4.507,0,0,1,1.795-.343,3.561,3.561,0,0,1,2.395.758,2.651,2.651,0,0,1,.886,2.13v3.534a3.9,3.9,0,0,0,.324,1.757v.13Zm-1.8-1.516a1.877,1.877,0,0,0,.89-.214,1.411,1.411,0,0,0,.6-.577v-1.4h-.814q-1.636,0-1.742,1.131l-.008.128a.873.873,0,0,0,.287.671,1.115,1.115,0,0,0,.788.263Zm7.655,1.514h-2.187V225.111h2.187Zm5.55.151a4,4,0,0,1-2.922-1.1,3.913,3.913,0,0,1-1.127-2.933V232.6a4.929,4.929,0,0,1,.475-2.2,3.487,3.487,0,0,1,1.346-1.493,3.775,3.775,0,0,1,1.987-.524,3.386,3.386,0,0,1,2.636,1.055,4.29,4.29,0,0,1,.962,2.993v.89h-5.2a2.025,2.025,0,0,0,.637,1.282,1.926,1.926,0,0,0,1.346.483,2.353,2.353,0,0,0,1.968-.912l1.071,1.2a3.272,3.272,0,0,1-1.327,1.082,4.355,4.355,0,0,1-1.856.386Zm-.249-6.692a1.365,1.365,0,0,0-1.052.438,2.26,2.26,0,0,0-.515,1.252h3.031v-.172a1.611,1.611,0,0,0-.392-1.12,1.409,1.409,0,0,0-1.072-.4Zm6.847-1.614.068.944a2.848,2.848,0,0,1,2.345-1.093,2.367,2.367,0,0,1,1.93.762,3.554,3.554,0,0,1,.649,2.277v5.265h-2.179v-5.218a1.414,1.414,0,0,0-.3-1.006,1.35,1.35,0,0,0-1-.313,1.5,1.5,0,0,0-1.38.784v5.753h-2.179v-8.159Zm9.252-2.006v2.006h1.4v1.6h-1.4v4.068a.972.972,0,0,0,.172.649.871.871,0,0,0,.663.2A3.477,3.477,0,0,0,205.3,235v1.652a4.487,4.487,0,0,1-1.32.2,2.081,2.081,0,0,1-2.338-2.317v-4.4h-1.192v-1.6h1.192v-2.006Zm6.364,10.315a4,4,0,0,1-2.922-1.1,3.913,3.913,0,0,1-1.127-2.933V232.6a4.929,4.929,0,0,1,.475-2.2,3.487,3.487,0,0,1,1.346-1.493,3.775,3.775,0,0,1,1.987-.524,3.386,3.386,0,0,1,2.636,1.055,4.29,4.29,0,0,1,.962,2.993v.89h-5.2a2.025,2.025,0,0,0,.637,1.282,1.926,1.926,0,0,0,1.346.483,2.353,2.353,0,0,0,1.968-.912l1.071,1.2a3.271,3.271,0,0,1-1.327,1.082,4.354,4.354,0,0,1-1.855.383Zm-.249-6.692a1.365,1.365,0,0,0-1.052.438,2.26,2.26,0,0,0-.515,1.252H211.4v-.172a1.611,1.611,0,0,0-.392-1.12,1.409,1.409,0,0,0-1.072-.406Zm9.26,4.29a.7.7,0,0,0-.4-.63,4.5,4.5,0,0,0-1.271-.411q-2.911-.611-2.911-2.474a2.242,2.242,0,0,1,.9-1.814,3.635,3.635,0,0,1,2.357-.728,3.912,3.912,0,0,1,2.488.732,2.305,2.305,0,0,1,.931,1.9h-2.179a1.054,1.054,0,0,0-.3-.772,1.277,1.277,0,0,0-.944-.305,1.3,1.3,0,0,0-.852.249.786.786,0,0,0-.3.633.672.672,0,0,0,.343.584,3.529,3.529,0,0,0,1.157.384,9.452,9.452,0,0,1,1.373.365,2.255,2.255,0,0,1,1.727,2.195,2.129,2.129,0,0,1-.957,1.8,4.131,4.131,0,0,1-2.474.686,4.314,4.314,0,0,1-1.821-.365,3.056,3.056,0,0,1-1.248-1,2.33,2.33,0,0,1-.452-1.373h2.063a1.138,1.138,0,0,0,.429.89,1.7,1.7,0,0,0,1.071.309,1.578,1.578,0,0,0,.944-.238.739.739,0,0,0,.326-.625Zm12.1,2.255a2.42,2.42,0,0,1-.219-.732,2.637,2.637,0,0,1-2.059.882,2.9,2.9,0,0,1-1.987-.694,2.231,2.231,0,0,1-.788-1.749,2.305,2.305,0,0,1,.962-1.99,4.744,4.744,0,0,1,2.781-.708h1v-.468a1.345,1.345,0,0,0-.29-.905,1.142,1.142,0,0,0-.916-.343,1.3,1.3,0,0,0-.863.264.9.9,0,0,0-.313.724h-2.179a2.189,2.189,0,0,1,.438-1.312,2.891,2.891,0,0,1,1.236-.944,4.507,4.507,0,0,1,1.795-.343,3.56,3.56,0,0,1,2.395.758,2.651,2.651,0,0,1,.886,2.13v3.536a3.9,3.9,0,0,0,.324,1.757v.13Zm-1.8-1.516a1.877,1.877,0,0,0,.89-.214,1.411,1.411,0,0,0,.6-.577v-1.4h-.814q-1.636,0-1.742,1.131l-.008.128a.873.873,0,0,0,.287.671,1.115,1.115,0,0,0,.785.257Zm7.652,1.509H234.96V225.111h2.187Zm9.4.151a4,4,0,0,1-2.922-1.1,3.913,3.913,0,0,1-1.127-2.933V232.6a4.929,4.929,0,0,1,.475-2.2,3.487,3.487,0,0,1,1.346-1.493,3.775,3.775,0,0,1,1.987-.524,3.386,3.386,0,0,1,2.636,1.055,4.29,4.29,0,0,1,.962,2.993v.89h-5.2a2.025,2.025,0,0,0,.637,1.282,1.926,1.926,0,0,0,1.346.483,2.353,2.353,0,0,0,1.968-.912l1.071,1.2a3.272,3.272,0,0,1-1.327,1.082,4.354,4.354,0,0,1-1.853.386Zm-.249-6.692a1.365,1.365,0,0,0-1.052.438,2.26,2.26,0,0,0-.515,1.252h3.031v-.172a1.611,1.611,0,0,0-.392-1.12,1.409,1.409,0,0,0-1.072-.4Zm5.437,6.541v-6.56h-1.214v-1.6h1.214v-.694a2.817,2.817,0,0,1,.788-2.13,3.052,3.052,0,0,1,2.206-.758,5.092,5.092,0,0,1,1.108.151l-.022,1.689a2.777,2.777,0,0,0-.663-.068q-1.229,0-1.229,1.154v.656h1.622v1.6h-1.622v6.56Zm8.695.151a4,4,0,0,1-2.922-1.1,3.913,3.913,0,0,1-1.127-2.933V232.6a4.929,4.929,0,0,1,.475-2.2,3.486,3.486,0,0,1,1.346-1.493,3.775,3.775,0,0,1,1.987-.524,3.386,3.386,0,0,1,2.636,1.055,4.29,4.29,0,0,1,.962,2.993v.89h-5.2a2.024,2.024,0,0,0,.637,1.282,1.926,1.926,0,0,0,1.346.483,2.353,2.353,0,0,0,1.968-.912l1.071,1.2a3.272,3.272,0,0,1-1.327,1.082A4.354,4.354,0,0,1,260.422,236.844Zm-.249-6.692a1.365,1.365,0,0,0-1.052.438,2.26,2.26,0,0,0-.515,1.252h3.031v-.172a1.611,1.611,0,0,0-.392-1.12,1.409,1.409,0,0,0-1.072-.4Zm8.236,4.939a1.43,1.43,0,0,0,.981-.332,1.163,1.163,0,0,0,.392-.882h2.044a2.8,2.8,0,0,1-.452,1.519,2.986,2.986,0,0,1-1.217,1.071,3.811,3.811,0,0,1-1.708.381,3.543,3.543,0,0,1-2.76-1.115,4.4,4.4,0,0,1-1.011-3.073v-.143a4.351,4.351,0,0,1,1-3.009,3.5,3.5,0,0,1,2.752-1.124,3.432,3.432,0,0,1,2.455.871,3.083,3.083,0,0,1,.939,2.317h-2.044a1.485,1.485,0,0,0-.392-1.03,1.459,1.459,0,0,0-2.145.159,3.208,3.208,0,0,0-.389,1.8v.226a3.248,3.248,0,0,0,.384,1.809,1.33,1.33,0,0,0,1.166.549Zm7.27-8.559v2.006h1.4v1.6h-1.4v4.068a.972.972,0,0,0,.172.649.871.871,0,0,0,.663.2,3.477,3.477,0,0,0,.641-.053v1.652a4.487,4.487,0,0,1-1.32.2,2.081,2.081,0,0,1-2.338-2.317v-4.4h-1.192v-1.6H273.5v-2.006Zm4.906,10.161H278.4v-8.159h2.187Zm-2.316-10.271a1.073,1.073,0,0,1,.328-.806,1.414,1.414,0,0,1,1.784,0,1.151,1.151,0,0,1,0,1.622,1.4,1.4,0,0,1-1.772,0,1.07,1.07,0,0,1-.338-.815Zm7.164,7.608,1.516-5.5h2.277l-2.751,8.159h-2.081l-2.752-8.159h2.277Zm4.3-1.493a4.839,4.839,0,0,1,.468-2.164,3.423,3.423,0,0,1,1.346-1.471,3.927,3.927,0,0,1,2.039-.52,3.715,3.715,0,0,1,2.7,1.011,4.055,4.055,0,0,1,1.165,2.745l.015.558a4.264,4.264,0,0,1-1.048,3.012,4.062,4.062,0,0,1-5.629,0,4.34,4.34,0,0,1-1.052-3.077Zm2.179.159a3.041,3.041,0,0,0,.438,1.776,1.573,1.573,0,0,0,2.488.008,3.328,3.328,0,0,0,.445-1.942,3.012,3.012,0,0,0-.445-1.765,1.447,1.447,0,0,0-1.252-.625,1.423,1.423,0,0,0-1.236.622,3.384,3.384,0,0,0-.436,1.926ZM4.559,286.712A6.808,6.808,0,0,1,1.848,285.4,2.514,2.514,0,0,1,1,283.469a2.66,2.66,0,0,1,1.036-2.145,4.118,4.118,0,0,1,2.7-.849,4.5,4.5,0,0,1,2.017.438,3.317,3.317,0,0,1,1.373,1.206,3.089,3.089,0,0,1,.486,1.682H7.15a2,2,0,0,0-.633-1.565,2.582,2.582,0,0,0-1.787-.57,2.641,2.641,0,0,0-1.67.471,1.571,1.571,0,0,0-.6,1.308,1.414,1.414,0,0,0,.57,1.135,5.589,5.589,0,0,0,1.938.849,8.974,8.974,0,0,1,2.145.849,3.25,3.25,0,0,1,1.146,1.082,2.762,2.762,0,0,1,.373,1.459,2.565,2.565,0,0,1-1.041,2.138,4.437,4.437,0,0,1-2.782.8,5.161,5.161,0,0,1-2.111-.433,3.554,3.554,0,0,1-1.512-1.187,2.9,2.9,0,0,1-.532-1.716H2.109A1.887,1.887,0,0,0,2.844,290a3.1,3.1,0,0,0,1.965.577,2.846,2.846,0,0,0,1.757-.468,1.519,1.519,0,0,0,.611-1.274,1.491,1.491,0,0,0-.565-1.248,6.52,6.52,0,0,0-2.052-.87Zm5.339.739a4.819,4.819,0,0,1,.471-2.157,3.518,3.518,0,0,1,1.312-1.478,3.571,3.571,0,0,1,1.919-.52,3.44,3.44,0,0,1,2.7,1.154,4.439,4.439,0,0,1,1.03,3.069v.1a4.861,4.861,0,0,1-.456,2.138,3.465,3.465,0,0,1-1.3,1.474,3.613,3.613,0,0,1-1.949.528,3.432,3.432,0,0,1-2.688-1.154,4.416,4.416,0,0,1-1.03-3.054Zm1.4.166a3.49,3.49,0,0,0,.63,2.179,2.134,2.134,0,0,0,3.374-.011,3.817,3.817,0,0,0,.625-2.334,3.484,3.484,0,0,0-.637-2.176,2.026,2.026,0,0,0-1.693-.833,2,2,0,0,0-1.666.822,3.789,3.789,0,0,0-.634,2.35Zm14.681,0a4.851,4.851,0,0,1-.858,3,2.745,2.745,0,0,1-2.307,1.135,2.844,2.844,0,0,1-2.39-1.093l-.068.944H19.075V280.02h1.394v4.321a2.831,2.831,0,0,1,2.33-1.048,2.764,2.764,0,0,1,2.334,1.124,5,5,0,0,1,.849,3.077Zm-1.4-.159a3.77,3.77,0,0,0-.551-2.2,1.822,1.822,0,0,0-1.584-.776,2.048,2.048,0,0,0-1.984,1.282v3.525a2.105,2.105,0,0,0,2,1.287,1.812,1.812,0,0,0,1.561-.777,4.008,4.008,0,0,0,.559-2.341Zm7.1-2.76a4.176,4.176,0,0,0-.686-.053,1.839,1.839,0,0,0-1.863,1.167V291.6h-1.4v-8.159H29.1l.022.944a2.172,2.172,0,0,1,1.946-1.093,1.425,1.425,0,0,1,.619.106Zm4.667,7.058a3.565,3.565,0,0,1-2.7-1.09,4.045,4.045,0,0,1-1.041-2.917v-.257a4.9,4.9,0,0,1,.464-2.168,3.618,3.618,0,0,1,1.293-1.492,3.26,3.26,0,0,1,1.8-.539,3.056,3.056,0,0,1,2.473,1.048,4.538,4.538,0,0,1,.882,3v.581h-5.52a2.9,2.9,0,0,0,.705,1.949,2.216,2.216,0,0,0,1.716.743,2.43,2.43,0,0,0,1.252-.3,3.145,3.145,0,0,0,.9-.8l.852.663a3.426,3.426,0,0,1-3.077,1.574Zm-.172-7.314a1.861,1.861,0,0,0-1.417.614,2.988,2.988,0,0,0-.709,1.723h4.087v-.105a2.66,2.66,0,0,0-.573-1.647,1.752,1.752,0,0,0-1.391-.588Zm4.637,3.017a4.8,4.8,0,0,1,.882-3.035,3.041,3.041,0,0,1,4.667-.071l.068-.905h1.274v7.963a3.319,3.319,0,0,1-.939,2.5,3.464,3.464,0,0,1-2.522.912,4.2,4.2,0,0,1-1.728-.383,2.973,2.973,0,0,1-1.287-1.03l.724-.837a2.728,2.728,0,0,0,2.195,1.108,2.137,2.137,0,0,0,1.587-.573,2.191,2.191,0,0,0,.57-1.614v-.7a2.867,2.867,0,0,1-2.285.965,2.787,2.787,0,0,1-2.316-1.154,5.041,5.041,0,0,1-.891-3.143Zm1.4.159a3.658,3.658,0,0,0,.565,2.168,1.838,1.838,0,0,0,1.584.788,2.044,2.044,0,0,0,1.938-1.2v-3.725a2.068,2.068,0,0,0-1.923-1.169,1.854,1.854,0,0,0-1.591.792,3.985,3.985,0,0,0-.577,2.344Zm9.107,3.985h-1.4v-8.159h1.4ZM49.819,281.28a.833.833,0,0,1,.208-.573.778.778,0,0,1,.614-.233.791.791,0,0,1,.619.233.824.824,0,0,1,.211.573.826.826,0,1,1-1.652,0ZM57.5,284.7a4.173,4.173,0,0,0-.686-.053,1.839,1.839,0,0,0-1.863,1.169V291.6h-1.4v-8.159h1.357l.022.944a2.172,2.172,0,0,1,1.946-1.093,1.425,1.425,0,0,1,.619.106Zm.762,2.752a4.819,4.819,0,0,1,.471-2.157,3.518,3.518,0,0,1,1.312-1.478,3.571,3.571,0,0,1,1.919-.52,3.44,3.44,0,0,1,2.7,1.154,4.439,4.439,0,0,1,1.03,3.069v.1a4.861,4.861,0,0,1-.456,2.138,3.464,3.464,0,0,1-1.3,1.474,3.613,3.613,0,0,1-1.949.528,3.432,3.432,0,0,1-2.688-1.154,4.416,4.416,0,0,1-1.03-3.054Zm1.4.166a3.49,3.49,0,0,0,.63,2.179,2.134,2.134,0,0,0,3.374-.011,3.817,3.817,0,0,0,.625-2.334,3.484,3.484,0,0,0-.637-2.176,2.026,2.026,0,0,0-1.693-.833,2,2,0,0,0-1.666.822,3.789,3.789,0,0,0-.634,2.353Zm12.526,1.825a1.03,1.03,0,0,0-.429-.879,4.1,4.1,0,0,0-1.485-.539,7.024,7.024,0,0,1-1.682-.543,2.392,2.392,0,0,1-.92-.754,1.8,1.8,0,0,1-.3-1.041,2.117,2.117,0,0,1,.849-1.7,3.312,3.312,0,0,1,2.168-.694,3.41,3.41,0,0,1,2.251.716,2.275,2.275,0,0,1,.863,1.833h-1.4a1.26,1.26,0,0,0-.486-.988,1.823,1.823,0,0,0-1.225-.414,1.907,1.907,0,0,0-1.192.332,1.044,1.044,0,0,0-.429.867.846.846,0,0,0,.4.762,4.917,4.917,0,0,0,1.444.49,7.521,7.521,0,0,1,1.693.558,2.469,2.469,0,0,1,.962.781,1.919,1.919,0,0,1,.313,1.115,2.088,2.088,0,0,1-.875,1.753,3.67,3.67,0,0,1-2.27.66,4.109,4.109,0,0,1-1.734-.343,2.821,2.821,0,0,1-1.18-.969A2.335,2.335,0,0,1,67.1,289.1h1.4a1.444,1.444,0,0,0,.562,1.115,2.179,2.179,0,0,0,1.384.411,2.249,2.249,0,0,0,1.271-.321.985.985,0,0,0,.48-.865Zm13.943-1.825a4.851,4.851,0,0,1-.858,3,2.745,2.745,0,0,1-2.307,1.135,2.844,2.844,0,0,1-2.39-1.093l-.068.944H79.227V280.02h1.4v4.321a2.831,2.831,0,0,1,2.33-1.048,2.764,2.764,0,0,1,2.334,1.124,5,5,0,0,1,.849,3.077Zm-1.4-.159a3.77,3.77,0,0,0-.551-2.2,1.822,1.822,0,0,0-1.584-.776,2.048,2.048,0,0,0-1.984,1.282v3.528a2.105,2.105,0,0,0,2,1.287,1.812,1.812,0,0,0,1.561-.777,4.008,4.008,0,0,0,.559-2.341Zm8.188,4.148a2.931,2.931,0,0,1-.2-.858,3.113,3.113,0,0,1-2.322,1.011,2.88,2.88,0,0,1-1.979-.686,2.207,2.207,0,0,1-.772-1.73,2.306,2.306,0,0,1,.969-1.979,4.568,4.568,0,0,1,2.726-.705H92.71v-.641a1.567,1.567,0,0,0-.438-1.165,1.758,1.758,0,0,0-1.287-.433,2.034,2.034,0,0,0-1.252.377,1.115,1.115,0,0,0-.505.912H87.819a1.925,1.925,0,0,1,.433-1.18,2.959,2.959,0,0,1,1.176-.9,3.957,3.957,0,0,1,1.63-.332,3.225,3.225,0,0,1,2.209.705,2.543,2.543,0,0,1,.83,1.942v3.755a4.591,4.591,0,0,0,.287,1.787v.123Zm-2.316-1.063a2.452,2.452,0,0,0,1.244-.343,2.052,2.052,0,0,0,.852-.882v-1.674H91.615q-2.564,0-2.564,1.5a1.27,1.27,0,0,0,.438,1.03,1.681,1.681,0,0,0,1.125.369Zm7-7.1.045,1.03A2.973,2.973,0,0,1,100.1,283.3q2.587,0,2.609,2.917V291.6h-1.4v-5.4a1.878,1.878,0,0,0-.4-1.3,1.616,1.616,0,0,0-1.233-.422,2.014,2.014,0,0,0-1.192.362,2.458,2.458,0,0,0-.8.95V291.6h-1.4v-8.159Zm10.474,7.171a2.009,2.009,0,0,0,1.3-.452,1.591,1.591,0,0,0,.619-1.131h1.32a2.53,2.53,0,0,1-.482,1.335,3.175,3.175,0,0,1-1.187,1.011,3.426,3.426,0,0,1-1.573.377,3.362,3.362,0,0,1-2.65-1.115,4.429,4.429,0,0,1-.984-3.042v-.233a4.912,4.912,0,0,1,.438-2.119,3.331,3.331,0,0,1,1.255-1.441,3.566,3.566,0,0,1,1.934-.515,3.272,3.272,0,0,1,2.281.822,2.938,2.938,0,0,1,.969,2.134h-1.32a1.923,1.923,0,0,0-.6-1.3,1.865,1.865,0,0,0-1.331-.509,1.953,1.953,0,0,0-1.647.765,3.6,3.6,0,0,0-.584,2.214v.264a3.523,3.523,0,0,0,.581,2.172,1.962,1.962,0,0,0,1.659.766Zm9.85.988a2.93,2.93,0,0,1-.2-.858,3.113,3.113,0,0,1-2.322,1.011,2.88,2.88,0,0,1-1.979-.686,2.208,2.208,0,0,1-.772-1.73,2.306,2.306,0,0,1,.969-1.979,4.568,4.568,0,0,1,2.726-.705h1.357v-.641a1.567,1.567,0,0,0-.438-1.165,1.758,1.758,0,0,0-1.287-.433,2.034,2.034,0,0,0-1.252.377,1.115,1.115,0,0,0-.505.912h-1.4a1.925,1.925,0,0,1,.433-1.18,2.959,2.959,0,0,1,1.176-.9,3.957,3.957,0,0,1,1.63-.332,3.225,3.225,0,0,1,2.209.705,2.543,2.543,0,0,1,.83,1.942v3.755a4.591,4.591,0,0,0,.287,1.787v.123Zm-2.316-1.063a2.452,2.452,0,0,0,1.244-.343,2.052,2.052,0,0,0,.852-.882v-1.674h-1.092q-2.564,0-2.564,1.5a1.27,1.27,0,0,0,.438,1.03,1.681,1.681,0,0,0,1.122.369Zm9.622-5.844a4.173,4.173,0,0,0-.686-.053,1.839,1.839,0,0,0-1.863,1.169V291.6h-1.4v-8.159h1.357l.022.944a2.172,2.172,0,0,1,1.946-1.093,1.425,1.425,0,0,1,.619.106Zm2.8,6.907h-1.4v-8.159h1.4ZM126.53,281.28a.833.833,0,0,1,.208-.573.778.778,0,0,1,.614-.233.791.791,0,0,1,.619.233.824.824,0,0,1,.211.573.826.826,0,1,1-1.652,0Zm3.371,6.168a4.819,4.819,0,0,1,.471-2.157,3.518,3.518,0,0,1,1.312-1.478,3.572,3.572,0,0,1,1.919-.52,3.44,3.44,0,0,1,2.7,1.154,4.439,4.439,0,0,1,1.03,3.069v.1a4.861,4.861,0,0,1-.456,2.138,3.464,3.464,0,0,1-1.3,1.474,3.613,3.613,0,0,1-1.949.528,3.432,3.432,0,0,1-2.688-1.154,4.416,4.416,0,0,1-1.03-3.054Zm1.4.166a3.49,3.49,0,0,0,.63,2.179,2.134,2.134,0,0,0,3.374-.011,3.817,3.817,0,0,0,.625-2.334,3.484,3.484,0,0,0-.637-2.176,2.026,2.026,0,0,0-1.693-.833,2,2,0,0,0-1.666.822,3.789,3.789,0,0,0-.634,2.353Zm12.526,1.825a1.03,1.03,0,0,0-.429-.879,4.1,4.1,0,0,0-1.485-.539,7.024,7.024,0,0,1-1.682-.543,2.392,2.392,0,0,1-.92-.754,1.8,1.8,0,0,1-.3-1.041,2.117,2.117,0,0,1,.849-1.7,3.312,3.312,0,0,1,2.168-.694,3.41,3.41,0,0,1,2.251.716,2.275,2.275,0,0,1,.863,1.833h-1.4a1.26,1.26,0,0,0-.486-.988,1.823,1.823,0,0,0-1.225-.414,1.907,1.907,0,0,0-1.192.332,1.044,1.044,0,0,0-.429.867.846.846,0,0,0,.4.762,4.916,4.916,0,0,0,1.444.49,7.526,7.526,0,0,1,1.693.558,2.469,2.469,0,0,1,.962.781,1.919,1.919,0,0,1,.313,1.115,2.088,2.088,0,0,1-.875,1.753,3.67,3.67,0,0,1-2.27.66,4.109,4.109,0,0,1-1.734-.343,2.821,2.821,0,0,1-1.18-.969,2.335,2.335,0,0,1-.429-1.346h1.4a1.444,1.444,0,0,0,.562,1.115,2.179,2.179,0,0,0,1.384.411,2.25,2.25,0,0,0,1.271-.321.985.985,0,0,0,.48-.865ZM9.295,337.365H5.931v9.147H3.67v-9.147H.352V335.53H9.295Zm-.762,4.992A4.839,4.839,0,0,1,9,340.193a3.422,3.422,0,0,1,1.345-1.471,3.927,3.927,0,0,1,2.039-.52,3.715,3.715,0,0,1,2.7,1.011,4.055,4.055,0,0,1,1.165,2.745l.015.558a4.264,4.264,0,0,1-1.048,3.012,3.644,3.644,0,0,1-2.812,1.135,3.662,3.662,0,0,1-2.817-1.131,4.34,4.34,0,0,1-1.052-3.077Zm2.179.159a3.041,3.041,0,0,0,.438,1.776,1.443,1.443,0,0,0,1.252.614,1.447,1.447,0,0,0,1.236-.607,3.328,3.328,0,0,0,.445-1.942,3.011,3.011,0,0,0-.445-1.765,1.447,1.447,0,0,0-1.252-.625,1.423,1.423,0,0,0-1.236.622,3.384,3.384,0,0,0-.437,1.927Zm9.5-6.169v2.006h1.4v1.6h-1.4v4.073a.972.972,0,0,0,.172.649.871.871,0,0,0,.663.2,3.476,3.476,0,0,0,.641-.053v1.652a4.487,4.487,0,0,1-1.32.2,2.081,2.081,0,0,1-2.338-2.317v-4.4H16.843v-1.6h1.192v-2.006Zm7.339,10.165a2.421,2.421,0,0,1-.219-.732,2.637,2.637,0,0,1-2.059.882,2.9,2.9,0,0,1-1.987-.694,2.231,2.231,0,0,1-.788-1.749,2.305,2.305,0,0,1,.962-1.99,4.744,4.744,0,0,1,2.779-.7h1v-.468a1.344,1.344,0,0,0-.29-.905,1.142,1.142,0,0,0-.916-.343,1.3,1.3,0,0,0-.863.264.9.9,0,0,0-.313.724H22.68a2.189,2.189,0,0,1,.438-1.312,2.891,2.891,0,0,1,1.236-.944,4.507,4.507,0,0,1,1.795-.343,3.561,3.561,0,0,1,2.395.758,2.651,2.651,0,0,1,.886,2.13v3.536a3.9,3.9,0,0,0,.324,1.757v.13ZM25.749,345a1.877,1.877,0,0,0,.89-.214,1.411,1.411,0,0,0,.6-.577v-1.4h-.814q-1.636,0-1.742,1.131l-.008.128a.873.873,0,0,0,.287.671,1.116,1.116,0,0,0,.786.264Zm7.653,1.516H31.215V334.93H33.4Zm9.4.151a4,4,0,0,1-2.922-1.1,3.913,3.913,0,0,1-1.127-2.933v-.211a4.929,4.929,0,0,1,.475-2.2,3.487,3.487,0,0,1,1.346-1.493,3.775,3.775,0,0,1,1.987-.524,3.386,3.386,0,0,1,2.636,1.055,4.29,4.29,0,0,1,.962,2.993v.89h-5.2a2.025,2.025,0,0,0,.637,1.282,1.926,1.926,0,0,0,1.346.483,2.353,2.353,0,0,0,1.968-.912l1.071,1.2a3.272,3.272,0,0,1-1.327,1.082A4.353,4.353,0,0,1,42.8,346.663Zm-.249-6.692a1.365,1.365,0,0,0-1.052.438,2.26,2.26,0,0,0-.515,1.252h3.029v-.172a1.611,1.611,0,0,0-.392-1.12,1.409,1.409,0,0,0-1.071-.4Zm5.437,6.541v-6.56H46.772v-1.6h1.214v-.694a2.817,2.817,0,0,1,.788-2.13,3.052,3.052,0,0,1,2.206-.758,5.092,5.092,0,0,1,1.108.151l-.022,1.689a2.777,2.777,0,0,0-.663-.068q-1.229,0-1.229,1.154v.656h1.622v1.6H50.173v6.56Zm8.695.151a4,4,0,0,1-2.922-1.1,3.913,3.913,0,0,1-1.127-2.933v-.211a4.929,4.929,0,0,1,.475-2.2,3.487,3.487,0,0,1,1.346-1.493,3.775,3.775,0,0,1,1.987-.524,3.386,3.386,0,0,1,2.636,1.055,4.29,4.29,0,0,1,.962,2.993v.89h-5.2a2.025,2.025,0,0,0,.637,1.282,1.926,1.926,0,0,0,1.346.483,2.353,2.353,0,0,0,1.968-.912l1.071,1.2a3.272,3.272,0,0,1-1.327,1.082,4.353,4.353,0,0,1-1.855.386Zm-.249-6.692a1.365,1.365,0,0,0-1.052.438,2.26,2.26,0,0,0-.515,1.252H57.9v-.172a1.611,1.611,0,0,0-.392-1.12,1.409,1.409,0,0,0-1.072-.4Zm8.236,4.939a1.429,1.429,0,0,0,.981-.332,1.162,1.162,0,0,0,.392-.882h2.044a2.8,2.8,0,0,1-.452,1.519,2.986,2.986,0,0,1-1.217,1.071,3.811,3.811,0,0,1-1.708.381,3.543,3.543,0,0,1-2.76-1.115,4.4,4.4,0,0,1-1.011-3.073v-.143a4.351,4.351,0,0,1,1-3.009,3.5,3.5,0,0,1,2.752-1.124,3.432,3.432,0,0,1,2.451.871,3.084,3.084,0,0,1,.939,2.316H66.038a1.485,1.485,0,0,0-.392-1.03,1.459,1.459,0,0,0-2.145.159,3.208,3.208,0,0,0-.389,1.8v.227a3.248,3.248,0,0,0,.384,1.809,1.33,1.33,0,0,0,1.169.549Zm7.27-8.559v2.006h1.4v1.6h-1.4v4.068a.972.972,0,0,0,.172.649.871.871,0,0,0,.663.2,3.476,3.476,0,0,0,.641-.053v1.652a4.487,4.487,0,0,1-1.32.2,2.081,2.081,0,0,1-2.338-2.317v-4.4H68.564v-1.6h1.192v-2.006Zm4.907,10.161H74.657v-8.159h2.187Zm-2.316-10.271a1.073,1.073,0,0,1,.328-.806,1.414,1.414,0,0,1,1.784,0,1.151,1.151,0,0,1,0,1.622,1.4,1.4,0,0,1-1.772,0,1.07,1.07,0,0,1-.338-.815Zm7.164,7.608,1.516-5.5h2.278l-2.752,8.159H80.652L77.9,338.353h2.277Zm4.3-1.493a4.839,4.839,0,0,1,.468-2.164,3.422,3.422,0,0,1,1.346-1.471,3.927,3.927,0,0,1,2.039-.52,3.715,3.715,0,0,1,2.7,1.011,4.056,4.056,0,0,1,1.165,2.745l.015.558a4.264,4.264,0,0,1-1.048,3.012,4.062,4.062,0,0,1-5.629,0,4.339,4.339,0,0,1-1.052-3.077Zm2.179.159a3.041,3.041,0,0,0,.438,1.776,1.573,1.573,0,0,0,2.488.008,3.328,3.328,0,0,0,.445-1.942,3.012,3.012,0,0,0-.445-1.765,1.447,1.447,0,0,0-1.252-.625,1.423,1.423,0,0,0-1.236.622,3.384,3.384,0,0,0-.437,1.926Zm13.784.912,1.508-5.075H105.8l-3.28,9.426-.181.429a2.488,2.488,0,0,1-2.413,1.6,3.434,3.434,0,0,1-.965-.143v-1.652l.332.008a1.794,1.794,0,0,0,.924-.189,1.238,1.238,0,0,0,.479-.625l.257-.671L98.1,338.352h2.345Zm12.307,3.235a4,4,0,0,1-2.922-1.1,3.913,3.913,0,0,1-1.127-2.933v-.211a4.929,4.929,0,0,1,.475-2.2,3.487,3.487,0,0,1,1.346-1.493,3.775,3.775,0,0,1,1.987-.524,3.386,3.386,0,0,1,2.636,1.055,4.29,4.29,0,0,1,.962,2.993v.89h-5.2a2.025,2.025,0,0,0,.637,1.282,1.926,1.926,0,0,0,1.346.483,2.353,2.353,0,0,0,1.968-.912l1.071,1.2a3.271,3.271,0,0,1-1.327,1.082,4.354,4.354,0,0,1-1.855.386Zm-.249-6.692a1.365,1.365,0,0,0-1.052.438,2.26,2.26,0,0,0-.515,1.252h3.031v-.172a1.611,1.611,0,0,0-.392-1.12,1.409,1.409,0,0,0-1.072-.4Zm4.5,2.39a4.877,4.877,0,0,1,.858-3.039,2.8,2.8,0,0,1,2.349-1.115,2.505,2.505,0,0,1,2.089,1l.143-.852h1.915v11.3h-2.185v-3.839a2.512,2.512,0,0,1-1.973.852,2.777,2.777,0,0,1-2.323-1.131,5.116,5.116,0,0,1-.873-3.18Zm2.179.159a3.191,3.191,0,0,0,.411,1.779,1.316,1.316,0,0,0,1.157.611,1.466,1.466,0,0,0,1.417-.8V340.74a1.459,1.459,0,0,0-1.4-.772,1.332,1.332,0,0,0-1.169.611,3.523,3.523,0,0,0-.414,1.937Zm11.771,3.167a2.733,2.733,0,0,1-2.231.981,2.574,2.574,0,0,1-2-.754,3.219,3.219,0,0,1-.705-2.209v-5.351H129.7v5.271q0,1.274,1.162,1.274a1.574,1.574,0,0,0,1.523-.772v-5.773h2.189v8.159h-2.051Zm6.055.83h-2.187v-8.159h2.187ZM136.2,336.246a1.073,1.073,0,0,1,.328-.806,1.414,1.414,0,0,1,1.784,0,1.151,1.151,0,0,1,0,1.622,1.4,1.4,0,0,1-1.772,0,1.07,1.07,0,0,1-.334-.819Zm7.164,7.608,1.516-5.5h2.277l-2.751,8.155h-2.081l-2.752-8.159h2.277Zm9.365,2.66a2.42,2.42,0,0,1-.219-.732,2.637,2.637,0,0,1-2.059.882,2.9,2.9,0,0,1-1.987-.694,2.231,2.231,0,0,1-.788-1.749,2.305,2.305,0,0,1,.962-1.99,4.744,4.744,0,0,1,2.779-.7h1v-.468a1.344,1.344,0,0,0-.29-.905,1.142,1.142,0,0,0-.916-.343,1.3,1.3,0,0,0-.863.264.9.9,0,0,0-.313.724h-2.179a2.189,2.189,0,0,1,.438-1.312,2.891,2.891,0,0,1,1.236-.944,4.506,4.506,0,0,1,1.795-.343,3.56,3.56,0,0,1,2.395.758,2.651,2.651,0,0,1,.886,2.13v3.534a3.9,3.9,0,0,0,.324,1.757v.13ZM150.93,345a1.877,1.877,0,0,0,.89-.214,1.411,1.411,0,0,0,.6-.577v-1.4h-.814q-1.636,0-1.742,1.131l-.008.128a.873.873,0,0,0,.287.671,1.116,1.116,0,0,0,.788.263Zm7.655,1.514H156.4V334.93h2.187Zm5.55.151a4,4,0,0,1-2.922-1.1,3.913,3.913,0,0,1-1.127-2.933v-.211a4.929,4.929,0,0,1,.475-2.2,3.487,3.487,0,0,1,1.346-1.493,3.775,3.775,0,0,1,1.987-.524,3.386,3.386,0,0,1,2.636,1.055,4.29,4.29,0,0,1,.962,2.993v.89h-5.2a2.025,2.025,0,0,0,.637,1.282,1.926,1.926,0,0,0,1.346.483,2.353,2.353,0,0,0,1.968-.912l1.071,1.2a3.271,3.271,0,0,1-1.327,1.082A4.355,4.355,0,0,1,164.135,346.663Zm-.249-6.692a1.365,1.365,0,0,0-1.052.438,2.26,2.26,0,0,0-.515,1.252h3.031v-.172a1.611,1.611,0,0,0-.392-1.12,1.409,1.409,0,0,0-1.072-.4Zm6.847-1.614.068.944a2.848,2.848,0,0,1,2.345-1.093,2.367,2.367,0,0,1,1.93.762,3.554,3.554,0,0,1,.649,2.277v5.265h-2.179v-5.218a1.414,1.414,0,0,0-.3-1.006,1.35,1.35,0,0,0-1-.313,1.5,1.5,0,0,0-1.38.784v5.753h-2.179v-8.159Zm9.252-2.006v2.006h1.4v1.6h-1.4v4.068a.972.972,0,0,0,.172.649.871.871,0,0,0,.663.2,3.476,3.476,0,0,0,.641-.053v1.652a4.487,4.487,0,0,1-1.32.2,2.081,2.081,0,0,1-2.338-2.317v-4.4h-1.185v-1.6h1.192v-2.006Zm6.364,10.315a4,4,0,0,1-2.922-1.1,3.913,3.913,0,0,1-1.127-2.933v-.211a4.929,4.929,0,0,1,.475-2.2,3.487,3.487,0,0,1,1.346-1.493,3.775,3.775,0,0,1,1.987-.524,3.386,3.386,0,0,1,2.636,1.055,4.29,4.29,0,0,1,.962,2.993v.89h-5.194a2.025,2.025,0,0,0,.637,1.282,1.926,1.926,0,0,0,1.346.483,2.353,2.353,0,0,0,1.968-.912l1.071,1.2a3.272,3.272,0,0,1-1.327,1.082,4.355,4.355,0,0,1-1.857.383Zm-.249-6.692a1.365,1.365,0,0,0-1.052.438,2.26,2.26,0,0,0-.515,1.252h3.031v-.172a1.611,1.611,0,0,0-.392-1.12,1.409,1.409,0,0,0-1.072-.406Zm9.26,4.29a.7.7,0,0,0-.4-.63,4.5,4.5,0,0,0-1.271-.411q-2.911-.611-2.911-2.474a2.242,2.242,0,0,1,.9-1.814,3.635,3.635,0,0,1,2.357-.728,3.912,3.912,0,0,1,2.488.732,2.305,2.305,0,0,1,.931,1.9h-2.179a1.054,1.054,0,0,0-.3-.772,1.276,1.276,0,0,0-.944-.305,1.3,1.3,0,0,0-.852.249.786.786,0,0,0-.3.633.672.672,0,0,0,.343.584,3.53,3.53,0,0,0,1.157.384,9.451,9.451,0,0,1,1.373.365,2.255,2.255,0,0,1,1.727,2.195,2.129,2.129,0,0,1-.957,1.8,4.131,4.131,0,0,1-2.473.686,4.315,4.315,0,0,1-1.821-.365,3.056,3.056,0,0,1-1.248-1,2.33,2.33,0,0,1-.452-1.373h2.066a1.138,1.138,0,0,0,.429.89,1.7,1.7,0,0,0,1.071.309,1.578,1.578,0,0,0,.944-.238.739.739,0,0,0,.323-.625Zm12.1,2.255a2.42,2.42,0,0,1-.219-.732,2.637,2.637,0,0,1-2.059.882,2.9,2.9,0,0,1-1.987-.694,2.231,2.231,0,0,1-.788-1.749,2.305,2.305,0,0,1,.962-1.991,4.744,4.744,0,0,1,2.779-.7h1v-.468a1.345,1.345,0,0,0-.29-.905,1.142,1.142,0,0,0-.916-.343,1.3,1.3,0,0,0-.863.264.9.9,0,0,0-.313.724h-2.179a2.189,2.189,0,0,1,.438-1.312,2.891,2.891,0,0,1,1.236-.944,4.507,4.507,0,0,1,1.795-.343,3.56,3.56,0,0,1,2.395.758,2.651,2.651,0,0,1,.886,2.13v3.529a3.9,3.9,0,0,0,.324,1.757v.13Zm-1.8-1.516a1.877,1.877,0,0,0,.89-.215,1.411,1.411,0,0,0,.6-.577v-1.4h-.814q-1.636,0-1.742,1.131l-.008.128a.873.873,0,0,0,.287.671,1.115,1.115,0,0,0,.785.257Zm7.651,1.509H211.12V334.93h2.187Zm9.4.151a4,4,0,0,1-2.922-1.1,3.913,3.913,0,0,1-1.127-2.933v-.211a4.929,4.929,0,0,1,.475-2.2,3.487,3.487,0,0,1,1.346-1.493,3.775,3.775,0,0,1,1.987-.524,3.386,3.386,0,0,1,2.636,1.055,4.29,4.29,0,0,1,.962,2.993v.89h-5.2a2.025,2.025,0,0,0,.637,1.282,1.926,1.926,0,0,0,1.346.483,2.353,2.353,0,0,0,1.968-.912l1.071,1.2a3.272,3.272,0,0,1-1.327,1.082,4.353,4.353,0,0,1-1.855.386Zm-.249-6.692a1.365,1.365,0,0,0-1.052.438,2.26,2.26,0,0,0-.515,1.252h3.031v-.172a1.611,1.611,0,0,0-.392-1.12,1.409,1.409,0,0,0-1.072-.4Zm5.438,6.541v-6.56h-1.214v-1.6h1.214v-.694a2.817,2.817,0,0,1,.788-2.13,3.052,3.052,0,0,1,2.206-.758,5.092,5.092,0,0,1,1.108.151l-.022,1.689a2.778,2.778,0,0,0-.663-.068q-1.229,0-1.229,1.154v.656H231.7v1.6h-1.622v6.56Zm8.695.151a4,4,0,0,1-2.922-1.1,3.913,3.913,0,0,1-1.127-2.933v-.211a4.929,4.929,0,0,1,.475-2.2,3.486,3.486,0,0,1,1.346-1.493,3.775,3.775,0,0,1,1.987-.524,3.386,3.386,0,0,1,2.636,1.055,4.29,4.29,0,0,1,.962,2.993v.89h-5.2a2.025,2.025,0,0,0,.637,1.282,1.926,1.926,0,0,0,1.346.483,2.353,2.353,0,0,0,1.968-.912l1.071,1.2a3.272,3.272,0,0,1-1.327,1.082,4.354,4.354,0,0,1-1.852.386Zm-.249-6.692a1.365,1.365,0,0,0-1.052.438,2.26,2.26,0,0,0-.515,1.252H237.8v-.172a1.611,1.611,0,0,0-.392-1.12,1.408,1.408,0,0,0-1.073-.4Zm8.236,4.939a1.429,1.429,0,0,0,.981-.332,1.162,1.162,0,0,0,.392-.882h2.044a2.8,2.8,0,0,1-.452,1.519,2.986,2.986,0,0,1-1.217,1.071,3.811,3.811,0,0,1-1.708.381,3.543,3.543,0,0,1-2.76-1.115,4.4,4.4,0,0,1-1.011-3.073v-.143a4.351,4.351,0,0,1,1-3.009A3.5,3.5,0,0,1,244.6,338.2a3.432,3.432,0,0,1,2.455.871,3.083,3.083,0,0,1,.939,2.317h-2.049a1.485,1.485,0,0,0-.392-1.03,1.459,1.459,0,0,0-2.145.159,3.208,3.208,0,0,0-.389,1.8v.226a3.248,3.248,0,0,0,.384,1.809,1.33,1.33,0,0,0,1.169.549Zm7.27-8.559v2.006h1.391v1.6h-1.4v4.068a.972.972,0,0,0,.172.649.871.871,0,0,0,.663.2,3.476,3.476,0,0,0,.641-.053v1.652a4.488,4.488,0,0,1-1.32.2,2.081,2.081,0,0,1-2.338-2.317v-4.4h-1.192v-1.6h1.192v-2.006Zm4.908,10.161h-2.187v-8.159h2.187Zm-2.316-10.271a1.073,1.073,0,0,1,.328-.806,1.414,1.414,0,0,1,1.784,0,1.151,1.151,0,0,1,0,1.622,1.4,1.4,0,0,1-1.772,0,1.07,1.07,0,0,1-.34-.815Zm7.164,7.608,1.516-5.5h2.277l-2.753,8.159h-2.081l-2.752-8.159h2.277Zm4.3-1.493a4.839,4.839,0,0,1,.468-2.164,3.423,3.423,0,0,1,1.346-1.471,3.927,3.927,0,0,1,2.039-.52,3.715,3.715,0,0,1,2.7,1.011,4.056,4.056,0,0,1,1.165,2.745l.015.558a4.264,4.264,0,0,1-1.048,3.012,4.062,4.062,0,0,1-5.629,0,4.339,4.339,0,0,1-1.052-3.077Zm2.179.159a3.041,3.041,0,0,0,.438,1.776A1.573,1.573,0,0,0,271,344.3a3.328,3.328,0,0,0,.445-1.942,3.011,3.011,0,0,0-.445-1.765,1.447,1.447,0,0,0-1.252-.625,1.423,1.423,0,0,0-1.236.622,3.384,3.384,0,0,0-.438,1.926Z" transform="translate(433.969 3793.407)" fill="#12263f"/>
    <path id="Trazado_910788" data-name="Trazado 910788" d="M0,0V366.427" transform="translate(753.091 3791.397)" fill="none" stroke="#5e6178" stroke-width="2" stroke-dasharray="4"/>
    <path id="Trazado_910789" data-name="Trazado 910789" d="M0,0V366.427" transform="translate(988.913 3791.397)" fill="none" stroke="#5e6178" stroke-width="2" stroke-dasharray="4"/>
  </g>
</svg>
