<svg xmlns="http://www.w3.org/2000/svg" width="505" height="255" viewBox="0 0 505 255">
  <g id="Grupo_1117395" data-name="Grupo 1117395" transform="translate(-915 -4448)">
    <g id="Grupo_1117307" data-name="Grupo 1117307" transform="translate(915 4448)">
      <rect id="Rectángulo_405611" data-name="Rectángulo 405611" width="505" height="255" fill="#dcecf7"/>
    </g>
    <g id="Grupo_1117394" data-name="Grupo 1117394" transform="translate(0 -10)">
      <g id="Grupo_1117308" data-name="Grupo 1117308" transform="translate(1028.822 4448.299)">
        <path id="Trazado_908740" data-name="Trazado 908740" d="M.435,96.938C5.29,145.216,79.392,230.485,129.127,225.484S185.4,127.1,180.541,78.823,131.432-4.527,81.7.475-4.42,48.665.435,96.938Z" transform="matrix(0.292, 0.956, -0.956, 0.292, 224.417, 24.753)" fill="#aed3f2"/>
        <path id="Trazado_908741" data-name="Trazado 908741" d="M6,237.64c0,54.639,98.345,114.316,152.6,114.316S271.139,292.279,271.139,237.64s-22.889-91.64-103-50.21C119.871,212.387,6,183,6,237.64Z" transform="translate(5.672 -116.106)" fill="#d9a171"/>
      </g>
      <g id="Grupo_1117393" data-name="Grupo 1117393" transform="translate(1077.466 4477.754)">
        <g id="Grupo_1117370" data-name="Grupo 1117370">
          <g id="Grupo_1117335" data-name="Grupo 1117335" transform="translate(65.875)">
            <g id="Grupo_1117310" data-name="Grupo 1117310" transform="translate(18.078 8.179)">
              <path id="Trazado_908742" data-name="Trazado 908742" d="M374.14,108.7l.671,53.992c.114,9.182-1.594,22.693-16.12,22.211h0c-12.571-1.369-15.906-13.269-16-21.837-.046-4.064-.093-7.454-.126-7.871,0,0-13.761-1.122-14.922-14.714-.562-6.568-.616-20.191-.523-32.515a25.409,25.409,0,0,1,23.567-25.135l1.312-.1C366.21,82.525,374.326,94.482,374.14,108.7Z" transform="translate(-327.08 -82.73)" fill="#ffbe9d"/>
              <g id="Grupo_1117309" data-name="Grupo 1117309" transform="translate(15.481 65.932)">
                <path id="Trazado_908743" data-name="Trazado 908743" d="M355.386,214.318a32.953,32.953,0,0,0,17.331-6.53s-3.6,10.252-17.259,10.018Z" transform="translate(-355.386 -207.788)" fill="#eb996e"/>
              </g>
            </g>
            <g id="Grupo_1117321" data-name="Grupo 1117321" transform="translate(20.676 28.712)">
              <g id="Grupo_1117320" data-name="Grupo 1117320">
                <g id="Grupo_1117316" data-name="Grupo 1117316" transform="translate(9.53 7.865)">
                  <g id="Grupo_1117312" data-name="Grupo 1117312" transform="translate(11.11)">
                    <g id="Grupo_1117311" data-name="Grupo 1117311">
                      <path id="Trazado_908744" data-name="Trazado 908744" d="M357.657,139c.27.275,1.839-.989,4.117-1.049,2.274-.1,3.978,1.056,4.217.763.118-.131-.163-.633-.906-1.154a5.7,5.7,0,0,0-3.385-.961,5.5,5.5,0,0,0-3.267,1.189C357.748,138.358,357.525,138.877,357.657,139Z" transform="translate(-357.621 -136.595)" fill="#263238"/>
                    </g>
                  </g>
                  <g id="Grupo_1117314" data-name="Grupo 1117314" transform="translate(11.625 5.318)">
                    <g id="Grupo_1117313" data-name="Grupo 1117313">
                      <path id="Trazado_908745" data-name="Trazado 908745" d="M365.585,148.478a1.843,1.843,0,0,0,1.907,1.725,1.762,1.762,0,0,0,1.773-1.8,1.843,1.843,0,0,0-1.9-1.726,1.764,1.764,0,0,0-1.775,1.8Z" transform="translate(-365.584 -146.681)" fill="#263238"/>
                    </g>
                  </g>
                  <g id="Grupo_1117315" data-name="Grupo 1117315" transform="translate(0 0.756)">
                    <path id="Trazado_908746" data-name="Trazado 908746" d="M389.739,155.518a13.87,13.87,0,0,0-3.44-.364c-.538-.016-1.051-.085-1.167-.443a2.723,2.723,0,0,1,.241-1.608l1.282-4.18c1.77-5.948,3.009-10.823,2.77-10.892s-1.87,4.7-3.639,10.643l-1.214,4.2a3.1,3.1,0,0,0-.123,2.116,1.342,1.342,0,0,0,.934.716,3.618,3.618,0,0,0,.916.06,13.607,13.607,0,0,0,3.44-.248Z" transform="translate(-384.297 -138.03)" fill="#263238"/>
                  </g>
                </g>
                <g id="Grupo_1117318" data-name="Grupo 1117318" transform="translate(21.631)">
                  <g id="Grupo_1117317" data-name="Grupo 1117317">
                    <path id="Trazado_908747" data-name="Trazado 908747" d="M355.574,123.384c.22.5,2.043.125,4.226.237,2.185.066,3.978.594,4.231.108.112-.233-.228-.7-.97-1.148a6.888,6.888,0,0,0-3.2-.9,6.815,6.815,0,0,0-3.247.637C355.848,122.707,355.479,123.144,355.574,123.384Z" transform="translate(-355.56 -121.676)" fill="#263238"/>
                  </g>
                </g>
                <g id="Grupo_1117319" data-name="Grupo 1117319" transform="translate(0 4.161)">
                  <path id="Trazado_908748" data-name="Trazado 908748" d="M396.834,131.335c.239.412,2.016-.045,4.169-.112,2.154-.1,3.941.209,4.168-.221.1-.205-.255-.574-1.006-.9a7.519,7.519,0,0,0-3.185-.527,7.774,7.774,0,0,0-3.167.78C397.074,130.741,396.729,131.138,396.834,131.335Z" transform="translate(-396.816 -129.568)" fill="#263238"/>
                </g>
              </g>
            </g>
            <g id="Grupo_1117323" data-name="Grupo 1117323" transform="translate(64.763 43.627)">
              <g id="Grupo_1117322" data-name="Grupo 1117322">
                <path id="Trazado_908749" data-name="Trazado 908749" d="M310.982,150.64c.225-.118,9.146-3.447,9.527,5.875s-9.056,7.783-9.083,7.516S310.982,150.64,310.982,150.64Z" transform="translate(-310.982 -149.967)" fill="#ffbe9d"/>
              </g>
            </g>
            <g id="Grupo_1117324" data-name="Grupo 1117324" transform="translate(67.902 46.595)">
              <path id="Trazado_908750" data-name="Trazado 908750" d="M315.48,163.043c.04-.031.168.108.447.222a1.625,1.625,0,0,0,1.215-.025c.97-.4,1.735-2,1.712-3.682a5.377,5.377,0,0,0-.55-2.307,1.877,1.877,0,0,0-1.273-1.2.827.827,0,0,0-.94.484c-.114.266-.047.45-.1.468-.025.024-.207-.148-.147-.536a1.037,1.037,0,0,1,.343-.6,1.229,1.229,0,0,1,.888-.274,2.282,2.282,0,0,1,1.756,1.376,5.513,5.513,0,0,1,.67,2.575c.017,1.881-.873,3.678-2.2,4.123a1.739,1.739,0,0,1-1.5-.186C315.506,163.268,315.449,163.061,315.48,163.043Z" transform="translate(-315.473 -155.595)" fill="#eb996e"/>
            </g>
            <g id="Grupo_1117326" data-name="Grupo 1117326" transform="translate(37.844 55.275)">
              <g id="Grupo_1117325" data-name="Grupo 1117325">
                <path id="Trazado_908751" data-name="Trazado 908751" d="M370.77,178.061c-.1-.236,1.725-.782,3.008-2.5a10.449,10.449,0,0,0,1.29-2.435c.272-.676.478-1.1.579-1.07s.071.488-.079,1.224a6.883,6.883,0,0,1-1.2,2.727,5.577,5.577,0,0,1-2.381,1.823C371.277,178.123,370.8,178.141,370.77,178.061Z" transform="translate(-370.766 -172.059)" fill="#263238"/>
              </g>
            </g>
            <path id="Trazado_908752" data-name="Trazado 908752" d="M304.381,88.427a2.2,2.2,0,0,1,1.034-1.285,6.77,6.77,0,0,1,3.475-.564,19.629,19.629,0,0,0,10.222-3.107,45.758,45.758,0,0,1,4.757-5.765c4.12-4.248,7.51-7.139,11.016-8.551,4.536-1.826,12.122-2.566,16.85-1.325s8.977,5.078,9.634,9.923c2.652-2.243,6.634-2.224,9.864-.925l.081-.035c3.6,1.282,5.641,5.083,6.7,8.751s1.514,7.591,3.457,10.88c.407.687.889,1.512.534,2.227a1.517,1.517,0,0,1-1.588.692,4.453,4.453,0,0,1-1.675-.758l1.2,2.882a8.5,8.5,0,0,1-3.913-.261,83.3,83.3,0,0,1-2.559,9.674c-1.5,0-2.88.1-3.807.937-1.26,1.132-1.824,3.264-3.917,2.455-1.065-.412-2.038-2.647-2.395-3.733a53.045,53.045,0,0,1-2.3-22.455,17.051,17.051,0,0,0-5.265-3.8l.161.145c-3.8-1.32-8.1-2.617-11.7-.834-2.8,1.383-4.439,4.284-6.529,6.6a21.341,21.341,0,0,1-15.21,7.026c-.2,3.827.121,9.237-.08,13.064l-3.22-6.131v.031a15.172,15.172,0,0,1-.692-1.354l-.073-.138v-.017a24.018,24.018,0,0,0-1.077-2.177l-.037.033a2.391,2.391,0,0,1-3.494-3.2A5.406,5.406,0,0,1,315,96.17a3.783,3.783,0,0,1-3.6.934,2.967,2.967,0,0,1-2.1-2.935,2.524,2.524,0,0,1,1.5-2.025,8.526,8.526,0,0,1-4.848-1.069C305,90.53,304.057,89.631,304.381,88.427Z" transform="translate(-304.316 -67.216)" fill="#263238"/>
            <g id="Grupo_1117328" data-name="Grupo 1117328" transform="translate(52.774 12.097)">
              <g id="Grupo_1117327" data-name="Grupo 1117327">
                <path id="Trazado_908753" data-name="Trazado 908753" d="M313.967,90.162a11.743,11.743,0,0,1,1.364,1.247,9.748,9.748,0,0,1,2.087,4.515,17.1,17.1,0,0,1,.347,3.455c.006,1.252-.1,2.593-.191,4.006a35.863,35.863,0,0,0-.1,4.459,15.71,15.71,0,0,0,.306,2.352,4.9,4.9,0,0,0,.96,2.281,2.052,2.052,0,0,0,1.919.645,3.057,3.057,0,0,0,1.727-.975,7.052,7.052,0,0,0,1.311-3.457l-.286.035a11.392,11.392,0,0,0,1.654,2.849,4.05,4.05,0,0,0,2.645,1.44,2.62,2.62,0,0,0,1.4-.246,2.262,2.262,0,0,0,.952-.938,2.334,2.334,0,0,0,.289-1.206,1.692,1.692,0,0,0-.437-1.057l-.145.129a8.775,8.775,0,0,0,2.921,2.191,7.949,7.949,0,0,0,.9.352,1.479,1.479,0,0,0,.324.08,1.645,1.645,0,0,0-.307-.131c-.2-.083-.5-.2-.877-.394a9.041,9.041,0,0,1-2.819-2.224l-.145.129a1.742,1.742,0,0,1,.09,2.02,2.032,2.032,0,0,1-.861.83,2.37,2.37,0,0,1-1.271.207,3.794,3.794,0,0,1-2.455-1.369,11.225,11.225,0,0,1-1.593-2.787l-.2-.437-.09.471a6.82,6.82,0,0,1-1.247,3.3,2.749,2.749,0,0,1-1.545.872,1.731,1.731,0,0,1-1.631-.546,4.642,4.642,0,0,1-.886-2.135,15.581,15.581,0,0,1-.3-2.3,36.391,36.391,0,0,1,.084-4.421c.088-1.412.179-2.759.162-4.027a17.06,17.06,0,0,0-.391-3.5,9.618,9.618,0,0,0-2.215-4.549,5.529,5.529,0,0,0-1.455-1.166Z" transform="translate(-313.966 -90.162)" fill="#455a64"/>
              </g>
            </g>
            <g id="Grupo_1117329" data-name="Grupo 1117329" transform="translate(10.713 4.465)">
              <path id="Trazado_908754" data-name="Trazado 908754" d="M352.693,96.547a.976.976,0,0,0,.109.093l.34.247a4.511,4.511,0,0,0,.576.37,7.362,7.362,0,0,0,.827.435,12.065,12.065,0,0,0,5.819,1.047,15.41,15.41,0,0,0,8.206-3.03,26.679,26.679,0,0,0,7.049-8.125c.989-1.646,1.8-3.334,2.684-4.893a18.023,18.023,0,0,1,3.038-4.139,9.283,9.283,0,0,1,3.918-2.378,6.654,6.654,0,0,1,2.066-.238,7.312,7.312,0,0,1,1.892.363,7.869,7.869,0,0,1,4.369,3.7,9.419,9.419,0,0,1,.7,2.039.489.489,0,0,0-.011-.142l-.064-.417a6.8,6.8,0,0,0-.516-1.535,7.736,7.736,0,0,0-1.522-2.064,7.954,7.954,0,0,0-2.884-1.79,7.476,7.476,0,0,0-1.952-.4,6.878,6.878,0,0,0-2.149.229,9.51,9.51,0,0,0-4.052,2.421,18.177,18.177,0,0,0-3.1,4.2c-.9,1.57-1.706,3.253-2.686,4.885a26.683,26.683,0,0,1-6.949,8.051,15.31,15.31,0,0,1-8.047,3.043,12.243,12.243,0,0,1-5.755-.935A19.135,19.135,0,0,1,352.693,96.547Z" transform="translate(-352.693 -75.685)" fill="#455a64"/>
            </g>
            <g id="Grupo_1117330" data-name="Grupo 1117330" transform="translate(9.475 19.348)">
              <path id="Trazado_908755" data-name="Trazado 908755" d="M406.608,103.919a2.129,2.129,0,0,0,.488.34,10.553,10.553,0,0,0,1.444.733,14.057,14.057,0,0,0,2.286.751,14.8,14.8,0,0,0,5.866.188,14.093,14.093,0,0,0,2.33-.6,10.566,10.566,0,0,0,1.488-.639,2.148,2.148,0,0,0,.508-.307c-.026-.054-.778.332-2.067.733a16.1,16.1,0,0,1-2.3.527,15.881,15.881,0,0,1-5.756-.185,16.054,16.054,0,0,1-2.266-.674C407.363,104.3,406.638,103.868,406.608,103.919Z" transform="translate(-406.607 -103.915)" fill="#455a64"/>
            </g>
            <g id="Grupo_1117332" data-name="Grupo 1117332" transform="translate(20.556 37.435)">
              <g id="Grupo_1117331" data-name="Grupo 1117331">
                <path id="Trazado_908756" data-name="Trazado 908756" d="M397.034,140.626c.271.275,1.839-.989,4.117-1.05,2.274-.1,3.978,1.056,4.217.763.118-.131-.163-.633-.906-1.154a5.7,5.7,0,0,0-3.385-.961,5.5,5.5,0,0,0-3.267,1.188C397.125,139.985,396.9,140.5,397.034,140.626Z" transform="translate(-396.998 -138.222)" fill="#263238"/>
              </g>
            </g>
            <g id="Grupo_1117334" data-name="Grupo 1117334" transform="translate(22.913 42.556)">
              <g id="Grupo_1117333" data-name="Grupo 1117333">
                <path id="Trazado_908757" data-name="Trazado 908757" d="M401.469,149.732a1.842,1.842,0,0,0,1.907,1.725,1.762,1.762,0,0,0,1.773-1.8,1.844,1.844,0,0,0-1.906-1.726,1.764,1.764,0,0,0-1.774,1.8Z" transform="translate(-401.468 -147.935)" fill="#263238"/>
              </g>
            </g>
          </g>
          <g id="Grupo_1117336" data-name="Grupo 1117336" transform="translate(0 88.789)">
            <path id="Trazado_908758" data-name="Trazado 908758" d="M517.162,240.9a3.753,3.753,0,0,1,3.774-3.949,2.634,2.634,0,0,1,3.055-1.2l6.11,4.121c.9,1.545,6.829,7.384,6.829,7.384,1.618-1.2,1.618-3.606,3.556-6.526s6.329-2.575,6.329-2.575-3.415,7.727-3.774,12.536,2.625,18.22,2.625,18.22l-17.275,4.855s-1.09-7.357-3.026-7.951c-2.33-.715-3.627-4.152-3.627-4.152-2.518-5.1-7.631-12.517-8.351-16.295S517.162,240.9,517.162,240.9Z" transform="translate(-513.31 -235.629)" fill="#ffbe9d"/>
          </g>
          <g id="Grupo_1117357" data-name="Grupo 1117357" transform="translate(8.529 85.523)">
            <g id="Grupo_1117343" data-name="Grupo 1117343">
              <g id="Grupo_1117337" data-name="Grupo 1117337" transform="translate(56.973)">
                <path id="Trazado_908759" data-name="Trazado 908759" d="M334.713,229.433c-11,6.914-22.093,9.516-33.324,5.038l-16.883,4.313L267.9,349.757l97.388.846-4.8-25.775L348.414,232.22Z" transform="translate(-267.897 -229.433)" fill="#455a64"/>
              </g>
              <g id="Grupo_1117338" data-name="Grupo 1117338" transform="translate(0 9.35)">
                <path id="Trazado_908760" data-name="Trazado 908760" d="M494.7,247.168s-13.131,5.452-18.142,15-13.067,36.361-13.067,36.361l-14.837-27.248-27.537,7.039s20.5,56.537,25.643,61.685c5.634,5.635,20.986,11.317,28.5,6.932s9.047-21.03,9.047-21.03Z" transform="translate(-421.115 -247.168)" fill="#455a64"/>
              </g>
              <g id="Grupo_1117340" data-name="Grupo 1117340" transform="translate(72.541 33.749)">
                <g id="Grupo_1117339" data-name="Grupo 1117339">
                  <path id="Trazado_908761" data-name="Trazado 908761" d="M422.709,315.464c.076,0,.137-4.929.137-11.008s-.061-11.009-.137-11.009-.137,4.928-.137,11.009S422.633,315.464,422.709,315.464Z" transform="translate(-422.572 -293.447)" fill="#263238"/>
                </g>
              </g>
              <g id="Grupo_1117342" data-name="Grupo 1117342" transform="translate(67.534 15.691)">
                <g id="Grupo_1117341" data-name="Grupo 1117341">
                  <path id="Trazado_908762" data-name="Trazado 908762" d="M425.208,259.2a16.477,16.477,0,0,0,.641,1.818c.413,1.114.962,2.661,1.5,4.392s.956,3.318,1.245,4.471a16.635,16.635,0,0,0,.5,1.862,1.878,1.878,0,0,0-.051-.517c-.05-.33-.137-.8-.258-1.388-.241-1.168-.634-2.769-1.172-4.509s-1.12-3.282-1.581-4.382c-.23-.55-.425-.991-.571-1.291a1.916,1.916,0,0,0-.253-.456Z" transform="translate(-425.205 -259.195)" fill="#263238"/>
                </g>
              </g>
            </g>
            <g id="Grupo_1117356" data-name="Grupo 1117356" transform="translate(136.225 2.53)">
              <path id="Trazado_908763" data-name="Trazado 908763" d="M195.383,276.046l-3.047-41.815s22.923,2.127,30.509,18.3c6.392,13.629,24.038,54.632,25.927,60.242,5.542,16.46-3.116,39.089-38.809,37.778l-4.07-22.377Z" transform="translate(-192.336 -234.231)" fill="#455a64"/>
              <g id="Grupo_1117344" data-name="Grupo 1117344" transform="translate(14.1 89.75)">
                <path id="Trazado_908764" data-name="Trazado 908764" d="M262.447,413.323a2.623,2.623,0,0,0-.187-.4l-.582-1.126-2.186-4.114-.73-1.361a4.028,4.028,0,0,0-1.049-1.347,2.849,2.849,0,0,0-1.762-.507,8.028,8.028,0,0,0-1.9.308,19.52,19.52,0,0,0-3.836,1.45,10.207,10.207,0,0,0-1.842,1.174l-.212.184a.684.684,0,0,0-.18.283,2.356,2.356,0,0,0-.116.576,8.978,8.978,0,0,0-.025,1.136c.056,1.512.244,2.968.432,4.373s.407,2.753.623,4.036c.431,2.566.863,4.869,1.233,6.8l.9,4.572q.153.781.245,1.242a3.526,3.526,0,0,0,.092.433,2.163,2.163,0,0,0-.037-.441c-.038-.288-.1-.71-.2-1.253-.2-1.11-.471-2.671-.81-4.588-.345-1.936-.757-4.241-1.174-6.807-.208-1.283-.416-2.631-.606-4.032s-.369-2.855-.424-4.345a8.857,8.857,0,0,1,.024-1.1,2.134,2.134,0,0,1,.1-.508.4.4,0,0,1,.109-.178l.2-.176a9.984,9.984,0,0,1,1.79-1.144,19.511,19.511,0,0,1,3.777-1.445,7.851,7.851,0,0,1,1.839-.311,2.623,2.623,0,0,1,1.624.449,3.843,3.843,0,0,1,1,1.267l.745,1.351,2.263,4.072.627,1.1a2.649,2.649,0,0,0,.23.377Z" transform="translate(-247.833 -404.466)" fill="#263238"/>
              </g>
              <g id="Grupo_1117345" data-name="Grupo 1117345" transform="translate(24.628 78.733)">
                <path id="Trazado_908765" data-name="Trazado 908765" d="M237.056,383.579a1,1,0,0,0-.269-.009l-.77.03c-.667.033-1.633.09-2.825.2a36.6,36.6,0,0,0-4.163.606,21.309,21.309,0,0,0-4.9,1.622,19.181,19.181,0,0,0-4.307,2.842,11.509,11.509,0,0,0-2.615,3.3,7.312,7.312,0,0,0-.792,2.727,4.857,4.857,0,0,0-.015.773.969.969,0,0,0,.023.268c.03,0,.02-.372.1-1.03a7.693,7.693,0,0,1,.859-2.65,11.653,11.653,0,0,1,2.611-3.2,19.553,19.553,0,0,1,4.259-2.784,21.817,21.817,0,0,1,4.829-1.622,40.506,40.506,0,0,1,4.13-.66c1.185-.135,2.148-.221,2.813-.287l.766-.081A1,1,0,0,0,237.056,383.579Z" transform="translate(-216.393 -383.569)" fill="#263238"/>
              </g>
              <g id="Grupo_1117347" data-name="Grupo 1117347" transform="translate(20.759 76.631)">
                <g id="Grupo_1117346" data-name="Grupo 1117346">
                  <path id="Trazado_908766" data-name="Trazado 908766" d="M254.021,379.583a9.9,9.9,0,0,0,.57,1.645c.393,1,.977,2.366,1.649,3.861l1.721,3.824a12.223,12.223,0,0,0,.749,1.57,9.854,9.854,0,0,0-.57-1.645c-.392-1-.977-2.366-1.649-3.861l-1.72-3.823a12.189,12.189,0,0,0-.75-1.571Z" transform="translate(-254.017 -379.583)" fill="#263238"/>
                </g>
              </g>
              <g id="Grupo_1117349" data-name="Grupo 1117349" transform="translate(7.94 31.882)">
                <g id="Grupo_1117348" data-name="Grupo 1117348">
                  <path id="Trazado_908767" data-name="Trazado 908767" d="M286.854,306.543c.076,0,.137-2.65.137-5.919s-.061-5.92-.137-5.92-.137,2.65-.137,5.92S286.778,306.543,286.854,306.543Z" transform="translate(-286.717 -294.704)" fill="#263238"/>
                </g>
              </g>
              <g id="Grupo_1117351" data-name="Grupo 1117351" transform="translate(24.659 91.106)" opacity="0.3">
                <g id="Grupo_1117350" data-name="Grupo 1117350">
                  <path id="Trazado_908768" data-name="Trazado 908768" d="M232.938,407.038c6.03,2.1,10.107,7.576,11.754,13.746a2.131,2.131,0,0,1-.145,1.922,1.518,1.518,0,0,1-1.893.155,4.422,4.422,0,0,1-1.342-1.546,158.375,158.375,0,0,1-8.373-14.277Z" transform="translate(-232.938 -407.038)"/>
                </g>
              </g>
              <g id="Grupo_1117353" data-name="Grupo 1117353" transform="translate(25.451 76.431)">
                <g id="Grupo_1117352" data-name="Grupo 1117352" opacity="0.3">
                  <path id="Trazado_908769" data-name="Trazado 908769" d="M211.922,381.947a24.319,24.319,0,0,1,10.38-2.723,15.763,15.763,0,0,1,4.2.369c1.882.4,4.046,1.347,4.458,2.7-4.328-1.356-10.7-.463-15.13.506a16.253,16.253,0,0,0-10.593,7.505,15.114,15.114,0,0,1,6.685-8.357Z" transform="translate(-205.232 -379.202)"/>
                </g>
              </g>
              <g id="Grupo_1117355" data-name="Grupo 1117355" transform="translate(11.445 11.016)">
                <g id="Grupo_1117354" data-name="Grupo 1117354">
                  <path id="Trazado_908770" data-name="Trazado 908770" d="M263.956,270.025a3.329,3.329,0,0,0,.21-.66c.113-.43.3-1.045.545-1.8a29.022,29.022,0,0,1,6.229-10.587c.537-.583.986-1.043,1.307-1.35a3.378,3.378,0,0,0,.474-.5,3.372,3.372,0,0,0-.547.425c-.344.284-.817.725-1.376,1.295a26.131,26.131,0,0,0-6.273,10.662c-.227.765-.383,1.392-.464,1.831a3.382,3.382,0,0,0-.1.684Z" transform="translate(-263.952 -255.125)" fill="#263238"/>
                </g>
              </g>
            </g>
          </g>
          <g id="Grupo_1117364" data-name="Grupo 1117364" transform="translate(37.809 131.774)">
            <g id="Grupo_1117358" data-name="Grupo 1117358" transform="translate(18.058)">
              <path id="Trazado_908771" data-name="Trazado 908771" d="M339.258,392.063,364.8,330.435c1.166-2.813-.3-5.092-3.266-5.092H356.4c-2.1,0-3.526-1.155-3.661-2.959l-.17-2.266c-.136-1.8-1.567-2.958-3.667-2.958h-24.42a8.549,8.549,0,0,0-5.655,2.5l-1.982,1.921a8.539,8.539,0,0,1-5.65,2.5h-31.1a8.679,8.679,0,0,0-7.428,5.092l-25.322,62.886Z" transform="translate(-247.339 -317.16)" fill="#6595bf"/>
            </g>
            <g id="Grupo_1117359" data-name="Grupo 1117359" transform="translate(27.694 11.813)">
              <path id="Trazado_908772" data-name="Trazado 908772" d="M356.509,381.726l9.634-37.247c.634-2.453-.972-4.913-3.208-4.913H287.424a3.444,3.444,0,0,0-3.215,2.774L270.186,398.4c-.616,2.461.368,3.938,2.606,3.91l75.976.024a3.446,3.446,0,0,0,3.173-2.752Z" transform="translate(-270.005 -339.566)" fill="#e0e0e0"/>
            </g>
            <g id="Grupo_1117362" data-name="Grupo 1117362" transform="translate(12.79 10.712)">
              <g id="Grupo_1117360" data-name="Grupo 1117360" transform="translate(18.465)">
                <path id="Trazado_908773" data-name="Trazado 908773" d="M368.363,399.984l4.1-58.656a3.6,3.6,0,0,0-3.588-3.849H290.64v62.5Z" transform="translate(-290.64 -337.479)" fill="#ebebeb"/>
              </g>
              <g id="Grupo_1117361" data-name="Grupo 1117361">
                <path id="Trazado_908774" data-name="Trazado 908774" d="M393.845,401.326l-9.308-60.47a4.333,4.333,0,0,0-4.254-3.377H301.135a4.278,4.278,0,0,0-4,5.96l17.09,55.339Z" transform="translate(-296.78 -337.479)" fill="#fafafa"/>
              </g>
            </g>
            <g id="Grupo_1117363" data-name="Grupo 1117363" transform="translate(0 14.304)">
              <path id="Trazado_908775" data-name="Trazado 908775" d="M406.526,404.864l-19.2-56.634a5.682,5.682,0,0,0-5.339-3.937H300.4a3.987,3.987,0,0,0-3.644,5.291l17.854,55.308Z" transform="translate(-296.55 -344.292)" fill="#6595bf"/>
            </g>
          </g>
          <g id="Grupo_1117366" data-name="Grupo 1117366" transform="translate(107.039 172.831)" opacity="0.3">
            <g id="Grupo_1117365" data-name="Grupo 1117365">
              <path id="Trazado_908776" data-name="Trazado 908776" d="M301,419.373s3.08.14,4.5.237a41.92,41.92,0,0,0,19.825-3.517c1.92-.856,3.951-2.063,4.531-4.083.651-2.262-.815-4.617-2.6-6.15s-3.958-2.626-5.509-4.4-2.285-4.637-.757-6.428l.422.309c1.1,2.8,4.178,4.146,6.724,5.746a23.726,23.726,0,0,1,9.963,13.022c.9,2.932,1.135,6.352-.643,8.85a11.019,11.019,0,0,1-5.365,3.535c-6.173,2.289-12.77,2.375-19.353,2.383-2.08,0-8.464-.085-8.464-.085-2.007-.546-2.67-1.591-3.878-3.284C299.289,423.957,299.531,420.591,301,419.373Z" transform="translate(-299.706 -395.036)"/>
            </g>
          </g>
          <g id="Grupo_1117369" data-name="Grupo 1117369" transform="translate(108.334 171.481)">
            <path id="Trazado_908777" data-name="Trazado 908777" d="M270.006,418.162l21.281-3.2,8.262-4.754a3.729,3.729,0,0,0,1.9-3v-.07a3.774,3.774,0,0,0-2.338-3.6c-2.622-1.1-6.774-2.573-8.545-5.676-2.545-4.459,0-5.384,0-5.384l17.771,7.1,12.58,8.562,2.531,14.276L305.9,428.152s-19.559,1.1-24.956.5-5.4-3.119-5.4-3.119c-1-.313-3.028-2.093-3.028-3.751-2.619-2.457-2.512-3.616-2.512-3.616" transform="translate(-270.005 -392.476)" fill="#ffbe9d"/>
            <g id="Grupo_1117367" data-name="Grupo 1117367" transform="translate(4.806 31.826)">
              <path id="Trazado_908778" data-name="Trazado 908778" d="M342.164,452.847a4.229,4.229,0,0,0-.877.167c-.556.135-1.365.314-2.367.514a50.054,50.054,0,0,1-15.883.619c-1.015-.121-1.835-.236-2.4-.328a4.222,4.222,0,0,0-.887-.1,4.264,4.264,0,0,0,.861.237c.559.134,1.376.288,2.392.443a43.216,43.216,0,0,0,15.971-.623c1-.233,1.8-.451,2.35-.628a4.2,4.2,0,0,0,.84-.3Z" transform="translate(-319.75 -452.842)" fill="#eb996e"/>
            </g>
            <g id="Grupo_1117368" data-name="Grupo 1117368" transform="translate(2.512 28.536)">
              <path id="Trazado_908779" data-name="Trazado 908779" d="M346.2,446.607a4.4,4.4,0,0,0-.89.17c-.564.137-1.386.315-2.4.511a51.625,51.625,0,0,1-8.044.889,54.6,54.6,0,0,1-8.089-.371c-1.03-.124-1.863-.243-2.436-.335a4.4,4.4,0,0,0-.9-.1,4.357,4.357,0,0,0,.875.24c.567.136,1.4.293,2.428.451a45.83,45.83,0,0,0,8.134.479,43.654,43.654,0,0,0,8.085-1c1.018-.229,1.834-.446,2.39-.625A4.337,4.337,0,0,0,346.2,446.607Z" transform="translate(-323.435 -446.602)" fill="#eb996e"/>
            </g>
          </g>
        </g>
        <g id="Grupo_1117392" data-name="Grupo 1117392" transform="translate(0.037 62.101)">
          <g id="Grupo_1117385" data-name="Grupo 1117385" transform="translate(4.126)">
            <g id="Grupo_1117375" data-name="Grupo 1117375">
              <g id="Grupo_1117373" data-name="Grupo 1117373" transform="translate(0.046 0.14)">
                <path id="Trazado_908780" data-name="Trazado 908780" d="M463.145,244.339l37.811,7.468a4.822,4.822,0,0,0,5.665-3.8l10.337-52.336a4.822,4.822,0,0,0-3.8-5.665l-23.98-4.737-22.341,15.466-7.493,37.935a4.823,4.823,0,0,0,3.8,5.669Z" transform="translate(-459.256 -185.273)" fill="#ebebeb"/>
                <g id="Grupo_1117371" data-name="Grupo 1117371" transform="translate(7.585)">
                  <path id="Trazado_908781" data-name="Trazado 908781" d="M534.457,185.273,531.548,200a4.485,4.485,0,0,1-5.269,3.531l-14.163-2.8Z" transform="translate(-512.116 -185.273)" fill="#f5f5f5"/>
                </g>
                <g id="Grupo_1117372" data-name="Grupo 1117372" transform="translate(6.803 15.466)">
                  <path id="Trazado_908782" data-name="Trazado 908782" d="M538.25,215.126a4.987,4.987,0,0,1-4.818,3.98,4.674,4.674,0,0,1-.486.013c-1.915-.035-14.516-.274-14.461-.553.059-.3.782-3.958.782-3.958l14.163,2.8S536.99,217.983,538.25,215.126Z" transform="translate(-518.485 -214.608)" fill="#e0e0e0"/>
                </g>
              </g>
              <path id="Trazado_908783" data-name="Trazado 908783" d="M462.935,244.214s-.069-.023-.2-.06a4.129,4.129,0,0,1-.6-.194,4.824,4.824,0,0,1-1.952-1.422,4.775,4.775,0,0,1-1.039-3.677c.276-1.532.653-3.3,1.041-5.274,1.576-7.919,3.832-19.254,6.557-32.949l-.047.072,22.351-15.452-.1.021,13.836,2.737,7.238,1.431,1.837.363a12.334,12.334,0,0,1,1.807.426,4.687,4.687,0,0,1,2.618,2.452,4.62,4.62,0,0,1,.38,2.506c-.133.849-.329,1.718-.49,2.572l-1.008,5.1-1.969,9.981-3.718,18.869-1.73,8.787q-.42,2.137-.828,4.21-.2,1.036-.4,2.056a11.031,11.031,0,0,1-.482,1.977,4.717,4.717,0,0,1-4.631,2.9,17.855,17.855,0,0,1-1.873-.319l-7.139-1.4-21.546-4.211-5.861-1.131-1.525-.287c-.344-.063-.521-.089-.521-.089s.174.044.516.116l1.52.314,5.85,1.182,21.53,4.3,7.135,1.418a18.033,18.033,0,0,0,1.9.327,4.889,4.889,0,0,0,1.963-.281,4.948,4.948,0,0,0,2.892-2.751,11.231,11.231,0,0,0,.5-2.019q.2-1.019.408-2.056l.835-4.208,1.741-8.785,3.734-18.866,1.973-9.981,1.009-5.1c.162-.863.355-1.7.494-2.591a4.9,4.9,0,0,0-.4-2.654,4.962,4.962,0,0,0-2.772-2.595,12.511,12.511,0,0,0-1.851-.439l-1.836-.363-7.239-1.429L489,185.019l-.054-.011-.046.032-22.332,15.48-.038.026-.009.045c-2.686,13.7-4.909,25.045-6.462,32.969-.379,1.982-.744,3.74-1.012,5.286a4.839,4.839,0,0,0,1.087,3.735,4.787,4.787,0,0,0,1.992,1.411,3.6,3.6,0,0,0,.6.178Z" transform="translate(-459 -185.008)" fill="#263238"/>
              <g id="Grupo_1117374" data-name="Grupo 1117374" transform="translate(7.631 0.14)">
                <path id="Trazado_908784" data-name="Trazado 908784" d="M512.111,200.739a1.843,1.843,0,0,0,.358.1l1.039.231,3.828.8,5.684,1.151,3.364.665a4.629,4.629,0,0,0,4.816-2.336,5.342,5.342,0,0,0,.561-1.757c.228-1.165.447-2.29.656-3.362.411-2.137.782-4.065,1.1-5.7.3-1.6.54-2.9.715-3.844l.181-1.048a1.85,1.85,0,0,0,.045-.369,1.882,1.882,0,0,0-.1.358c-.058.264-.135.609-.231,1.038l-.8,3.828-1.153,5.684c-.215,1.071-.439,2.2-.672,3.359a5.084,5.084,0,0,1-.538,1.678,4.372,4.372,0,0,1-4.532,2.2l-3.359-.648-5.7-1.094-3.845-.714-1.048-.181a1.916,1.916,0,0,0-.369-.039Z" transform="translate(-512.111 -185.273)" fill="#263238"/>
              </g>
            </g>
            <g id="Grupo_1117377" data-name="Grupo 1117377" transform="translate(28.09 13.42)">
              <g id="Grupo_1117376" data-name="Grupo 1117376">
                <path id="Trazado_908785" data-name="Trazado 908785" d="M477.846,210.467c-.015.074,4.44,1.017,9.948,2.1s9.987,1.91,10,1.836-4.439-1.016-9.948-2.1S477.861,210.392,477.846,210.467Z" transform="translate(-477.846 -210.462)" fill="#263238"/>
              </g>
            </g>
            <g id="Grupo_1117378" data-name="Grupo 1117378" transform="translate(17.174 18.9)">
              <path id="Trazado_908786" data-name="Trazado 908786" d="M480.6,220.859c-.014.074,6.559,1.436,14.68,3.039s14.72,2.845,14.735,2.77-6.558-1.435-14.681-3.04S480.613,220.785,480.6,220.859Z" transform="translate(-480.598 -220.856)" fill="#263238"/>
            </g>
            <g id="Grupo_1117379" data-name="Grupo 1117379" transform="translate(15.723 26.247)">
              <path id="Trazado_908787" data-name="Trazado 908787" d="M483.351,234.8c-.015.074,6.558,1.436,14.68,3.039s14.72,2.845,14.735,2.771-6.557-1.435-14.681-3.04S483.366,234.722,483.351,234.8Z" transform="translate(-483.351 -234.793)" fill="#263238"/>
            </g>
            <g id="Grupo_1117380" data-name="Grupo 1117380" transform="translate(14.272 33.595)">
              <path id="Trazado_908788" data-name="Trazado 908788" d="M515.518,254.543c.015-.075-6.559-1.436-14.68-3.039s-14.72-2.845-14.735-2.77,6.558,1.435,14.681,3.04S515.5,254.617,515.518,254.543Z" transform="translate(-486.104 -248.73)" fill="#263238"/>
            </g>
            <g id="Grupo_1117381" data-name="Grupo 1117381" transform="translate(12.82 40.943)">
              <path id="Trazado_908789" data-name="Trazado 908789" d="M488.856,262.67c-.014.074,6.559,1.435,14.68,3.039s14.72,2.845,14.735,2.77-6.558-1.435-14.681-3.039S488.871,262.6,488.856,262.67Z" transform="translate(-488.856 -262.667)" fill="#263238"/>
            </g>
            <g id="Grupo_1117382" data-name="Grupo 1117382" transform="translate(11.369 48.291)">
              <path id="Trazado_908790" data-name="Trazado 908790" d="M491.609,276.607c-.015.074,6.559,1.435,14.68,3.039s14.72,2.844,14.735,2.77-6.557-1.435-14.681-3.039S491.624,276.533,491.609,276.607Z" transform="translate(-491.609 -276.604)" fill="#263238"/>
            </g>
            <g id="Grupo_1117383" data-name="Grupo 1117383" transform="translate(30.883 31.893) rotate(25)">
              <path id="Trazado_908791" data-name="Trazado 908791" d="M4.221,0H28.514a4.222,4.222,0,0,1,4.222,4.222v6.266a4.222,4.222,0,0,1-4.222,4.222H4.222A4.222,4.222,0,0,1,0,10.488V4.221A4.221,4.221,0,0,1,4.221,0Z" transform="translate(0 6.343) rotate(-11.173)" fill="#6595bf"/>
            </g>
            <g id="Grupo_1117384" data-name="Grupo 1117384" transform="translate(36.222 41.261) rotate(25)">
              <path id="Trazado_908792" data-name="Trazado 908792" d="M0,.569,2.477.08A2.771,2.771,0,0,1,6.022,2.212,2.772,2.772,0,0,1,3.554,5.533l-2.477.489Zm3.287,3.94A1.659,1.659,0,0,0,4.745,2.464,1.658,1.658,0,0,0,2.62,1.128l-1.153.228.668,3.38Z" transform="translate(0 2.68)" fill="#fff"/>
              <path id="Trazado_908793" data-name="Trazado 908793" d="M.058,3.477A2.877,2.877,0,0,1,2.485.068,2.879,2.879,0,1,1,3.6,5.708,2.877,2.877,0,0,1,.058,3.477Zm4.69-.926A1.7,1.7,0,0,0,2.7,1.143,1.7,1.7,0,0,0,1.335,3.225,1.7,1.7,0,0,0,3.386,4.633,1.7,1.7,0,0,0,4.748,2.551Z" transform="translate(6.57 1.295)" fill="#fff"/>
              <path id="Trazado_908794" data-name="Trazado 908794" d="M.059,3.474a2.856,2.856,0,0,1,2.4-3.4A2.87,2.87,0,0,1,4.9.593L4.235,1.5a1.788,1.788,0,0,0-1.5-.367,1.706,1.706,0,0,0-1.4,2.089,1.706,1.706,0,0,0,2.09,1.4A1.772,1.772,0,0,0,4.67,3.706l.959.587a2.856,2.856,0,0,1-2.06,1.418A2.853,2.853,0,0,1,.059,3.474Z" transform="translate(13.142)" fill="#fff"/>
            </g>
          </g>
          <g id="Grupo_1117391" data-name="Grupo 1117391" transform="translate(0 17.999)">
            <g id="Grupo_1117386" data-name="Grupo 1117386" transform="translate(0.204 0.103)">
              <path id="Trazado_908795" data-name="Trazado 908795" d="M554.458,221.5s-2.793-3.535-4.943-1.558-1.53,2.994.515,6.119c0,0-4.565-.24-3.1,4.449,0,0-4.549-.5-4.111,3.334,0,0-3.435,3.361-1.649,5.527s8.265,6.078,9.9,5.4,1.649-2.99,1.649-2.99a6.372,6.372,0,0,0,2.484-1.9c.538-1.025-.385-2.463-.385-2.463s1.641-1.677,2.048-2.145-.222-2.643-.222-2.643l-2.62-2.542s3.608,1.567,4.36.97,1.6-1.115.794-2.205a36.529,36.529,0,0,0-3.666-3.531Z" transform="translate(-540.654 -219.341)" fill="#ffbe9d"/>
            </g>
            <g id="Grupo_1117387" data-name="Grupo 1117387" transform="translate(2.363 14.604)">
              <path id="Trazado_908796" data-name="Trazado 908796" d="M563.749,255.058a12.413,12.413,0,0,0-1.182-1.436,13.81,13.81,0,0,0-3.333-3.053,32.174,32.174,0,0,1-3.745-2.408,17.8,17.8,0,0,1-1.277-1.314,3.334,3.334,0,0,0,1.072,1.543A22.124,22.124,0,0,0,559,250.938a16.764,16.764,0,0,1,3.338,2.893A5.871,5.871,0,0,0,563.749,255.058Z" transform="translate(-554.208 -246.847)" fill="#eb996e"/>
            </g>
            <g id="Grupo_1117388" data-name="Grupo 1117388" transform="translate(6.478 11.265)">
              <path id="Trazado_908797" data-name="Trazado 908797" d="M557.367,248.108a35.058,35.058,0,0,0-3.744-4.043c-1.081-1.057-2.007-2.085-2.8-2.714a3.374,3.374,0,0,0-1.4-.829c-.031.059.492.376,1.2,1.061.722.666,1.607,1.721,2.7,2.791a35.082,35.082,0,0,0,4.044,3.734Z" transform="translate(-549.413 -240.515)" fill="#eb996e"/>
            </g>
            <g id="Grupo_1117390" data-name="Grupo 1117390" transform="translate(9.604 6.619)">
              <g id="Grupo_1117389" data-name="Grupo 1117389">
                <path id="Trazado_908798" data-name="Trazado 908798" d="M555.007,235.936a16.076,16.076,0,0,0-2.1-2.026,27.087,27.087,0,0,1-1.849-2.207,4.371,4.371,0,0,0,1.546,2.518,7.33,7.33,0,0,0,2.4,1.715Z" transform="translate(-551.039 -231.702)" fill="#eb996e"/>
              </g>
            </g>
            <path id="Trazado_908799" data-name="Trazado 908799" d="M554.394,221.4a1.145,1.145,0,0,0,.046.261c.047.2.107.44.18.745.177.684.422,1.634.734,2.843l.007.027.023.02c.527.464,1.119,1,1.759,1.6a15.538,15.538,0,0,1,1.947,2.08,1.085,1.085,0,0,1,.2.661,1.047,1.047,0,0,1-.352.616,7.087,7.087,0,0,1-.643.531.972.972,0,0,1-.727.144,13.949,13.949,0,0,1-3.539-1.1l-.845-.349.652.637,2.611,2.551-.039-.056a3.332,3.332,0,0,1,.134,2.654,7.4,7.4,0,0,1-2.066,2.1l-.178.133.143.169c.57.673.974,1.738.229,2.4a9.683,9.683,0,0,1-2.474,1.692l.307.17v-.065h0c-.054.063.122-.151-.125.186-.589-.278-.17-.114-.3-.16h0v.313a4.042,4.042,0,0,1-.039.43,3.35,3.35,0,0,1-.227.827,2.2,2.2,0,0,1-.463.7,1.3,1.3,0,0,1-.678.389,4.131,4.131,0,0,1-1.725-.34,15.343,15.343,0,0,1-1.714-.771,28.136,28.136,0,0,1-3.049-1.845,17.771,17.771,0,0,1-2.668-2.189,2.16,2.16,0,0,1-.693-1.373,3.341,3.341,0,0,1,.281-1.536,8.737,8.737,0,0,1,1.8-2.609l.065-.068v-.1a3.287,3.287,0,0,1,.154-1.5,2.225,2.225,0,0,1,.919-1.086,4.906,4.906,0,0,1,2.815-.539l.262.016-.063-.259c-.069-.285-.15-.566-.209-.847a4.746,4.746,0,0,1-.065-.839,2.324,2.324,0,0,1,.471-1.484,3.422,3.422,0,0,1,2.717-1.064h.306l-.163-.248a25.441,25.441,0,0,1-1.47-2.4,3.523,3.523,0,0,1-.373-1.188,1.944,1.944,0,0,1,.234-1.106,4.941,4.941,0,0,1,1.435-1.559,2.106,2.106,0,0,1,1.707-.174,5.708,5.708,0,0,1,2.123,1.329c.216.2.369.358.474.464a1,1,0,0,0,.164.158.733.733,0,0,0-.129-.189,6.468,6.468,0,0,0-.445-.5,7,7,0,0,0-.818-.722,4.336,4.336,0,0,0-1.318-.711,2.293,2.293,0,0,0-1.868.157l-.437.319-.4.379a4.517,4.517,0,0,0-.716.928,2.211,2.211,0,0,0-.282,1.248,3.783,3.783,0,0,0,.385,1.291,25.066,25.066,0,0,0,1.462,2.448l.142-.247a4.761,4.761,0,0,0-1.591.227,2.938,2.938,0,0,0-1.418.941,2.682,2.682,0,0,0-.558,1.691,5.093,5.093,0,0,0,.065.91c.06.3.142.594.215.9l.2-.242a5.261,5.261,0,0,0-3.061.576,2.626,2.626,0,0,0-1.087,1.275,3.678,3.678,0,0,0-.187,1.692l.06-.168a9.082,9.082,0,0,0-1.9,2.74,3.74,3.74,0,0,0-.315,1.737,2.687,2.687,0,0,0,.254.892,3.922,3.922,0,0,0,.549.732,18.042,18.042,0,0,0,2.733,2.252,28.377,28.377,0,0,0,3.1,1.875,15.63,15.63,0,0,0,1.763.791,4.437,4.437,0,0,0,1.939.361,2.156,2.156,0,0,0,1.473-1.342,3.776,3.776,0,0,0,.255-.934,4.535,4.535,0,0,0,.043-.475v-.24l-.006-.126v-.032c-.128-.047.289.115-.3-.163-.248.335-.071.121-.125.186v.06l.005.062.029.318.278-.149a9.993,9.993,0,0,0,2.593-1.792,2.025,2.025,0,0,0,.445-.712,1.68,1.68,0,0,0,.035-.842,3.23,3.23,0,0,0-.712-1.4l-.035.3a7.7,7.7,0,0,0,2.181-2.259,2.769,2.769,0,0,0,.242-1.548,4.9,4.9,0,0,0-.384-1.443l-.013-.031-.027-.026-2.629-2.533-.192.288a14.075,14.075,0,0,0,3.655,1.091,1.284,1.284,0,0,0,.942-.219,7.293,7.293,0,0,0,.664-.563,1.332,1.332,0,0,0,.427-.8,1.36,1.36,0,0,0-.25-.837,15.2,15.2,0,0,0-2.023-2.1c-.654-.594-1.256-1.116-1.8-1.569l.03.046-.827-2.833-.225-.727a1,1,0,0,0-.1-.231Z" transform="translate(-540.386 -219.147)" fill="#eb996e"/>
          </g>
        </g>
      </g>
    </g>
  </g>
</svg>
