<svg xmlns="http://www.w3.org/2000/svg" xmlns:xlink="http://www.w3.org/1999/xlink" width="113" height="113" viewBox="0 0 113 113">
  <defs>
    <filter id="Trazado_896985" x="0" y="0" width="113" height="113" filterUnits="userSpaceOnUse">
      <feOffset dy="3" input="SourceAlpha"/>
      <feGaussianBlur stdDeviation="3" result="blur"/>
      <feFlood flood-opacity="0.161"/>
      <feComposite operator="in" in2="blur"/>
      <feComposite in="SourceGraphic"/>
    </filter>
    <filter id="Trazado_896985-2" x="47.349" y="38.331" width="28.136" height="28.136" filterUnits="userSpaceOnUse">
      <feOffset dy="3" input="SourceAlpha"/>
      <feGaussianBlur stdDeviation="3" result="blur-2"/>
      <feFlood flood-opacity="0.161"/>
      <feComposite operator="in" in2="blur-2"/>
      <feComposite in="SourceGraphic"/>
    </filter>
  </defs>
  <g id="Grupo_1116532" data-name="Grupo 1116532" transform="translate(-1245.551 -2163)">
    <g id="Grupo_1113442" data-name="Grupo 1113442" transform="translate(244.551)">
      <g id="Grupo_1113421" data-name="Grupo 1113421" transform="translate(675.109 -1683)">
        <g id="Grupo_1111318" data-name="Grupo 1111318" transform="translate(-5.891)">
          <g id="Grupo_1109826" data-name="Grupo 1109826" transform="translate(340.781 3852)">
            <g id="Grupo_1098742" data-name="Grupo 1098742">
              <g transform="matrix(1, 0, 0, 1, -9, -6)" filter="url(#Trazado_896985)">
                <g id="Trazado_896985-3" data-name="Trazado 896985" transform="translate(9 6)" fill="#e2dacc" opacity="0.859">
                  <path d="M 47.49993515014648 93.5 C 41.28932189941406 93.5 35.26528167724609 92.28397369384766 29.59514808654785 89.88571929931641 C 24.1176815032959 87.56894683837891 19.1981086730957 84.25197601318359 14.97306823730469 80.02693176269531 C 10.74802875518799 75.80189514160156 7.431055068969727 70.88231658935547 5.11428165435791 65.40485382080078 C 2.716028451919556 59.73471832275391 1.500001788139343 53.71067810058594 1.500001788139343 47.50006484985352 C 1.500001788139343 41.28932189941406 2.716028451919556 35.26528167724609 5.11428165435791 29.59514617919922 C 7.431055068969727 24.11767959594727 10.74802875518799 19.19810676574707 14.97306823730469 14.97306632995605 C 19.1981086730957 10.74802684783936 24.1176815032959 7.431053161621094 29.59514808654785 5.114280223846436 C 35.26528167724609 2.716026782989502 41.28932189941406 1.5 47.49993515014648 1.5 C 53.71054840087891 1.5 59.73458862304688 2.716026782989502 65.40472412109375 5.114280223846436 C 70.88218688964844 7.431053161621094 75.80176544189453 10.74802684783936 80.02680206298828 14.97306632995605 C 84.25183868408203 19.19810676574707 87.56881713867188 24.11767959594727 89.88558959960938 29.59514617919922 C 92.28384399414062 35.26528167724609 93.49987030029297 41.28932189941406 93.49987030029297 47.49993515014648 C 93.49987030029297 53.71067810058594 92.28384399414062 59.73471832275391 89.88558959960938 65.40485382080078 C 87.56881713867188 70.88231658935547 84.25183868408203 75.80189514160156 80.02680206298828 80.02693176269531 C 75.80176544189453 84.25197601318359 70.88218688964844 87.56894683837891 65.40472412109375 89.88571929931641 C 59.73458862304688 92.28397369384766 53.71054840087891 93.5 47.49993515014648 93.5 Z" stroke="none"/>
                  <path d="M 47.49993515014648 3 C 41.49116516113281 3 35.66371917724609 4.176155090332031 30.17947387695312 6.495796203613281 C 24.88081359863281 8.7369384765625 20.12149047851562 11.94596862792969 16.03372192382812 16.03372192382812 C 11.94596862792969 20.12149047851562 8.7369384765625 24.88081359863281 6.495796203613281 30.17947387695312 C 4.1761474609375 35.66372299194336 3 41.49116897583008 3 47.50006103515625 C 3 53.50883102416992 4.1761474609375 59.33627700805664 6.495796203613281 64.82052612304688 C 8.7369384765625 70.11918640136719 11.94596862792969 74.87850952148438 16.03372192382812 78.96627807617188 C 20.12149047851562 83.05403137207031 24.88081359863281 86.2630615234375 30.17947387695312 88.50419616699219 C 35.66371917724609 90.82384490966797 41.49116516113281 92 47.49993515014648 92 C 53.50870513916016 92 59.33615112304688 90.82384490966797 64.82039642333984 88.50419616699219 C 70.11905670166016 86.2630615234375 74.87837982177734 83.05403137207031 78.96614837646484 78.96627807617188 C 83.05390167236328 74.87850952148438 86.26293182373047 70.11918640136719 88.50407409667969 64.82052612304688 C 90.82372283935547 59.33627700805664 91.99987030029297 53.50883102416992 91.99987030029297 47.49993896484375 C 91.99987030029297 41.49116897583008 90.82372283935547 35.66372299194336 88.50407409667969 30.17947387695312 C 86.26293182373047 24.88081359863281 83.05390167236328 20.12149047851562 78.96614837646484 16.03372192382812 C 74.87837982177734 11.94596862792969 70.11905670166016 8.7369384765625 64.82039642333984 6.495796203613281 C 59.33615112304688 4.176155090332031 53.50870513916016 3 47.49993515014648 3 M 47.49993515014648 0 C 73.73342895507812 0 94.99987030029297 21.26644897460938 94.99987030029297 47.49993896484375 L 94.99987030029297 47.50006103515625 C 94.99987030029297 73.73355102539062 73.73342895507812 95 47.49993515014648 95 C 21.26644134521484 95 0 73.73355102539062 0 47.50006103515625 L 0 47.49993896484375 C 0 21.26644897460938 21.26644134521484 0 47.49993515014648 0 Z" stroke="none" fill="#fff"/>
                </g>
              </g>
              <g id="Rectángulo_400907" data-name="Rectángulo 400907" transform="translate(0 0)" fill="none" stroke="#fff" stroke-width="3">
                <rect width="95" height="95" rx="47.5" stroke="none"/>
                <rect x="1.5" y="1.5" width="92" height="92" rx="46" fill="none"/>
              </g>
            </g>
          </g>
        </g>
      </g>
    </g>
    <g id="Grupo_1113440" data-name="Grupo 1113440" transform="translate(1176.488 -1500.848)">
      <g id="Grupo_1111318-2" data-name="Grupo 1111318" transform="translate(125.411 3708.178)">
        <g id="Grupo_1109826-2" data-name="Grupo 1109826" transform="translate(0 0)">
          <g id="Grupo_1098742-2" data-name="Grupo 1098742" transform="translate(0)">
            <g transform="matrix(1, 0, 0, 1, -56.35, -44.33)" filter="url(#Trazado_896985-2)">
              <g id="Trazado_896985-4" data-name="Trazado 896985" transform="translate(56.35 44.33)" fill="#e2dacc" opacity="0.859">
                <path d="M 5.068058967590332 8.636136054992676 C 3.100628852844238 8.636136054992676 1.499998927116394 7.035506248474121 1.499998927116394 5.068076133728027 C 1.499998927116394 3.100626230239868 3.100628852844238 1.499996066093445 5.068058967590332 1.499996066093445 C 7.035489082336426 1.499996066093445 8.63611888885498 3.100626230239868 8.63611888885498 5.068056106567383 C 8.63611888885498 7.035506248474121 7.035489082336426 8.636136054992676 5.068058967590332 8.636136054992676 Z" stroke="none"/>
                <path d="M 5.068058967590332 2.999996185302734 C 3.92772912979126 2.999996185302734 2.999999046325684 3.927736282348633 2.999999046325684 5.068076133728027 C 2.999999046325684 6.208406448364258 3.92772912979126 7.136136054992676 5.068058967590332 7.136136054992676 C 6.208389282226562 7.136136054992676 7.13611888885498 6.208395957946777 7.13611888885498 5.068056106567383 C 7.13611888885498 3.927726268768311 6.208389282226562 2.999996185302734 5.068058967590332 2.999996185302734 M 5.068058967590332 -3.814697265625e-06 C 7.867069244384766 -3.814697265625e-06 10.13611888885498 2.269046306610107 10.13611888885498 5.068056106567383 L 10.13611888885498 5.068076133728027 C 10.13611888885498 7.867086410522461 7.867069244384766 10.13613605499268 5.068058967590332 10.13613605499268 C 2.269049167633057 10.13613605499268 -9.5367431640625e-07 7.867086410522461 -9.5367431640625e-07 5.068076133728027 L -9.5367431640625e-07 5.068056106567383 C -9.5367431640625e-07 2.269046306610107 2.269049167633057 -3.814697265625e-06 5.068058967590332 -3.814697265625e-06 Z" stroke="none" fill="#fff"/>
              </g>
            </g>
            <g id="Rectángulo_400907-2" data-name="Rectángulo 400907" transform="translate(0)" fill="none" stroke="#fff" stroke-width="3">
              <rect width="10.136" height="10.136" rx="5.068" stroke="none"/>
              <rect x="1.5" y="1.5" width="7.136" height="7.136" rx="3.568" fill="none"/>
            </g>
          </g>
        </g>
      </g>
      <g id="cuentas" transform="translate(100.391 3691)">
        <g id="Grupo_1113440-2" data-name="Grupo 1113440" transform="translate(13.657 6.829)">
          <path id="Trazado_903704" data-name="Trazado 903704" d="M407.537,317.927h.263v-.009C407.713,317.923,407.625,317.927,407.537,317.927Z" transform="translate(-377.711 -290.826)" fill="#fff"/>
          <path id="Trazado_903705" data-name="Trazado 903705" d="M153.508,86.784V64H128V91.1h29.825A4.317,4.317,0,0,1,153.508,86.784Z" transform="translate(-128 -64)" fill="#fff"/>
        </g>
        <path id="Trazado_903706" data-name="Trazado 903706" d="M128,15.762h25.508V38.545a4.317,4.317,0,0,0,4.317,4.317h0a4.317,4.317,0,0,0,4.317-4.317V10H136.635v5.6" transform="translate(-114.343 -8.933)" fill="#c9f3ff"/>
        <path id="Trazado_903707" data-name="Trazado 903707" d="M33.687,178H12.561A2.561,2.561,0,0,0,10,180.561v29.448a2.561,2.561,0,0,0,2.561,2.561H33.687a2.561,2.561,0,0,0,2.561-2.561V180.561A2.561,2.561,0,0,0,33.687,178Z" transform="translate(-8.933 -159.008)" fill="#6a80ff"/>
        <g id="Grupo_1113441" data-name="Grupo 1113441" transform="translate(5.107 23.26)">
          <path id="Trazado_903708" data-name="Trazado 903708" d="M66.831,223.975H50.88a.88.88,0,0,1-.88-.88V218.88a.88.88,0,0,1,.88-.88H66.831a.88.88,0,0,1,.88.88v4.214A.88.88,0,0,1,66.831,223.975Z" transform="translate(-49.772 -218)" fill="#ade5ff"/>
          <rect id="Rectángulo_405351" data-name="Rectángulo 405351" width="17.875" height="15.322" transform="translate(0 10.429)" fill="#ade5ff"/>
        </g>
        <rect id="Rectángulo_405352" data-name="Rectángulo 405352" width="5.903" height="10.243" transform="translate(17.143 38.624)" fill="#ff5d5d"/>
        <circle id="Elipse_13262" data-name="Elipse 13262" cx="9.959" cy="9.959" r="9.959" transform="translate(33.708 33.689)" fill="#ffb954"/>
        <path id="Trazado_903709" data-name="Trazado 903709" d="M40,209.947v4.215a1.949,1.949,0,0,0,1.947,1.947H57.9a1.949,1.949,0,0,0,1.947-1.947v-4.215A1.949,1.949,0,0,0,57.9,208H41.947A1.949,1.949,0,0,0,40,209.947Zm2.134.187H57.712v3.841H42.134Z" transform="translate(-35.732 -185.807)"/>
        <path id="Trazado_903710" data-name="Trazado 903710" d="M58.779,304H41.067A1.067,1.067,0,0,0,40,305.067v15.364a1.067,1.067,0,0,0,1.067,1.067H58.779a1.067,1.067,0,0,0,1.067-1.067V305.067A1.067,1.067,0,0,0,58.779,304Zm-1.067,5.121h-3.77v-2.987h3.77Zm-15.578,2.134H45.9v2.987h-3.77Zm5.9,0h3.77v2.987h-3.77Zm3.77-2.134h-3.77v-2.987h3.77Zm-9.674-2.987H45.9v2.987h-3.77Zm0,10.243H45.9v2.987h-3.77Zm5.9,0h3.77v2.987h-3.77Zm9.674,2.987h-3.77v-8.109h3.77Z" transform="translate(-35.732 -271.564)"/>
        <path id="Trazado_903711" data-name="Trazado 903711" d="M439.067,108.71a1.068,1.068,0,1,0,.754.313A1.075,1.075,0,0,0,439.067,108.71Z" transform="translate(-391.267 -97.111)"/>
        <path id="Trazado_903712" data-name="Trazado 903712" d="M381.55,354.813a1.173,1.173,0,0,1,1.264,1.049,1.067,1.067,0,0,0,2.134,0,3.215,3.215,0,0,0-2.331-3.021v-.056a1.067,1.067,0,0,0-2.134,0v.056a3.215,3.215,0,0,0-2.331,3.021,3.3,3.3,0,0,0,3.4,3.183,1.067,1.067,0,1,1-1.264,1.049,1.067,1.067,0,0,0-2.134,0,3.215,3.215,0,0,0,2.332,3.021,1.066,1.066,0,0,0,2.131,0,3.215,3.215,0,0,0,2.332-3.021,3.3,3.3,0,0,0-3.4-3.182,1.067,1.067,0,1,1,0-2.1Z" transform="translate(-337.805 -314.191)"/>
        <path id="Trazado_903713" data-name="Trazado 903713" d="M47.259,33.445a5.367,5.367,0,0,0,1.607-3.833V17.071a1.067,1.067,0,1,0-2.134,0V29.612a3.25,3.25,0,1,1-6.5,0V6.829a1.067,1.067,0,0,0-1.067-1.067H23.359V2.134H46.733V8.4a1.067,1.067,0,1,0,2.134,0V1.067A1.067,1.067,0,0,0,47.8,0H22.292a1.067,1.067,0,0,0-1.067,1.067V5.762H13.657A1.067,1.067,0,0,0,12.59,6.829v11.1H3.628A3.632,3.632,0,0,0,0,21.553V51a3.632,3.632,0,0,0,3.628,3.628H24.754A3.632,3.632,0,0,0,28.381,51V35H32.9a1.067,1.067,0,1,0,0-2.134H28.381V21.553a3.632,3.632,0,0,0-3.628-3.628H14.724V7.9H38.1V29.612a5.371,5.371,0,0,0,1.753,3.971,10.882,10.882,0,1,0,7.408-.139ZM26.247,21.553V51a1.5,1.5,0,0,1-1.494,1.494H3.628A1.5,1.5,0,0,1,2.134,51V21.553a1.5,1.5,0,0,1,1.494-1.494H24.754A1.5,1.5,0,0,1,26.247,21.553Zm17.5,30.942a8.749,8.749,0,1,1,8.749-8.749A8.759,8.759,0,0,1,43.745,52.494Z"/>
        <path id="Trazado_903714" data-name="Trazado 903714" d="M262.067,148.134h5a1.067,1.067,0,1,0,0-2.134h-5a1.067,1.067,0,0,0,0,2.134Z" transform="translate(-233.152 -130.422)"/>
        <path id="Trazado_903715" data-name="Trazado 903715" d="M215.515,99.067A1.067,1.067,0,0,0,214.448,98H203.067a1.067,1.067,0,1,0,0,2.134h11.381A1.067,1.067,0,0,0,215.515,99.067Z" transform="translate(-180.447 -87.544)"/>
        <path id="Trazado_903716" data-name="Trazado 903716" d="M162.813,98.313a1.066,1.066,0,1,0,.754-.313A1.075,1.075,0,0,0,162.813,98.313Z" transform="translate(-145.162 -87.544)"/>
        <path id="Trazado_903717" data-name="Trazado 903717" d="M282.251,194h-3.184a1.067,1.067,0,0,0,0,2.134h3.184a1.067,1.067,0,0,0,0-2.134Z" transform="translate(-248.338 -173.301)"/>
        <path id="Trazado_903718" data-name="Trazado 903718" d="M279.067,244.134h3.184a1.067,1.067,0,0,0,0-2.134h-3.184a1.067,1.067,0,0,0,0,2.134Z" transform="translate(-248.338 -216.18)"/>
      </g>
    </g>
  </g>
</svg>
