<svg xmlns="http://www.w3.org/2000/svg" xmlns:xlink="http://www.w3.org/1999/xlink" width="113" height="113" viewBox="0 0 113 113">
  <defs>
    <filter id="Trazado_896985" x="0" y="0" width="113" height="113" filterUnits="userSpaceOnUse">
      <feOffset dy="3" input="SourceAlpha"/>
      <feGaussianBlur stdDeviation="3" result="blur"/>
      <feFlood flood-opacity="0.161"/>
      <feComposite operator="in" in2="blur"/>
      <feComposite in="SourceGraphic"/>
    </filter>
  </defs>
  <g id="Grupo_1113439" data-name="Grupo 1113439" transform="translate(-1001 -2163)">
    <g id="Grupo_1113421" data-name="Grupo 1113421" transform="translate(675.109 -1683)">
      <g id="Grupo_1111318" data-name="Grupo 1111318" transform="translate(-5.891)">
        <g id="Grupo_1109826" data-name="Grupo 1109826" transform="translate(340.781 3852)">
          <g id="Grupo_1098742" data-name="Grupo 1098742">
            <g transform="matrix(1, 0, 0, 1, -9, -6)" filter="url(#Trazado_896985)">
              <g id="Trazado_896985-2" data-name="Trazado 896985" transform="translate(9 6)" fill="#e2dacc" opacity="0.859">
                <path d="M 47.49993515014648 93.5 C 41.28932189941406 93.5 35.26528167724609 92.28397369384766 29.59514808654785 89.88571929931641 C 24.1176815032959 87.56894683837891 19.1981086730957 84.25197601318359 14.97306823730469 80.02693176269531 C 10.74802875518799 75.80189514160156 7.431055068969727 70.88231658935547 5.11428165435791 65.40485382080078 C 2.716028451919556 59.73471832275391 1.500001788139343 53.71067810058594 1.500001788139343 47.50006484985352 C 1.500001788139343 41.28932189941406 2.716028451919556 35.26528167724609 5.11428165435791 29.59514617919922 C 7.431055068969727 24.11767959594727 10.74802875518799 19.19810676574707 14.97306823730469 14.97306632995605 C 19.1981086730957 10.74802684783936 24.1176815032959 7.431053161621094 29.59514808654785 5.114280223846436 C 35.26528167724609 2.716026782989502 41.28932189941406 1.5 47.49993515014648 1.5 C 53.71054840087891 1.5 59.73458862304688 2.716026782989502 65.40472412109375 5.114280223846436 C 70.88218688964844 7.431053161621094 75.80176544189453 10.74802684783936 80.02680206298828 14.97306632995605 C 84.25183868408203 19.19810676574707 87.56881713867188 24.11767959594727 89.88558959960938 29.59514617919922 C 92.28384399414062 35.26528167724609 93.49987030029297 41.28932189941406 93.49987030029297 47.49993515014648 C 93.49987030029297 53.71067810058594 92.28384399414062 59.73471832275391 89.88558959960938 65.40485382080078 C 87.56881713867188 70.88231658935547 84.25183868408203 75.80189514160156 80.02680206298828 80.02693176269531 C 75.80176544189453 84.25197601318359 70.88218688964844 87.56894683837891 65.40472412109375 89.88571929931641 C 59.73458862304688 92.28397369384766 53.71054840087891 93.5 47.49993515014648 93.5 Z" stroke="none"/>
                <path d="M 47.49993515014648 3 C 41.49116516113281 3 35.66371917724609 4.176155090332031 30.17947387695312 6.495796203613281 C 24.88081359863281 8.7369384765625 20.12149047851562 11.94596862792969 16.03372192382812 16.03372192382812 C 11.94596862792969 20.12149047851562 8.7369384765625 24.88081359863281 6.495796203613281 30.17947387695312 C 4.1761474609375 35.66372299194336 3 41.49116897583008 3 47.50006103515625 C 3 53.50883102416992 4.1761474609375 59.33627700805664 6.495796203613281 64.82052612304688 C 8.7369384765625 70.11918640136719 11.94596862792969 74.87850952148438 16.03372192382812 78.96627807617188 C 20.12149047851562 83.05403137207031 24.88081359863281 86.2630615234375 30.17947387695312 88.50419616699219 C 35.66371917724609 90.82384490966797 41.49116516113281 92 47.49993515014648 92 C 53.50870513916016 92 59.33615112304688 90.82384490966797 64.82039642333984 88.50419616699219 C 70.11905670166016 86.2630615234375 74.87837982177734 83.05403137207031 78.96614837646484 78.96627807617188 C 83.05390167236328 74.87850952148438 86.26293182373047 70.11918640136719 88.50407409667969 64.82052612304688 C 90.82372283935547 59.33627700805664 91.99987030029297 53.50883102416992 91.99987030029297 47.49993896484375 C 91.99987030029297 41.49116897583008 90.82372283935547 35.66372299194336 88.50407409667969 30.17947387695312 C 86.26293182373047 24.88081359863281 83.05390167236328 20.12149047851562 78.96614837646484 16.03372192382812 C 74.87837982177734 11.94596862792969 70.11905670166016 8.7369384765625 64.82039642333984 6.495796203613281 C 59.33615112304688 4.176155090332031 53.50870513916016 3 47.49993515014648 3 M 47.49993515014648 0 C 73.73342895507812 0 94.99987030029297 21.26644897460938 94.99987030029297 47.49993896484375 L 94.99987030029297 47.50006103515625 C 94.99987030029297 73.73355102539062 73.73342895507812 95 47.49993515014648 95 C 21.26644134521484 95 0 73.73355102539062 0 47.50006103515625 L 0 47.49993896484375 C 0 21.26644897460938 21.26644134521484 0 47.49993515014648 0 Z" stroke="none" fill="#fff"/>
              </g>
            </g>
            <g id="Rectángulo_400907" data-name="Rectángulo 400907" transform="translate(0 0)" fill="none" stroke="#fff" stroke-width="3">
              <rect width="95" height="95" rx="47.5" stroke="none"/>
              <rect x="1.5" y="1.5" width="92" height="92" rx="46" fill="none"/>
            </g>
          </g>
        </g>
      </g>
    </g>
    <g id="moneda" transform="translate(1030.528 2191.646)">
      <g id="Grupo_1113437" data-name="Grupo 1113437" transform="translate(0.871 0.818)">
        <path id="Trazado_903673" data-name="Trazado 903673" d="M110.541,32.765a1.114,1.114,0,0,1-1.114,1.114h-46a1.114,1.114,0,0,1-1.114-1.114V8.614A1.114,1.114,0,0,1,63.425,7.5h46a1.114,1.114,0,0,1,1.114,1.114V32.765Z" transform="translate(-56.339 -7.5)" fill="#78c2a4"/>
        <path id="Trazado_903674" data-name="Trazado 903674" d="M476.642,7.5h-2.166a1.114,1.114,0,0,1,1.114,1.114V32.765a1.114,1.114,0,0,1-1.114,1.114h2.166a1.114,1.114,0,0,0,1.114-1.114V8.614A1.114,1.114,0,0,0,476.642,7.5Z" transform="translate(-423.555 -7.5)" fill="#66b394"/>
        <path id="Trazado_903675" data-name="Trazado 903675" d="M169.767,469.6H159.258a1.363,1.363,0,0,1-1.363-1.363v-1.559a1.363,1.363,0,0,1,1.363-1.363h10.509a1.363,1.363,0,0,1,1.363,1.363v1.559A1.363,1.363,0,0,1,169.767,469.6Z" transform="translate(-141.499 -415.383)" fill="#eab14d"/>
        <path id="Trazado_903676" data-name="Trazado 903676" d="M248.954,465.311h-2.179a1.363,1.363,0,0,1,1.363,1.363v1.559a1.363,1.363,0,0,1-1.363,1.363h2.179a1.363,1.363,0,0,0,1.363-1.363v-1.559A1.363,1.363,0,0,0,248.954,465.311Z" transform="translate(-220.686 -415.383)" fill="#e49542"/>
        <path id="Trazado_903677" data-name="Trazado 903677" d="M185.755,391H175.246a1.363,1.363,0,0,1-1.363-1.363v-1.559a1.363,1.363,0,0,1,1.363-1.363h10.509a1.363,1.363,0,0,1,1.363,1.363v1.559A1.363,1.363,0,0,1,185.755,391Z" transform="translate(-155.743 -345.362)" fill="#eab14d"/>
        <path id="Trazado_903678" data-name="Trazado 903678" d="M264.942,386.719h-2.179a1.363,1.363,0,0,1,1.363,1.363v1.559A1.363,1.363,0,0,1,262.763,391h2.179a1.363,1.363,0,0,0,1.363-1.363v-1.559A1.363,1.363,0,0,0,264.942,386.719Z" transform="translate(-234.93 -345.362)" fill="#e49542"/>
        <path id="Trazado_903679" data-name="Trazado 903679" d="M169.767,430.3H159.258a1.363,1.363,0,0,1-1.363-1.363v-1.559a1.363,1.363,0,0,1,1.363-1.363h10.509a1.363,1.363,0,0,1,1.363,1.363v1.559A1.363,1.363,0,0,1,169.767,430.3Z" transform="translate(-141.499 -380.373)" fill="#f6e266"/>
        <path id="Trazado_903680" data-name="Trazado 903680" d="M248.954,426.015h-2.179a1.363,1.363,0,0,1,1.363,1.363v1.559a1.363,1.363,0,0,1-1.363,1.363h2.179a1.363,1.363,0,0,0,1.363-1.363v-1.559A1.363,1.363,0,0,0,248.954,426.015Z" transform="translate(-220.686 -380.373)" fill="#ecbe6b"/>
        <path id="Trazado_903681" data-name="Trazado 903681" d="M134,52.5V42.34a4.84,4.84,0,0,1-4.84-4.84H97.151a4.84,4.84,0,0,1-4.84,4.84V52.5a4.84,4.84,0,0,1,4.84,4.84h32.006A4.84,4.84,0,0,1,134,52.5Z" transform="translate(-83.067 -34.228)" fill="#e0f8c5"/>
        <path id="Trazado_903682" data-name="Trazado 903682" d="M405.978,37.5h-2.962a4.842,4.842,0,0,0,3.253,4.574,2.361,2.361,0,0,1,1.587,2.23v6.228a2.36,2.36,0,0,1-1.587,2.23,4.842,4.842,0,0,0-3.253,4.574h2.962a4.84,4.84,0,0,1,4.84-4.84V42.34A4.84,4.84,0,0,1,405.978,37.5Z" transform="translate(-359.888 -34.228)" fill="#ccf49f"/>
        <path id="Trazado_903683" data-name="Trazado 903683" d="M55.783,140.217a1.114,1.114,0,0,1-1.114,1.114h-46a1.114,1.114,0,0,1-1.114-1.114V116.066a1.114,1.114,0,0,1,1.114-1.114h46a1.114,1.114,0,0,1,1.114,1.114Z" transform="translate(-7.553 -103.234)" fill="#78c2a4"/>
        <path id="Trazado_903684" data-name="Trazado 903684" d="M421.884,114.952h-2.166a1.114,1.114,0,0,1,1.114,1.114v24.151a1.114,1.114,0,0,1-1.114,1.114h2.166A1.114,1.114,0,0,0,423,140.217V116.066A1.114,1.114,0,0,0,421.884,114.952Z" transform="translate(-374.768 -103.234)" fill="#66b394"/>
        <path id="Trazado_903685" data-name="Trazado 903685" d="M79.239,159.949V149.793a4.84,4.84,0,0,1-4.84-4.84H42.393a4.84,4.84,0,0,1-4.84,4.84v10.156a4.84,4.84,0,0,1,4.84,4.84H74.4A4.84,4.84,0,0,1,79.239,159.949Z" transform="translate(-34.281 -129.963)" fill="#e0f8c5"/>
        <path id="Trazado_903686" data-name="Trazado 903686" d="M351.22,144.953h-2.962a4.842,4.842,0,0,0,3.253,4.574,2.361,2.361,0,0,1,1.587,2.23v6.229a2.36,2.36,0,0,1-1.587,2.23,4.842,4.842,0,0,0-3.253,4.574h2.962a4.84,4.84,0,0,1,4.84-4.84V149.793A4.84,4.84,0,0,1,351.22,144.953Z" transform="translate(-311.102 -129.963)" fill="#ccf49f"/>
        <circle id="Elipse_13260" data-name="Elipse 13260" cx="10.308" cy="10.308" r="10.308" transform="translate(2.07 33.597)" fill="#f6e266"/>
        <path id="Trazado_903687" data-name="Trazado 903687" d="M110.883,315.57a10.392,10.392,0,0,0-1.245.077,10.306,10.306,0,0,1,0,20.461,10.307,10.307,0,1,0,1.245-20.538Z" transform="translate(-98.505 -281.973)" fill="#ecbe6b"/>
        <circle id="Elipse_13261" data-name="Elipse 13261" cx="10.308" cy="10.308" r="10.308" transform="translate(33.586 27.79)" fill="#f6e266"/>
        <path id="Trazado_903688" data-name="Trazado 903688" d="M399.868,262.317a10.4,10.4,0,0,0-1.245.077,10.306,10.306,0,0,1,0,20.461,10.307,10.307,0,1,0,1.245-20.538Z" transform="translate(-355.974 -234.527)" fill="#ecbe6b"/>
      </g>
      <g id="Grupo_1113438" data-name="Grupo 1113438" transform="translate(0.053 0)">
        <path id="Trazado_903689" data-name="Trazado 903689" d="M463.9,37.714V37.5a.818.818,0,0,0-1.636,0v.218a.818.818,0,0,0,1.636,0Z" transform="translate(-411.855 -32.678)"/>
        <path id="Trazado_903690" data-name="Trazado 903690" d="M462.263,204.023v.218a.818.818,0,0,0,1.636,0v-.218a.818.818,0,0,0-1.636,0Z" transform="translate(-411.855 -181.044)"/>
        <path id="Trazado_903691" data-name="Trazado 903691" d="M89.6,37.5v.218a.818.818,0,0,0,1.636,0V37.5a.818.818,0,0,0-1.636,0Z" transform="translate(-79.836 -32.678)"/>
        <path id="Trazado_903692" data-name="Trazado 903692" d="M53.959,28.015a1.934,1.934,0,0,0,1.932-1.932V1.932A1.934,1.934,0,0,0,53.959,0H48.709a.818.818,0,1,0,0,1.636h5.249a.3.3,0,0,1,.3.3V26.083a.3.3,0,0,1-.3.3h-4.04V20.373A4,4,0,0,1,51.8,19.9a.818.818,0,0,0,.818-.818V8.93a.818.818,0,0,0-.818-.818A4.027,4.027,0,0,1,47.779,4.09a.818.818,0,0,0-.818-.818H14.955a.818.818,0,0,0-.818.818,4.027,4.027,0,0,1-4.022,4.022A.818.818,0,0,0,9.3,8.93v2.789H7.661V1.932a.3.3,0,0,1,.3-.3H45.439a.818.818,0,1,0,0-1.636H7.957A1.934,1.934,0,0,0,6.025,1.932v9.787H1.985A1.934,1.934,0,0,0,.053,13.65V37.8a1.934,1.934,0,0,0,1.932,1.932H3.306A11.126,11.126,0,0,0,17.056,55.178a2.17,2.17,0,0,0,1.574.671H29.139a2.183,2.183,0,0,0,2.181-2.181V52.109a2.169,2.169,0,0,0-.481-1.363,2.169,2.169,0,0,0,.481-1.363V47.823a2.173,2.173,0,0,0-.08-.577A2.183,2.183,0,0,0,33.064,45.1V43.538a2.183,2.183,0,0,0-2.181-2.181H23.853a11.05,11.05,0,0,0-.663-1.623H33.669a11.14,11.14,0,0,0,11.1,10.308,11.019,11.019,0,0,0,6.8-2.319.818.818,0,1,0-1-1.294,9.4,9.4,0,0,1-5.8,1.978,9.488,9.488,0,1,1,7.862-4.173.818.818,0,1,0,1.354.918,11.125,11.125,0,0,0-4.062-16.093V28.015h4.04ZM10.933,9.689a5.67,5.67,0,0,0,4.781-4.781H46.2a5.67,5.67,0,0,0,4.781,4.781v8.637a5.624,5.624,0,0,0-1.064.264V13.65a1.934,1.934,0,0,0-1.932-1.932H31.716V10.1a4.715,4.715,0,0,1,1.325.374.818.818,0,0,0,.731-1.464,6.266,6.266,0,0,0-2.056-.554v-.45a.818.818,0,1,0-1.636,0v.564a2.8,2.8,0,0,0-2,1.783,2.971,2.971,0,0,0-.175,1.362H10.933Zm18.635,2.03a1.279,1.279,0,0,1,.045-.79,1.242,1.242,0,0,1,.468-.6v1.394Zm-25.809,33a9.49,9.49,0,1,1,9.49,9.49A9.5,9.5,0,0,1,3.759,44.723Zm25.925,3.1v1.559a.546.546,0,0,1-.545.545H23.08a11.047,11.047,0,0,0,1-2.65h5.061A.546.546,0,0,1,29.684,47.823Zm0,5.845a.546.546,0,0,1-.545.545H19.05a11.213,11.213,0,0,0,2.967-2.65h7.122a.546.546,0,0,1,.545.545Zm1.2-10.675a.546.546,0,0,1,.545.545V45.1a.546.546,0,0,1-.545.545H24.336c.025-.3.038-.61.038-.919a11.165,11.165,0,0,0-.135-1.731Zm-10.19-6.531H33.912a11.079,11.079,0,0,0-.243,1.636H22.181a11.225,11.225,0,0,0-1.489-1.636ZM46.647,27.95v-7.3a.818.818,0,0,0-.818-.818,4.027,4.027,0,0,1-4.022-4.022.818.818,0,0,0-.818-.818H8.983a.818.818,0,0,0-.818.818A4.027,4.027,0,0,1,4.143,19.83a.818.818,0,0,0-.818.818v3.443a.818.818,0,1,0,1.636,0V21.407a5.671,5.671,0,0,0,4.781-4.781H40.23a5.67,5.67,0,0,0,4.781,4.781v6.386c-.082,0-.164,0-.246,0a11.144,11.144,0,0,0-10.347,7.036H18.328a11.118,11.118,0,0,0-8.713-.618,5.673,5.673,0,0,0-4.653-4.163V27.361a.818.818,0,0,0-1.636,0V30.8a.818.818,0,0,0,.818.818,4.027,4.027,0,0,1,3.946,3.247A11.2,11.2,0,0,0,4.316,38.1H1.985a.3.3,0,0,1-.3-.3V13.65a.3.3,0,0,1,.3-.3h46a.3.3,0,0,1,.3.3V28.36a11.027,11.027,0,0,0-1.636-.41Z" transform="translate(-0.053 0)"/>
        <path id="Trazado_903693" data-name="Trazado 903693" d="M198.387,184.865a4.11,4.11,0,0,0,2.1.775v.568a.818.818,0,0,0,1.636,0v-.645a3.444,3.444,0,0,0,2.538-2.752,2.994,2.994,0,0,0-2.059-3.426c-.158-.056-.318-.114-.479-.174V176.3a4.721,4.721,0,0,1,1.325.374.818.818,0,0,0,.731-1.463,6.264,6.264,0,0,0-2.056-.554v-.45a.818.818,0,0,0-1.636,0v.564q-.094.024-.188.052a2.848,2.848,0,0,0-1.953,2.233,2.525,2.525,0,0,0,.833,2.487,6.333,6.333,0,0,0,1.307.761V184a2.618,2.618,0,0,1-1.2-.5.818.818,0,1,0-.9,1.369Zm4.657-2.325a1.8,1.8,0,0,1-.925,1.289v-2.877A1.387,1.387,0,0,1,203.044,182.54Zm-2.859-4.28a.926.926,0,0,1-.235-.9,1.3,1.3,0,0,1,.533-.836v1.937A3.232,3.232,0,0,1,200.185,178.26Z" transform="translate(-176.427 -154.483)"/>
        <path id="Trazado_903694" data-name="Trazado 903694" d="M305.97,230.03h2.266a.818.818,0,1,0,0-1.636H305.97a.818.818,0,1,0,0,1.636Z" transform="translate(-271.879 -203.486)"/>
        <path id="Trazado_903695" data-name="Trazado 903695" d="M117.237,230.03H119.5a.818.818,0,1,0,0-1.636h-2.266a.818.818,0,1,0,0,1.636Z" transform="translate(-103.728 -203.486)"/>
        <path id="Trazado_903696" data-name="Trazado 903696" d="M408.322,144.13a.818.818,0,0,0-.818.818v.218a.818.818,0,1,0,1.636,0v-.218A.818.818,0,0,0,408.322,144.13Z" transform="translate(-363.068 -128.412)"/>
        <path id="Trazado_903697" data-name="Trazado 903697" d="M408.322,312.511a.818.818,0,0,0,.818-.818v-.218a.818.818,0,1,0-1.636,0v.218A.818.818,0,0,0,408.322,312.511Z" transform="translate(-363.068 -276.777)"/>
        <path id="Trazado_903698" data-name="Trazado 903698" d="M35.662,144.13a.818.818,0,0,0-.818.818v.218a.818.818,0,1,0,1.636,0v-.218A.818.818,0,0,0,35.662,144.13Z" transform="translate(-31.05 -128.412)"/>
        <path id="Trazado_903699" data-name="Trazado 903699" d="M35.662,312.511a.818.818,0,0,0,.818-.818v-.218a.818.818,0,0,0-1.636,0v.218A.818.818,0,0,0,35.662,312.511Z" transform="translate(-31.05 -276.777)"/>
        <path id="Trazado_903700" data-name="Trazado 903700" d="M58.189,339.533a7.695,7.695,0,1,0,7.695,7.695A7.7,7.7,0,0,0,58.189,339.533Zm0,13.753a6.059,6.059,0,1,1,6.059-6.059A6.066,6.066,0,0,1,58.189,353.286Z" transform="translate(-44.993 -302.504)"/>
        <path id="Trazado_903701" data-name="Trazado 903701" d="M347.174,286.28a7.695,7.695,0,1,0,7.695,7.695A7.7,7.7,0,0,0,347.174,286.28Zm0,13.753a6.059,6.059,0,1,1,6.059-6.059A6.066,6.066,0,0,1,347.174,300.033Z" transform="translate(-302.462 -255.059)"/>
        <path id="Trazado_903702" data-name="Trazado 903702" d="M97.81,402.588H93.191a.818.818,0,0,0,0,1.636H97.81a.818.818,0,0,0,0-1.636Z" transform="translate(-82.305 -358.683)"/>
        <path id="Trazado_903703" data-name="Trazado 903703" d="M386.795,349.336h-4.619a.818.818,0,1,0,0,1.636h4.619a.818.818,0,1,0,0-1.636Z" transform="translate(-339.774 -311.238)"/>
      </g>
    </g>
  </g>
</svg>
